<svg width="16" height="16" viewBox="0 0 16 16" fill="none" xmlns="http://www.w3.org/2000/svg">
<path d="M8.00002 6.00002C8.27616 6.00002 8.50002 6.22387 8.50002 6.50002V9.00002C8.50002 9.27616 8.27616 9.50002 8.00002 9.50002C7.72387 9.50002 7.50002 9.27616 7.50002 9.00002V6.50002C7.50002 6.22387 7.72387 6.00002 8.00002 6.00002Z" fill="#F7A308"/>
<path d="M8.00002 11C7.72387 11 7.50002 11.2239 7.50002 11.5C7.50002 11.7762 7.72387 12 8.00002 12H8.00668C8.28282 12 8.50668 11.7762 8.50668 11.5C8.50668 11.2239 8.28282 11 8.00668 11H8.00002Z" fill="#F7A308"/>
<path fill-rule="evenodd" clip-rule="evenodd" d="M7.10058 1.66731C7.37515 1.51273 7.68492 1.43152 8.00001 1.43152C8.3151 1.43152 8.62488 1.51273 8.89944 1.66731C9.17401 1.82189 9.4041 2.04463 9.56751 2.31403L9.56895 2.31641L15.2197 11.75C15.3798 12.0272 15.4645 12.3415 15.4654 12.6616C15.4662 12.9817 15.3833 13.2965 15.2248 13.5746C15.0663 13.8527 14.8377 14.0845 14.5618 14.2468C14.2859 14.4092 13.9723 14.4965 13.6522 14.5L13.6467 14.5L2.34785 14.5C2.02775 14.4965 1.71415 14.4092 1.43825 14.2468C1.16235 14.0845 0.933767 13.8527 0.775243 13.5746C0.616719 13.2965 0.533779 12.9817 0.534675 12.6616C0.535571 12.3415 0.620273 12.0272 0.780352 11.75L0.784359 11.743L6.43108 2.31641L6.86001 2.57335L6.43251 2.31403C6.59593 2.04463 6.82602 1.82189 7.10058 1.66731ZM7.28816 2.8316L7.28751 2.83266L1.64458 12.2531C1.57296 12.3784 1.53508 12.5201 1.53467 12.6644C1.53426 12.8099 1.57196 12.953 1.64402 13.0794C1.71608 13.2058 1.81998 13.3112 1.94539 13.385C2.07009 13.4584 2.21174 13.498 2.35639 13.5H13.6436C13.7883 13.498 13.9299 13.4584 14.0546 13.385C14.18 13.3112 14.284 13.2058 14.356 13.0794C14.4281 12.953 14.4658 12.8099 14.4654 12.6644C14.465 12.5201 14.4271 12.3784 14.3554 12.2531L8.71251 2.83266L8.71187 2.8316C8.63763 2.70962 8.53329 2.60876 8.40885 2.5387C8.28404 2.46843 8.14324 2.43152 8.00001 2.43152C7.85679 2.43152 7.71599 2.46843 7.59118 2.5387C7.46674 2.60876 7.3624 2.70962 7.28816 2.8316Z" fill="#F7A308"/>
</svg>
