<svg width="48" height="48" viewBox="0 0 48 48" fill="none" xmlns="http://www.w3.org/2000/svg">
<path d="M17.0178 25.2856H20.3585C20.3206 25.1599 20.28 24.9751 20.2366 24.7776C20.1827 24.5326 20.1246 24.2681 20.0621 24.0729C19.9494 23.7208 19.8296 23.3437 19.7028 22.9417C19.5761 22.5401 19.4492 22.1384 19.3222 21.7367C19.1955 21.3349 19.0793 20.9472 18.9734 20.5737C18.8679 20.2004 18.7729 19.8586 18.6883 19.5483H18.667C18.548 20.1194 18.3997 20.6839 18.2228 21.2398C18.0253 21.8741 17.8244 22.5225 17.6202 23.1849C17.5324 23.4698 17.4452 23.7939 17.3586 24.1155C17.2438 24.542 17.1302 24.9644 17.0178 25.2856Z" fill="url(#paint0_linear_48_1969)"/>
<path d="M28.8814 24.7023H31.6509C31.9893 24.7023 32.2395 24.6988 32.4015 24.6918C32.5045 24.6919 32.6073 24.6812 32.7081 24.66V24.5332C32.7202 24.2802 32.7054 24.0267 32.6637 23.7768C32.5497 23.4162 32.3203 23.1029 32.0109 22.8852C31.7015 22.6675 31.3292 22.5574 30.9511 22.5718C30.5953 22.5503 30.2409 22.6328 29.9312 22.8093C29.6215 22.9857 29.3697 23.2485 29.2067 23.5655C29.048 23.9282 28.9386 24.3106 28.8814 24.7023Z" fill="url(#paint1_linear_48_1969)"/>
<path fill-rule="evenodd" clip-rule="evenodd" d="M11 6H37C38.6569 6 40 7.34315 40 9V39C40 40.6569 38.6569 42 37 42H11C9.34315 42 8 40.6569 8 39V9C8 7.34315 9.34315 6 11 6ZM21.1408 27.5356H16.2566L15.263 30.7561C15.2494 30.8124 15.2166 30.8622 15.1703 30.8969C15.1239 30.9316 15.0669 30.9491 15.0091 30.9463H12.5353C12.3944 30.9463 12.3451 30.8688 12.3875 30.7138L16.6162 18.7055C16.6584 18.5787 16.7006 18.4342 16.7429 18.2721C16.7983 17.99 16.8266 17.7033 16.8275 17.4158C16.8246 17.3957 16.8265 17.3751 16.833 17.3559C16.8394 17.3366 16.8502 17.3191 16.8646 17.3048C16.879 17.2904 16.8965 17.2796 16.9158 17.2732C16.935 17.2668 16.9555 17.2649 16.9756 17.2678H20.3372C20.4354 17.2678 20.4921 17.3032 20.5063 17.3735L25.3057 30.7349C25.3478 30.876 25.3055 30.9465 25.1787 30.9463H22.4304C22.3832 30.9517 22.3357 30.9395 22.2967 30.9123C22.2578 30.8851 22.2301 30.8445 22.2189 30.7983L21.1408 27.5356ZM33.0585 26.3821H28.8933C28.9538 26.8105 29.1001 27.2224 29.3233 27.5931C29.5596 27.9456 29.894 28.2213 30.2851 28.3861C30.8245 28.628 31.4093 28.752 32.0004 28.7499C32.3963 28.7596 32.7921 28.7285 33.1815 28.6572C33.6065 28.5812 34.0215 28.4571 34.4185 28.2872C34.4888 28.231 34.524 28.2662 34.5243 28.3928V30.4014C34.5278 30.4562 34.5168 30.5109 34.4925 30.5601C34.4683 30.5985 34.4358 30.6311 34.3973 30.6552C33.9595 30.8623 33.4978 31.0149 33.0228 31.1097C32.4558 31.1898 31.8821 31.2124 31.3105 31.177C30.4482 31.2036 29.5903 31.0449 28.7946 30.7117C28.1552 30.4301 27.5904 30.0029 27.1453 29.4643C26.7297 28.9568 26.4206 28.3707 26.2363 27.7411C26.0538 27.1197 25.9613 26.4754 25.9615 25.8278C25.9595 25.1206 26.0702 24.4176 26.2893 23.7452C26.5 23.0892 26.8336 22.4794 27.2723 21.948C27.7048 21.4229 28.2457 20.9974 28.8579 20.7007C29.5465 20.383 30.2988 20.2274 31.0569 20.246C31.7952 20.2359 32.5275 20.3805 33.2068 20.6704C33.7495 20.9162 34.2245 21.2898 34.5915 21.7592C34.9378 22.2062 35.2025 22.7108 35.3735 23.2497C35.5403 23.7692 35.6258 24.3111 35.6275 24.8566C35.6275 25.1667 35.6168 25.4486 35.5958 25.7023C35.578 25.8534 35.5508 26.0032 35.5143 26.1509C35.509 26.1975 35.4865 26.2405 35.4515 26.2717C35.4163 26.3029 35.371 26.3201 35.324 26.3201C35.2398 26.3201 35.095 26.3307 34.891 26.3518C34.7561 26.3657 34.5525 26.3668 34.3427 26.368C34.2341 26.3685 34.1238 26.3691 34.0205 26.3715C33.717 26.3787 33.3963 26.3823 33.0585 26.3821Z" fill="url(#paint2_linear_48_1969)"/>
<defs>
<linearGradient id="paint0_linear_48_1969" x1="24" y1="6" x2="24" y2="42" gradientUnits="userSpaceOnUse">
<stop stop-color="#ED73CC"/>
<stop offset="1" stop-color="#E248C2"/>
</linearGradient>
<linearGradient id="paint1_linear_48_1969" x1="24" y1="6" x2="24" y2="42" gradientUnits="userSpaceOnUse">
<stop stop-color="#ED73CC"/>
<stop offset="1" stop-color="#E248C2"/>
</linearGradient>
<linearGradient id="paint2_linear_48_1969" x1="24" y1="6" x2="24" y2="42" gradientUnits="userSpaceOnUse">
<stop stop-color="#ED73CC"/>
<stop offset="1" stop-color="#E248C2"/>
</linearGradient>
</defs>
</svg>
