<svg width="24" height="24" viewBox="0 0 24 24" fill="none" xmlns="http://www.w3.org/2000/svg">
<path d="M8.50888 12.6428H10.1792C10.1603 12.5799 10.14 12.4875 10.1183 12.3888C10.0914 12.2663 10.0623 12.134 10.0311 12.0364C9.97471 11.8604 9.91481 11.6719 9.85138 11.4709L9.6611 10.8683C9.59776 10.6674 9.53963 10.4736 9.48671 10.2869C9.43397 10.1002 9.38645 9.92929 9.34413 9.77416H9.33352C9.274 10.0597 9.19987 10.342 9.11142 10.6199C9.01265 10.9371 8.9122 11.2612 8.81008 11.5925C8.76617 11.7349 8.72257 11.897 8.67929 12.0578C8.62192 12.271 8.5651 12.4822 8.50888 12.6428Z" fill="url(#paint0_linear_48_1984)"/>
<path d="M14.4407 12.3511H15.8255C15.9947 12.3511 16.1198 12.3494 16.2007 12.3459C16.2522 12.3459 16.3036 12.3406 16.3541 12.33V12.2666C16.3601 12.1401 16.3527 12.0133 16.3319 11.8884C16.2748 11.7081 16.1601 11.5514 16.0054 11.4426C15.8507 11.3337 15.6646 11.2787 15.4756 11.2859C15.2976 11.2751 15.1205 11.3164 14.9656 11.4046C14.8107 11.4929 14.6849 11.6242 14.6034 11.7827C14.524 11.9641 14.4693 12.1553 14.4407 12.3511Z" fill="url(#paint1_linear_48_1984)"/>
<path fill-rule="evenodd" clip-rule="evenodd" d="M6 1.99999C4.34315 1.99999 3 3.34314 3 4.99999V19C3 20.6568 4.34315 22 6 22H18C19.6569 22 21 20.6568 21 19V4.99999C21 3.34314 19.6569 1.99999 18 1.99999H6ZM10.5704 13.7678H8.1283L7.63151 15.378C7.62471 15.4062 7.60832 15.4311 7.58515 15.4484C7.56197 15.4658 7.53347 15.4746 7.50456 15.4732H6.26767C6.19722 15.4732 6.17257 15.4344 6.19373 15.3569L8.30812 9.35276C8.3292 9.28936 8.35031 9.21711 8.37146 9.13604C8.39915 8.99499 8.41331 8.85163 8.41373 8.70789C8.41232 8.69783 8.41326 8.68757 8.41648 8.67795C8.41971 8.66832 8.42512 8.65957 8.43231 8.6524C8.4395 8.64521 8.44825 8.63981 8.45788 8.6366C8.46751 8.63339 8.47776 8.63245 8.48781 8.63389H10.1686C10.2177 8.63389 10.246 8.6516 10.2532 8.68676L12.6529 15.3674C12.6739 15.438 12.6528 15.4733 12.5894 15.4732H11.2152C11.1916 15.4758 11.1678 15.4698 11.1484 15.4562C11.1289 15.4425 11.1151 15.4223 11.1095 15.3992L10.5704 13.7678ZM16.5293 13.191H14.4466C14.4769 13.4053 14.55 13.6112 14.6617 13.7965C14.7798 13.9728 14.947 14.1106 15.1425 14.193C15.4122 14.314 15.7046 14.376 16.0002 14.3749C16.1981 14.3798 16.396 14.3642 16.5908 14.3286C16.8033 14.2906 17.0108 14.2285 17.2093 14.1436C17.2444 14.1155 17.262 14.1331 17.2621 14.1964V15.2007C17.2639 15.2281 17.2584 15.2554 17.2463 15.28C17.2341 15.2993 17.2179 15.3155 17.1986 15.3276C16.9798 15.4311 16.7489 15.5075 16.5114 15.5548C16.2279 15.5949 15.941 15.6062 15.6552 15.5885C15.2241 15.6018 14.7951 15.5224 14.3973 15.3558C14.0776 15.215 13.7952 15.0014 13.5727 14.7322C13.3649 14.4784 13.2103 14.1853 13.1181 13.8706C13.0269 13.5599 12.9806 13.2377 12.9807 12.9139C12.9798 12.5603 13.0351 12.2088 13.1446 11.8726C13.25 11.5446 13.4168 11.2397 13.6361 10.974C13.8524 10.7114 14.1228 10.4987 14.429 10.3503C14.7733 10.1915 15.1494 10.1137 15.5284 10.123C15.8976 10.118 16.2638 10.1902 16.6034 10.3352C16.8748 10.4581 17.1123 10.6449 17.2958 10.8796C17.4689 11.1031 17.6013 11.3554 17.6868 11.6249C17.7701 11.8846 17.8129 12.1556 17.8138 12.4283C17.8138 12.5834 17.8084 12.7243 17.7979 12.8511C17.789 12.9267 17.7754 13.0016 17.7571 13.0754C17.7545 13.0987 17.7433 13.1203 17.7258 13.1359C17.7081 13.1515 17.6855 13.1601 17.662 13.16C17.6199 13.16 17.5475 13.1653 17.4455 13.1759C17.3781 13.1829 17.2762 13.1834 17.1713 13.184C17.117 13.1843 17.0619 13.1846 17.0103 13.1857C16.8585 13.1894 16.6981 13.1911 16.5293 13.191Z" fill="url(#paint2_linear_48_1984)"/>
<defs>
<linearGradient id="paint0_linear_48_1984" x1="12" y1="1.99999" x2="12" y2="22" gradientUnits="userSpaceOnUse">
<stop stop-color="#ED73CC"/>
<stop offset="1" stop-color="#E248C2"/>
</linearGradient>
<linearGradient id="paint1_linear_48_1984" x1="12" y1="1.99999" x2="12" y2="22" gradientUnits="userSpaceOnUse">
<stop stop-color="#ED73CC"/>
<stop offset="1" stop-color="#E248C2"/>
</linearGradient>
<linearGradient id="paint2_linear_48_1984" x1="12" y1="1.99999" x2="12" y2="22" gradientUnits="userSpaceOnUse">
<stop stop-color="#ED73CC"/>
<stop offset="1" stop-color="#E248C2"/>
</linearGradient>
</defs>
</svg>
