<svg width="48" height="48" viewBox="0 0 48 48" fill="none" xmlns="http://www.w3.org/2000/svg">
<path fill-rule="evenodd" clip-rule="evenodd" d="M11 6H37C38.6569 6 40 7.34315 40 9V39C40 40.6569 38.6569 42 37 42H11C9.34315 42 8 40.6569 8 39V9C8 7.34315 9.34315 6 11 6ZM25.5 29.2822C25.5 28.0443 26.3255 26.9583 27.5182 26.627L29.2676 26.141C29.7005 26.0208 30 25.6267 30 25.1775V19.3189C30 18.9965 29.6993 18.7583 29.3855 18.8322L25.75 19.6876V19.69L21.7686 20.6372C21.318 20.7444 21 21.1469 21 21.61V29.2648C21 31.0686 19.7927 32.6493 18.0525 33.1239L17.8206 33.1871C16.6519 33.5059 15.5 32.626 15.5 31.4146C15.5 30.1767 16.3255 29.0907 17.5182 28.7594L19.2676 28.2734C19.7005 28.1532 20 27.7591 20 27.3099V17.9652C20 17.0093 20.6764 16.1871 21.6143 16.0028L25.75 15.19V15.1876L29.2193 14.5268C30.1437 14.3507 31 15.0593 31 16.0003V27.1324C31 28.9362 29.7927 30.5168 28.0525 30.9915L27.8206 31.0547C26.6519 31.3734 25.5 30.4936 25.5 29.2822Z" fill="url(#paint0_linear_48_1891)"/>
<defs>
<linearGradient id="paint0_linear_48_1891" x1="24" y1="6" x2="24" y2="42" gradientUnits="userSpaceOnUse">
<stop stop-color="#69A3FB"/>
<stop offset="1" stop-color="#477EF7"/>
</linearGradient>
</defs>
</svg>
