<svg width="24" height="24" viewBox="0 0 24 24" fill="none" xmlns="http://www.w3.org/2000/svg">
<path d="M9 10.25C9 10.1119 9.11193 10 9.25 10H10.75C10.8881 10 11 10.1119 11 10.25V11.75C11 11.8881 10.8881 12 10.75 12H9.25C9.11193 12 9 11.8881 9 11.75V10.25Z" fill="url(#paint0_linear_48_1848)"/>
<path fill-rule="evenodd" clip-rule="evenodd" d="M6 2C4.34315 2 3 3.34315 3 5V19C3 20.6569 4.34315 22 6 22H18C19.6569 22 21 20.6569 21 19V5C21 3.34315 19.6569 2 18 2H6ZM9.5 3H10.5V9H11C11.5523 9 12 9.44772 12 10V10.5H20V11.5H12V12C12 12.5523 11.5523 13 11 13H10.5V21H9.5V13H9C8.44772 13 8 12.5523 8 12V11.5H4V10.5H8V10C8 9.44772 8.44772 9 9 9H9.5V3Z" fill="url(#paint1_linear_48_1848)"/>
<defs>
<linearGradient id="paint0_linear_48_1848" x1="12" y1="2" x2="12" y2="22" gradientUnits="userSpaceOnUse">
<stop stop-color="#FB6361"/>
<stop offset="1" stop-color="#F23433"/>
</linearGradient>
<linearGradient id="paint1_linear_48_1848" x1="12" y1="2" x2="12" y2="22" gradientUnits="userSpaceOnUse">
<stop stop-color="#FB6361"/>
<stop offset="1" stop-color="#F23433"/>
</linearGradient>
</defs>
</svg>
