<svg width="48" height="48" viewBox="0 0 48 48" fill="none" xmlns="http://www.w3.org/2000/svg">
<path fill-rule="evenodd" clip-rule="evenodd" d="M20 24C20 21.7909 21.7909 20 24 20C26.2091 20 28 21.7909 28 24C28 26.2091 26.2091 28 24 28C21.7909 28 20 26.2091 20 24ZM24 22C22.8954 22 22 22.8954 22 24C22 25.1046 22.8954 26 24 26C25.1046 26 26 25.1046 26 24C26 22.8954 25.1046 22 24 22Z" fill="url(#paint0_linear_48_1673)"/>
<path fill-rule="evenodd" clip-rule="evenodd" d="M11 6H37C38.6569 6 40 7.34315 40 9V39C40 40.6569 38.6569 42 37 42H11C9.34315 42 8 40.6569 8 39V9C8 7.34315 9.34315 6 11 6ZM31.4 27C31.2669 27.3016 31.2272 27.6362 31.286 27.9606C31.3448 28.285 31.4995 28.5843 31.73 28.82L31.79 28.88C31.976 29.0657 32.1235 29.2863 32.2241 29.5291C32.3248 29.7719 32.3766 30.0322 32.3766 30.295C32.3766 30.5578 32.3248 30.8181 32.2241 31.0609C32.1235 31.3037 31.976 31.5243 31.79 31.71C31.6043 31.896 31.3837 32.0435 31.1409 32.1441C30.8981 32.2448 30.6378 32.2966 30.375 32.2966C30.1122 32.2966 29.8519 32.2448 29.6091 32.1441C29.3663 32.0435 29.1457 31.896 28.96 31.71L28.9 31.65C28.6643 31.4195 28.365 31.2648 28.0406 31.206C27.7162 31.1472 27.3816 31.1869 27.08 31.32C26.7842 31.4468 26.532 31.6572 26.3543 31.9255C26.1766 32.1938 26.0813 32.5082 26.08 32.83V33C26.08 33.5304 25.8693 34.0391 25.4942 34.4142C25.1191 34.7893 24.6104 35 24.08 35C23.5496 35 23.0409 34.7893 22.6658 34.4142C22.2907 34.0391 22.08 33.5304 22.08 33V32.91C22.0723 32.579 21.9651 32.258 21.7725 31.9887C21.5799 31.7194 21.3107 31.5143 21 31.4C20.6984 31.2669 20.3638 31.2272 20.0394 31.286C19.715 31.3448 19.4157 31.4995 19.18 31.73L19.12 31.79C18.9343 31.976 18.7137 32.1235 18.4709 32.2241C18.2281 32.3248 17.9678 32.3766 17.705 32.3766C17.4422 32.3766 17.1819 32.3248 16.9391 32.2241C16.6963 32.1235 16.4757 31.976 16.29 31.79C16.104 31.6043 15.9565 31.3837 15.8559 31.1409C15.7552 30.8981 15.7034 30.6378 15.7034 30.375C15.7034 30.1122 15.7552 29.8519 15.8559 29.6091C15.9565 29.3663 16.104 29.1457 16.29 28.96L16.35 28.9C16.5805 28.6643 16.7352 28.365 16.794 28.0406C16.8528 27.7162 16.8131 27.3816 16.68 27.08C16.5532 26.7842 16.3428 26.532 16.0745 26.3543C15.8062 26.1766 15.4918 26.0813 15.17 26.08H15C14.4696 26.08 13.9609 25.8693 13.5858 25.4942C13.2107 25.1191 13 24.6104 13 24.08C13 23.5496 13.2107 23.0409 13.5858 22.6658C13.9609 22.2907 14.4696 22.08 15 22.08H15.09C15.421 22.0723 15.742 21.9651 16.0113 21.7725C16.2806 21.5799 16.4857 21.3107 16.6 21C16.7331 20.6984 16.7728 20.3638 16.714 20.0394C16.6552 19.715 16.5005 19.4157 16.27 19.18L16.21 19.12C16.024 18.9343 15.8765 18.7137 15.7759 18.4709C15.6752 18.2281 15.6234 17.9678 15.6234 17.705C15.6234 17.4422 15.6752 17.1819 15.7759 16.9391C15.8765 16.6963 16.024 16.4757 16.21 16.29C16.3957 16.104 16.6163 15.9565 16.8591 15.8559C17.1019 15.7552 17.3622 15.7034 17.625 15.7034C17.8878 15.7034 18.1481 15.7552 18.3909 15.8559C18.6337 15.9565 18.8543 16.104 19.04 16.29L19.1 16.35C19.3357 16.5805 19.635 16.7352 19.9594 16.794C20.2838 16.8528 20.6184 16.8131 20.92 16.68H21C21.2958 16.5532 21.548 16.3428 21.7257 16.0745C21.9034 15.8062 21.9987 15.4918 22 15.17V15C22 14.4696 22.2107 13.9609 22.5858 13.5858C22.9609 13.2107 23.4696 13 24 13C24.5304 13 25.0391 13.2107 25.4142 13.5858C25.7893 13.9609 26 14.4696 26 15V15.09C26.0013 15.4118 26.0966 15.7262 26.2743 15.9945C26.452 16.2628 26.7042 16.4732 27 16.6C27.3016 16.7331 27.6362 16.7728 27.9606 16.714C28.285 16.6552 28.5843 16.5005 28.82 16.27L28.88 16.21C29.0657 16.024 29.2863 15.8765 29.5291 15.7759C29.7719 15.6752 30.0322 15.6234 30.295 15.6234C30.5578 15.6234 30.8181 15.6752 31.0609 15.7759C31.3037 15.8765 31.5243 16.024 31.71 16.21C31.896 16.3957 32.0435 16.6163 32.1441 16.8591C32.2448 17.1019 32.2966 17.3622 32.2966 17.625C32.2966 17.8878 32.2448 18.1481 32.1441 18.3909C32.0435 18.6337 31.896 18.8543 31.71 19.04L31.65 19.1C31.4195 19.3357 31.2648 19.635 31.206 19.9594C31.1472 20.2838 31.1869 20.6184 31.32 20.92V21C31.4468 21.2958 31.6572 21.548 31.9255 21.7257C32.1938 21.9034 32.5082 21.9987 32.83 22H33C33.5304 22 34.0391 22.2107 34.4142 22.5858C34.7893 22.9609 35 23.4696 35 24C35 24.5304 34.7893 25.0391 34.4142 25.4142C34.0391 25.7893 33.5304 26 33 26H32.91C32.5882 26.0013 32.2738 26.0966 32.0055 26.2743C31.7372 26.452 31.5268 26.7042 31.4 27Z" fill="url(#paint1_linear_48_1673)"/>
<defs>
<linearGradient id="paint0_linear_48_1673" x1="24" y1="6" x2="24" y2="42" gradientUnits="userSpaceOnUse">
<stop stop-color="#888D95"/>
<stop offset="1" stop-color="#6E747D"/>
</linearGradient>
<linearGradient id="paint1_linear_48_1673" x1="24" y1="6" x2="24" y2="42" gradientUnits="userSpaceOnUse">
<stop stop-color="#888D95"/>
<stop offset="1" stop-color="#6E747D"/>
</linearGradient>
</defs>
</svg>
