<svg width="24" height="24" viewBox="0 0 24 24" fill="none" xmlns="http://www.w3.org/2000/svg">
<path fill-rule="evenodd" clip-rule="evenodd" d="M9.5 12C9.5 10.6193 10.6193 9.5 12 9.5C13.3807 9.5 14.5 10.6193 14.5 12C14.5 13.3807 13.3807 14.5 12 14.5C10.6193 14.5 9.5 13.3807 9.5 12ZM12 11C11.4477 11 11 11.4477 11 12C11 12.5523 11.4477 13 12 13C12.5523 13 13 12.5523 13 12C13 11.4477 12.5523 11 12 11Z" fill="url(#paint0_linear_48_1687)"/>
<path fill-rule="evenodd" clip-rule="evenodd" d="M6 2C4.34315 2 3 3.34315 3 5V19C3 20.6569 4.34315 22 6 22H18C19.6569 22 21 20.6569 21 19V5C21 3.34315 19.6569 2 18 2H6ZM16.0364 13.6364C15.9638 13.8009 15.9421 13.9834 15.9742 14.1603C16.0063 14.3373 16.0906 14.5005 16.2164 14.6291L16.2491 14.6618C16.3505 14.7631 16.431 14.8834 16.4859 15.0159C16.5408 15.1483 16.569 15.2903 16.569 15.4336C16.569 15.577 16.5408 15.719 16.4859 15.8514C16.431 15.9838 16.3505 16.1041 16.2491 16.2055C16.1478 16.3069 16.0275 16.3873 15.895 16.4422C15.7626 16.4971 15.6206 16.5254 15.4773 16.5254C15.3339 16.5254 15.192 16.4971 15.0595 16.4422C14.9271 16.3873 14.8068 16.3069 14.7055 16.2055L14.6727 16.1727C14.5442 16.047 14.3809 15.9626 14.204 15.9305C14.027 15.8985 13.8445 15.9201 13.68 15.9927C13.5187 16.0619 13.3811 16.1767 13.2842 16.323C13.1873 16.4694 13.1352 16.6408 13.1345 16.8164V16.9091C13.1345 17.1984 13.0196 17.4759 12.815 17.6805C12.6104 17.8851 12.333 18 12.0436 18C11.7543 18 11.4768 17.8851 11.2722 17.6805C11.0677 17.4759 10.9527 17.1984 10.9527 16.9091V16.86C10.9485 16.6795 10.8901 16.5044 10.785 16.3575C10.6799 16.2106 10.5331 16.0987 10.3636 16.0364C10.1991 15.9638 10.0166 15.9421 9.83968 15.9742C9.66274 16.0063 9.49946 16.0906 9.37091 16.2164L9.33818 16.2491C9.23687 16.3505 9.11655 16.431 8.98412 16.4859C8.85168 16.5408 8.70973 16.569 8.56636 16.569C8.423 16.569 8.28104 16.5408 8.14861 16.4859C8.01618 16.431 7.89586 16.3505 7.79455 16.2491C7.69312 16.1478 7.61265 16.0275 7.55775 15.895C7.50285 15.7626 7.4746 15.6206 7.4746 15.4773C7.4746 15.3339 7.50285 15.192 7.55775 15.0595C7.61265 14.9271 7.69312 14.8068 7.79455 14.7055L7.82727 14.6727C7.95302 14.5442 8.03737 14.3809 8.06946 14.204C8.10154 14.027 8.07988 13.8445 8.00727 13.68C7.93813 13.5187 7.82332 13.3811 7.67698 13.2842C7.53064 13.1873 7.35916 13.1352 7.18364 13.1345H7.09091C6.80158 13.1345 6.52411 13.0196 6.31952 12.815C6.11493 12.6104 6 12.333 6 12.0436C6 11.7543 6.11493 11.4768 6.31952 11.2722C6.52411 11.0677 6.80158 10.9527 7.09091 10.9527H7.14C7.32054 10.9485 7.49564 10.8901 7.64253 10.785C7.78941 10.6799 7.9013 10.5331 7.96364 10.3636C8.03624 10.1991 8.0579 10.0166 8.02582 9.83968C7.99374 9.66274 7.90938 9.49946 7.78364 9.37091L7.75091 9.33818C7.64948 9.23687 7.56902 9.11655 7.51412 8.98412C7.45922 8.85168 7.43096 8.70973 7.43096 8.56636C7.43096 8.423 7.45922 8.28104 7.51412 8.14861C7.56902 8.01618 7.64948 7.89586 7.75091 7.79455C7.85223 7.69312 7.97254 7.61265 8.10497 7.55775C8.23741 7.50285 8.37936 7.4746 8.52273 7.4746C8.66609 7.4746 8.80805 7.50285 8.94048 7.55775C9.07291 7.61265 9.19323 7.69312 9.29455 7.79455L9.32727 7.82727C9.45582 7.95302 9.6191 8.03737 9.79604 8.06946C9.97299 8.10154 10.1555 8.07988 10.32 8.00727H10.3636C10.525 7.93813 10.6626 7.82332 10.7595 7.67698C10.8564 7.53064 10.9084 7.35916 10.9091 7.18364V7.09091C10.9091 6.80158 11.024 6.52411 11.2286 6.31952C11.4332 6.11493 11.7107 6 12 6C12.2893 6 12.5668 6.11493 12.7714 6.31952C12.976 6.52411 13.0909 6.80158 13.0909 7.09091V7.14C13.0916 7.31552 13.1436 7.487 13.2405 7.63334C13.3374 7.77969 13.475 7.89449 13.6364 7.96364C13.8009 8.03624 13.9834 8.0579 14.1603 8.02582C14.3373 7.99374 14.5005 7.90938 14.6291 7.78364L14.6618 7.75091C14.7631 7.64948 14.8834 7.56902 15.0159 7.51412C15.1483 7.45922 15.2903 7.43096 15.4336 7.43096C15.577 7.43096 15.719 7.45922 15.8514 7.51412C15.9838 7.56902 16.1041 7.64948 16.2055 7.75091C16.3069 7.85223 16.3873 7.97254 16.4422 8.10497C16.4971 8.23741 16.5254 8.37936 16.5254 8.52273C16.5254 8.66609 16.4971 8.80805 16.4422 8.94048C16.3873 9.07291 16.3069 9.19323 16.2055 9.29455L16.1727 9.32727C16.047 9.45582 15.9626 9.6191 15.9305 9.79604C15.8985 9.97299 15.9201 10.1555 15.9927 10.32V10.3636C16.0619 10.525 16.1767 10.6626 16.323 10.7595C16.4694 10.8564 16.6408 10.9084 16.8164 10.9091H16.9091C17.1984 10.9091 17.4759 11.024 17.6805 11.2286C17.8851 11.4332 18 11.7107 18 12C18 12.2893 17.8851 12.5668 17.6805 12.7714C17.4759 12.976 17.1984 13.0909 16.9091 13.0909H16.86C16.6845 13.0916 16.513 13.1436 16.3667 13.2405C16.2203 13.3374 16.1055 13.475 16.0364 13.6364Z" fill="url(#paint1_linear_48_1687)"/>
<defs>
<linearGradient id="paint0_linear_48_1687" x1="12" y1="2" x2="12" y2="22" gradientUnits="userSpaceOnUse">
<stop stop-color="#888D95"/>
<stop offset="1" stop-color="#6E747D"/>
</linearGradient>
<linearGradient id="paint1_linear_48_1687" x1="12" y1="2" x2="12" y2="22" gradientUnits="userSpaceOnUse">
<stop stop-color="#888D95"/>
<stop offset="1" stop-color="#6E747D"/>
</linearGradient>
</defs>
</svg>
