<svg width="24" height="24" viewBox="0 0 24 24" fill="none" xmlns="http://www.w3.org/2000/svg">
<path d="M11.4801 9.24225L13.1383 13.1932H9.77854L11.4801 9.24225Z" fill="url(#paint0_linear_48_1229)"/>
<path fill-rule="evenodd" clip-rule="evenodd" d="M6 2C4.34315 2 3 3.34315 3 5V19C3 20.6569 4.34315 22 6 22H18C19.6569 22 21 20.6569 21 19V5C21 3.34315 19.6569 2 18 2H6ZM9.55503 13.7267H13.3402L13.9314 15.1327C14.1236 15.5893 14.2198 15.9233 14.2198 16.1348C14.2198 16.2934 14.1513 16.428 14.0143 16.5386C13.8773 16.6491 13.6142 16.714 13.2248 16.7332V17H17.0821V16.7332C16.6831 16.7092 16.3719 16.5999 16.1484 16.4052C15.9249 16.2105 15.6762 15.7864 15.4022 15.1327L11.9992 7H11.7468L8.30774 15.0461C8.00973 15.7527 7.73816 16.2213 7.49303 16.4521C7.37287 16.5674 7.10851 16.6611 6.69995 16.7332V17H9.77854V16.7332C9.3075 16.6996 9.00108 16.6263 8.85929 16.5133C8.71749 16.4004 8.6466 16.2694 8.6466 16.1204C8.6466 15.9329 8.72831 15.6494 8.89173 15.2696L9.55503 13.7267Z" fill="url(#paint1_linear_48_1229)"/>
<defs>
<linearGradient id="paint0_linear_48_1229" x1="12" y1="2" x2="12" y2="22" gradientUnits="userSpaceOnUse">
<stop stop-color="#888D95"/>
<stop offset="1" stop-color="#6E747D"/>
</linearGradient>
<linearGradient id="paint1_linear_48_1229" x1="12" y1="2" x2="12" y2="22" gradientUnits="userSpaceOnUse">
<stop stop-color="#888D95"/>
<stop offset="1" stop-color="#6E747D"/>
</linearGradient>
</defs>
</svg>
