<svg width="48" height="48" viewBox="0 0 48 48" fill="none" xmlns="http://www.w3.org/2000/svg">
<path d="M19.4522 25.2304H23.0307C22.9885 25.0898 22.895 24.8572 22.7979 24.6157C22.7003 24.3731 22.5991 24.1213 22.5426 23.9447C22.4886 23.7766 22.4252 23.6248 22.3598 23.4684C22.2882 23.2972 22.2143 23.1203 22.148 22.9103L21.7674 21.7052C21.6404 21.3034 21.5242 20.9158 21.4186 20.5422C21.3129 20.1689 21.2177 19.8271 21.1332 19.5169H21.112C20.9931 20.0879 20.8448 20.6525 20.6678 21.2083C20.4702 21.8426 20.2694 22.491 20.0654 23.1535C19.9818 23.4244 19.8969 23.7269 19.8124 24.0282C19.6902 24.4638 19.5686 24.8973 19.4522 25.2304Z" fill="url(#paint0_linear_48_1158)"/>
<path fill-rule="evenodd" clip-rule="evenodd" d="M11 6H37C38.6569 6 40 7.34315 40 9V39C40 40.6569 38.6569 42 37 42H11C9.34315 42 8 40.6569 8 39V9C8 7.34315 9.34315 6 11 6ZM30.6231 19.4258C30.4075 19.4344 30.1924 19.3975 29.992 19.3173C29.7916 19.2372 29.6104 19.1156 29.4602 18.9606C29.3104 18.7989 29.194 18.6092 29.1178 18.4024C29.0416 18.1955 29.007 17.9757 29.016 17.7554C29.0083 17.5374 29.0468 17.3201 29.1288 17.1179C29.2108 16.9157 29.3346 16.7331 29.492 16.582C29.6478 16.4324 29.8317 16.3153 30.0331 16.2372C30.2345 16.1592 30.4493 16.1219 30.6652 16.1275C30.8851 16.1154 31.105 16.1496 31.3107 16.2279C31.5165 16.3062 31.7035 16.4269 31.8597 16.582C32.0057 16.7394 32.1191 16.9241 32.1935 17.1255C32.2679 17.3269 32.3018 17.5409 32.2933 17.7554C32.3021 17.9765 32.2664 18.1972 32.1883 18.4042C32.1102 18.6113 31.9912 18.8005 31.8385 18.9606C31.679 19.1179 31.4887 19.2404 31.2795 19.3205C31.0703 19.4005 30.8468 19.4364 30.6231 19.4258ZM29.2542 30.7224V21.0558C29.2542 20.9288 29.3102 20.8655 29.4235 20.8655H31.8259C31.9386 20.8655 31.995 20.9289 31.995 21.0558V30.7224C31.995 30.8636 31.9386 30.9341 31.8259 30.9339H29.4445C29.3175 30.9339 29.2541 30.8634 29.2542 30.7224ZM23.6021 27.4804H18.7182L17.7204 30.7425C17.7069 30.7987 17.6742 30.8485 17.6279 30.8832C17.5816 30.918 17.5246 30.9355 17.4668 30.9328H14.993C14.8521 30.9328 14.8027 30.8552 14.8449 30.7002L19.0612 18.5232C19.1036 18.3963 19.1459 18.2519 19.1879 18.0897C19.246 17.853 19.2745 17.6101 19.2727 17.3665C19.2698 17.3464 19.2717 17.3259 19.2781 17.3066C19.2845 17.2874 19.2953 17.2699 19.3097 17.2555C19.324 17.2411 19.3415 17.2303 19.3608 17.2239C19.38 17.2175 19.4005 17.2156 19.4206 17.2184H22.7822C22.8807 17.2184 22.9373 17.2539 22.9513 17.3242L27.7634 30.7213C27.8055 30.8624 27.7632 30.9329 27.6365 30.9328H24.8878C24.8406 30.938 24.7931 30.9258 24.7542 30.8986C24.7153 30.8713 24.6876 30.8309 24.6763 30.7847L23.6021 27.4804Z" fill="url(#paint1_linear_48_1158)"/>
<defs>
<linearGradient id="paint0_linear_48_1158" x1="24" y1="6" x2="24" y2="42" gradientUnits="userSpaceOnUse">
<stop stop-color="#FD853A"/>
<stop offset="1" stop-color="#FB6514"/>
</linearGradient>
<linearGradient id="paint1_linear_48_1158" x1="24" y1="6" x2="24" y2="42" gradientUnits="userSpaceOnUse">
<stop stop-color="#FD853A"/>
<stop offset="1" stop-color="#FB6514"/>
</linearGradient>
</defs>
</svg>
