<svg width="48" height="48" viewBox="0 0 48 48" fill="none" xmlns="http://www.w3.org/2000/svg">
<path d="M28.6213 28.5941V22.8221C28.4686 22.7918 28.3142 22.7707 28.159 22.7587C28.015 22.7442 27.8704 22.7371 27.7257 22.7375C27.2126 22.7324 26.7056 22.8483 26.2458 23.0758C25.753 23.3106 25.3423 23.6882 25.067 24.1595C24.7917 24.6309 24.6646 25.1742 24.7022 25.7187C24.6919 26.1796 24.7672 26.6384 24.9243 27.0718C25.0522 27.421 25.2541 27.7384 25.5162 28.0022C25.7674 28.2447 26.0714 28.4255 26.4043 28.5306C26.756 28.6445 27.1236 28.7017 27.4933 28.6999C27.6903 28.6999 27.8739 28.6929 28.043 28.6787C28.2377 28.6665 28.4312 28.6382 28.6213 28.5941Z" fill="url(#paint0_linear_48_1027)"/>
<path fill-rule="evenodd" clip-rule="evenodd" d="M11 6H37C38.6569 6 40 7.34315 40 9V39C40 40.6569 38.6569 42 37 42H11C9.34315 42 8 40.6569 8 39V9C8 7.34315 9.34315 6 11 6ZM27.2182 31.2159C26.245 31.2306 25.2808 31.0284 24.3956 30.6238C23.571 30.2422 22.8818 29.6192 22.419 28.8373C21.9104 27.9245 21.6617 26.8897 21.7 25.8455C21.6921 24.8751 21.9401 23.9198 22.419 23.0758C22.9122 22.216 23.6377 21.5126 24.5122 21.0461C25.5355 20.5131 26.6782 20.2511 27.8314 20.285C27.9017 20.285 27.9933 20.2885 28.1063 20.2956C28.1424 20.2979 28.1922 20.3006 28.2485 20.3036C28.3678 20.31 28.5157 20.3179 28.6213 20.3273V16.3246C28.6213 16.2262 28.6635 16.1767 28.7483 16.1767H31.1997C31.2169 16.1743 31.2345 16.1759 31.251 16.1814C31.2675 16.1869 31.2824 16.1962 31.2947 16.2085C31.307 16.2208 31.3163 16.2358 31.3218 16.2523C31.3273 16.2687 31.3289 16.2863 31.3264 16.3035V28.6364C31.3264 28.8762 31.337 29.137 31.3582 29.4188C31.3794 29.7009 31.397 29.9545 31.4109 30.1798C31.4136 30.2237 31.4029 30.2675 31.3802 30.3052C31.3576 30.343 31.324 30.373 31.284 30.3913C30.6308 30.6772 29.948 30.8899 29.248 31.0256C28.5784 31.1492 27.8991 31.2129 27.2182 31.2159ZM19.3672 17.4675V30.7175C19.3672 30.8586 19.3038 30.9291 19.1769 30.929H16.7578C16.6445 30.929 16.5887 30.8587 16.5887 30.7175V17.4675C16.5887 17.3547 16.6518 17.2982 16.779 17.2982H19.1981C19.2211 17.295 19.2445 17.2971 19.2665 17.3044C19.2885 17.3118 19.3085 17.3242 19.3249 17.3406C19.3413 17.357 19.3537 17.377 19.361 17.399C19.3684 17.4211 19.3705 17.4445 19.3672 17.4675Z" fill="url(#paint1_linear_48_1027)"/>
<defs>
<linearGradient id="paint0_linear_48_1027" x1="24" y1="6" x2="24" y2="42" gradientUnits="userSpaceOnUse">
<stop stop-color="#FD6F90"/>
<stop offset="1" stop-color="#F63D6B"/>
</linearGradient>
<linearGradient id="paint1_linear_48_1027" x1="24" y1="6" x2="24" y2="42" gradientUnits="userSpaceOnUse">
<stop stop-color="#FD6F90"/>
<stop offset="1" stop-color="#F63D6B"/>
</linearGradient>
</defs>
</svg>
