<svg width="48" height="48" viewBox="0 0 48 48" fill="none" xmlns="http://www.w3.org/2000/svg">
<path fill-rule="evenodd" clip-rule="evenodd" d="M11 6H37C38.6569 6 40 7.34315 40 9V39C40 40.6569 38.6569 42 37 42H11C9.34315 42 8 40.6569 8 39V9C8 7.34315 9.34315 6 11 6ZM22 21C22.5523 21 23 20.5523 23 20C23 19.4477 22.5523 19 22 19H20C17.2386 19 15 21.2386 15 24C15 26.7614 17.2386 29 20 29H22C22.5523 29 23 28.5523 23 28C23 27.4477 22.5523 27 22 27H20C18.3431 27 17 25.6569 17 24C17 22.3431 18.3431 21 20 21H22ZM25 20C25 20.5523 25.4477 21 26 21H28C29.6569 21 31 22.3431 31 24C31 25.6569 29.6569 27 28 27H26C25.4477 27 25 27.4477 25 28C25 28.5523 25.4477 29 26 29H28C30.7614 29 33 26.7614 33 24C33 21.2386 30.7614 19 28 19H26C25.4477 19 25 19.4477 25 20ZM21 23C20.4477 23 20 23.4477 20 24C20 24.5523 20.4477 25 21 25H27C27.5523 25 28 24.5523 28 24C28 23.4477 27.5523 23 27 23H21Z" fill="url(#paint0_linear_48_259)"/>
<defs>
<linearGradient id="paint0_linear_48_259" x1="24" y1="6" x2="24" y2="42" gradientUnits="userSpaceOnUse">
<stop stop-color="#69A3FB"/>
<stop offset="1" stop-color="#477EF7"/>
</linearGradient>
</defs>
</svg>
