<svg width="48" height="48" viewBox="0 0 48 48" fill="none" xmlns="http://www.w3.org/2000/svg">
<path fill-rule="evenodd" clip-rule="evenodd" d="M11 6H37C38.6569 6 40 7.34315 40 9V39C40 40.6569 38.6569 42 37 42H11C9.34315 42 8 40.6569 8 39V9C8 7.34315 9.34315 6 11 6ZM25 15C24.4477 15 24 15.4477 24 16V34C24 34.5523 24.4477 35 25 35H28C28.5523 35 29 34.5523 29 34V16C29 15.4477 28.5523 15 28 15H25ZM18 27C18 26.4477 18.4477 26 19 26H22C22.5523 26 23 26.4477 23 27V34C23 34.5523 22.5523 35 22 35H19C18.4477 35 18 34.5523 18 34V27ZM13 31C12.4477 31 12 31.4477 12 32V34C12 34.5523 12.4477 35 13 35H16C16.5523 35 17 34.5523 17 34V32C17 31.4477 16.5523 31 16 31H13ZM12.5 36C12.2239 36 12 36.2239 12 36.5C12 36.7761 12.2239 37 12.5 37H34.5C34.7761 37 35 36.7761 35 36.5C35 36.2239 34.7761 36 34.5 36H12.5ZM30 22C30 21.4477 30.4477 21 31 21H34C34.5523 21 35 21.4477 35 22V34C35 34.5523 34.5523 35 34 35H31C30.4477 35 30 34.5523 30 34V22Z" fill="url(#paint0_linear_48_902)"/>
<defs>
<linearGradient id="paint0_linear_48_902" x1="24" y1="6" x2="24" y2="42" gradientUnits="userSpaceOnUse">
<stop stop-color="#29DD74"/>
<stop offset="1" stop-color="#09BF5B"/>
</linearGradient>
</defs>
</svg>
