<svg width="48" height="48" viewBox="0 0 48 48" fill="none" xmlns="http://www.w3.org/2000/svg">
<path fill-rule="evenodd" clip-rule="evenodd" d="M11 6H37C38.6569 6 40 7.34315 40 9V39C40 40.6569 38.6569 42 37 42H11C9.34315 42 8 40.6569 8 39V20.9015C8.0308 20.9042 8.06161 20.907 8.09244 20.9099C11.7441 21.2558 14.9255 22.3799 17.1592 24.913C17.2752 25.0329 17.3785 25.027 17.4961 24.9069C20.3059 21.6518 24.6117 20.3669 29.2399 20.8032C29.497 20.8279 29.753 20.8601 30.005 20.8998C30.0374 20.9042 30.0763 20.9099 30.1164 20.9158C30.1853 20.926 30.258 20.9367 30.3081 20.9418C30.4613 20.96 30.545 20.8374 30.545 20.7072C30.5447 20.6167 30.5055 20.5416 30.4178 20.4982C30.362 20.4678 30.3048 20.4394 30.2482 20.4113C30.2157 20.3951 30.1834 20.379 30.1515 20.3627C28.7207 19.6743 27.1454 19.2206 25.4715 19.0618C22.515 18.7826 19.6873 19.4615 17.2995 20.8447C15.6651 19.9171 13.8109 19.3125 11.8177 19.1237C10.5105 18.9998 9.22931 19.064 8 19.2935V9C8 7.34315 9.34315 6 11 6ZM31.8892 12.7877C31.8598 12.7717 31.8298 12.7568 31.8 12.742C31.7879 12.7359 31.7758 12.7299 31.7639 12.7239C31.759 12.7214 31.7541 12.7189 31.7492 12.7164C30.997 12.3545 30.1687 12.116 29.2887 12.0325C27.7343 11.8857 26.2476 12.2426 24.9922 12.9698C24.133 12.4822 23.1581 12.1643 22.1102 12.0651C20.6653 11.9281 19.281 12.228 18.0833 12.8547C18.0751 12.8586 18.0666 12.8636 18.0582 12.8685L18.0483 12.8743C18.0197 12.8964 18 12.9316 18 12.9713C18 13.0399 18.0549 13.0957 18.1237 13.0957C18.1274 13.0957 18.131 13.0953 18.1345 13.0949C18.1378 13.0945 18.1409 13.0941 18.144 13.0941C18.1469 13.0928 18.1499 13.0928 18.1524 13.0928C18.7958 12.9732 19.4677 12.9392 20.1516 13.0041C22.0715 13.186 23.7441 13.777 24.9185 15.1088C24.9794 15.1718 25.0338 15.1687 25.0956 15.1055C26.5729 13.3942 28.8367 12.7186 31.2699 12.948C31.4051 12.961 31.5397 12.9779 31.6722 12.9988C31.6892 13.0011 31.7097 13.0041 31.7308 13.0073C31.767 13.0126 31.8052 13.0182 31.8315 13.0209C31.9121 13.0305 31.9561 12.966 31.9561 12.8975C31.9559 12.85 31.9353 12.8105 31.8892 12.7877Z" fill="url(#paint0_linear_48_869)"/>
<path d="M8 19.2935C6.64494 19.5466 5.35291 20.0007 4.15851 20.6257C4.14284 20.6331 4.12674 20.6425 4.11073 20.6519L4.09186 20.6629C4.03753 20.7049 4 20.7719 4 20.8475C4 20.978 4.10446 21.0841 4.23525 21.0841C4.24233 21.0841 4.24919 21.0833 4.25583 21.0825C4.26204 21.0818 4.26807 21.081 4.27389 21.081C4.27949 21.0785 4.2851 21.0785 4.28986 21.0785C5.48469 20.8565 6.73105 20.7896 8 20.9015V19.2935Z" fill="url(#paint1_linear_48_869)"/>
<defs>
<linearGradient id="paint0_linear_48_869" x1="22" y1="6" x2="22" y2="42" gradientUnits="userSpaceOnUse">
<stop stop-color="#69A3FB"/>
<stop offset="1" stop-color="#477EF7"/>
</linearGradient>
<linearGradient id="paint1_linear_48_869" x1="22" y1="6" x2="22" y2="42" gradientUnits="userSpaceOnUse">
<stop stop-color="#69A3FB"/>
<stop offset="1" stop-color="#477EF7"/>
</linearGradient>
</defs>
</svg>
