<svg width="24" height="24" viewBox="0 0 24 24" fill="none" xmlns="http://www.w3.org/2000/svg">
<path fill-rule="evenodd" clip-rule="evenodd" d="M6 2C4.34315 2 3 3.34315 3 5V19C3 20.6569 4.34315 22 6 22H18C19.6569 22 21 20.6569 21 19V5C21 3.34315 19.6569 2 18 2H6ZM20 17.5C20 17.2239 19.7761 17 19.5 17H7.5C7.22386 17 7 17.2239 7 17.5C7 17.7761 7.22386 18 7.5 18H19.5C19.7761 18 20 17.7761 20 17.5ZM9.74055 15.5454L8.73914 14.5512C8.63477 14.6962 8.53926 14.8474 8.47788 14.9702L8.0843 15.7573C7.83917 16.2476 8.03772 16.4487 8.5297 16.2027L9.31688 15.8092C9.44356 15.7458 9.59545 15.65 9.74055 15.5454ZM16.18 9.17007L15.112 8.11007L9.06275 14.1595C9.01945 14.2028 8.97262 14.2546 8.92461 14.3118L9.97533 15.3628C10.032 15.3151 10.0837 15.2682 10.1276 15.2243L16.18 9.17007ZM17.1157 7.17129L17.0309 7.0979L16.9388 7.03919C16.6535 6.88508 16.2932 6.92898 16.0541 7.16813L15.324 7.89807L16.388 8.96207L17.1189 8.23294C17.4037 7.94816 17.4098 7.46533 17.1157 7.17129Z" fill="url(#paint0_linear_48_852)"/>
<defs>
<linearGradient id="paint0_linear_48_852" x1="12" y1="2" x2="12" y2="22" gradientUnits="userSpaceOnUse">
<stop stop-color="#FDC121"/>
<stop offset="1" stop-color="#F7A308"/>
</linearGradient>
</defs>
</svg>
