<svg width="48" height="48" viewBox="0 0 48 48" fill="none" xmlns="http://www.w3.org/2000/svg">
<path fill-rule="evenodd" clip-rule="evenodd" d="M11 6H37C38.6569 6 40 7.34315 40 9V39C40 40.6569 38.6569 42 37 42H11C9.34315 42 8 40.6569 8 39V9C8 7.34315 9.34315 6 11 6ZM16.1949 29.6388L29.3785 16.4552L31.1065 18.1717L17.9171 31.361C17.8615 31.4167 17.7994 31.4656 17.7323 31.5067L14.276 33.6236C14.052 33.7609 13.795 33.5039 13.9323 33.2799L16.0492 29.8236C16.0903 29.7565 16.1392 29.6945 16.1949 29.6388ZM33.4167 15.8615L31.7395 17.5387L30.0172 15.8165L31.6944 14.1392C32.17 13.6637 32.9411 13.6637 33.4167 14.1392C33.8922 14.6148 33.8922 15.3859 33.4167 15.8615ZM13.5 35C13.2239 35 13 35.2239 13 35.5C13 35.7761 13.2239 36 13.5 36H38.5C38.7761 36 39 35.7761 39 35.5C39 35.2239 38.7761 35 38.5 35H13.5Z" fill="url(#paint0_linear_48_834)"/>
<defs>
<linearGradient id="paint0_linear_48_834" x1="24" y1="6" x2="24" y2="42" gradientUnits="userSpaceOnUse">
<stop stop-color="#FDC121"/>
<stop offset="1" stop-color="#F7A308"/>
</linearGradient>
</defs>
</svg>
