<svg width="24" height="24" viewBox="0 0 24 24" fill="none" xmlns="http://www.w3.org/2000/svg">
<path d="M15.5077 14.3112C15.9934 14.4326 16.2665 14.2201 16.2969 14.0077C16.3576 13.7041 16.1148 13.5524 15.872 13.4917C15.2345 13.3703 14.3543 13.4613 13.9597 13.522C14.415 13.8863 14.931 14.1594 15.5077 14.3112Z" fill="url(#paint0_linear_48_587)"/>
<path d="M11.4708 7.60323C11.3797 7.60323 11.2887 7.66394 11.228 7.755C11.0762 8.02817 10.9851 8.87805 11.4404 10.0922C11.6529 9.48511 11.7743 8.8477 11.8047 8.21029C11.8047 7.93711 11.744 7.60323 11.4708 7.60323Z" fill="url(#paint1_linear_48_587)"/>
<path d="M11.8654 11.9437C11.744 12.3079 11.4101 13.1578 11.1673 13.6434C11.6026 13.4983 12.1138 13.3749 12.4547 13.2926C12.6843 13.2372 12.8367 13.2004 12.8367 13.1882C12.5939 12.9453 12.1385 12.399 11.8654 11.9437Z" fill="url(#paint2_linear_48_587)"/>
<path d="M7.55527 16.7395C7.94986 16.7395 8.67833 16.011 9.37645 14.8576C8.16234 15.4039 7.37316 15.9806 7.2821 16.4056C7.25175 16.527 7.2821 16.618 7.37316 16.6787C7.43386 16.7091 7.49458 16.7395 7.55527 16.7395Z" fill="url(#paint3_linear_48_587)"/>
<path fill-rule="evenodd" clip-rule="evenodd" d="M6 2C4.34315 2 3 3.34315 3 5V19C3 20.6569 4.34315 22 6 22H18C19.6569 22 21 20.6569 21 19V5C21 3.34315 19.6569 2 18 2H6ZM13.7133 13.0522C14.3806 12.9682 16.3168 12.7244 17.0557 13.4917C17.2682 13.7345 17.3592 14.0684 17.2074 14.3719C17.1164 14.6451 16.8432 14.9486 16.1148 14.9486C15.5684 14.9486 14.5364 14.7969 13.3527 13.7649C12.351 13.947 11.3494 14.2505 10.712 14.463C9.95315 15.7681 8.86045 17.3161 7.73739 17.3161C7.46421 17.3161 7.19104 17.2251 6.97858 17.043C6.7661 16.8305 6.67504 16.5574 6.73575 16.2841C6.88751 15.3736 8.73904 14.5237 9.61926 14.1594C10.4169 12.6497 10.7333 11.7548 11.0452 10.8727C11.0656 10.8149 11.086 10.7571 11.1066 10.6992C10.5299 9.39405 10.3781 8.11924 10.7423 7.48182C10.8941 7.239 11.1673 7.05688 11.4708 7.05688C12.3207 7.05688 12.6242 7.87641 12.6242 8.63523C12.5939 9.51546 12.4117 10.335 12.1385 11.1545C12.1446 11.1646 12.151 11.1753 12.1578 11.1866C12.3551 11.5162 12.8618 12.3624 13.5955 13.0667C13.6284 13.0629 13.6679 13.0579 13.7133 13.0522Z" fill="url(#paint4_linear_48_587)"/>
<defs>
<linearGradient id="paint0_linear_48_587" x1="12" y1="2" x2="12" y2="22" gradientUnits="userSpaceOnUse">
<stop stop-color="#FB6361"/>
<stop offset="1" stop-color="#F23433"/>
</linearGradient>
<linearGradient id="paint1_linear_48_587" x1="12" y1="2" x2="12" y2="22" gradientUnits="userSpaceOnUse">
<stop stop-color="#FB6361"/>
<stop offset="1" stop-color="#F23433"/>
</linearGradient>
<linearGradient id="paint2_linear_48_587" x1="12" y1="2" x2="12" y2="22" gradientUnits="userSpaceOnUse">
<stop stop-color="#FB6361"/>
<stop offset="1" stop-color="#F23433"/>
</linearGradient>
<linearGradient id="paint3_linear_48_587" x1="12" y1="2" x2="12" y2="22" gradientUnits="userSpaceOnUse">
<stop stop-color="#FB6361"/>
<stop offset="1" stop-color="#F23433"/>
</linearGradient>
<linearGradient id="paint4_linear_48_587" x1="12" y1="2" x2="12" y2="22" gradientUnits="userSpaceOnUse">
<stop stop-color="#FB6361"/>
<stop offset="1" stop-color="#F23433"/>
</linearGradient>
</defs>
</svg>
