<svg width="48" height="48" viewBox="0 0 48 48" fill="none" xmlns="http://www.w3.org/2000/svg">
<path d="M31.0153 28.6224C31.9866 28.8652 32.533 28.4403 32.5937 28.0154C32.7151 27.4083 32.2294 27.1048 31.7438 26.9834C30.469 26.7405 28.7085 26.9227 27.9193 27.0441C28.8299 27.7725 29.8619 28.3189 31.0153 28.6224Z" fill="url(#paint0_linear_48_576)"/>
<path d="M22.9415 15.2065C22.7594 15.2065 22.5772 15.3279 22.4558 15.51C22.1523 16.0563 21.9702 17.7561 22.8808 20.1843C23.3057 18.9702 23.5485 17.6954 23.6092 16.4206C23.6092 15.8742 23.4878 15.2065 22.9415 15.2065Z" fill="url(#paint1_linear_48_576)"/>
<path d="M23.7306 23.8874C23.4878 24.6158 22.8201 26.3156 22.3344 27.2869C23.2051 26.9967 24.2275 26.7498 24.9094 26.5852C25.3685 26.4743 25.6732 26.4007 25.6732 26.3763C25.1876 25.8907 24.277 24.798 23.7306 23.8874Z" fill="url(#paint2_linear_48_576)"/>
<path d="M15.1104 33.479C15.8996 33.479 17.3565 32.0219 18.7528 29.7151C16.3246 30.8078 14.7462 31.9612 14.5641 32.8111C14.5034 33.054 14.5641 33.236 14.7462 33.3575C14.8676 33.4182 14.989 33.479 15.1104 33.479Z" fill="url(#paint3_linear_48_576)"/>
<path fill-rule="evenodd" clip-rule="evenodd" d="M11 6H37C38.6569 6 40 7.34315 40 9V39C40 40.6569 38.6569 42 37 42H11C9.34315 42 8 40.6569 8 39V9C8 7.34315 9.34315 6 11 6ZM27.4265 26.1044C28.761 25.9363 32.6335 25.4488 34.1113 26.9834C34.5363 27.469 34.7183 28.1368 34.4148 28.7438C34.2328 29.2902 33.6863 29.8972 32.2294 29.8972C31.1367 29.8972 29.0727 29.5937 26.7052 27.5297C24.7019 27.8939 22.6986 28.501 21.4238 28.9259C19.9062 31.5363 17.7208 34.6322 15.4747 34.6322C14.9283 34.6322 14.382 34.4502 13.957 34.086C13.5321 33.661 13.35 33.1147 13.4714 32.5683C13.7749 30.7471 17.478 29.0474 19.2384 28.3189C20.8336 25.2994 21.4664 23.5096 22.0902 21.7454C22.1311 21.6297 22.1719 21.5142 22.213 21.3984C21.0596 18.7881 20.7561 16.2385 21.4845 14.9636C21.7881 14.478 22.3344 14.1138 22.9415 14.1138C24.6412 14.1138 25.2483 15.7528 25.2483 17.2705C25.1876 19.0309 24.8233 20.67 24.277 22.309C24.289 22.3291 24.3018 22.3505 24.3154 22.3731C24.7101 23.0324 25.7235 24.7248 27.1909 26.1335C27.2566 26.1258 27.3357 26.1158 27.4265 26.1044Z" fill="url(#paint4_linear_48_576)"/>
<defs>
<linearGradient id="paint0_linear_48_576" x1="24" y1="6" x2="24" y2="42" gradientUnits="userSpaceOnUse">
<stop stop-color="#FB6361"/>
<stop offset="1" stop-color="#F23433"/>
</linearGradient>
<linearGradient id="paint1_linear_48_576" x1="24" y1="6" x2="24" y2="42" gradientUnits="userSpaceOnUse">
<stop stop-color="#FB6361"/>
<stop offset="1" stop-color="#F23433"/>
</linearGradient>
<linearGradient id="paint2_linear_48_576" x1="24" y1="6" x2="24" y2="42" gradientUnits="userSpaceOnUse">
<stop stop-color="#FB6361"/>
<stop offset="1" stop-color="#F23433"/>
</linearGradient>
<linearGradient id="paint3_linear_48_576" x1="24" y1="6" x2="24" y2="42" gradientUnits="userSpaceOnUse">
<stop stop-color="#FB6361"/>
<stop offset="1" stop-color="#F23433"/>
</linearGradient>
<linearGradient id="paint4_linear_48_576" x1="24" y1="6" x2="24" y2="42" gradientUnits="userSpaceOnUse">
<stop stop-color="#FB6361"/>
<stop offset="1" stop-color="#F23433"/>
</linearGradient>
</defs>
</svg>
