<svg width="24" height="24" viewBox="0 0 24 24" fill="none" xmlns="http://www.w3.org/2000/svg">
<path d="M9.03125 9.81174V12C9.12277 12.0071 9.20731 12.0107 9.28488 12.0106H9.63365C9.88954 12.0144 10.1445 11.9787 10.3895 11.9049C10.599 11.8427 10.7862 11.7216 10.9289 11.556C11.0764 11.3625 11.1495 11.1224 11.1349 10.8795C11.1405 10.675 11.0873 10.4732 10.9816 10.2981C10.8705 10.1287 10.71 9.99769 10.5218 9.92279C10.276 9.82723 10.0135 9.78228 9.75001 9.7906C9.58093 9.7906 9.43119 9.79238 9.3008 9.7959C9.17022 9.79953 9.08037 9.80482 9.03125 9.81174Z" fill="url(#paint0_linear_48_563)"/>
<path fill-rule="evenodd" clip-rule="evenodd" d="M6 2C4.34315 2 3 3.34315 3 5V19C3 20.6569 4.34315 22 6 22H18C19.6569 22 21 20.6569 21 19V5C21 3.34315 19.6569 2 18 2H6ZM7.57227 15.3724V8.61719C7.57227 8.56795 7.59348 8.54319 7.63574 8.54319C7.74833 8.54319 7.88222 8.54143 8.03739 8.53789C8.19239 8.5344 8.35979 8.53089 8.53963 8.52736C8.71932 8.52388 8.9096 8.52034 9.11049 8.51675C9.31139 8.51326 9.51047 8.5115 9.70773 8.51145C10.167 8.49968 10.6248 8.56765 11.0608 8.71235C11.3915 8.82423 11.6931 9.0084 11.9436 9.25149C12.156 9.4622 12.3201 9.71646 12.4247 9.99675C12.5235 10.2696 12.5735 10.5576 12.5725 10.8478C12.5925 11.3425 12.4556 11.8309 12.1814 12.2432C11.919 12.6111 11.55 12.8897 11.1243 13.0413C10.6498 13.2122 10.1485 13.2964 9.64425 13.2898C9.48911 13.2898 9.37993 13.288 9.31669 13.2845C9.25322 13.281 9.15806 13.2792 9.03127 13.2792V15.3618C9.03309 15.3747 9.0319 15.3879 9.02777 15.4002C9.02364 15.4126 9.01668 15.4239 9.00745 15.4331C8.99823 15.4423 8.98698 15.4493 8.97459 15.4534C8.96222 15.4576 8.94904 15.4587 8.93612 15.4569H7.64635C7.59697 15.4569 7.57227 15.4287 7.57227 15.3724ZM16.6878 11.5772C16.4425 11.4763 16.1872 11.4019 15.9262 11.3552C15.6852 11.2999 15.4388 11.2715 15.1915 11.2706C15.0577 11.267 14.9242 11.283 14.795 11.3182C14.7128 11.3365 14.6398 11.3833 14.5888 11.4503C14.5544 11.504 14.5361 11.5663 14.5361 11.63C14.538 11.6919 14.5603 11.7513 14.5994 11.7992C14.6612 11.8714 14.7367 11.9307 14.8215 11.9736C14.9723 12.0548 15.1276 12.1271 15.2867 12.1903C15.6414 12.3091 15.9804 12.4706 16.2962 12.6713C16.5112 12.8071 16.6892 12.9942 16.8142 13.2158C16.9192 13.4256 16.9718 13.6577 16.9674 13.8923C16.9738 14.2021 16.8853 14.5064 16.7137 14.7644C16.5302 15.0264 16.2751 15.2301 15.9791 15.3512C15.6014 15.5027 15.1965 15.5747 14.7897 15.5626C14.4898 15.5657 14.1905 15.5373 13.8965 15.478C13.6513 15.4349 13.4118 15.364 13.1827 15.2666C13.1596 15.2547 13.1404 15.2364 13.1273 15.2139C13.1142 15.1915 13.1078 15.1657 13.1088 15.1397V13.9981C13.1075 13.9869 13.1093 13.9755 13.114 13.9653C13.1187 13.9551 13.126 13.9463 13.1353 13.9399C13.1444 13.9348 13.1548 13.9325 13.1651 13.9335C13.1755 13.9344 13.1853 13.9385 13.1933 13.9452C13.4612 14.0946 13.7499 14.2033 14.0498 14.2676C14.3023 14.3309 14.5613 14.3646 14.8215 14.368C15.008 14.3796 15.1945 14.347 15.3659 14.2729C15.4184 14.2489 15.4629 14.2101 15.4938 14.1613C15.5248 14.1125 15.5409 14.0558 15.5403 13.9981C15.5358 13.9448 15.5192 13.8933 15.4917 13.8475C15.4643 13.8017 15.4267 13.7628 15.3818 13.7338C15.1818 13.6027 14.9648 13.4996 14.7369 13.4272C14.4049 13.3116 14.0902 13.1516 13.8013 12.9515C13.5946 12.8078 13.4245 12.6178 13.3045 12.3965C13.2004 12.1882 13.1478 11.958 13.1511 11.7252C13.1505 11.4455 13.2274 11.1711 13.3732 10.9324C13.5394 10.6694 13.778 10.4602 14.0604 10.3297C14.3882 10.1505 14.7566 10.0586 15.1302 10.0627C15.4273 10.0472 15.7251 10.0516 16.0216 10.0757C16.2628 10.1248 16.4972 10.203 16.7196 10.3086C16.7339 10.3127 16.7472 10.3201 16.7582 10.3302C16.7692 10.3403 16.7776 10.3528 16.7829 10.3668C16.7901 10.3926 16.7937 10.4192 16.7936 10.446V11.5138C16.7943 11.5262 16.7917 11.5386 16.7862 11.5497C16.7806 11.5608 16.7722 11.5703 16.7618 11.5772C16.7508 11.5842 16.7379 11.5879 16.7248 11.5879C16.7117 11.5879 16.6988 11.5842 16.6878 11.5772Z" fill="url(#paint1_linear_48_563)"/>
<defs>
<linearGradient id="paint0_linear_48_563" x1="12" y1="2" x2="12" y2="22" gradientUnits="userSpaceOnUse">
<stop stop-color="#31D0FE"/>
<stop offset="1" stop-color="#05BAF1"/>
</linearGradient>
<linearGradient id="paint1_linear_48_563" x1="12" y1="2" x2="12" y2="22" gradientUnits="userSpaceOnUse">
<stop stop-color="#31D0FE"/>
<stop offset="1" stop-color="#05BAF1"/>
</linearGradient>
</defs>
</svg>
