<svg width="24" height="24" viewBox="0 0 24 24" fill="none" xmlns="http://www.w3.org/2000/svg">
<path d="M10.8492 11.8773V9.38354H11.5763C12.5611 9.38354 13.0534 9.79451 13.0534 10.6165C13.0534 11.457 12.5611 11.8773 11.5763 11.8773H10.8492Z" fill="url(#paint0_linear_48_534)"/>
<path fill-rule="evenodd" clip-rule="evenodd" d="M6 2C4.34315 2 3 3.34315 3 5V19C3 20.6569 4.34315 22 6 22H18C19.6569 22 21 20.6569 21 19V5C21 3.34315 19.6569 2 18 2H6ZM10.8492 16V13.2441H11.7309C12.7233 13.2441 13.5162 12.9958 14.1097 12.4993C14.7032 12.0028 15 11.3529 15 10.5495C15 8.84983 13.9657 8 11.8969 8H9V16H10.8492Z" fill="url(#paint1_linear_48_534)"/>
<defs>
<linearGradient id="paint0_linear_48_534" x1="12" y1="2" x2="12" y2="22" gradientUnits="userSpaceOnUse">
<stop stop-color="#FB6361"/>
<stop offset="1" stop-color="#F23433"/>
</linearGradient>
<linearGradient id="paint1_linear_48_534" x1="12" y1="2" x2="12" y2="22" gradientUnits="userSpaceOnUse">
<stop stop-color="#FB6361"/>
<stop offset="1" stop-color="#F23433"/>
</linearGradient>
</defs>
</svg>
