<svg width="48" height="48" viewBox="0 0 48 48" fill="none" xmlns="http://www.w3.org/2000/svg">
<path d="M18.2885 19.5053V23.9053C18.3742 23.9053 18.5456 23.9339 18.7171 23.9625C18.8885 23.9911 19.06 24.0196 19.1457 24.0196H19.8314C20.3457 24.0196 20.8599 23.9625 21.3171 23.7911C21.7171 23.6768 22.1171 23.4482 22.4028 23.1053C22.6885 22.7053 22.8599 22.2482 22.8028 21.7339C22.8028 21.3339 22.6885 20.9339 22.5171 20.5911C22.2885 20.2482 21.9457 19.9625 21.6028 19.8482C21.0885 19.6768 20.5742 19.5625 20.0599 19.5625H19.1457C18.9257 19.6065 18.5704 19.5489 18.3924 19.52C18.3391 19.5114 18.3017 19.5053 18.2885 19.5053Z" fill="url(#paint0_linear_48_489)"/>
<path fill-rule="evenodd" clip-rule="evenodd" d="M11 6H37C38.6569 6 40 7.34315 40 9V39C40 40.6569 38.6569 42 37 42H11C9.34315 42 8 40.6569 8 39V9C8 7.34315 9.34315 6 11 6ZM15.5457 30.6482V17.1625C15.5457 17.0482 15.6028 16.9911 15.6599 16.9911H18.6314C18.8314 16.9911 19.0599 17.0196 19.2885 17.0482C19.5171 17.0768 19.7457 17.1053 19.9457 17.1053C20.8599 17.1053 21.7742 17.2196 22.6314 17.5053C23.3171 17.7339 23.8885 18.0768 24.4028 18.5911C24.8028 18.9911 25.1457 19.5053 25.3742 20.0768C25.5457 20.6482 25.6599 21.2196 25.6599 21.7911C25.7171 22.7625 25.4314 23.7339 24.8599 24.5911C24.3457 25.3339 23.6028 25.9053 22.7457 26.1911C21.7742 26.5339 20.8028 26.7053 19.7742 26.7053H19.1457C19.1014 26.7053 18.9971 26.6882 18.8693 26.6672C18.6673 26.634 18.4064 26.5911 18.2314 26.5911V30.7625C18.2314 30.8768 18.1742 30.9339 18.0599 30.9339H15.6599C15.6446 30.9033 15.6293 30.8768 15.6151 30.8521C15.5763 30.7849 15.5457 30.7319 15.5457 30.6482ZM27.4885 20.4196H29.7742C29.8885 20.4196 30.0028 20.5339 30.06 20.6482C30.0753 20.6788 30.0906 20.7054 30.1048 20.73C30.1436 20.7972 30.1742 20.8503 30.1742 20.9339C30.2314 21.0482 30.2314 21.2196 30.2314 21.3339V21.7911C30.6314 21.3339 31.0885 20.9339 31.66 20.6482C32.2314 20.3053 32.86 20.1339 33.4885 20.1911C33.6027 20.1911 33.66 20.2482 33.66 20.3053V22.9339C33.66 23.0482 33.6027 23.1053 33.4315 23.1053C32.9742 23.0482 32.5742 23.1053 32.1742 23.2196C31.7742 23.2768 31.4314 23.3911 31.0885 23.5625C30.8028 23.6768 30.46 23.8482 30.2314 24.0768V30.7625C30.2314 30.8768 30.1742 30.9339 30.06 30.9339H27.66C27.5457 30.9339 27.4885 30.8768 27.4314 30.7625V22.4768C27.4314 22.1339 27.4314 21.7911 27.3742 21.4482C27.3742 21.3054 27.3599 21.1625 27.3457 21.0197C27.3314 20.8768 27.3171 20.7339 27.3171 20.5911C27.3171 20.5668 27.3171 20.5528 27.3215 20.5404C27.3274 20.5236 27.3414 20.5096 27.3742 20.4768C27.3742 20.4196 27.4314 20.4196 27.4885 20.4196Z" fill="url(#paint1_linear_48_489)"/>
<defs>
<linearGradient id="paint0_linear_48_489" x1="24" y1="6" x2="24" y2="42" gradientUnits="userSpaceOnUse">
<stop stop-color="#69A3FB"/>
<stop offset="1" stop-color="#477EF7"/>
</linearGradient>
<linearGradient id="paint1_linear_48_489" x1="24" y1="6" x2="24" y2="42" gradientUnits="userSpaceOnUse">
<stop stop-color="#69A3FB"/>
<stop offset="1" stop-color="#477EF7"/>
</linearGradient>
</defs>
</svg>
