<svg width="48" height="48" viewBox="0 0 48 48" fill="none" xmlns="http://www.w3.org/2000/svg">
<path d="M24.9374 21.5C24.9374 20.9822 24.5177 20.5625 23.9999 20.5625C23.4821 20.5625 23.0624 20.9822 23.0624 21.5V24.625C23.0624 25.1428 23.4821 25.5625 23.9999 25.5625C24.5177 25.5625 24.9374 25.1428 24.9374 24.625V21.5Z" fill="url(#paint0_linear_6983_8)"/>
<path d="M23.9999 27.125C23.4821 27.125 23.0624 27.5447 23.0624 28.0625C23.0624 28.5803 23.4821 29 23.9999 29H24.0082C24.526 29 24.9457 28.5803 24.9457 28.0625C24.9457 27.5447 24.526 27.125 24.0082 27.125H23.9999Z" fill="url(#paint1_linear_6983_8)"/>
<path fill-rule="evenodd" clip-rule="evenodd" d="M37 6H11C9.34315 6 8 7.34315 8 9V39C8 40.6569 9.34315 42 11 42H37C38.6569 42 40 40.6569 40 39V9C40 7.34315 38.6569 6 37 6ZM22.7223 15.8118C23.1123 15.5923 23.5523 15.4769 23.9999 15.4769C24.4475 15.4769 24.8875 15.5923 25.2775 15.8118C25.6675 16.0314 25.9943 16.3478 26.2265 16.7305L26.2292 16.7349L33.2952 28.5312C33.5226 28.9249 33.6428 29.3714 33.6441 29.8262C33.6453 30.2809 33.5275 30.728 33.3024 31.123C33.0772 31.5181 32.7525 31.8473 32.3606 32.0779C31.9687 32.3085 31.5232 32.4325 31.0685 32.4375L31.0582 32.4376L16.9313 32.4375C16.4766 32.4325 16.0311 32.3085 15.6392 32.0779C15.2473 31.8473 14.9226 31.5181 14.6974 31.123C14.4723 30.728 14.3544 30.2809 14.3557 29.8262C14.357 29.3714 14.4773 28.925 14.7047 28.5312L14.7122 28.5182L21.7733 16.7305C22.0055 16.3478 22.3323 16.0314 22.7223 15.8118Z" fill="url(#paint2_linear_6983_8)"/>
<defs>
<linearGradient id="paint0_linear_6983_8" x1="24" y1="6" x2="24" y2="42" gradientUnits="userSpaceOnUse">
<stop stop-color="#F63D6B"/>
<stop offset="1" stop-color="#E31B57"/>
</linearGradient>
<linearGradient id="paint1_linear_6983_8" x1="24" y1="6" x2="24" y2="42" gradientUnits="userSpaceOnUse">
<stop stop-color="#F63D6B"/>
<stop offset="1" stop-color="#E31B57"/>
</linearGradient>
<linearGradient id="paint2_linear_6983_8" x1="24" y1="6" x2="24" y2="42" gradientUnits="userSpaceOnUse">
<stop stop-color="#F63D6B"/>
<stop offset="1" stop-color="#E31B57"/>
</linearGradient>
</defs>
</svg>
