<svg width="24" height="24" viewBox="0 0 24 24" fill="none" xmlns="http://www.w3.org/2000/svg">
<path d="M12.5624 10.5C12.5624 10.1893 12.3105 9.9375 11.9999 9.9375C11.6892 9.9375 11.4374 10.1893 11.4374 10.5V12.375C11.4374 12.6857 11.6892 12.9375 11.9999 12.9375C12.3105 12.9375 12.5624 12.6857 12.5624 12.375V10.5Z" fill="url(#paint0_linear_6983_10)"/>
<path d="M11.9999 13.875C11.6892 13.875 11.4374 14.1268 11.4374 14.4375C11.4374 14.7482 11.6892 15 11.9999 15H12.0049C12.3155 15 12.5674 14.7482 12.5674 14.4375C12.5674 14.1268 12.3155 13.875 12.0049 13.875H11.9999Z" fill="url(#paint1_linear_6983_10)"/>
<path fill-rule="evenodd" clip-rule="evenodd" d="M3 5C3 3.34315 4.34315 2 6 2H18C19.6569 2 21 3.34315 21 5V19C21 20.6569 19.6569 22 18 22H6C4.34315 22 3 20.6569 3 19V5ZM11.2333 7.0871C11.4673 6.95535 11.7313 6.88614 11.9999 6.88614C12.2684 6.88614 12.5324 6.95535 12.7664 7.0871C13.0005 7.21884 13.1966 7.40868 13.3358 7.63828L13.3374 7.64095L17.5771 14.7187C17.7135 14.955 17.7856 15.2229 17.7864 15.4957C17.7872 15.7685 17.7165 16.0368 17.5814 16.2738C17.4463 16.5109 17.2514 16.7084 17.0163 16.8467C16.7812 16.9851 16.5139 17.0595 16.2411 17.0625L16.2349 17.0625L7.75871 17.0625C7.48589 17.0595 7.21862 16.9851 6.98348 16.8467C6.74834 16.7084 6.55352 16.5109 6.41841 16.2738C6.28331 16.0368 6.21262 15.7685 6.21339 15.4957C6.21415 15.2229 6.28634 14.955 6.42277 14.7187L6.42728 14.7109L10.664 7.63828C10.8032 7.40868 10.9993 7.21884 11.2333 7.0871Z" fill="url(#paint2_linear_6983_10)"/>
<defs>
<linearGradient id="paint0_linear_6983_10" x1="12" y1="2" x2="12" y2="22" gradientUnits="userSpaceOnUse">
<stop stop-color="#F63D6B"/>
<stop offset="1" stop-color="#E31B57"/>
</linearGradient>
<linearGradient id="paint1_linear_6983_10" x1="12" y1="2" x2="12" y2="22" gradientUnits="userSpaceOnUse">
<stop stop-color="#F63D6B"/>
<stop offset="1" stop-color="#E31B57"/>
</linearGradient>
<linearGradient id="paint2_linear_6983_10" x1="12" y1="2" x2="12" y2="22" gradientUnits="userSpaceOnUse">
<stop stop-color="#F63D6B"/>
<stop offset="1" stop-color="#E31B57"/>
</linearGradient>
</defs>
</svg>
