<svg width="24" height="24" viewBox="0 0 24 24" fill="none" xmlns="http://www.w3.org/2000/svg">
<path fill-rule="evenodd" clip-rule="evenodd" d="M6 2C4.34315 2 3 3.34315 3 5V19C3 20.6569 4.34315 22 6 22H18C19.6569 22 21 20.6569 21 19V5C21 3.34315 19.6569 2 18 2H6ZM9 6H10V7H17V8H10V10H17V11H10V13H17V14H10V16H17V17H10V18H9V17H7V16H9V14H7V13H9V11H7V10H9V8H7V7H9V6Z" fill="url(#paint0_linear_48_377)"/>
<defs>
<linearGradient id="paint0_linear_48_377" x1="12" y1="2" x2="12" y2="22" gradientUnits="userSpaceOnUse">
<stop stop-color="#888D95"/>
<stop offset="1" stop-color="#6E747D"/>
</linearGradient>
</defs>
</svg>
