<svg width="24" height="24" viewBox="0 0 24 24" fill="none" xmlns="http://www.w3.org/2000/svg">
<path fill-rule="evenodd" clip-rule="evenodd" d="M6 2C4.34315 2 3 3.34315 3 5V19C3 20.6569 4.34315 22 6 22H18C19.6569 22 21 20.6569 21 19V5C21 3.34315 19.6569 2 18 2H6ZM9.49295 7.5L7.34645 9.6465C7.15145 9.842 7.15145 10.1585 7.34645 10.3535L7.38945 10.3965C7.58495 10.592 7.90145 10.592 8.09645 10.3965L8.99295 9.5V14C8.99295 14.276 9.21695 14.5 9.49295 14.5C9.76895 14.5 9.99295 14.276 9.99295 14V9.5L10.8894 10.3965C11.0849 10.592 11.4014 10.592 11.5964 10.3965L11.6394 10.3535C11.8349 10.1585 11.8349 9.842 11.6394 9.6465L9.49295 7.5ZM14.4929 16.5L12.3464 14.3535C12.1514 14.158 12.1514 13.8415 12.3464 13.6465L12.3894 13.6035C12.5849 13.408 12.9014 13.408 13.0964 13.6035L13.9929 14.5V10C13.9929 9.724 14.2169 9.5 14.4929 9.5C14.7689 9.5 14.9929 9.724 14.9929 10V14.5L15.8894 13.6035C16.0849 13.408 16.4014 13.408 16.5964 13.6035L16.6394 13.6465C16.8349 13.8415 16.8349 14.158 16.6394 14.3535L14.4929 16.5Z" fill="url(#paint0_linear_48_336)"/>
<defs>
<linearGradient id="paint0_linear_48_336" x1="12" y1="2" x2="12" y2="22" gradientUnits="userSpaceOnUse">
<stop stop-color="#29DD74"/>
<stop offset="1" stop-color="#09BF5B"/>
</linearGradient>
</defs>
</svg>
