<svg width="24" height="24" viewBox="0 0 24 24" fill="none" xmlns="http://www.w3.org/2000/svg">
<path fill-rule="evenodd" clip-rule="evenodd" d="M3 5C3 3.34315 4.34315 2 6 2H15.6716C16.202 2 16.7107 2.21071 17.0858 2.58579L20.4142 5.91421C20.7893 6.28929 21 6.79799 21 7.32843V19C21 20.6569 19.6569 22 18 22H6C4.34315 22 3 20.6569 3 19V5ZM16 3.60355C16 3.38083 16.2693 3.26929 16.4268 3.42678L19.5732 6.57322C19.7307 6.73072 19.6192 7 19.3964 7H16.25C16.1119 7 16 6.88807 16 6.75V3.60355ZM9.68414 11.9737C9.94414 12.0647 10.2301 11.9277 10.3221 11.6677C10.4591 11.2787 10.7291 10.9497 11.0851 10.7407C11.4411 10.5317 11.8601 10.4547 12.2661 10.5247C12.6731 10.5947 13.0431 10.8067 13.3081 11.1217C13.5741 11.4377 13.7201 11.8377 13.7191 12.2507C13.7191 12.6957 13.4281 13.0387 13.1081 13.3057C12.5321 13.7857 11.8131 14.0257 11.8131 14.0257C11.5511 14.1127 11.4091 14.3957 11.4971 14.6577C11.5841 14.9197 11.8671 15.0617 12.1291 14.9737C12.1291 14.9737 13.0281 14.6737 13.7481 14.0747C14.2911 13.6217 14.7191 13.0057 14.7191 12.2517C14.7201 11.6027 14.4911 10.9747 14.0731 10.4777C13.6551 9.98175 13.0751 9.64875 12.4361 9.53975C11.7961 9.42975 11.1381 9.54975 10.5781 9.87875C10.0191 10.2077 9.59414 10.7237 9.37814 11.3357C9.28714 11.5967 9.42414 11.8817 9.68414 11.9737ZM12 16.5C11.7239 16.5 11.5 16.7239 11.5 17C11.5 17.2761 11.7239 17.5 12 17.5H12.01C12.2862 17.5 12.51 17.2761 12.51 17C12.51 16.7239 12.2862 16.5 12.01 16.5H12Z" fill="url(#paint0_linear_1058_175)"/>
<defs>
<linearGradient id="paint0_linear_1058_175" x1="12" y1="2" x2="12" y2="22" gradientUnits="userSpaceOnUse">
<stop stop-color="#FDC121"/>
<stop offset="1" stop-color="#F7A308"/>
</linearGradient>
</defs>
</svg>
