<svg width="24" height="24" viewBox="0 0 24 24" fill="none" xmlns="http://www.w3.org/2000/svg">
<path d="M12 11C12 10.4477 11.5523 10 11 10C10.4477 10 10 10.4477 10 11C10 11.5523 10.4477 12 11 12C11.5523 12 12 11.5523 12 11Z" fill="url(#paint0_linear_48_234)"/>
<path fill-rule="evenodd" clip-rule="evenodd" d="M6 2C4.34315 2 3 3.34315 3 5V19C3 20.6569 4.34315 22 6 22H18C19.6569 22 21 20.6569 21 19V5C21 3.34315 19.6569 2 18 2H6ZM12.5996 9.79927C14.6899 8.22907 17.234 7.23037 20 7.03516V8.03789C17.3644 8.23838 14.9485 9.22475 12.9861 10.7632C12.9953 10.8408 13 10.9199 13 11C13 12.1046 12.1046 13 11 13C10.9199 13 10.8408 12.9953 10.7632 12.9861C9.03209 15.1943 8 17.9766 8 21H7C7 17.8481 8.04156 14.9395 9.79927 12.5996L9.77359 12.58L7 15.3536L6.96673 15.3203C6.98822 15.3761 7 15.4367 7 15.5C7 15.7761 6.77614 16 6.5 16C6.22386 16 6 15.7761 6 15.5C6 15.2239 6.22386 15 6.5 15C6.56335 15 6.62394 15.0118 6.67972 15.0333L6.64645 15L9.42004 12.2264C9.15677 11.8877 9 11.4622 9 11C9 9.89543 9.89543 9 11 9C11.4622 9 11.8877 9.15677 12.2264 9.42004L15 6.64645L15.0333 6.67972C15.0118 6.62394 15 6.56335 15 6.5C15 6.22386 15.2239 6 15.5 6C15.7761 6 16 6.22386 16 6.5C16 6.77614 15.7761 7 15.5 7C15.4367 7 15.3761 6.98822 15.3203 6.96673L15.3536 7L12.58 9.77359L12.5996 9.79927Z" fill="url(#paint1_linear_48_234)"/>
<defs>
<linearGradient id="paint0_linear_48_234" x1="12" y1="2" x2="12" y2="22" gradientUnits="userSpaceOnUse">
<stop stop-color="#FDC121"/>
<stop offset="1" stop-color="#F7A308"/>
</linearGradient>
<linearGradient id="paint1_linear_48_234" x1="12" y1="2" x2="12" y2="22" gradientUnits="userSpaceOnUse">
<stop stop-color="#FDC121"/>
<stop offset="1" stop-color="#F7A308"/>
</linearGradient>
</defs>
</svg>
