<svg width="48" height="48" viewBox="0 0 48 48" fill="none" xmlns="http://www.w3.org/2000/svg">
<path fill-rule="evenodd" clip-rule="evenodd" d="M37 6H11C9.34315 6 8 7.34315 8 9V39C8 40.6569 9.34315 42 11 42H37C38.6569 42 40 40.6569 40 39V9C40 7.34315 38.6569 6 37 6ZM11 10C11 9.44772 11.4477 9 12 9H15C15.5523 9 16 9.44772 16 10C16 10.5523 15.5523 11 15 11H12C11.4477 11 11 10.5523 11 10ZM12 12C11.4477 12 11 12.4477 11 13V15C11 15.5523 11.4477 16 12 16H15C15.5523 16 16 15.5523 16 15V13C16 12.4477 15.5523 12 15 12H12ZM33 12C32.4477 12 32 12.4477 32 13V15C32 15.5523 32.4477 16 33 16H36C36.5523 16 37 15.5523 37 15V13C37 12.4477 36.5523 12 36 12H33ZM33 9C32.4477 9 32 9.44772 32 10C32 10.5523 32.4477 11 33 11H36C36.5523 11 37 10.5523 37 10C37 9.44772 36.5523 9 36 9H33ZM11 38C11 37.4477 11.4477 37 12 37H15C15.5523 37 16 37.4477 16 38C16 38.5523 15.5523 39 15 39H12C11.4477 39 11 38.5523 11 38ZM33 37C32.4477 37 32 37.4477 32 38C32 38.5523 32.4477 39 33 39H36C36.5523 39 37 38.5523 37 38C37 37.4477 36.5523 37 36 37H33ZM11 18C11 17.4477 11.4477 17 12 17H15C15.5523 17 16 17.4477 16 18V20C16 20.5523 15.5523 21 15 21H12C11.4477 21 11 20.5523 11 20V18ZM33 17C32.4477 17 32 17.4477 32 18V20C32 20.5523 32.4477 21 33 21H36C36.5523 21 37 20.5523 37 20V18C37 17.4477 36.5523 17 36 17H33ZM11 23C11 22.4477 11.4477 22 12 22H15C15.5523 22 16 22.4477 16 23V25C16 25.5523 15.5523 26 15 26H12C11.4477 26 11 25.5523 11 25V23ZM33 22C32.4477 22 32 22.4477 32 23V25C32 25.5523 32.4477 26 33 26H36C36.5523 26 37 25.5523 37 25V23C37 22.4477 36.5523 22 36 22H33ZM11 28C11 27.4477 11.4477 27 12 27H15C15.5523 27 16 27.4477 16 28V30C16 30.5523 15.5523 31 15 31H12C11.4477 31 11 30.5523 11 30V28ZM33 27C32.4477 27 32 27.4477 32 28V30C32 30.5523 32.4477 31 33 31H36C36.5523 31 37 30.5523 37 30V28C37 27.4477 36.5523 27 36 27H33ZM11 33C11 32.4477 11.4477 32 12 32H15C15.5523 32 16 32.4477 16 33V35C16 35.5523 15.5523 36 15 36H12C11.4477 36 11 35.5523 11 35V33ZM33 32C32.4477 32 32 32.4477 32 33V35C32 35.5523 32.4477 36 33 36H36C36.5523 36 37 35.5523 37 35V33C37 32.4477 36.5523 32 36 32H33ZM21.6139 18.2553C20.9571 17.7444 20 18.2125 20 19.0446V28.9554C20 29.7875 20.9571 30.2556 21.6139 29.7447L27.9851 24.7894C28.4999 24.389 28.4999 23.611 27.9851 23.2106L21.6139 18.2553Z" fill="url(#paint0_linear_48_128)"/>
<defs>
<linearGradient id="paint0_linear_48_128" x1="24" y1="6" x2="24" y2="42" gradientUnits="userSpaceOnUse">
<stop stop-color="#FD6F90"/>
<stop offset="1" stop-color="#F63D6B"/>
</linearGradient>
</defs>
</svg>
