<svg width="24" height="24" viewBox="0 0 24 24" fill="none" xmlns="http://www.w3.org/2000/svg">
<path fill-rule="evenodd" clip-rule="evenodd" d="M6 2C4.34315 2 3 3.34315 3 5V19C3 20.6569 4.34315 22 6 22H18C19.6569 22 21 20.6569 21 19V5C21 3.34315 19.6569 2 18 2H6ZM8 17V19H6V17H8ZM18 17V19H16V17H18ZM8 14V16H6V14H8ZM18 14V16H16V14H18ZM8 11V13H6V11H8ZM18 11V13H16V11H18ZM8 8V10H6V8H8ZM18 8V10H16V8H18ZM8 5V7H6V5H8ZM18 5V7H16V5H18ZM10 9.50292C10 8.94902 10.3531 8.77463 10.7838 9.10965L13.7162 11.3903C14.1491 11.727 14.1469 12.2746 13.7162 12.6096L10.7838 14.8903C10.3509 15.227 10 15.0621 10 14.4971V9.50292Z" fill="url(#paint0_linear_48_166)"/>
<defs>
<linearGradient id="paint0_linear_48_166" x1="12" y1="2" x2="12" y2="22" gradientUnits="userSpaceOnUse">
<stop stop-color="#FD6F90"/>
<stop offset="1" stop-color="#F63D6B"/>
</linearGradient>
</defs>
</svg>
