<svg width="48" height="48" viewBox="0 0 48 48" fill="none" xmlns="http://www.w3.org/2000/svg">
<path fill-rule="evenodd" clip-rule="evenodd" d="M37 6H11C9.34315 6 8 7.34315 8 9V39C8 40.6569 9.34315 42 11 42H37C38.6569 42 40 40.6569 40 39V9C40 7.34315 38.6569 6 37 6ZM19.707 19.2929C20.0975 19.6834 20.0975 20.3166 19.707 20.7071L16.4141 24L19.707 27.2929C20.0975 27.6834 20.0975 28.3166 19.707 28.7071C19.3165 29.0976 18.6833 29.0976 18.2928 28.7071L13.5857 24L18.2928 19.2929C18.6833 18.9024 19.3165 18.9024 19.707 19.2929ZM28.293 20.7071C27.9025 20.3166 27.9025 19.6834 28.293 19.2929C28.6835 18.9024 29.3167 18.9024 29.7072 19.2929L34.4143 24L29.7072 28.7071C29.3167 29.0976 28.6835 29.0976 28.293 28.7071C27.9025 28.3166 27.9025 27.6834 28.293 27.2929L31.5859 24L28.293 20.7071Z" fill="url(#paint0_linear_48_51)"/>
<defs>
<linearGradient id="paint0_linear_48_51" x1="24" y1="6" x2="24" y2="42" gradientUnits="userSpaceOnUse">
<stop stop-color="#FD853A"/>
<stop offset="1" stop-color="#FB6514"/>
</linearGradient>
</defs>
</svg>
