<svg width="48" height="48" viewBox="0 0 48 48" fill="none" xmlns="http://www.w3.org/2000/svg">
<path fill-rule="evenodd" clip-rule="evenodd" d="M11 6H37C38.6569 6 40 7.34315 40 9V39C40 40.6569 38.6569 42 37 42H11C9.34315 42 8 40.6569 8 39V9C8 7.34315 9.34315 6 11 6ZM29 20C29 19.4477 28.5523 19 28 19V17C29.6569 17 31 18.3431 31 20V22C31 22.5523 31.4477 23 32 23V25C31.4477 25 31 25.4477 31 26V28C31 29.6569 29.6569 31 28 31V29C28.5523 29 29 28.5523 29 28V26C29 25.2316 29.2889 24.5308 29.7639 24C29.2889 23.4692 29 22.7684 29 22V20ZM20 19C19.4477 19 19 19.4477 19 20V22C19 22.7684 18.7111 23.4692 18.2361 24C18.7111 24.5308 19 25.2316 19 26V28C19 28.5523 19.4477 29 20 29V31C18.3431 31 17 29.6569 17 28V26C17 25.4477 16.5523 25 16 25V23C16.5523 23 17 22.5523 17 22V20C17 18.3431 18.3431 17 20 17V19Z" fill="url(#paint0_linear_48_79)"/>
<defs>
<linearGradient id="paint0_linear_48_79" x1="24" y1="6" x2="24" y2="42" gradientUnits="userSpaceOnUse">
<stop stop-color="#69A3FB"/>
<stop offset="1" stop-color="#477EF7"/>
</linearGradient>
</defs>
</svg>
