<svg width="16" height="16" viewBox="0 0 16 16" fill="none" xmlns="http://www.w3.org/2000/svg">
<path fill-rule="evenodd" clip-rule="evenodd" d="M3.33333 2.75C3.17862 2.75 3.03025 2.81146 2.92085 2.92085C2.81146 3.03025 2.75 3.17862 2.75 3.33333V12.6667C2.75 12.8214 2.81146 12.9697 2.92085 13.0791C3.03025 13.1885 3.17862 13.25 3.33333 13.25H6C6.41421 13.25 6.75 13.5858 6.75 14C6.75 14.4142 6.41421 14.75 6 14.75H3.33333C2.7808 14.75 2.25089 14.5305 1.86019 14.1398C1.46949 13.7491 1.25 13.2192 1.25 12.6667V3.33333C1.25 2.7808 1.46949 2.2509 1.86019 1.86019C2.2509 1.46949 2.7808 1.25 3.33333 1.25H6C6.41421 1.25 6.75 1.58579 6.75 2C6.75 2.41421 6.41421 2.75 6 2.75H3.33333ZM9.96968 3.96966C10.2626 3.67677 10.7375 3.67678 11.0303 3.96968L14.521 7.46051C14.6622 7.5969 14.75 7.7882 14.75 8C14.75 8.21189 14.6621 8.40325 14.5208 8.53965L11.0303 12.0303C10.7375 12.3232 10.2626 12.3232 9.96968 12.0303C9.67678 11.7375 9.67677 11.2626 9.96966 10.9697L12.1892 8.75H6C5.58579 8.75 5.25 8.41421 5.25 8C5.25 7.58579 5.58579 7.25 6 7.25H12.1892L9.96966 5.03032C9.67677 4.73742 9.67678 4.26254 9.96968 3.96966Z" fill="#04101E"/>
</svg>
