<svg width="32" height="32" viewBox="0 0 32 32" fill="none" xmlns="http://www.w3.org/2000/svg">
<path d="M7 10C7 9.44772 7.44772 9 8 9H24C24.5523 9 25 9.44772 25 10C25 10.5523 24.5523 11 24 11H8C7.44772 11 7 10.5523 7 10Z" fill="#04101E" fill-opacity="0.75"/>
<path d="M7 22C7 21.4477 7.44772 21 8 21H18C18.5523 21 19 21.4477 19 22C19 22.5523 18.5523 23 18 23H8C7.44772 23 7 22.5523 7 22Z" fill="#04101E" fill-opacity="0.75"/>
<path d="M8 15C7.44772 15 7 15.4477 7 16C7 16.5523 7.44772 17 8 17H24C24.5523 17 25 16.5523 25 16C25 15.4477 24.5523 15 24 15H8Z" fill="#04101E" fill-opacity="0.75"/>
</svg>
