<svg width="16" height="16" viewBox="0 0 16 16" fill="none" xmlns="http://www.w3.org/2000/svg">
<path fill-rule="evenodd" clip-rule="evenodd" d="M8 5.33332C6.52724 5.33332 5.33333 6.52723 5.33333 7.99999C5.33333 9.47275 6.52724 10.6667 8 10.6667C9.47276 10.6667 10.6667 9.47275 10.6667 7.99999C10.6667 6.52723 9.47276 5.33332 8 5.33332ZM6.66667 7.99999C6.66667 7.26361 7.26362 6.66666 8 6.66666C8.73638 6.66666 9.33333 7.26361 9.33333 7.99999C9.33333 8.73637 8.73638 9.33332 8 9.33332C7.26362 9.33332 6.66667 8.73637 6.66667 7.99999Z" fill="#303233"/>
<path fill-rule="evenodd" clip-rule="evenodd" d="M5.25689 12.7473C5.43089 12.8473 5.56889 13.0007 5.65023 13.1847L6.04023 14.0613C6.20823 14.44 6.48289 14.7613 6.83023 14.9873C7.17756 15.2133 7.58289 15.3333 7.99756 15.3333C8.41156 15.3333 8.81756 15.2133 9.1649 14.9873C9.51223 14.7613 9.78689 14.4393 9.9549 14.0607L10.3442 13.1853C10.4256 13.0033 10.5622 12.8507 10.7356 12.7507C10.9102 12.65 11.1116 12.6073 11.3122 12.628L12.2649 12.7293C12.6769 12.7733 13.0929 12.6967 13.4622 12.508C13.8316 12.32 14.1382 12.0293 14.3449 11.6707C14.5522 11.312 14.6509 10.9007 14.6296 10.4867C14.6076 10.0733 14.4662 9.67466 14.2222 9.33932L13.6589 8.56532C13.5409 8.40199 13.4776 8.20532 13.4789 8.00332V7.99999C13.4789 7.79866 13.5422 7.60266 13.6609 7.43932L14.2256 6.66399C14.4689 6.32932 14.6102 5.93066 14.6322 5.51666C14.6542 5.10332 14.5556 4.69199 14.3482 4.33332C14.1409 3.97466 13.8342 3.68332 13.4649 3.49532C13.0962 3.30732 12.6796 3.23066 12.2676 3.27399L11.3149 3.37532C11.1149 3.39666 10.9129 3.35399 10.7389 3.25332C10.5656 3.15266 10.4289 2.99932 10.3476 2.81666L10.3462 2.81332L9.95356 1.93732C9.7869 1.56066 9.51223 1.23866 9.1649 1.01266C8.81756 0.786656 8.41156 0.666656 7.99756 0.666656C7.58289 0.666656 7.17756 0.786656 6.83023 1.01266C6.48289 1.23866 6.20823 1.55999 6.04023 1.93932L5.65023 2.81532L5.64956 2.81666C5.56889 2.99932 5.43223 3.15266 5.25889 3.25332C5.08423 3.35399 4.88289 3.39666 4.68289 3.37532L3.72689 3.27399C3.31489 3.23066 2.89889 3.30732 2.52956 3.49532C2.16023 3.68332 1.85356 3.97466 1.64689 4.33332C1.43956 4.69199 1.34089 5.10332 1.36223 5.51666C1.38423 5.93066 1.52556 6.32932 1.76956 6.66399L2.33356 7.43932C2.45223 7.60266 2.51623 7.79866 2.51556 7.99999C2.51623 8.20132 2.45223 8.39732 2.33356 8.56066L1.76956 9.33599C1.52556 9.67066 1.38423 10.0693 1.36223 10.4833C1.34089 10.8967 1.43956 11.308 1.64689 11.6667C1.85423 12.0253 2.16089 12.3167 2.52956 12.5047C2.89889 12.692 3.31489 12.7693 3.72689 12.726L4.67956 12.6247C4.88023 12.6033 5.08223 12.6467 5.25689 12.7473ZM7.25823 13.52L6.86889 12.6433C6.67289 12.202 6.34156 11.834 5.92289 11.592C5.50489 11.3507 5.02089 11.248 4.54023 11.2987L3.58689 11.4C3.43089 11.416 3.27423 11.3873 3.13489 11.316C2.99556 11.2453 2.87956 11.1353 2.80156 11C2.72289 10.8647 2.68556 10.7093 2.69423 10.5533C2.70223 10.3973 2.75556 10.2467 2.84756 10.1207L3.41223 9.34466C3.69623 8.95399 3.84956 8.48332 3.84889 7.99999C3.84956 7.51666 3.69623 7.04599 3.41223 6.65532L2.84756 5.87932C2.75556 5.75332 2.70223 5.60266 2.69423 5.44666C2.68556 5.29066 2.72289 5.13532 2.80156 4.99999C2.87956 4.86466 2.99556 4.75466 3.13489 4.68332C3.27423 4.61266 3.43089 4.58332 3.58623 4.59999L4.54356 4.70132C5.02356 4.75199 5.50756 4.64932 5.92623 4.40799L5.92756 4.40666C6.34489 4.16466 6.67423 3.79666 6.86956 3.35532L7.25823 2.47999C7.32223 2.33732 7.42556 2.21599 7.55689 2.13066C7.68756 2.04532 7.84089 1.99999 7.99756 1.99999C8.15356 1.99999 8.3069 2.04532 8.43823 2.13066C8.56889 2.21599 8.67289 2.33732 8.73623 2.47999L8.73689 2.48199L9.12956 3.35866C9.32356 3.79666 9.65289 4.16466 10.0696 4.40666L10.0716 4.40799C10.4902 4.64932 10.9742 4.75199 11.4542 4.70132L12.4082 4.59999C12.5636 4.58332 12.7209 4.61266 12.8602 4.68332C12.9996 4.75466 13.1156 4.86466 13.1936 4.99999C13.2716 5.13532 13.3089 5.29066 13.3009 5.44666C13.2929 5.60266 13.2389 5.75332 13.1476 5.87932L12.5829 6.65532C12.2989 7.04532 12.1456 7.51599 12.1456 7.99866C12.1436 8.48199 12.2949 8.95466 12.5782 9.34666L12.5796 9.34866L13.1442 10.124C13.2362 10.2507 13.2896 10.4007 13.2976 10.5567C13.3062 10.7133 13.2689 10.8687 13.1902 11.004C13.1122 11.1393 12.9962 11.2493 12.8569 11.32C12.7176 11.3913 12.5609 11.42 12.4056 11.404L11.4516 11.302C10.9709 11.252 10.4869 11.3547 10.0689 11.596L10.0676 11.5967C9.65156 11.8373 9.32223 12.2033 9.12623 12.6427L8.73623 13.52C8.67289 13.6627 8.56889 13.784 8.43823 13.8693C8.3069 13.9547 8.15356 14 7.99756 14C7.84089 14 7.68756 13.9547 7.55689 13.8693C7.42556 13.784 7.32223 13.6627 7.25823 13.52Z" fill="#303233"/>
</svg>
