<svg width="96" height="96" viewBox="0 0 96 96" fill="none" xmlns="http://www.w3.org/2000/svg">
<path d="M47.9991 32.0008C49.6559 32.0008 50.9991 33.344 50.9991 35.0008V53.0008C50.9991 54.6577 49.6559 56.0008 47.9991 56.0008C46.3422 56.0008 44.9991 54.6577 44.9991 53.0008V35.0008C44.9991 33.344 46.3422 32.0008 47.9991 32.0008Z" fill="#F7A308"/>
<path d="M47.9991 66.0008C46.3422 66.0008 44.9991 67.344 44.9991 69.0008C44.9991 70.6577 46.3422 72.0008 47.9991 72.0008H48.0391C49.6959 72.0008 51.0391 70.6577 51.0391 69.0008C51.0391 67.344 49.6959 66.0008 48.0391 66.0008H47.9991Z" fill="#F7A308"/>
<path fill-rule="evenodd" clip-rule="evenodd" d="M42.6025 10.0046C44.2499 9.0771 46.1086 8.58984 47.9991 8.58984C49.8897 8.58984 51.7483 9.0771 53.3957 10.0046C55.0431 10.9321 56.4236 12.2685 57.4041 13.8849L57.4128 13.8992L91.3174 70.5004C92.2779 72.1638 92.7858 74.0498 92.7911 75.9705C92.7965 77.8912 92.2989 79.7799 91.3477 81.4485C90.3966 83.1172 89.0251 84.5078 87.3697 85.4818C85.7143 86.4559 83.8327 86.9795 81.9121 87.0006L81.8791 87.001L14.0861 87.0008C12.1655 86.9797 10.2839 86.4559 8.62853 85.4818C6.97312 84.5078 5.60163 83.1172 4.65048 81.4485C3.69933 79.7799 3.2017 77.8912 3.20707 75.9705C3.21245 74.0498 3.72066 72.164 4.68114 70.5006L4.70517 70.459L38.5855 13.8992L41.1591 15.4408L38.5941 13.8849C39.5746 12.2685 40.9551 10.9321 42.6025 10.0046ZM43.7279 16.9904L43.7241 16.9967L9.86646 73.5195C9.43675 74.271 9.20948 75.1214 9.20705 75.9873C9.20461 76.8604 9.43081 77.7188 9.86314 78.4773C10.2955 79.2358 10.9189 79.8679 11.6713 80.3106C12.4196 80.7509 13.2695 80.9887 14.1374 81.0008H81.8608C82.7287 80.9887 83.5786 80.7509 84.3269 80.3106C85.0793 79.8679 85.7027 79.2358 86.1351 78.4773C86.5674 77.7188 86.7936 76.8603 86.7912 75.9873C86.7887 75.1214 86.5615 74.271 86.1318 73.5195L52.2741 16.9967L52.2703 16.9904C51.8249 16.2585 51.1988 15.6533 50.4521 15.2329C49.7033 14.8113 48.8584 14.5898 47.9991 14.5898C47.1398 14.5898 46.2949 14.8113 45.5461 15.2329C44.7994 15.6533 44.1734 16.2585 43.7279 16.9904Z" fill="#F7A308"/>
</svg>
