<?xml version="1.0" encoding="UTF-8"?>
<svg width="3300px" height="2200px" viewBox="0 0 3300 2200" version="1.1" xmlns="http://www.w3.org/2000/svg" xmlns:xlink="http://www.w3.org/1999/xlink">
    <title>Backup</title>
    <g id="Backup" stroke="none" stroke-width="1" fill="none" fill-rule="evenodd">
        <g>
            <g id="Notes">
                <rect id="artboard" fill="#FFFFFF" fill-rule="nonzero" x="0" y="0" width="3300" height="2200"></rect>
                <line x1="263" y1="292" x2="3036" y2="292" id="Path" stroke="#000000" stroke-width="0.5"></line>
                <text id="Weight/Scale-Variations" fill="#000000" fill-rule="nonzero" font-family="Helvetica-Bold, Helvetica" font-size="13" font-weight="bold">
                    <tspan x="263" y="322">Weight/Scale Variations</tspan>
                </text>
                <text id="Ultralight" fill="#000000" fill-rule="nonzero" font-family="Helvetica" font-size="13" font-weight="normal">
                    <tspan x="533.711" y="322">Ultralight</tspan>
                </text>
                <text id="Thin" fill="#000000" fill-rule="nonzero" font-family="Helvetica" font-size="13" font-weight="normal">
                    <tspan x="843.422" y="322">Thin</tspan>
                </text>
                <text id="Light" fill="#000000" fill-rule="nonzero" font-family="Helvetica" font-size="13" font-weight="normal">
                    <tspan x="1138.63" y="322">Light</tspan>
                </text>
                <text id="Regular" fill="#000000" fill-rule="nonzero" font-family="Helvetica" font-size="13" font-weight="normal">
                    <tspan x="1426.84" y="322">Regular</tspan>
                </text>
                <text id="Medium" fill="#000000" fill-rule="nonzero" font-family="Helvetica" font-size="13" font-weight="normal">
                    <tspan x="1723.06" y="322">Medium</tspan>
                </text>
                <text id="Semibold" fill="#000000" fill-rule="nonzero" font-family="Helvetica" font-size="13" font-weight="normal">
                    <tspan x="2015.77" y="322">Semibold</tspan>
                </text>
                <text id="Bold" fill="#000000" fill-rule="nonzero" font-family="Helvetica" font-size="13" font-weight="normal">
                    <tspan x="2326.48" y="322">Bold</tspan>
                </text>
                <text id="Heavy" fill="#000000" fill-rule="nonzero" font-family="Helvetica" font-size="13" font-weight="normal">
                    <tspan x="2618.19" y="322">Heavy</tspan>
                </text>
                <text id="Black" fill="#000000" fill-rule="nonzero" font-family="Helvetica" font-size="13" font-weight="normal">
                    <tspan x="2917.4" y="322">Black</tspan>
                </text>
                <line x1="263" y1="1903" x2="3036" y2="1903" id="Path" stroke="#000000" stroke-width="0.5"></line>
                <g id="Group" transform="translate(264.367190, 1918.068400)" fill="#000000" fill-rule="nonzero">
                    <path d="M7.88086,15.761678 C12.18751,15.761678 15.77151,12.18746 15.77151,7.88082 C15.77151,3.5742 12.17771,0 7.87109,0 C3.57422,0 -8.8817842e-16,3.5742 -8.8817842e-16,7.88082 C-8.8817842e-16,12.18746 3.58398,15.761678 7.88086,15.761678 Z M7.88086,14.277303 C4.33593,14.277303 1.5039,11.43551 1.5039,7.88082 C1.5039,4.3261 4.32617,1.4843 7.87109,1.4843 C11.42581,1.4843 14.26761,4.3261 14.2773352,7.88082 C14.28711,11.43551 11.43551,14.277303 7.88086,14.277303 Z M5.02929,8.61324 L7.13867,8.61324 L7.13867,10.73238 C7.13867,11.17183 7.43164,11.47457 7.86133,11.47457 C8.31054,11.47457 8.60351,11.17183 8.60351,10.73238 L8.60351,8.61324 L10.73241,8.61324 C11.17191,8.61324 11.47461,8.32027 11.47461,7.89058 C11.47461,7.45113 11.17191,7.1484 10.73241,7.1484 L8.60351,7.1484 L8.60351,5.03902 C8.60351,4.5898 8.31054,4.2871 7.86133,4.2871 C7.43164,4.2871 7.13867,4.5898 7.13867,5.03902 L7.13867,7.1484 L5.02929,7.1484 C4.58008,7.1484 4.27734,7.45113 4.27734,7.89058 C4.27734,8.32027 4.58008,8.61324 5.02929,8.61324 Z" id="Shape"></path>
                </g>
                <g id="Group" transform="translate(283.254050, 1915.988300)" fill="#000000" fill-rule="nonzero">
                    <path d="M9.96095,19.92186 C15.41015,19.92186 19.92185,15.40037 19.92185,9.96092 C19.92185,4.5117 15.40035,0 9.95115,0 C4.51172,0 8.8817842e-16,4.5117 8.8817842e-16,9.96092 C8.8817842e-16,15.40037 4.52148,19.92186 9.96095,19.92186 Z M9.96095,18.2617 C5.35156,18.2617 1.66992,14.57029 1.66992,9.96092 C1.66992,5.3515 5.34179,1.6601 9.95115,1.6601 C14.56055,1.6601 18.25195,5.3515 18.261769,9.96092 C18.27145,14.57029 14.57035,18.2617 9.96095,18.2617 Z M6.24023,10.78123 L9.13085,10.78123 L9.13085,13.69139 C9.13085,14.17967 9.46285,14.5117 9.94145,14.5117 C10.42965,14.5117 10.77145,14.17967 10.77145,13.69139 L10.77145,10.78123 L13.68165,10.78123 C14.16995,10.78123 14.50195,10.4492 14.50195,9.97068 C14.50195,9.4824 14.16995,9.14061 13.68165,9.14061 L10.77145,9.14061 L10.77145,6.25 C10.77145,5.7422 10.42965,5.4101 9.94145,5.4101 C9.46285,5.4101 9.13085,5.7519 9.13085,6.25 L9.13085,9.14061 L6.24023,9.14061 C5.73242,9.14061 5.40039,9.4824 5.40039,9.97068 C5.40039,10.4492 5.74218,10.78123 6.24023,10.78123 Z" id="Shape"></path>
                </g>
                <g id="Group" transform="translate(307.179860, 1913.224600)" fill="#000000" fill-rule="nonzero">
                    <path d="M12.71484,25.43946 C19.67774,25.43946 25.43944,19.6777438 25.43944,12.72462 C25.43944,5.7617 19.66794,0 12.70504,0 C5.75195,0 0,5.7617 0,12.72462 C0,19.6777438 5.76172,25.43946 12.71484,25.43946 Z M12.71484,23.62306 C6.67969,23.62306 1.82617,18.75978 1.82617,12.72462 C1.82617,6.6797 6.66992,1.8262 12.70504,1.8262 C18.75004,1.8262 23.60354,6.6797 23.6132548,12.72462 C23.62304,18.75978 18.75974,23.62306 12.71484,23.62306 Z M7.80274,13.63282 L11.80664,13.63282 L11.80664,17.64649 C11.80664,18.1836 12.17774,18.5547 12.69534,18.5547 C13.23244,18.5547 13.60354,18.1836 13.60354,17.64649 L13.60354,13.63282 L17.62694,13.63282 C18.15434,13.63282 18.53514,13.26173 18.53514,12.74415 C18.53514,12.20704 18.16404,11.82618 17.62694,11.82618 L13.60354,11.82618 L13.60354,7.8223 C13.60354,7.2656 13.23244,6.8945 12.69534,6.8945 C12.17774,6.8945 11.80664,7.2754 11.80664,7.8223 L11.80664,11.82618 L7.80274,11.82618 C7.24609,11.82618 6.875,12.20704 6.875,12.74415 C6.875,13.26173 7.25586,13.63282 7.80274,13.63282 Z" id="Shape"></path>
                </g>
                <text id="Design-Variations" fill="#000000" fill-rule="nonzero" font-family="Helvetica-Bold, Helvetica" font-size="13" font-weight="bold">
                    <tspan x="263" y="1953">Design Variations</tspan>
                </text>
                <text id="Symbols-are-supported-in-up-to-nine-weights-and-three-scales." fill="#000000" fill-rule="nonzero" font-family="Helvetica" font-size="13" font-weight="normal">
                    <tspan x="263" y="1971">Symbols are supported in up to nine weights and three scales.</tspan>
                </text>
                <text id="For-optimal-layout-with-text-and-other-symbols,-vertically-align" fill="#000000" fill-rule="nonzero" font-family="Helvetica" font-size="13" font-weight="normal">
                    <tspan x="263" y="1989">For optimal layout with text and other symbols, vertically align</tspan>
                </text>
                <text id="symbols-with-the-adjacent-text." fill="#000000" fill-rule="nonzero" font-family="Helvetica" font-size="13" font-weight="normal">
                    <tspan x="263" y="2007">symbols with the adjacent text.</tspan>
                </text>
                <line x1="776" y1="1919" x2="776" y2="1933" id="Path" stroke="#00AEEF" stroke-width="0.5"></line>
                <g id="Group" transform="translate(778.490230, 1918.712900)" fill="#000000" fill-rule="nonzero">
                    <path d="M0.82032,14.414053 C1.33789,14.414053 1.5918,14.2187406 1.77735,13.681631 L3.03711,10.2246 L8.79887,10.2246 L10.05857,13.681631 C10.24417,14.2187406 10.49807,14.414053 11.00587,14.414053 C11.52347,14.414053 11.85547,14.101553 11.85547,13.613272 C11.85547,13.447256 11.82617,13.300772 11.74807,13.08593 L7.16797,0.8984 C6.94336,0.293 6.54297,0 5.91797,0 C5.3125,0 4.90235,0.293 4.6875,0.8887 L0.10743,13.09569 C0.0293,13.310538 -4.4408921e-16,13.457022 -4.4408921e-16,13.623038 C-4.4408921e-16,14.111319 0.3125,14.414053 0.82032,14.414053 Z M3.51563,8.74999 L5.88868,2.1777 L5.9375,2.1777 L8.31057,8.74999 L3.51563,8.74999 Z" id="Shape"></path>
                </g>
                <line x1="792.836" y1="1919" x2="792.836" y2="1933" id="Path" stroke="#00AEEF" stroke-width="0.5"></line>
                <text id="Margins" fill="#000000" fill-rule="nonzero" font-family="Helvetica-Bold, Helvetica" font-size="13" font-weight="bold">
                    <tspan x="776" y="1953">Margins</tspan>
                </text>
                <text id="Leading-and-trailing-margins-on-the-left-and-right-side-of-each-symbol" fill="#000000" fill-rule="nonzero" font-family="Helvetica" font-size="13" font-weight="normal">
                    <tspan x="776" y="1971">Leading and trailing margins on the left and right side of each symbol</tspan>
                </text>
                <text id="can-be-adjusted-by-modifying-the-x-location-of-the-margin-guidelines." fill="#000000" fill-rule="nonzero" font-family="Helvetica" font-size="13" font-weight="normal">
                    <tspan x="776" y="1989">can be adjusted by modifying the x-location of the margin guidelines.</tspan>
                </text>
                <text id="Modifications-are-automatically-applied-proportionally-to-all" fill="#000000" fill-rule="nonzero" font-family="Helvetica" font-size="13" font-weight="normal">
                    <tspan x="776" y="2007">Modifications are automatically applied proportionally to all</tspan>
                </text>
                <text id="scales-and-weights." fill="#000000" fill-rule="nonzero" font-family="Helvetica" font-size="13" font-weight="normal">
                    <tspan x="776" y="2025">scales and weights.</tspan>
                </text>
                <g id="Group" transform="translate(1291.248126, 1914.517396)" fill="#000000" fill-rule="nonzero">
                    <path d="M0.593673634,20.347834 L2.29289363,22.056824 C3.15226363,22.925964 4.13859363,22.867374 5.06632363,21.841984 L15.2420736,10.631044 C15.5057736,10.718934 15.7791736,10.699404 16.0916736,10.640804 L17.1561736,10.445494 L17.8202736,11.119324 L17.7811736,11.675964 C17.7420736,12.174014 17.8690736,12.554874 18.3573736,13.033384 L19.1190736,13.775574 C19.5975736,14.254084 20.2127736,14.283384 20.6815736,13.814634 L23.5916736,10.894714 C24.0604736,10.425964 24.0409736,9.83026404 23.5623736,9.35174404 L22.7909736,8.59002404 C22.3123736,8.11150404 21.9413736,7.95530404 21.4627736,7.99430404 L20.8866736,8.04310404 L20.2420736,7.40840404 L20.4862736,6.28530404 C20.6131736,5.71890404 20.4569736,5.27950404 19.8709736,4.69350404 L17.6737736,2.50600404 C14.3338736,-0.814295964 9.90027363,-0.736195964 7.00968363,2.15450404 C6.58976363,2.56460404 6.56046363,3.14080404 6.79484363,3.53140404 C7.02921363,3.89280404 7.48820363,4.12710404 8.13277363,3.96110404 C9.59757363,3.61930404 11.1209736,3.56070404 12.5467736,4.49820404 L11.9608736,5.95330404 C11.7655736,6.43180404 11.7362736,6.83220404 11.8631736,7.19350404 L0.798753634,17.584166 C-0.187576366,18.5021352 -0.265706366,19.478698 0.593673634,20.347834 Z M8.50387363,2.52560404 C10.9354736,0.748204036 14.2264736,1.05100404 16.4530736,3.27750404 L18.8846736,5.68960404 C19.1190736,5.92400404 19.1580736,6.10960404 19.0897736,6.45140404 L18.7674736,7.93570404 L20.2713736,9.42010404 L21.2577736,9.36151404 C21.5116736,9.35174404 21.5897736,9.37127404 21.7850736,9.56658404 L22.3612736,10.142764 L19.9198736,12.584164 L19.3436736,12.007994 C19.1483736,11.812684 19.1190736,11.734554 19.1288736,11.470884 L19.1971736,10.494324 L17.7030736,9.00994404 L16.1795736,9.26385404 C15.8573736,9.33221404 15.7108736,9.30291404 15.4666736,9.06854404 L13.4647736,7.06660404 C13.2108736,6.83220404 13.1815736,6.66620404 13.3377736,6.29510404 L14.2166736,4.20530404 C12.6541736,2.75020404 10.6229736,2.12520404 8.59167363,2.72090404 C8.43547363,2.75990404 8.37687363,2.63300404 8.50387363,2.52560404 Z M3.02531363,20.787304 L1.85343363,19.625184 C1.38468363,19.166198 1.49210363,18.824401 1.89249363,18.4630728 L12.7030736,8.28730404 L14.1678736,9.77166404 L4.17765363,20.757994 C3.82609363,21.158384 3.49406363,21.256044 3.02531363,20.787304 Z" id="Shape"></path>
                </g>
                <text id="Exporting" fill="#000000" fill-rule="nonzero" font-family="Helvetica-Bold, Helvetica" font-size="13" font-weight="bold">
                    <tspan x="1289" y="1953">Exporting</tspan>
                </text>
                <text id="Symbols-should-be-outlined-when-exporting-to-ensure-the" fill="#000000" fill-rule="nonzero" font-family="Helvetica" font-size="13" font-weight="normal">
                    <tspan x="1289" y="1971">Symbols should be outlined when exporting to ensure the</tspan>
                </text>
                <text id="design-is-preserved-when-submitting-to-Xcode." fill="#000000" fill-rule="nonzero" font-family="Helvetica" font-size="13" font-weight="normal">
                    <tspan x="1289" y="1989">design is preserved when submitting to Xcode.</tspan>
                </text>
                <text id="template-version" fill="#000000" fill-rule="nonzero" font-family="Helvetica" font-size="13" font-weight="normal">
                    <tspan x="2952" y="1933">Template v.2.0</tspan>
                </text>
                <text id="Requires-Xcode-12-or-greater" fill="#000000" fill-rule="nonzero" font-family="Helvetica" font-size="13" font-weight="normal">
                    <tspan x="2865" y="1951">Requires Xcode 12 or greater</tspan>
                </text>
                <text id="Generated-from-person.crop.circle" fill="#000000" fill-rule="nonzero" font-family="Helvetica" font-size="13" font-weight="normal">
                    <tspan x="2838" y="1969">Generated from person.crop.circle</tspan>
                </text>
                <text id="Typeset-at-100-points" fill="#000000" fill-rule="nonzero" font-family="Helvetica" font-size="13" font-weight="normal">
                    <tspan x="2912" y="1987">Typeset at 100 points</tspan>
                </text>
                <text id="Small" fill="#000000" fill-rule="nonzero" font-family="Helvetica" font-size="13" font-weight="normal">
                    <tspan x="263" y="726">Small</tspan>
                </text>
                <text id="Medium" fill="#000000" fill-rule="nonzero" font-family="Helvetica" font-size="13" font-weight="normal">
                    <tspan x="263" y="1156">Medium</tspan>
                </text>
                <text id="Large" fill="#000000" fill-rule="nonzero" font-family="Helvetica" font-size="13" font-weight="normal">
                    <tspan x="263" y="1586">Large</tspan>
                </text>
            </g>
            <g id="Guides" transform="translate(264.000000, 625.041000)">
                <g id="H-reference" transform="translate(76.976562, 0.500000)" fill="#27AAE1" fill-rule="nonzero">
                    <path d="M-1.22124533e-15,70.459 L2.685548,70.459 L12.011738,45.9961 L44.775438,45.9961 L54.150438,70.459 L56.787138,70.459 L29.638638,0 L27.148438,0 L-1.22124533e-15,70.459 Z M28.369138,3.3203 L28.466838,3.3203 L43.896438,43.75 L12.890638,43.75 L28.369138,3.3203 Z" id="Shape"></path>
                </g>
                <line x1="0" y1="70.959" x2="2773" y2="70.959" id="Baseline-S" stroke="#27AAE1" stroke-width="0.5"></line>
                <line x1="0" y1="0.5" x2="2773" y2="0.5" id="Capline-S" stroke="#27AAE1" stroke-width="0.5"></line>
                <g id="H-reference" transform="translate(76.976562, 430.500000)" fill="#27AAE1" fill-rule="nonzero">
                    <path d="M-1.22124533e-15,70.459 L2.685548,70.459 L12.011738,45.9961 L44.775438,45.9961 L54.150438,70.459 L56.787138,70.459 L29.638638,0 L27.148438,0 L-1.22124533e-15,70.459 Z M28.369138,3.3203 L28.466838,3.3203 L43.896438,43.75 L12.890638,43.75 L28.369138,3.3203 Z" id="Shape"></path>
                </g>
                <line x1="0" y1="500.959" x2="2773" y2="500.959" id="Baseline-M" stroke="#27AAE1" stroke-width="0.5"></line>
                <line x1="0" y1="430.499" x2="2773" y2="430.499" id="Capline-M" stroke="#27AAE1" stroke-width="0.5"></line>
                <g id="H-reference" transform="translate(76.976562, 860.500000)" fill="#27AAE1" fill-rule="nonzero">
                    <path d="M-1.22124533e-15,70.459 L2.685548,70.459 L12.011738,45.9961 L44.775438,45.9961 L54.150438,70.459 L56.787138,70.459 L29.638638,0 L27.148438,0 L-1.22124533e-15,70.459 Z M28.369138,3.3203 L28.466838,3.3203 L43.896438,43.75 L12.890638,43.75 L28.369138,3.3203 Z" id="Shape"></path>
                </g>
                <line x1="0" y1="930.959" x2="2773" y2="930.959" id="Baseline-L" stroke="#27AAE1" stroke-width="0.5"></line>
                <line x1="0" y1="860.499" x2="2773" y2="860.499" id="Capline-L" stroke="#27AAE1" stroke-width="0.5"></line>
                <line x1="1128.3" y1="405.749" x2="1128.3" y2="525.079" id="left-margin" stroke="#00AEEF" stroke-width="0.5"></line>
                <line x1="1245.39" y1="405.749" x2="1245.39" y2="525.079" id="right-margin" stroke="#00AEEF" stroke-width="0.5"></line>
            </g>
            <g id="Symbols" transform="translate(1380.190000, 624.387473)" fill="#000000" fill-rule="nonzero">
                <g id="Semibold-L" transform="translate(592.000000, 837.689298)">
                    <path d="M76.8223951,0 C86.130835,0 94.6478267,3.38831787 101.20763,8.998543 C107.641523,14.501084 112.191778,22.1415869 113.760458,30.8178255 C121.66458,32.3063499 128.618542,36.4906096 133.629238,42.3805567 C138.752598,48.4029372 141.844878,56.2076558 141.844878,64.7346805 C141.844878,74.0145381 138.182614,82.4390078 132.224628,88.6417332 C126.37199,94.7347835 118.303965,98.6835891 109.316047,99.1938277 L108.701824,99.2232731 L107.052022,99.2500749 L76.6635569,99.2496672 L76.6637386,123.662289 C76.6637386,125.211939 76.0477443,126.62163 75.0410355,127.664919 C74.0362879,128.706176 72.641681,129.381369 71.0871706,129.461428 C69.3473697,129.466963 67.8888675,128.875688 66.8180097,127.929598 C65.7539767,126.989538 65.0667306,125.695811 64.9195072,124.247571 L64.8962845,123.934942 L64.8892208,99.2496672 L34.5153943,99.2500748 C24.9842313,99.2500748 16.3553827,95.3868077 10.1093249,89.1407499 C3.86326709,82.8946921 0,74.2658435 0,64.7346805 C0,56.9185516 2.59828685,49.7093716 6.97769168,43.9232561 C11.2612554,38.2637668 17.2496327,33.966541 24.1777867,31.7943531 C24.175429,26.1347154 26.3474917,21.2832776 29.8592419,17.7715274 C33.3709922,14.2597772 38.2224299,12.0877145 43.5811801,12.0877145 C45.3286227,12.0877145 47.022073,12.3189034 48.6336123,12.752046 C55.5068346,4.93492062 65.5883284,0 76.8223951,0 Z M76.8075816,11.6141487 C69.0517335,11.6184974 61.8727199,15.0379511 56.9788545,20.8593511 C55.7491203,22.322157 54.1720853,23.3805942 52.4415225,23.9785041 C50.6886856,24.5841097 48.7783288,24.717075 46.9117673,24.3193292 L46.9117673,24.3193292 L45.9699352,24.0719355 L45.5862229,23.9596366 C44.9413906,23.7890848 44.2705065,23.7018591 43.5811801,23.7018591 C41.4136501,23.7018591 39.4528262,24.5887664 38.0458404,26.0769722 C36.6558284,27.5472243 35.8107699,29.5974135 35.8070912,31.9473444 C35.993179,34.393129 35.306949,36.7360601 33.9847576,38.6365449 C32.6531383,40.5505812 30.6764558,42.0158389 28.2961743,42.6852433 C23.3858976,44.0661561 19.2037602,47.0129863 16.2549213,50.9103392 C13.326213,54.7810863 11.6141445,59.5898051 11.6141445,64.7346805 C11.6141445,70.8515964 14.0122805,76.4084224 17.9197586,80.5161347 C21.843365,84.6408017 27.2886248,87.3048344 33.3559073,87.6071159 L33.3559073,87.6071159 L34.5310052,87.6359303 L64.8889041,87.6359303 L64.8897634,64.7514157 L58.7864735,70.7490424 L58.5515818,70.968313 C57.4338827,71.9563116 56.0194832,72.4486666 54.5112539,72.3636919 C53.0801886,72.2830646 51.5449941,71.6743028 50.0811875,70.3592136 C48.952419,69.2499868 48.3757101,67.8038116 48.3757101,66.3172896 C48.3757101,64.8808063 48.9161273,63.3970966 50.0569206,62.155923 L50.0569206,62.155923 L70.776808,41.7947486 L91.4724285,62.1320761 L91.6974755,62.3655152 C92.7111728,63.4761316 93.2117829,64.8791896 93.1247116,66.3715828 C93.0421784,67.786192 92.4218789,69.30478 91.0768947,70.7478983 C89.9565187,71.8517007 88.4967586,72.4191948 86.9943442,72.4191948 C85.5424789,72.4191948 84.0446344,71.8877152 82.790819,70.7723089 L82.790819,70.7723089 L76.6637172,64.7512826 L76.6635563,87.6359303 L107.329501,87.6359303 L107.885921,87.6293031 C113.988905,87.4837797 119.500694,84.9507291 123.523113,80.9283095 C127.667424,76.7839985 130.230734,71.058686 130.230734,64.7346805 C130.230734,59.1071522 128.186166,53.9086621 124.770936,49.8917562 C121.340251,45.8566716 116.526364,43.0133536 111.011452,42.1267088 C108.964392,41.7975983 107.123235,40.8757069 105.667406,39.5415051 C104.194171,38.191351 103.115745,36.418842 102.617677,34.4111383 L102.617677,34.4111383 L102.440109,33.5358322 L102.342862,32.9505746 C101.305638,27.1215801 98.3336794,22.0071701 94.1423502,18.2478711 C89.8213107,14.372232 84.2039027,11.9365049 78.0720716,11.6439048 L78.0720716,11.6439048 L76.8075816,11.6141487 Z" id="Combined-Shape"></path>
                </g>
                <g id="Regular-L" transform="translate(0.000000, 838.629100)">
                    <path d="M75.6687067,0 C93.8138791,0 108.851319,13.3057829 111.556212,30.6925337 C127.406993,33.2408997 139.518682,46.9868884 139.518682,63.5617137 C139.518682,81.5011244 125.330618,96.1267352 107.563528,96.8295078 L105.936189,96.8559446 L74.233,96.855 L74.2335857,122.583305 C74.2335857,125.017848 72.2803624,127.006815 69.830861,127.118483 L69.6134777,127.123427 C67.063178,127.123427 64.9933696,125.089452 64.9933696,122.583305 L64.9933696,122.583305 L64.993,96.855 L33.294231,96.8559446 C14.9063349,96.8559446 0,81.9496097 0,63.5617137 C0,48.3045061 10.2625883,35.4442544 24.2613203,31.5074034 C24.2279857,31.0965755 24.2139862,30.683664 24.2139862,30.2674827 C24.2139862,20.2377212 32.3447143,12.1069931 42.3744758,12.1069931 C44.2886378,12.1069931 46.1336313,12.4031389 47.8661381,12.9521124 C54.5225642,5.03409331 64.5077477,0 75.6687067,0 Z M75.6687067,9.08024481 C67.5127613,9.08024481 59.9625032,12.674015 54.8166381,18.7951762 C52.6492951,21.3732959 49.2535307,22.5211819 46.004687,21.8397076 L45.1233148,21.608195 C44.2470137,21.3305245 43.3258917,21.1872379 42.3744758,21.1872379 C37.359595,21.1872379 33.294231,25.252602 33.294231,30.2674827 L33.311821,30.7730451 C33.6630384,35.1015772 30.9001697,39.0728556 26.7195872,40.2485571 C16.3714895,43.1587435 9.08024481,52.6444326 9.08024481,63.5617137 C9.08024481,76.5294861 19.2741421,87.1163462 32.0857088,87.7460661 L33.294231,87.7756998 L64.993,87.775 L64.9933696,60.5349654 L56.7095159,68.6754049 C54.9076738,70.4505927 51.9831454,70.4505927 50.1766832,68.6754049 L50.1766832,68.6754049 L49.7793539,68.2849543 C47.9775118,66.5143066 47.9775118,63.6404091 49.7793539,61.8652213 L49.7793539,61.8652213 L69.6134777,42.3744758 L89.4476014,61.8652213 C91.2540636,63.6404091 91.2540636,66.5143066 89.4476014,68.2849543 L89.4476014,68.2849543 L89.0502721,68.6754049 C87.24843,70.4505927 84.3239016,70.4505927 82.5174394,68.6754049 L82.5174394,68.6754049 L74.2335857,60.5349654 L74.233,87.775 L106.224451,87.7756998 C119.597466,87.7756998 130.438437,76.9347289 130.438437,63.5617137 C130.438437,51.6336865 121.751158,41.5284462 110.11487,39.6576537 C106.507091,39.0776229 103.627526,36.4009907 102.750226,32.9082877 L102.583896,32.0883758 C100.602371,19.3513572 89.8651805,9.71895535 76.9656259,9.110764 L75.6687067,9.08024481 Z" id="Combined-Shape"></path>
                </g>
                <g id="Semibold-M" transform="translate(607.000000, 419.612527)">
                    <path d="M60.2916667,0 C67.5971062,0 74.2814021,2.65921586 79.4296597,7.06222651 C84.4791003,11.3807246 88.0502266,17.3771356 89.2813559,24.1864116 C95.4846607,25.3546336 100.942261,28.6385197 104.87475,33.2610614 C108.89566,37.9875393 111.32254,44.11283 111.32254,50.805 C111.32254,58.0880075 108.448326,64.6996905 103.772386,69.5677065 C99.1791248,74.3496474 92.8471862,77.4487446 85.7932986,77.8491895 L85.3112449,77.8722989 L84.0164488,77.8933334 L60.1670074,77.8930134 L60.16715,97.0525 C60.16715,98.2686945 59.6837061,99.3750469 58.8936221,100.19384 C58.1050771,101.011038 57.0105633,101.540942 55.7905542,101.603774 C54.4251256,101.608118 53.2804655,101.144074 52.4400361,100.401565 C51.6049628,99.6637882 51.0655991,98.6484465 50.9500555,97.5118405 L50.9318298,97.266483 L50.9262861,77.8930134 L27.0883333,77.8933333 C19.6080966,77.8933333 12.8360133,74.8613683 7.93398914,69.9593442 C3.03196498,65.05732 0,58.2852367 0,50.805 C0,44.6707544 2.0391846,39.0128537 5.47622423,34.471801 C8.83804596,30.0301269 13.5378376,26.6575829 18.9751837,24.9528088 C18.9733333,20.5110183 20.6780091,16.7035183 23.4340971,13.9474304 C26.190185,11.1913425 29.997685,9.48666667 34.2033333,9.48666667 C35.5747592,9.48666667 36.903811,9.6681081 38.1685775,10.0080466 C43.5628122,3.87301891 51.474959,0 60.2916667,0 Z M60.2800408,9.11500326 C54.1931047,9.11841621 48.5588792,11.8020681 44.7180813,16.3708127 C43.7529626,17.5188504 42.5152757,18.3495319 41.1570973,18.8187829 C39.7814379,19.2940736 38.2821538,19.3984273 36.817241,19.0862689 L36.817241,19.0862689 L36.0780735,18.8921097 L35.7769288,18.8039753 C35.2708522,18.6701231 34.7443297,18.6016667 34.2033333,18.6016667 C32.5022148,18.6016667 30.9633232,19.2977283 29.8590942,20.4657003 C28.7681865,21.6195819 28.1049686,23.2286092 28.1020815,25.0728793 C28.2481267,26.9923773 27.7095604,28.8311539 26.6718797,30.3226902 C25.6267997,31.824862 24.0754619,32.9748239 22.2073721,33.5001852 C18.3536941,34.5839516 15.0714737,36.8966796 12.7571692,39.9553958 C10.4586637,42.9932312 9.115,46.7672046 9.115,50.805 C9.115,55.6056711 10.9971024,59.9667731 14.0637651,63.1905833 C17.1430854,66.4276999 21.4166281,68.5184831 26.178346,68.7557193 L26.178346,68.7557193 L27.1005851,68.7783333 L50.9260375,68.7783333 L50.926712,50.8181341 L46.1367348,55.5251848 L45.9523873,55.6972725 C45.0751959,56.4726725 43.9651485,56.859082 42.7814617,56.7923922 C41.6583346,56.7291144 40.4534849,56.2513466 39.3046619,55.2192398 C38.418783,54.3486976 37.966171,53.213712 37.966171,52.0470615 C37.966171,50.9196823 38.3903006,49.7552389 39.2856167,48.7811424 L39.2856167,48.7811424 L55.5469758,32.8013081 L71.7892896,48.7624269 L71.9659108,48.9456343 C72.7614795,49.817267 73.1543678,50.9184134 73.0860326,52.0896718 C73.021259,53.1998838 72.5344362,54.3917003 71.4788672,55.5242869 C70.599575,56.3905719 69.4539276,56.8359519 68.2748044,56.8359519 C67.1353532,56.8359519 65.9598165,56.4188367 64.9757985,55.5434448 L64.9757985,55.5434448 L60.1671333,50.8180296 L60.167007,68.7783333 L84.2342196,68.7783333 L84.6709088,68.7731322 C89.4606457,68.6589227 93.7864014,66.6709367 96.9432722,63.5140659 C100.195806,60.2615323 102.20754,55.768199 102.20754,50.805 C102.20754,46.3884094 100.602924,42.3085363 97.9225873,39.1559927 C95.2301205,35.989182 91.4520912,33.7576923 87.1238846,33.0618367 C85.5173133,32.8035446 84.0723379,32.0800268 82.9297761,31.0329201 C81.7735532,29.9732936 80.9271844,28.582195 80.5362914,27.0065113 L80.5362914,27.0065113 L80.3969325,26.3195546 L80.3206113,25.8602333 C79.506578,21.2855283 77.1741289,17.2716427 73.8846946,14.3212739 C70.4934612,11.2795991 66.0848133,9.36799449 61.2724364,9.13835638 L61.2724364,9.13835638 L60.2800408,9.11500326 Z" id="Combined-Shape"></path>
                </g>
                <g id="Regular-M" transform="translate(15.000000, 420.612527)">
                    <path d="M59.2916667,0 C73.5096646,0 85.2925394,10.4260015 87.4120102,24.0497236 C99.8321934,26.0465446 109.32254,36.8174777 109.32254,49.805 C109.32254,63.8617694 98.2052098,75.3219473 84.2834656,75.8726182 L83.0083333,75.8933333 L58.167,75.893 L58.16715,96.0525 C58.16715,97.9528935 56.648259,99.5067918 54.739146,99.6050658 L54.5469758,99.61 C52.5486396,99.61 50.9268015,98.01624 50.9268015,96.0525 L50.9268015,96.0525 L50.926,75.893 L26.0883333,75.8933333 C11.6801447,75.8933333 0,64.2131886 0,49.805 C0,37.8499223 8.04144794,27.7730255 19.0104229,24.6882303 C18.9843029,24.3663182 18.9733333,24.0427735 18.9733333,23.7166667 C18.9733333,15.8576547 25.3443213,9.48666667 33.2033333,9.48666667 C34.7032117,9.48666667 36.1488918,9.71871742 37.5064307,10.1488761 C42.7222011,3.94456038 50.5462832,0 59.2916667,0 Z M59.2916667,7.115 C52.9009192,7.115 46.9847696,9.93096753 42.9526283,14.7273208 C41.2543651,16.747456 38.5935488,17.6469041 36.047855,17.1129218 L35.3572389,16.9315157 C34.6705963,16.7139416 33.9488335,16.6016667 33.2033333,16.6016667 C29.2738273,16.6016667 26.0883333,19.7871607 26.0883333,23.7166667 L26.1021164,24.1128098 C26.3773195,27.5045142 24.2124207,30.6162855 20.9366451,31.537529 C12.8281947,33.8178614 7.115,41.250555 7.115,49.805 C7.115,59.9661468 15.1026238,68.2616841 25.1413726,68.7551133 L26.0883333,68.7783333 L50.926,68.778 L50.9268015,47.4333333 L44.435829,53.8119308 C43.0239611,55.2029133 40.7323908,55.2029133 39.3169026,53.8119308 L39.3169026,53.8119308 L39.0055676,53.5059858 C37.5936997,52.1185608 37.5936997,49.8666633 39.0055676,48.4756808 L39.0055676,48.4756808 L54.5469758,33.2033333 L70.0883839,48.4756808 C71.503872,49.8666633 71.503872,52.1185608 70.0883839,53.5059858 L70.0883839,53.5059858 L69.7770489,53.8119308 C68.3651809,55.2029133 66.0736106,55.2029133 64.6581225,53.8119308 L64.6581225,53.8119308 L58.16715,47.4333333 L58.167,68.778 L83.2342063,68.7783333 C93.712889,68.7783333 102.20754,60.2836827 102.20754,49.805 C102.20754,40.4585655 95.4004551,32.5404106 86.2826185,31.0745153 C83.455674,30.620021 81.1993359,28.5226945 80.5119108,25.7859201 L80.3815792,25.1434624 C78.8289176,15.1631271 70.415586,7.6154739 60.3078925,7.1389139 L59.2916667,7.115 Z" id="Combined-Shape"></path>
                </g>
                <g id="Semibold-S" transform="translate(619.000000, 0.124227)">
                    <path d="M47.5420913,0 C53.3026863,0 58.5734878,2.09688486 62.6330692,5.568813 C66.61473,8.97410003 69.4306882,13.7024802 70.4014768,19.0718328 C75.293,19.9930168 79.5965093,22.582476 82.6974145,26.2275121 C85.8680425,29.9545055 87.7817224,34.7845118 87.7817224,40.0615223 C87.7817224,45.8044288 85.5153039,51.0179725 81.8281615,54.8565736 C78.2062143,58.6273016 73.213259,61.0710483 67.6510214,61.3868132 L67.2709052,61.4050357 L66.2499131,61.4216222 L47.4437931,61.4213698 L47.4439056,76.5292962 C47.4439056,77.4883081 47.0626931,78.3607058 46.4396842,79.0063527 C45.8178888,79.6507419 44.9548264,80.0685899 43.9928064,80.1181353 C42.9161181,80.1215606 42.0135136,79.7556455 41.3508055,79.1701512 C40.692321,78.5883884 40.2670138,77.7877559 40.1759036,76.8915023 L40.1615321,76.6980293 L40.1571606,61.4213698 L21.3600998,61.4216221 C15.4616711,61.4216221 10.1216462,59.0308115 6.25622838,55.1653937 C2.39081061,51.2999759 0,45.959951 0,40.0615223 C0,35.2244548 1.60796849,30.7630018 4.31819465,27.1822227 C6.96910886,23.6798071 10.6750592,21.020438 14.9625971,19.6761639 C14.961138,16.1736565 16.3053346,13.1713093 18.4786065,10.9980375 C20.6518783,8.8247656 23.6542255,7.480569 26.9705265,7.480569 C28.0519439,7.480569 29.0999478,7.62364192 30.0972605,7.89169534 C34.3508035,3.05401109 40.5898084,0 47.5420913,0 Z M47.5329239,7.18749939 C42.7331616,7.19019062 38.2903774,9.30634411 35.2617736,12.9089593 C34.5007437,13.8142273 33.5247843,14.4692487 32.4538131,14.8392696 C31.3690574,15.2140529 30.1868193,15.2963395 29.0316843,15.0501916 L29.0316843,15.0501916 L28.4488248,14.8970903 L28.2113617,14.8275933 C27.8123026,14.7220461 27.3971211,14.6680658 26.9705265,14.6680658 C25.629135,14.6680658 24.4156651,15.2169348 23.5449418,16.1379216 C22.6847229,17.0477977 22.1617523,18.3165721 22.1594757,19.7708437 C22.2746375,21.2844351 21.8499591,22.7343748 21.0317115,23.9105035 C20.2076293,25.0950186 18.9843452,26.0018038 17.5112909,26.4160696 C14.4725308,27.2706574 11.884385,29.0943244 10.0594749,31.5062293 C8.24702271,33.901669 7.18749682,36.8775791 7.18749682,40.0615223 C7.18749682,43.8470197 8.67160048,47.2859013 11.0897714,49.8279886 C13.5179234,52.3805685 16.8877616,54.0292242 20.6425429,54.2162933 L20.6425429,54.2162933 L21.3697607,54.2341253 L40.1569646,54.2341253 L40.1574964,40.071879 L36.3804316,43.7835533 L36.2350672,43.9192505 C35.5433711,44.5306806 34.6680598,44.835378 33.7346812,44.7827908 C32.8490562,44.732894 31.89899,44.3561574 30.9931028,43.542305 C30.2945563,42.855852 29.9376558,41.9608761 29.9376558,41.0409313 C29.9376558,40.1519533 30.2720969,39.2337489 30.9780851,38.4656396 L30.9780851,38.4656396 L43.8007363,25.8649805 L56.6083698,38.4508819 L56.7476417,38.5953473 C57.3749756,39.2826603 57.6847817,40.1509527 57.630897,41.074531 C57.5798208,41.9499721 57.195944,42.8897612 56.3635908,43.7828453 C55.6702381,44.4659414 54.766855,44.8171392 53.8370751,44.8171392 C52.9385778,44.8171392 52.011626,44.4882292 51.2356933,43.797952 L51.2356933,43.797952 L47.4438924,40.0717966 L47.4437928,54.2341253 L66.4216331,54.2341253 L66.7659778,54.230024 C70.5428531,54.1399658 73.953863,52.5723692 76.4431663,50.083066 C79.0079029,47.5183293 80.5942256,43.9751785 80.5942256,40.0615223 C80.5942256,36.5788859 79.32893,33.361763 77.2153905,30.8758719 C75.0922861,28.3787308 72.1131776,26.619123 68.7002351,26.0704165 C67.4333974,25.8667441 66.2939836,25.296225 65.3930336,24.4705446 C64.4813114,23.634992 63.8139199,22.5380621 63.5056871,21.2955803 L63.5056871,21.2955803 L63.3957977,20.7538908 L63.3356158,20.3916999 C62.693722,16.7843848 60.8545042,13.6192954 58.26067,11.2928262 C55.5865637,8.89435906 52.1101903,7.38699184 48.3154626,7.20591414 L48.3154626,7.20591414 L47.5329239,7.18749939 Z" id="Combined-Shape"></path>
                </g>
                <g id="Regular-S" transform="translate(26.000000, 0.000000)">
                    <path d="M46.9122187,0 C58.1616549,0 67.4843951,8.24916701 69.1613437,19.0284057 C78.9883292,20.6083125 86.4971955,29.1303932 86.4971955,39.4062637 C86.4971955,50.5281342 77.7010419,59.595553 66.6860048,60.0312499 L65.6771061,60.0476399 L46.022,60.047 L46.0224887,75.9977942 C46.0224887,77.4939812 44.8325654,78.7187183 43.3325695,78.8073872 L43.158167,78.8125273 C41.5770615,78.8125273 40.2938454,77.5515269 40.2938454,75.9977942 L40.2938454,75.9977942 L40.293,60.047 L20.6413762,60.0476399 C9.24145891,60.0476399 0,50.806181 0,39.4062637 C0,29.9472748 6.36248204,21.9743231 15.0412556,19.5335993 C15.0205892,19.2788989 15.01191,19.0229068 15.01191,18.7648875 C15.01191,12.5467508 20.0527057,7.50595498 26.2708424,7.50595498 C27.4575627,7.50595498 28.6014007,7.6895561 29.6755004,8.02990239 C33.8022753,3.12097955 39.9927751,0 46.9122187,0 Z M46.9122187,5.62946624 C41.855789,5.62946624 37.1748664,7.85749072 33.9845918,11.6524182 C32.6409073,13.2507714 30.5356402,13.9624246 28.5214593,13.5399319 L27.9750362,13.3964014 C27.4317571,13.2242544 26.8606904,13.1354212 26.2708424,13.1354212 C23.1617741,13.1354212 20.6413762,15.6558191 20.6413762,18.7648875 L20.6522815,19.0783203 C20.8700252,21.7618741 19.1571335,24.2239418 16.5653039,24.9528398 C10.1498087,26.7570638 5.62946624,32.6378927 5.62946624,39.4062637 C5.62946624,47.4458748 11.949362,54.0093951 19.8921305,54.3998017 L20.6413762,54.4181736 L40.293,54.418 L40.2938454,37.5297749 L35.1581166,42.5765914 C34.0410311,43.6771521 32.2279155,43.6771521 31.1079657,42.5765914 L31.1079657,42.5765914 L30.861634,42.3345244 C29.7445486,41.2367784 29.7445486,39.4550524 30.861634,38.3544917 L30.861634,38.3544917 L43.158167,26.2708424 L55.4547001,38.3544917 C56.5746498,39.4550524 56.5746498,41.2367784 55.4547001,42.3345244 L55.4547001,42.3345244 L55.2083684,42.5765914 C54.0912829,43.6771521 52.2781673,43.6771521 51.1582175,42.5765914 L51.1582175,42.5765914 L46.0224887,37.5297749 L46.022,54.418 L65.8558193,54.4181736 C74.1466683,54.4181736 80.8677293,47.6971126 80.8677293,39.4062637 C80.8677293,32.0112619 75.4818892,25.7463307 68.2677565,24.5864982 C66.031047,24.2268973 64.2458074,22.5674696 63.7019092,20.4021036 L63.5987893,19.8937839 C62.3703065,11.9972329 55.713586,6.02544669 47.7162677,5.64838718 L46.9122187,5.62946624 Z" id="Combined-Shape"></path>
                </g>
            </g>
        </g>
    </g>
</svg>