<svg width="24" height="24" viewBox="0 0 24 24" fill="none" xmlns="http://www.w3.org/2000/svg">
<path d="M8 7C8.41421 7 8.75 7.33579 8.75 7.75V14.1893L10.4697 12.4697C10.7626 12.1768 11.2374 12.1768 11.5303 12.4697C11.8232 12.7626 11.8232 13.2374 11.5303 13.5303L8.53033 16.5303C8.23744 16.8232 7.76256 16.8232 7.46967 16.5303L4.46967 13.5303C4.17678 13.2374 4.17678 12.7626 4.46967 12.4697C4.76256 12.1768 5.23744 12.1768 5.53033 12.4697L7.25 14.1893V7.75C7.25 7.33579 7.58579 7 8 7Z" fill="#303233"/>
<path d="M16.5303 7.46967C16.4584 7.39776 16.3755 7.34351 16.2871 7.30691C16.1987 7.27024 16.1017 7.25 16 7.25C15.8983 7.25 15.8013 7.27024 15.7129 7.30691C15.6245 7.34351 15.5416 7.39776 15.4697 7.46967L12.4697 10.4697C12.1768 10.7626 12.1768 11.2374 12.4697 11.5303C12.7626 11.8232 13.2374 11.8232 13.5303 11.5303L15.25 9.81066V16C15.25 16.4142 15.5858 16.75 16 16.75C16.4142 16.75 16.75 16.4142 16.75 16V9.81066L18.4697 11.5303C18.7626 11.8232 19.2374 11.8232 19.5303 11.5303C19.8232 11.2374 19.8232 10.7626 19.5303 10.4697L16.5303 7.46967Z" fill="#303233"/>
<path fill-rule="evenodd" clip-rule="evenodd" d="M12 1.25C6.06294 1.25 1.25 6.06294 1.25 12C1.25 17.9371 6.06294 22.75 12 22.75C17.9371 22.75 22.75 17.9371 22.75 12C22.75 6.06294 17.9371 1.25 12 1.25ZM2.75 12C2.75 6.89137 6.89137 2.75 12 2.75C17.1086 2.75 21.25 6.89137 21.25 12C21.25 17.1086 17.1086 21.25 12 21.25C6.89137 21.25 2.75 17.1086 2.75 12Z" fill="#303233"/>
</svg>
