<svg width="16" height="16" viewBox="0 0 16 16" fill="none" xmlns="http://www.w3.org/2000/svg">
<path fill-rule="evenodd" clip-rule="evenodd" d="M2.25 8C2.25 4.82436 4.82436 2.25 8 2.25C11.1756 2.25 13.75 4.82436 13.75 8C13.75 11.1756 11.1756 13.75 8 13.75C4.82436 13.75 2.25 11.1756 2.25 8ZM8 0.75C3.99594 0.75 0.75 3.99594 0.75 8C0.75 12.0041 3.99594 15.25 8 15.25C12.0041 15.25 15.25 12.0041 15.25 8C15.25 3.99594 12.0041 0.75 8 0.75ZM11.197 6.53033C11.4899 6.23744 11.4899 5.76256 11.197 5.46967C10.9041 5.17678 10.4293 5.17678 10.1364 5.46967L7.00004 8.60601L5.8637 7.46967C5.57081 7.17678 5.09594 7.17678 4.80304 7.46967C4.51015 7.76256 4.51015 8.23744 4.80304 8.53033L6.46971 10.197C6.61036 10.3376 6.80113 10.4167 7.00004 10.4167C7.19895 10.4167 7.38972 10.3376 7.53037 10.197L11.197 6.53033Z" fill="#007C3E"/>
</svg>
