<svg width="48" height="48" viewBox="0 0 48 48" fill="none" xmlns="http://www.w3.org/2000/svg">
<path d="M31.5607 16.4393C32.1464 17.0251 32.1464 17.9749 31.5607 18.5607L26.1213 24L31.5607 29.4393C32.1464 30.0251 32.1464 30.9749 31.5607 31.5607C30.9749 32.1464 30.0251 32.1464 29.4393 31.5607L24 26.1213L18.5607 31.5607C17.9749 32.1464 17.0251 32.1464 16.4393 31.5607C15.8536 30.9749 15.8536 30.0251 16.4393 29.4393L21.8787 24L16.4393 18.5607C15.8536 17.9749 15.8536 17.0251 16.4393 16.4393C17.0251 15.8536 17.9749 15.8536 18.5607 16.4393L24 21.8787L29.4393 16.4393C30.0251 15.8536 30.9749 15.8536 31.5607 16.4393Z" fill="#E31B57"/>
<path fill-rule="evenodd" clip-rule="evenodd" d="M2.5 24C2.5 12.1259 12.1259 2.5 24 2.5C35.8741 2.5 45.5 12.1259 45.5 24C45.5 35.8741 35.8741 45.5 24 45.5C12.1259 45.5 2.5 35.8741 2.5 24ZM24 5.5C13.7827 5.5 5.5 13.7827 5.5 24C5.5 34.2173 13.7827 42.5 24 42.5C34.2173 42.5 42.5 34.2173 42.5 24C42.5 13.7827 34.2173 5.5 24 5.5Z" fill="#E31B57"/>
</svg>
