<svg width="48" height="48" viewBox="0 0 48 48" fill="none" xmlns="http://www.w3.org/2000/svg">
<path d="M24.0005 16C24.8289 16 25.5005 16.6716 25.5005 17.5V26.5C25.5005 27.3284 24.8289 28 24.0005 28C23.1721 28 22.5005 27.3284 22.5005 26.5V17.5C22.5005 16.6716 23.1721 16 24.0005 16Z" fill="#F7A308"/>
<path d="M24.0005 33C23.1721 33 22.5005 33.6716 22.5005 34.5C22.5005 35.3284 23.1721 36 24.0005 36H24.0205C24.8489 36 25.5205 35.3284 25.5205 34.5C25.5205 33.6716 24.8489 33 24.0205 33H24.0005Z" fill="#F7A308"/>
<path fill-rule="evenodd" clip-rule="evenodd" d="M21.3022 5.00187C22.1259 4.53812 23.0553 4.29449 24.0005 4.29449C24.9458 4.29449 25.8751 4.53812 26.6988 5.00187C27.5225 5.46562 28.2128 6.13383 28.703 6.94204L28.7074 6.94916L45.6597 35.2498C46.1399 36.0815 46.3939 37.0245 46.3965 37.9848C46.3992 38.9452 46.1504 39.8895 45.6748 40.7238C45.1993 41.5582 44.5135 42.2534 43.6858 42.7405C42.8581 43.2275 41.9173 43.4893 40.957 43.4999L40.9405 43.5001L7.04404 43.5C6.08374 43.4894 5.14294 43.2275 4.31524 42.7405C3.48754 42.2534 2.80179 41.5582 2.32622 40.7238C1.85064 39.8895 1.60182 38.9452 1.60451 37.9848C1.6072 37.0245 1.86131 36.0816 2.34154 35.2499L2.35356 35.2291L19.2937 6.94918L20.5805 7.71998L19.298 6.94204C19.7883 6.13383 20.4785 5.46562 21.3022 5.00187ZM21.8649 8.49479L21.863 8.49792L4.93421 36.7593C4.71935 37.1351 4.60571 37.5602 4.6045 37.9932C4.60328 38.4297 4.71638 38.859 4.93255 39.2382C5.14872 39.6175 5.46042 39.9335 5.83665 40.1549C6.21077 40.375 6.63572 40.4939 7.06967 40.5H40.9314C41.3653 40.4939 41.7903 40.375 42.1644 40.1549C42.5406 39.9335 42.8523 39.6175 43.0685 39.2382C43.2847 38.859 43.3978 38.4297 43.3966 37.9932C43.3953 37.5603 43.2817 37.1351 43.0669 36.7593L26.138 8.49792L26.1361 8.49479C25.9134 8.12883 25.6004 7.82622 25.227 7.61603C24.8526 7.40523 24.4302 7.29449 24.0005 7.29449C23.5709 7.29449 23.1484 7.40523 22.774 7.61603C22.4007 7.82622 22.0877 8.12883 21.8649 8.49479Z" fill="#F7A308"/>
</svg>
