<svg width="48" height="48" viewBox="0 0 48 48" fill="none" xmlns="http://www.w3.org/2000/svg">
<path d="M24.6009 15.5558C23.5534 15.3762 22.4762 15.573 21.56 16.1115C20.6438 16.6499 19.9478 17.4953 19.5951 18.4978C19.3202 19.2792 18.4638 19.6899 17.6823 19.415C16.9008 19.1401 16.4902 18.2837 16.7651 17.5022C17.3529 15.8314 18.513 14.4225 20.04 13.5251C21.567 12.6276 23.3623 12.2996 25.108 12.599C26.8537 12.8984 28.4371 13.806 29.5778 15.1611C30.7182 16.5157 31.3424 18.2302 31.3401 20.0009C31.3396 22.7967 29.2626 24.6878 27.6721 25.7481C26.8312 26.3087 26.0009 26.7228 25.3868 26.9957C25.0776 27.1331 24.8179 27.2371 24.6319 27.308C24.5388 27.3434 24.4638 27.3707 24.41 27.3899L24.3454 27.4125L24.3255 27.4193L24.3189 27.4215L24.3164 27.4224C24.3164 27.4224 24.1048 26.7938 24.009 26.5069L24.3144 27.423C23.5285 27.685 22.679 27.2603 22.4171 26.4743C22.1554 25.6892 22.579 24.8406 23.3635 24.5777L23.3693 24.5758L23.405 24.5632C23.439 24.5511 23.493 24.5315 23.5639 24.5045C23.7061 24.4504 23.9151 24.3669 24.1684 24.2543C24.6793 24.0272 25.349 23.6913 26.008 23.2519C27.4174 22.3123 28.3401 21.2037 28.3401 20L28.3401 19.9978C28.3417 18.935 27.9671 17.9061 27.2827 17.0931C26.5983 16.28 25.6483 15.7355 24.6009 15.5558Z" fill="#05BAF1"/>
<path d="M24 32.5C23.1716 32.5 22.5 33.1716 22.5 34C22.5 34.8284 23.1716 35.5 24 35.5H24.02C24.8484 35.5 25.52 34.8284 25.52 34C25.52 33.1716 24.8484 32.5 24.02 32.5H24Z" fill="#05BAF1"/>
<path fill-rule="evenodd" clip-rule="evenodd" d="M2.5 24C2.5 12.1259 12.1259 2.5 24 2.5C35.8741 2.5 45.5 12.1259 45.5 24C45.5 35.8741 35.8741 45.5 24 45.5C12.1259 45.5 2.5 35.8741 2.5 24ZM24 5.5C13.7827 5.5 5.5 13.7827 5.5 24C5.5 34.2173 13.7827 42.5 24 42.5C34.2173 42.5 42.5 34.2173 42.5 24C42.5 13.7827 34.2173 5.5 24 5.5Z" fill="#05BAF1"/>
</svg>
