<svg width="48" height="48" viewBox="0 0 48 48" fill="none" xmlns="http://www.w3.org/2000/svg">
<path d="M24 16C24.8285 16 25.5 16.6716 25.5 17.5V26.5C25.5 27.3284 24.8285 28 24 28C23.1716 28 22.5 27.3284 22.5 26.5V17.5C22.5 16.6716 23.1716 16 24 16Z" fill="#F7A308"/>
<path d="M24 33C23.1716 33 22.5 33.6716 22.5 34.5C22.5 35.3284 23.1716 36 24 36H24.02C24.8485 36 25.52 35.3284 25.52 34.5C25.52 33.6716 24.8485 33 24.02 33H24Z" fill="#F7A308"/>
<path fill-rule="evenodd" clip-rule="evenodd" d="M21.3018 5.00187C22.1255 4.53812 23.0548 4.29449 24 4.29449C24.9453 4.29449 25.8746 4.53812 26.6983 5.00187C27.522 5.46562 28.2123 6.13383 28.7025 6.94204L28.7069 6.94916L45.6592 35.2498C46.1394 36.0815 46.3934 37.0245 46.3961 37.9848C46.3987 38.9452 46.1499 39.8895 45.6744 40.7238C45.1988 41.5582 44.513 42.2534 43.6853 42.7405C42.8576 43.2275 41.9168 43.4893 40.9565 43.4999L40.94 43.5001L7.04355 43.5C6.08325 43.4894 5.14245 43.2275 4.31475 42.7405C3.48705 42.2534 2.8013 41.5582 2.32573 40.7238C1.85016 39.8895 1.60134 38.9452 1.60403 37.9848C1.60671 37.0245 1.86082 36.0816 2.34106 35.2499L2.35308 35.2291L19.2932 6.94918L20.58 7.71998L19.2975 6.94204C19.7878 6.13383 20.4781 5.46562 21.3018 5.00187ZM21.8644 8.49479L21.8625 8.49792L4.93372 36.7593C4.71886 37.1351 4.60523 37.5602 4.60401 37.9932C4.60279 38.4297 4.71589 38.859 4.93206 39.2382C5.14823 39.6175 5.45994 39.9335 5.83616 40.1549C6.21028 40.375 6.63524 40.4939 7.06918 40.5H40.9309C41.3648 40.4939 41.7898 40.375 42.1639 40.1549C42.5401 39.9335 42.8519 39.6175 43.068 39.2382C43.2842 38.859 43.3973 38.4297 43.3961 37.9932C43.3949 37.5603 43.2812 37.1351 43.0664 36.7593L26.1375 8.49792L26.1356 8.49479C25.9129 8.12883 25.5999 7.82622 25.2265 7.61603C24.8521 7.40523 24.4297 7.29449 24 7.29449C23.5704 7.29449 23.148 7.40523 22.7735 7.61603C22.4002 7.82622 22.0872 8.12883 21.8644 8.49479Z" fill="#F7A308"/>
</svg>
