<svg width="48" height="48" viewBox="0 0 48 48" fill="none" xmlns="http://www.w3.org/2000/svg">
<path d="M33.0607 19.0607C33.6464 18.4749 33.6464 17.5251 33.0607 16.9393C32.4749 16.3536 31.5251 16.3536 30.9393 16.9393L21 26.8787L17.0607 22.9393C16.4749 22.3536 15.5251 22.3536 14.9393 22.9393C14.3536 23.5251 14.3536 24.4749 14.9393 25.0607L19.9393 30.0607C20.5251 30.6464 21.4749 30.6464 22.0607 30.0607L33.0607 19.0607Z" fill="#009B48"/>
<path fill-rule="evenodd" clip-rule="evenodd" d="M24 2.5C12.1259 2.5 2.5 12.1259 2.5 24C2.5 35.8741 12.1259 45.5 24 45.5C35.8741 45.5 45.5 35.8741 45.5 24C45.5 12.1259 35.8741 2.5 24 2.5ZM5.5 24C5.5 13.7827 13.7827 5.5 24 5.5C34.2173 5.5 42.5 13.7827 42.5 24C42.5 34.2173 34.2173 42.5 24 42.5C13.7827 42.5 5.5 34.2173 5.5 24Z" fill="#009B48"/>
</svg>
