<svg width="48" height="48" viewBox="0 0 48 48" fill="none" xmlns="http://www.w3.org/2000/svg">
<path d="M24 22.5C24.8284 22.5 25.5 23.1716 25.5 24V32C25.5 32.8284 24.8284 33.5 24 33.5C23.1716 33.5 22.5 32.8284 22.5 32V24C22.5 23.1716 23.1716 22.5 24 22.5Z" fill="#05BAF1"/>
<path d="M24 14.5C23.1716 14.5 22.5 15.1716 22.5 16C22.5 16.8284 23.1716 17.5 24 17.5H24.02C24.8484 17.5 25.52 16.8284 25.52 16C25.52 15.1716 24.8484 14.5 24.02 14.5H24Z" fill="#05BAF1"/>
<path fill-rule="evenodd" clip-rule="evenodd" d="M2.5 24C2.5 12.1259 12.1259 2.5 24 2.5C35.8741 2.5 45.5 12.1259 45.5 24C45.5 35.8741 35.8741 45.5 24 45.5C12.1259 45.5 2.5 35.8741 2.5 24ZM24 5.5C13.7827 5.5 5.5 13.7827 5.5 24C5.5 34.2173 13.7827 42.5 24 42.5C34.2173 42.5 42.5 34.2173 42.5 24C42.5 13.7827 34.2173 5.5 24 5.5Z" fill="#05BAF1"/>
</svg>
