<svg width="48" height="48" viewBox="0 0 48 48" fill="none" xmlns="http://www.w3.org/2000/svg">
<path d="M24 14C24.8284 14 25.5 14.6716 25.5 15.5V24.5C25.5 25.3284 24.8284 26 24 26C23.1716 26 22.5 25.3284 22.5 24.5V15.5C22.5 14.6716 23.1716 14 24 14Z" fill="#E31B57"/>
<path d="M24 31C23.1716 31 22.5 31.6716 22.5 32.5C22.5 33.3284 23.1716 34 24 34H24.02C24.8484 34 25.52 33.3284 25.52 32.5C25.52 31.6716 24.8484 31 24.02 31H24Z" fill="#E31B57"/>
<path fill-rule="evenodd" clip-rule="evenodd" d="M2.5 24C2.5 12.1259 12.1259 2.5 24 2.5C35.8741 2.5 45.5 12.1259 45.5 24C45.5 35.8741 35.8741 45.5 24 45.5C12.1259 45.5 2.5 35.8741 2.5 24ZM24 5.5C13.7827 5.5 5.5 13.7827 5.5 24C5.5 34.2173 13.7827 42.5 24 42.5C34.2173 42.5 42.5 34.2173 42.5 24C42.5 13.7827 34.2173 5.5 24 5.5Z" fill="#E31B57"/>
</svg>
