<?xml version="1.0" encoding="UTF-8" standalone="no"?>
<svg
   width="72"
   height="72"
   viewBox="0 0 72 72"
   fill="none"
   version="1.1"
   id="svg3"
   sodipodi:docname="dialog_message_information.svg"
   inkscape:version="1.4.2 (2aeb623e1d, 2025-05-12)"
   xmlns:inkscape="http://www.inkscape.org/namespaces/inkscape"
   xmlns:sodipodi="http://sodipodi.sourceforge.net/DTD/sodipodi-0.dtd"
   xmlns="http://www.w3.org/2000/svg"
   xmlns:svg="http://www.w3.org/2000/svg">
  <defs
     id="defs3" />
  <sodipodi:namedview
     id="namedview3"
     pagecolor="#ffffff"
     bordercolor="#000000"
     borderopacity="0.25"
     inkscape:showpageshadow="2"
     inkscape:pageopacity="0.0"
     inkscape:pagecheckerboard="0"
     inkscape:deskcolor="#d1d1d1"
     showgrid="false"
     inkscape:zoom="7.8862048"
     inkscape:cx="43.557073"
     inkscape:cy="34.55401"
     inkscape:window-width="1854"
     inkscape:window-height="1011"
     inkscape:window-x="0"
     inkscape:window-y="0"
     inkscape:window-maximized="1"
     inkscape:current-layer="svg3" />
  <path
     d="M36.0003 24C37.2429 24 38.2503 25.0074 38.2503 26.25V39.75C38.2503 40.9926 37.2429 42 36.0003 42C34.7576 42 33.7503 40.9926 33.7503 39.75V26.25C33.7503 25.0074 34.7576 24 36.0003 24Z"
     fill="#F7A308"
     id="path1" />
  <path
     d="M36.0003 49.5C34.7576 49.5 33.7503 50.5074 33.7503 51.75C33.7503 52.9926 34.7576 54 36.0003 54H36.0303C37.2729 54 38.2803 52.9926 38.2803 51.75C38.2803 50.5074 37.2729 49.5 36.0303 49.5H36.0003Z"
     fill="#F7A308"
     id="path2" />
  <path
     fill-rule="evenodd"
     clip-rule="evenodd"
     d="M31.9529 7.50284C33.1884 6.80721 34.5824 6.44177 36.0003 6.44177C37.4182 6.44177 38.8122 6.80721 40.0477 7.50284C41.2833 8.19846 42.3187 9.20078 43.0541 10.4131L43.0605 10.4238L68.489 52.8747C69.2094 54.1222 69.5903 55.5367 69.5943 56.9773C69.5984 58.4178 69.2251 59.8343 68.5118 61.0858C67.7984 62.3373 66.7698 63.3802 65.5282 64.1108C64.2867 64.8413 62.8755 65.234 61.435 65.2499L61.4103 65.2501L10.5656 65.25C9.12511 65.2342 7.71392 64.8413 6.47237 64.1108C5.23082 63.3802 4.2022 62.3373 3.48884 61.0858C2.77548 59.8343 2.40225 58.4178 2.40628 56.9773C2.41032 55.5367 2.79147 54.1224 3.51183 52.8749L3.52986 52.8436L28.9401 10.4238L30.8703 11.58L28.9466 10.4131C29.6819 9.20078 30.7173 8.19846 31.9529 7.50284ZM32.7969 12.7422L32.7941 12.7469L7.40082 55.139C7.07854 55.7026 6.90808 56.3404 6.90626 56.9899C6.90443 57.6447 7.07408 58.2885 7.39833 58.8574C7.72259 59.4262 8.19015 59.9003 8.75449 60.2324C9.31567 60.5626 9.9531 60.7409 10.604 60.75H61.3966C62.0475 60.7409 62.6849 60.5626 63.2461 60.2324C63.8105 59.9003 64.278 59.4262 64.6023 58.8574C64.9265 58.2885 65.0962 57.6446 65.0943 56.9899C65.0925 56.3404 64.9221 55.7027 64.5998 55.139L39.2066 12.7469L39.2037 12.7422C38.8696 12.1933 38.4001 11.7394 37.84 11.4241C37.2784 11.1079 36.6448 10.9418 36.0003 10.9418C35.3558 10.9418 34.7222 11.1079 34.1606 11.4241C33.6005 11.7394 33.131 12.1933 32.7969 12.7422Z"
     fill="#F7A308"
     id="path3" />
  <path
     style="fill:#00ff00;stroke-width:0.126804"
     d="M 8.7315655,64.9358 C 4.942624,64.004231 2.2935314,60.468186 2.5035134,56.622515 2.6235677,54.423806 2.0839737,55.402133 16.00339,32.146146 23.016632,20.42871 28.818483,10.773037 28.896394,10.689095 c 0.108966,-0.117402 0.302595,-0.05222 0.839075,0.282445 0.383581,0.239286 0.754482,0.435066 0.824224,0.435066 0.119041,0 -1.128149,-0.825642 -1.38796,-0.918833 -0.213966,-0.07675 0.419869,-0.9306791 1.323587,-1.7832012 0.61417,-0.5793768 1.201645,-0.9844352 1.93172,-1.3319013 1.374418,-0.6541303 2.185429,-0.8387357 3.648615,-0.8305105 2.188284,0.012301 4.075189,0.8091009 5.652994,2.387139 0.841899,0.8420226 1.676479,2.198007 13.39111,21.757198 6.871289,11.472565 12.759592,21.31893 13.085116,21.880813 0.781294,1.34858 1.04956,2.086064 1.241357,3.412596 0.13665,0.945125 0.129881,1.272102 -0.04798,2.317606 -0.305974,1.798556 -0.981198,3.092912 -2.306764,4.421896 -1.168085,1.171097 -2.283479,1.812025 -3.851221,2.212986 C 62.309542,65.170434 61.56579,65.17685 35.960269,65.16777 11.304713,65.159027 9.5797153,65.144332 8.7315655,64.9358 Z M 62.72135,60.573588 c 0.801463,-0.312093 1.502564,-0.942098 1.952579,-1.754573 0.339466,-0.612884 0.376258,-0.791422 0.375205,-1.820749 -10e-4,-0.995143 -0.04476,-1.222394 -0.341721,-1.775252 C 64.52011,54.874304 58.692376,45.116759 51.756896,33.53958 43.578943,19.888383 38.963861,12.304 38.626061,11.960487 37.183006,10.493028 34.402932,10.600099 33.147288,12.171494 32.59833,12.858497 7.2867273,55.155093 7.0803823,55.730229 6.9802954,56.009197 6.8965817,56.565466 6.894352,56.966381 c -0.010574,1.901386 1.2092057,3.39364 3.076444,3.763661 0.304651,0.06037 12.165961,0.101344 26.358466,0.09105 24.544574,-0.0178 25.833242,-0.02989 26.392088,-0.247504 z"
     id="path4" />
  <path
     style="fill:#00ff00;stroke-width:0.126804"
     d="m 35.41518,41.852242 c -0.592597,-0.188207 -1.135433,-0.65976 -1.380376,-1.199109 -0.221,-0.486629 -0.236224,-0.968415 -0.238831,-7.558203 -0.0017,-4.227734 0.04686,-7.211527 0.121521,-7.471873 0.244188,-0.851433 1.144384,-1.530353 2.029133,-1.530353 1.040895,0 1.888612,0.648439 2.158623,1.651181 0.08897,0.330396 0.12215,2.882567 0.09844,7.570756 l -0.03577,7.07234 -0.2917,0.469121 c -0.508756,0.818199 -1.613438,1.265335 -2.461036,0.99614 z"
     id="path5" />
  <path
     style="fill:#00ff00;stroke-width:0.126804"
     d="m 34.992419,53.65535 c -1.005516,-0.613183 -1.402663,-1.659486 -1.006096,-2.650605 0.404186,-1.010162 1.361176,-1.555264 2.426839,-1.382331 0.574466,0.09322 0.950958,0.342506 1.393433,0.92262 0.487067,0.638578 0.507768,1.692084 0.04649,2.365912 -0.632341,0.923714 -1.9881,1.27651 -2.860665,0.744404 z"
     id="path6" />
</svg>
