<svg width="72" height="72" viewBox="0 0 72 72" fill="none" xmlns="http://www.w3.org/2000/svg">
<path d="M36.9013 23.3337C35.3302 23.0643 33.7144 23.3595 32.34 24.1672C30.9657 24.9749 29.9216 26.2429 29.3926 27.7466C28.9803 28.9189 27.6957 29.5349 26.5235 29.1225C25.3513 28.7101 24.7353 27.4256 25.1476 26.2533C26.0293 23.7471 27.7695 21.6337 30.06 20.2876C32.3505 18.9414 35.0435 18.4494 37.6621 18.8985C40.2806 19.3477 42.6557 20.7091 44.3667 22.7416C46.0772 24.7736 47.0136 27.3453 47.0101 30.0014C47.0095 34.1951 43.8939 37.0317 41.5082 38.6221C40.2468 39.4631 39.0014 40.0842 38.0802 40.4936C37.6164 40.6997 37.2268 40.8557 36.9479 40.962C36.8082 41.0152 36.6957 41.0561 36.615 41.0848L36.518 41.1188L36.4883 41.1289L36.4783 41.1323L36.4746 41.1336C36.4746 41.1336 36.1571 40.1906 36.0135 39.7603L36.4717 41.1345C35.2928 41.5275 34.0186 40.8904 33.6256 39.7115C33.233 38.5338 33.8685 37.2609 35.0452 36.8666L35.0539 36.8636L35.1074 36.8449C35.1585 36.8267 35.2394 36.7973 35.3459 36.7568C35.5591 36.6755 35.8726 36.5503 36.2526 36.3814C37.0189 36.0408 38.0235 35.5369 39.0121 34.8779C41.1262 33.4685 42.5101 31.8055 42.5101 30L42.5101 29.9966C42.5125 28.4026 41.9507 26.8591 40.9241 25.6396C39.8975 24.4201 38.4724 23.6032 36.9013 23.3337Z" fill="#05BAF1"/>
<path d="M36 48.75C34.7574 48.75 33.75 49.7574 33.75 51C33.75 52.2426 34.7574 53.25 36 53.25H36.03C37.2726 53.25 38.28 52.2426 38.28 51C38.28 49.7574 37.2726 48.75 36.03 48.75H36Z" fill="#05BAF1"/>
<path fill-rule="evenodd" clip-rule="evenodd" d="M3.75 36C3.75 18.1888 18.1888 3.75 36 3.75C53.8112 3.75 68.25 18.1888 68.25 36C68.25 53.8112 53.8112 68.25 36 68.25C18.1888 68.25 3.75 53.8112 3.75 36ZM36 8.25C20.6741 8.25 8.25 20.6741 8.25 36C8.25 51.3259 20.6741 63.75 36 63.75C51.3259 63.75 63.75 51.3259 63.75 36C63.75 20.6741 51.3259 8.25 36 8.25Z" fill="#05BAF1"/>
</svg>
