<svg width="16" height="16" viewBox="0 0 16 16" fill="none" xmlns="http://www.w3.org/2000/svg">
<path fill-rule="evenodd" clip-rule="evenodd" d="M0.25 4.00002C0.249991 2.75737 1.25735 1.75 2.5 1.75H6.29318C6.8122 1.75 7.30997 1.9562 7.67694 2.32324C7.95015 2.59649 8.32072 2.75 8.70712 2.75H11C11.8834 2.75 12.6479 3.25914 13.0161 4H13.3526C14.8691 4 16.0364 5.3393 15.8292 6.84159L15.105 12.0916C14.9344 13.3286 13.8772 14.25 12.6285 14.25H2.50006C1.25742 14.25 0.250065 13.2427 0.250056 12L0.25 4.00002ZM13.3526 5.5C13.9592 5.5 14.4263 6.03572 14.3435 6.63664L13.6193 11.8866C13.5511 12.3814 13.1282 12.75 12.6287 12.75H2.89764C2.29103 12.75 1.82413 12.2143 1.90702 11.6134L2.63115 6.36336C2.6994 5.86856 3.12229 5.5 3.62178 5.5H13.3526Z" fill="#303233"/>
</svg>
