<svg width="16" height="16" viewBox="0 0 16 16" fill="none" xmlns="http://www.w3.org/2000/svg">
<g clip-path="url(#clip0_637_83050)">
<path fill-rule="evenodd" clip-rule="evenodd" d="M2.25 8C2.25 4.82436 4.82436 2.25 8 2.25C11.1756 2.25 13.75 4.82436 13.75 8C13.75 11.1756 11.1756 13.75 8 13.75C4.82436 13.75 2.25 11.1756 2.25 8ZM8 0.75C3.99594 0.75 0.75 3.99594 0.75 8C0.75 12.0041 3.99594 15.25 8 15.25C12.0041 15.25 15.25 12.0041 15.25 8C15.25 3.99594 12.0041 0.75 8 0.75ZM8.16835 5.26942C7.85434 5.21556 7.5314 5.27457 7.25673 5.436C6.98207 5.59742 6.77339 5.85085 6.66767 6.15139C6.53021 6.54213 6.10202 6.74746 5.71128 6.61001C5.32054 6.47255 5.11521 6.04437 5.25266 5.65362C5.47594 5.01892 5.91664 4.48371 6.49671 4.1428C7.07678 3.80189 7.75879 3.67727 8.42194 3.79101C9.08508 3.90476 9.68658 4.24954 10.1199 4.76427C10.5531 5.27895 10.7903 5.93035 10.7893 6.60311C10.7889 7.70043 9.97574 8.42059 9.40583 8.80052C9.09798 9.00576 8.79546 9.15649 8.57286 9.25542C8.46049 9.30536 8.36581 9.34328 8.29747 9.36932C8.26323 9.38236 8.23543 9.39249 8.21511 9.39971L8.19032 9.40839L8.18235 9.41112L8.17951 9.41207L8.17838 9.41245C7.78542 9.54344 7.35975 9.33138 7.22877 8.93842C7.09787 8.54574 7.30985 8.12133 7.70227 7.99002L7.71259 7.98639C7.72302 7.98268 7.74031 7.97641 7.76348 7.96759C7.80992 7.94989 7.87923 7.92222 7.96365 7.8847C8.13463 7.80871 8.35687 7.69705 8.57378 7.55245C9.05325 7.23281 9.28934 6.90373 9.28934 6.60219L9.28934 6.60108C9.28981 6.28248 9.17752 5.974 8.97234 5.73027C8.76717 5.48654 8.48236 5.32328 8.16835 5.26942ZM7.24609 11.5C7.24609 11.0858 7.58188 10.75 7.99609 10.75H8.00276C8.41697 10.75 8.75276 11.0858 8.75276 11.5C8.75276 11.9142 8.41697 12.25 8.00276 12.25H7.99609C7.58188 12.25 7.24609 11.9142 7.24609 11.5Z" fill="white"/>
</g>
<defs>
<clipPath id="clip0_637_83050">
<rect width="16" height="16" fill="white"/>
</clipPath>
</defs>
</svg>
