<svg width="16" height="16" viewBox="0 0 16 16" fill="none" xmlns="http://www.w3.org/2000/svg">
<g clip-path="url(#clip0_1262_43981)">
<path fill-rule="evenodd" clip-rule="evenodd" d="M8 2.25C4.82436 2.25 2.25 4.82436 2.25 8C2.25 11.1756 4.82436 13.75 8 13.75C11.1756 13.75 13.75 11.1756 13.75 8C13.75 4.82436 11.1756 2.25 8 2.25ZM0.75 8C0.75 3.99594 3.99594 0.75 8 0.75C12.0041 0.75 15.25 3.99594 15.25 8C15.25 12.0041 12.0041 15.25 8 15.25C3.99594 15.25 0.75 12.0041 0.75 8ZM8 7.25001C8.41421 7.25001 8.75 7.58579 8.75 8.00001V10.5C8.75 10.9142 8.41421 11.25 8 11.25C7.58579 11.25 7.25 10.9142 7.25 10.5V8.00001C7.25 7.58579 7.58579 7.25001 8 7.25001ZM8 4.75C7.58579 4.75 7.25 5.08579 7.25 5.5C7.25 5.91421 7.58579 6.25 8 6.25H8.00667C8.42088 6.25 8.75667 5.91421 8.75667 5.5C8.75667 5.08579 8.42088 4.75 8.00667 4.75H8Z" fill="white"/>
</g>
<defs>
<clipPath id="clip0_1262_43981">
<rect width="16" height="16" fill="white"/>
</clipPath>
</defs>
</svg>
