<svg width="16" height="16" viewBox="0 0 16 16" fill="none" xmlns="http://www.w3.org/2000/svg">
<path fill-rule="evenodd" clip-rule="evenodd" d="M6.11454 2.78101C6.61464 2.28091 7.29292 1.99996 8.00016 1.99996C8.70741 1.99996 9.38568 2.28091 9.88578 2.78101C10.3859 3.28111 10.6668 3.95938 10.6668 4.66663V6.66663H5.3335V4.66663C5.3335 3.95938 5.61445 3.28111 6.11454 2.78101ZM4.66764 7.99996C4.66737 7.99996 4.6671 7.99996 4.66683 7.99996C4.66656 7.99996 4.66629 7.99996 4.66602 7.99996H3.3335C2.96531 7.99996 2.66683 8.29844 2.66683 8.66663V13.3333C2.66683 13.7015 2.96531 14 3.3335 14H12.6668C13.035 14 13.3335 13.7015 13.3335 13.3333V8.66663C13.3335 8.29844 13.035 7.99996 12.6668 7.99996H11.3343C11.334 7.99996 11.3338 7.99996 11.3335 7.99996C11.3332 7.99996 11.333 7.99996 11.3327 7.99996H4.66764ZM12.0002 6.66663V4.66663C12.0002 3.60576 11.5787 2.58834 10.8286 1.8382C10.0784 1.08805 9.06103 0.666626 8.00016 0.666626C6.9393 0.666626 5.92188 1.08805 5.17174 1.8382C4.42159 2.58834 4.00016 3.60576 4.00016 4.66663V6.66663H3.3335C2.22893 6.66663 1.3335 7.56206 1.3335 8.66663V13.3333C1.3335 14.4379 2.22893 15.3333 3.3335 15.3333H12.6668C13.7714 15.3333 14.6668 14.4379 14.6668 13.3333V8.66663C14.6668 7.56206 13.7714 6.66663 12.6668 6.66663H12.0002Z" fill="#FFFFFF"/>
</svg>
