<svg width="16" height="16" viewBox="0 0 16 16" fill="none" xmlns="http://www.w3.org/2000/svg">
<g clip-path="url(#clip0_838_874)">
<path d="M11.0683 10.445C11.1743 10.445 11.2598 10.3595 11.2598 10.2494V5.75057C11.2598 5.64055 11.1743 5.55497 11.0683 5.55497H10.5019C10.4 5.55497 10.3022 5.59572 10.2289 5.66907L8.06907 7.85738C8.0324 7.89406 7.9672 7.89406 7.93052 7.85738L5.77074 5.66907C5.69739 5.59572 5.59958 5.55497 5.49771 5.55497H4.93127C4.82532 5.55497 4.73975 5.64055 4.73975 5.75057V10.2494C4.73975 10.3595 4.82532 10.445 4.93127 10.445H5.75444C5.86039 10.445 5.94596 10.3595 5.94596 10.2494V7.69438C5.94596 7.66993 5.97449 7.66178 5.98672 7.674L7.72677 9.43443C7.87754 9.58928 8.12205 9.58928 8.27283 9.43443L10.0129 7.674C10.0251 7.66178 10.0536 7.66993 10.0536 7.69438V10.2494C10.0536 10.3595 10.1392 10.445 10.2452 10.445H11.0683Z" fill="#616366"/>
<path fill-rule="evenodd" clip-rule="evenodd" d="M8 0.75C3.99594 0.75 0.75 3.99594 0.75 8C0.75 12.0041 3.99594 15.25 8 15.25C12.0041 15.25 15.25 12.0041 15.25 8C15.25 3.99594 12.0041 0.75 8 0.75ZM2.25 8C2.25 4.82436 4.82436 2.25 8 2.25C11.1756 2.25 13.75 4.82436 13.75 8C13.75 11.1756 11.1756 13.75 8 13.75C4.82436 13.75 2.25 11.1756 2.25 8Z" fill="#616366"/>
</g>
<defs>
<clipPath id="clip0_838_874">
<rect width="16" height="16" fill="white"/>
</clipPath>
</defs>
</svg>
