<svg width="16" height="16" viewBox="0 0 16 16" fill="none" xmlns="http://www.w3.org/2000/svg">
<path d="M7.27735 5.51823C6.94507 5.29672 6.5 5.53491 6.5 5.93426V10.0657C6.5 10.4651 6.94507 10.7033 7.27735 10.4818L10.376 8.41603C10.6728 8.21811 10.6728 7.78189 10.376 7.58397L7.27735 5.51823Z" fill="#303233"/>
<path fill-rule="evenodd" clip-rule="evenodd" d="M8 1C4.13401 1 1 4.13401 1 8C1 11.866 4.13401 15 8 15C11.866 15 15 11.866 15 8C15 4.13401 11.866 1 8 1ZM2.5 8C2.5 4.96243 4.96243 2.5 8 2.5C11.0376 2.5 13.5 4.96243 13.5 8C13.5 11.0376 11.0376 13.5 8 13.5C4.96243 13.5 2.5 11.0376 2.5 8Z" fill="#303233"/>
</svg>
