<svg width="16" height="16" viewBox="0 0 16 16" fill="none" xmlns="http://www.w3.org/2000/svg">
<path fill-rule="evenodd" clip-rule="evenodd" d="M4.22816 3.95584C4.48855 4.21614 4.48862 4.63825 4.22831 4.89864C3.48261 5.64459 2.97483 6.59491 2.76918 7.62942C2.56354 8.66394 2.66926 9.73621 3.07298 10.7106C3.47669 11.6851 4.16028 12.5179 5.03731 13.1039C5.91433 13.6898 6.94541 14.0026 8.00017 14.0026C9.05493 14.0026 10.086 13.6898 10.963 13.1039C11.8401 12.5179 12.5236 11.6851 12.9274 10.7106C13.3311 9.73621 13.4368 8.66394 13.2311 7.62942C13.0255 6.59491 12.5177 5.64459 11.772 4.89864C11.5117 4.63825 11.5118 4.21614 11.7722 3.95584C12.0326 3.69553 12.4547 3.6956 12.715 3.95599C13.6471 4.88843 14.2818 6.07632 14.5389 7.36946C14.796 8.66261 14.6638 10.0029 14.1592 11.221C13.6545 12.439 12.8 13.4801 11.7037 14.2125C10.6075 14.945 9.31861 15.3359 8.00017 15.3359C6.68172 15.3359 5.39287 14.945 4.29659 14.2125C3.20031 13.4801 2.34583 12.439 1.84118 11.221C1.33653 10.0029 1.20438 8.66261 1.46144 7.36946C1.7185 6.07632 2.35322 4.88843 3.28535 3.95599C3.54566 3.6956 3.96777 3.69553 4.22816 3.95584Z" fill="#303233"/>
<path fill-rule="evenodd" clip-rule="evenodd" d="M8.00016 1.33398C8.36835 1.33398 8.66683 1.63246 8.66683 2.00065V8.66732C8.66683 9.03551 8.36835 9.33398 8.00016 9.33398C7.63197 9.33398 7.3335 9.03551 7.3335 8.66732V2.00065C7.3335 1.63246 7.63197 1.33398 8.00016 1.33398Z" fill="#303233"/>
</svg>
