<svg width="16" height="16" viewBox="0 0 16 16" fill="none" xmlns="http://www.w3.org/2000/svg">
<path fill-rule="evenodd" clip-rule="evenodd" d="M12.4847 11.7775C13.4296 10.6711 14 9.23549 14 7.66659C14 4.16878 11.1645 1.33325 7.66671 1.33325C4.1689 1.33325 1.33337 4.16878 1.33337 7.66659C1.33337 11.1644 4.1689 13.9999 7.66671 13.9999C9.23564 13.9999 10.6713 13.4294 11.7776 12.4846L13.6465 14.3535C13.8417 14.5487 14.1583 14.5487 14.3536 14.3535C14.5489 14.1582 14.5489 13.8416 14.3536 13.6464L12.4847 11.7775ZM7.66671 2.33325C4.72119 2.33325 2.33337 4.72107 2.33337 7.66658C2.33337 10.6121 4.72119 12.9999 7.66671 12.9999C9.11139 12.9999 10.4219 12.4255 11.3824 11.4926C11.3958 11.4706 11.4121 11.4499 11.4311 11.4309C11.4501 11.4119 11.4708 11.3956 11.4928 11.3822C12.4257 10.4217 13 9.11124 13 7.66658C13 4.72107 10.6122 2.33325 7.66671 2.33325Z" fill="#535B65"/>
<circle opacity="0.3" cx="7.66667" cy="7.66667" r="4.66667" fill="#535B65"/>
</svg>
