<svg width="16" height="16" viewBox="0 0 16 16" fill="none" xmlns="http://www.w3.org/2000/svg">
<g clip-path="url(#clip0_2730_1331)">
<path fill-rule="evenodd" clip-rule="evenodd" d="M3.43833 4.49899C2.69307 5.46859 2.25 6.68255 2.25 8C2.25 11.1756 4.82436 13.75 8 13.75C9.31745 13.75 10.5314 13.3069 11.501 12.5617L3.43833 4.49899ZM4.49899 3.43833L12.5617 11.501C13.3069 10.5314 13.75 9.31745 13.75 8C13.75 4.82436 11.1756 2.25 8 2.25C6.68255 2.25 5.46859 2.69307 4.49899 3.43833ZM0.75 8C0.75 3.99594 3.99594 0.75 8 0.75C12.0041 0.75 15.25 3.99594 15.25 8C15.25 12.0041 12.0041 15.25 8 15.25C3.99594 15.25 0.75 12.0041 0.75 8Z" fill="#303233"/>
</g>
<defs>
<clipPath id="clip0_2730_1331">
<rect width="16" height="16" fill="white"/>
</clipPath>
</defs>
</svg>
