<svg width="16" height="16" viewBox="0 0 16 16" fill="none" xmlns="http://www.w3.org/2000/svg">
<path fill-rule="evenodd" clip-rule="evenodd" d="M6.5 0.75C5.5335 0.75 4.75 1.5335 4.75 2.5V3.25H2.75H2C1.58579 3.25 1.25 3.58579 1.25 4C1.25 4.41421 1.58579 4.75 2 4.75H2.75V13C2.75 14.2426 3.75736 15.25 5 15.25H11C12.2426 15.25 13.25 14.2426 13.25 13V4.75H14C14.4142 4.75 14.75 4.41421 14.75 4C14.75 3.58579 14.4142 3.25 14 3.25H13.25H11.25V2.5C11.25 1.5335 10.4665 0.75 9.5 0.75H6.5ZM9.75 3.25V2.5C9.75 2.36193 9.63807 2.25 9.5 2.25H6.5C6.36193 2.25 6.25 2.36193 6.25 2.5V3.25H9.75ZM4.25 4.75H11.75V13C11.75 13.4142 11.4142 13.75 11 13.75H5C4.58579 13.75 4.25 13.4142 4.25 13V4.75ZM6.5 6.75C6.91421 6.75 7.25 7.08579 7.25 7.5V11.5C7.25 11.9142 6.91421 12.25 6.5 12.25C6.08579 12.25 5.75 11.9142 5.75 11.5V7.5C5.75 7.08579 6.08579 6.75 6.5 6.75ZM10.25 7.5C10.25 7.08579 9.91421 6.75 9.5 6.75C9.08579 6.75 8.75 7.08579 8.75 7.5V11.5C8.75 11.9142 9.08579 12.25 9.5 12.25C9.91421 12.25 10.25 11.9142 10.25 11.5V7.5Z" fill="#616366"/>
</svg>
