<svg width="16" height="16" viewBox="0 0 16 16" fill="none" xmlns="http://www.w3.org/2000/svg">
<g clip-path="url(#clip0_1802_554)">
<path fill-rule="evenodd" clip-rule="evenodd" d="M2.25 8C2.25 4.82436 4.82436 2.25 8 2.25C11.1756 2.25 13.75 4.82436 13.75 8C13.75 11.1756 11.1756 13.75 8 13.75C4.82436 13.75 2.25 11.1756 2.25 8ZM8 0.75C3.99594 0.75 0.75 3.99594 0.75 8C0.75 12.0041 3.99594 15.25 8 15.25C12.0041 15.25 15.25 12.0041 15.25 8C15.25 3.99594 12.0041 0.75 8 0.75ZM10.6967 5.30301C10.9896 5.5959 10.9896 6.07077 10.6967 6.36367L9.06034 8L10.6967 9.63634C10.9896 9.92923 10.9896 10.4041 10.6967 10.697C10.4038 10.9899 9.9289 10.9899 9.63601 10.697L7.99967 9.06066L6.36334 10.697C6.07044 10.9899 5.59557 10.9899 5.30268 10.697C5.00978 10.4041 5.00978 9.92923 5.30268 9.63634L6.93901 8L5.30268 6.36367C5.00978 6.07077 5.00978 5.5959 5.30268 5.30301C5.59557 5.01011 6.07044 5.01011 6.36334 5.30301L7.99967 6.93934L9.63601 5.30301C9.9289 5.01011 10.4038 5.01011 10.6967 5.30301Z" fill="#E31B57"/>
</g>
<defs>
<clipPath id="clip0_1802_554">
<rect width="16" height="16" fill="white"/>
</clipPath>
</defs>
</svg>
