<svg width="66" height="66" viewBox="0 0 66 66" fill="none" xmlns="http://www.w3.org/2000/svg">
<path d="M33 18C34.2426 18 35.25 19.0074 35.25 20.25V33.75C35.25 34.9926 34.2426 36 33 36C31.7574 36 30.75 34.9926 30.75 33.75V20.25C30.75 19.0074 31.7574 18 33 18Z" fill="#F7A308"/>
<path d="M33 43.5C31.7574 43.5 30.75 44.5074 30.75 45.75C30.75 46.9926 31.7574 48 33 48H33.03C34.2726 48 35.28 46.9926 35.28 45.75C35.28 44.5074 34.2726 43.5 33.03 43.5H33Z" fill="#F7A308"/>
<path fill-rule="evenodd" clip-rule="evenodd" d="M0.75 33C0.75 15.1888 15.1888 0.75 33 0.75C50.8112 0.75 65.25 15.1888 65.25 33C65.25 50.8112 50.8112 65.25 33 65.25C15.1888 65.25 0.75 50.8112 0.75 33ZM33 5.25C17.6741 5.25 5.25 17.6741 5.25 33C5.25 48.3259 17.6741 60.75 33 60.75C48.3259 60.75 60.75 48.3259 60.75 33C60.75 17.6741 48.3259 5.25 33 5.25Z" fill="#F7A308"/>
</svg>
