<svg width="16" height="16" viewBox="0 0 16 16" fill="none" xmlns="http://www.w3.org/2000/svg">
<path d="M2.66334 2.66334C2.76793 2.55876 2.90978 2.5 3.05769 2.5H8.94231C9.09022 2.5 9.23207 2.55876 9.33665 2.66334C9.44124 2.76793 9.5 2.90978 9.5 3.05769C9.5 3.47191 9.83579 3.80769 10.25 3.80769C10.6642 3.80769 11 3.47191 11 3.05769C11 2.51196 10.7832 1.98858 10.3973 1.60268C10.0114 1.21679 9.48804 1 8.94231 1H3.05769C2.51196 1 1.98858 1.21679 1.60268 1.60268C1.21679 1.98858 1 2.51196 1 3.05769V8.94231C1 9.48804 1.21679 10.0114 1.60268 10.3973C1.98858 10.7832 2.51196 11 3.05769 11C3.47191 11 3.80769 10.6642 3.80769 10.25C3.80769 9.83579 3.47191 9.5 3.05769 9.5C2.90978 9.5 2.76793 9.44124 2.66334 9.33665C2.55876 9.23207 2.5 9.09022 2.5 8.94231V3.05769C2.5 2.90978 2.55876 2.76793 2.66334 2.66334Z" fill="#303233"/>
<path fill-rule="evenodd" clip-rule="evenodd" d="M7.05769 5C5.92126 5 5 5.92126 5 7.05769V12.9423C5 14.0787 5.92126 15 7.05769 15H12.9423C14.0787 15 15 14.0787 15 12.9423V7.05769C15 5.92126 14.0787 5 12.9423 5H7.05769ZM6.5 7.05769C6.5 6.74969 6.74969 6.5 7.05769 6.5H12.9423C13.2503 6.5 13.5 6.74969 13.5 7.05769V12.9423C13.5 13.2503 13.2503 13.5 12.9423 13.5H7.05769C6.74969 13.5 6.5 13.2503 6.5 12.9423V7.05769Z" fill="#303233"/>
</svg>
