<svg width="16" height="16" viewBox="0 0 16 16" fill="none" xmlns="http://www.w3.org/2000/svg">
<path d="M8.21055 5.02302C7.83835 4.95918 7.45557 5.02912 7.13 5.22046C6.80443 5.4118 6.55708 5.71219 6.43176 6.06843C6.34013 6.32892 6.05467 6.46581 5.79418 6.37417C5.53368 6.28254 5.39679 5.99708 5.48843 5.73658C5.69211 5.15757 6.09414 4.66933 6.62331 4.35833C7.15248 4.04733 7.77464 3.93365 8.3796 4.03742C8.98456 4.14118 9.53327 4.4557 9.92856 4.92527C10.3238 5.39476 10.5401 5.98895 10.5393 6.60264C10.539 7.56751 9.82197 8.22259 9.26709 8.59251C8.97439 8.78764 8.68525 8.93186 8.47126 9.02697C8.36355 9.07484 8.2731 9.11105 8.2084 9.1357C8.17601 9.14804 8.14996 9.15752 8.13129 9.16416L8.10891 9.172L8.1021 9.17432L8.09982 9.17509L8.09863 9.17549C7.83665 9.26282 7.55319 9.12134 7.46587 8.85936C7.37854 8.59739 7.52012 8.31423 7.7821 8.22691L7.78355 8.22641L7.79628 8.22194C7.80836 8.21765 7.8274 8.21074 7.85241 8.20121C7.9025 8.18213 7.97604 8.15274 8.06512 8.11315C8.2447 8.03334 8.48032 7.91517 8.71239 7.76046C9.20695 7.43075 9.53927 7.03645 9.53927 6.60219C9.53983 6.22456 9.40673 5.85817 9.16353 5.56927C8.92034 5.28037 8.58274 5.08686 8.21055 5.02302Z" fill="#2C5BEB"/>
<path d="M7.99609 11C7.71995 11 7.49609 11.2239 7.49609 11.5C7.49609 11.7761 7.71995 12 7.99609 12H8.00276C8.2789 12 8.50276 11.7761 8.50276 11.5C8.50276 11.2239 8.2789 11 8.00276 11H7.99609Z" fill="#2C5BEB"/>
<path fill-rule="evenodd" clip-rule="evenodd" d="M1 8C1 4.13401 4.13401 1 8 1C11.866 1 15 4.13401 15 8C15 11.866 11.866 15 8 15C4.13401 15 1 11.866 1 8ZM8 2C4.68629 2 2 4.68629 2 8C2 11.3137 4.68629 14 8 14C11.3137 14 14 11.3137 14 8C14 4.68629 11.3137 2 8 2Z" fill="#2C5BEB"/>
</svg>
