<?xml version="1.0" encoding="UTF-8"?>
<svg width="3300px" height="2200px" viewBox="0 0 3300 2200" version="1.1" xmlns="http://www.w3.org/2000/svg" xmlns:xlink="http://www.w3.org/1999/xlink">
    <title>imports</title>
    <g id="Imports" stroke="none" stroke-width="1" fill="none" fill-rule="evenodd">
        <g id="imports">
            <g id="Notes">
                <rect id="artboard" fill="#FFFFFF" fill-rule="nonzero" x="0" y="0" width="3300" height="2200"></rect>
                <line x1="263" y1="292" x2="3036" y2="292" id="Path" stroke="#000000" stroke-width="0.5"></line>
                <text id="Weight/Scale-Variations" fill="#000000" fill-rule="nonzero" font-family="Helvetica-Bold, Helvetica" font-size="13" font-weight="bold">
                    <tspan x="263" y="322">Weight/Scale Variations</tspan>
                </text>
                <text id="Ultralight" fill="#000000" fill-rule="nonzero" font-family="Helvetica" font-size="13" font-weight="normal">
                    <tspan x="533.711" y="322">Ultralight</tspan>
                </text>
                <text id="Thin" fill="#000000" fill-rule="nonzero" font-family="Helvetica" font-size="13" font-weight="normal">
                    <tspan x="843.422" y="322">Thin</tspan>
                </text>
                <text id="Light" fill="#000000" fill-rule="nonzero" font-family="Helvetica" font-size="13" font-weight="normal">
                    <tspan x="1138.63" y="322">Light</tspan>
                </text>
                <text id="Regular" fill="#000000" fill-rule="nonzero" font-family="Helvetica" font-size="13" font-weight="normal">
                    <tspan x="1426.84" y="322">Regular</tspan>
                </text>
                <text id="Medium" fill="#000000" fill-rule="nonzero" font-family="Helvetica" font-size="13" font-weight="normal">
                    <tspan x="1723.06" y="322">Medium</tspan>
                </text>
                <text id="Semibold" fill="#000000" fill-rule="nonzero" font-family="Helvetica" font-size="13" font-weight="normal">
                    <tspan x="2015.77" y="322">Semibold</tspan>
                </text>
                <text id="Bold" fill="#000000" fill-rule="nonzero" font-family="Helvetica" font-size="13" font-weight="normal">
                    <tspan x="2326.48" y="322">Bold</tspan>
                </text>
                <text id="Heavy" fill="#000000" fill-rule="nonzero" font-family="Helvetica" font-size="13" font-weight="normal">
                    <tspan x="2618.19" y="322">Heavy</tspan>
                </text>
                <text id="Black" fill="#000000" fill-rule="nonzero" font-family="Helvetica" font-size="13" font-weight="normal">
                    <tspan x="2917.4" y="322">Black</tspan>
                </text>
                <line x1="263" y1="1903" x2="3036" y2="1903" id="Path" stroke="#000000" stroke-width="0.5"></line>
                <g id="Group" transform="translate(264.367190, 1918.068400)" fill="#000000" fill-rule="nonzero">
                    <path d="M7.88086,15.761678 C12.18751,15.761678 15.77151,12.18746 15.77151,7.88082 C15.77151,3.5742 12.17771,0 7.87109,0 C3.57422,0 -8.8817842e-16,3.5742 -8.8817842e-16,7.88082 C-8.8817842e-16,12.18746 3.58398,15.761678 7.88086,15.761678 Z M7.88086,14.277303 C4.33593,14.277303 1.5039,11.43551 1.5039,7.88082 C1.5039,4.3261 4.32617,1.4843 7.87109,1.4843 C11.42581,1.4843 14.26761,4.3261 14.2773352,7.88082 C14.28711,11.43551 11.43551,14.277303 7.88086,14.277303 Z M5.02929,8.61324 L7.13867,8.61324 L7.13867,10.73238 C7.13867,11.17183 7.43164,11.47457 7.86133,11.47457 C8.31054,11.47457 8.60351,11.17183 8.60351,10.73238 L8.60351,8.61324 L10.73241,8.61324 C11.17191,8.61324 11.47461,8.32027 11.47461,7.89058 C11.47461,7.45113 11.17191,7.1484 10.73241,7.1484 L8.60351,7.1484 L8.60351,5.03902 C8.60351,4.5898 8.31054,4.2871 7.86133,4.2871 C7.43164,4.2871 7.13867,4.5898 7.13867,5.03902 L7.13867,7.1484 L5.02929,7.1484 C4.58008,7.1484 4.27734,7.45113 4.27734,7.89058 C4.27734,8.32027 4.58008,8.61324 5.02929,8.61324 Z" id="Shape"></path>
                </g>
                <g id="Group" transform="translate(283.254050, 1915.988300)" fill="#000000" fill-rule="nonzero">
                    <path d="M9.96095,19.92186 C15.41015,19.92186 19.92185,15.40037 19.92185,9.96092 C19.92185,4.5117 15.40035,0 9.95115,0 C4.51172,0 8.8817842e-16,4.5117 8.8817842e-16,9.96092 C8.8817842e-16,15.40037 4.52148,19.92186 9.96095,19.92186 Z M9.96095,18.2617 C5.35156,18.2617 1.66992,14.57029 1.66992,9.96092 C1.66992,5.3515 5.34179,1.6601 9.95115,1.6601 C14.56055,1.6601 18.25195,5.3515 18.261769,9.96092 C18.27145,14.57029 14.57035,18.2617 9.96095,18.2617 Z M6.24023,10.78123 L9.13085,10.78123 L9.13085,13.69139 C9.13085,14.17967 9.46285,14.5117 9.94145,14.5117 C10.42965,14.5117 10.77145,14.17967 10.77145,13.69139 L10.77145,10.78123 L13.68165,10.78123 C14.16995,10.78123 14.50195,10.4492 14.50195,9.97068 C14.50195,9.4824 14.16995,9.14061 13.68165,9.14061 L10.77145,9.14061 L10.77145,6.25 C10.77145,5.7422 10.42965,5.4101 9.94145,5.4101 C9.46285,5.4101 9.13085,5.7519 9.13085,6.25 L9.13085,9.14061 L6.24023,9.14061 C5.73242,9.14061 5.40039,9.4824 5.40039,9.97068 C5.40039,10.4492 5.74218,10.78123 6.24023,10.78123 Z" id="Shape"></path>
                </g>
                <g id="Group" transform="translate(307.179860, 1913.224600)" fill="#000000" fill-rule="nonzero">
                    <path d="M12.71484,25.43946 C19.67774,25.43946 25.43944,19.6777438 25.43944,12.72462 C25.43944,5.7617 19.66794,0 12.70504,0 C5.75195,0 0,5.7617 0,12.72462 C0,19.6777438 5.76172,25.43946 12.71484,25.43946 Z M12.71484,23.62306 C6.67969,23.62306 1.82617,18.75978 1.82617,12.72462 C1.82617,6.6797 6.66992,1.8262 12.70504,1.8262 C18.75004,1.8262 23.60354,6.6797 23.6132548,12.72462 C23.62304,18.75978 18.75974,23.62306 12.71484,23.62306 Z M7.80274,13.63282 L11.80664,13.63282 L11.80664,17.64649 C11.80664,18.1836 12.17774,18.5547 12.69534,18.5547 C13.23244,18.5547 13.60354,18.1836 13.60354,17.64649 L13.60354,13.63282 L17.62694,13.63282 C18.15434,13.63282 18.53514,13.26173 18.53514,12.74415 C18.53514,12.20704 18.16404,11.82618 17.62694,11.82618 L13.60354,11.82618 L13.60354,7.8223 C13.60354,7.2656 13.23244,6.8945 12.69534,6.8945 C12.17774,6.8945 11.80664,7.2754 11.80664,7.8223 L11.80664,11.82618 L7.80274,11.82618 C7.24609,11.82618 6.875,12.20704 6.875,12.74415 C6.875,13.26173 7.25586,13.63282 7.80274,13.63282 Z" id="Shape"></path>
                </g>
                <text id="Design-Variations" fill="#000000" fill-rule="nonzero" font-family="Helvetica-Bold, Helvetica" font-size="13" font-weight="bold">
                    <tspan x="263" y="1953">Design Variations</tspan>
                </text>
                <text id="Symbols-are-supported-in-up-to-nine-weights-and-three-scales." fill="#000000" fill-rule="nonzero" font-family="Helvetica" font-size="13" font-weight="normal">
                    <tspan x="263" y="1971">Symbols are supported in up to nine weights and three scales.</tspan>
                </text>
                <text id="For-optimal-layout-with-text-and-other-symbols,-vertically-align" fill="#000000" fill-rule="nonzero" font-family="Helvetica" font-size="13" font-weight="normal">
                    <tspan x="263" y="1989">For optimal layout with text and other symbols, vertically align</tspan>
                </text>
                <text id="symbols-with-the-adjacent-text." fill="#000000" fill-rule="nonzero" font-family="Helvetica" font-size="13" font-weight="normal">
                    <tspan x="263" y="2007">symbols with the adjacent text.</tspan>
                </text>
                <line x1="776" y1="1919" x2="776" y2="1933" id="Path" stroke="#00AEEF" stroke-width="0.5"></line>
                <g id="Group" transform="translate(778.490230, 1918.712900)" fill="#000000" fill-rule="nonzero">
                    <path d="M0.82032,14.414053 C1.33789,14.414053 1.5918,14.2187406 1.77735,13.681631 L3.03711,10.2246 L8.79887,10.2246 L10.05857,13.681631 C10.24417,14.2187406 10.49807,14.414053 11.00587,14.414053 C11.52347,14.414053 11.85547,14.101553 11.85547,13.613272 C11.85547,13.447256 11.82617,13.300772 11.74807,13.08593 L7.16797,0.8984 C6.94336,0.293 6.54297,0 5.91797,0 C5.3125,0 4.90235,0.293 4.6875,0.8887 L0.10743,13.09569 C0.0293,13.310538 -4.4408921e-16,13.457022 -4.4408921e-16,13.623038 C-4.4408921e-16,14.111319 0.3125,14.414053 0.82032,14.414053 Z M3.51563,8.74999 L5.88868,2.1777 L5.9375,2.1777 L8.31057,8.74999 L3.51563,8.74999 Z" id="Shape"></path>
                </g>
                <line x1="792.836" y1="1919" x2="792.836" y2="1933" id="Path" stroke="#00AEEF" stroke-width="0.5"></line>
                <text id="Margins" fill="#000000" fill-rule="nonzero" font-family="Helvetica-Bold, Helvetica" font-size="13" font-weight="bold">
                    <tspan x="776" y="1953">Margins</tspan>
                </text>
                <text id="Leading-and-trailing-margins-on-the-left-and-right-side-of-each-symbol" fill="#000000" fill-rule="nonzero" font-family="Helvetica" font-size="13" font-weight="normal">
                    <tspan x="776" y="1971">Leading and trailing margins on the left and right side of each symbol</tspan>
                </text>
                <text id="can-be-adjusted-by-modifying-the-x-location-of-the-margin-guidelines." fill="#000000" fill-rule="nonzero" font-family="Helvetica" font-size="13" font-weight="normal">
                    <tspan x="776" y="1989">can be adjusted by modifying the x-location of the margin guidelines.</tspan>
                </text>
                <text id="Modifications-are-automatically-applied-proportionally-to-all" fill="#000000" fill-rule="nonzero" font-family="Helvetica" font-size="13" font-weight="normal">
                    <tspan x="776" y="2007">Modifications are automatically applied proportionally to all</tspan>
                </text>
                <text id="scales-and-weights." fill="#000000" fill-rule="nonzero" font-family="Helvetica" font-size="13" font-weight="normal">
                    <tspan x="776" y="2025">scales and weights.</tspan>
                </text>
                <g id="Group" transform="translate(1291.248126, 1914.517396)" fill="#000000" fill-rule="nonzero">
                    <path d="M0.593673634,20.347834 L2.29289363,22.056824 C3.15226363,22.925964 4.13859363,22.867374 5.06632363,21.841984 L15.2420736,10.631044 C15.5057736,10.718934 15.7791736,10.699404 16.0916736,10.640804 L17.1561736,10.445494 L17.8202736,11.119324 L17.7811736,11.675964 C17.7420736,12.174014 17.8690736,12.554874 18.3573736,13.033384 L19.1190736,13.775574 C19.5975736,14.254084 20.2127736,14.283384 20.6815736,13.814634 L23.5916736,10.894714 C24.0604736,10.425964 24.0409736,9.83026404 23.5623736,9.35174404 L22.7909736,8.59002404 C22.3123736,8.11150404 21.9413736,7.95530404 21.4627736,7.99430404 L20.8866736,8.04310404 L20.2420736,7.40840404 L20.4862736,6.28530404 C20.6131736,5.71890404 20.4569736,5.27950404 19.8709736,4.69350404 L17.6737736,2.50600404 C14.3338736,-0.814295964 9.90027363,-0.736195964 7.00968363,2.15450404 C6.58976363,2.56460404 6.56046363,3.14080404 6.79484363,3.53140404 C7.02921363,3.89280404 7.48820363,4.12710404 8.13277363,3.96110404 C9.59757363,3.61930404 11.1209736,3.56070404 12.5467736,4.49820404 L11.9608736,5.95330404 C11.7655736,6.43180404 11.7362736,6.83220404 11.8631736,7.19350404 L0.798753634,17.584166 C-0.187576366,18.5021352 -0.265706366,19.478698 0.593673634,20.347834 Z M8.50387363,2.52560404 C10.9354736,0.748204036 14.2264736,1.05100404 16.4530736,3.27750404 L18.8846736,5.68960404 C19.1190736,5.92400404 19.1580736,6.10960404 19.0897736,6.45140404 L18.7674736,7.93570404 L20.2713736,9.42010404 L21.2577736,9.36151404 C21.5116736,9.35174404 21.5897736,9.37127404 21.7850736,9.56658404 L22.3612736,10.142764 L19.9198736,12.584164 L19.3436736,12.007994 C19.1483736,11.812684 19.1190736,11.734554 19.1288736,11.470884 L19.1971736,10.494324 L17.7030736,9.00994404 L16.1795736,9.26385404 C15.8573736,9.33221404 15.7108736,9.30291404 15.4666736,9.06854404 L13.4647736,7.06660404 C13.2108736,6.83220404 13.1815736,6.66620404 13.3377736,6.29510404 L14.2166736,4.20530404 C12.6541736,2.75020404 10.6229736,2.12520404 8.59167363,2.72090404 C8.43547363,2.75990404 8.37687363,2.63300404 8.50387363,2.52560404 Z M3.02531363,20.787304 L1.85343363,19.625184 C1.38468363,19.166198 1.49210363,18.824401 1.89249363,18.4630728 L12.7030736,8.28730404 L14.1678736,9.77166404 L4.17765363,20.757994 C3.82609363,21.158384 3.49406363,21.256044 3.02531363,20.787304 Z" id="Shape"></path>
                </g>
                <text id="Exporting" fill="#000000" fill-rule="nonzero" font-family="Helvetica-Bold, Helvetica" font-size="13" font-weight="bold">
                    <tspan x="1289" y="1953">Exporting</tspan>
                </text>
                <text id="Symbols-should-be-outlined-when-exporting-to-ensure-the" fill="#000000" fill-rule="nonzero" font-family="Helvetica" font-size="13" font-weight="normal">
                    <tspan x="1289" y="1971">Symbols should be outlined when exporting to ensure the</tspan>
                </text>
                <text id="design-is-preserved-when-submitting-to-Xcode." fill="#000000" fill-rule="nonzero" font-family="Helvetica" font-size="13" font-weight="normal">
                    <tspan x="1289" y="1989">design is preserved when submitting to Xcode.</tspan>
                </text>
                <text id="template-version" fill="#000000" fill-rule="nonzero" font-family="Helvetica" font-size="13" font-weight="normal">
                    <tspan x="2952" y="1933">Template v.2.0</tspan>
                </text>
                <text id="Requires-Xcode-12-or-greater" fill="#000000" fill-rule="nonzero" font-family="Helvetica" font-size="13" font-weight="normal">
                    <tspan x="2865" y="1951">Requires Xcode 12 or greater</tspan>
                </text>
                <text id="Generated-from-person.crop.circle" fill="#000000" fill-rule="nonzero" font-family="Helvetica" font-size="13" font-weight="normal">
                    <tspan x="2838" y="1969">Generated from person.crop.circle</tspan>
                </text>
                <text id="Typeset-at-100-points" fill="#000000" fill-rule="nonzero" font-family="Helvetica" font-size="13" font-weight="normal">
                    <tspan x="2912" y="1987">Typeset at 100 points</tspan>
                </text>
                <text id="Small" fill="#000000" fill-rule="nonzero" font-family="Helvetica" font-size="13" font-weight="normal">
                    <tspan x="263" y="726">Small</tspan>
                </text>
                <text id="Medium" fill="#000000" fill-rule="nonzero" font-family="Helvetica" font-size="13" font-weight="normal">
                    <tspan x="263" y="1156">Medium</tspan>
                </text>
                <text id="Large" fill="#000000" fill-rule="nonzero" font-family="Helvetica" font-size="13" font-weight="normal">
                    <tspan x="263" y="1586">Large</tspan>
                </text>
            </g>
            <g id="Guides" transform="translate(263.000000, 625.041000)">
                <g id="H-reference" transform="translate(76.976562, 0.500000)" fill="#27AAE1" fill-rule="nonzero">
                    <path d="M-1.22124533e-15,70.459 L2.685548,70.459 L12.011738,45.9961 L44.775438,45.9961 L54.150438,70.459 L56.787138,70.459 L29.638638,0 L27.148438,0 L-1.22124533e-15,70.459 Z M28.369138,3.3203 L28.466838,3.3203 L43.896438,43.75 L12.890638,43.75 L28.369138,3.3203 Z" id="Shape"></path>
                </g>
                <line x1="0" y1="70.959" x2="2773" y2="70.959" id="Baseline-S" stroke="#27AAE1" stroke-width="0.5"></line>
                <line x1="0" y1="0.5" x2="2773" y2="0.5" id="Capline-S" stroke="#27AAE1" stroke-width="0.5"></line>
                <g id="H-reference" transform="translate(76.976562, 430.500000)" fill="#27AAE1" fill-rule="nonzero">
                    <path d="M-1.22124533e-15,70.459 L2.685548,70.459 L12.011738,45.9961 L44.775438,45.9961 L54.150438,70.459 L56.787138,70.459 L29.638638,0 L27.148438,0 L-1.22124533e-15,70.459 Z M28.369138,3.3203 L28.466838,3.3203 L43.896438,43.75 L12.890638,43.75 L28.369138,3.3203 Z" id="Shape"></path>
                </g>
                <line x1="0" y1="500.959" x2="2773" y2="500.959" id="Baseline-M" stroke="#27AAE1" stroke-width="0.5"></line>
                <line x1="0" y1="430.499" x2="2773" y2="430.499" id="Capline-M" stroke="#27AAE1" stroke-width="0.5"></line>
                <g id="H-reference" transform="translate(76.976562, 860.500000)" fill="#27AAE1" fill-rule="nonzero">
                    <path d="M-1.22124533e-15,70.459 L2.685548,70.459 L12.011738,45.9961 L44.775438,45.9961 L54.150438,70.459 L56.787138,70.459 L29.638638,0 L27.148438,0 L-1.22124533e-15,70.459 Z M28.369138,3.3203 L28.466838,3.3203 L43.896438,43.75 L12.890638,43.75 L28.369138,3.3203 Z" id="Shape"></path>
                </g>
                <line x1="0" y1="930.959" x2="2773" y2="930.959" id="Baseline-L" stroke="#27AAE1" stroke-width="0.5"></line>
                <line x1="0" y1="860.499" x2="2773" y2="860.499" id="Capline-L" stroke="#27AAE1" stroke-width="0.5"></line>
                <line x1="1128.3" y1="405.749" x2="1128.3" y2="525.079" id="left-margin" stroke="#00AEEF" stroke-width="0.5"></line>
                <line x1="1245.39" y1="405.749" x2="1245.39" y2="525.079" id="right-margin" stroke="#00AEEF" stroke-width="0.5"></line>
            </g>
            <g id="Symbols" transform="translate(1386.249300, 620.511700)" fill="#000000">
                <g id="Semibold-L" transform="translate(592.000000, 835.208300)">
                    <path d="M88.6568182,23.6418182 C98.4495799,23.6418182 106.388182,31.5804201 106.388182,41.3731818 L106.388,72.603 L111.369644,72.603317 C115.796919,72.603317 119.435245,69.2254197 119.847964,64.9062812 L119.886953,64.0860074 L119.886953,18.6603562 C119.886953,14.2330807 116.509056,10.5947554 112.189918,10.1820364 L111.369644,10.1430466 L65.9439926,10.1430466 C61.5167171,10.1430466 57.8783918,13.5209439 57.4656728,17.8400824 L57.426683,18.6603562 L57.4266364,23.641 L88.6568182,23.6418182 Z M47.2836364,17.7313636 C47.2836364,7.93860191 55.2222383,0 65.015,0 L112.298636,0 C122.091398,0 130.03,7.93860191 130.03,17.7313636 L130.03,65.015 C130.03,74.8077617 122.091398,82.7463636 112.298636,82.7463636 L106.388,82.746 L106.388182,88.6568182 C106.388182,98.4495799 98.4495799,106.388182 88.6568182,106.388182 L82.746,106.387 L82.7463636,115.81 C82.7463636,123.663489 76.3798528,130.03 68.5263636,130.03 L14.22,130.03 C6.36651086,130.03 -8.14581805e-16,123.663489 0,115.81 L0,61.5036364 C-2.73813187e-15,53.6501472 6.36651086,47.2836364 14.22,47.2836364 L68.5263636,47.2836364 C76.3798528,47.2836364 82.7463636,53.6501472 82.7463636,61.5036364 L82.746,96.244 L87.7278256,96.2451352 C92.1551011,96.2451352 95.7934264,92.8672379 96.2061454,88.5480994 L96.2451352,87.7278256 L96.2451352,42.3021744 C96.2451352,37.8748989 92.8672379,34.2365736 88.5480994,33.8238546 L87.7278256,33.7848648 L42.3021744,33.7848648 C37.8748989,33.7848648 34.2365736,37.1627621 33.8238546,41.4819006 L33.7848648,42.3021744 L33.7848182,47.2828182 L23.6418182,47.2828182 L23.6418182,41.3731818 C23.6418182,31.5804201 31.5804201,23.6418182 41.3731818,23.6418182 L47.2836364,23.641 L47.2836364,17.7313636 Z" id="Combined-Shape"></path>
                </g>
                <g id="Regular-L" transform="translate(0.000000, 836.428300)">
                    <path d="M86.7272727,31.8 L40.4727273,31.8 C35.9646661,31.8 32.2599513,35.2395347 31.8397013,39.6374858 L31.8,40.4727273 L31.7992727,46.2542727 L66.7254545,46.2545455 C74.5789437,46.2545455 80.9454545,52.6210563 80.9454545,60.4745455 L80.9452727,95.3992727 L86.7272727,95.4 C91.2353339,95.4 94.9400487,91.9604653 95.3602987,87.5625142 L95.4,86.7272727 L95.4,40.4727273 C95.4,35.9646661 91.9604653,32.2599513 87.5625142,31.8397013 L86.7272727,31.8 Z M104.072545,72.272 L109.854545,72.2727273 C114.362607,72.2727273 118.067321,68.8331925 118.487571,64.4352415 L118.527273,63.6 L118.527273,17.3454545 C118.527273,12.8373934 115.087738,9.13267855 110.689787,8.71242858 L109.854545,8.67272727 L63.6,8.67272727 C59.0919388,8.67272727 55.387224,12.112262 54.966974,16.510213 L54.9272727,17.3454545 L54.9265455,23.127 L86.7272727,23.1272727 C96.3069028,23.1272727 104.072727,30.8930972 104.072727,40.4727273 L104.072545,72.272 Z M104.072727,86.7272727 C104.072727,96.3069028 96.3069028,104.072727 86.7272727,104.072727 L80.9452727,104.072273 L80.9454545,112.98 C80.9454545,120.833489 74.5789437,127.2 66.7254545,127.2 L14.22,127.2 C6.36651086,127.2 7.93707461e-15,120.833489 0,112.98 L0,60.4745455 C-9.61775034e-16,52.6210563 6.36651086,46.2545455 14.22,46.2545455 L23.1272727,46.2542727 L23.1272727,40.4727273 C23.1272727,30.8930972 30.8930972,23.1272727 40.4727273,23.1272727 L46.2545455,23.127 L46.2545455,17.3454545 C46.2545455,7.76582452 54.02037,0 63.6,0 L109.854545,0 C119.434175,0 127.2,7.76582452 127.2,17.3454545 L127.2,63.6 C127.2,73.17963 119.434175,80.9454545 109.854545,80.9454545 L104.072545,80.945 L104.072727,86.7272727 Z" id="Combined-Shape"></path>
                </g>
                <g id="Semibold-M" transform="translate(605.790700, 419.208300)">
                    <path d="M83.4950909,56.98 L87.405,56.9804545 C90.8796094,56.9804545 93.7350358,54.3294169 94.0589455,50.9396754 L94.0895455,50.2959091 L94.0895455,14.645 C94.0895455,11.1703906 91.4385078,8.31496416 88.0487663,7.99105451 L87.405,7.96045455 L51.7540909,7.96045455 C48.2794815,7.96045455 45.4240551,10.6114922 45.1001454,14.0012337 L45.0695455,14.645 L45.0690909,18.554 L69.5795455,18.5545455 C77.2650898,18.5545455 83.4954545,24.7849102 83.4954545,32.4704545 L83.4950909,56.98 Z M83.4954545,69.5795455 C83.4954545,77.2650898 77.2650898,83.4954545 69.5795455,83.4954545 L64.9405455,83.4945455 L64.9409091,87.83 C64.9409091,95.6834891 58.5743982,102.05 50.7209091,102.05 L14.22,102.05 C6.36651086,102.05 2.73813187e-15,95.6834891 0,87.83 L0,51.3290909 C-9.61775034e-16,43.4756018 6.36651086,37.1090909 14.22,37.1090909 L50.7209091,37.1090909 C58.5743982,37.1090909 64.9409091,43.4756018 64.9409091,51.3290909 L64.9405455,75.5345455 L68.8504545,75.535 C72.325064,75.535 75.1804904,72.8839624 75.5044,69.4942209 L75.535,68.8504545 L75.535,33.1995455 C75.535,29.724936 72.8839624,26.8695096 69.4942209,26.5456 L68.8504545,26.515 L33.1995455,26.515 C29.724936,26.515 26.8695096,29.1660376 26.5456,32.5557791 L26.515,33.1995455 L26.5145455,37.1085455 L18.5545455,37.1085455 L18.5545455,32.4704545 C18.5545455,24.7849102 24.7849102,18.5545455 32.4704545,18.5545455 L37.1090909,18.554 L37.1090909,13.9159091 C37.1090909,6.23036472 43.3394556,0 51.025,0 L88.1340909,0 C95.8196353,0 102.05,6.23036472 102.05,13.9159091 L102.05,51.025 C102.05,58.7105444 95.8196353,64.9409091 88.1340909,64.9409091 L83.4950909,64.94 L83.4954545,69.5795455 Z" id="Combined-Shape"></path>
                </g>
                <g id="Regular-M" transform="translate(13.790700, 420.428300)">
                    <path d="M67.9159091,18.1109091 C75.4176933,18.1109091 81.4990909,24.1923067 81.4990909,31.6940909 L81.499,56.596 L86.0268182,56.5965909 C89.5570696,56.5965909 92.4582224,53.9030999 92.7873191,50.4590755 L92.8184091,49.805 L92.8184091,13.5831818 C92.8184091,10.0529304 90.1249181,7.1517776 86.6808937,6.8226809 L86.0268182,6.79159091 L49.805,6.79159091 C46.2747486,6.79159091 43.3735958,9.48508191 43.0444991,12.9291063 L43.0134091,13.5831818 L43.0128182,18.11 L67.9159091,18.1109091 Z M36.2218182,13.5831818 C36.2218182,6.08139765 42.3032158,0 49.805,0 L86.0268182,0 C93.5286024,0 99.61,6.08139765 99.61,13.5831818 L99.61,49.805 C99.61,57.3067842 93.5286024,63.3881818 86.0268182,63.3881818 L81.499,63.388 L81.4990909,67.9159091 C81.4990909,75.4176933 75.4176933,81.4990909 67.9159091,81.4990909 L63.388,81.498 L63.3881818,85.39 C63.3881818,93.2434891 57.021671,99.61 49.1681818,99.61 L14.22,99.61 C6.36651086,99.61 9.61775034e-16,93.2434891 0,85.39 L0,50.4418182 C-9.61775034e-16,42.588329 6.36651086,36.2218182 14.22,36.2218182 L49.1681818,36.2218182 C57.021671,36.2218182 63.3881818,42.588329 63.3881818,50.4418182 L63.388,74.706 L67.9159091,74.7075 C71.4461605,74.7075 74.3473133,72.014009 74.67641,68.5699846 L74.7075,67.9159091 L74.7075,31.6940909 C74.7075,28.1638395 72.014009,25.2626867 68.5699846,24.93359 L67.9159091,24.9025 L31.6940909,24.9025 C28.1638395,24.9025 25.2626867,27.595991 24.93359,31.0400154 L24.9025,31.6940909 L24.9019091,36.2209091 L18.1109091,36.2209091 L18.1109091,31.6940909 C18.1109091,24.1923067 24.1923067,18.1109091 31.6940909,18.1109091 L36.2218182,18.11 L36.2218182,13.5831818 Z" id="Combined-Shape"></path>
                </g>
                <g id="Semibold-S" transform="translate(616.790700, -0.000000)">
                    <path d="M54.8659091,14.6309091 C60.9262301,14.6309091 65.8390909,19.5437699 65.8390909,25.6040909 L65.839,44.931 L68.9219045,44.9310845 C71.6617557,44.9310845 73.9133595,42.8406485 74.1687736,40.1677186 L74.1929027,39.6600863 L74.1929027,11.5480955 C74.1929027,8.80824429 72.1024667,6.55664053 69.4295368,6.30122643 L68.9219045,6.27709728 L40.8099137,6.27709728 C38.0700625,6.27709728 35.8184587,8.36753331 35.5630446,11.0404632 L35.5389155,11.5480955 L35.5388182,14.63 L54.8659091,14.6309091 Z M29.2618182,10.9731818 C29.2618182,4.91286084 34.174679,0 40.235,0 L69.4968182,0 C75.5571392,0 80.47,4.91286084 80.47,10.9731818 L80.47,40.235 C80.47,46.295321 75.5571392,51.2081818 69.4968182,51.2081818 L65.839,51.208 L65.8390909,54.8659091 C65.8390909,60.9262301 60.9262301,65.8390909 54.8659091,65.8390909 L51.208,65.838 L51.2081818,66.25 C51.2081818,74.1034891 44.841671,80.47 36.9881818,80.47 L14.22,80.47 C6.36651086,80.47 2.73813187e-15,74.1034891 0,66.25 L0,43.4818182 C8.14581805e-16,35.628329 6.36651086,29.2618182 14.22,29.2618182 L36.9881818,29.2618182 C44.841671,29.2618182 51.2081818,35.628329 51.2081818,43.4818182 L51.208,59.561 L54.2909954,59.5619936 C57.0308466,59.5619936 59.2824504,57.4715576 59.5378645,54.7986277 L59.5619936,54.2909954 L59.5619936,26.1790046 C59.5619936,23.4391534 57.4715576,21.1875496 54.7986277,20.9321355 L54.2909954,20.9080064 L26.1790046,20.9080064 C23.4391534,20.9080064 21.1875496,22.9984424 20.9321355,25.6713723 L20.9080064,26.1790046 L20.9079091,29.2609091 L14.6309091,29.2609091 L14.6309091,25.6040909 C14.6309091,19.5437699 19.5437699,14.6309091 25.6040909,14.6309091 L29.2618182,14.63 L29.2618182,10.9731818 Z" id="Combined-Shape"></path>
                </g>
                <g id="Regular-S" transform="translate(23.790700, 0.830100)">
                    <path d="M53.7681818,19.715 L25.0918182,19.715 C22.296962,19.715 20.0001553,21.8474034 19.7396136,24.5739947 L19.715,25.0918182 L19.7141818,28.6761818 L35.9636364,28.6763636 C43.8171255,28.6763636 50.1836364,35.0428745 50.1836364,42.8963636 L50.1831818,59.1441818 L53.7681818,59.145 C56.563038,59.145 58.8598447,57.0125966 59.1203864,54.2860053 L59.145,53.7681818 L59.145,25.0918182 C59.145,22.296962 57.0125966,20.0001553 54.2860053,19.7396136 L53.7681818,19.715 Z M64.5213636,44.806 L68.1063636,44.8068182 C70.9012198,44.8068182 73.1980265,42.6744148 73.4585683,39.9478235 L73.4831818,39.43 L73.4831818,10.7536364 C73.4831818,7.95878019 71.3507784,5.66197351 68.6241871,5.40143174 L68.1063636,5.37681818 L39.43,5.37681818 C36.6351438,5.37681818 34.3383371,7.50922156 34.0777954,10.2358129 L34.0531818,10.7536364 L34.0523636,14.338 L53.7681818,14.3381818 C59.7072512,14.3381818 64.5218182,19.1527488 64.5218182,25.0918182 L64.5213636,44.806 Z M64.5218182,53.7681818 C64.5218182,59.7072512 59.7072512,64.5218182 53.7681818,64.5218182 L50.1831818,64.5211818 L50.1836364,64.64 C50.1836364,72.4934891 43.8171255,78.86 35.9636364,78.86 L14.22,78.86 C6.36651086,78.86 9.61775034e-16,72.4934891 0,64.64 L0,42.8963636 C-9.61775034e-16,35.0428745 6.36651086,28.6763636 14.22,28.6763636 L14.3381818,28.6761818 L14.3381818,25.0918182 C14.3381818,19.1527488 19.1527488,14.3381818 25.0918182,14.3381818 L28.6763636,14.338 L28.6763636,10.7536364 C28.6763636,4.81456699 33.4909306,0 39.43,0 L68.1063636,0 C74.045433,0 78.86,4.81456699 78.86,10.7536364 L78.86,39.43 C78.86,45.3690694 74.045433,50.1836364 68.1063636,50.1836364 L64.5213636,50.183 L64.5218182,53.7681818 Z" id="Combined-Shape"></path>
                </g>
            </g>
        </g>
    </g>
</svg>