<svg width="16" height="16" viewBox="0 0 16 16" fill="none" xmlns="http://www.w3.org/2000/svg">
<g clip-path="url(#clip0_1146_1244)">
<path fill-rule="evenodd" clip-rule="evenodd" d="M13.3333 0.585785C12.7814 0.585785 12.2521 0.80502 11.8619 1.19526L5.52857 7.52859C5.44313 7.61403 5.38252 7.72109 5.35321 7.83831L4.68654 10.505C4.62975 10.7322 4.69632 10.9725 4.8619 11.1381C5.02749 11.3037 5.26781 11.3702 5.495 11.3134L8.16166 10.6468C8.27888 10.6175 8.38594 10.5568 8.47138 10.4714L14.8047 4.13807C15.195 3.74783 15.4142 3.21855 15.4142 2.66667C15.4142 2.11478 15.195 1.5855 14.8047 1.19526C14.4145 0.80502 13.8852 0.585785 13.3333 0.585785ZM12.8047 2.13807C12.9449 1.99788 13.135 1.91912 13.3333 1.91912C13.5316 1.91912 13.7217 1.99788 13.8619 2.13807C14.0021 2.27826 14.0809 2.4684 14.0809 2.66667C14.0809 2.86493 14.0021 3.05507 13.8619 3.19526L7.65914 9.39802L6.24955 9.75042L6.60195 8.34083L12.8047 2.13807Z" fill="#04101E" fill-opacity="0.75"/>
<path d="M2.66663 2C2.13619 2 1.62749 2.21071 1.25241 2.58579C0.87734 2.96086 0.666626 3.46957 0.666626 4V13.3333C0.666626 13.8638 0.87734 14.3725 1.25241 14.7475C1.62748 15.1226 2.13619 15.3333 2.66663 15.3333H12C12.5304 15.3333 13.0391 15.1226 13.4142 14.7475C13.7892 14.3725 14 13.8638 14 13.3333V8.66667C14 8.29848 13.7015 8 13.3333 8C12.9651 8 12.6666 8.29848 12.6666 8.66667V13.3333C12.6666 13.5101 12.5964 13.6797 12.4714 13.8047C12.3463 13.9298 12.1768 14 12 14H2.66663C2.48982 14 2.32025 13.9298 2.19522 13.8047C2.0702 13.6797 1.99996 13.5101 1.99996 13.3333V4C1.99996 3.82319 2.0702 3.65362 2.19522 3.52859C2.32025 3.40357 2.48981 3.33333 2.66663 3.33333H7.33329C7.70148 3.33333 7.99996 3.03486 7.99996 2.66667C7.99996 2.29848 7.70148 2 7.33329 2H2.66663Z" fill="#04101E" fill-opacity="0.75"/>
</g>
<defs>
<clipPath id="clip0_1146_1244">
<rect width="16" height="16" fill="white"/>
</clipPath>
</defs>
</svg>
