<svg width="16" height="16" viewBox="0 0 16 16" fill="none" xmlns="http://www.w3.org/2000/svg">
<path fill-rule="evenodd" clip-rule="evenodd" d="M5.29688 8.00017C5.29688 9.49117 6.50587 10.7002 7.99687 10.7002C9.48887 10.7002 10.6969 9.49117 10.6969 8.00017C10.6969 6.50917 9.48887 5.30017 7.99687 5.30017C6.50587 5.30017 5.29688 6.50917 5.29688 8.00017ZM9.19687 8.00017C9.19687 8.66317 8.65987 9.20016 7.99687 9.20016C7.33487 9.20016 6.79688 8.66317 6.79688 8.00017C6.79688 7.33717 7.33487 6.80017 7.99687 6.80017C8.65987 6.80017 9.19687 7.33717 9.19687 8.00017Z" fill="#303233"/>
<path fill-rule="evenodd" clip-rule="evenodd" d="M5.2789 12.715C5.4309 12.802 5.5509 12.936 5.6219 13.096L6.0019 13.951C6.1739 14.337 6.4539 14.665 6.8079 14.896L6.8099 14.898C7.1649 15.127 7.5789 15.25 8.0019 15.25C8.4249 15.25 8.8379 15.127 9.1929 14.898L9.1949 14.896C9.5499 14.665 9.8299 14.337 10.0009 13.951L10.3809 13.097C10.4519 12.938 10.5709 12.806 10.7209 12.718C10.8729 12.631 11.0489 12.594 11.2229 12.612L12.1519 12.711C12.5729 12.755 12.9979 12.677 13.3749 12.485C13.7519 12.293 14.0659 11.995 14.2769 11.629C14.4889 11.262 14.5899 10.842 14.5679 10.419C14.5449 9.997 14.4009 9.589 14.1519 9.247L13.6029 8.493C13.4999 8.351 13.4449 8.179 13.4459 8.004V8C13.4459 7.825 13.5009 7.654 13.6049 7.512L14.1549 6.756C14.4039 6.414 14.5479 6.007 14.5699 5.584C14.5929 5.161 14.4919 4.742 14.2799 4.375C14.0689 4.008 13.7549 3.711 13.3779 3.519C13.0009 3.327 12.5759 3.248 12.1549 3.293L11.2259 3.392C11.0519 3.41 10.8759 3.373 10.7249 3.286C10.5739 3.198 10.4549 3.065 10.3849 2.906L10.3829 2.902L9.9999 2.048C9.8299 1.663 9.5489 1.334 9.1939 1.103C8.8389 0.872997 8.4249 0.75 8.0019 0.75C7.5779 0.75 7.1639 0.872997 6.8089 1.103C6.4539 1.334 6.1739 1.663 6.0019 2.05L5.6209 2.906C5.5509 3.065 5.4319 3.198 5.2819 3.286C5.1299 3.373 4.9539 3.41 4.7799 3.392L3.8479 3.293C3.4269 3.248 3.0019 3.327 2.6249 3.519C2.2479 3.711 1.9349 4.008 1.7229 4.375C1.5109 4.742 1.4099 5.161 1.4329 5.584C1.4549 6.007 1.5989 6.414 1.8489 6.756L2.3989 7.512C2.5019 7.654 2.5569 7.825 2.5569 8C2.5569 8.175 2.5019 8.346 2.3989 8.488L1.8489 9.244C1.5989 9.586 1.4549 9.993 1.4329 10.416C1.4099 10.839 1.5109 11.259 1.7229 11.625C1.9349 11.992 2.2479 12.289 2.6249 12.481C3.0019 12.673 3.4269 12.751 3.8479 12.707L4.7769 12.608C4.9519 12.59 5.1269 12.627 5.2789 12.715ZM7.3719 13.341L6.9929 12.487C6.7929 12.037 6.4559 11.662 6.0289 11.416C5.6029 11.17 5.1099 11.065 4.6209 11.116L3.6909 11.216C3.5579 11.229 3.4249 11.205 3.3059 11.144C3.1869 11.084 3.0889 10.99 3.0219 10.875C2.9549 10.76 2.9239 10.628 2.9309 10.495C2.9379 10.362 2.9829 10.234 3.0609 10.126L3.6119 9.37C3.9009 8.972 4.0569 8.492 4.0569 8C4.0569 7.508 3.9009 7.028 3.6119 6.63L3.0609 5.874C2.9829 5.766 2.9379 5.638 2.9309 5.505C2.9239 5.372 2.9559 5.24 3.0219 5.125C3.0889 5.01 3.1869 4.916 3.3059 4.856C3.4239 4.795 3.5579 4.77 3.6899 4.784L4.6239 4.884C5.1129 4.935 5.6059 4.83 6.0319 4.584L6.0339 4.583C6.4589 4.336 6.7949 3.961 6.9929 3.512L7.3729 2.659C7.4269 2.537 7.5149 2.434 7.6259 2.361C7.7379 2.289 7.8679 2.25 8.0019 2.25C8.1349 2.25 8.2649 2.289 8.3769 2.361C8.4879 2.434 8.5769 2.537 8.6309 2.659L8.6319 2.661L9.0139 3.515C9.2109 3.961 9.5469 4.336 9.9719 4.583L9.9739 4.584C10.3999 4.83 10.8929 4.935 11.3829 4.884L12.3129 4.784C12.4449 4.77 12.5789 4.795 12.6969 4.856C12.8159 4.916 12.9149 5.01 12.9809 5.125C13.0479 5.24 13.0799 5.372 13.0729 5.505C13.0659 5.638 13.0199 5.766 12.9419 5.874L12.3909 6.63C12.1019 7.028 11.9459 7.507 11.9459 7.998C11.9439 8.491 12.0979 8.972 12.3869 9.371L12.3889 9.374L12.9389 10.13C13.0169 10.237 13.0629 10.366 13.0699 10.498C13.0769 10.631 13.0449 10.764 12.9779 10.879C12.9119 10.994 12.8129 11.088 12.6939 11.148C12.5759 11.208 12.4419 11.233 12.3099 11.219L11.3799 11.12C10.8899 11.069 10.3969 11.174 9.9709 11.42C9.5469 11.665 9.2109 12.038 9.0109 12.485L8.6309 13.341C8.5769 13.463 8.4879 13.566 8.3769 13.639C8.2649 13.711 8.1349 13.75 8.0019 13.75C7.8679 13.75 7.7379 13.711 7.6259 13.639C7.5149 13.566 7.4269 13.463 7.3719 13.341Z" fill="#303233"/>
</svg>
