<svg width="16" height="16" viewBox="0 0 16 16" fill="none" xmlns="http://www.w3.org/2000/svg">
<path fill-rule="evenodd" clip-rule="evenodd" d="M4.25 1C3.14543 1 2.25 1.89543 2.25 3V13C2.25 14.1046 3.14543 15 4.25 15H11.75C12.8546 15 13.75 14.1046 13.75 13V4.70919C13.75 4.35115 13.6078 4.00777 13.3546 3.75459L10.9954 1.39541C10.7422 1.14223 10.3989 1 10.0408 1H4.25ZM3.75 13V3C3.75 2.72386 3.97386 2.5 4.25 2.5H9C9.13807 2.5 9.25 2.61193 9.25 2.75V5C9.25 5.41421 9.58579 5.75 10 5.75H12C12.1381 5.75 12.25 5.86193 12.25 6V13C12.25 13.2761 12.0261 13.5 11.75 13.5H4.25C3.97386 13.5 3.75 13.2761 3.75 13ZM10.75 3.12071C10.75 3.07617 10.8039 3.05386 10.8354 3.08536L11.9146 4.16464C11.9461 4.19614 11.9238 4.25 11.8793 4.25H10.8C10.7724 4.25 10.75 4.22761 10.75 4.2V3.12071Z" fill="#303233"/>
</svg>
