<svg width="16" height="16" viewBox="0 0 16 16" fill="none" xmlns="http://www.w3.org/2000/svg">
<path fill-rule="evenodd" clip-rule="evenodd" d="M0.75 4.00002C0.749991 2.75737 1.75735 1.75 3 1.75H6.79318C7.3122 1.75 7.80997 1.9562 8.17694 2.32324C8.45015 2.59649 8.82072 2.75 9.20712 2.75H13.0001C14.2427 2.75 15.2501 3.75736 15.2501 5V12C15.2501 13.2426 14.2427 14.25 13.0001 14.25H3.00006C1.75742 14.25 0.750065 13.2427 0.750056 12L0.75 4.00002ZM3.00015 4.25C2.58594 4.25 2.25015 4.58579 2.25015 5V12C2.25015 12.4142 2.58594 12.75 3.00015 12.75H13.0002C13.4144 12.75 13.7502 12.4142 13.7502 12V5C13.7502 4.58579 13.4144 4.25 13.0002 4.25H3.00015Z" fill="#303233"/>
</svg>
