<svg width="16" height="16" viewBox="0 0 16 16" fill="none" xmlns="http://www.w3.org/2000/svg">
<g clip-path="url(#clip0_7685_2)">
<path d="M0.75 3.00002C0.749991 1.75737 1.75735 0.75 3 0.75H6.79318C7.3122 0.75 7.80997 0.956203 8.17694 1.32324C8.45015 1.59649 8.82072 1.75 9.20712 1.75H12C12.9808 1.75 13.8133 2.37718 14.1218 3.25007C14.2598 3.6406 14.0551 4.06909 13.6646 4.20713C13.274 4.34517 12.8456 4.14047 12.7075 3.74993C12.6042 3.45763 12.3254 3.25 12 3.25L3.00015 3.25C2.58594 3.25 2.25015 3.58579 2.25015 4L2.25 10C2.25 10.4142 2.58579 10.75 3 10.75H5.5C5.91421 10.75 6.25 11.0858 6.25 11.5C6.25 11.9142 5.91421 12.25 5.5 12.25H3C1.75736 12.25 0.75 11.2426 0.75 10V4C0.75 3.99811 0.750002 3.99623 0.750007 3.99435L0.75 3.00002Z" fill="#303233"/>
<path fill-rule="evenodd" clip-rule="evenodd" d="M11.189 5.25H11.811C12.3541 5.24999 12.8075 5.24998 13.1776 5.28072C13.5638 5.31279 13.926 5.38215 14.2677 5.55961C14.7699 5.82052 15.1795 6.23005 15.4404 6.73232C15.6179 7.07396 15.6872 7.43624 15.7193 7.82239C15.75 8.19254 15.75 8.64587 15.75 9.189V11.811C15.75 12.3541 15.75 12.8075 15.7193 13.1776C15.6872 13.5638 15.6179 13.926 15.4404 14.2677C15.1795 14.7699 14.7699 15.1795 14.2677 15.4404C13.926 15.6179 13.5638 15.6872 13.1776 15.7193C12.8075 15.75 12.3541 15.75 11.811 15.75H11.189C10.6459 15.75 10.1926 15.75 9.82239 15.7193C9.43624 15.6872 9.07396 15.6179 8.73232 15.4404C8.23005 15.1795 7.82052 14.7699 7.55961 14.2677C7.38215 13.926 7.31279 13.5638 7.28072 13.1776C7.24998 12.8075 7.24999 12.3541 7.25 11.811V9.18904C7.24999 8.6459 7.24998 8.19255 7.28072 7.82239C7.31279 7.43624 7.38215 7.07396 7.55961 6.73232C7.82052 6.23005 8.23005 5.82052 8.73232 5.55961C9.07396 5.38215 9.43624 5.31279 9.82239 5.28072C10.1926 5.24998 10.6459 5.24999 11.189 5.25ZM11.22 6.75C10.6379 6.75 10.2472 6.7506 9.94653 6.77557C9.65482 6.7998 9.51562 6.84303 9.42378 6.89073C9.19548 7.00933 9.00933 7.19548 8.89073 7.42378C8.84303 7.51562 8.7998 7.65482 8.77557 7.94653C8.7506 8.24722 8.75 8.63792 8.75 9.22V11.78C8.75 12.3621 8.7506 12.7528 8.77557 13.0535C8.7998 13.3452 8.84303 13.4844 8.89073 13.5762C9.00933 13.8045 9.19548 13.9907 9.42378 14.1093C9.51562 14.157 9.65482 14.2002 9.94653 14.2244C10.2472 14.2494 10.6379 14.25 11.22 14.25H11.78C12.3621 14.25 12.7528 14.2494 13.0535 14.2244C13.3452 14.2002 13.4844 14.157 13.5762 14.1093C13.8045 13.9907 13.9907 13.8045 14.1093 13.5762C14.157 13.4844 14.2002 13.3452 14.2244 13.0535C14.2494 12.7528 14.25 12.3621 14.25 11.78V9.22C14.25 8.63792 14.2494 8.24722 14.2244 7.94653C14.2002 7.65482 14.157 7.51562 14.1093 7.42378C13.9907 7.19548 13.8045 7.00933 13.5762 6.89073C13.4844 6.84303 13.3452 6.7998 13.0535 6.77557C12.7528 6.7506 12.3621 6.75 11.78 6.75H11.22Z" fill="#303233"/>
</g>
<defs>
<clipPath id="clip0_7685_2">
<rect width="16" height="16" fill="white"/>
</clipPath>
</defs>
</svg>
