<svg width="16" height="16" viewBox="0 0 16 16" fill="none" xmlns="http://www.w3.org/2000/svg">
<path fill-rule="evenodd" clip-rule="evenodd" d="M11.3448 4.62362C9.86129 3.15374 7.52462 2.79267 5.6289 3.88716C4.26224 4.6762 3.43568 6.04135 3.28024 7.50166C3.2364 7.91355 2.86696 8.2119 2.45507 8.16806C2.04318 8.12422 1.74482 7.75478 1.78866 7.34289C1.99267 5.42633 3.07947 3.62702 4.8789 2.58812C7.53452 1.0549 10.8477 1.69242 12.7639 3.95013L12.7823 3.88156C12.8895 3.48146 13.3007 3.24403 13.7008 3.35123C14.1009 3.45844 14.3384 3.86969 14.2312 4.26979L13.7576 6.03725C13.7061 6.22939 13.5804 6.3932 13.4081 6.49266C13.2359 6.59211 13.0312 6.61907 12.839 6.56758L11.0716 6.09399C10.6715 5.98679 10.434 5.57553 10.5412 5.17543C10.6382 4.81367 10.9837 4.58489 11.3448 4.62362ZM13.5515 7.83194C13.9634 7.87579 14.2617 8.24523 14.2179 8.65711C14.0139 10.5737 12.9271 12.373 11.1277 13.4119C8.47215 14.945 5.15912 14.3077 3.24292 12.0502L3.22463 12.1185C3.11742 12.5186 2.70617 12.756 2.30607 12.6488C1.90597 12.5416 1.66854 12.1303 1.77574 11.7302L2.24933 9.96276C2.35654 9.56266 2.76779 9.32523 3.16789 9.43243L4.93535 9.90602C5.33545 10.0132 5.57289 10.4245 5.46568 10.8246C5.36871 11.1865 5.02299 11.4153 4.66176 11.3764C6.14523 12.8463 8.48192 13.2073 10.3777 12.1128C11.7443 11.3238 12.5709 9.95866 12.7263 8.49835C12.7702 8.08646 13.1396 7.7881 13.5515 7.83194Z" fill="#303233"/>
</svg>
