<svg width="16" height="16" viewBox="0 0 16 16" fill="none" xmlns="http://www.w3.org/2000/svg">
<path d="M5.52851 5.5286C5.78886 5.26825 6.21097 5.26825 6.47132 5.5286L7.99992 7.05719L9.52851 5.5286C9.78886 5.26825 10.211 5.26825 10.4713 5.5286C10.7317 5.78895 10.7317 6.21106 10.4713 6.47141L8.94273 8L10.4713 9.5286C10.7317 9.78895 10.7317 10.2111 10.4713 10.4714C10.211 10.7318 9.78886 10.7318 9.52851 10.4714L7.99992 8.94281L6.47132 10.4714C6.21097 10.7318 5.78886 10.7318 5.52851 10.4714C5.26816 10.2111 5.26816 9.78895 5.52851 9.5286L7.05711 8L5.52851 6.47141C5.26816 6.21106 5.26816 5.78895 5.52851 5.5286Z" fill="#04101E" fill-opacity="0.75"/>
<path fill-rule="evenodd" clip-rule="evenodd" d="M1.33325 3.33333C1.33325 2.22876 2.22868 1.33333 3.33325 1.33333H12.6666C13.7712 1.33333 14.6666 2.22876 14.6666 3.33333V12.6667C14.6666 13.7712 13.7712 14.6667 12.6666 14.6667H3.33325C2.22868 14.6667 1.33325 13.7712 1.33325 12.6667V3.33333ZM3.33325 2.66667C2.96506 2.66667 2.66659 2.96514 2.66659 3.33333V12.6667C2.66659 13.0349 2.96506 13.3333 3.33325 13.3333H12.6666C13.0348 13.3333 13.3333 13.0349 13.3333 12.6667V3.33333C13.3333 2.96514 13.0348 2.66667 12.6666 2.66667H3.33325Z" fill="#04101E" fill-opacity="0.75"/>
</svg>
