<svg width="16" height="16" viewBox="0 0 16 16" fill="none" xmlns="http://www.w3.org/2000/svg">
<path d="M7.99963 0.999634C11.8655 0.999634 14.9994 4.13382 14.9996 7.99963C14.9996 11.8656 11.8656 14.9996 7.99963 14.9996C7.76442 14.9996 7.53163 14.9872 7.30237 14.9645L7.40198 13.9694C7.59847 13.9888 7.79803 13.9996 7.99963 13.9996C11.3133 13.9996 13.9996 11.3133 13.9996 7.99963C13.9994 4.6861 11.3132 1.99963 7.99963 1.99963C4.68625 1.99986 1.99984 4.68624 1.99963 7.99963C1.99963 8.96388 2.22826 9.87499 2.63245 10.6823L1.73792 11.1295C1.2663 10.1877 0.999634 9.12467 0.999634 7.99963C0.999845 4.13394 4.13394 0.999832 7.99963 0.999634Z" fill="#303233"/>
</svg>
