<svg width="16" height="16" viewBox="0 0 16 16" fill="none" xmlns="http://www.w3.org/2000/svg">
<path d="M9.43127 1.14612C9.46882 1.15392 9.50626 1.16407 9.54358 1.17249L9.32288 2.14709C8.89722 2.0513 8.45423 1.99963 7.99963 1.99963C4.68625 1.99983 1.99989 4.68626 1.99963 7.99963C1.99968 11.3132 4.68612 13.9994 7.99963 13.9996C11.3133 13.9996 13.9996 11.3133 13.9996 7.99963C13.9996 7.79809 13.9888 7.59841 13.9694 7.40198L14.9645 7.30237C14.9871 7.53157 14.9996 7.76448 14.9996 7.99963C14.9996 11.8656 11.8656 14.9996 7.99963 14.9996C4.13384 14.9994 0.999677 11.8655 0.999634 7.99963C0.999861 4.53714 3.51466 1.66341 6.81702 1.1012L9.43127 1.14612Z" fill="#303233"/>
</svg>
