<svg width="16" height="16" viewBox="0 0 16 16" fill="none" xmlns="http://www.w3.org/2000/svg">
<path d="M7.99963 0.999634C11.8655 0.999634 14.9994 4.13382 14.9996 7.99963C14.9996 8.91815 14.8203 9.7946 14.4987 10.5983L13.5699 10.2272C13.8457 9.53827 13.9996 8.787 13.9996 7.99963C13.9994 4.6861 11.3132 1.99963 7.99963 1.99963C4.68625 1.99986 1.99984 4.68624 1.99963 7.99963C1.99963 11.3132 4.68612 13.9994 7.99963 13.9996C9.65649 13.9996 11.156 13.3276 12.2418 12.2418L12.9498 12.9498C11.6831 14.2166 9.93263 14.9996 7.99963 14.9996C4.13381 14.9994 0.999634 11.8655 0.999634 7.99963C0.999845 4.13394 4.13394 0.999832 7.99963 0.999634Z" fill="#303233"/>
</svg>
