<svg width="16" height="16" viewBox="0 0 16 16" fill="none" xmlns="http://www.w3.org/2000/svg">
<path d="M8 5C8.27614 5 8.5 5.22386 8.5 5.5V8C8.5 8.27614 8.27614 8.5 8 8.5C7.72386 8.5 7.5 8.27614 7.5 8V5.5C7.5 5.22386 7.72386 5 8 5Z" fill="#E31B57"/>
<path d="M8 10C7.72386 10 7.5 10.2239 7.5 10.5C7.5 10.7761 7.72386 11 8 11H8.00667C8.28281 11 8.50667 10.7761 8.50667 10.5C8.50667 10.2239 8.28281 10 8.00667 10H8Z" fill="#E31B57"/>
<path fill-rule="evenodd" clip-rule="evenodd" d="M1 8C1 4.13401 4.13401 1 8 1C11.866 1 15 4.13401 15 8C15 11.866 11.866 15 8 15C4.13401 15 1 11.866 1 8ZM8 2C4.68629 2 2 4.68629 2 8C2 11.3137 4.68629 14 8 14C11.3137 14 14 11.3137 14 8C14 4.68629 11.3137 2 8 2Z" fill="#E31B57"/>
</svg>
