<svg width="16" height="16" viewBox="0 0 16 16" fill="none" xmlns="http://www.w3.org/2000/svg">
<path d="M8.0005 6.00014C8.27665 6.00014 8.5005 6.22399 8.5005 6.50014V9.00014C8.5005 9.27628 8.27665 9.50014 8.0005 9.50014C7.72436 9.50014 7.5005 9.27628 7.5005 9.00014V6.50014C7.5005 6.22399 7.72436 6.00014 8.0005 6.00014Z" fill="#B55407"/>
<path d="M8.0005 11.0001C7.72436 11.0001 7.5005 11.224 7.5005 11.5001C7.5005 11.7763 7.72436 12.0001 8.0005 12.0001H8.00717C8.28331 12.0001 8.50717 11.7763 8.50717 11.5001C8.50717 11.224 8.28331 11.0001 8.00717 11.0001H8.0005Z" fill="#B55407"/>
<path fill-rule="evenodd" clip-rule="evenodd" d="M7.10107 1.66743C7.37564 1.51285 7.68541 1.43164 8.0005 1.43164C8.31559 1.43164 8.62537 1.51285 8.89993 1.66743C9.1745 1.82202 9.40459 2.04475 9.568 2.31416L9.56944 2.31653L15.2202 11.7501C15.3803 12.0273 15.4649 12.3416 15.4658 12.6617C15.4667 12.9819 15.3838 13.2966 15.2253 13.5748C15.0667 13.8529 14.8382 14.0846 14.5623 14.247C14.2864 14.4093 13.9728 14.4966 13.6527 14.5001L13.6472 14.5002L2.34834 14.5001C2.02824 14.4966 1.71464 14.4093 1.43874 14.247C1.16284 14.0846 0.934255 13.8529 0.775731 13.5748C0.617207 13.2966 0.534267 12.9819 0.535163 12.6617C0.53606 12.3416 0.620761 12.0273 0.78084 11.7501L0.784847 11.7432L6.43157 2.31653L6.8605 2.57347L6.433 2.31416C6.59642 2.04475 6.82651 1.82202 7.10107 1.66743ZM7.28865 2.83172L7.288 2.83278L1.64507 12.2532C1.57344 12.3785 1.53556 12.5202 1.53516 12.6645C1.53475 12.8101 1.57245 12.9531 1.64451 13.0796C1.71657 13.206 1.82047 13.3113 1.94588 13.3851C2.07058 13.4585 2.21223 13.4981 2.35688 13.5001H13.6441C13.7888 13.4981 13.9304 13.4585 14.0551 13.3851C14.1805 13.3113 14.2844 13.206 14.3565 13.0796C14.4286 12.9531 14.4663 12.8101 14.4658 12.6645C14.4654 12.5202 14.4276 12.3785 14.3559 12.2532L8.713 2.83278L8.71236 2.83172C8.63812 2.70974 8.53378 2.60888 8.40933 2.53882C8.28453 2.46855 8.14373 2.43164 8.0005 2.43164C7.85728 2.43164 7.71647 2.46855 7.59167 2.53882C7.46723 2.60888 7.36289 2.70974 7.28865 2.83172Z" fill="#B55407"/>
</svg>
