<svg width="80" height="80" viewBox="0 0 80 80" fill="none" xmlns="http://www.w3.org/2000/svg">
<circle cx="40" cy="40" r="30" fill="white"/>
<path d="M40 0C32.0887 0 24.3552 2.34591 17.7772 6.74117C11.1992 11.1364 6.07233 17.3836 3.04482 24.6926C0.0173167 32.0017 -0.774797 40.0443 0.768612 47.8035C2.31202 55.5628 6.12163 62.6901 11.7157 68.2842C17.3098 73.8783 24.4372 77.688 32.1964 79.2314C39.9556 80.7748 47.9983 79.9827 55.3073 76.9552C62.6164 73.9277 68.8635 68.8007 73.2588 62.2228C77.654 55.6448 80 47.9113 80 40C80 29.3913 75.7857 19.2172 68.2843 11.7158C60.7828 4.21431 50.6087 0 40 0ZM60.7641 54.1416C60.7641 54.4659 60.6353 54.7768 60.406 55.0061C60.1768 55.2354 59.8658 55.3642 59.5415 55.3642H54.3046C53.9804 55.3642 53.6694 55.2354 53.4401 55.0061C53.2108 54.7768 53.082 54.4659 53.082 54.1416V38.0642C53.0811 38.0339 53.0718 38.0045 53.055 37.9792C53.0383 37.9539 53.0149 37.9338 52.9874 37.9211C52.9599 37.9084 52.9293 37.9037 52.8993 37.9073C52.8692 37.911 52.8407 37.923 52.8171 37.9419L41.7524 49.027C41.2901 49.4886 40.6635 49.748 40.0102 49.748C39.3569 49.748 38.7302 49.4886 38.2679 49.027L27.2033 37.9419C27.1796 37.923 27.1512 37.911 27.1211 37.9073C27.091 37.9037 27.0605 37.9084 27.033 37.9211C27.0055 37.9338 26.9821 37.9539 26.9653 37.9792C26.9486 38.0045 26.9393 38.0339 26.9384 38.0642V54.1416C26.9384 54.4659 26.8095 54.7768 26.5803 55.0061C26.351 55.2354 26.04 55.3642 25.7158 55.3642H20.4789C20.1546 55.3642 19.8436 55.2354 19.6144 55.0061C19.3851 54.7768 19.2563 54.4659 19.2563 54.1416V25.838C19.2563 25.5137 19.3851 25.2028 19.6144 24.9735C19.8436 24.7442 20.1546 24.6154 20.4789 24.6154H24.0652C24.7192 24.6193 25.3467 24.8747 25.8176 25.3286L39.5721 39.1034C39.692 39.2122 39.8482 39.2726 40.0102 39.2726C40.1722 39.2726 40.3283 39.2122 40.4483 39.1034L54.2027 25.3286C54.6737 24.8747 55.3011 24.6193 55.9552 24.6154H59.5415C59.8658 24.6154 60.1768 24.7442 60.406 24.9735C60.6353 25.2028 60.7641 25.5137 60.7641 25.838V54.1416Z" fill="#DD1405"/>
</svg>
