<svg width="16" height="16" viewBox="0 0 16 16" fill="none" xmlns="http://www.w3.org/2000/svg">
<g clip-path="url(#clip0_4238_39124)">
<path d="M7.46967 4.96967C7.54158 4.89776 7.62445 4.84351 7.71291 4.80691C7.80069 4.77051 7.89688 4.7503 7.99775 4.75L8 4.75L8.00225 4.75C8.19344 4.75057 8.38446 4.8238 8.53033 4.96967L11.0303 7.46967C11.3232 7.76256 11.3232 8.23744 11.0303 8.53033C10.7374 8.82322 10.2626 8.82322 9.96967 8.53033L8.75 7.31066V10.5C8.75 10.9142 8.41421 11.25 8 11.25C7.58579 11.25 7.25 10.9142 7.25 10.5V7.31066L6.03033 8.53033C5.73744 8.82322 5.26256 8.82322 4.96967 8.53033C4.67678 8.23744 4.67678 7.76256 4.96967 7.46967L7.46967 4.96967Z" fill="#616366"/>
<path fill-rule="evenodd" clip-rule="evenodd" d="M8 0.75C3.99594 0.75 0.75 3.99594 0.75 8C0.75 12.0041 3.99594 15.25 8 15.25C12.0041 15.25 15.25 12.0041 15.25 8C15.25 3.99594 12.0041 0.75 8 0.75ZM2.25 8C2.25 4.82436 4.82436 2.25 8 2.25C11.1756 2.25 13.75 4.82436 13.75 8C13.75 11.1756 11.1756 13.75 8 13.75C4.82436 13.75 2.25 11.1756 2.25 8Z" fill="#616366"/>
</g>
<defs>
<clipPath id="clip0_4238_39124">
<rect width="16" height="16" fill="white"/>
</clipPath>
</defs>
</svg>
