<svg width="16" height="16" viewBox="0 0 16 16" fill="none" xmlns="http://www.w3.org/2000/svg">
<g clip-path="url(#clip0_2399_1044)">
<path fill-rule="evenodd" clip-rule="evenodd" d="M3.43818 2.25007C2.96675 2.24653 2.69025 2.37155 2.52991 2.53189C2.36957 2.69224 2.24455 2.96874 2.24809 3.44018C2.25165 3.91533 2.38845 4.52564 2.68268 5.2402C2.87224 5.70057 3.12103 6.18942 3.42503 6.69435C3.88915 6.11196 4.40573 5.53303 4.96831 4.97044C5.53093 4.40781 6.10989 3.89119 6.69231 3.42704C6.18738 3.12303 5.69853 2.87423 5.23817 2.68467C4.52362 2.39044 3.91332 2.25363 3.43818 2.25007ZM7.99801 2.47733C7.24899 1.98411 6.51019 1.58626 5.80928 1.29765C4.98606 0.958669 4.17938 0.755587 3.44943 0.750112C2.71577 0.744609 1.99909 0.941402 1.46927 1.47123C0.939445 2.00106 0.742656 2.71776 0.748159 3.45143C0.753634 4.18139 0.956712 4.98809 1.29569 5.81132C1.58429 6.51224 1.98212 7.25104 2.47533 8.00007C1.98214 8.74909 1.58432 9.48787 1.29571 10.1888C0.956741 11.012 0.753662 11.8187 0.748187 12.5487C0.742684 13.2823 0.939474 13.999 1.46929 14.5289C1.99911 15.0587 2.7158 15.2555 3.44946 15.25C4.17941 15.2445 4.98609 15.0414 5.80931 14.7024C6.51021 14.4138 7.24899 14.016 7.99801 13.5228C8.74696 14.0159 9.48568 14.4137 10.1865 14.7023C11.0097 15.0413 11.8164 15.2444 12.5464 15.2499C13.28 15.2554 13.9967 15.0586 14.5265 14.5287C15.0564 13.9989 15.2531 13.2822 15.2476 12.5485C15.2422 11.8186 15.0391 11.0119 14.7001 10.1886C14.4115 9.48778 14.0137 8.74904 13.5206 8.00007C14.0138 7.25108 14.4116 6.51233 14.7001 5.81145C15.0391 4.98822 15.2422 4.18152 15.2477 3.45156C15.2532 2.71789 15.0564 2.00119 14.5266 1.47136C13.9967 0.94153 13.2801 0.744737 12.5464 0.75024C11.8165 0.755715 11.0098 0.958797 10.1866 1.29778C9.4857 1.58637 8.74698 1.98417 7.99801 2.47733ZM7.998 4.31257C7.34234 4.8067 6.67786 5.38218 6.02895 6.0311C5.38009 6.67998 4.80464 7.34443 4.31054 8.00007C4.80464 8.65569 5.38007 9.32013 6.02892 9.969C6.67784 10.6179 7.34233 11.1934 7.998 11.6876C8.65362 11.1934 9.31805 10.618 9.96691 9.96912C10.6158 9.32022 11.1913 8.65573 11.6854 8.00007C11.1913 7.34439 10.6158 6.67989 9.96688 6.03097C9.31803 5.38211 8.65361 4.80667 7.998 4.31257ZM12.5709 6.69433C12.1067 6.1119 11.5901 5.53294 11.0275 4.97031C10.465 4.40774 9.88607 3.89117 9.30371 3.42706C9.80858 3.1231 10.2974 2.87434 10.7577 2.68479C11.4722 2.39056 12.0825 2.25376 12.5577 2.2502C13.0291 2.24666 13.3056 2.37168 13.4659 2.53202C13.6263 2.69236 13.7513 2.96887 13.7477 3.44031C13.7442 3.91545 13.6074 4.52577 13.3132 5.24033C13.1236 5.70065 12.8749 6.18945 12.5709 6.69433ZM12.5709 9.3058C12.1067 9.88822 11.5902 10.4672 11.0275 11.0298C10.465 11.5924 9.88608 12.1089 9.30371 12.5731C9.80857 12.877 10.2973 13.1258 10.7576 13.3153C11.4722 13.6095 12.0825 13.7463 12.5576 13.7499C13.0291 13.7534 13.3056 13.6284 13.4659 13.4681C13.6262 13.3077 13.7513 13.0312 13.7477 12.5598C13.7442 12.0846 13.6074 11.4743 13.3131 10.7598C13.1236 10.2995 12.8748 9.81067 12.5709 9.3058ZM6.6923 12.5731C6.10987 12.1089 5.53091 11.5923 4.96828 11.0297C4.40571 10.4671 3.88915 9.88816 3.42503 9.30579C3.12104 9.81071 2.87226 10.2995 2.68271 10.7599C2.38848 11.4745 2.25168 12.0848 2.24812 12.5599C2.24458 13.0314 2.36959 13.3079 2.52994 13.4682C2.69028 13.6285 2.96678 13.7536 3.43821 13.75C3.91335 13.7465 4.52365 13.6097 5.23819 13.3154C5.69855 13.1259 6.18738 12.8771 6.6923 12.5731ZM6.89449 8.00011C6.89449 7.39069 7.38852 6.89665 7.99793 6.89665C8.60734 6.89665 9.10137 7.39069 9.10137 8.00011C9.10137 8.60954 8.60734 9.10357 7.99793 9.10357C7.38852 9.10357 6.89449 8.60954 6.89449 8.00011Z" fill="#616366"/>
</g>
<defs>
<clipPath id="clip0_2399_1044">
<rect width="15.9997" height="16" fill="white" transform="translate(-0.00195312)"/>
</clipPath>
</defs>
</svg>
