<svg width="16" height="16" viewBox="0 0 16 16" fill="none" xmlns="http://www.w3.org/2000/svg">
<path d="M11.0203 6.35355C11.2155 6.15829 11.2155 5.84171 11.0203 5.64645C10.825 5.45118 10.5084 5.45118 10.3132 5.64645L7.00004 8.95956L5.68693 7.64645C5.49167 7.45118 5.17508 7.45118 4.97982 7.64645C4.78456 7.84171 4.78456 8.15829 4.97982 8.35355L6.64649 10.0202C6.74026 10.114 6.86743 10.1667 7.00004 10.1667C7.13265 10.1667 7.25983 10.114 7.35359 10.0202L11.0203 6.35355Z" fill="#09BF5B"/>
<path fill-rule="evenodd" clip-rule="evenodd" d="M8 1C4.13401 1 1 4.13401 1 8C1 11.866 4.13401 15 8 15C11.866 15 15 11.866 15 8C15 4.13401 11.866 1 8 1ZM2 8C2 4.68629 4.68629 2 8 2C11.3137 2 14 4.68629 14 8C14 11.3137 11.3137 14 8 14C4.68629 14 2 11.3137 2 8Z" fill="#09BF5B"/>
</svg>
