<svg width="16" height="16" viewBox="0 0 16 16" fill="none" xmlns="http://www.w3.org/2000/svg">
<path d="M13.5 1C13.5 0.723858 13.2761 0.5 13 0.5C12.7239 0.5 12.5 0.723858 12.5 1V2.5H11C10.7239 2.5 10.5 2.72386 10.5 3C10.5 3.27614 10.7239 3.5 11 3.5H12.5V5C12.5 5.27614 12.7239 5.5 13 5.5C13.2761 5.5 13.5 5.27614 13.5 5V3.5H15C15.2761 3.5 15.5 3.27614 15.5 3C15.5 2.72386 15.2761 2.5 15 2.5H13.5V1Z" fill="#303233"/>
<path fill-rule="evenodd" clip-rule="evenodd" d="M2 3.5C2 3.46048 2.0274 3.32774 2.30494 3.12584C2.57153 2.93191 2.98944 2.73642 3.55085 2.56368C4.66754 2.22008 6.24066 2 8 2C8.33221 2 8.65826 2.00785 8.97627 2.02296C9.2521 2.03606 9.48633 1.82308 9.49944 1.54725C9.51254 1.27142 9.29956 1.03719 9.02373 1.02409C8.6898 1.00822 8.34792 1 8 1C6.16948 1 4.49261 1.22764 3.25676 1.6079C2.6419 1.79709 2.10791 2.03256 1.71667 2.31718C1.33637 2.59383 1 2.98723 1 3.5V12.5C1 13.0128 1.33637 13.4062 1.71667 13.6828C2.10791 13.9674 2.6419 14.2029 3.25676 14.3921C4.49261 14.7724 6.16948 15 8 15C9.83052 15 11.5074 14.7724 12.7432 14.3921C13.3581 14.2029 13.8921 13.9674 14.2833 13.6828C14.6636 13.4062 15 13.0128 15 12.5V8C15 7.72386 14.7761 7.5 14.5 7.5C14.2239 7.5 14 7.72386 14 8C14 8.03952 13.9726 8.17226 13.6951 8.37416C13.4285 8.5681 13.0106 8.76358 12.4492 8.93632C11.3325 9.27992 9.75934 9.5 8 9.5C6.24066 9.5 4.66754 9.27992 3.55085 8.93632C2.98944 8.76358 2.57153 8.5681 2.30494 8.37416C2.0274 8.17226 2 8.03952 2 8V4.8665C2.35089 5.07049 2.77946 5.24524 3.25676 5.3921C4.49261 5.77236 6.16948 6 8 6C8.34792 6 8.6898 5.99178 9.02373 5.97591C9.29956 5.96281 9.51254 5.72858 9.49944 5.45275C9.48633 5.17692 9.2521 4.96394 8.97627 4.97704C8.65826 4.99215 8.33221 5 8 5C6.24066 5 4.66754 4.77992 3.55085 4.43632C2.98944 4.26358 2.57153 4.06809 2.30494 3.87416C2.0274 3.67226 2 3.53952 2 3.5ZM14 9.3665V12.5C14 12.5395 13.9726 12.6723 13.6951 12.8742C13.4285 13.0681 13.0106 13.2636 12.4492 13.4363C11.3325 13.7799 9.75934 14 8 14C6.24066 14 4.66754 13.7799 3.55085 13.4363C2.98944 13.2636 2.57153 13.0681 2.30494 12.8742C2.0274 12.6723 2 12.5395 2 12.5V9.3665C2.35089 9.57049 2.77946 9.74524 3.25676 9.8921C4.49261 10.2724 6.16948 10.5 8 10.5C9.83052 10.5 11.5074 10.2724 12.7432 9.8921C13.2205 9.74524 13.6491 9.57049 14 9.3665Z" fill="#303233"/>
</svg>
