<svg width="16" height="16" viewBox="0 0 16 16" fill="none" xmlns="http://www.w3.org/2000/svg">
<path fill-rule="evenodd" clip-rule="evenodd" d="M15 3.5C15 2.98723 14.6636 2.59383 14.2833 2.31718C13.8921 2.03256 13.3581 1.79709 12.7432 1.6079C11.5074 1.22764 9.83052 1 8 1C6.16948 1 4.49261 1.22764 3.25676 1.6079C2.6419 1.79709 2.10791 2.03256 1.71667 2.31718C1.33637 2.59383 1 2.98723 1 3.5V12.4933C1 13.0049 1.33289 13.3985 1.71262 13.6763C2.10248 13.9614 2.63483 14.197 3.24858 14.3862C4.48216 14.7663 6.15923 14.9933 8 14.9933C9.84077 14.9933 11.5178 14.7663 12.7514 14.3862C13.3652 14.197 13.8975 13.9614 14.2874 13.6763C14.6671 13.3985 15 13.0049 15 12.4933V3.5ZM2.30494 3.12584C2.0274 3.32774 2 3.46048 2 3.5C2 3.53952 2.0274 3.67226 2.30494 3.87416C2.57153 4.0681 2.98944 4.26358 3.55085 4.43632C4.66754 4.77992 6.24066 5 8 5C9.75934 5 11.3325 4.77992 12.4492 4.43632C13.0106 4.26358 13.4285 4.0681 13.6951 3.87416C13.9726 3.67226 14 3.53952 14 3.5C14 3.46048 13.9726 3.32774 13.6951 3.12584C13.4285 2.93191 13.0106 2.73642 12.4492 2.56368C11.3325 2.22008 9.75934 2 8 2C6.24066 2 4.66754 2.22008 3.55085 2.56368C2.98944 2.73642 2.57153 2.93191 2.30494 3.12584ZM14 4.8665C13.6491 5.07049 13.2205 5.24524 12.7432 5.3921C11.5074 5.77236 9.83052 6 8 6C6.16948 6 4.49261 5.77236 3.25676 5.3921C2.77946 5.24524 2.35089 5.07049 2 4.8665V8C2 8.04178 2.02822 8.17482 2.303 8.37581C2.56766 8.5694 2.98322 8.76464 3.54308 8.93717C4.65673 9.28036 6.22966 9.5 8 9.5C9.77034 9.5 11.3433 9.28036 12.4569 8.93717C13.0168 8.76464 13.4323 8.5694 13.697 8.37581C13.9718 8.17482 14 8.04178 14 8V4.8665ZM14 9.36984C13.6512 9.57285 13.2256 9.7467 12.7514 9.89283C11.5178 10.273 9.84077 10.5 8 10.5C6.15923 10.5 4.48216 10.273 3.24858 9.89283C2.77441 9.7467 2.34883 9.57285 2 9.36984V12.4933C2 12.5351 2.02822 12.6682 2.303 12.8692C2.56766 13.0627 2.98322 13.258 3.54308 13.4305C4.65673 13.7737 6.22966 13.9933 8 13.9933C9.77034 13.9933 11.3433 13.7737 12.4569 13.4305C13.0168 13.258 13.4323 13.0627 13.697 12.8692C13.9718 12.6682 14 12.5351 14 12.4933V9.36984Z" fill="#303233"/>
</svg>
