<svg width="16" height="16" viewBox="0 0 16 16" fill="none" xmlns="http://www.w3.org/2000/svg">
<path fill-rule="evenodd" clip-rule="evenodd" d="M15 8C15 11.866 11.866 15 8 15C4.13401 15 1 11.866 1 8C1 4.13401 4.13401 1 8 1C11.866 1 15 4.13401 15 8ZM8 5C8.27614 5 8.5 5.22386 8.5 5.5V9.29289L10.1464 7.64645C10.3417 7.45118 10.6583 7.45118 10.8536 7.64645C11.0488 7.84171 11.0488 8.15829 10.8536 8.35355L8.35355 10.8536C8.15829 11.0488 7.84171 11.0488 7.64645 10.8536L5.14645 8.35355C4.95118 8.15829 4.95118 7.84171 5.14645 7.64645C5.34171 7.45118 5.65829 7.45118 5.85355 7.64645L7.5 9.29289V5.5C7.5 5.22386 7.72386 5 8 5Z" fill="#303233"/>
</svg>
