<svg width="16" height="16" viewBox="0 0 16 16" fill="none" xmlns="http://www.w3.org/2000/svg">
<path fill-rule="evenodd" clip-rule="evenodd" d="M9.0207 11.858L13.4393 7.43944C13.8225 7.05625 14.1315 6.74718 14.3614 6.47645C14.598 6.19771 14.7799 5.92689 14.8826 5.61078C15.0457 5.10867 15.0457 4.56781 14.8826 4.0657C14.7799 3.74959 14.598 3.47877 14.3614 3.20003C14.1315 2.9293 13.8225 2.62023 13.4393 2.23705L13.283 2.08076L13.2678 2.06561C12.8847 1.68244 12.5756 1.37338 12.3049 1.14356C12.0262 0.906926 11.7553 0.725067 11.4392 0.622359C10.9371 0.459214 10.3963 0.459214 9.89415 0.622359C9.57804 0.725067 9.30722 0.906927 9.02848 1.14356C8.75776 1.37339 8.4487 1.68245 8.06552 2.06563L3.6466 6.48455L2.56074 7.57042C2.17756 7.95359 1.8685 8.26264 1.63868 8.53336C1.40204 8.8121 1.22018 9.08293 1.11748 9.39903C0.954331 9.90114 0.954331 10.442 1.11748 10.9441C1.22018 11.2602 1.40204 11.531 1.63868 11.8098C1.8685 12.0805 2.17757 12.3896 2.56075 12.7727L3.02163 13.2336C3.03316 13.2451 3.04454 13.2565 3.05578 13.2678C3.253 13.4652 3.40825 13.6207 3.59439 13.7347C3.75843 13.8353 3.93726 13.9093 4.12432 13.9543C4.3366 14.0052 4.55628 14.0051 4.83536 14.0049C4.85127 14.0049 4.86737 14.0049 4.88368 14.0049H5.78303C5.79934 14.0049 5.81545 14.0049 5.83136 14.0049C5.86271 14.0049 5.89331 14.005 5.92323 14.0049H14C14.2762 14.0049 14.5 13.781 14.5 13.5049C14.5 13.2288 14.2762 13.0049 14 13.0049H7.8738L9.01978 11.8589L9.0207 11.858ZM7.95958 11.5049L4.00002 7.54535L3.28298 8.26238C2.88113 8.66424 2.60128 8.94464 2.40102 9.18054C2.20454 9.41198 2.1142 9.5675 2.06853 9.70805C1.97065 10.0093 1.97065 10.3338 2.06853 10.6351C2.1142 10.7757 2.20454 10.9312 2.40102 11.1626C2.60128 11.3985 2.88113 11.6789 3.28298 12.0808L3.72874 12.5265C3.97617 12.7739 4.04453 12.8378 4.11689 12.8821C4.19145 12.9278 4.27274 12.9615 4.35777 12.9819C4.44029 13.0017 4.53376 13.0049 4.88368 13.0049H5.78303C6.13295 13.0049 6.22642 13.0017 6.30894 12.9819C6.39397 12.9615 6.47526 12.9278 6.54982 12.8821C6.62218 12.8378 6.69055 12.7739 6.93798 12.5265L7.95958 11.5049Z" fill="#616366"/>
</svg>
