<svg width="16" height="16" viewBox="0 0 16 16" fill="none" xmlns="http://www.w3.org/2000/svg">
<path d="M10.3214 1H5.6786C5.13671 0.999995 4.69963 0.999991 4.34569 1.02891C3.98126 1.05868 3.66117 1.12159 3.36502 1.27248C2.89462 1.51217 2.51217 1.89462 2.27248 2.36502C2.12159 2.66117 2.05868 2.98126 2.02891 3.34569C1.99999 3.69963 2 4.1367 2 4.6786V11.3214C2 11.8633 1.99999 12.3004 2.02891 12.6543C2.05868 13.0187 2.12159 13.3388 2.27248 13.635C2.51217 14.1054 2.89462 14.4878 3.36502 14.7275C3.66117 14.8784 3.98126 14.9413 4.34569 14.9711C4.69961 15 5.13667 15 5.67853 15H9.5C9.77614 15 10 14.7761 10 14.5C10 14.2239 9.77614 14 9.5 14H5.7C5.1317 14 4.73554 13.9996 4.42712 13.9744C4.12454 13.9497 3.95069 13.9036 3.81901 13.8365C3.53677 13.6927 3.3073 13.4632 3.16349 13.181C3.0964 13.0493 3.05031 12.8755 3.02559 12.5729C3.00039 12.2645 3 11.8683 3 11.3V4.7C3 4.1317 3.00039 3.73554 3.02559 3.42712C3.05031 3.12454 3.0964 2.95069 3.16349 2.81901C3.3073 2.53677 3.53677 2.3073 3.81901 2.16349C3.95069 2.0964 4.12454 2.05031 4.42712 2.02559C4.73554 2.00039 5.1317 2 5.7 2H10.3C10.8683 2 11.2645 2.00039 11.5729 2.02559C11.8755 2.05031 12.0493 2.0964 12.181 2.16349C12.4632 2.3073 12.6927 2.53677 12.8365 2.81901C12.9036 2.95069 12.9497 3.12454 12.9744 3.42712C12.9996 3.73554 13 4.1317 13 4.7V6.5C13 6.77614 13.2239 7 13.5 7C13.7761 7 14 6.77614 14 6.5V4.67858C14 4.13672 14 3.69961 13.9711 3.34569C13.9413 2.98126 13.8784 2.66117 13.7275 2.36502C13.4878 1.89462 13.1054 1.51217 12.635 1.27248C12.3388 1.12159 12.0187 1.05868 11.6543 1.02891C11.3004 0.999991 10.8633 0.999995 10.3214 1Z" fill="#616366"/>
<path d="M11.922 9.64092C12.1357 9.519 12.3886 9.47371 12.6352 9.51478C12.8818 9.55584 13.1024 9.67985 13.2596 9.86114C13.4165 10.0421 13.5005 10.2694 13.5001 10.5011C13.5001 10.7351 13.3178 10.9794 12.9729 11.2092C12.8157 11.3139 12.655 11.3945 12.5316 11.4494C12.4706 11.4764 12.4204 11.4965 12.3867 11.5093C12.3699 11.5157 12.3573 11.5203 12.3496 11.523L12.3416 11.5258C12.0799 11.6133 11.9386 11.8962 12.0258 12.158C12.113 12.42 12.3964 12.5615 12.6584 12.4743L12.6595 12.4739L12.6615 12.4733L12.667 12.4714L12.6844 12.4653C12.6987 12.4602 12.7183 12.4531 12.7425 12.4439C12.7908 12.4255 12.8578 12.3986 12.9375 12.3633C13.0953 12.2932 13.3095 12.1865 13.5273 12.0414C13.9324 11.7716 14.4999 11.2666 14.5001 10.5016C14.5008 10.0255 14.3278 9.56666 14.0152 9.20607C13.7028 8.84575 13.2716 8.60699 12.7995 8.52837C12.3275 8.44976 11.8414 8.53559 11.4264 8.77238C11.0112 9.00933 10.6923 9.38339 10.53 9.83117C10.436 10.0908 10.5702 10.3775 10.8298 10.4716C11.0894 10.5657 11.3762 10.4314 11.4702 10.1718C11.55 9.95176 11.7086 9.76268 11.922 9.64092Z" fill="#616366"/>
<path d="M12.4951 13.5C12.219 13.5 11.9951 13.7239 11.9951 14C11.9951 14.2761 12.219 14.5 12.4951 14.5H12.5001C12.7763 14.5 13.0001 14.2761 13.0001 14C13.0001 13.7239 12.7763 13.5 12.5001 13.5H12.4951Z" fill="#616366"/>
</svg>
