<svg width="16" height="16" viewBox="0 0 16 16" fill="none" xmlns="http://www.w3.org/2000/svg">
<path fill-rule="evenodd" clip-rule="evenodd" d="M2.99976 2C1.89518 2 0.999748 2.89544 0.999756 4.00001L0.999812 12C0.99982 13.1046 1.89525 14 2.99981 14H12.9998C14.1044 14 14.9998 13.1046 14.9998 12V5C14.9998 3.89543 14.1044 3 12.9998 3H9.20688C8.75416 3 8.32 2.82014 7.99991 2.5C7.67982 2.17986 7.24565 2 6.79294 2H2.99976ZM2.99991 4C2.44762 4 1.99991 4.44772 1.99991 5V12C1.99991 12.5523 2.44762 13 2.99991 13H12.9999C13.5522 13 13.9999 12.5523 13.9999 12V5C13.9999 4.44772 13.5522 4 12.9999 4H2.99991Z" fill="#303233"/>
</svg>
