<svg width="16" height="16" viewBox="0 0 16 16" fill="none" xmlns="http://www.w3.org/2000/svg">
<path d="M8 10C9.10457 10 10 9.10457 10 8C10 6.89543 9.10457 6 8 6C6.89543 6 6 6.89543 6 8C6 9.10457 6.89543 10 8 10Z" stroke="#303233" stroke-linecap="round" stroke-linejoin="round"/>
<path d="M12.3727 9.77273C12.2941 9.95095 12.2706 10.1487 12.3054 10.3403C12.3401 10.532 12.4315 10.7089 12.5677 10.8482L12.6032 10.8836C12.7131 10.9934 12.8002 11.1237 12.8597 11.2672C12.9192 11.4107 12.9498 11.5645 12.9498 11.7198C12.9498 11.8751 12.9192 12.0289 12.8597 12.1723C12.8002 12.3158 12.7131 12.4461 12.6032 12.5559C12.4934 12.6658 12.3631 12.753 12.2196 12.8124C12.0761 12.8719 11.9224 12.9025 11.767 12.9025C11.6117 12.9025 11.4579 12.8719 11.3145 12.8124C11.171 12.753 11.0407 12.6658 10.9309 12.5559L10.8955 12.5205C10.7562 12.3842 10.5793 12.2928 10.3876 12.2581C10.1959 12.2233 9.99823 12.2468 9.82 12.3255C9.64523 12.4004 9.49617 12.5247 9.39118 12.6833C9.28619 12.8418 9.22985 13.0276 9.22909 13.2177V13.3182C9.22909 13.6316 9.10458 13.9322 8.88294 14.1539C8.66131 14.3755 8.36071 14.5 8.04727 14.5C7.73383 14.5 7.43323 14.3755 7.2116 14.1539C6.98997 13.9322 6.86545 13.6316 6.86545 13.3182V13.265C6.86088 13.0694 6.79757 12.8797 6.68376 12.7206C6.56994 12.5615 6.41089 12.4403 6.22727 12.3727C6.04904 12.2941 5.85134 12.2706 5.65965 12.3054C5.46796 12.3401 5.29108 12.4315 5.15182 12.5677L5.11636 12.6032C5.0066 12.7131 4.87626 12.8002 4.73279 12.8597C4.58932 12.9192 4.43554 12.9498 4.28023 12.9498C4.12492 12.9498 3.97113 12.9192 3.82766 12.8597C3.68419 12.8002 3.55385 12.7131 3.44409 12.6032C3.33421 12.4934 3.24704 12.3631 3.18757 12.2196C3.12809 12.0761 3.09748 11.9224 3.09748 11.767C3.09748 11.6117 3.12809 11.4579 3.18757 11.3145C3.24704 11.171 3.33421 11.0407 3.44409 10.9309L3.47955 10.8955C3.61577 10.7562 3.70716 10.5793 3.74191 10.3876C3.77667 10.1959 3.7532 9.99823 3.67455 9.82C3.59964 9.64523 3.47526 9.49617 3.31673 9.39118C3.15819 9.28619 2.97242 9.22985 2.78227 9.22909H2.68182C2.36838 9.22909 2.06778 9.10458 1.84615 8.88294C1.62451 8.66131 1.5 8.36071 1.5 8.04727C1.5 7.73383 1.62451 7.43323 1.84615 7.2116C2.06778 6.98997 2.36838 6.86545 2.68182 6.86545H2.735C2.93059 6.86088 3.12028 6.79757 3.2794 6.68376C3.43853 6.56994 3.55974 6.41089 3.62727 6.22727C3.70593 6.04904 3.7294 5.85134 3.69464 5.65965C3.65988 5.46796 3.5685 5.29108 3.43227 5.15182L3.39682 5.11636C3.28694 5.0066 3.19977 4.87626 3.14029 4.73279C3.08082 4.58932 3.05021 4.43554 3.05021 4.28023C3.05021 4.12492 3.08082 3.97113 3.14029 3.82766C3.19977 3.68419 3.28694 3.55385 3.39682 3.44409C3.50658 3.33421 3.63692 3.24704 3.78039 3.18757C3.92386 3.12809 4.07765 3.09748 4.23295 3.09748C4.38826 3.09748 4.54205 3.12809 4.68552 3.18757C4.82899 3.24704 4.95933 3.33421 5.06909 3.44409L5.10455 3.47955C5.24381 3.61577 5.42069 3.70716 5.61238 3.74191C5.80407 3.77667 6.00177 3.7532 6.18 3.67455H6.22727C6.40205 3.59964 6.5511 3.47526 6.65609 3.31673C6.76108 3.15819 6.81742 2.97242 6.81818 2.78227V2.68182C6.81818 2.36838 6.94269 2.06778 7.16433 1.84615C7.38596 1.62451 7.68656 1.5 8 1.5C8.31344 1.5 8.61404 1.62451 8.83567 1.84615C9.0573 2.06778 9.18182 2.36838 9.18182 2.68182V2.735C9.18258 2.92515 9.23892 3.11092 9.34391 3.26946C9.4489 3.42799 9.59795 3.55237 9.77273 3.62727C9.95095 3.70593 10.1487 3.7294 10.3403 3.69464C10.532 3.65988 10.7089 3.5685 10.8482 3.43227L10.8836 3.39682C10.9934 3.28694 11.1237 3.19977 11.2672 3.14029C11.4107 3.08082 11.5645 3.05021 11.7198 3.05021C11.8751 3.05021 12.0289 3.08082 12.1723 3.14029C12.3158 3.19977 12.4461 3.28694 12.5559 3.39682C12.6658 3.50658 12.753 3.63692 12.8124 3.78039C12.8719 3.92386 12.9025 4.07765 12.9025 4.23295C12.9025 4.38826 12.8719 4.54205 12.8124 4.68552C12.753 4.82899 12.6658 4.95933 12.5559 5.06909L12.5205 5.10455C12.3842 5.24381 12.2928 5.42069 12.2581 5.61238C12.2233 5.80407 12.2468 6.00177 12.3255 6.18V6.22727C12.4004 6.40205 12.5247 6.5511 12.6833 6.65609C12.8418 6.76108 13.0276 6.81742 13.2177 6.81818H13.3182C13.6316 6.81818 13.9322 6.94269 14.1539 7.16433C14.3755 7.38596 14.5 7.68656 14.5 8C14.5 8.31344 14.3755 8.61404 14.1539 8.83567C13.9322 9.0573 13.6316 9.18182 13.3182 9.18182H13.265C13.0749 9.18258 12.8891 9.23892 12.7305 9.34391C12.572 9.4489 12.4476 9.59795 12.3727 9.77273Z" stroke="#303233" stroke-linecap="round" stroke-linejoin="round"/>
</svg>
