<svg width="16" height="16" viewBox="0 0 16 16" fill="none" xmlns="http://www.w3.org/2000/svg">
<path fill-rule="evenodd" clip-rule="evenodd" d="M4 6C4 4.89543 4.89543 4 6 4C7.10457 4 8 4.89543 8 6C8 7.10457 7.10457 8 6 8C4.89543 8 4 7.10457 4 6Z" fill="#303233"/>
<path fill-rule="evenodd" clip-rule="evenodd" d="M1 3.25C1 2.00736 2.00736 1 3.25 1H12.75C13.9926 1 15 2.00736 15 3.25V12.75C15 13.9926 13.9926 15 12.75 15H3.25C2.00736 15 1 13.9926 1 12.75V3.25ZM3.25 2C2.55964 2 2 2.55964 2 3.25V12.75C2 13.1686 2.20576 13.5391 2.52167 13.766L9.79121 6.8124C10.2823 6.34269 11.0586 6.35131 11.5391 6.83182L14 9.29269V3.25C14 2.55964 13.4404 2 12.75 2H3.25Z" fill="#303233"/>
</svg>
