<svg width="16" height="16" viewBox="0 0 16 16" fill="none" xmlns="http://www.w3.org/2000/svg">
<path d="M1.85667 5.874C2.40331 5.31279 3.14186 5 3.90909 5H5.95455C6.23069 5 6.45455 4.77614 6.45455 4.5C6.45455 4.22386 6.23069 4 5.95455 4H3.90909C2.86803 4 1.87235 4.42471 1.14033 5.17625C0.408739 5.92735 0 6.94332 0 8C0 9.05668 0.408739 10.0726 1.14033 10.8237C1.5027 11.1958 1.93361 11.4916 2.40882 11.6937C2.88405 11.8958 3.39389 12 3.90909 12H5.95455C6.23069 12 6.45455 11.7761 6.45455 11.5C6.45455 11.2239 6.23069 11 5.95455 11H3.90909C3.52892 11 3.15214 10.9231 2.80016 10.7735C2.44815 10.6238 2.12743 10.404 1.85667 10.126C1.3096 9.56434 1 8.79983 1 8C1 7.20017 1.3096 6.43566 1.85667 5.874Z" fill="#616366"/>
<path d="M10.0455 4C9.76931 4 9.54545 4.22386 9.54545 4.5C9.54545 4.77614 9.76931 5 10.0455 5H12.0909C12.4711 5 12.8479 5.07686 13.1998 5.22654C13.5519 5.37624 13.8726 5.59602 14.1433 5.874C14.4141 6.152 14.6296 6.48275 14.7768 6.84768C14.9241 7.21264 15 7.60423 15 8C15 8.39577 14.9241 8.78736 14.7768 9.15232C14.6296 9.51725 14.4141 9.848 14.1433 10.126C13.8726 10.404 13.5519 10.6238 13.1998 10.7735C12.8479 10.9231 12.4711 11 12.0909 11H10.0455C9.76931 11 9.54545 11.2239 9.54545 11.5C9.54545 11.7761 9.76931 12 10.0455 12H12.0909C12.6061 12 13.1159 11.8958 13.5912 11.6937C14.0664 11.4916 14.4973 11.1958 14.8597 10.8237C15.222 10.4517 15.5088 10.0108 15.7042 9.52647C15.8996 9.04214 16 8.52349 16 8C16 7.47651 15.8996 6.95786 15.7042 6.47353C15.5088 5.98919 15.222 5.54826 14.8597 5.17625C14.4973 4.80422 14.0664 4.50839 13.5912 4.3063C13.1159 4.1042 12.6061 4 12.0909 4H10.0455Z" fill="#616366"/>
<path d="M5.27295 7.5C4.99681 7.5 4.77295 7.72386 4.77295 8C4.77295 8.27614 4.99681 8.5 5.27295 8.5H10.7275C11.0036 8.5 11.2275 8.27614 11.2275 8C11.2275 7.72386 11.0036 7.5 10.7275 7.5H5.27295Z" fill="#616366"/>
</svg>
