<svg width="16" height="16" viewBox="0 0 16 16" fill="none" xmlns="http://www.w3.org/2000/svg">
<path d="M11.0683 10.4451C11.1743 10.4451 11.2598 10.3595 11.2598 10.2495V5.75058C11.2598 5.64055 11.1743 5.55498 11.0683 5.55498H10.5019C10.4 5.55498 10.3022 5.59573 10.2289 5.66908L8.06907 7.85739C8.0324 7.89406 7.9672 7.89406 7.93052 7.85739L5.77074 5.66908C5.69739 5.59573 5.59958 5.55498 5.49771 5.55498H4.93127C4.82532 5.55498 4.73975 5.64055 4.73975 5.75058V10.2495C4.73975 10.3595 4.82532 10.4451 4.93127 10.4451H5.75444C5.86039 10.4451 5.94596 10.3595 5.94596 10.2495V7.69439C5.94596 7.66994 5.97449 7.66179 5.98672 7.67401L7.72677 9.43444C7.87754 9.58929 8.12205 9.58929 8.27283 9.43444L10.0129 7.67401C10.0251 7.66179 10.0536 7.66994 10.0536 7.69439V10.2495C10.0536 10.3595 10.1392 10.4451 10.2452 10.4451H11.0683Z" fill="#FAFAFB"/>
<path fill-rule="evenodd" clip-rule="evenodd" d="M8 1C4.13401 1 1 4.13401 1 8C1 11.866 4.13401 15 8 15C11.866 15 15 11.866 15 8C15 4.13401 11.866 1 8 1ZM2 8C2 4.68629 4.68629 2 8 2C11.3137 2 14 4.68629 14 8C14 11.3137 11.3137 14 8 14C4.68629 14 2 11.3137 2 8Z" fill="#FAFAFB"/>
</svg>
