<svg width="16" height="16" viewBox="0 0 16 16" fill="none" xmlns="http://www.w3.org/2000/svg">
<path fill-rule="evenodd" clip-rule="evenodd" d="M5 2.5C4.17157 2.5 3.5 3.17157 3.5 4V12C3.5 12.8284 4.17157 13.5 5 13.5C5.82843 13.5 6.5 12.8284 6.5 12V4C6.5 3.17157 5.82843 2.5 5 2.5ZM4.5 4C4.5 3.72386 4.72386 3.5 5 3.5C5.27614 3.5 5.5 3.72386 5.5 4V12C5.5 12.2761 5.27614 12.5 5 12.5C4.72386 12.5 4.5 12.2761 4.5 12V4Z" fill="#303233"/>
<path fill-rule="evenodd" clip-rule="evenodd" d="M11 2.5C10.1716 2.5 9.5 3.17157 9.5 4V12C9.5 12.8284 10.1716 13.5 11 13.5C11.8284 13.5 12.5 12.8284 12.5 12V4C12.5 3.17157 11.8284 2.5 11 2.5ZM10.5 4C10.5 3.72386 10.7239 3.5 11 3.5C11.2761 3.5 11.5 3.72386 11.5 4V12C11.5 12.2761 11.2761 12.5 11 12.5C10.7239 12.5 10.5 12.2761 10.5 12V4Z" fill="#303233"/>
</svg>
