<svg width="24" height="24" viewBox="0 0 24 24" fill="none" xmlns="http://www.w3.org/2000/svg">
<path d="M10.2704 7.99524C9.93762 7.78133 9.5 8.02025 9.5 8.41583V15.5842C9.5 15.9798 9.93762 16.2187 10.2704 16.0048L15.8457 12.4206C16.1519 12.2238 16.1519 11.7762 15.8457 11.5794L10.2704 7.99524Z" fill="#303233"/>
<path fill-rule="evenodd" clip-rule="evenodd" d="M12 1C5.92487 1 1 5.92487 1 12C1 18.0751 5.92487 23 12 23C18.0751 23 23 18.0751 23 12C23 5.92487 18.0751 1 12 1ZM2.5 12C2.5 6.75329 6.75329 2.5 12 2.5C17.2467 2.5 21.5 6.75329 21.5 12C21.5 17.2467 17.2467 21.5 12 21.5C6.75329 21.5 2.5 17.2467 2.5 12Z" fill="#303233"/>
</svg>
