<svg width="48" height="48" viewBox="0 0 48 48" fill="none" xmlns="http://www.w3.org/2000/svg">
<circle cx="24" cy="24" r="24" fill="#D8D9DB"/>
<circle cx="24" cy="24" r="22" fill="white"/>
<path fill-rule="evenodd" clip-rule="evenodd" d="M23.5228 20C21.4243 20 19.7273 21.6924 19.7273 23.775C19.7273 23.8276 19.7284 23.8799 19.7305 23.932C19.7412 24.1922 19.5503 24.4171 19.2918 24.4488C18.2802 24.5728 17.5 25.4311 17.5 26.4667C17.5 27.5874 18.4135 28.5 19.5454 28.5C19.5454 28.5 19.5454 28.5 19.5454 28.5L27.5 28.5L27.5285 28.5C27.532 28.4999 27.5355 28.4998 27.5391 28.4998C29.1801 28.479 30.5 27.1491 30.5 25.5167C30.5 23.8713 29.1591 22.5333 27.5 22.5333C27.4847 22.5333 27.4695 22.5334 27.4543 22.5337C27.2547 22.5366 27.0725 22.4206 26.9907 22.2384C26.3989 20.9194 25.069 20 23.5228 20ZM27.5701 29.4994C27.5619 29.4998 27.5537 29.5 27.5454 29.5L19.5455 29.5C17.8658 29.5 16.5 28.1442 16.5 26.4667C16.5 25.07 17.4466 23.8967 18.7329 23.5426C18.8546 21.0114 20.9547 19 23.5228 19C25.3608 19 26.9576 20.0299 27.7624 21.5418C29.8473 21.6763 31.5 23.4025 31.5 25.5167C31.5 27.6955 29.7448 29.4621 27.5701 29.4994Z" fill="#616366"/>
</svg>
