<svg width="96" height="97" viewBox="0 0 96 97" fill="none" xmlns="http://www.w3.org/2000/svg">
<path fill-rule="evenodd" clip-rule="evenodd" d="M28.9081 13.4081C33.9716 8.34463 40.8391 5.5 48 5.5C55.1608 5.5 62.0284 8.34463 67.0918 13.4081C72.1553 18.4716 75 25.3392 75 32.5C75 44.3282 77.9755 52.2375 81.1484 57.3367L81.1842 57.3942C82.623 59.7065 83.7459 61.511 84.4992 62.818C84.8764 63.4725 85.2048 64.0771 85.4419 64.5993C85.5603 64.86 85.6843 65.1614 85.7787 65.4785C85.8588 65.7474 85.9963 66.2764 85.9447 66.9076C85.9036 67.4091 85.8066 68.1733 85.3743 68.9516C84.9419 69.7298 84.3443 70.216 83.9402 70.5158C83.1442 71.1062 82.2041 71.2471 81.8371 71.3015C81.3014 71.3809 80.675 71.4226 80.0109 71.4485C78.6897 71.5 76.8492 71.5 74.5213 71.5H21.4786C19.1507 71.5 17.3103 71.5 15.989 71.4485C15.3249 71.4226 14.6985 71.3809 14.1629 71.3015C13.7958 71.2471 12.8557 71.1062 12.0598 70.5158C11.6556 70.216 11.058 69.7298 10.6257 68.9516C10.1933 68.1733 10.0963 67.4091 10.0552 66.9076C10.0036 66.2764 10.1411 65.7474 10.2212 65.4785C10.3157 65.1614 10.4396 64.86 10.558 64.5993C10.7951 64.0771 11.1235 63.4725 11.5007 62.818C12.2539 61.5112 13.3766 59.707 14.8151 57.3952L14.8515 57.3367C18.0244 52.2375 21 44.3282 21 32.5C21 25.3392 23.8446 18.4716 28.9081 13.4081ZM48 11.5C42.4304 11.5 37.089 13.7125 33.1507 17.6508C29.2125 21.589 27 26.9305 27 32.5C27 45.3933 23.7393 54.4101 19.9458 60.5066C18.5978 62.6729 17.5921 64.2899 16.8974 65.4734C18.0367 65.4996 19.5584 65.5 21.5554 65.5H74.4445C76.4415 65.5 77.9632 65.4996 79.1026 65.4734C78.4079 64.2899 77.4022 62.6729 76.0542 60.5066C72.2607 54.4101 69 45.3933 69 32.5C69 26.9305 66.7875 21.589 62.8492 17.6508C58.9109 13.7125 53.5695 11.5 48 11.5ZM35.1674 82.5148C36.2638 81.2726 38.1597 81.1544 39.4019 82.2508C41.6954 84.2751 44.701 85.5 48 85.5C51.299 85.5 54.3046 84.2751 56.5981 82.2508C57.8403 81.1544 59.7361 81.2726 60.8325 82.5148C61.9289 83.757 61.8107 85.6528 60.5685 86.7492C57.2209 89.7038 52.8165 91.5 48 91.5C43.1834 91.5 38.779 89.7038 35.4315 86.7492C34.1893 85.6528 34.0711 83.757 35.1674 82.5148Z" fill="#DD1405"/>
</svg>
