<svg width="16" height="16" viewBox="0 0 16 16" fill="none" xmlns="http://www.w3.org/2000/svg">
<path d="M5.58574 3.6215C6.53508 3.09804 7.62883 2.89731 8.70218 3.04956C9.77553 3.2018 10.7703 3.69878 11.5366 4.46559C11.5419 4.47086 11.5473 4.476 11.5528 4.48103L13.2361 6H10.5C10.2239 6 10 6.22386 10 6.5C10 6.77614 10.2239 7 10.5 7H14.5C14.7761 7 15 6.77614 15 6.5V2.5C15 2.22386 14.7761 2 14.5 2C14.2239 2 14 2.22386 14 2.5V5.34243L12.2359 3.75064C11.3174 2.83505 10.1269 2.24163 8.84262 2.05947C7.5546 1.87677 6.24209 2.11765 5.10288 2.7458C3.96367 3.37395 3.05948 4.35534 2.52656 5.54208C1.99363 6.72883 1.86085 8.05663 2.14823 9.3254C2.4356 10.5942 3.12755 11.7352 4.11982 12.5765C5.11208 13.4178 6.3509 13.9138 7.64959 13.9898C8.94828 14.0657 10.2365 13.7176 11.3201 12.9977C12.4037 12.2778 13.224 11.2253 13.6573 9.9987C13.7493 9.73833 13.6128 9.45269 13.3524 9.3607C13.0921 9.26871 12.8064 9.40521 12.7144 9.66558C12.3533 10.6878 11.6697 11.5649 10.7667 12.1648C9.86374 12.7646 8.79023 13.0548 7.70799 12.9915C6.62575 12.9282 5.5934 12.5148 4.76651 11.8137C3.93963 11.1127 3.363 10.1618 3.12352 9.1045C2.88405 8.04719 2.9947 6.94069 3.4388 5.95174C3.8829 4.96278 4.63639 4.14496 5.58574 3.6215Z" fill="#616366"/>
</svg>
