<svg width="16" height="16" viewBox="0 0 16 16" fill="none" xmlns="http://www.w3.org/2000/svg">
<path fill-rule="evenodd" clip-rule="evenodd" d="M6.5 1.5C3.73858 1.5 1.5 3.73858 1.5 6.5C1.5 9.26142 3.73858 11.5 6.5 11.5C7.70063 11.5 8.80243 11.0768 9.66437 10.3715L13.6464 14.3535C13.8416 14.5488 14.1582 14.5488 14.3535 14.3536C14.5487 14.1583 14.5488 13.8417 14.3535 13.6465L10.3715 9.66437C11.0768 8.80243 11.5 7.70063 11.5 6.5C11.5 3.73858 9.26142 1.5 6.5 1.5ZM2.5 6.5C2.5 4.29086 4.29086 2.5 6.5 2.5C8.70914 2.5 10.5 4.29086 10.5 6.5C10.5 8.70914 8.70914 10.5 6.5 10.5C4.29086 10.5 2.5 8.70914 2.5 6.5Z" fill="#303233"/>
</svg>
