<?xml version="1.0" encoding="UTF-8" standalone="no"?>
<svg
   width="6.6678329"
   height="4"
   viewBox="0 0 6.6678329 4"
   fill="none"
   version="1.1"
   id="svg2"
   sodipodi:docname="up_arrow.svg"
   inkscape:version="1.3.1 (9b9bdc1480, 2023-11-25, custom)"
   xmlns:inkscape="http://www.inkscape.org/namespaces/inkscape"
   xmlns:sodipodi="http://sodipodi.sourceforge.net/DTD/sodipodi-0.dtd"
   xmlns="http://www.w3.org/2000/svg"
   xmlns:svg="http://www.w3.org/2000/svg">
  <defs
     id="defs2" />
  <sodipodi:namedview
     id="namedview2"
     pagecolor="#ffffff"
     bordercolor="#000000"
     borderopacity="0.25"
     inkscape:showpageshadow="2"
     inkscape:pageopacity="0.0"
     inkscape:pagecheckerboard="0"
     inkscape:deskcolor="#d1d1d1"
     inkscape:zoom="68"
     inkscape:cx="3.3382353"
     inkscape:cy="6"
     inkscape:window-width="1850"
     inkscape:window-height="1016"
     inkscape:window-x="1990"
     inkscape:window-y="27"
     inkscape:window-maximized="1"
     inkscape:current-layer="svg2" />
  <path
     d="m 3.8051388,0.19526205 c -0.26035,-0.2603494 -0.68246,-0.2603494 -0.94281,0 L 0.19566477,2.8619301 c -0.260349,0.26035 -0.260349,0.68246 0,0.94281 0.260354,0.2603499 0.682464,0.2603499 0.94281403,0 l 2.19526,-2.1952601 2.19526,2.1952601 c 0.26035,0.2603499 0.68246,0.2603499 0.94281,0 0.26035,-0.26035 0.26035,-0.68246 0,-0.94281 z"
     fill="#303233"
     id="path1" />
  <path
     id="path2"
     d="m 0.66788317,8.0000001 c -0.1706154,0 -0.34247941,0.065138 -0.47265628,0.1953125 -0.0245472,0.024547 -0.046488,0.050973 -0.0664062,0.078125 0.03075,0.00921 0.0641706,0.015071 0.09375,0.021484 0.18739618,0.037683 0.37748018,0.05949 0.56640618,0.087891 0.1370045,0.022274 0.27409073,0.042639 0.41015633,0.070312 0.065584,0.013339 0.1280721,0.027105 0.1914062,0.048828 0.028184,0.00967 0.056295,0.0222 0.083984,0.033203 0.0026,0.00134 0.00521,0.00258 0.00781,0.00391 l -0.34375,-0.34375 C 1.0084114,8.0651377 0.83849847,8.0000001 0.66788317,8.0000001 Z m 5.33203123,0 c -0.1706148,0 -0.3405282,0.065138 -0.4707031,0.1953125 L 3.3338988,10.390625 1.8124144,8.8691407 c -0.047408,-0.019734 -0.094273,-0.040251 -0.140625,-0.0625 -0.1021219,-0.049019 -0.09462,-0.049806 -0.1855468,-0.099609 -0.022266,-0.012196 -0.043924,-0.023363 -0.066406,-0.035156 -0.023268,-0.00947 -0.04659,-0.019084 -0.070312,-0.027344 C 1.2908349,8.6241005 1.2327414,8.6100683 1.1717894,8.5976563 1.0374855,8.5703085 0.90272547,8.551305 0.76749257,8.529297 0.57535857,8.500394 0.38185077,8.4780792 0.19132065,8.4394532 0.14507834,8.4292422 0.09799134,8.4193092 0.05460189,8.4023439 -0.05061906,8.6458863 -0.00377599,8.9396683 0.19522689,9.138672 l 2.66796881,2.666016 c 0.2603497,0.260399 0.6810565,0.260399 0.9414062,0 L 6.4725707,9.138672 c 0.2603497,-0.2603498 0.2603497,-0.6830097 0,-0.9433594 C 6.3423958,8.0651377 6.1705293,8.0000001 5.9999144,8.0000001 Z" />
</svg>
