<svg width="14" height="14" viewBox="0 0 14 14" fill="none" xmlns="http://www.w3.org/2000/svg">
<path d="M7.5 5.70711L9.14645 7.35355C9.34171 7.54882 9.65829 7.54882 9.85355 7.35355C10.0488 7.15829 10.0488 6.84171 9.85355 6.64645L7.35355 4.14645C7.15829 3.95118 6.84171 3.95118 6.64645 4.14645L4.14645 6.64645C3.95118 6.84171 3.95118 7.15829 4.14645 7.35355C4.34171 7.54882 4.65829 7.54882 4.85355 7.35355L6.5 5.70711V9.5C6.5 9.77614 6.72386 10 7 10C7.27614 10 7.5 9.77614 7.5 9.5V5.70711Z" fill="#616366"/>
<path fill-rule="evenodd" clip-rule="evenodd" d="M0 7C0 3.13401 3.13401 0 7 0C10.866 0 14 3.13401 14 7C14 10.866 10.866 14 7 14C3.13401 14 0 10.866 0 7ZM7 1C3.68629 1 1 3.68629 1 7C1 10.3137 3.68629 13 7 13C10.3137 13 13 10.3137 13 7C13 3.68629 10.3137 1 7 1Z" fill="#616366"/>
</svg>
