<svg width="16" height="16" viewBox="0 0 16 16" fill="none" xmlns="http://www.w3.org/2000/svg">
<path fill-rule="evenodd" clip-rule="evenodd" d="M6 2C4.34315 2 3 3.34315 3 5C3 6.65685 4.34315 8 6 8C7.65685 8 9 6.65685 9 5C9 3.34315 7.65685 2 6 2ZM4 5C4 3.89543 4.89543 3 6 3C7.10457 3 8 3.89543 8 5C8 6.10457 7.10457 7 6 7C4.89543 7 4 6.10457 4 5Z" fill="#303233"/>
<path d="M1.58971 13.5995C2.00661 11.5457 3.82321 10 5.99969 10C8.17617 10 9.99276 11.5457 10.4097 13.5995C10.4646 13.8701 10.7285 14.0449 10.9991 13.99C11.2698 13.9351 11.4446 13.6712 11.3897 13.4005C10.88 10.8899 8.66112 9 5.99969 9C3.33825 9 1.11934 10.8899 0.609701 13.4005C0.554767 13.6712 0.729618 13.9351 1.00024 13.99C1.27086 14.0449 1.53478 13.8701 1.58971 13.5995Z" fill="#303233"/>
<path d="M10.0101 2.45054C10.065 2.17992 10.3289 2.00507 10.5996 2.06C11.9691 2.33801 13.0001 3.54804 13.0001 5C13.0001 6.45196 11.9691 7.66199 10.5996 7.94C10.3289 7.99493 10.065 7.82008 10.0101 7.54946C9.95516 7.27883 10.13 7.01492 10.4006 6.95998C11.3133 6.77472 12.0001 5.967 12.0001 5C12.0001 4.033 11.3133 3.22528 10.4006 3.04002C10.13 2.98508 9.95516 2.72117 10.0101 2.45054Z" fill="#303233"/>
<path d="M11.0996 9.11011C10.829 9.05515 10.5651 9.22998 10.5101 9.5006C10.4551 9.77122 10.63 10.0351 10.9006 10.0901C12.6628 10.448 14.052 11.8373 14.4097 13.5995C14.4646 13.8701 14.7285 14.0449 14.9991 13.99C15.2698 13.9351 15.4446 13.6712 15.3897 13.4005C14.9521 11.2448 13.2553 9.54788 11.0996 9.11011Z" fill="#303233"/>
</svg>
