<svg width="16" height="16" viewBox="0 0 16 16" fill="none" xmlns="http://www.w3.org/2000/svg">
<path d="M10.8536 5.14645C11.0488 5.34171 11.0488 5.65829 10.8536 5.85355L8.70711 8L10.8536 10.1464C11.0488 10.3417 11.0488 10.6583 10.8536 10.8536C10.6583 11.0488 10.3417 11.0488 10.1464 10.8536L8 8.70711L5.85355 10.8536C5.65829 11.0488 5.34171 11.0488 5.14645 10.8536C4.95118 10.6583 4.95118 10.3417 5.14645 10.1464L7.29289 8L5.14645 5.85355C4.95118 5.65829 4.95118 5.34171 5.14645 5.14645C5.34171 4.95118 5.65829 4.95118 5.85355 5.14645L8 7.29289L10.1464 5.14645C10.3417 4.95118 10.6583 4.95118 10.8536 5.14645Z" fill="#616366"/>
<path fill-rule="evenodd" clip-rule="evenodd" d="M1 2.94444C1 1.87056 1.87056 1 2.94444 1H13.0556C14.1294 1 15 1.87056 15 2.94444V13.0556C15 14.1294 14.1294 15 13.0556 15H2.94444C1.87056 15 1 14.1294 1 13.0556V2.94444ZM2.94444 2C2.42284 2 2 2.42284 2 2.94444V13.0556C2 13.5772 2.42284 14 2.94444 14H13.0556C13.5772 14 14 13.5772 14 13.0556V2.94444C14 2.42284 13.5772 2 13.0556 2H2.94444Z" fill="#616366"/>
</svg>
