<svg width="18" height="18" viewBox="0 0 18 18" fill="none" xmlns="http://www.w3.org/2000/svg">
<g clip-path="url(#clip0_1430_1704)">
<path d="M9 0.655273C13.6063 0.655273 17.3447 4.3937 17.3447 9C17.3447 13.6063 13.6063 17.3447 9 17.3447C4.3937 17.3447 0.655273 13.6063 0.655273 9C0.655314 4.39373 4.39373 0.655314 9 0.655273ZM5.07227 5.87109C4.93689 5.87129 4.82724 5.98049 4.82715 6.12109V11.8789C4.82715 12.0196 4.93683 12.1297 5.07227 12.1299H6.12598C6.26158 12.1299 6.37109 12.0197 6.37109 11.8789V8.60938C6.37109 8.57808 6.40818 8.56736 6.42383 8.58301L8.65039 10.8359C8.84336 11.0341 9.15664 11.0341 9.34961 10.8359L11.5762 8.58301C11.5918 8.56736 11.6289 8.57808 11.6289 8.60938V11.8789C11.6289 12.0197 11.7384 12.1299 11.874 12.1299H12.9268C13.0624 12.1299 13.1719 12.0197 13.1719 11.8789V6.12109C13.1718 5.98036 13.0623 5.87109 12.9268 5.87109H12.2021C12.0718 5.87111 11.9464 5.92278 11.8525 6.0166L9.08887 8.81738C9.04193 8.86432 8.95807 8.86432 8.91113 8.81738L6.14746 6.0166C6.05365 5.92279 5.92814 5.87117 5.79785 5.87109H5.07227Z" fill="black"/>
</g>
<defs>
<clipPath id="clip0_1430_1704">
<rect width="18" height="18" fill="white"/>
</clipPath>
</defs>
</svg>
