<svg width="18" height="18" viewBox="0 0 18 18" fill="none" xmlns="http://www.w3.org/2000/svg">
<g clip-path="url(#clip0_1430_1284)">
<path d="M8.99986 0.400146C13.7469 0.400146 17.6003 4.25275 17.6004 8.99976C17.6004 13.7469 13.747 17.6003 8.99986 17.6003C4.25285 17.6002 0.400246 13.7468 0.400246 8.99976C0.40038 4.25283 4.25293 0.400281 8.99986 0.400146ZM4.95298 5.77515C4.8133 5.77515 4.70016 5.88794 4.70005 6.03296V11.9675C4.70028 12.1124 4.81338 12.2253 4.95298 12.2253H6.03794C6.17754 12.2253 6.29064 12.1124 6.29087 11.9675V8.59741C6.29087 8.56523 6.3284 8.55408 6.34458 8.57007L8.6395 10.8923C8.83836 11.0966 9.16133 11.0965 9.36021 10.8923L11.6551 8.57007C11.6713 8.554 11.7088 8.56519 11.7088 8.59741V11.9675C11.7091 12.1124 11.8222 12.2253 11.9618 12.2253H13.0467C13.1863 12.2253 13.2994 12.1124 13.2997 11.9675V6.03296C13.2995 5.88794 13.1864 5.77515 13.0467 5.77515H12.2997C12.1655 5.77526 12.0369 5.82903 11.9403 5.92554L9.09165 8.81226C9.04328 8.86063 8.95643 8.86063 8.90806 8.81226L6.05943 5.92554C5.96279 5.82904 5.83417 5.77524 5.70005 5.77515H4.95298Z" fill="black"/>
</g>
<defs>
<clipPath id="clip0_1430_1284">
<rect width="18" height="18" fill="white"/>
</clipPath>
</defs>
</svg>
