<svg width="18" height="18" viewBox="0 0 18 18" fill="none" xmlns="http://www.w3.org/2000/svg">
<g clip-path="url(#clip0_1430_1306)">
<path d="M9.00037 0.0551758C13.9379 0.0553507 17.9447 4.06296 17.9447 9.00049C17.9445 13.9379 13.9377 17.9446 9.00037 17.9448C4.06284 17.9448 0.0552286 13.938 0.0550537 9.00049C0.0550537 4.06285 4.06273 0.0551758 9.00037 0.0551758ZM4.79041 5.646C4.64505 5.646 4.52771 5.7636 4.52771 5.91455V12.0864C4.52773 12.2374 4.64506 12.355 4.79041 12.355H5.91931C6.06465 12.355 6.18199 12.2374 6.18201 12.0864V8.58154C6.18201 8.548 6.22188 8.53645 6.23865 8.55322L8.62537 10.9683C8.83219 11.1807 9.16753 11.1806 9.37439 10.9683L11.7621 8.55322C11.7789 8.53661 11.8177 8.54807 11.8177 8.58154V12.0864C11.8178 12.2374 11.9351 12.355 12.0804 12.355H13.2094C13.3547 12.355 13.472 12.2374 13.472 12.0864V5.91455C13.472 5.7636 13.3547 5.646 13.2094 5.646H12.433C12.2933 5.646 12.1586 5.70168 12.058 5.80225L9.09509 8.80518C9.04477 8.85525 8.95493 8.85532 8.90466 8.80518L5.94177 5.80225C5.84126 5.70185 5.70727 5.6461 5.56775 5.646H4.79041Z" fill="black"/>
</g>
<defs>
<clipPath id="clip0_1430_1306">
<rect width="18" height="18" fill="white"/>
</clipPath>
</defs>
</svg>
