<svg width="18" height="18" viewBox="0 0 18 18" fill="none" xmlns="http://www.w3.org/2000/svg">
<g clip-path="url(#clip0_1430_1724)">
<path d="M9.00049 0.445068C13.7227 0.445323 17.5552 4.27842 17.5552 9.00073C17.5549 13.7228 13.7226 17.5552 9.00049 17.5554C4.27818 17.5554 0.445079 13.723 0.444824 9.00073C0.444824 4.27827 4.27802 0.445068 9.00049 0.445068ZM4.97314 5.79175C4.83432 5.79196 4.7222 5.90438 4.72217 6.04858V11.9519C4.72225 12.0961 4.83435 12.2085 4.97314 12.2087H6.05322C6.19219 12.2087 6.30509 12.0962 6.30518 11.9519V8.59937C6.30518 8.56728 6.34285 8.55598 6.35889 8.57202L8.64111 10.8826C8.83889 11.0857 9.16006 11.0856 9.35791 10.8826L11.6411 8.57202C11.6572 8.55619 11.6948 8.56738 11.6948 8.59937V11.9519C11.6949 12.0961 11.8069 12.2086 11.9458 12.2087H13.0259C13.1648 12.2087 13.2777 12.0962 13.2778 11.9519V6.04858C13.2778 5.90425 13.1649 5.79175 13.0259 5.79175H12.2827C12.1491 5.79179 12.0205 5.84593 11.9243 5.94214L9.09033 8.81323C9.04216 8.86107 8.95672 8.86126 8.90869 8.81323L6.07471 5.94214C5.97846 5.84589 5.84998 5.79175 5.71631 5.79175H4.97314Z" fill="black"/>
</g>
<defs>
<clipPath id="clip0_1430_1724">
<rect width="18" height="18" fill="white"/>
</clipPath>
</defs>
</svg>
