<svg width="18" height="18" viewBox="0 0 18 18" fill="none" xmlns="http://www.w3.org/2000/svg">
<g clip-path="url(#clip0_1430_1286)">
<path d="M9.00001 0.365234C13.7664 0.365234 17.6347 4.2336 17.6348 9C17.6348 13.7664 13.7665 17.6348 9.00001 17.6348C4.23361 17.6347 0.365246 13.7664 0.365246 9C0.365295 4.23363 4.23364 0.365283 9.00001 0.365234ZM4.93653 5.76172C4.79622 5.76172 4.68263 5.87577 4.68263 6.02148V11.9795C4.68277 12.1251 4.79631 12.2383 4.93653 12.2383H6.02638C6.16656 12.2382 6.28014 12.125 6.28028 11.9795V8.5957C6.28028 8.56332 6.31781 8.55217 6.334 8.56836L8.63868 10.8994C8.83836 11.1045 9.16166 11.1045 9.36134 10.8994L11.666 8.56836C11.6823 8.55231 11.7197 8.56339 11.7197 8.5957V11.9795C11.7199 12.1251 11.8334 12.2383 11.9736 12.2383H13.0635C13.2037 12.2383 13.3173 12.1251 13.3174 11.9795V6.02148C13.3174 5.87577 13.2038 5.76172 13.0635 5.76172H12.3135C12.1787 5.76173 12.0493 5.81607 11.9522 5.91309L9.09181 8.81152C9.04328 8.86002 8.9568 8.85995 8.90821 8.81152L6.04786 5.91309C5.95079 5.81605 5.82133 5.76179 5.68653 5.76172H4.93653Z" fill="black"/>
</g>
<defs>
<clipPath id="clip0_1430_1286">
<rect width="18" height="18" fill="white"/>
</clipPath>
</defs>
</svg>
