<svg width="18" height="18" viewBox="0 0 18 18" fill="none" xmlns="http://www.w3.org/2000/svg">
<g clip-path="url(#clip0_1430_1736)">
<path d="M8.99976 0.324951C13.7883 0.324951 17.6754 4.21124 17.6755 8.99976C17.6755 13.7884 13.7884 17.6755 8.99976 17.6755C4.21124 17.6754 0.324951 13.7883 0.324951 8.99976C0.325106 4.21133 4.21133 0.325106 8.99976 0.324951ZM4.91675 5.74683C4.77595 5.74703 4.66187 5.86131 4.66187 6.00757V11.9929C4.66187 12.1392 4.77595 12.2535 4.91675 12.2537H6.01245C6.15338 12.2536 6.26733 12.1393 6.26733 11.9929V8.59351C6.26743 8.56132 6.3046 8.55044 6.32104 8.56616L8.63647 10.9089C8.83705 11.1149 9.16242 11.1149 9.36304 10.9089L11.6785 8.56616C11.6949 8.55031 11.7321 8.56126 11.7322 8.59351V11.9929C11.7322 12.1392 11.8462 12.2535 11.9871 12.2537H13.0828C13.2236 12.2536 13.3376 12.1392 13.3376 11.9929V6.00757C13.3376 5.86125 13.2236 5.74694 13.0828 5.74683H12.3289C12.1933 5.74684 12.0632 5.80159 11.9656 5.89917L9.09155 8.8103C9.04274 8.85896 8.95672 8.85902 8.90796 8.8103L6.03394 5.89917C5.93634 5.80158 5.8062 5.74683 5.67065 5.74683H4.91675Z" fill="black"/>
</g>
<defs>
<clipPath id="clip0_1430_1736">
<rect width="18" height="18" fill="white"/>
</clipPath>
</defs>
</svg>
