<svg width="18" height="18" viewBox="0 0 18 18" fill="none" xmlns="http://www.w3.org/2000/svg">
<g clip-path="url(#clip0_1430_1312)">
<path d="M9.00049 0.0102539C13.9627 0.0104711 17.9897 4.03823 17.9897 9.00049C17.9895 13.9626 13.9626 17.9895 9.00049 17.9897C4.03823 17.9897 0.0104711 13.9627 0.0102539 9.00049C0.0102539 4.0381 4.0381 0.0102539 9.00049 0.0102539ZM4.76904 5.62939C4.62298 5.62942 4.50537 5.74724 4.50537 5.89893V12.1021C4.50553 12.2536 4.62308 12.3716 4.76904 12.3716H5.90381C6.04979 12.3716 6.1683 12.2536 6.16846 12.1021V8.57861C6.16864 8.54531 6.20713 8.53395 6.22412 8.55029L8.62354 10.978C8.83143 11.1915 9.16859 11.1915 9.37646 10.978L11.7759 8.55029C11.7929 8.53405 11.8314 8.54536 11.8315 8.57861V12.1021C11.8317 12.2536 11.9502 12.3716 12.0962 12.3716H13.231C13.3769 12.3715 13.4945 12.2535 13.4946 12.1021V5.89893C13.4946 5.74729 13.377 5.6295 13.231 5.62939H12.4497C12.3093 5.62941 12.1748 5.68555 12.0737 5.78662L9.09521 8.80322C9.04465 8.85379 8.95535 8.85379 8.90479 8.80322L5.92627 5.78662C5.82519 5.68554 5.69068 5.62945 5.55029 5.62939H4.76904Z" fill="black"/>
</g>
<defs>
<clipPath id="clip0_1430_1312">
<rect width="18" height="18" fill="white"/>
</clipPath>
</defs>
</svg>
