<svg fill="none" height="18" viewBox="0 0 18 18" width="18" xmlns="http://www.w3.org/2000/svg"><path clip-rule="evenodd" d="m1 9c0 4.416 3.584 8 8 8s8-3.584 8-8-3.584-8-8-8-8 3.584-8 8zm11.765 3c.13 0 .235-.105.235-.24v-5.52c0-.135-.105-.24-.235-.24h-.695c-.125 0-.245.05-.335.14l-2.65 2.685c-.045.045-.125.045-.17 0l-2.65-2.685c-.09-.09-.21-.14-.335-.14h-.695c-.13 0-.235.105-.235.24v5.52c0 .135.105.24.235.24h1.01c.13 0 .235-.105.235-.24v-3.135c0-.03.035-.04.05-.025l2.135 2.16c.185.19.485.19.67 0l2.135-2.16c.015-.015.05-.005.05.025v3.135c0 .135.105.24.235.24z" fill="#000" fill-rule="evenodd"/></svg>