<svg width="18" height="18" viewBox="0 0 18 18" fill="none" xmlns="http://www.w3.org/2000/svg">
<g clip-path="url(#clip0_1430_1268)">
<path d="M9.00018 0.745361C13.5568 0.745404 17.2551 4.44362 17.2551 9.00024C17.255 13.5568 13.5568 17.2551 9.00018 17.2551C4.44356 17.2551 0.745343 13.5569 0.7453 9.00024C0.7453 4.44359 4.44353 0.745361 9.00018 0.745361ZM5.11542 5.90454C4.98128 5.90454 4.87225 6.01329 4.87225 6.15259V11.8479C4.87225 11.9872 4.98128 12.0959 5.11542 12.0959H6.15741C6.29146 12.0958 6.3996 11.9871 6.3996 11.8479V8.61353C6.3996 8.5826 6.43585 8.57174 6.45135 8.58716L8.65448 10.8157C8.84537 11.0117 9.15499 11.0117 9.34589 10.8157L11.549 8.58716C11.5646 8.57206 11.5998 8.58275 11.5998 8.61353V11.8479C11.5998 11.9872 11.7088 12.0959 11.843 12.0959H12.8849C13.0191 12.0959 13.1271 11.9872 13.1271 11.8479V6.15259C13.1271 6.01331 13.0191 5.90458 12.8849 5.90454H12.1682C12.0392 5.90454 11.9153 5.95629 11.8224 6.04907L9.08807 8.81958C9.04166 8.86599 8.95874 8.86594 8.91229 8.81958L6.17792 6.04907C6.08506 5.95621 5.96118 5.90455 5.83221 5.90454H5.11542Z" fill="black"/>
</g>
<defs>
<clipPath id="clip0_1430_1268">
<rect width="18" height="18" fill="white"/>
</clipPath>
</defs>
</svg>
