<svg width="18" height="18" viewBox="0 0 18 18" fill="none" xmlns="http://www.w3.org/2000/svg">
<g clip-path="url(#clip0_1430_216)">
<g opacity="0.57">
<path fill-rule="evenodd" clip-rule="evenodd" d="M1 9C1 13.416 4.584 17 9 17C13.416 17 17 13.416 17 9C17 4.584 13.416 1 9 1C4.584 1 1 4.584 1 9ZM12.765 12C12.895 12 13 11.895 13 11.76V6.24C13 6.105 12.895 6 12.765 6H12.07C11.945 6 11.825 6.05 11.735 6.14L9.085 8.825C9.04 8.87 8.96 8.87 8.915 8.825L6.265 6.14C6.175 6.05 6.055 6 5.93 6H5.235C5.105 6 5 6.105 5 6.24V11.76C5 11.895 5.105 12 5.235 12H6.245C6.375 12 6.48 11.895 6.48 11.76V8.625C6.48 8.595 6.515 8.585 6.53 8.6L8.665 10.76C8.85 10.95 9.15 10.95 9.335 10.76L11.47 8.6C11.485 8.585 11.52 8.595 11.52 8.625V11.76C11.52 11.895 11.625 12 11.755 12H12.765Z" fill="black"/>
</g>
</g>
<defs>
<clipPath id="clip0_1430_216">
<rect width="18" height="18" fill="white"/>
</clipPath>
</defs>
</svg>
