<svg width="18" height="18" viewBox="0 0 18 18" fill="none" xmlns="http://www.w3.org/2000/svg">
<g clip-path="url(#clip0_1430_1282)">
<path d="M9.00058 0.445068C13.7228 0.445323 17.5553 4.27842 17.5553 9.00073C17.555 13.7228 13.7227 17.5552 9.00058 17.5554C4.27827 17.5554 0.44517 13.723 0.444916 9.00073C0.444916 4.27827 4.27811 0.445068 9.00058 0.445068ZM4.97324 5.79175C4.83442 5.79196 4.7223 5.90438 4.72226 6.04858V11.9519C4.72234 12.0961 4.83445 12.2085 4.97324 12.2087H6.05331C6.19228 12.2087 6.30518 12.0962 6.30527 11.9519V8.59937C6.30527 8.56728 6.34294 8.55598 6.35898 8.57202L8.6412 10.8826C8.83898 11.0857 9.16015 11.0856 9.358 10.8826L11.6412 8.57202C11.6573 8.55619 11.6949 8.56738 11.6949 8.59937V11.9519C11.695 12.0961 11.807 12.2086 11.9459 12.2087H13.026C13.1649 12.2087 13.2778 12.0962 13.2779 11.9519V6.04858C13.2779 5.90425 13.165 5.79175 13.026 5.79175H12.2828C12.1492 5.79179 12.0206 5.84593 11.9244 5.94214L9.09042 8.81323C9.04225 8.86107 8.95681 8.86126 8.90878 8.81323L6.0748 5.94214C5.97855 5.84589 5.85008 5.79175 5.7164 5.79175H4.97324Z" fill="black"/>
</g>
<defs>
<clipPath id="clip0_1430_1282">
<rect width="18" height="18" fill="white"/>
</clipPath>
</defs>
</svg>
