<svg width="18" height="18" viewBox="0 0 18 18" fill="none" xmlns="http://www.w3.org/2000/svg">
<g clip-path="url(#clip0_1430_1260)">
<path d="M8.99939 0.935059C13.4511 0.935059 17.0646 4.54789 17.0648 8.99951C17.0648 13.4514 13.4512 17.0649 8.99939 17.0649C4.54777 17.0647 0.934937 13.4512 0.934937 8.99951C0.935198 4.54805 4.54793 0.93532 8.99939 0.935059ZM5.20447 5.97607C5.07352 5.97607 4.96734 6.08135 4.96716 6.21729V11.7827C4.96731 11.9187 5.0735 12.0239 5.20447 12.0239H6.22302C6.35379 12.0237 6.45921 11.9185 6.45935 11.7827V8.62158C6.45966 8.59165 6.49508 8.58211 6.51013 8.59717L8.66248 10.7739C8.84898 10.9655 9.15078 10.9655 9.33728 10.7739L11.4896 8.59717C11.5047 8.58211 11.5401 8.59165 11.5404 8.62158V11.7827C11.5406 11.9187 11.6467 12.0239 11.7777 12.0239H12.7953C12.9263 12.0239 13.0324 11.9187 13.0326 11.7827V6.21729C13.0324 6.08135 12.9262 5.97607 12.7953 5.97607H12.0951C11.9691 5.97607 11.8479 6.02602 11.7572 6.1167L9.08533 8.82373C9.03997 8.86883 8.95975 8.86888 8.91443 8.82373L6.24255 6.1167C6.15184 6.02607 6.0306 5.97607 5.90466 5.97607H5.20447Z" fill="black"/>
</g>
<defs>
<clipPath id="clip0_1430_1260">
<rect width="18" height="18" fill="white"/>
</clipPath>
</defs>
</svg>
