<svg width="18" height="18" viewBox="0 0 18 18" fill="none" xmlns="http://www.w3.org/2000/svg">
<g clip-path="url(#clip0_1430_1292)">
<path d="M9.00031 0.250244C13.8301 0.250355 17.7503 4.17042 17.7503 9.00024C17.7502 13.83 13.83 17.7501 9.00031 17.7502C4.17049 17.7502 0.250416 13.83 0.250305 9.00024C0.250305 4.17036 4.17042 0.250244 9.00031 0.250244ZM4.88214 5.71899C4.73996 5.71899 4.62531 5.83404 4.62531 5.98169V12.0188C4.62531 12.1665 4.73996 12.2815 4.88214 12.2815H5.98663C6.12882 12.2815 6.24347 12.1665 6.24347 12.0188V8.59009C6.24347 8.55735 6.28169 8.54651 6.29816 8.56274L8.63312 10.925C8.83546 11.1329 9.16418 11.1329 9.36652 10.925L11.7015 8.56274C11.7179 8.5464 11.7562 8.5573 11.7562 8.59009V12.0188C11.7562 12.1664 11.8709 12.2814 12.013 12.2815H13.1175C13.2597 12.2815 13.3743 12.1665 13.3743 12.0188V5.98169C13.3743 5.83404 13.2597 5.71899 13.1175 5.71899H12.3577C12.221 5.71899 12.0899 5.77393 11.9915 5.87231L9.09308 8.80884C9.04386 8.85806 8.95577 8.85806 8.90656 8.80884L6.00812 5.87231C5.9097 5.77397 5.77855 5.71899 5.64191 5.71899H4.88214Z" fill="black"/>
</g>
<defs>
<clipPath id="clip0_1430_1292">
<rect width="18" height="18" fill="white"/>
</clipPath>
</defs>
</svg>
