<svg width="18" height="18" viewBox="0 0 18 18" fill="none" xmlns="http://www.w3.org/2000/svg">
<g clip-path="url(#clip0_1430_1274)">
<path d="M8.99988 0.61499C13.6283 0.61499 17.3845 4.37134 17.3846 8.99976C17.3846 13.6283 13.6284 17.3845 8.99988 17.3845C4.37147 17.3844 0.615112 13.6282 0.615112 8.99976C0.615238 4.37142 4.37154 0.615116 8.99988 0.61499ZM5.05359 5.8562C4.91744 5.85629 4.80756 5.96579 4.8075 6.10718V11.8933C4.80768 12.0346 4.91752 12.1442 5.05359 12.1443H6.11218C6.24832 12.1443 6.35809 12.0346 6.35828 11.8933V8.60718C6.35828 8.57577 6.39526 8.56517 6.41101 8.58081L8.64929 10.8445C8.8432 11.0436 9.15756 11.0436 9.35144 10.8445L11.5887 8.58081C11.6045 8.56509 11.6415 8.57574 11.6415 8.60718V11.8933C11.6417 12.0346 11.7514 12.1443 11.8876 12.1443H12.9462C13.0823 12.1443 13.1921 12.0346 13.1923 11.8933V6.10718C13.1922 5.96575 13.0824 5.85622 12.9462 5.8562H12.2177C12.0866 5.85621 11.9604 5.90836 11.8661 6.00269L9.08875 8.81714C9.04161 8.86385 8.95811 8.86388 8.91101 8.81714L6.13367 6.00269C6.03934 5.90835 5.91312 5.8562 5.7821 5.8562H5.05359Z" fill="black"/>
</g>
<defs>
<clipPath id="clip0_1430_1274">
<rect width="18" height="18" fill="white"/>
</clipPath>
</defs>
</svg>
