<svg width="18" height="18" viewBox="0 0 18 18" fill="none" xmlns="http://www.w3.org/2000/svg">
<g clip-path="url(#clip0_1430_1302)">
<path d="M8.99963 0.100342C13.9122 0.100342 17.8998 4.08724 17.9 8.99976C17.9 13.9124 13.9123 17.9001 8.99963 17.9001C4.08712 17.8999 0.10022 13.9123 0.10022 8.99976C0.100426 4.08737 4.08725 0.100548 8.99963 0.100342ZM4.81116 5.66284C4.66676 5.66299 4.55057 5.7795 4.55042 5.92944V12.071C4.55065 12.2209 4.66681 12.3375 4.81116 12.3376H5.93518C6.07959 12.3376 6.19667 12.221 6.1969 12.071V8.58276C6.19708 8.54957 6.23591 8.53877 6.25256 8.55542L8.62756 10.9578C8.83337 11.1691 9.16687 11.1691 9.37268 10.9578L11.7477 8.55542C11.7643 8.53877 11.8032 8.54957 11.8033 8.58276V12.071C11.8036 12.221 11.9206 12.3376 12.0651 12.3376H13.1881C13.3326 12.3376 13.4496 12.221 13.4498 12.071V5.92944C13.4497 5.7794 13.3326 5.66284 13.1881 5.66284H12.4156C12.2767 5.66284 12.1427 5.71814 12.0426 5.81812L9.09436 8.80542C9.0443 8.85547 8.95496 8.85548 8.90491 8.80542L5.95764 5.81812C5.85752 5.718 5.72365 5.66284 5.58459 5.66284H4.81116Z" fill="black"/>
</g>
<defs>
<clipPath id="clip0_1430_1302">
<rect width="18" height="18" fill="white"/>
</clipPath>
</defs>
</svg>
