<svg fill="none" height="18" viewBox="0 0 18 18" width="18" xmlns="http://www.w3.org/2000/svg"><g fill="#000"><path d="m9 1c4.416 0 8 3.584 8 8 0 .32396-.0221.64311-.0596.95703-.8253-.6013-1.8411-.95703-2.9404-.95703-.3424 0-.6769.03403-1 .09961v-2.85938c0-.135-.1054-.24023-.2354-.24023h-.6943c-.1248 0-.245.04987-.3349.13965l-2.65044 2.68555c-.04498.04484-.12494.04484-.16992 0l-2.65039-2.68555c-.08996-.08978-.21013-.13965-.33496-.13965h-.69434c-.13 0-.23535.10523-.23535.24023v5.51957c0 .135.10535.2402.23535.2402h1.00977c.12994-.0001.23535-.1053.23535-.2402v-3.1348c0-.02996.03477-.04031.0498-.02539l2.13477 2.16019c.185.19.48492.19.66992 0l2.13474-2.16019c.0151-.01492.0498-.00457.0498.02539v1.03418c-1.5049.86182-2.5195 2.48232-2.5195 4.34082 0 1.0993.35573 2.1151.95703 2.9404-.31392.0375-.63307.0596-.95703.0596-4.416 0-8-3.584-8-8s3.584-8 8-8z" fill-opacity=".5"/><path d="m14 10c2.2091 0 4 1.7909 4 4s-1.7909 4-4 4-4-1.7909-4-4 1.7909-4 4-4zm-1.5 1.999c-.276 0-.4998.2241-.5.5v3c.0003.2759.224.5.5.5s.4997-.2241.5-.5v-3c-.0002-.2759-.224-.5-.5-.5zm3 0c-.276 0-.4998.2241-.5.5v3c.0003.2759.224.5.5.5s.4997-.2241.5-.5v-3c-.0002-.2759-.224-.5-.5-.5z"/></g></svg>