<svg width="18" height="18" viewBox="0 0 18 18" fill="none" xmlns="http://www.w3.org/2000/svg">
<g clip-path="url(#clip0_1430_1716)">
<path d="M9 0.525146C13.678 0.525146 17.4745 4.32176 17.4746 8.99976C17.4746 13.6778 13.6781 17.4744 9 17.4744C4.322 17.4743 0.525391 13.6778 0.525391 8.99976C0.525472 4.32181 4.32205 0.525227 9 0.525146ZM5.01172 5.82202C4.87414 5.82202 4.76292 5.93313 4.7627 6.07593V11.9236C4.7627 12.0666 4.874 12.1785 5.01172 12.1785H6.08105C6.21877 12.1785 6.33008 12.0666 6.33008 11.9236V8.60327C6.33008 8.57149 6.3679 8.56101 6.38379 8.5769L8.64551 10.865C8.8414 11.0657 9.15862 11.0658 9.35449 10.865L11.6162 8.5769C11.6321 8.56101 11.6699 8.57149 11.6699 8.60327V11.9236C11.6699 12.0666 11.7812 12.1785 11.9189 12.1785H12.9883C13.126 12.1785 13.2373 12.0666 13.2373 11.9236V6.07593C13.2371 5.93313 13.1259 5.82202 12.9883 5.82202H12.252C12.1196 5.82208 11.9927 5.87522 11.8975 5.97046L9.08984 8.81519C9.04223 8.86246 8.95779 8.86244 8.91016 8.81519L6.10254 5.97046C6.00727 5.87521 5.88035 5.82209 5.74805 5.82202H5.01172Z" fill="black"/>
</g>
<defs>
<clipPath id="clip0_1430_1716">
<rect width="18" height="18" fill="white"/>
</clipPath>
</defs>
</svg>
