<svg width="18" height="18" viewBox="0 0 18 18" fill="none" xmlns="http://www.w3.org/2000/svg">
<g clip-path="url(#clip0_1430_1278)">
<path d="M8.99994 0.525146C13.678 0.525146 17.4745 4.32176 17.4745 8.99976C17.4745 13.6778 13.678 17.4744 8.99994 17.4744C4.32194 17.4743 0.52533 13.6778 0.52533 8.99976C0.525411 4.32181 4.32199 0.525227 8.99994 0.525146ZM5.01166 5.82202C4.87408 5.82202 4.76286 5.93313 4.76263 6.07593V11.9236C4.76263 12.0666 4.87394 12.1785 5.01166 12.1785H6.08099C6.21871 12.1785 6.33002 12.0666 6.33002 11.9236V8.60327C6.33002 8.57149 6.36784 8.56101 6.38373 8.5769L8.64545 10.865C8.84134 11.0657 9.15856 11.0658 9.35443 10.865L11.6161 8.5769C11.632 8.56101 11.6699 8.57149 11.6699 8.60327V11.9236C11.6699 12.0666 11.7812 12.1785 11.9189 12.1785H12.9882C13.1259 12.1785 13.2372 12.0666 13.2372 11.9236V6.07593C13.237 5.93313 13.1258 5.82202 12.9882 5.82202H12.2519C12.1196 5.82208 11.9927 5.87522 11.8974 5.97046L9.08978 8.81519C9.04217 8.86246 8.95773 8.86244 8.9101 8.81519L6.10248 5.97046C6.00721 5.87521 5.88029 5.82209 5.74799 5.82202H5.01166Z" fill="black"/>
</g>
<defs>
<clipPath id="clip0_1430_1278">
<rect width="18" height="18" fill="white"/>
</clipPath>
</defs>
</svg>
