<svg width="18" height="18" viewBox="0 0 18 18" fill="none" xmlns="http://www.w3.org/2000/svg">
<g clip-path="url(#clip0_1430_1680)">
<path d="M8.99951 0.935059C13.4512 0.935059 17.0647 4.54789 17.0649 8.99951C17.0649 13.4514 13.4514 17.0649 8.99951 17.0649C4.54789 17.0647 0.935059 13.4512 0.935059 8.99951C0.93532 4.54805 4.54805 0.93532 8.99951 0.935059ZM5.20459 5.97607C5.07353 5.97607 4.96729 6.08217 4.96729 6.21826V11.7827C4.96732 11.9188 5.07355 12.0249 5.20459 12.0249H6.22217C6.3532 12.0249 6.45944 11.9188 6.45947 11.7827V8.62256C6.45947 8.5924 6.49408 8.58224 6.50928 8.59717L8.66162 10.7749C8.84805 10.9664 9.15088 10.9662 9.3374 10.7749L11.4897 8.59717C11.5049 8.58205 11.5405 8.59232 11.5405 8.62256V11.7827C11.5406 11.9187 11.6459 12.0248 11.7769 12.0249H12.7954C12.9264 12.0248 13.0317 11.9187 13.0317 11.7827V6.21826C13.0317 6.0822 12.9264 5.97613 12.7954 5.97607H12.0942C11.9685 5.97619 11.8479 6.0263 11.7573 6.1167L9.08545 8.82373C9.04008 8.8691 8.95894 8.8691 8.91357 8.82373L6.24268 6.1167C6.15196 6.02603 6.03075 5.97607 5.90479 5.97607H5.20459Z" fill="black"/>
</g>
<defs>
<clipPath id="clip0_1430_1680">
<rect width="18" height="18" fill="white"/>
</clipPath>
</defs>
</svg>
