<svg width="18" height="18" viewBox="0 0 18 18" fill="none" xmlns="http://www.w3.org/2000/svg">
<g clip-path="url(#clip0_1430_1712)">
<path d="M9 0.570068C13.6533 0.570068 17.4305 4.34654 17.4307 8.99976C17.4307 13.6531 13.6534 17.4304 9 17.4304C4.34678 17.4303 0.570312 13.653 0.570312 8.99976C0.57048 4.34664 4.34689 0.570236 9 0.570068ZM5.0332 5.83862C4.89629 5.83862 4.78528 5.94941 4.78516 6.09155V11.9089C4.78539 12.051 4.89636 12.1619 5.0332 12.1619H6.09668C6.23352 12.1619 6.34449 12.051 6.34473 11.9089V8.60522C6.34473 8.57361 6.38165 8.56305 6.39746 8.57886L8.64746 10.8552C8.84242 11.055 9.1587 11.0552 9.35352 10.8552L11.6025 8.57886C11.6183 8.56305 11.6553 8.57361 11.6553 8.60522V11.9089C11.6555 12.051 11.7665 12.1619 11.9033 12.1619H12.9678C13.1045 12.1617 13.2146 12.0509 13.2148 11.9089V6.09155C13.2147 5.9495 13.1046 5.83877 12.9678 5.83862H12.2354C12.1036 5.83862 11.9767 5.89125 11.8818 5.98608L9.08984 8.81616C9.0424 8.86343 8.95753 8.86352 8.91016 8.81616L6.11816 5.98608C6.02334 5.89134 5.8963 5.83862 5.76465 5.83862H5.0332Z" fill="black"/>
</g>
<defs>
<clipPath id="clip0_1430_1712">
<rect width="18" height="18" fill="white"/>
</clipPath>
</defs>
</svg>
