<svg width="18" height="18" viewBox="0 0 18 18" fill="none" xmlns="http://www.w3.org/2000/svg">
<g clip-path="url(#clip0_1430_456)">
<g opacity="0.57">
<path d="M9 1C13.416 1 17 4.584 17 9C17 13.416 13.416 17 9 17C4.584 17 1 13.416 1 9C1 4.584 4.584 1 9 1ZM5.23535 6C5.10535 6 5 6.10523 5 6.24023V11.7598C5 11.8948 5.10535 12 5.23535 12H6.24512C6.37506 11.9999 6.48047 11.8947 6.48047 11.7598V8.625C6.48047 8.59504 6.51524 8.58469 6.53027 8.59961L8.66504 10.7598C8.85004 10.9498 9.14996 10.9498 9.33496 10.7598L11.4697 8.59961C11.4848 8.58469 11.5195 8.59504 11.5195 8.625V11.7598C11.5195 11.8947 11.6249 11.9999 11.7549 12H12.7646C12.8946 12 13 11.8948 13 11.7598V6.24023C13 6.10523 12.8946 6 12.7646 6H12.0703C11.9455 6 11.8253 6.04987 11.7354 6.13965L9.08496 8.8252C9.03998 8.87004 8.96002 8.87004 8.91504 8.8252L6.26465 6.13965C6.17469 6.04987 6.05452 6 5.92969 6H5.23535Z" fill="black"/>
</g>
</g>
<defs>
<clipPath id="clip0_1430_456">
<rect width="18" height="18" fill="white"/>
</clipPath>
</defs>
</svg>
