<svg width="18" height="18" viewBox="0 0 18 18" fill="none" xmlns="http://www.w3.org/2000/svg">
<g clip-path="url(#clip0_1430_1748)">
<path d="M9.00049 0.220215C13.8467 0.220473 17.7798 4.1542 17.7798 9.00049C17.7795 13.8466 13.8466 17.7795 9.00049 17.7798C4.1542 17.7798 0.220473 13.8467 0.220215 9.00049C0.220215 4.15404 4.15404 0.220215 9.00049 0.220215ZM4.86768 5.70752C4.72508 5.70761 4.60986 5.82309 4.60986 5.97119V12.0288C4.60986 12.1769 4.72508 12.2924 4.86768 12.2925H5.97607C6.11875 12.2925 6.23389 12.177 6.23389 12.0288V8.58838C6.23407 8.55564 6.27313 8.54461 6.28955 8.56104L8.63232 10.9321C8.83534 11.1403 9.16472 11.1404 9.36768 10.9321L11.7104 8.56104C11.7269 8.54461 11.765 8.55564 11.7651 8.58838V12.0288C11.7651 12.1768 11.8805 12.2922 12.0229 12.2925H13.1313C13.274 12.2925 13.3901 12.177 13.3901 12.0288V5.97119C13.3901 5.82303 13.274 5.70752 13.1313 5.70752H12.3687C12.2316 5.70763 12.1001 5.76315 12.0015 5.86182L9.09326 8.80811C9.04391 8.85746 8.95614 8.8574 8.90674 8.80811L5.99854 5.86182C5.89976 5.76304 5.76756 5.70752 5.63037 5.70752H4.86768Z" fill="black"/>
</g>
<defs>
<clipPath id="clip0_1430_1748">
<rect width="18" height="18" fill="white"/>
</clipPath>
</defs>
</svg>
