<svg width="16" height="16" viewBox="0 0 16 16" fill="none" xmlns="http://www.w3.org/2000/svg">
<path fill-rule="evenodd" clip-rule="evenodd" d="M9.64645 13.8536C9.84171 14.0488 10.1583 14.0488 10.3536 13.8536L13.8536 10.3536C14.0488 10.1583 14.0488 9.84171 13.8536 9.64645L10.3536 6.14645C10.1583 5.95118 9.84171 5.95118 9.64645 6.14645C9.45118 6.34171 9.45118 6.65829 9.64645 6.85355L12.2929 9.50001L8.9 9.50002C7.77165 9.50002 6.95545 9.49963 6.31352 9.44718C5.67744 9.39521 5.25662 9.29463 4.91103 9.11854C4.25247 8.78299 3.71703 8.24755 3.38148 7.58899C3.20539 7.2434 3.10481 6.82258 3.05284 6.1865C3.00039 5.54457 3 4.72838 3 3.60002V3.5C3 3.22386 2.77614 3 2.5 3C2.22386 3 2 3.22386 2 3.5V3.62265C2 4.72361 2 5.58054 2.05616 6.26793C2.11318 6.96586 2.23058 7.53292 2.49047 8.04298C2.9219 8.88971 3.61031 9.57812 4.45704 10.0095C4.9671 10.2694 5.53416 10.3868 6.23209 10.4439C6.91948 10.5 7.77641 10.5 8.87737 10.5L12.2929 10.5L9.64645 13.1464C9.45118 13.3417 9.45118 13.6583 9.64645 13.8536Z" fill="#A9ABAD"/>
</svg>
