<svg width="1024" height="1024" viewBox="0 0 1024 1024" fill="none" xmlns="http://www.w3.org/2000/svg">
<path d="M512 102C738.429 102 922 285.571 922 512C922 738.429 738.429 922 512 922C285.571 922 102 738.429 102 512C102 285.571 285.571 102 512 102ZM325.2 359C318.48 359 315.119 359 312.552 360.308C310.294 361.458 308.458 363.294 307.308 365.552C306 368.119 306 371.48 306 378.2V645.8C306 652.52 306 655.881 307.308 658.448C308.458 660.706 310.294 662.542 312.552 663.692C315.119 665 318.48 665 325.2 665H364.8C371.52 665 374.881 665 377.448 663.692C379.706 662.542 381.542 660.706 382.692 658.448C384 655.881 384 652.52 384 645.8V498.485C384 496.062 384 494.85 384.479 494.289C384.895 493.802 385.519 493.545 386.157 493.595C386.893 493.653 387.75 494.509 389.463 496.223L493.898 600.658C500.235 606.994 503.403 610.163 507.056 611.35C510.269 612.394 513.731 612.394 516.944 611.35C520.598 610.163 523.765 606.994 530.102 600.658L634.542 496.223C636.255 494.509 637.112 493.652 637.848 493.594C638.486 493.544 639.11 493.802 639.525 494.289C640.005 494.85 640.005 496.062 640.005 498.485V645.8C640.005 652.52 640.005 655.881 641.312 658.448C642.463 660.706 644.299 662.542 646.557 663.692C649.124 665 652.484 665 659.205 665H698.805C705.525 665 708.886 665 711.453 663.692C713.711 662.542 715.547 660.706 716.697 658.448C718.005 655.881 718.005 652.52 718.005 645.8V378.2C718.005 371.48 718.005 368.119 716.697 365.552C715.547 363.294 713.711 361.458 711.453 360.308C708.886 359 705.525 359 698.805 359H677.361C671.491 359 668.556 359 665.794 359.663C663.345 360.251 661.005 361.22 658.857 362.536C656.435 364.02 654.36 366.096 650.209 370.247L516.525 503.926C514.941 505.51 514.15 506.302 513.236 506.599C512.433 506.86 511.567 506.86 510.764 506.599C509.85 506.302 509.058 505.51 507.475 503.926L373.796 370.247C369.645 366.096 367.569 364.021 365.147 362.537C363 361.221 360.659 360.251 358.21 359.663C355.448 359 352.512 359 346.643 359H325.2Z" fill="white"/>
</svg>
