<svg width="1024" height="1024" viewBox="0 0 1024 1024" fill="none" xmlns="http://www.w3.org/2000/svg">
<path d="M507.475 503.926C509.059 505.51 509.851 506.302 510.764 506.599C511.567 506.86 512.433 506.86 513.236 506.599C514.149 506.302 514.941 505.51 516.525 503.926L650.209 370.247C654.36 366.096 656.435 364.021 658.857 362.536C661.005 361.221 663.346 360.251 665.794 359.663C668.556 359 671.491 359 677.361 359H698.805C705.526 359 708.886 359 711.453 360.308C713.711 361.458 715.546 363.294 716.697 365.552C718.005 368.119 718.005 371.479 718.005 378.2V645.8C718.005 652.521 718.005 655.881 716.697 658.448C715.546 660.706 713.711 662.542 711.453 663.692C708.886 665 705.526 665 698.805 665H659.205C652.484 665 649.124 665 646.557 663.692C644.299 662.542 642.463 660.706 641.313 658.448C640.005 655.881 640.005 652.521 640.005 645.8V498.485C640.005 496.062 640.005 494.85 639.526 494.289C639.11 493.802 638.486 493.544 637.848 493.594C637.112 493.652 636.256 494.509 634.542 496.222L530.102 600.659C523.766 606.995 520.598 610.163 516.944 611.35C513.731 612.394 510.269 612.394 507.056 611.349C503.403 610.162 500.235 606.994 493.898 600.658L389.463 496.222C387.749 494.509 386.892 493.652 386.157 493.594C385.519 493.544 384.895 493.802 384.479 494.289C384 494.85 384 496.062 384 498.485V645.8C384 652.521 384 655.881 382.692 658.448C381.542 660.706 379.706 662.542 377.448 663.692C374.881 665 371.521 665 364.8 665H325.2C318.479 665 315.119 665 312.552 663.692C310.294 662.542 308.458 660.706 307.308 658.448C306 655.881 306 652.521 306 645.8V378.2C306 371.479 306 368.119 307.308 365.552C308.458 363.294 310.294 361.458 312.552 360.308C315.119 359 318.479 359 325.2 359H346.643C352.513 359 355.448 359 358.21 359.663C360.659 360.251 363 361.221 365.148 362.537C367.57 364.021 369.645 366.096 373.796 370.247L507.475 503.926Z" fill="white"/>
</svg>
