<?xml version="1.0" encoding="UTF-8"?>
<svg width="3300px" height="2200px" viewBox="0 0 3300 2200" version="1.1" xmlns="http://www.w3.org/2000/svg" xmlns:xlink="http://www.w3.org/1999/xlink">
    <title>notifications</title>
    <g id="Notifications" stroke="none" stroke-width="1" fill="none" fill-rule="evenodd">
        <g id="notifications">
            <g id="Notes">
                <rect id="artboard" fill="#FFFFFF" fill-rule="nonzero" x="0" y="0" width="3300" height="2200"></rect>
                <line x1="263" y1="292" x2="3036" y2="292" id="Path" stroke="#000000" stroke-width="0.5"></line>
                <text id="Weight/Scale-Variations" fill="#000000" fill-rule="nonzero" font-family="Helvetica-Bold, Helvetica" font-size="13" font-weight="bold">
                    <tspan x="263" y="322">Weight/Scale Variations</tspan>
                </text>
                <text id="Ultralight" fill="#000000" fill-rule="nonzero" font-family="Helvetica" font-size="13" font-weight="normal">
                    <tspan x="533.711" y="322">Ultralight</tspan>
                </text>
                <text id="Thin" fill="#000000" fill-rule="nonzero" font-family="Helvetica" font-size="13" font-weight="normal">
                    <tspan x="843.422" y="322">Thin</tspan>
                </text>
                <text id="Light" fill="#000000" fill-rule="nonzero" font-family="Helvetica" font-size="13" font-weight="normal">
                    <tspan x="1138.63" y="322">Light</tspan>
                </text>
                <text id="Regular" fill="#000000" fill-rule="nonzero" font-family="Helvetica" font-size="13" font-weight="normal">
                    <tspan x="1426.84" y="322">Regular</tspan>
                </text>
                <text id="Medium" fill="#000000" fill-rule="nonzero" font-family="Helvetica" font-size="13" font-weight="normal">
                    <tspan x="1723.06" y="322">Medium</tspan>
                </text>
                <text id="Semibold" fill="#000000" fill-rule="nonzero" font-family="Helvetica" font-size="13" font-weight="normal">
                    <tspan x="2015.77" y="322">Semibold</tspan>
                </text>
                <text id="Bold" fill="#000000" fill-rule="nonzero" font-family="Helvetica" font-size="13" font-weight="normal">
                    <tspan x="2326.48" y="322">Bold</tspan>
                </text>
                <text id="Heavy" fill="#000000" fill-rule="nonzero" font-family="Helvetica" font-size="13" font-weight="normal">
                    <tspan x="2618.19" y="322">Heavy</tspan>
                </text>
                <text id="Black" fill="#000000" fill-rule="nonzero" font-family="Helvetica" font-size="13" font-weight="normal">
                    <tspan x="2917.4" y="322">Black</tspan>
                </text>
                <line x1="263" y1="1903" x2="3036" y2="1903" id="Path" stroke="#000000" stroke-width="0.5"></line>
                <g id="Group" transform="translate(264.367190, 1918.068400)" fill="#000000" fill-rule="nonzero">
                    <path d="M7.88086,15.761678 C12.18751,15.761678 15.77151,12.18746 15.77151,7.88082 C15.77151,3.5742 12.17771,0 7.87109,0 C3.57422,0 -8.8817842e-16,3.5742 -8.8817842e-16,7.88082 C-8.8817842e-16,12.18746 3.58398,15.761678 7.88086,15.761678 Z M7.88086,14.277303 C4.33593,14.277303 1.5039,11.43551 1.5039,7.88082 C1.5039,4.3261 4.32617,1.4843 7.87109,1.4843 C11.42581,1.4843 14.26761,4.3261 14.2773352,7.88082 C14.28711,11.43551 11.43551,14.277303 7.88086,14.277303 Z M5.02929,8.61324 L7.13867,8.61324 L7.13867,10.73238 C7.13867,11.17183 7.43164,11.47457 7.86133,11.47457 C8.31054,11.47457 8.60351,11.17183 8.60351,10.73238 L8.60351,8.61324 L10.73241,8.61324 C11.17191,8.61324 11.47461,8.32027 11.47461,7.89058 C11.47461,7.45113 11.17191,7.1484 10.73241,7.1484 L8.60351,7.1484 L8.60351,5.03902 C8.60351,4.5898 8.31054,4.2871 7.86133,4.2871 C7.43164,4.2871 7.13867,4.5898 7.13867,5.03902 L7.13867,7.1484 L5.02929,7.1484 C4.58008,7.1484 4.27734,7.45113 4.27734,7.89058 C4.27734,8.32027 4.58008,8.61324 5.02929,8.61324 Z" id="Shape"></path>
                </g>
                <g id="Group" transform="translate(283.254050, 1915.988300)" fill="#000000" fill-rule="nonzero">
                    <path d="M9.96095,19.92186 C15.41015,19.92186 19.92185,15.40037 19.92185,9.96092 C19.92185,4.5117 15.40035,0 9.95115,0 C4.51172,0 8.8817842e-16,4.5117 8.8817842e-16,9.96092 C8.8817842e-16,15.40037 4.52148,19.92186 9.96095,19.92186 Z M9.96095,18.2617 C5.35156,18.2617 1.66992,14.57029 1.66992,9.96092 C1.66992,5.3515 5.34179,1.6601 9.95115,1.6601 C14.56055,1.6601 18.25195,5.3515 18.261769,9.96092 C18.27145,14.57029 14.57035,18.2617 9.96095,18.2617 Z M6.24023,10.78123 L9.13085,10.78123 L9.13085,13.69139 C9.13085,14.17967 9.46285,14.5117 9.94145,14.5117 C10.42965,14.5117 10.77145,14.17967 10.77145,13.69139 L10.77145,10.78123 L13.68165,10.78123 C14.16995,10.78123 14.50195,10.4492 14.50195,9.97068 C14.50195,9.4824 14.16995,9.14061 13.68165,9.14061 L10.77145,9.14061 L10.77145,6.25 C10.77145,5.7422 10.42965,5.4101 9.94145,5.4101 C9.46285,5.4101 9.13085,5.7519 9.13085,6.25 L9.13085,9.14061 L6.24023,9.14061 C5.73242,9.14061 5.40039,9.4824 5.40039,9.97068 C5.40039,10.4492 5.74218,10.78123 6.24023,10.78123 Z" id="Shape"></path>
                </g>
                <g id="Group" transform="translate(307.179860, 1913.224600)" fill="#000000" fill-rule="nonzero">
                    <path d="M12.71484,25.43946 C19.67774,25.43946 25.43944,19.6777438 25.43944,12.72462 C25.43944,5.7617 19.66794,0 12.70504,0 C5.75195,0 0,5.7617 0,12.72462 C0,19.6777438 5.76172,25.43946 12.71484,25.43946 Z M12.71484,23.62306 C6.67969,23.62306 1.82617,18.75978 1.82617,12.72462 C1.82617,6.6797 6.66992,1.8262 12.70504,1.8262 C18.75004,1.8262 23.60354,6.6797 23.6132548,12.72462 C23.62304,18.75978 18.75974,23.62306 12.71484,23.62306 Z M7.80274,13.63282 L11.80664,13.63282 L11.80664,17.64649 C11.80664,18.1836 12.17774,18.5547 12.69534,18.5547 C13.23244,18.5547 13.60354,18.1836 13.60354,17.64649 L13.60354,13.63282 L17.62694,13.63282 C18.15434,13.63282 18.53514,13.26173 18.53514,12.74415 C18.53514,12.20704 18.16404,11.82618 17.62694,11.82618 L13.60354,11.82618 L13.60354,7.8223 C13.60354,7.2656 13.23244,6.8945 12.69534,6.8945 C12.17774,6.8945 11.80664,7.2754 11.80664,7.8223 L11.80664,11.82618 L7.80274,11.82618 C7.24609,11.82618 6.875,12.20704 6.875,12.74415 C6.875,13.26173 7.25586,13.63282 7.80274,13.63282 Z" id="Shape"></path>
                </g>
                <text id="Design-Variations" fill="#000000" fill-rule="nonzero" font-family="Helvetica-Bold, Helvetica" font-size="13" font-weight="bold">
                    <tspan x="263" y="1953">Design Variations</tspan>
                </text>
                <text id="Symbols-are-supported-in-up-to-nine-weights-and-three-scales." fill="#000000" fill-rule="nonzero" font-family="Helvetica" font-size="13" font-weight="normal">
                    <tspan x="263" y="1971">Symbols are supported in up to nine weights and three scales.</tspan>
                </text>
                <text id="For-optimal-layout-with-text-and-other-symbols,-vertically-align" fill="#000000" fill-rule="nonzero" font-family="Helvetica" font-size="13" font-weight="normal">
                    <tspan x="263" y="1989">For optimal layout with text and other symbols, vertically align</tspan>
                </text>
                <text id="symbols-with-the-adjacent-text." fill="#000000" fill-rule="nonzero" font-family="Helvetica" font-size="13" font-weight="normal">
                    <tspan x="263" y="2007">symbols with the adjacent text.</tspan>
                </text>
                <line x1="776" y1="1919" x2="776" y2="1933" id="Path" stroke="#00AEEF" stroke-width="0.5"></line>
                <g id="Group" transform="translate(778.490230, 1918.712900)" fill="#000000" fill-rule="nonzero">
                    <path d="M0.82032,14.414053 C1.33789,14.414053 1.5918,14.2187406 1.77735,13.681631 L3.03711,10.2246 L8.79887,10.2246 L10.05857,13.681631 C10.24417,14.2187406 10.49807,14.414053 11.00587,14.414053 C11.52347,14.414053 11.85547,14.101553 11.85547,13.613272 C11.85547,13.447256 11.82617,13.300772 11.74807,13.08593 L7.16797,0.8984 C6.94336,0.293 6.54297,0 5.91797,0 C5.3125,0 4.90235,0.293 4.6875,0.8887 L0.10743,13.09569 C0.0293,13.310538 -4.4408921e-16,13.457022 -4.4408921e-16,13.623038 C-4.4408921e-16,14.111319 0.3125,14.414053 0.82032,14.414053 Z M3.51563,8.74999 L5.88868,2.1777 L5.9375,2.1777 L8.31057,8.74999 L3.51563,8.74999 Z" id="Shape"></path>
                </g>
                <line x1="792.836" y1="1919" x2="792.836" y2="1933" id="Path" stroke="#00AEEF" stroke-width="0.5"></line>
                <text id="Margins" fill="#000000" fill-rule="nonzero" font-family="Helvetica-Bold, Helvetica" font-size="13" font-weight="bold">
                    <tspan x="776" y="1953">Margins</tspan>
                </text>
                <text id="Leading-and-trailing-margins-on-the-left-and-right-side-of-each-symbol" fill="#000000" fill-rule="nonzero" font-family="Helvetica" font-size="13" font-weight="normal">
                    <tspan x="776" y="1971">Leading and trailing margins on the left and right side of each symbol</tspan>
                </text>
                <text id="can-be-adjusted-by-modifying-the-x-location-of-the-margin-guidelines." fill="#000000" fill-rule="nonzero" font-family="Helvetica" font-size="13" font-weight="normal">
                    <tspan x="776" y="1989">can be adjusted by modifying the x-location of the margin guidelines.</tspan>
                </text>
                <text id="Modifications-are-automatically-applied-proportionally-to-all" fill="#000000" fill-rule="nonzero" font-family="Helvetica" font-size="13" font-weight="normal">
                    <tspan x="776" y="2007">Modifications are automatically applied proportionally to all</tspan>
                </text>
                <text id="scales-and-weights." fill="#000000" fill-rule="nonzero" font-family="Helvetica" font-size="13" font-weight="normal">
                    <tspan x="776" y="2025">scales and weights.</tspan>
                </text>
                <g id="Group" transform="translate(1291.248126, 1914.517396)" fill="#000000" fill-rule="nonzero">
                    <path d="M0.593673634,20.347834 L2.29289363,22.056824 C3.15226363,22.925964 4.13859363,22.867374 5.06632363,21.841984 L15.2420736,10.631044 C15.5057736,10.718934 15.7791736,10.699404 16.0916736,10.640804 L17.1561736,10.445494 L17.8202736,11.119324 L17.7811736,11.675964 C17.7420736,12.174014 17.8690736,12.554874 18.3573736,13.033384 L19.1190736,13.775574 C19.5975736,14.254084 20.2127736,14.283384 20.6815736,13.814634 L23.5916736,10.894714 C24.0604736,10.425964 24.0409736,9.83026404 23.5623736,9.35174404 L22.7909736,8.59002404 C22.3123736,8.11150404 21.9413736,7.95530404 21.4627736,7.99430404 L20.8866736,8.04310404 L20.2420736,7.40840404 L20.4862736,6.28530404 C20.6131736,5.71890404 20.4569736,5.27950404 19.8709736,4.69350404 L17.6737736,2.50600404 C14.3338736,-0.814295964 9.90027363,-0.736195964 7.00968363,2.15450404 C6.58976363,2.56460404 6.56046363,3.14080404 6.79484363,3.53140404 C7.02921363,3.89280404 7.48820363,4.12710404 8.13277363,3.96110404 C9.59757363,3.61930404 11.1209736,3.56070404 12.5467736,4.49820404 L11.9608736,5.95330404 C11.7655736,6.43180404 11.7362736,6.83220404 11.8631736,7.19350404 L0.798753634,17.584166 C-0.187576366,18.5021352 -0.265706366,19.478698 0.593673634,20.347834 Z M8.50387363,2.52560404 C10.9354736,0.748204036 14.2264736,1.05100404 16.4530736,3.27750404 L18.8846736,5.68960404 C19.1190736,5.92400404 19.1580736,6.10960404 19.0897736,6.45140404 L18.7674736,7.93570404 L20.2713736,9.42010404 L21.2577736,9.36151404 C21.5116736,9.35174404 21.5897736,9.37127404 21.7850736,9.56658404 L22.3612736,10.142764 L19.9198736,12.584164 L19.3436736,12.007994 C19.1483736,11.812684 19.1190736,11.734554 19.1288736,11.470884 L19.1971736,10.494324 L17.7030736,9.00994404 L16.1795736,9.26385404 C15.8573736,9.33221404 15.7108736,9.30291404 15.4666736,9.06854404 L13.4647736,7.06660404 C13.2108736,6.83220404 13.1815736,6.66620404 13.3377736,6.29510404 L14.2166736,4.20530404 C12.6541736,2.75020404 10.6229736,2.12520404 8.59167363,2.72090404 C8.43547363,2.75990404 8.37687363,2.63300404 8.50387363,2.52560404 Z M3.02531363,20.787304 L1.85343363,19.625184 C1.38468363,19.166198 1.49210363,18.824401 1.89249363,18.4630728 L12.7030736,8.28730404 L14.1678736,9.77166404 L4.17765363,20.757994 C3.82609363,21.158384 3.49406363,21.256044 3.02531363,20.787304 Z" id="Shape"></path>
                </g>
                <text id="Exporting" fill="#000000" fill-rule="nonzero" font-family="Helvetica-Bold, Helvetica" font-size="13" font-weight="bold">
                    <tspan x="1289" y="1953">Exporting</tspan>
                </text>
                <text id="Symbols-should-be-outlined-when-exporting-to-ensure-the" fill="#000000" fill-rule="nonzero" font-family="Helvetica" font-size="13" font-weight="normal">
                    <tspan x="1289" y="1971">Symbols should be outlined when exporting to ensure the</tspan>
                </text>
                <text id="design-is-preserved-when-submitting-to-Xcode." fill="#000000" fill-rule="nonzero" font-family="Helvetica" font-size="13" font-weight="normal">
                    <tspan x="1289" y="1989">design is preserved when submitting to Xcode.</tspan>
                </text>
                <text id="template-version" fill="#000000" fill-rule="nonzero" font-family="Helvetica" font-size="13" font-weight="normal">
                    <tspan x="2952" y="1933">Template v.2.0</tspan>
                </text>
                <text id="Requires-Xcode-12-or-greater" fill="#000000" fill-rule="nonzero" font-family="Helvetica" font-size="13" font-weight="normal">
                    <tspan x="2865" y="1951">Requires Xcode 12 or greater</tspan>
                </text>
                <text id="Generated-from-person.crop.circle" fill="#000000" fill-rule="nonzero" font-family="Helvetica" font-size="13" font-weight="normal">
                    <tspan x="2838" y="1969">Generated from person.crop.circle</tspan>
                </text>
                <text id="Typeset-at-100-points" fill="#000000" fill-rule="nonzero" font-family="Helvetica" font-size="13" font-weight="normal">
                    <tspan x="2912" y="1987">Typeset at 100 points</tspan>
                </text>
                <text id="Small" fill="#000000" fill-rule="nonzero" font-family="Helvetica" font-size="13" font-weight="normal">
                    <tspan x="263" y="726">Small</tspan>
                </text>
                <text id="Medium" fill="#000000" fill-rule="nonzero" font-family="Helvetica" font-size="13" font-weight="normal">
                    <tspan x="263" y="1156">Medium</tspan>
                </text>
                <text id="Large" fill="#000000" fill-rule="nonzero" font-family="Helvetica" font-size="13" font-weight="normal">
                    <tspan x="263" y="1586">Large</tspan>
                </text>
            </g>
            <g id="Guides" transform="translate(263.000000, 625.041000)">
                <g id="H-reference" transform="translate(76.976562, 0.500000)" fill="#27AAE1" fill-rule="nonzero">
                    <path d="M-1.22124533e-15,70.459 L2.685548,70.459 L12.011738,45.9961 L44.775438,45.9961 L54.150438,70.459 L56.787138,70.459 L29.638638,0 L27.148438,0 L-1.22124533e-15,70.459 Z M28.369138,3.3203 L28.466838,3.3203 L43.896438,43.75 L12.890638,43.75 L28.369138,3.3203 Z" id="Shape"></path>
                </g>
                <line x1="0" y1="70.959" x2="2773" y2="70.959" id="Baseline-S" stroke="#27AAE1" stroke-width="0.5"></line>
                <line x1="0" y1="0.5" x2="2773" y2="0.5" id="Capline-S" stroke="#27AAE1" stroke-width="0.5"></line>
                <g id="H-reference" transform="translate(76.976562, 430.500000)" fill="#27AAE1" fill-rule="nonzero">
                    <path d="M-1.22124533e-15,70.459 L2.685548,70.459 L12.011738,45.9961 L44.775438,45.9961 L54.150438,70.459 L56.787138,70.459 L29.638638,0 L27.148438,0 L-1.22124533e-15,70.459 Z M28.369138,3.3203 L28.466838,3.3203 L43.896438,43.75 L12.890638,43.75 L28.369138,3.3203 Z" id="Shape"></path>
                </g>
                <line x1="0" y1="500.959" x2="2773" y2="500.959" id="Baseline-M" stroke="#27AAE1" stroke-width="0.5"></line>
                <line x1="0" y1="430.499" x2="2773" y2="430.499" id="Capline-M" stroke="#27AAE1" stroke-width="0.5"></line>
                <g id="H-reference" transform="translate(76.976562, 860.500000)" fill="#27AAE1" fill-rule="nonzero">
                    <path d="M-1.22124533e-15,70.459 L2.685548,70.459 L12.011738,45.9961 L44.775438,45.9961 L54.150438,70.459 L56.787138,70.459 L29.638638,0 L27.148438,0 L-1.22124533e-15,70.459 Z M28.369138,3.3203 L28.466838,3.3203 L43.896438,43.75 L12.890638,43.75 L28.369138,3.3203 Z" id="Shape"></path>
                </g>
                <line x1="0" y1="930.959" x2="2773" y2="930.959" id="Baseline-L" stroke="#27AAE1" stroke-width="0.5"></line>
                <line x1="0" y1="860.499" x2="2773" y2="860.499" id="Capline-L" stroke="#27AAE1" stroke-width="0.5"></line>
                <line x1="1128.3" y1="405.749" x2="1128.3" y2="525.079" id="left-margin" stroke="#00AEEF" stroke-width="0.5"></line>
                <line x1="1245.39" y1="405.749" x2="1245.39" y2="525.079" id="right-margin" stroke="#00AEEF" stroke-width="0.5"></line>
            </g>
            <g id="Symbols" transform="translate(1386.249300, 620.511700)" fill="#000000" fill-rule="nonzero">
                <g id="Semibold-L" transform="translate(592.000000, 835.488300)">
                    <path d="M79.1680343,13.4949962 C78.537216,15.9456365 78.2017084,18.514834 78.2017084,21.1623925 C78.2017084,22.3021246 78.2638836,23.4273352 78.3850271,24.5348175 L25.7987739,24.5349524 C17.973803,24.5349524 11.5711476,30.624609 11.0714551,38.3232747 L11.0400622,39.2936641 L11.0400622,104.231995 C11.0400622,112.056966 17.1297188,118.459622 24.8283846,118.959314 L25.7987739,118.990707 L90.7371053,118.990707 C98.5620762,118.990707 104.964732,112.901051 105.464424,105.202385 L105.495817,104.231995 L105.494847,51.6458188 C106.602902,51.7670851 107.728705,51.8293242 108.869045,51.8293242 C111.516411,51.8293242 114.085429,51.4938786 116.535912,50.8631734 L116.535879,105.496455 C116.535879,119.045958 105.551692,130.03 92.0020099,130.03 L24.5338693,130.03 C10.9841874,130.03 0,119.045958 0,105.496455 L0,38.0292049 C0,24.4797019 10.9841874,13.4956595 24.5338693,13.4956595 L79.1680343,13.4949962 Z M107.949434,0 C120.144194,0 130.03,9.88580615 130.03,22.080566 C130.03,34.2753259 120.144194,44.1611321 107.949434,44.1611321 C95.7546741,44.1611321 85.8688679,34.2753259 85.8688679,22.080566 C85.8688679,9.88580615 95.7546741,0 107.949434,0 Z" id="Shape"></path>
                </g>
                <g id="Regular-L" transform="translate(0.000000, 836.488300)">
                    <path d="M77.2632243,13.4684023 C76.6474878,15.8602527 76.32,18.3678298 76.32,20.9518948 C76.32,21.4538599 76.3323576,21.9529387 76.3567853,22.4488436 L23.9435294,22.448347 C16.0093417,22.448347 9.51732146,28.6229238 9.01065453,36.4289474 L8.97882353,37.4128689 L8.97882353,103.256765 C8.97882353,111.190855 15.1534763,117.682796 22.9595959,118.189456 L23.9435294,118.221287 L89.7882353,118.221287 C97.722423,118.221287 104.214443,112.04671 104.72111,104.240686 L104.752941,103.256765 L104.752445,50.8441537 C105.248356,50.8685811 105.747441,50.8809385 106.249412,50.8809385 C108.833053,50.8809385 111.340233,50.5535701 113.731733,49.9380511 L113.731765,103.256765 C113.731765,116.480249 103.011881,127.2 89.7882353,127.2 L23.9435294,127.2 C10.7198833,127.2 1.15107923e-12,116.480249 1.15107923e-12,103.256765 L1.15107923e-12,37.4128689 C1.15107923e-12,24.1893853 10.7198833,13.4696339 23.9435294,13.4696339 L77.2632243,13.4684023 Z M106.249412,0 C117.820102,0 127.2,9.37978251 127.2,20.9503306 C127.2,32.5208787 117.820102,41.9006612 106.249412,41.9006612 C94.6787214,41.9006612 85.2988235,32.5208787 85.2988235,20.9503306 C85.2988235,9.37978251 94.6787214,0 106.249412,0 Z" id="Shape"></path>
                </g>
                <g id="Semibold-M" transform="translate(605.990930, 415.488300)">
                    <path d="M64.5374979,11.001097 C64.0232609,12.9988433 63.7497584,15.0932362 63.7497584,17.2515081 C63.7497584,18.1806463 63.800447,19.0979458 63.8992096,20.000792 L21.03107,20.0008072 C14.6521812,20.0008072 9.43275891,24.9650739 9.02541135,31.2409992 L8.99982002,32.0320572 L8.99982002,84.9695572 C8.99982002,91.348446 13.9640867,96.5678683 20.240012,96.9752158 L21.03107,97.0008072 L73.96857,97.0008072 C80.3474589,97.0008072 85.5668811,92.0365405 85.9742287,85.7606152 L85.99982,84.9695572 L85.9993448,42.1015249 C86.9025252,42.2003581 87.8201706,42.2510833 88.7496637,42.2510833 C90.907737,42.2510833 93.0019437,41.977642 94.9995265,41.4635166 L94.99964,86.0003399 C94.99964,97.0458472 86.045369,106 74.9997158,106 L19.9999242,106 C8.95427107,106 0,97.0458472 0,86.0003399 L0,31.0012745 C0,19.9557672 8.95427107,11.0016143 19.9999242,11.0016143 L64.5374979,11.001097 Z M88,0 C97.9411255,0 106,8.0588745 106,18 C106,27.9411255 97.9411255,36 88,36 C78.0588745,36 70,27.9411255 70,18 C70,8.0588745 78.0588745,0 88,0 Z" id="Shape"></path>
                </g>
                <g id="Regular-M" transform="translate(13.750700, 419.488300)">
                    <path d="M61.34882,10.6947312 C60.8599897,12.5937758 60.6,14.5846922 60.6,16.6363316 C60.6,17.034809 60.6098076,17.4309958 60.6291945,17.8246637 L19.0117647,17.8245523 C12.7118201,17.8245523 7.55699267,22.7273216 7.15468638,28.9255007 L7.12941176,29.7067591 L7.12941176,81.9884691 C7.12941176,88.2883362 12.0322414,93.4431003 18.2304967,93.8454016 L19.0117647,93.8706759 L71.2941176,93.8706759 C77.5940623,93.8706759 82.7488897,88.9679066 83.151196,82.7697275 L83.1764706,81.9884691 L83.1763592,40.3715511 C83.5700319,40.3909378 83.9662236,40.4007452 84.3647059,40.4007452 C86.4161433,40.4007452 88.4068704,40.1408163 90.3057484,39.6520968 L90.3058824,81.9884691 C90.3058824,92.4882477 81.7940254,101 71.2941176,101 L19.0117647,101 C8.51185699,101 9.09494702e-13,92.4882477 9.09494702e-13,81.9884691 L9.09494702e-13,29.7067591 C9.09494702e-13,19.2069805 8.51185699,10.6952282 19.0117647,10.6952282 L61.34882,10.6947312 Z M84.3647059,0 C93.5521251,0 101,7.44778328 101,16.6350895 C101,25.8223958 93.5521251,33.2701791 84.3647059,33.2701791 C75.1772866,33.2701791 67.7294118,25.8223958 67.7294118,16.6350895 C67.7294118,7.44778328 75.1772866,0 84.3647059,0 Z" id="Shape"></path>
                </g>
                <g id="Semibold-S" transform="translate(616.990930, 0.000000)">
                    <path d="M48.9938887,8.35076956 C48.603385,9.86757843 48.3956893,11.4577839 48.3956893,13.0964987 C48.3956893,13.801932 48.4341779,14.4983759 48.5091699,15.1838451 L15.9657566,15.1836316 C11.1232171,15.1836316 7.16088783,18.9522594 6.85164954,23.716634 L6.83222186,24.3171664 L6.83222186,64.5047195 C6.83222186,69.347259 10.6008496,73.3095883 15.3652242,73.6188266 L15.9657566,73.6382543 L56.1533097,73.6382543 C60.9958492,73.6382543 64.9581785,69.8696265 65.2674168,65.1052519 L65.2868445,64.5047195 L65.2860152,31.961361 C65.9718167,32.0364241 66.6686047,32.0749497 67.3743909,32.0749497 C69.0131273,32.0749497 70.6033538,31.8672568 72.1201827,31.4767582 L72.1190664,65.2872391 C72.1190664,73.6724464 65.321423,80.47 56.936105,80.47 L15.1829613,80.47 C6.79764333,80.47 0,73.6724464 0,65.2872391 L0,23.5346468 C0,15.1494395 6.79764333,8.35188589 15.1829613,8.35188589 L48.9938887,8.35076956 Z M66.805283,0 C74.3520978,0 80.47,6.11790218 80.47,13.664717 C80.47,21.2115318 74.3520978,27.329434 66.805283,27.329434 C59.2584682,27.329434 53.140566,21.2115318 53.140566,13.664717 C53.140566,6.11790218 59.2584682,0 66.805283,0 Z" id="Shape"></path>
                </g>
                <g id="Regular-S" transform="translate(23.750700, 0.830100)">
                    <path d="M47.9006792,8.35033625 C47.5190002,9.83310284 47.316,11.3876031 47.316,12.9895159 C47.316,13.3007158 47.3236612,13.6101263 47.3388053,13.9175691 L14.8442353,13.9172692 C9.92528843,13.9172692 5.90044002,17.7453127 5.58632246,22.5848018 L5.56658824,23.1948022 L5.56658824,64.0159473 C5.56658824,68.9348336 9.39467877,72.9596325 14.2342274,73.2737462 L14.8442353,73.2934802 L55.6658824,73.2934802 C60.5848292,73.2934802 64.6096776,69.4654368 64.9237952,64.6259476 L64.9435294,64.0159473 L64.9432295,31.5217768 C65.2506761,31.5369207 65.5600904,31.5445819 65.8712941,31.5445819 C67.4731454,31.5445819 69.0275884,31.3416048 70.5103053,30.9599679 L70.5101176,64.0159473 C70.5101176,72.2140912 63.8641271,78.86 55.6658824,78.86 L14.8442353,78.86 C6.64599052,78.86 7.10542736e-13,72.2140912 7.10542736e-13,64.0159473 L7.10542736e-13,23.1948022 C7.10542736e-13,14.9966582 6.64599052,8.35074944 14.8442353,8.35074944 L47.9006792,8.35033625 Z M65.8712941,0 C73.0447583,0 78.86,5.81517019 78.86,12.9885462 C78.86,20.1619221 73.0447583,25.9770923 65.8712941,25.9770923 C58.6978299,25.9770923 52.8825882,20.1619221 52.8825882,12.9885462 C52.8825882,5.81517019 58.6978299,0 65.8712941,0 Z" id="Shape"></path>
                </g>
            </g>
        </g>
    </g>
</svg>