<svg width="18" height="18" viewBox="0 0 18 18" fill="none" xmlns="http://www.w3.org/2000/svg">
<g clip-path="url(#clip0_1436_1137)">
<path d="M8.99976 0.400146C13.7468 0.400146 17.6002 4.25275 17.6003 8.99976C17.6003 13.7469 13.7469 17.6003 8.99976 17.6003C4.25275 17.6002 0.400146 13.7468 0.400146 8.99976C0.400281 4.25283 4.25283 0.400281 8.99976 0.400146ZM4.95288 5.77515C4.8132 5.77515 4.70006 5.88794 4.69995 6.03296V11.9675C4.70018 12.1124 4.81328 12.2253 4.95288 12.2253H6.03784C6.17745 12.2253 6.29054 12.1124 6.29077 11.9675V8.59741C6.29077 8.56523 6.32831 8.55408 6.34448 8.57007L8.6394 10.8923C8.83827 11.0966 9.16123 11.0965 9.36011 10.8923L11.655 8.57007C11.6712 8.554 11.7087 8.56519 11.7087 8.59741V11.9675C11.709 12.1124 11.8221 12.2253 11.9617 12.2253H13.0466C13.1862 12.2253 13.2993 12.1124 13.2996 11.9675V6.03296C13.2994 5.88794 13.1863 5.77515 13.0466 5.77515H12.2996C12.1655 5.77526 12.0368 5.82903 11.9402 5.92554L9.09155 8.81226C9.04318 8.86063 8.95633 8.86063 8.90796 8.81226L6.05933 5.92554C5.96269 5.82904 5.83408 5.77524 5.69995 5.77515H4.95288Z" fill="#DD1405"/>
</g>
<defs>
<clipPath id="clip0_1436_1137">
<rect width="18" height="18" fill="white"/>
</clipPath>
</defs>
</svg>
