<svg width="18" height="18" viewBox="0 0 18 18" fill="none" xmlns="http://www.w3.org/2000/svg">
<g clip-path="url(#clip0_1436_965)">
<path d="M9.00024 0.945312C13.4354 0.945471 17.0344 4.54532 17.0344 8.98047C17.0343 13.4155 13.4353 17.0145 9.00024 17.0146C4.5651 17.0146 0.965246 13.4156 0.965088 8.98047C0.965088 4.54522 4.565 0.945312 9.00024 0.945312ZM5.21899 5.9668C5.08843 5.9668 4.98267 6.07242 4.98267 6.20801V11.752C4.98267 11.8875 5.08843 11.9932 5.21899 11.9932H6.23267C6.36323 11.9932 6.46899 11.8875 6.46899 11.752V8.60352C6.46899 8.57338 6.50471 8.56306 6.51978 8.57812L8.66333 10.748C8.84902 10.9387 9.15037 10.9385 9.33618 10.748L11.4807 8.57812C11.4958 8.56307 11.5315 8.57339 11.5315 8.60352V11.752C11.5315 11.8875 11.6364 11.993 11.7668 11.9932H12.7815C12.912 11.9931 13.0178 11.8875 13.0178 11.752V6.20801C13.0178 6.07243 12.912 5.96681 12.7815 5.9668H12.0833C11.9579 5.96685 11.8376 6.01721 11.7473 6.10742L9.08521 8.80469C9.03996 8.84953 8.9594 8.84973 8.91431 8.80469L6.25317 6.10742C6.16279 6.01705 6.04179 5.9668 5.91626 5.9668H5.21899Z" fill="#DD1405"/>
</g>
<defs>
<clipPath id="clip0_1436_965">
<rect width="18" height="18" fill="white"/>
</clipPath>
</defs>
</svg>
