<svg width="18" height="18" viewBox="0 0 18 18" fill="none" xmlns="http://www.w3.org/2000/svg">
<g clip-path="url(#clip0_1436_1009)">
<path d="M9 0.485352C13.7001 0.485352 17.5146 4.2999 17.5146 9C17.5146 13.7001 13.7001 17.5146 9 17.5146C4.2999 17.5146 0.485352 13.7001 0.485352 9C0.485411 4.29994 4.29994 0.485411 9 0.485352ZM4.99219 5.80762C4.85408 5.80786 4.74227 5.91904 4.74219 6.0625V11.9375C4.74219 12.081 4.85403 12.1931 4.99219 12.1934H6.06738C6.20575 12.1934 6.31738 12.0812 6.31738 11.9375V8.60156C6.31738 8.56969 6.35508 8.55837 6.37109 8.57422L8.64355 10.873C8.84046 11.0753 9.15954 11.0753 9.35645 10.873L11.6289 8.57422C11.645 8.55852 11.6816 8.56976 11.6816 8.60156V11.9375C11.6816 12.0812 11.7943 12.1934 11.9326 12.1934H13.0068C13.1452 12.1934 13.2568 12.0812 13.2568 11.9375V6.0625C13.2568 5.91889 13.1451 5.80762 13.0068 5.80762H12.2676C12.1346 5.80762 12.0069 5.8604 11.9111 5.95605L9.09082 8.81445C9.04296 8.86231 8.95709 8.86224 8.90918 8.81445L6.08887 5.95605C5.9931 5.86035 5.86539 5.80764 5.73242 5.80762H4.99219Z" fill="#DD1405"/>
</g>
<defs>
<clipPath id="clip0_1436_1009">
<rect width="18" height="18" fill="white"/>
</clipPath>
</defs>
</svg>
