<svg width="18" height="18" viewBox="0 0 18 18" fill="none" xmlns="http://www.w3.org/2000/svg">
<path d="M14.5 11C16.433 11 18 12.567 18 14.5C18 16.433 16.433 18 14.5 18C12.567 18 11 16.433 11 14.5C11 12.567 12.567 11 14.5 11Z" fill="black"/>
<path d="M15.0117 12.0529C15.0249 12.0557 15.0377 12.0597 15.0508 12.0627L14.8301 13.0373C14.7238 13.0134 14.6135 13.0002 14.5 13.0002C13.6716 13.0002 13 13.6718 13 14.5002C13.0001 15.3285 13.6716 16.0002 14.5 16.0002C15.3284 16.0002 15.9999 15.3285 16 14.5002C16 14.4498 15.997 14.3999 15.9922 14.3508L16.9873 14.2512C16.9954 14.333 17 14.4162 17 14.5002C16.9999 15.8808 15.8807 17.0002 14.5 17.0002C13.1193 17.0002 12.0001 15.8808 12 14.5002C12 13.2603 12.903 12.2334 14.0869 12.0363L15.0117 12.0529Z" fill="white"/>
<path d="M9 1C13.416 1 17 4.584 17 9C17 9.56514 16.9398 10.1163 16.8281 10.6484C16.1489 10.237 15.3521 10 14.5 10C12.0147 10 10 12.0147 10 14.5C10 15.3521 10.237 16.1489 10.6484 16.8281C10.1163 16.9398 9.56514 17 9 17C4.584 17 1 13.416 1 9C1 4.584 4.584 1 9 1Z" fill="white"/>
<path d="M9 1C13.416 1 17 4.584 17 9C17 9.56514 16.9398 10.1163 16.8281 10.6484C16.1489 10.237 15.3521 10 14.5 10C13.974 10 13.4692 10.091 13 10.2568V6.24023C13 6.10523 12.8946 6 12.7646 6H12.0703C11.9455 6 11.8253 6.04987 11.7354 6.13965L9.08496 8.8252C9.03998 8.87004 8.96002 8.87004 8.91504 8.8252L6.26465 6.13965C6.17469 6.04987 6.05452 6 5.92969 6H5.23535C5.10535 6 5 6.10523 5 6.24023V11.7598C5 11.8948 5.10535 12 5.23535 12H6.24512C6.37506 11.9999 6.48047 11.8947 6.48047 11.7598V8.625C6.48047 8.59504 6.51524 8.58469 6.53027 8.59961L8.66504 10.7598C8.85004 10.9498 9.14996 10.9498 9.33496 10.7598L11.4697 8.59961C11.4848 8.58469 11.5195 8.59504 11.5195 8.625V11.1299C10.588 11.9543 10 13.1582 10 14.5C10 15.3521 10.237 16.1489 10.6484 16.8281C10.1163 16.9398 9.56514 17 9 17C4.584 17 1 13.416 1 9C1 4.584 4.584 1 9 1Z" fill="#DD1405"/>
</svg>
