<svg width="18" height="18" viewBox="0 0 18 18" fill="none" xmlns="http://www.w3.org/2000/svg">
<g clip-path="url(#clip0_1436_1181)">
<path d="M9.00024 0.0551758C13.9377 0.0553507 17.9446 4.06296 17.9446 9.00049C17.9444 13.9379 13.9376 17.9446 9.00024 17.9448C4.06272 17.9448 0.0551066 13.938 0.0549316 9.00049C0.0549316 4.06285 4.06261 0.0551758 9.00024 0.0551758ZM4.79028 5.646C4.64493 5.646 4.52759 5.7636 4.52759 5.91455V12.0864C4.52761 12.2374 4.64494 12.355 4.79028 12.355H5.91919C6.06453 12.355 6.18186 12.2374 6.18188 12.0864V8.58154C6.18188 8.548 6.22175 8.53645 6.23853 8.55322L8.62524 10.9683C8.83207 11.1807 9.16741 11.1806 9.37427 10.9683L11.762 8.55322C11.7788 8.53661 11.8176 8.54807 11.8176 8.58154V12.0864C11.8176 12.2374 11.935 12.355 12.0803 12.355H13.2092C13.3546 12.355 13.4719 12.2374 13.4719 12.0864V5.91455C13.4719 5.7636 13.3546 5.646 13.2092 5.646H12.4329C12.2931 5.646 12.1585 5.70168 12.0579 5.80225L9.09497 8.80518C9.04465 8.85525 8.9548 8.85532 8.90454 8.80518L5.94165 5.80225C5.84114 5.70185 5.70715 5.6461 5.56763 5.646H4.79028Z" fill="#DD1405"/>
</g>
<defs>
<clipPath id="clip0_1436_1181">
<rect width="18" height="18" fill="white"/>
</clipPath>
</defs>
</svg>
