<svg width="18" height="18" viewBox="0 0 18 18" fill="none" xmlns="http://www.w3.org/2000/svg">
<g clip-path="url(#clip0_1436_1025)">
<path d="M8.99982 0.324951C13.7884 0.324951 17.6754 4.21124 17.6756 8.99976C17.6756 13.7884 13.7885 17.6755 8.99982 17.6755C4.2113 17.6754 0.325012 13.7883 0.325012 8.99976C0.325167 4.21133 4.21139 0.325106 8.99982 0.324951ZM4.91681 5.74683C4.77602 5.74703 4.66193 5.86131 4.66193 6.00757V11.9929C4.66193 12.1392 4.77602 12.2535 4.91681 12.2537H6.01251C6.15344 12.2536 6.2674 12.1393 6.2674 11.9929V8.59351C6.2675 8.56132 6.30466 8.55044 6.32111 8.56616L8.63654 10.9089C8.83711 11.1149 9.16248 11.1149 9.3631 10.9089L11.6785 8.56616C11.6949 8.55031 11.7321 8.56126 11.7322 8.59351V11.9929C11.7322 12.1392 11.8463 12.2535 11.9871 12.2537H13.0828C13.2237 12.2536 13.3377 12.1392 13.3377 11.9929V6.00757C13.3377 5.86125 13.2237 5.74694 13.0828 5.74683H12.3289C12.1934 5.74684 12.0632 5.80159 11.9656 5.89917L9.09161 8.8103C9.04281 8.85896 8.95678 8.85902 8.90802 8.8103L6.034 5.89917C5.9364 5.80158 5.80626 5.74683 5.67072 5.74683H4.91681Z" fill="#DD1405"/>
</g>
<defs>
<clipPath id="clip0_1436_1025">
<rect width="18" height="18" fill="white"/>
</clipPath>
</defs>
</svg>
