<svg width="18" height="18" viewBox="0 0 18 18" fill="none" xmlns="http://www.w3.org/2000/svg">
<path d="M14.5 11C16.433 11 18 12.567 18 14.5C18 16.433 16.433 18 14.5 18C12.567 18 11 16.433 11 14.5C11 12.567 12.567 11 14.5 11Z" fill="black"/>
<path d="M14.9905 12.0481C16.1363 12.2761 17.0002 13.2874 17.0002 14.5002C17.0002 15.1905 16.7202 15.8155 16.2678 16.2678L15.5608 15.5608C15.8322 15.2894 16.0002 14.9144 16.0002 14.5002C16.0002 13.7725 15.4818 13.1653 14.7942 13.0286L14.9905 12.0481Z" fill="white"/>
<path d="M9 1C13.416 1 17 4.584 17 9C17 9.56514 16.9398 10.1163 16.8281 10.6484C16.1489 10.237 15.3521 10 14.5 10C12.0147 10 10 12.0147 10 14.5C10 15.3521 10.237 16.1489 10.6484 16.8281C10.1163 16.9398 9.56514 17 9 17C4.584 17 1 13.416 1 9C1 4.584 4.584 1 9 1Z" fill="white"/>
<path d="M9 1C13.416 1 17 4.584 17 9C17 9.56514 16.9398 10.1163 16.8281 10.6484C16.1489 10.237 15.3521 10 14.5 10C13.974 10 13.4692 10.091 13 10.2568V6.24023C13 6.10523 12.8946 6 12.7646 6H12.0703C11.9455 6 11.8253 6.04987 11.7354 6.13965L9.08496 8.8252C9.03998 8.87004 8.96002 8.87004 8.91504 8.8252L6.26465 6.13965C6.17469 6.04987 6.05452 6 5.92969 6H5.23535C5.10535 6 5 6.10523 5 6.24023V11.7598C5 11.8948 5.10535 12 5.23535 12H6.24512C6.37506 11.9999 6.48047 11.8947 6.48047 11.7598V8.625C6.48047 8.59504 6.51524 8.58469 6.53027 8.59961L8.66504 10.7598C8.85004 10.9498 9.14996 10.9498 9.33496 10.7598L11.4697 8.59961C11.4848 8.58469 11.5195 8.59504 11.5195 8.625V11.1299C10.588 11.9543 10 13.1582 10 14.5C10 15.3521 10.237 16.1489 10.6484 16.8281C10.1163 16.9398 9.56514 17 9 17C4.584 17 1 13.416 1 9C1 4.584 4.584 1 9 1Z" fill="#DD1405"/>
</svg>
