<svg width="18" height="18" viewBox="0 0 18 18" fill="none" xmlns="http://www.w3.org/2000/svg">
<g clip-path="url(#clip0_1436_989)">
<path d="M9 0.699951C13.5815 0.699951 17.2997 4.41825 17.2998 8.99976C17.2998 13.5813 13.5816 17.2996 9 17.2996C4.4185 17.2995 0.700195 13.5813 0.700195 8.99976C0.700268 4.4183 4.41854 0.700024 9 0.699951ZM5.09375 5.88745C4.95897 5.88748 4.84972 5.99653 4.84961 6.13647V11.864C4.8498 12.0039 4.95902 12.113 5.09375 12.113H6.1416C6.27636 12.113 6.38555 12.0039 6.38574 11.864V8.61108C6.38576 8.58007 6.42186 8.56938 6.4375 8.58472L8.65234 10.8259C8.84428 11.0231 9.15572 11.0231 9.34766 10.8259L11.5625 8.58472C11.5782 8.56942 11.6142 8.5801 11.6143 8.61108V11.864C11.6145 12.0039 11.7236 12.113 11.8584 12.113H12.9062C13.0409 12.113 13.1502 12.0039 13.1504 11.864V6.13647C13.1503 5.99656 13.041 5.88752 12.9062 5.88745H12.1855C12.0559 5.88745 11.9312 5.9397 11.8379 6.03296L9.08789 8.81812C9.0412 8.8648 8.9588 8.8648 8.91211 8.81812L6.16211 6.03296C6.06875 5.93968 5.94407 5.88745 5.81445 5.88745H5.09375Z" fill="#DD1405"/>
</g>
<defs>
<clipPath id="clip0_1436_989">
<rect width="18" height="18" fill="white"/>
</clipPath>
</defs>
</svg>
