<svg width="18" height="18" viewBox="0 0 18 18" fill="none" xmlns="http://www.w3.org/2000/svg">
<g clip-path="url(#clip0_1436_1081)">
<path d="M9 0C13.968 0 18 4.03199 18 9C18 13.968 13.968 18 9 18C4.03199 18 0 13.968 0 9C4.69552e-05 4.03202 4.03202 4.69567e-05 9 0ZM4.76465 5.625C4.6184 5.625 4.5 5.74363 4.5 5.89551V12.1055C4.50004 12.2573 4.61842 12.375 4.76465 12.375H5.90039C6.04662 12.375 6.165 12.2573 6.16504 12.1055V8.57812C6.16531 8.54465 6.20389 8.53397 6.2207 8.55078L8.62305 10.9805C8.83118 11.1941 9.16885 11.1942 9.37695 10.9805L11.7783 8.55078C11.7951 8.53397 11.8347 8.54465 11.835 8.57812V12.1055C11.835 12.2573 11.9534 12.375 12.0996 12.375H13.2354C13.3816 12.375 13.5 12.2573 13.5 12.1055V5.89551C13.5 5.74363 13.3816 5.625 13.2354 5.625H12.4541C12.3135 5.625 12.1784 5.68195 12.0771 5.7832L9.0957 8.80371C9.04513 8.85428 8.95495 8.85419 8.9043 8.80371L5.92285 5.7832C5.8216 5.68195 5.68652 5.625 5.5459 5.625H4.76465Z" fill="#DD1405"/>
</g>
<defs>
<clipPath id="clip0_1436_1081">
<rect width="18" height="18" fill="white"/>
</clipPath>
</defs>
</svg>
