<svg width="18" height="18" viewBox="0 0 18 18" fill="none" xmlns="http://www.w3.org/2000/svg">
<g clip-path="url(#clip0_1436_977)">
<path d="M8.99988 0.834717C13.507 0.834717 17.1648 4.49264 17.1649 8.99976C17.1649 13.507 13.5071 17.1648 8.99988 17.1648C4.49276 17.1647 0.834839 13.5069 0.834839 8.99976C0.834945 4.4927 4.49282 0.834823 8.99988 0.834717ZM5.1571 5.93823C5.02448 5.9383 4.91785 6.04561 4.91785 6.18335V11.8171C4.91787 11.9549 5.02449 12.0622 5.1571 12.0623H6.18835C6.32091 12.0621 6.42759 11.9548 6.42761 11.8171V8.61694C6.42792 8.58663 6.46413 8.57631 6.47937 8.59155L8.65808 10.7966C8.84684 10.9904 9.15287 10.9903 9.34167 10.7966L11.5214 8.59155C11.5368 8.57676 11.5718 8.58684 11.5721 8.61694V11.8171C11.5722 11.9549 11.6797 12.0623 11.8124 12.0623H12.8427C12.9753 12.0623 13.0829 11.9549 13.0829 11.8171V6.18335C13.0829 6.04556 12.9753 5.93823 12.8427 5.93823H12.1337C12.0062 5.93823 11.8837 5.98914 11.7919 6.08081L9.08679 8.82104C9.04086 8.86697 8.95889 8.86697 8.91296 8.82104L6.20886 6.08081C6.11712 5.98907 5.99447 5.93836 5.86707 5.93823H5.1571Z" fill="#DD1405"/>
</g>
<defs>
<clipPath id="clip0_1436_977">
<rect width="18" height="18" fill="white"/>
</clipPath>
</defs>
</svg>
