<svg width="18" height="18" viewBox="0 0 18 18" fill="none" xmlns="http://www.w3.org/2000/svg">
<g clip-path="url(#clip0_1436_1117)">
<path d="M9 0.61499C13.6284 0.61499 17.3846 4.37134 17.3848 8.99976C17.3848 13.6283 13.6285 17.3845 9 17.3845C4.37159 17.3844 0.615234 13.6282 0.615234 8.99976C0.61536 4.37142 4.37167 0.615116 9 0.61499ZM5.05371 5.8562C4.91757 5.85629 4.80768 5.96579 4.80762 6.10718V11.8933C4.80781 12.0346 4.91764 12.1442 5.05371 12.1443H6.1123C6.24844 12.1443 6.35821 12.0346 6.3584 11.8933V8.60718C6.3584 8.57577 6.39538 8.56517 6.41113 8.58081L8.64941 10.8445C8.84332 11.0436 9.15768 11.0436 9.35156 10.8445L11.5889 8.58081C11.6046 8.56509 11.6416 8.57574 11.6416 8.60718V11.8933C11.6418 12.0346 11.7516 12.1443 11.8877 12.1443H12.9463C13.0824 12.1443 13.1922 12.0346 13.1924 11.8933V6.10718C13.1923 5.96575 13.0825 5.85622 12.9463 5.8562H12.2178C12.0868 5.85621 11.9605 5.90836 11.8662 6.00269L9.08887 8.81714C9.04174 8.86385 8.95823 8.86388 8.91113 8.81714L6.13379 6.00269C6.03946 5.90835 5.91324 5.8562 5.78223 5.8562H5.05371Z" fill="#DD1405"/>
</g>
<defs>
<clipPath id="clip0_1436_1117">
<rect width="18" height="18" fill="white"/>
</clipPath>
</defs>
</svg>
