<svg width="18" height="18" viewBox="0 0 18 18" fill="none" xmlns="http://www.w3.org/2000/svg">
<g clip-path="url(#clip0_1436_739)">
<g opacity="0.69">
<path d="M9 1C13.416 1 17 4.584 17 9C17 13.416 13.416 17 9 17C4.584 17 1 13.416 1 9C1 4.584 4.584 1 9 1Z" fill="#DD1405"/>
<path fill-rule="evenodd" clip-rule="evenodd" d="M13 11.76C13 11.895 12.895 12 12.765 12H11.755C11.625 12 11.52 11.895 11.52 11.76V8.625C11.52 8.595 11.485 8.585 11.47 8.6L9.335 10.76C9.15 10.95 8.85 10.95 8.665 10.76L6.53 8.6C6.515 8.585 6.48 8.595 6.48 8.625V11.76C6.48 11.895 6.375 12 6.245 12H5.235C5.105 12 5 11.895 5 11.76V6.24C5 6.105 5.105 6 5.235 6H5.93C6.055 6 6.175 6.05 6.265 6.14L8.915 8.825C8.96 8.87 9.04 8.87 9.085 8.825L11.735 6.14C11.825 6.05 11.945 6 12.07 6H12.765C12.895 6 13 6.105 13 6.24V11.76Z" fill="white"/>
</g>
</g>
<defs>
<clipPath id="clip0_1436_739">
<rect width="18" height="18" fill="white"/>
</clipPath>
</defs>
</svg>
