<svg width="18" height="18" viewBox="0 0 18 18" fill="none" xmlns="http://www.w3.org/2000/svg">
<g clip-path="url(#clip0_1436_1093)">
<path d="M9 0.879883C13.4822 0.879946 17.1201 4.5178 17.1201 9C17.1201 13.4821 13.4821 17.1201 9 17.1201C4.5178 17.1201 0.879946 13.4822 0.879883 9C0.879883 4.51776 4.51776 0.879883 9 0.879883ZM5.17871 5.95508C5.04676 5.95508 4.93945 6.06219 4.93945 6.19922V11.8018C4.93956 11.9387 5.04683 12.0449 5.17871 12.0449H6.20312C6.33501 12.0449 6.44227 11.9387 6.44238 11.8018V8.61914C6.44268 8.58899 6.478 8.5786 6.49316 8.59375L8.66016 10.7861C8.84793 10.979 9.15207 10.979 9.33984 10.7861L11.5068 8.59375C11.5221 8.57884 11.5573 8.5891 11.5576 8.61914V11.8018C11.5577 11.9386 11.6641 12.0448 11.7959 12.0449H12.8213C12.9532 12.0449 13.0595 11.9387 13.0596 11.8018V6.19922C13.0596 6.06219 12.9532 5.95508 12.8213 5.95508H12.1162C11.9893 5.95508 11.8667 6.00631 11.7754 6.09766L9.08594 8.82227C9.04026 8.86794 8.95876 8.86794 8.91309 8.82227L6.22363 6.09766C6.13229 6.00631 6.01066 5.95508 5.88379 5.95508H5.17871Z" fill="#DD1405"/>
</g>
<defs>
<clipPath id="clip0_1436_1093">
<rect width="18" height="18" fill="white"/>
</clipPath>
</defs>
</svg>
