<svg width="18" height="18" viewBox="0 0 18 18" fill="none" xmlns="http://www.w3.org/2000/svg">
<g clip-path="url(#clip0_1436_1041)">
<path d="M9.00049 0.185059C13.8662 0.185286 17.8149 4.13474 17.8149 9.00049C17.8147 13.866 13.866 17.8147 9.00049 17.8149C4.13474 17.8149 0.185286 13.8662 0.185059 9.00049C0.185059 4.1346 4.1346 0.185059 9.00049 0.185059ZM4.85107 5.69482C4.70794 5.69496 4.59229 5.8108 4.59229 5.95947V12.0415C4.59236 12.1901 4.70799 12.306 4.85107 12.3062H5.96436C6.10749 12.3061 6.22307 12.1901 6.22314 12.0415V8.5874C6.22314 8.5546 6.2611 8.54311 6.27783 8.55908L8.63037 10.9399C8.83409 11.1491 9.16479 11.1489 9.36865 10.9399L11.7212 8.55908C11.7377 8.54258 11.7769 8.55436 11.7769 8.5874V12.0415C11.7769 12.1902 11.8924 12.3062 12.0356 12.3062H13.1489C13.2919 12.3059 13.4076 12.19 13.4077 12.0415V5.95947C13.4077 5.81089 13.2919 5.69508 13.1489 5.69482H12.3823C12.2447 5.69491 12.1123 5.75003 12.0132 5.84912L9.09326 8.80713C9.04367 8.85669 8.95534 8.8567 8.90576 8.80713L5.98584 5.84912C5.88668 5.74999 5.75441 5.69482 5.6167 5.69482H4.85107Z" fill="#DD1405"/>
</g>
<defs>
<clipPath id="clip0_1436_1041">
<rect width="18" height="18" fill="white"/>
</clipPath>
</defs>
</svg>
