<svg width="18" height="18" viewBox="0 0 18 18" fill="none" xmlns="http://www.w3.org/2000/svg">
<g clip-path="url(#clip0_1436_1097)">
<path d="M9 0.834717C13.5071 0.834717 17.1649 4.49264 17.165 8.99976C17.165 13.507 13.5072 17.1648 9 17.1648C4.49288 17.1647 0.834961 13.5069 0.834961 8.99976C0.835067 4.4927 4.49295 0.834823 9 0.834717ZM5.15723 5.93823C5.0246 5.9383 4.91797 6.04561 4.91797 6.18335V11.8171C4.91799 11.9549 5.02461 12.0622 5.15723 12.0623H6.18848C6.32103 12.0621 6.42771 11.9548 6.42773 11.8171V8.61694C6.42804 8.58663 6.46425 8.57631 6.47949 8.59155L8.6582 10.7966C8.84696 10.9904 9.15299 10.9903 9.3418 10.7966L11.5215 8.59155C11.5369 8.57676 11.572 8.58684 11.5723 8.61694V11.8171C11.5723 11.9549 11.6798 12.0623 11.8125 12.0623H12.8428C12.9754 12.0623 13.083 11.9549 13.083 11.8171V6.18335C13.083 6.04556 12.9755 5.93823 12.8428 5.93823H12.1338C12.0063 5.93823 11.8838 5.98914 11.792 6.08081L9.08691 8.82104C9.04098 8.86697 8.95902 8.86697 8.91309 8.82104L6.20898 6.08081C6.11724 5.98907 5.9946 5.93836 5.86719 5.93823H5.15723Z" fill="#DD1405"/>
</g>
<defs>
<clipPath id="clip0_1436_1097">
<rect width="18" height="18" fill="white"/>
</clipPath>
</defs>
</svg>
