<svg width="18" height="18" viewBox="0 0 18 18" fill="none" xmlns="http://www.w3.org/2000/svg">
<g clip-path="url(#clip0_1436_1105)">
<path d="M9 0.745361C13.5566 0.745404 17.2549 4.44362 17.2549 9.00024C17.2548 13.5568 13.5566 17.2551 9 17.2551C4.44337 17.2551 0.74516 13.5569 0.745117 9.00024C0.745117 4.44359 4.44335 0.745361 9 0.745361ZM5.11523 5.90454C4.98109 5.90454 4.87207 6.01329 4.87207 6.15259V11.8479C4.87207 11.9872 4.98109 12.0959 5.11523 12.0959H6.15723C6.29128 12.0958 6.39941 11.9871 6.39941 11.8479V8.61353C6.39941 8.5826 6.43567 8.57174 6.45117 8.58716L8.6543 10.8157C8.84519 11.0117 9.15481 11.0117 9.3457 10.8157L11.5488 8.58716C11.5645 8.57206 11.5996 8.58275 11.5996 8.61353V11.8479C11.5996 11.9872 11.7086 12.0959 11.8428 12.0959H12.8848C13.0189 12.0959 13.127 11.9872 13.127 11.8479V6.15259C13.127 6.01331 13.0189 5.90458 12.8848 5.90454H12.168C12.039 5.90454 11.9151 5.95629 11.8223 6.04907L9.08789 8.81958C9.04148 8.86599 8.95856 8.86594 8.91211 8.81958L6.17773 6.04907C6.08488 5.95621 5.961 5.90455 5.83203 5.90454H5.11523Z" fill="#DD1405"/>
</g>
<defs>
<clipPath id="clip0_1436_1105">
<rect width="18" height="18" fill="white"/>
</clipPath>
</defs>
</svg>
