<svg width="18" height="18" viewBox="0 0 18 18" fill="none" xmlns="http://www.w3.org/2000/svg">
<path d="M9 1C13.416 1 17 4.584 17 9C17 9.32396 16.9779 9.64311 16.9404 9.95703C16.1151 9.35573 15.0993 9 14 9C11.2386 9 9 11.2386 9 14C9 15.0993 9.35573 16.1151 9.95703 16.9404C9.64311 16.9779 9.32396 17 9 17C4.584 17 1 13.416 1 9C1 4.584 4.584 1 9 1Z" fill="white"/>
<path d="M9 1C13.416 1 17 4.584 17 9C17 9.32396 16.9779 9.64311 16.9404 9.95703C16.1151 9.35573 15.0993 9 14 9C13.6576 9 13.3231 9.03403 13 9.09961V6.24023C13 6.10523 12.8946 6 12.7646 6H12.0703C11.9455 6 11.8253 6.04987 11.7354 6.13965L9.08496 8.8252C9.03998 8.87004 8.96002 8.87004 8.91504 8.8252L6.26465 6.13965C6.17469 6.04987 6.05452 6 5.92969 6H5.23535C5.10535 6 5 6.10523 5 6.24023V11.7598C5 11.8948 5.10535 12 5.23535 12H6.24512C6.37506 11.9999 6.48047 11.8947 6.48047 11.7598V8.625C6.48047 8.59504 6.51524 8.58469 6.53027 8.59961L8.66504 10.7598C8.85004 10.9498 9.14996 10.9498 9.33496 10.7598L11.4697 8.59961C11.4848 8.58469 11.5195 8.59504 11.5195 8.625V9.65918C10.0146 10.521 9 12.1415 9 14C9 15.0993 9.35573 16.1151 9.95703 16.9404C9.64311 16.9779 9.32396 17 9 17C4.584 17 1 13.416 1 9C1 4.584 4.584 1 9 1Z" fill="#DD1405"/>
<path d="M14 10C16.2091 10 18 11.7909 18 14C18 16.2091 16.2091 18 14 18C11.7909 18 10 16.2091 10 14C10 11.7909 11.7909 10 14 10Z" fill="black"/>
<path d="M12.5 11.9995C12.7761 11.9995 13 12.2233 13 12.4995V15.4995C12.9997 15.7754 12.776 15.9995 12.5 15.9995C12.224 15.9995 12.0003 15.7754 12 15.4995V12.4995C12 12.2233 12.2239 11.9995 12.5 11.9995ZM15.5 11.9995C15.7761 11.9995 16 12.2233 16 12.4995V15.4995C15.9997 15.7754 15.776 15.9995 15.5 15.9995C15.224 15.9995 15.0003 15.7754 15 15.4995V12.4995C15 12.2233 15.2239 11.9995 15.5 11.9995Z" fill="white"/>
</svg>
