<svg width="18" height="18" viewBox="0 0 18 18" fill="none" xmlns="http://www.w3.org/2000/svg">
<g clip-path="url(#clip0_1436_1045)">
<path d="M8.99976 0.155029C13.8821 0.155029 17.8453 4.11744 17.8455 8.99976C17.8455 13.8822 13.8822 17.8455 8.99976 17.8455C4.11744 17.8453 0.155029 13.8821 0.155029 8.99976C0.155183 4.11754 4.11754 0.155183 8.99976 0.155029ZM4.83765 5.68335C4.69391 5.68335 4.57788 5.79972 4.57788 5.94897V12.0515C4.57788 12.2008 4.69391 12.3171 4.83765 12.3171H5.95386C6.09759 12.3171 6.21362 12.2008 6.21362 12.0515V8.58569C6.21362 8.55252 6.2527 8.54177 6.26929 8.55835L8.62964 10.946C8.83412 11.156 9.16533 11.1559 9.36987 10.946L11.7312 8.55835C11.7478 8.54177 11.7859 8.55253 11.7859 8.58569V12.0515C11.7859 12.2007 11.902 12.317 12.0457 12.3171H13.1628C13.3065 12.317 13.4226 12.2007 13.4226 12.0515V5.94897C13.4226 5.7998 13.3065 5.68348 13.1628 5.68335H12.3943C12.2563 5.68335 12.1236 5.7384 12.0242 5.83765L9.09351 8.8064C9.04375 8.85612 8.95575 8.85614 8.90601 8.8064L5.97632 5.83765C5.87682 5.7382 5.74339 5.68335 5.60522 5.68335H4.83765Z" fill="#DD1405"/>
</g>
<defs>
<clipPath id="clip0_1436_1045">
<rect width="18" height="18" fill="white"/>
</clipPath>
</defs>
</svg>
