<svg width="18" height="18" viewBox="0 0 18 18" fill="none" xmlns="http://www.w3.org/2000/svg">
<g clip-path="url(#clip0_1436_1077)">
<path d="M9.00012 0.00488281C13.9654 0.00489932 17.9952 4.03472 17.9952 9C17.9952 13.9653 13.9654 17.9951 9.00012 17.9951C4.03484 17.9951 0.0050214 13.9653 0.00500488 9C0.00500488 4.03471 4.03483 0.00488281 9.00012 0.00488281ZM4.76672 5.62695C4.62055 5.62695 4.50208 5.74567 4.50208 5.89746V12.1035C4.50208 12.2553 4.62055 12.373 4.76672 12.373H5.90247C6.04853 12.3729 6.16614 12.2552 6.16614 12.1035V8.5791C6.16614 8.54537 6.20591 8.53392 6.22278 8.55078L8.62317 10.9795C8.83119 11.193 9.16909 11.1931 9.37708 10.9795L11.7775 8.55078C11.7944 8.534 11.8331 8.54541 11.8331 8.5791V12.1035C11.8331 12.2553 11.9516 12.373 12.0978 12.373H13.2335C13.3796 12.3729 13.4972 12.2552 13.4972 12.1035V5.89746C13.4972 5.74577 13.3796 5.62711 13.2335 5.62695H12.4523C12.3119 5.62695 12.1765 5.68318 12.0753 5.78418L9.09583 8.80371C9.04526 8.85427 8.95504 8.8542 8.90442 8.80371L5.92493 5.78418C5.82374 5.68305 5.68847 5.62695 5.54797 5.62695H4.76672Z" fill="#DD1405"/>
</g>
<defs>
<clipPath id="clip0_1436_1077">
<rect width="18" height="18" fill="white"/>
</clipPath>
</defs>
</svg>
