<svg width="18" height="18" viewBox="0 0 18 18" fill="none" xmlns="http://www.w3.org/2000/svg">
<g clip-path="url(#clip0_1436_1173)">
<path d="M8.99976 0.100342C13.9123 0.100342 17.8999 4.08724 17.9001 8.99976C17.9001 13.9124 13.9124 17.9001 8.99976 17.9001C4.08724 17.8999 0.100342 13.9123 0.100342 8.99976C0.100548 4.08737 4.08737 0.100548 8.99976 0.100342ZM4.81128 5.66284C4.66688 5.66299 4.55069 5.7795 4.55054 5.92944V12.071C4.55077 12.2209 4.66693 12.3375 4.81128 12.3376H5.9353C6.07971 12.3376 6.19679 12.221 6.19702 12.071V8.58276C6.1972 8.54957 6.23604 8.53877 6.25269 8.55542L8.62769 10.9578C8.83349 11.1691 9.167 11.1691 9.3728 10.9578L11.7478 8.55542C11.7645 8.53877 11.8033 8.54957 11.8035 8.58276V12.071C11.8037 12.221 11.9207 12.3376 12.0652 12.3376H13.1882C13.3327 12.3376 13.4497 12.221 13.45 12.071V5.92944C13.4498 5.7794 13.3328 5.66284 13.1882 5.66284H12.4158C12.2768 5.66284 12.1428 5.71814 12.0427 5.81812L9.09448 8.80542C9.04442 8.85546 8.95509 8.85548 8.90503 8.80542L5.95776 5.81812C5.85764 5.718 5.72377 5.66284 5.58472 5.66284H4.81128Z" fill="#DD1405"/>
</g>
<defs>
<clipPath id="clip0_1436_1173">
<rect width="18" height="18" fill="white"/>
</clipPath>
</defs>
</svg>
