<svg width="18" height="18" viewBox="0 0 18 18" fill="none" xmlns="http://www.w3.org/2000/svg">
<g clip-path="url(#clip0_1436_1001)">
<path d="M8.99982 0.570068C13.6531 0.570068 17.4303 4.34654 17.4305 8.99976C17.4305 13.6531 13.6532 17.4304 8.99982 17.4304C4.3466 17.4303 0.570129 13.653 0.570129 8.99976C0.570297 4.34664 4.3467 0.570236 8.99982 0.570068ZM5.03302 5.83862C4.89611 5.83862 4.78509 5.94941 4.78497 6.09155V11.9089C4.78521 12.051 4.89618 12.1619 5.03302 12.1619H6.0965C6.23334 12.1619 6.34431 12.051 6.34454 11.9089V8.60522C6.34454 8.57361 6.38147 8.56305 6.39728 8.57886L8.64728 10.8552C8.84223 11.055 9.15852 11.0552 9.35333 10.8552L11.6024 8.57886C11.6182 8.56305 11.6551 8.57361 11.6551 8.60522V11.9089C11.6553 12.051 11.7663 12.1619 11.9031 12.1619H12.9676C13.1043 12.1617 13.2144 12.0509 13.2147 11.9089V6.09155C13.2145 5.9495 13.1044 5.83877 12.9676 5.83862H12.2352C12.1035 5.83862 11.9765 5.89125 11.8817 5.98608L9.08966 8.81616C9.04222 8.86343 8.95734 8.86352 8.90997 8.81616L6.11798 5.98608C6.02316 5.89134 5.89612 5.83862 5.76447 5.83862H5.03302Z" fill="#DD1405"/>
</g>
<defs>
<clipPath id="clip0_1436_1001">
<rect width="18" height="18" fill="white"/>
</clipPath>
</defs>
</svg>
