<svg width="18" height="18" viewBox="0 0 18 18" fill="none" xmlns="http://www.w3.org/2000/svg">
<g clip-path="url(#clip0_1436_993)">
<path d="M9.00006 0.655273C13.6064 0.655273 17.3447 4.3937 17.3448 9C17.3448 13.6063 13.6064 17.3447 9.00006 17.3447C4.39377 17.3447 0.655334 13.6063 0.655334 9C0.655375 4.39373 4.39379 0.655314 9.00006 0.655273ZM5.07233 5.87109C4.93695 5.87129 4.8273 5.98049 4.82721 6.12109V11.8789C4.82721 12.0196 4.93689 12.1297 5.07233 12.1299H6.12604C6.26164 12.1299 6.37115 12.0197 6.37115 11.8789V8.60938C6.37115 8.57808 6.40824 8.56736 6.42389 8.58301L8.65045 10.8359C8.84342 11.0341 9.1567 11.0341 9.34967 10.8359L11.5762 8.58301C11.5919 8.56736 11.629 8.57808 11.629 8.60938V11.8789C11.629 12.0197 11.7385 12.1299 11.8741 12.1299H12.9268C13.0624 12.1299 13.1719 12.0197 13.1719 11.8789V6.12109C13.1718 5.98036 13.0624 5.87109 12.9268 5.87109H12.2022C12.0719 5.87111 11.9465 5.92278 11.8526 6.0166L9.08893 8.81738C9.04199 8.86432 8.95813 8.86432 8.91119 8.81738L6.14752 6.0166C6.05371 5.92279 5.9282 5.87117 5.79791 5.87109H5.07233Z" fill="#DD1405"/>
</g>
<defs>
<clipPath id="clip0_1436_993">
<rect width="18" height="18" fill="white"/>
</clipPath>
</defs>
</svg>
