<svg width="18" height="18" viewBox="0 0 18 18" fill="none" xmlns="http://www.w3.org/2000/svg">
<g clip-path="url(#clip0_1436_1177)">
<path d="M9 0.0754395C13.9265 0.0754451 17.9248 4.07376 17.9248 9.00024C17.9248 13.9267 13.9265 17.925 9 17.925C4.07352 17.925 0.075201 13.9267 0.0751953 9.00024C0.0751953 4.07376 4.07351 0.0754395 9 0.0754395ZM4.7998 5.65356C4.6548 5.65356 4.53714 5.77057 4.53711 5.92114V12.0793C4.53712 12.2299 4.65479 12.3469 4.7998 12.3469H5.92676C6.07164 12.3468 6.18846 12.2298 6.18848 12.0793V8.58228C6.18848 8.54892 6.22731 8.53747 6.24414 8.55396L8.62598 10.9641C8.83236 11.176 9.16766 11.176 9.37402 10.9641L11.7559 8.55396C11.7727 8.53755 11.8115 8.54896 11.8115 8.58228V12.0793C11.8115 12.2299 11.9283 12.3468 12.0732 12.3469H13.2002C13.3452 12.3469 13.4619 12.2299 13.4619 12.0793V5.92114C13.4619 5.77058 13.3452 5.65357 13.2002 5.65356H12.4248C12.2854 5.65357 12.1512 5.70942 12.0508 5.80981L9.09473 8.80493C9.04453 8.85513 8.95548 8.85511 8.90527 8.80493L5.94922 5.80981C5.84885 5.70944 5.71459 5.6536 5.5752 5.65356H4.7998Z" fill="#DD1405"/>
</g>
<defs>
<clipPath id="clip0_1436_1177">
<rect width="18" height="18" fill="white"/>
</clipPath>
</defs>
</svg>
