<?xml version="1.0" encoding="UTF-8"?>
<svg width="3300px" height="2200px" viewBox="0 0 3300 2200" version="1.1" xmlns="http://www.w3.org/2000/svg" xmlns:xlink="http://www.w3.org/1999/xlink">
    <title>security</title>
    <g id="Security" stroke="none" stroke-width="1" fill="none" fill-rule="evenodd">
        <g id="security">
            <g id="Notes">
                <rect id="artboard" fill="#FFFFFF" fill-rule="nonzero" x="0" y="0" width="3300" height="2200"></rect>
                <line x1="263" y1="292" x2="3036" y2="292" id="Path" stroke="#000000" stroke-width="0.5"></line>
                <text id="Weight/Scale-Variations" fill="#000000" fill-rule="nonzero" font-family="Helvetica-Bold, Helvetica" font-size="13" font-weight="bold">
                    <tspan x="263" y="322">Weight/Scale Variations</tspan>
                </text>
                <text id="Ultralight" fill="#000000" fill-rule="nonzero" font-family="Helvetica" font-size="13" font-weight="normal">
                    <tspan x="533.711" y="322">Ultralight</tspan>
                </text>
                <text id="Thin" fill="#000000" fill-rule="nonzero" font-family="Helvetica" font-size="13" font-weight="normal">
                    <tspan x="843.422" y="322">Thin</tspan>
                </text>
                <text id="Light" fill="#000000" fill-rule="nonzero" font-family="Helvetica" font-size="13" font-weight="normal">
                    <tspan x="1138.63" y="322">Light</tspan>
                </text>
                <text id="Regular" fill="#000000" fill-rule="nonzero" font-family="Helvetica" font-size="13" font-weight="normal">
                    <tspan x="1426.84" y="322">Regular</tspan>
                </text>
                <text id="Medium" fill="#000000" fill-rule="nonzero" font-family="Helvetica" font-size="13" font-weight="normal">
                    <tspan x="1723.06" y="322">Medium</tspan>
                </text>
                <text id="Semibold" fill="#000000" fill-rule="nonzero" font-family="Helvetica" font-size="13" font-weight="normal">
                    <tspan x="2015.77" y="322">Semibold</tspan>
                </text>
                <text id="Bold" fill="#000000" fill-rule="nonzero" font-family="Helvetica" font-size="13" font-weight="normal">
                    <tspan x="2326.48" y="322">Bold</tspan>
                </text>
                <text id="Heavy" fill="#000000" fill-rule="nonzero" font-family="Helvetica" font-size="13" font-weight="normal">
                    <tspan x="2618.19" y="322">Heavy</tspan>
                </text>
                <text id="Black" fill="#000000" fill-rule="nonzero" font-family="Helvetica" font-size="13" font-weight="normal">
                    <tspan x="2917.4" y="322">Black</tspan>
                </text>
                <line x1="263" y1="1903" x2="3036" y2="1903" id="Path" stroke="#000000" stroke-width="0.5"></line>
                <g id="Group" transform="translate(264.367190, 1918.068400)" fill="#000000" fill-rule="nonzero">
                    <path d="M7.88086,15.761678 C12.18751,15.761678 15.77151,12.18746 15.77151,7.88082 C15.77151,3.5742 12.17771,0 7.87109,0 C3.57422,0 -8.8817842e-16,3.5742 -8.8817842e-16,7.88082 C-8.8817842e-16,12.18746 3.58398,15.761678 7.88086,15.761678 Z M7.88086,14.277303 C4.33593,14.277303 1.5039,11.43551 1.5039,7.88082 C1.5039,4.3261 4.32617,1.4843 7.87109,1.4843 C11.42581,1.4843 14.26761,4.3261 14.2773352,7.88082 C14.28711,11.43551 11.43551,14.277303 7.88086,14.277303 Z M5.02929,8.61324 L7.13867,8.61324 L7.13867,10.73238 C7.13867,11.17183 7.43164,11.47457 7.86133,11.47457 C8.31054,11.47457 8.60351,11.17183 8.60351,10.73238 L8.60351,8.61324 L10.73241,8.61324 C11.17191,8.61324 11.47461,8.32027 11.47461,7.89058 C11.47461,7.45113 11.17191,7.1484 10.73241,7.1484 L8.60351,7.1484 L8.60351,5.03902 C8.60351,4.5898 8.31054,4.2871 7.86133,4.2871 C7.43164,4.2871 7.13867,4.5898 7.13867,5.03902 L7.13867,7.1484 L5.02929,7.1484 C4.58008,7.1484 4.27734,7.45113 4.27734,7.89058 C4.27734,8.32027 4.58008,8.61324 5.02929,8.61324 Z" id="Shape"></path>
                </g>
                <g id="Group" transform="translate(283.254050, 1915.988300)" fill="#000000" fill-rule="nonzero">
                    <path d="M9.96095,19.92186 C15.41015,19.92186 19.92185,15.40037 19.92185,9.96092 C19.92185,4.5117 15.40035,0 9.95115,0 C4.51172,0 8.8817842e-16,4.5117 8.8817842e-16,9.96092 C8.8817842e-16,15.40037 4.52148,19.92186 9.96095,19.92186 Z M9.96095,18.2617 C5.35156,18.2617 1.66992,14.57029 1.66992,9.96092 C1.66992,5.3515 5.34179,1.6601 9.95115,1.6601 C14.56055,1.6601 18.25195,5.3515 18.261769,9.96092 C18.27145,14.57029 14.57035,18.2617 9.96095,18.2617 Z M6.24023,10.78123 L9.13085,10.78123 L9.13085,13.69139 C9.13085,14.17967 9.46285,14.5117 9.94145,14.5117 C10.42965,14.5117 10.77145,14.17967 10.77145,13.69139 L10.77145,10.78123 L13.68165,10.78123 C14.16995,10.78123 14.50195,10.4492 14.50195,9.97068 C14.50195,9.4824 14.16995,9.14061 13.68165,9.14061 L10.77145,9.14061 L10.77145,6.25 C10.77145,5.7422 10.42965,5.4101 9.94145,5.4101 C9.46285,5.4101 9.13085,5.7519 9.13085,6.25 L9.13085,9.14061 L6.24023,9.14061 C5.73242,9.14061 5.40039,9.4824 5.40039,9.97068 C5.40039,10.4492 5.74218,10.78123 6.24023,10.78123 Z" id="Shape"></path>
                </g>
                <g id="Group" transform="translate(307.179860, 1913.224600)" fill="#000000" fill-rule="nonzero">
                    <path d="M12.71484,25.43946 C19.67774,25.43946 25.43944,19.6777438 25.43944,12.72462 C25.43944,5.7617 19.66794,0 12.70504,0 C5.75195,0 0,5.7617 0,12.72462 C0,19.6777438 5.76172,25.43946 12.71484,25.43946 Z M12.71484,23.62306 C6.67969,23.62306 1.82617,18.75978 1.82617,12.72462 C1.82617,6.6797 6.66992,1.8262 12.70504,1.8262 C18.75004,1.8262 23.60354,6.6797 23.6132548,12.72462 C23.62304,18.75978 18.75974,23.62306 12.71484,23.62306 Z M7.80274,13.63282 L11.80664,13.63282 L11.80664,17.64649 C11.80664,18.1836 12.17774,18.5547 12.69534,18.5547 C13.23244,18.5547 13.60354,18.1836 13.60354,17.64649 L13.60354,13.63282 L17.62694,13.63282 C18.15434,13.63282 18.53514,13.26173 18.53514,12.74415 C18.53514,12.20704 18.16404,11.82618 17.62694,11.82618 L13.60354,11.82618 L13.60354,7.8223 C13.60354,7.2656 13.23244,6.8945 12.69534,6.8945 C12.17774,6.8945 11.80664,7.2754 11.80664,7.8223 L11.80664,11.82618 L7.80274,11.82618 C7.24609,11.82618 6.875,12.20704 6.875,12.74415 C6.875,13.26173 7.25586,13.63282 7.80274,13.63282 Z" id="Shape"></path>
                </g>
                <text id="Design-Variations" fill="#000000" fill-rule="nonzero" font-family="Helvetica-Bold, Helvetica" font-size="13" font-weight="bold">
                    <tspan x="263" y="1953">Design Variations</tspan>
                </text>
                <text id="Symbols-are-supported-in-up-to-nine-weights-and-three-scales." fill="#000000" fill-rule="nonzero" font-family="Helvetica" font-size="13" font-weight="normal">
                    <tspan x="263" y="1971">Symbols are supported in up to nine weights and three scales.</tspan>
                </text>
                <text id="For-optimal-layout-with-text-and-other-symbols,-vertically-align" fill="#000000" fill-rule="nonzero" font-family="Helvetica" font-size="13" font-weight="normal">
                    <tspan x="263" y="1989">For optimal layout with text and other symbols, vertically align</tspan>
                </text>
                <text id="symbols-with-the-adjacent-text." fill="#000000" fill-rule="nonzero" font-family="Helvetica" font-size="13" font-weight="normal">
                    <tspan x="263" y="2007">symbols with the adjacent text.</tspan>
                </text>
                <line x1="776" y1="1919" x2="776" y2="1933" id="Path" stroke="#00AEEF" stroke-width="0.5"></line>
                <g id="Group" transform="translate(778.490230, 1918.712900)" fill="#000000" fill-rule="nonzero">
                    <path d="M0.82032,14.414053 C1.33789,14.414053 1.5918,14.2187406 1.77735,13.681631 L3.03711,10.2246 L8.79887,10.2246 L10.05857,13.681631 C10.24417,14.2187406 10.49807,14.414053 11.00587,14.414053 C11.52347,14.414053 11.85547,14.101553 11.85547,13.613272 C11.85547,13.447256 11.82617,13.300772 11.74807,13.08593 L7.16797,0.8984 C6.94336,0.293 6.54297,0 5.91797,0 C5.3125,0 4.90235,0.293 4.6875,0.8887 L0.10743,13.09569 C0.0293,13.310538 -4.4408921e-16,13.457022 -4.4408921e-16,13.623038 C-4.4408921e-16,14.111319 0.3125,14.414053 0.82032,14.414053 Z M3.51563,8.74999 L5.88868,2.1777 L5.9375,2.1777 L8.31057,8.74999 L3.51563,8.74999 Z" id="Shape"></path>
                </g>
                <line x1="792.836" y1="1919" x2="792.836" y2="1933" id="Path" stroke="#00AEEF" stroke-width="0.5"></line>
                <text id="Margins" fill="#000000" fill-rule="nonzero" font-family="Helvetica-Bold, Helvetica" font-size="13" font-weight="bold">
                    <tspan x="776" y="1953">Margins</tspan>
                </text>
                <text id="Leading-and-trailing-margins-on-the-left-and-right-side-of-each-symbol" fill="#000000" fill-rule="nonzero" font-family="Helvetica" font-size="13" font-weight="normal">
                    <tspan x="776" y="1971">Leading and trailing margins on the left and right side of each symbol</tspan>
                </text>
                <text id="can-be-adjusted-by-modifying-the-x-location-of-the-margin-guidelines." fill="#000000" fill-rule="nonzero" font-family="Helvetica" font-size="13" font-weight="normal">
                    <tspan x="776" y="1989">can be adjusted by modifying the x-location of the margin guidelines.</tspan>
                </text>
                <text id="Modifications-are-automatically-applied-proportionally-to-all" fill="#000000" fill-rule="nonzero" font-family="Helvetica" font-size="13" font-weight="normal">
                    <tspan x="776" y="2007">Modifications are automatically applied proportionally to all</tspan>
                </text>
                <text id="scales-and-weights." fill="#000000" fill-rule="nonzero" font-family="Helvetica" font-size="13" font-weight="normal">
                    <tspan x="776" y="2025">scales and weights.</tspan>
                </text>
                <g id="Group" transform="translate(1291.248126, 1914.517396)" fill="#000000" fill-rule="nonzero">
                    <path d="M0.593673634,20.347834 L2.29289363,22.056824 C3.15226363,22.925964 4.13859363,22.867374 5.06632363,21.841984 L15.2420736,10.631044 C15.5057736,10.718934 15.7791736,10.699404 16.0916736,10.640804 L17.1561736,10.445494 L17.8202736,11.119324 L17.7811736,11.675964 C17.7420736,12.174014 17.8690736,12.554874 18.3573736,13.033384 L19.1190736,13.775574 C19.5975736,14.254084 20.2127736,14.283384 20.6815736,13.814634 L23.5916736,10.894714 C24.0604736,10.425964 24.0409736,9.83026404 23.5623736,9.35174404 L22.7909736,8.59002404 C22.3123736,8.11150404 21.9413736,7.95530404 21.4627736,7.99430404 L20.8866736,8.04310404 L20.2420736,7.40840404 L20.4862736,6.28530404 C20.6131736,5.71890404 20.4569736,5.27950404 19.8709736,4.69350404 L17.6737736,2.50600404 C14.3338736,-0.814295964 9.90027363,-0.736195964 7.00968363,2.15450404 C6.58976363,2.56460404 6.56046363,3.14080404 6.79484363,3.53140404 C7.02921363,3.89280404 7.48820363,4.12710404 8.13277363,3.96110404 C9.59757363,3.61930404 11.1209736,3.56070404 12.5467736,4.49820404 L11.9608736,5.95330404 C11.7655736,6.43180404 11.7362736,6.83220404 11.8631736,7.19350404 L0.798753634,17.584166 C-0.187576366,18.5021352 -0.265706366,19.478698 0.593673634,20.347834 Z M8.50387363,2.52560404 C10.9354736,0.748204036 14.2264736,1.05100404 16.4530736,3.27750404 L18.8846736,5.68960404 C19.1190736,5.92400404 19.1580736,6.10960404 19.0897736,6.45140404 L18.7674736,7.93570404 L20.2713736,9.42010404 L21.2577736,9.36151404 C21.5116736,9.35174404 21.5897736,9.37127404 21.7850736,9.56658404 L22.3612736,10.142764 L19.9198736,12.584164 L19.3436736,12.007994 C19.1483736,11.812684 19.1190736,11.734554 19.1288736,11.470884 L19.1971736,10.494324 L17.7030736,9.00994404 L16.1795736,9.26385404 C15.8573736,9.33221404 15.7108736,9.30291404 15.4666736,9.06854404 L13.4647736,7.06660404 C13.2108736,6.83220404 13.1815736,6.66620404 13.3377736,6.29510404 L14.2166736,4.20530404 C12.6541736,2.75020404 10.6229736,2.12520404 8.59167363,2.72090404 C8.43547363,2.75990404 8.37687363,2.63300404 8.50387363,2.52560404 Z M3.02531363,20.787304 L1.85343363,19.625184 C1.38468363,19.166198 1.49210363,18.824401 1.89249363,18.4630728 L12.7030736,8.28730404 L14.1678736,9.77166404 L4.17765363,20.757994 C3.82609363,21.158384 3.49406363,21.256044 3.02531363,20.787304 Z" id="Shape"></path>
                </g>
                <text id="Exporting" fill="#000000" fill-rule="nonzero" font-family="Helvetica-Bold, Helvetica" font-size="13" font-weight="bold">
                    <tspan x="1289" y="1953">Exporting</tspan>
                </text>
                <text id="Symbols-should-be-outlined-when-exporting-to-ensure-the" fill="#000000" fill-rule="nonzero" font-family="Helvetica" font-size="13" font-weight="normal">
                    <tspan x="1289" y="1971">Symbols should be outlined when exporting to ensure the</tspan>
                </text>
                <text id="design-is-preserved-when-submitting-to-Xcode." fill="#000000" fill-rule="nonzero" font-family="Helvetica" font-size="13" font-weight="normal">
                    <tspan x="1289" y="1989">design is preserved when submitting to Xcode.</tspan>
                </text>
                <text id="template-version" fill="#000000" fill-rule="nonzero" font-family="Helvetica" font-size="13" font-weight="normal">
                    <tspan x="2952" y="1933">Template v.2.0</tspan>
                </text>
                <text id="Requires-Xcode-12-or-greater" fill="#000000" fill-rule="nonzero" font-family="Helvetica" font-size="13" font-weight="normal">
                    <tspan x="2865" y="1951">Requires Xcode 12 or greater</tspan>
                </text>
                <text id="Generated-from-person.crop.circle" fill="#000000" fill-rule="nonzero" font-family="Helvetica" font-size="13" font-weight="normal">
                    <tspan x="2838" y="1969">Generated from person.crop.circle</tspan>
                </text>
                <text id="Typeset-at-100-points" fill="#000000" fill-rule="nonzero" font-family="Helvetica" font-size="13" font-weight="normal">
                    <tspan x="2912" y="1987">Typeset at 100 points</tspan>
                </text>
                <text id="Small" fill="#000000" fill-rule="nonzero" font-family="Helvetica" font-size="13" font-weight="normal">
                    <tspan x="263" y="726">Small</tspan>
                </text>
                <text id="Medium" fill="#000000" fill-rule="nonzero" font-family="Helvetica" font-size="13" font-weight="normal">
                    <tspan x="263" y="1156">Medium</tspan>
                </text>
                <text id="Large" fill="#000000" fill-rule="nonzero" font-family="Helvetica" font-size="13" font-weight="normal">
                    <tspan x="263" y="1586">Large</tspan>
                </text>
            </g>
            <g id="Guides" transform="translate(263.000000, 625.041000)">
                <g id="H-reference" transform="translate(76.976562, 0.500000)" fill="#27AAE1" fill-rule="nonzero">
                    <path d="M-1.22124533e-15,70.459 L2.685548,70.459 L12.011738,45.9961 L44.775438,45.9961 L54.150438,70.459 L56.787138,70.459 L29.638638,0 L27.148438,0 L-1.22124533e-15,70.459 Z M28.369138,3.3203 L28.466838,3.3203 L43.896438,43.75 L12.890638,43.75 L28.369138,3.3203 Z" id="Shape"></path>
                </g>
                <line x1="0" y1="70.959" x2="2773" y2="70.959" id="Baseline-S" stroke="#27AAE1" stroke-width="0.5"></line>
                <line x1="0" y1="0.5" x2="2773" y2="0.5" id="Capline-S" stroke="#27AAE1" stroke-width="0.5"></line>
                <g id="H-reference" transform="translate(76.976562, 430.500000)" fill="#27AAE1" fill-rule="nonzero">
                    <path d="M-1.22124533e-15,70.459 L2.685548,70.459 L12.011738,45.9961 L44.775438,45.9961 L54.150438,70.459 L56.787138,70.459 L29.638638,0 L27.148438,0 L-1.22124533e-15,70.459 Z M28.369138,3.3203 L28.466838,3.3203 L43.896438,43.75 L12.890638,43.75 L28.369138,3.3203 Z" id="Shape"></path>
                </g>
                <line x1="0" y1="500.959" x2="2773" y2="500.959" id="Baseline-M" stroke="#27AAE1" stroke-width="0.5"></line>
                <line x1="0" y1="430.499" x2="2773" y2="430.499" id="Capline-M" stroke="#27AAE1" stroke-width="0.5"></line>
                <g id="H-reference" transform="translate(76.976562, 860.500000)" fill="#27AAE1" fill-rule="nonzero">
                    <path d="M-1.22124533e-15,70.459 L2.685548,70.459 L12.011738,45.9961 L44.775438,45.9961 L54.150438,70.459 L56.787138,70.459 L29.638638,0 L27.148438,0 L-1.22124533e-15,70.459 Z M28.369138,3.3203 L28.466838,3.3203 L43.896438,43.75 L12.890638,43.75 L28.369138,3.3203 Z" id="Shape"></path>
                </g>
                <line x1="0" y1="930.959" x2="2773" y2="930.959" id="Baseline-L" stroke="#27AAE1" stroke-width="0.5"></line>
                <line x1="0" y1="860.499" x2="2773" y2="860.499" id="Capline-L" stroke="#27AAE1" stroke-width="0.5"></line>
                <line x1="1128.3" y1="405.749" x2="1128.3" y2="525.079" id="left-margin" stroke="#00AEEF" stroke-width="0.5"></line>
                <line x1="1245.39" y1="405.749" x2="1245.39" y2="525.079" id="right-margin" stroke="#00AEEF" stroke-width="0.5"></line>
            </g>
            <g id="Symbols" transform="translate(1386.249300, 620.511700)" fill="#000000" fill-rule="nonzero">
                <g id="Semibold-L" transform="translate(592.000000, 835.208300)">
                    <path d="M65.015,0 C86.7557752,0 107.545485,4.12514824 126.67212,11.6415266 L130.03,13.003 L130.03,67.5289133 C130.03,87.010622 112.674607,103.04555 95.897727,113.994836 L92.6626288,116.050108 C91.0535075,117.045552 89.46064,117.992377 87.90028,118.889099 L84.8277193,120.615297 L81.8707407,122.205244 L79.05824,123.6563 L76.4191126,124.965824 L73.9822541,126.131176 L70.7694295,127.603103 L66.83542,129.298046 L65.015,130.03 L62.5667037,129.036425 L59.2605705,127.603103 L56.0477459,126.131176 L53.6108874,124.965824 L50.97176,123.6563 L48.1592593,122.205244 L45.2022807,120.615297 L42.12972,118.889099 C40.56936,117.992377 38.9764925,117.045552 37.3673712,116.050108 L34.132273,113.994836 C17.8965827,103.398752 1.11910079,88.0398414 0.0535771759,69.403425 L0,67.5289133 L0,13.003 C20.0419573,4.62473367 41.9953557,0 65.015,0 Z M65.015,10.5643982 C46.606292,10.5643982 28.6464301,13.7651289 11.7076074,19.9382198 L10.5629466,20.3760238 L10.5629466,67.4621479 C10.5629466,79.3320192 20.0354359,91.592181 36.5171891,103.048047 L38.3098001,104.272329 C44.8596323,108.668732 51.9293083,112.594186 59.0028974,115.974922 L60.8245671,116.833146 L64.2387643,118.372104 L65.015,118.703997 L66.8933007,117.885638 L69.2054329,116.833146 L71.0271026,115.974922 C78.1006917,112.594186 85.1703677,108.668732 91.7201999,104.272329 C108.699473,92.8754365 118.757454,80.6315844 119.430919,68.7353589 L119.467053,67.4621479 L119.467053,20.3760238 L118.322393,19.9382198 C102.512825,14.1766683 85.8138183,11.0043728 68.6905874,10.607007 L65.015,10.5643982 Z M65.015,19.8205022 C80.5546698,19.8205022 95.3745582,22.9424806 108.904107,28.5983235 L108.904107,28.5983235 L108.904107,65.4066544 C108.904107,90.8608734 65.015,107.598716 65.015,107.598716 C65.015,107.598716 21.1258932,90.8608734 21.1258932,65.4066544 L21.1258932,65.4066544 L21.1258932,28.5983235 C34.6554418,22.9424806 49.4753302,19.8205022 65.015,19.8205022 Z" id="Shape"></path>
                </g>
                <g id="Regular-L" transform="translate(0.000000, 836.428300)">
                    <path d="M63.6,0 C84.8676044,0 105.204843,4.03536765 123.915202,11.388158 L127.2,12.72 L127.2,66.0592 C127.2,85.1169047 110.222333,100.802845 93.8105889,111.513829 L90.6459,113.524369 C89.0718,114.498148 87.5136,115.424367 85.9872,116.301572 L82.9815111,117.9902 L80.0888889,119.545544 L77.3376,120.965019 L74.7559111,122.246042 L72.3720889,123.38603 L69.2291889,124.825923 L65.3808,126.483976 L63.6,127.2 L61.2049889,126.228049 L57.9708111,124.825923 L54.8279111,123.38603 L52.4440889,122.246042 L49.8624,120.965019 L47.1111111,119.545544 L44.2184889,117.9902 L41.2128,116.301572 C39.6864,115.424367 38.1282,114.498148 36.5541,113.524369 L33.3894111,111.513829 C17.5070778,101.14836 1.09474444,86.1237239 0.0524111111,67.8929144 L0,66.0592 L0,12.72 C19.60576,4.52408 41.08136,0 63.6,0 Z M63.6,9.08571429 C45.1702531,9.08571429 27.1898651,12.2907054 10.2316834,18.4720132 L9.08571429,18.9104 L9.08571429,66.0592 C9.08571429,77.9448712 18.5690295,90.2213524 35.0696194,101.692467 L36.8642792,102.918379 C43.4215971,107.320634 50.4993529,111.251313 57.5810263,114.63655 L59.4047779,115.495915 L62.8228772,117.036922 L63.6,117.369257 L65.4804473,116.549808 L67.7952221,115.495915 L69.6189737,114.63655 C76.7006471,111.251313 83.7784029,107.320634 90.3357208,102.918379 C107.334399,91.506316 117.403876,79.2461662 118.07811,67.3341057 L118.114286,66.0592 L118.114286,18.9104 L116.968317,18.4720132 C101.14068,12.7027926 84.4225889,9.5262745 67.2797882,9.12837974 L63.6,9.08571429 Z M63.6,16.8944483 C79.6847429,16.8944483 95.0244571,20.1259341 109.028571,25.9801626 L109.028571,25.9801626 L109.028571,64.0795912 C109.028571,90.4266483 63.6,107.751591 63.6,107.751591 C63.6,107.751591 18.1714286,90.4266483 18.1714286,64.0795912 L18.1714286,64.0795912 L18.1714286,25.9801626 C32.1755429,20.1259341 47.5152571,16.8944483 63.6,16.8944483 Z" id="Shape"></path>
                </g>
                <g id="Semibold-M" transform="translate(605.570700, 419.208300)">
                    <path d="M51.025,0 C68.087571,0 84.4037282,3.23749425 99.4146725,9.13648995 L102.05,10.205 L102.05,52.9979667 C102.05,68.2875796 88.4291597,80.8720936 75.2623475,89.4653004 L72.7233813,91.0783168 C71.4605125,91.85956 70.2104,92.6026464 68.9858,93.3064104 L66.5743963,94.6611632 L64.2537037,95.9089838 L62.0464,97.0477998 L59.975163,98.075539 L58.0626704,98.990129 L55.541185,100.145326 L52.4537,101.475549 L51.025,102.05 L49.1035308,101.270223 L46.508815,100.145326 L43.9873296,98.990129 L42.074837,98.075539 L40.0036,97.0477998 L37.7962963,95.9089838 L35.4756037,94.6611632 L33.0642,93.3064104 C31.8396,92.6026464 30.5894875,91.85956 29.3266188,91.0783168 L26.7876525,89.4653004 C14.0455762,81.1492938 0.878291435,69.0953304 0.0420483796,54.4691188 L0,52.9979667 L0,10.205 C15.7293067,3.62957833 32.9587483,0 51.025,0 Z M51.025,8.29113929 C36.5774983,8.29113929 22.4822594,10.8031331 9.18835146,15.6478915 L8.29,15.9914883 L8.29,52.9455679 C8.29,62.2612671 15.7241885,71.8832736 28.6593797,80.8740535 L30.0662547,81.8348932 C35.2066867,85.2852736 40.755102,88.3660438 46.3065883,91.0193097 L47.7362691,91.6928594 L50.4157956,92.900663 L51.025,93.1611393 L52.4991258,92.5188753 L54.3137309,91.6928594 L55.7434117,91.0193097 C61.294898,88.3660438 66.8433133,85.2852736 71.9837453,81.8348932 C85.3093994,72.8903968 93.2030932,63.2811904 93.7316409,53.9448079 L93.76,52.9455679 L93.76,15.9914883 L92.8616485,15.6478915 C80.4540011,11.126117 67.3483054,8.63643964 53.9096704,8.32457943 L51.025,8.29113929 Z M51.025,15.5555045 C63.2208263,15.5555045 74.8517547,18.0056921 85.47,22.4445045 L85.47,22.4445045 L85.47,51.3323778 C85.47,70.9097906 52.389022,83.9173212 51.0657829,84.4297914 L51.025,84.4455045 C51.025,84.4455045 16.58,71.3093296 16.58,51.3323778 L16.58,51.3323778 L16.58,22.4445045 C27.1982453,18.0056921 38.8291737,15.5555045 51.025,15.5555045 Z" id="Shape"></path>
                </g>
                <g id="Regular-M" transform="translate(13.790700, 420.428300)">
                    <path d="M49.805,-2.27373675e-13 C66.4596075,-2.27373675e-13 82.3856479,3.16008626 97.0376828,8.91803787 L99.61,9.961 L99.61,51.7307933 C99.61,66.6548339 86.3148319,78.9384541 73.4628362,87.3261986 L70.9845762,88.9006481 C69.7519025,89.6632119 68.53168,90.3885312 67.33636,91.0754683 L64.9826126,92.3978291 L62.7174074,93.6158145 L60.56288,94.7274017 L58.5411659,95.7305678 L56.6744007,96.62329 L54.2132037,97.7508661 L51.19954,99.0492837 L49.805,99.61 L47.9294728,98.8488678 L45.3967963,97.7508661 L42.9355993,96.62329 L41.0688341,95.7305678 L39.04712,94.7274017 L36.8925926,93.6158145 L34.6273874,92.3978291 L32.27364,91.0754683 C31.07832,90.3885312 29.8580975,89.6632119 28.6254237,88.9006481 L26.1471638,87.3261986 C13.7097486,79.2090265 0.85729162,67.4432716 0.0410430093,53.1667705 L0,51.7307933 L0,9.961 C15.3532213,3.54279567 32.1707097,-2.27373675e-13 49.805,-2.27373675e-13 Z M49.805,7.115 C35.3727115,7.115 21.2923149,9.62482046 8.01240549,14.4653871 L7.115,14.8086867 L7.115,51.7307933 C7.115,61.0384326 14.5413603,70.6521141 27.4629307,79.6351151 L28.8683243,80.5951235 C34.0033434,84.0425185 39.5459162,87.1206233 45.0915568,89.7715935 L46.5197322,90.4445605 L49.1964371,91.6513191 L49.805,91.91157 L51.2775736,91.2698617 L53.0902678,90.4445605 L54.5184432,89.7715935 C60.0640838,87.1206233 65.6066566,84.0425185 70.7416757,80.5951235 C84.0532979,71.6583659 91.9386797,62.0574734 92.4666708,52.7291688 L92.495,51.7307933 L92.495,14.8086867 L91.5975945,14.4653871 C79.2030124,9.9475249 66.111117,7.4600016 52.6866329,7.14841121 L49.805,7.115 Z M49.805,13.23 C62.4009217,13.23 74.4134133,15.7605683 85.38,20.345 L85.38,20.345 L85.38,50.1805667 C85.38,70.8128808 49.805,84.38 49.805,84.38 C49.805,84.38 14.23,70.8128808 14.23,50.1805667 L14.23,50.1805667 L14.23,20.345 C25.1965867,15.7605683 37.2090783,13.23 49.805,13.23 Z" id="Shape"></path>
                </g>
                <g id="Semibold-S" transform="translate(616.570700, 0.000000)">
                    <path d="M40.235,0 C53.689435,0 66.5552965,2.55287763 78.3919519,7.2044424 L80.47,8.047 L80.47,41.7907533 C80.47,53.8471487 69.7294903,63.7704789 59.3469975,70.5465235 L57.3449338,71.8184435 C56.3491175,72.4344811 55.36336,73.0204307 54.39772,73.5753733 L52.4962437,74.6436433 L50.6662963,75.6275936 L48.92576,76.5255899 L47.292517,77.3359983 L45.7844496,78.0571845 L43.79617,78.9680976 L41.36158,80.017025 L40.235,80.47 L38.7198542,79.8551189 L36.67383,78.9680976 L34.6855504,78.0571845 L33.177483,77.3359983 L31.54424,76.5255899 L29.8037037,75.6275936 L27.9737563,74.6436433 L26.07228,73.5753733 C25.10664,73.0204307 24.1208825,72.4344811 23.1250662,71.8184435 L21.1230025,70.5465235 C11.0754288,63.989061 0.692563565,54.4840886 0.0331566204,42.9508083 L0,41.7907533 L0,8.047 C12.4031093,2.86204967 25.9891277,0 40.235,0 Z M40.235,6.53785378 C28.8426388,6.53785378 17.7280491,8.51864893 7.24533701,12.3389106 L6.53695541,12.6098488 L6.53695541,41.7494351 C6.53695541,49.0951902 12.3990735,56.6824795 22.5989249,63.7720243 L23.7082951,64.5296801 C27.7617058,67.2504259 32.1368256,69.6797212 36.5143671,71.7719143 L37.6417205,72.3030318 L39.754621,73.2554272 L40.235,73.4608219 L41.3973999,72.9543743 L42.8282795,72.3030318 L43.9556329,71.7719143 C48.3331744,69.6797212 52.7082942,67.2504259 56.7617049,64.5296801 C67.26945,57.4766314 73.4939041,49.8994355 73.9106825,42.5373708 L73.9330446,41.7494351 L73.9330446,12.6098488 L73.224663,12.3389106 C63.4407984,8.77333304 53.1064982,6.81013521 42.5096637,6.56422251 L40.235,6.53785378 Z M40.235,12.2660602 C49.8518363,12.2660602 59.0232307,14.198119 67.3960892,17.698278 L67.3960892,17.698278 L67.3960892,40.4773782 C67.3960892,56.2299045 40.235,66.5882386 40.235,66.5882386 C40.235,66.5882386 13.0739108,56.2299045 13.0739108,40.4773782 L13.0739108,40.4773782 L13.0739108,17.698278 C21.4467693,14.198119 30.6181637,12.2660602 40.235,12.2660602 Z" id="Shape"></path>
                </g>
                <g id="Regular-S" transform="translate(23.790700, 0.830100)">
                    <path d="M39.43,0 C52.615246,0 65.2236943,2.50180105 76.8235284,7.06029983 L78.86,7.886 L78.86,40.9546267 C78.86,52.7698043 68.3343806,62.4945938 58.1596151,69.135067 L56.1976075,70.3815391 C55.221715,70.9852514 54.25568,71.5594777 53.30936,72.1033173 L51.4459274,73.1502139 L49.6525926,74.1144778 L47.94688,74.9945076 L46.3463141,75.7887017 L44.8684193,76.4954588 L42.9199201,77.3881468 L40.53404,78.4160879 L39.43,78.86 L37.9451684,78.2574211 L35.9400799,77.3881468 L33.9915807,76.4954588 L32.5136859,75.7887017 L30.91312,74.9945076 L29.2074074,74.1144778 L27.4140726,73.1502139 L25.55064,72.1033173 C24.60432,71.5594777 23.638285,70.9852514 22.6623925,70.3815391 L20.7003849,69.135067 C10.8538377,62.7088026 0.67870713,53.3940006 0.0324932407,42.0914719 L0,40.9546267 L0,7.886 C12.1549547,2.80478733 25.4691513,0 39.43,0 Z M39.43,5.63285714 C28.0041364,5.63285714 16.8568613,7.61985083 6.34332193,11.4520673 L5.63285714,11.7238533 L5.63285714,40.9546267 C5.63285714,48.3233691 11.5122144,55.9344013 21.7420612,63.0461317 L22.8546939,63.8061584 C26.9200247,66.5354183 31.3080108,68.9723155 35.6984256,71.0710558 L36.8290943,71.6038353 L38.9482083,72.5592111 L39.43,72.7652486 L40.5958182,72.2572161 L42.0309057,71.6038353 L43.1615744,71.0710558 C47.5519892,68.9723155 51.9399753,66.5354183 56.0053061,63.8061584 C66.5439521,56.7310384 72.786711,49.130131 73.204715,41.7450281 L73.2271429,40.9546267 L73.2271429,11.7238533 L72.5166781,11.4520673 C62.7040413,7.87533193 52.3393503,5.90599062 41.711353,5.65930839 L39.43,5.63285714 Z M39.43,10.4740267 C49.4020348,10.4740267 58.9121752,12.4774462 67.5942857,16.1068838 L67.5942857,16.1068838 L67.5942857,39.7273315 C67.5942857,56.0616784 39.43,66.8025981 39.43,66.8025981 C39.43,66.8025981 11.2657143,56.0616784 11.2657143,39.7273315 L11.2657143,39.7273315 L11.2657143,16.1068838 C19.9478248,12.4774462 29.4579652,10.4740267 39.43,10.4740267 Z" id="Shape"></path>
                </g>
            </g>
        </g>
    </g>
</svg>