<?xml version="1.0" encoding="UTF-8"?>
<svg width="3300px" height="2200px" viewBox="0 0 3300 2200" version="1.1" xmlns="http://www.w3.org/2000/svg" xmlns:xlink="http://www.w3.org/1999/xlink">
    <title>folders</title>
    <g id="Folders" stroke="none" stroke-width="1" fill="none" fill-rule="evenodd">
        <g id="folders">
            <g id="Notes">
                <rect id="artboard" fill="#FFFFFF" fill-rule="nonzero" x="0" y="0" width="3300" height="2200"></rect>
                <line x1="263" y1="292" x2="3036" y2="292" id="Path" stroke="#000000" stroke-width="0.5"></line>
                <text id="Weight/Scale-Variations" fill="#000000" fill-rule="nonzero" font-family="Helvetica-Bold, Helvetica" font-size="13" font-weight="bold">
                    <tspan x="263" y="322">Weight/Scale Variations</tspan>
                </text>
                <text id="Ultralight" fill="#000000" fill-rule="nonzero" font-family="Helvetica" font-size="13" font-weight="normal">
                    <tspan x="533.711" y="322">Ultralight</tspan>
                </text>
                <text id="Thin" fill="#000000" fill-rule="nonzero" font-family="Helvetica" font-size="13" font-weight="normal">
                    <tspan x="843.422" y="322">Thin</tspan>
                </text>
                <text id="Light" fill="#000000" fill-rule="nonzero" font-family="Helvetica" font-size="13" font-weight="normal">
                    <tspan x="1138.63" y="322">Light</tspan>
                </text>
                <text id="Regular" fill="#000000" fill-rule="nonzero" font-family="Helvetica" font-size="13" font-weight="normal">
                    <tspan x="1426.84" y="322">Regular</tspan>
                </text>
                <text id="Medium" fill="#000000" fill-rule="nonzero" font-family="Helvetica" font-size="13" font-weight="normal">
                    <tspan x="1723.06" y="322">Medium</tspan>
                </text>
                <text id="Semibold" fill="#000000" fill-rule="nonzero" font-family="Helvetica" font-size="13" font-weight="normal">
                    <tspan x="2015.77" y="322">Semibold</tspan>
                </text>
                <text id="Bold" fill="#000000" fill-rule="nonzero" font-family="Helvetica" font-size="13" font-weight="normal">
                    <tspan x="2326.48" y="322">Bold</tspan>
                </text>
                <text id="Heavy" fill="#000000" fill-rule="nonzero" font-family="Helvetica" font-size="13" font-weight="normal">
                    <tspan x="2618.19" y="322">Heavy</tspan>
                </text>
                <text id="Black" fill="#000000" fill-rule="nonzero" font-family="Helvetica" font-size="13" font-weight="normal">
                    <tspan x="2917.4" y="322">Black</tspan>
                </text>
                <line x1="263" y1="1903" x2="3036" y2="1903" id="Path" stroke="#000000" stroke-width="0.5"></line>
                <g id="Group" transform="translate(264.367190, 1918.068400)" fill="#000000" fill-rule="nonzero">
                    <path d="M7.88086,15.761678 C12.18751,15.761678 15.77151,12.18746 15.77151,7.88082 C15.77151,3.5742 12.17771,0 7.87109,0 C3.57422,0 -2.99874823e-25,3.5742 -2.99874823e-25,7.88082 C-2.99874823e-25,12.18746 3.58398,15.761678 7.88086,15.761678 Z M7.88086,14.277303 C4.33593,14.277303 1.5039,11.43551 1.5039,7.88082 C1.5039,4.3261 4.32617,1.4843 7.87109,1.4843 C11.42581,1.4843 14.26761,4.3261 14.2773603,7.88082 C14.28711,11.43551 11.43551,14.277303 7.88086,14.277303 Z M5.02929,8.61324 L7.13867,8.61324 L7.13867,10.73238 C7.13867,11.17183 7.43164,11.47457 7.86133,11.47457 C8.31054,11.47457 8.60351,11.17183 8.60351,10.73238 L8.60351,8.61324 L10.73241,8.61324 C11.17191,8.61324 11.47461,8.32027 11.47461,7.89058 C11.47461,7.45113 11.17191,7.1484 10.73241,7.1484 L8.60351,7.1484 L8.60351,5.03902 C8.60351,4.5898 8.31054,4.2871 7.86133,4.2871 C7.43164,4.2871 7.13867,4.5898 7.13867,5.03902 L7.13867,7.1484 L5.02929,7.1484 C4.58008,7.1484 4.27734,7.45113 4.27734,7.89058 C4.27734,8.32027 4.58008,8.61324 5.02929,8.61324 Z" id="Shape"></path>
                </g>
                <g id="Group" transform="translate(283.254050, 1915.988300)" fill="#000000" fill-rule="nonzero">
                    <path d="M9.96095,19.92186 C15.41015,19.92186 19.92185,15.40037 19.92185,9.96092 C19.92185,4.5117 15.40035,0 9.95115,0 C4.51172,0 -8.88178419e-16,4.5117 -8.88178419e-16,9.96092 C-8.88178419e-16,15.40037 4.52148,19.92186 9.96095,19.92186 Z M9.96095,18.2617 C5.35156,18.2617 1.66992,14.57029 1.66992,9.96092 C1.66992,5.3515 5.34179,1.6601 9.95115,1.6601 C14.56055,1.6601 18.25195,5.3515 18.2617879,9.96092 C18.27145,14.57029 14.57035,18.2617 9.96095,18.2617 Z M6.24023,10.78123 L9.13085,10.78123 L9.13085,13.69139 C9.13085,14.17967 9.46285,14.5117 9.94145,14.5117 C10.42965,14.5117 10.77145,14.17967 10.77145,13.69139 L10.77145,10.78123 L13.68165,10.78123 C14.16995,10.78123 14.50195,10.4492 14.50195,9.97068 C14.50195,9.4824 14.16995,9.14061 13.68165,9.14061 L10.77145,9.14061 L10.77145,6.25 C10.77145,5.7422 10.42965,5.4101 9.94145,5.4101 C9.46285,5.4101 9.13085,5.7519 9.13085,6.25 L9.13085,9.14061 L6.24023,9.14061 C5.73242,9.14061 5.40039,9.4824 5.40039,9.97068 C5.40039,10.4492 5.74218,10.78123 6.24023,10.78123 Z" id="Shape"></path>
                </g>
                <g id="Group" transform="translate(307.179860, 1913.224600)" fill="#000000" fill-rule="nonzero">
                    <path d="M12.71484,25.43946 C19.67774,25.43946 25.43944,19.6777438 25.43944,12.72462 C25.43944,5.7617 19.66794,0 12.70504,0 C5.75195,0 0,5.7617 0,12.72462 C0,19.6777438 5.76172,25.43946 12.71484,25.43946 Z M12.71484,23.62306 C6.67969,23.62306 1.82617,18.75978 1.82617,12.72462 C1.82617,6.6797 6.66992,1.8262 12.70504,1.8262 C18.75004,1.8262 23.60354,6.6797 23.6132695,12.72462 C23.62304,18.75978 18.75974,23.62306 12.71484,23.62306 Z M7.80274,13.63282 L11.80664,13.63282 L11.80664,17.64649 C11.80664,18.1836 12.17774,18.5547 12.69534,18.5547 C13.23244,18.5547 13.60354,18.1836 13.60354,17.64649 L13.60354,13.63282 L17.62694,13.63282 C18.15434,13.63282 18.53514,13.26173 18.53514,12.74415 C18.53514,12.20704 18.16404,11.82618 17.62694,11.82618 L13.60354,11.82618 L13.60354,7.8223 C13.60354,7.2656 13.23244,6.8945 12.69534,6.8945 C12.17774,6.8945 11.80664,7.2754 11.80664,7.8223 L11.80664,11.82618 L7.80274,11.82618 C7.24609,11.82618 6.875,12.20704 6.875,12.74415 C6.875,13.26173 7.25586,13.63282 7.80274,13.63282 Z" id="Shape"></path>
                </g>
                <text id="Design-Variations" fill="#000000" fill-rule="nonzero" font-family="Helvetica-Bold, Helvetica" font-size="13" font-weight="bold">
                    <tspan x="263" y="1953">Design Variations</tspan>
                </text>
                <text id="Symbols-are-supported-in-up-to-nine-weights-and-three-scales." fill="#000000" fill-rule="nonzero" font-family="Helvetica" font-size="13" font-weight="normal">
                    <tspan x="263" y="1971">Symbols are supported in up to nine weights and three scales.</tspan>
                </text>
                <text id="For-optimal-layout-with-text-and-other-symbols,-vertically-align" fill="#000000" fill-rule="nonzero" font-family="Helvetica" font-size="13" font-weight="normal">
                    <tspan x="263" y="1989">For optimal layout with text and other symbols, vertically align</tspan>
                </text>
                <text id="symbols-with-the-adjacent-text." fill="#000000" fill-rule="nonzero" font-family="Helvetica" font-size="13" font-weight="normal">
                    <tspan x="263" y="2007">symbols with the adjacent text.</tspan>
                </text>
                <line x1="776" y1="1919" x2="776" y2="1933" id="Path" stroke="#00AEEF" stroke-width="0.5"></line>
                <g id="Group" transform="translate(778.490230, 1918.712900)" fill="#000000" fill-rule="nonzero">
                    <path d="M0.82032,14.414053 C1.33789,14.414053 1.5918,14.2187406 1.77735,13.681631 L3.03711,10.2246 L8.79887,10.2246 L10.05857,13.681631 C10.24417,14.2187406 10.49807,14.414053 11.00587,14.414053 C11.52347,14.414053 11.85547,14.101553 11.85547,13.613272 C11.85547,13.447256 11.82617,13.300772 11.74807,13.08593 L7.16797,0.8984 C6.94336,0.293 6.54297,0 5.91797,0 C5.3125,0 4.90235,0.293 4.6875,0.8887 L0.10743,13.09569 C0.0293,13.310538 4.4408921e-16,13.457022 4.4408921e-16,13.623038 C4.4408921e-16,14.111319 0.3125,14.414053 0.82032,14.414053 Z M3.51563,8.74999 L5.88868,2.1777 L5.9375,2.1777 L8.31057,8.74999 L3.51563,8.74999 Z" id="Shape"></path>
                </g>
                <line x1="792.836" y1="1919" x2="792.836" y2="1933" id="Path" stroke="#00AEEF" stroke-width="0.5"></line>
                <text id="Margins" fill="#000000" fill-rule="nonzero" font-family="Helvetica-Bold, Helvetica" font-size="13" font-weight="bold">
                    <tspan x="776" y="1953">Margins</tspan>
                </text>
                <text id="Leading-and-trailing-margins-on-the-left-and-right-side-of-each-symbol" fill="#000000" fill-rule="nonzero" font-family="Helvetica" font-size="13" font-weight="normal">
                    <tspan x="776" y="1971">Leading and trailing margins on the left and right side of each symbol</tspan>
                </text>
                <text id="can-be-adjusted-by-modifying-the-x-location-of-the-margin-guidelines." fill="#000000" fill-rule="nonzero" font-family="Helvetica" font-size="13" font-weight="normal">
                    <tspan x="776" y="1989">can be adjusted by modifying the x-location of the margin guidelines.</tspan>
                </text>
                <text id="Modifications-are-automatically-applied-proportionally-to-all" fill="#000000" fill-rule="nonzero" font-family="Helvetica" font-size="13" font-weight="normal">
                    <tspan x="776" y="2007">Modifications are automatically applied proportionally to all</tspan>
                </text>
                <text id="scales-and-weights." fill="#000000" fill-rule="nonzero" font-family="Helvetica" font-size="13" font-weight="normal">
                    <tspan x="776" y="2025">scales and weights.</tspan>
                </text>
                <g id="Group" transform="translate(1291.248126, 1914.517396)" fill="#000000" fill-rule="nonzero">
                    <path d="M0.593673634,20.347834 L2.29289363,22.056824 C3.15226363,22.925964 4.13859363,22.867374 5.06632363,21.841984 L15.2420736,10.631044 C15.5057736,10.718934 15.7791736,10.699404 16.0916736,10.640804 L17.1561736,10.445494 L17.8202736,11.119324 L17.7811736,11.675964 C17.7420736,12.174014 17.8690736,12.554874 18.3573736,13.033384 L19.1190736,13.775574 C19.5975736,14.254084 20.2127736,14.283384 20.6815736,13.814634 L23.5916736,10.894714 C24.0604736,10.425964 24.0409736,9.83026404 23.5623736,9.35174404 L22.7909736,8.59002404 C22.3123736,8.11150404 21.9413736,7.95530404 21.4627736,7.99430404 L20.8866736,8.04310404 L20.2420736,7.40840404 L20.4862736,6.28530404 C20.6131736,5.71890404 20.4569736,5.27950404 19.8709736,4.69350404 L17.6737736,2.50600404 C14.3338736,-0.814295965 9.90027363,-0.736195965 7.00968363,2.15450404 C6.58976363,2.56460404 6.56046363,3.14080404 6.79484363,3.53140404 C7.02921363,3.89280404 7.48820363,4.12710404 8.13277363,3.96110404 C9.59757363,3.61930404 11.1209736,3.56070404 12.5467736,4.49820404 L11.9608736,5.95330404 C11.7655736,6.43180404 11.7362736,6.83220404 11.8631736,7.19350404 L0.798753634,17.584166 C-0.187576366,18.5021352 -0.265706366,19.478698 0.593673634,20.347834 Z M8.50387363,2.52560404 C10.9354736,0.748204035 14.2264736,1.05100404 16.4530736,3.27750404 L18.8846736,5.68960404 C19.1190736,5.92400404 19.1580736,6.10960404 19.0897736,6.45140404 L18.7674736,7.93570404 L20.2713736,9.42010404 L21.2577736,9.36151404 C21.5116736,9.35174404 21.5897736,9.37127404 21.7850736,9.56658404 L22.3612736,10.142764 L19.9198736,12.584164 L19.3436736,12.007994 C19.1483736,11.812684 19.1190736,11.734554 19.1288736,11.470884 L19.1971736,10.494324 L17.7030736,9.00994404 L16.1795736,9.26385404 C15.8573736,9.33221404 15.7108736,9.30291404 15.4666736,9.06854404 L13.4647736,7.06660404 C13.2108736,6.83220404 13.1815736,6.66620404 13.3377736,6.29510404 L14.2166736,4.20530404 C12.6541736,2.75020404 10.6229736,2.12520404 8.59167363,2.72090404 C8.43547363,2.75990404 8.37687363,2.63300404 8.50387363,2.52560404 Z M3.02531363,20.787304 L1.85343363,19.625184 C1.38468363,19.166198 1.49210363,18.824401 1.89249363,18.4630728 L12.7030736,8.28730404 L14.1678736,9.77166404 L4.17765363,20.757994 C3.82609363,21.158384 3.49406363,21.256044 3.02531363,20.787304 Z" id="Shape"></path>
                </g>
                <text id="Exporting" fill="#000000" fill-rule="nonzero" font-family="Helvetica-Bold, Helvetica" font-size="13" font-weight="bold">
                    <tspan x="1289" y="1953">Exporting</tspan>
                </text>
                <text id="Symbols-should-be-outlined-when-exporting-to-ensure-the" fill="#000000" fill-rule="nonzero" font-family="Helvetica" font-size="13" font-weight="normal">
                    <tspan x="1289" y="1971">Symbols should be outlined when exporting to ensure the</tspan>
                </text>
                <text id="design-is-preserved-when-submitting-to-Xcode." fill="#000000" fill-rule="nonzero" font-family="Helvetica" font-size="13" font-weight="normal">
                    <tspan x="1289" y="1989">design is preserved when submitting to Xcode.</tspan>
                </text>
                <text id="Template-v.2.0" fill="#000000" fill-rule="nonzero" font-family="Helvetica" font-size="13" font-weight="normal">
                    <tspan x="2952" y="1933">Template v.2.0</tspan>
                </text>
                <text id="Requires-Xcode-12-or-greater" fill="#000000" fill-rule="nonzero" font-family="Helvetica" font-size="13" font-weight="normal">
                    <tspan x="2865" y="1951">Requires Xcode 12 or greater</tspan>
                </text>
                <text id="Generated-from-person.crop.circle" fill="#000000" fill-rule="nonzero" font-family="Helvetica" font-size="13" font-weight="normal">
                    <tspan x="2838" y="1969">Generated from person.crop.circle</tspan>
                </text>
                <text id="Typeset-at-100-points" fill="#000000" fill-rule="nonzero" font-family="Helvetica" font-size="13" font-weight="normal">
                    <tspan x="2912" y="1987">Typeset at 100 points</tspan>
                </text>
                <text id="Small" fill="#000000" fill-rule="nonzero" font-family="Helvetica" font-size="13" font-weight="normal">
                    <tspan x="263" y="726">Small</tspan>
                </text>
                <text id="Medium" fill="#000000" fill-rule="nonzero" font-family="Helvetica" font-size="13" font-weight="normal">
                    <tspan x="263" y="1156">Medium</tspan>
                </text>
                <text id="Large" fill="#000000" fill-rule="nonzero" font-family="Helvetica" font-size="13" font-weight="normal">
                    <tspan x="263" y="1586">Large</tspan>
                </text>
            </g>
            <g id="Guides" transform="translate(263.000000, 625.041000)">
                <g id="H-reference" transform="translate(76.976562, 0.500000)" fill="#27AAE1" fill-rule="nonzero">
                    <path d="M-1.22124533e-15,70.459 L2.685548,70.459 L12.011738,45.9961 L44.775438,45.9961 L54.150438,70.459 L56.787138,70.459 L29.638638,0 L27.148438,0 L-1.22124533e-15,70.459 Z M28.369138,3.3203 L28.466838,3.3203 L43.896438,43.75 L12.890638,43.75 L28.369138,3.3203 Z" id="Shape"></path>
                </g>
                <line x1="0" y1="70.959" x2="2773" y2="70.959" id="Baseline-S" stroke="#27AAE1" stroke-width="0.5"></line>
                <line x1="0" y1="0.5" x2="2773" y2="0.5" id="Capline-S" stroke="#27AAE1" stroke-width="0.5"></line>
                <g id="H-reference" transform="translate(76.976562, 430.500000)" fill="#27AAE1" fill-rule="nonzero">
                    <path d="M-1.22124533e-15,70.459 L2.685548,70.459 L12.011738,45.9961 L44.775438,45.9961 L54.150438,70.459 L56.787138,70.459 L29.638638,0 L27.148438,0 L-1.22124533e-15,70.459 Z M28.369138,3.3203 L28.466838,3.3203 L43.896438,43.75 L12.890638,43.75 L28.369138,3.3203 Z" id="Shape"></path>
                </g>
                <line x1="0" y1="500.959" x2="2773" y2="500.959" id="Baseline-M" stroke="#27AAE1" stroke-width="0.5"></line>
                <line x1="0" y1="430.499" x2="2773" y2="430.499" id="Capline-M" stroke="#27AAE1" stroke-width="0.5"></line>
                <g id="H-reference" transform="translate(76.976562, 860.500000)" fill="#27AAE1" fill-rule="nonzero">
                    <path d="M-1.22124533e-15,70.459 L2.685548,70.459 L12.011738,45.9961 L44.775438,45.9961 L54.150438,70.459 L56.787138,70.459 L29.638638,0 L27.148438,0 L-1.22124533e-15,70.459 Z M28.369138,3.3203 L28.466838,3.3203 L43.896438,43.75 L12.890638,43.75 L28.369138,3.3203 Z" id="Shape"></path>
                </g>
                <line x1="0" y1="930.959" x2="2773" y2="930.959" id="Baseline-L" stroke="#27AAE1" stroke-width="0.5"></line>
                <line x1="0" y1="860.499" x2="2773" y2="860.499" id="Capline-L" stroke="#27AAE1" stroke-width="0.5"></line>
                <line x1="1128.3" y1="405.749" x2="1128.3" y2="525.079" id="left-margin" stroke="#00AEEF" stroke-width="0.5"></line>
                <line x1="1245.39" y1="405.749" x2="1245.39" y2="525.079" id="right-margin" stroke="#00AEEF" stroke-width="0.5"></line>
            </g>
            <g id="Symbols" transform="translate(1386.249300, 626.747857)" fill="#000000">
                <g id="Semibold-L" transform="translate(592.000000, 838.252143)">
                    <path d="M46.9704672,0 C48.6126624,0 50.1875976,0.652359522 51.348805,1.81356692 L57.0095283,7.47429023 C58.1707357,8.63549762 59.7456709,9.28785714 61.3878662,9.28785714 L105.262381,9.28785714 C112.10177,9.28785714 117.64619,14.8322775 117.64619,21.6716667 L117.646,34.055 L120.742143,34.0554762 C125.871685,34.0554762 130.03,38.2137915 130.03,43.3433333 L130.03,99.0704762 C130.03,104.200018 125.871685,108.358333 120.742143,108.358333 L34.0554762,108.358333 C28.9259343,108.358333 24.767619,104.200018 24.767619,99.0704762 L24.767,95.974 L12.3838095,95.9745238 C5.54442038,95.9745238 0,90.4301034 0,83.5907143 L0,6.19190476 C0,2.77221019 2.77221019,0 6.19190476,0 L46.9704672,0 Z M103.988202,19.8498936 L13.6579888,19.8498936 C12.1381246,19.8498936 10.8740566,20.9450878 10.6119164,22.3893446 L10.5620365,22.945846 L10.5620365,82.316535 C10.5620365,83.8363992 11.6572306,85.1004672 13.1014875,85.3626074 L13.6579888,85.4124873 L103.988202,85.4124873 C105.508066,85.4124873 106.772134,84.3172932 107.034274,82.8730363 L107.084154,82.316535 L107.084154,22.945846 C107.084154,21.4259817 105.98896,20.1619138 104.544703,19.8997735 L103.988202,19.8498936 Z" id="Combined-Shape"></path>
                </g>
                <g id="Regular-L" transform="translate(0.000000, 838.849557)">
                    <path d="M45.9481921,0 C47.5546463,0 49.0953043,0.638161433 50.2312389,1.77409607 L55.7687611,7.31161822 C56.9046957,8.44755285 58.4453537,9.08571429 60.0518079,9.08571429 L102.971429,9.08571429 C109.661964,9.08571429 115.085714,14.5094647 115.085714,21.2 L115.085,33.314 L118.114286,33.3142857 C123.132187,33.3142857 127.2,37.3820986 127.2,42.4 L127.2,96.9142857 C127.2,101.932187 123.132187,106 118.114286,106 L33.3142857,106 C28.2963843,106 24.2285714,101.932187 24.2285714,96.9142857 L24.228,93.885 L12.1142857,93.8857143 C5.42375046,93.8857143 0,88.4619638 0,81.7714286 L0,6.05714286 C0,2.71187523 2.71187523,0 6.05714286,0 L45.9481921,0 Z M102.971429,18.1714286 L12.1142857,18.1714286 C10.6275001,18.1714286 9.39094359,19.2427867 9.13450863,20.6556105 L9.08571429,21.2 L9.08571429,81.7714286 C9.08571429,83.2582142 10.1570724,84.4947707 11.5698962,84.7512057 L12.1142857,84.8 L102.971429,84.8 C104.458214,84.8 105.694771,83.7286419 105.951206,82.3158181 L106,81.7714286 L106,21.2 C106,19.7132144 104.928642,18.4766579 103.515818,18.2202229 L102.971429,18.1714286 Z"></path>
                </g>
                <g id="Semibold-M" transform="translate(606.000000, 420.541429)">
                    <path d="M36.8633098,0 C38.1521357,0 39.3881746,0.511984074 40.299512,1.42332157 L44.7421546,5.86596414 C45.6534921,6.77730164 46.889531,7.28928571 48.1783569,7.28928571 L82.6119048,7.28928571 C87.9795865,7.28928571 92.3309524,11.6406516 92.3309524,17.0083333 L92.33,26.727 L94.7607143,26.727381 C98.7864756,26.727381 102.05,29.9909053 102.05,34.0166667 L102.05,77.752381 C102.05,81.7781423 98.7864756,85.0416667 94.7607143,85.0416667 L26.727381,85.0416667 C22.7016196,85.0416667 19.4380952,81.7781423 19.4380952,77.752381 L19.438,75.322 L9.71904762,75.322619 C4.35136584,75.322619 0,70.9712532 0,65.6035714 L0,4.85952381 C0,2.17568292 2.17568292,0 4.85952381,0 L36.8633098,0 Z M81.6119048,15.5785714 L10.7190476,15.5785714 C9.52622945,15.5785714 8.53416504,16.4381005 8.32843243,17.5715806 L8.28928571,18.0083333 L8.28928571,64.6035714 C8.28928571,65.7963896 9.14881477,66.788454 10.2822948,66.9941866 L10.7190476,67.0333333 L81.6119048,67.0333333 C82.8047229,67.0333333 83.7967873,66.1738043 84.0025199,65.0403242 L84.0416667,64.6035714 L84.0416667,18.0083333 C84.0416667,16.8155152 83.1821376,15.8234508 82.0486575,15.6177181 L81.6119048,15.5785714 Z"></path>
                </g>
                <g id="Regular-M" transform="translate(14.000000, 421.252143)">
                    <path d="M35.9819137,0 C37.2399239,0 38.4464093,0.499742613 39.3359568,1.38929017 L43.6723765,5.72570983 C44.5619241,6.61525739 45.7684094,7.115 47.0264197,7.115 L80.6366667,7.115 C85.876008,7.115 90.1233333,11.3623253 90.1233333,16.6016667 L90.123,26.088 L92.495,26.0883333 C96.424506,26.0883333 99.61,29.2738273 99.61,33.2033333 L99.61,75.8933333 C99.61,79.8228393 96.424506,83.0083333 92.495,83.0083333 L26.0883333,83.0083333 C22.1588273,83.0083333 18.9733333,79.8228393 18.9733333,75.8933333 L18.973,73.521 L9.48666667,73.5216667 C4.24732534,73.5216667 0,69.2743413 0,64.035 L0,4.74333333 C0,2.12366267 2.12366267,0 4.74333333,0 L35.9819137,0 Z M80.6366667,14.23 L9.48666667,14.23 C8.32236859,14.23 7.3540243,15.0689778 7.15321073,16.1753566 L7.115,16.6016667 L7.115,64.035 C7.115,65.1992981 7.95397784,66.1676424 9.06035658,66.3684559 L9.48666667,66.4066667 L80.6366667,66.4066667 C81.8009647,66.4066667 82.769309,65.5676888 82.9701226,64.4613101 L83.0083333,64.035 L83.0083333,16.6016667 C83.0083333,15.4373686 82.1693555,14.4690243 81.0629767,14.2682107 L80.6366667,14.23 Z" id="regular"></path>
                </g>
                <g id="Semibold-S" transform="translate(617.000000, -0.000000)">
                    <path d="M29.0680112,0 C30.0842955,0 31.0589555,0.403717378 31.777577,1.12233892 L35.2807563,4.62551822 C35.9993779,5.34413976 36.9740378,5.74785714 37.9903222,5.74785714 L65.142381,5.74785714 C69.3749861,5.74785714 72.8061905,9.17906154 72.8061905,13.4116667 L72.806,21.075 L74.7221429,21.0754762 C77.8965967,21.0754762 80.47,23.6488795 80.47,26.8233333 L80.47,61.3104762 C80.47,64.48493 77.8965967,67.0583333 74.7221429,67.0583333 L21.0754762,67.0583333 C17.9010223,67.0583333 15.327619,64.48493 15.327619,61.3104762 L15.327,59.394 L7.66380952,59.3945238 C3.4312044,59.3945238 0,55.9633194 0,51.7307143 L0,3.83190476 C0,1.7156022 1.7156022,0 3.83190476,0 L29.0680112,0 Z M64.3538459,12.2842493 L8.45234456,12.2842493 C7.51176564,12.2842493 6.7294881,12.9620181 6.56726073,13.8558068 L6.53639217,14.2002017 L6.53639217,50.9421793 C6.53639217,51.8827582 7.21416094,52.6650357 8.10794969,52.8272631 L8.45234456,52.8581316 L64.3538459,52.8581316 C65.2944248,52.8581316 66.0767024,52.1803629 66.2389297,51.2865741 L66.2697983,50.9421793 L66.2697983,14.2002017 C66.2697983,13.2596228 65.5920295,12.4773452 64.6982408,12.3151179 L64.3538459,12.2842493 Z"></path>
                </g>
                <g id="Regular-S" transform="translate(24.000000, 0.396700)">
                    <path d="M28.4864342,0 C29.4823853,0 30.4375448,0.395640021 31.1417885,1.09988377 L34.5748781,4.53297337 C35.2791219,5.23721712 36.2342814,5.63285714 37.2302325,5.63285714 L63.8390476,5.63285714 C67.9869691,5.63285714 71.3495238,8.99541187 71.3495238,13.1433333 L71.349,20.653 L73.2271429,20.6538095 C76.338084,20.6538095 78.86,23.1757256 78.86,26.2866667 L78.86,60.0838095 C78.86,63.1947506 76.338084,65.7166667 73.2271429,65.7166667 L20.6538095,65.7166667 C17.5428684,65.7166667 15.0209524,63.1947506 15.0209524,60.0838095 L15.02,58.206 L7.51047619,58.2061905 C3.36255473,58.2061905 0,54.8436357 0,50.6957143 L0,3.7552381 C0,1.68127736 1.68127736,0 3.7552381,0 L28.4864342,0 Z M63.8390476,11.2657143 L7.51047619,11.2657143 C6.58871587,11.2657143 5.82208971,11.9299226 5.6631081,12.8058289 L5.63285714,13.1433333 L5.63285714,50.6957143 C5.63285714,51.6174746 6.29706548,52.3841008 7.17297179,52.5430824 L7.51047619,52.5733333 L63.8390476,52.5733333 C64.7608079,52.5733333 65.5274341,51.909125 65.6864157,51.0332187 L65.7166667,50.6957143 L65.7166667,13.1433333 C65.7166667,12.221573 65.0524583,11.4549469 64.176552,11.2959652 L63.8390476,11.2657143 Z"></path>
                </g>
            </g>
        </g>
    </g>
</svg>