<svg width="16" height="16" viewBox="0 0 16 16" fill="none" xmlns="http://www.w3.org/2000/svg">
<path d="M7.99963 0.999634C11.8655 0.999634 14.9994 4.13382 14.9996 7.99963C14.9996 10.5482 13.637 12.7774 11.6012 14.0016L11.0865 13.1442C12.8315 12.0948 13.9996 10.1841 13.9996 7.99963C13.9994 4.6861 11.3132 1.99963 7.99963 1.99963C4.68625 1.99986 1.99984 4.68624 1.99963 7.99963C1.99963 11.3132 4.68612 13.9994 7.99963 13.9996C8.40241 13.9996 8.79585 13.9581 9.17639 13.8824L9.37268 14.8629C8.92865 14.9512 8.46961 14.9996 7.99963 14.9996C4.13381 14.9994 0.999634 11.8655 0.999634 7.99963C0.999845 4.13394 4.13394 0.999832 7.99963 0.999634Z" fill="#F3F4F4"/>
</svg>
