<svg width="16" height="16" viewBox="0 0 16 16" fill="none" xmlns="http://www.w3.org/2000/svg">
<path d="M7.99953 6.00014C8.27567 6.00014 8.49953 6.22399 8.49953 6.50014V9.00014C8.49953 9.27628 8.27567 9.50014 7.99953 9.50014C7.72338 9.50014 7.49953 9.27628 7.49953 9.00014V6.50014C7.49953 6.22399 7.72338 6.00014 7.99953 6.00014Z" fill="#F7A308"/>
<path d="M7.99953 11.0001C7.72338 11.0001 7.49953 11.224 7.49953 11.5001C7.49953 11.7763 7.72338 12.0001 7.99953 12.0001H8.00619C8.28234 12.0001 8.50619 11.7763 8.50619 11.5001C8.50619 11.224 8.28234 11.0001 8.00619 11.0001H7.99953Z" fill="#F7A308"/>
<path fill-rule="evenodd" clip-rule="evenodd" d="M7.1001 1.66743C7.37466 1.51285 7.68444 1.43164 7.99953 1.43164C8.31462 1.43164 8.62439 1.51285 8.89896 1.66743C9.17352 1.82202 9.40361 2.04475 9.56703 2.31416L9.56847 2.31653L15.2192 11.7501C15.3793 12.0273 15.464 12.3416 15.4649 12.6617C15.4658 12.9819 15.3828 13.2966 15.2243 13.5748C15.0658 13.8529 14.8372 14.0846 14.5613 14.247C14.2854 14.4093 13.9718 14.4966 13.6517 14.5001L13.6462 14.5002L2.34736 14.5001C2.02726 14.4966 1.71366 14.4093 1.43776 14.247C1.16186 14.0846 0.933279 13.8529 0.774755 13.5748C0.61623 13.2966 0.533291 12.9819 0.534187 12.6617C0.535083 12.3416 0.619785 12.0273 0.779864 11.7501L0.78387 11.7432L6.43059 2.31653L6.85953 2.57347L6.43203 2.31416C6.59544 2.04475 6.82553 1.82202 7.1001 1.66743ZM7.28767 2.83172L7.28703 2.83278L1.64409 12.2532C1.57247 12.3785 1.53459 12.5202 1.53418 12.6645C1.53378 12.8101 1.57148 12.9531 1.64353 13.0796C1.71559 13.206 1.81949 13.3113 1.9449 13.3851C2.06961 13.4585 2.21126 13.4981 2.35591 13.5001H13.6431C13.7878 13.4981 13.9294 13.4585 14.0542 13.3851C14.1796 13.3113 14.2835 13.206 14.3555 13.0796C14.4276 12.9531 14.4653 12.8101 14.4649 12.6645C14.4645 12.5202 14.4266 12.3785 14.355 12.2532L8.71203 2.83278L8.71138 2.83172C8.63714 2.70974 8.5328 2.60888 8.40836 2.53882C8.28355 2.46855 8.14275 2.43164 7.99953 2.43164C7.8563 2.43164 7.7155 2.46855 7.59069 2.53882C7.46625 2.60888 7.36191 2.70974 7.28767 2.83172Z" fill="#F7A308"/>
</svg>
