<svg width="14" height="14" viewBox="0 0 14 14" fill="none" xmlns="http://www.w3.org/2000/svg">
<path fill-rule="evenodd" clip-rule="evenodd" d="M14 7C14 10.866 10.866 14 7 14C3.13401 14 0 10.866 0 7C0 3.13401 3.13401 0 7 0C10.866 0 14 3.13401 14 7ZM9.14645 4.14645C9.34171 3.95118 9.65829 3.95118 9.85355 4.14645L11.3536 5.64645C11.5488 5.84171 11.5488 6.15829 11.3536 6.35355C11.1583 6.54882 10.8417 6.54882 10.6464 6.35355L10 5.70711V9.5C10 9.77614 9.77614 10 9.5 10C9.22386 10 9 9.77614 9 9.5V5.70711L8.35355 6.35355C8.15829 6.54882 7.84171 6.54882 7.64645 6.35355C7.45118 6.15829 7.45118 5.84171 7.64645 5.64645L9.14645 4.14645ZM4.5 4C4.77614 4 5 4.22386 5 4.5V8.29289L5.64645 7.64645C5.84171 7.45118 6.15829 7.45118 6.35355 7.64645C6.54882 7.84171 6.54882 8.15829 6.35355 8.35355L4.85355 9.85355C4.65829 10.0488 4.34171 10.0488 4.14645 9.85355L2.64645 8.35355C2.45118 8.15829 2.45118 7.84171 2.64645 7.64645C2.84171 7.45118 3.15829 7.45118 3.35355 7.64645L4 8.29289V4.5C4 4.22386 4.22386 4 4.5 4Z" fill="#F3F4F4"/>
</svg>
