<svg width="16" height="16" viewBox="0 0 16 16" fill="none" xmlns="http://www.w3.org/2000/svg">
<path fill-rule="evenodd" clip-rule="evenodd" d="M15 8C15 11.866 11.866 15 8 15C4.13401 15 1 11.866 1 8C1 4.13401 4.13401 1 8 1C11.866 1 15 4.13401 15 8ZM10.1464 5.14645C10.3417 4.95118 10.6583 4.95118 10.8536 5.14645L12.3536 6.64645C12.5488 6.84171 12.5488 7.15829 12.3536 7.35355C12.1583 7.54882 11.8417 7.54882 11.6464 7.35355L11 6.70711V10.5C11 10.7761 10.7761 11 10.5 11C10.2239 11 10 10.7761 10 10.5V6.70711L9.35355 7.35355C9.15829 7.54882 8.84171 7.54882 8.64645 7.35355C8.45118 7.15829 8.45118 6.84171 8.64645 6.64645L10.1464 5.14645ZM5.5 5C5.77614 5 6 5.22386 6 5.5V9.29289L6.64645 8.64645C6.84171 8.45118 7.15829 8.45118 7.35355 8.64645C7.54882 8.84171 7.54882 9.15829 7.35355 9.35355L5.85355 10.8536C5.65829 11.0488 5.34171 11.0488 5.14645 10.8536L3.64645 9.35355C3.45118 9.15829 3.45118 8.84171 3.64645 8.64645C3.84171 8.45118 4.15829 8.45118 4.35355 8.64645L5 9.29289V5.5C5 5.22386 5.22386 5 5.5 5Z" fill="#F3F4F4"/>
</svg>
