<svg width="16" height="16" viewBox="0 0 16 16" fill="none" xmlns="http://www.w3.org/2000/svg">
<path d="M5.5 5C5.77614 5 6 5.22386 6 5.5V9.29289L6.64645 8.64645C6.84171 8.45118 7.15829 8.45118 7.35355 8.64645C7.54882 8.84171 7.54882 9.15829 7.35355 9.35355L5.85355 10.8536C5.80562 10.9015 5.75036 10.9377 5.69139 10.9621C5.63331 10.9861 5.5697 10.9996 5.503 11L5.5 11L5.497 11C5.4303 10.9996 5.36669 10.9861 5.30861 10.9621C5.24964 10.9377 5.19439 10.9015 5.14645 10.8536L3.64645 9.35355C3.45118 9.15829 3.45118 8.84171 3.64645 8.64645C3.84171 8.45118 4.15829 8.45118 4.35355 8.64645L5 9.29289V5.5C5 5.22386 5.22386 5 5.5 5Z" fill="#A9ABAD"/>
<path d="M10 10.5V6.70711L9.35355 7.35355C9.15829 7.54882 8.84171 7.54882 8.64645 7.35355C8.45118 7.15829 8.45118 6.84171 8.64645 6.64645L10.1464 5.14645C10.1944 5.09851 10.2496 5.06234 10.3086 5.03794C10.3676 5.01349 10.4322 5 10.5 5C10.5678 5 10.6324 5.01349 10.6914 5.03794C10.7504 5.06234 10.8056 5.09851 10.8536 5.14645L12.3536 6.64645C12.5488 6.84171 12.5488 7.15829 12.3536 7.35355C12.1583 7.54882 11.8417 7.54882 11.6464 7.35355L11 6.70711V10.5C11 10.7761 10.7761 11 10.5 11C10.2239 11 10 10.7761 10 10.5Z" fill="#A9ABAD"/>
<path fill-rule="evenodd" clip-rule="evenodd" d="M8 1C4.13401 1 1 4.13401 1 8C1 11.866 4.13401 15 8 15C11.866 15 15 11.866 15 8C15 4.13401 11.866 1 8 1ZM2 8C2 4.68629 4.68629 2 8 2C11.3137 2 14 4.68629 14 8C14 11.3137 11.3137 14 8 14C4.68629 14 2 11.3137 2 8Z" fill="#A9ABAD"/>
</svg>
