<svg width="16" height="16" viewBox="0 0 16 16" fill="none" xmlns="http://www.w3.org/2000/svg">
<path d="M7.5 3C7.22386 3 7 3.22386 7 3.5C7 3.77614 7.22386 4 7.5 4H8.5C8.77614 4 9 3.77614 9 3.5C9 3.22386 8.77614 3 8.5 3H7.5Z" fill="#A9ABAD"/>
<path d="M7.5 5C7.22386 5 7 5.22386 7 5.5C7 5.77614 7.22386 6 7.5 6H8.5C8.77614 6 9 5.77614 9 5.5C9 5.22386 8.77614 5 8.5 5H7.5Z" fill="#A9ABAD"/>
<path d="M7.5 7C7.22386 7 7 7.22386 7 7.5C7 7.77614 7.22386 8 7.5 8H8.5C8.77614 8 9 7.77614 9 7.5C9 7.22386 8.77614 7 8.5 7H7.5Z" fill="#A9ABAD"/>
<path d="M7.5 9C7.22386 9 7 9.22386 7 9.5C7 10.0523 7.44772 10.5 8 10.5C8.55228 10.5 9 10.0523 9 9.5C9 9.22386 8.77614 9 8.5 9H7.5Z" fill="#A9ABAD"/>
<path fill-rule="evenodd" clip-rule="evenodd" d="M10.2215 1H5.77853C5.21919 0.999995 4.769 0.999992 4.40464 1.02976C4.02979 1.06039 3.70198 1.125 3.39915 1.2793C2.91698 1.52497 2.52497 1.91698 2.2793 2.39915C2.125 2.70198 2.06039 3.02979 2.02976 3.40464C1.99999 3.769 2 4.21919 2 4.77853V11.2215C2 11.7808 1.99999 12.231 2.02976 12.5954C2.06039 12.9702 2.125 13.298 2.2793 13.6009C2.52497 14.083 2.91698 14.475 3.39915 14.7207C3.70198 14.875 4.02979 14.9396 4.40464 14.9702C4.76899 15 5.21918 15 5.77851 15H10.2215C10.7808 15 11.231 15 11.5954 14.9702C11.9702 14.9396 12.298 14.875 12.6009 14.7207C13.083 14.475 13.475 14.083 13.7207 13.6009C13.875 13.298 13.9396 12.9702 13.9702 12.5954C14 12.231 14 11.7808 14 11.2215V4.77851C14 4.21918 14 3.76899 13.9702 3.40464C13.9396 3.02979 13.875 2.70198 13.7207 2.39915C13.475 1.91698 13.083 1.52497 12.6009 1.2793C12.298 1.125 11.9702 1.06039 11.5954 1.02976C11.231 0.999992 10.7808 0.999995 10.2215 1ZM3.85314 2.1703C3.9915 2.0998 4.17306 2.05201 4.48607 2.02644C4.80491 2.00039 5.2142 2 5.8 2H10.2C10.7858 2 11.1951 2.00039 11.5139 2.02644C11.8269 2.05201 12.0085 2.0998 12.1469 2.1703C12.4409 2.3201 12.6799 2.55914 12.8297 2.85314C12.9002 2.9915 12.948 3.17306 12.9736 3.48607C12.9996 3.80491 13 4.2142 13 4.8V11.2C13 11.7858 12.9996 12.1951 12.9736 12.5139C12.948 12.8269 12.9002 13.0085 12.8297 13.1469C12.6799 13.4409 12.4409 13.6799 12.1469 13.8297C12.0085 13.9002 11.8269 13.948 11.5139 13.9736C11.1951 13.9996 10.7858 14 10.2 14H5.8C5.2142 14 4.80491 13.9996 4.48607 13.9736C4.17306 13.948 3.9915 13.9002 3.85314 13.8297C3.55914 13.6799 3.3201 13.4409 3.1703 13.1469C3.0998 13.0085 3.05201 12.8269 3.02644 12.5139C3.00039 12.1951 3 11.7858 3 11.2V4.8C3 4.2142 3.00039 3.80491 3.02644 3.48607C3.05201 3.17306 3.0998 2.9915 3.1703 2.85314C3.3201 2.55914 3.55914 2.3201 3.85314 2.1703Z" fill="#A9ABAD"/>
</svg>
