<svg width="16" height="16" viewBox="0 0 16 16" fill="none" xmlns="http://www.w3.org/2000/svg">
<path fill-rule="evenodd" clip-rule="evenodd" d="M10.2217 1C10.7809 0.999996 11.2314 0.999532 11.5957 1.0293C11.9703 1.05993 12.2979 1.12512 12.6006 1.2793C13.0828 1.52497 13.475 1.91725 13.7207 2.39941C13.8749 2.70211 13.9401 3.02966 13.9707 3.4043C14.0005 3.76861 14 4.21908 14 4.77832V11.2217C14 11.7809 14.0005 12.2314 13.9707 12.5957C13.9401 12.9703 13.8749 13.2979 13.7207 13.6006C13.475 14.0828 13.0828 14.475 12.6006 14.7207C12.2979 14.8749 11.9703 14.9401 11.5957 14.9707C11.2314 15.0005 10.7809 15 10.2217 15H5.77832C5.21908 15 4.76861 15.0005 4.4043 14.9707C4.02966 14.9401 3.70211 14.8749 3.39941 14.7207C2.91725 14.475 2.52497 14.0828 2.2793 13.6006C2.12512 13.2979 2.05993 12.9703 2.0293 12.5957C1.99953 12.2314 2 11.7809 2 11.2217V4.77832C2 4.21908 1.99953 3.76861 2.0293 3.4043C2.05993 3.02966 2.12512 2.70211 2.2793 2.39941C2.52497 1.91725 2.91725 1.52497 3.39941 1.2793C3.70211 1.12512 4.02966 1.05993 4.4043 1.0293C4.76861 0.999532 5.21908 0.999996 5.77832 1H10.2217ZM7.5 9C7.22386 9 7 9.22386 7 9.5C7 10.0523 7.44772 10.5 8 10.5C8.55229 10.5 9 10.0523 9 9.5C9 9.22386 8.77614 9 8.5 9H7.5ZM7.5 7C7.22386 7 7 7.22386 7 7.5C7 7.77614 7.22386 8 7.5 8H8.5C8.77614 8 9 7.77614 9 7.5C9 7.22386 8.77614 7 8.5 7H7.5ZM7.5 5C7.22386 5 7 5.22386 7 5.5C7 5.77614 7.22386 6 7.5 6H8.5C8.77614 6 9 5.77614 9 5.5C9 5.22386 8.77614 5 8.5 5H7.5ZM7.5 3C7.22386 3 7 3.22386 7 3.5C7 3.77614 7.22386 4 7.5 4H8.5C8.77614 4 9 3.77614 9 3.5C9 3.22386 8.77614 3 8.5 3H7.5Z" fill="#F3F4F4"/>
</svg>
