<svg width="24" height="24" viewBox="0 0 24 24" fill="none" xmlns="http://www.w3.org/2000/svg">
<path fill-rule="evenodd" clip-rule="evenodd" d="M22.75 12C22.75 17.9371 17.9371 22.75 12 22.75C6.06294 22.75 1.25 17.9371 1.25 12C1.25 6.06294 6.06294 1.25 12 1.25C17.9371 1.25 22.75 6.06294 22.75 12ZM8 7.25C8.41421 7.25 8.75 7.58579 8.75 8V14.1893L10.4697 12.4697C10.7626 12.1768 11.2374 12.1768 11.5303 12.4697C11.8232 12.7626 11.8232 13.2374 11.5303 13.5303L8.53033 16.5303C8.38388 16.6768 8.19194 16.75 8 16.75C7.89831 16.75 7.80134 16.7298 7.71291 16.6931C7.62445 16.6565 7.54158 16.6022 7.46967 16.5303L4.46967 13.5303C4.17678 13.2374 4.17678 12.7626 4.46967 12.4697C4.76256 12.1768 5.23744 12.1768 5.53033 12.4697L7.25 14.1893V8C7.25 7.58579 7.58579 7.25 8 7.25ZM16.5303 7.46967C16.4584 7.39776 16.3755 7.34351 16.2871 7.30691C16.1987 7.27024 16.1017 7.25 16 7.25C15.8081 7.25 15.6161 7.32322 15.4697 7.46967L12.4697 10.4697C12.1768 10.7626 12.1768 11.2374 12.4697 11.5303C12.7626 11.8232 13.2374 11.8232 13.5303 11.5303L15.25 9.81066V16C15.25 16.4142 15.5858 16.75 16 16.75C16.4142 16.75 16.75 16.4142 16.75 16V9.81066L18.4697 11.5303C18.7626 11.8232 19.2374 11.8232 19.5303 11.5303C19.8232 11.2374 19.8232 10.7626 19.5303 10.4697L16.5303 7.46967Z" fill="#F3F4F4"/>
</svg>
