<svg width="16" height="16" viewBox="0 0 16 16" fill="none" xmlns="http://www.w3.org/2000/svg">
<path fill-rule="evenodd" clip-rule="evenodd" d="M10.1553 4.60254C10.2823 4.59252 10.4378 4.59261 10.5986 4.65234C10.7901 4.72353 10.9543 4.85209 11.0703 5.01856L11.1172 5.09277L11.1709 5.2041C11.2149 5.31591 11.232 5.42619 11.2402 5.52149C11.2508 5.64366 11.25 5.79098 11.25 5.94434V9.5C11.2499 10.3284 10.5784 11 9.75 11C8.92161 11 8.25006 10.3284 8.25 9.5C8.25004 8.67161 8.9216 8 9.75 8C9.92549 8 10.0935 8.03153 10.25 8.08692V5.94434C10.25 5.77315 10.2491 5.67646 10.2432 5.60742C10.2429 5.60435 10.2415 5.60136 10.2412 5.59863C10.239 5.59878 10.2368 5.59942 10.2344 5.59961C10.1653 5.60506 10.0694 5.62027 9.90039 5.64844L7.50098 6.04883C7.37521 6.06979 7.30765 6.08106 7.25977 6.09277L7.25391 6.09375V6.09863C7.2502 6.14781 7.25 6.21698 7.25 6.34473V10C7.24994 10.8284 6.57839 11.5 5.75 11.5C4.92161 11.5 4.25006 10.8284 4.25 10C4.25004 9.17161 4.9216 8.5 5.75 8.5C5.92549 8.5 6.09348 8.53153 6.25 8.58692V6.34473C6.25 6.23194 6.24962 6.11899 6.25684 6.02344C6.26455 5.92165 6.28307 5.80292 6.33789 5.68067C6.4151 5.50876 6.53939 5.3622 6.69629 5.25781C6.80796 5.18357 6.92229 5.14642 7.02149 5.12207C7.11441 5.09929 7.2249 5.08101 7.33594 5.0625L9.73633 4.66211C9.88776 4.63687 10.0329 4.6122 10.1553 4.60254ZM5.75 9.5C5.47389 9.5 5.25004 9.7239 5.25 10C5.25006 10.2761 5.47389 10.5 5.75 10.5C6.02611 10.5 6.24994 10.2761 6.25 10C6.24996 9.7239 6.02612 9.5 5.75 9.5ZM9.75 9C9.47389 9 9.25004 9.2239 9.25 9.5C9.25006 9.77609 9.47389 10 9.75 10C10.0261 10 10.2499 9.7761 10.25 9.5C10.25 9.2239 10.0261 9 9.75 9Z" fill="#A9ABAD"/>
<path fill-rule="evenodd" clip-rule="evenodd" d="M10.2217 1C10.7809 0.999996 11.2314 0.999532 11.5957 1.0293C11.9703 1.05993 12.2979 1.12512 12.6006 1.2793C13.0828 1.52497 13.475 1.91725 13.7207 2.39941C13.8749 2.70211 13.9401 3.02966 13.9707 3.4043C14.0005 3.76861 14 4.21908 14 4.77832V11.2217C14 11.7809 14.0005 12.2314 13.9707 12.5957C13.9401 12.9703 13.8749 13.2979 13.7207 13.6006C13.475 14.0828 13.0828 14.475 12.6006 14.7207C12.2979 14.8749 11.9703 14.9401 11.5957 14.9707C11.2314 15.0005 10.7809 15 10.2217 15H5.77832C5.21908 15 4.76861 15.0005 4.4043 14.9707C4.02966 14.9401 3.70211 14.8749 3.39941 14.7207C2.91725 14.475 2.52497 14.0828 2.2793 13.6006C2.12512 13.2979 2.05993 12.9703 2.0293 12.5957C1.99953 12.2314 2 11.7809 2 11.2217V4.77832C2 4.21908 1.99953 3.76861 2.0293 3.4043C2.05993 3.02966 2.12512 2.70211 2.2793 2.39941C2.52497 1.91725 2.91725 1.52497 3.39941 1.2793C3.70211 1.12512 4.02966 1.05993 4.4043 1.0293C4.76861 0.999532 5.21908 0.999996 5.77832 1H10.2217ZM5.79981 2C5.21427 2 4.8051 2.00034 4.48633 2.02637C4.17366 2.05191 3.99182 2.09955 3.85352 2.16992C3.55951 2.31972 3.31972 2.55951 3.16992 2.85352C3.09955 2.99182 3.05191 3.17366 3.02637 3.48633C3.00034 3.8051 3 4.21427 3 4.79981V11.2002C3 11.7857 3.00034 12.1949 3.02637 12.5137C3.05191 12.8263 3.09955 13.0082 3.16992 13.1465C3.31973 13.4405 3.55951 13.6803 3.85352 13.8301C3.99182 13.9005 4.17366 13.9481 4.48633 13.9736C4.8051 13.9997 5.21427 14 5.79981 14H10.2002C10.7857 14 11.1949 13.9997 11.5137 13.9736C11.8263 13.9481 12.0082 13.9005 12.1465 13.8301C12.4405 13.6803 12.6803 13.4405 12.8301 13.1465C12.9005 13.0082 12.9481 12.8263 12.9736 12.5137C12.9997 12.1949 13 11.7857 13 11.2002V4.79981C13 4.21427 12.9997 3.8051 12.9736 3.48633C12.9481 3.17366 12.9005 2.99182 12.8301 2.85352C12.6803 2.55951 12.4405 2.31972 12.1465 2.16992C12.0082 2.09955 11.8263 2.05191 11.5137 2.02637C11.1949 2.00034 10.7857 2 10.2002 2H5.79981Z" fill="#A9ABAD"/>
</svg>
