<svg width="16" height="16" viewBox="0 0 16 16" fill="none" xmlns="http://www.w3.org/2000/svg">
<path d="M12.9286 2.70036C12.7638 2.71337 12.5484 2.74882 12.2192 2.8037L7.41916 3.6037C7.17425 3.64451 7.01791 3.67091 6.89949 3.69997C6.78717 3.72753 6.74511 3.74949 6.72313 3.76411C6.64458 3.81634 6.58241 3.88973 6.5438 3.9758C6.533 3.99988 6.51825 4.04498 6.50953 4.1603C6.50033 4.28188 6.5 4.44044 6.5 4.68873L6.5 12.0011C6.49941 13.3813 5.38035 14.5 4 14.5C2.61929 14.5 1.5 13.3807 1.5 12C1.5 10.6193 2.61929 9.5 4 9.5C4.5628 9.5 5.08217 9.68597 5.5 9.99982L5.5 4.67139C5.49999 4.44543 5.49999 4.24871 5.51237 4.08488C5.52555 3.91062 5.5546 3.73769 5.63141 3.56649C5.74724 3.30829 5.93375 3.08812 6.1694 2.93141C6.32564 2.82751 6.49144 2.77043 6.66117 2.72878C6.82073 2.68963 7.01477 2.65729 7.23766 2.62015L12.0756 1.81383C12.3783 1.76337 12.6367 1.72029 12.8499 1.70346C13.0727 1.68588 13.299 1.69137 13.5223 1.77431C13.8511 1.89643 14.1266 2.12989 14.3011 2.43411C14.4197 2.64074 14.4623 2.86304 14.4816 3.08566C14.5 3.29873 14.5 3.56071 14.5 3.86759V11C14.5 11.0004 14.5 11.0007 14.5 11.0011C14.4994 12.3813 13.3803 13.5 12 13.5C10.6193 13.5 9.5 12.3807 9.5 11C9.5 9.61929 10.6193 8.5 12 8.5C12.5628 8.5 13.0822 8.68597 13.5 8.99982V3.88873C13.5 3.55492 13.4996 3.33668 13.4853 3.17194C13.4714 3.01187 13.4478 2.95616 13.4337 2.93167C13.3755 2.83026 13.2837 2.75244 13.1741 2.71174C13.1476 2.70191 13.0888 2.68772 12.9286 2.70036Z" fill="#F3F4F4"/>
</svg>
