<svg width="16" height="16" viewBox="0 0 16 16" fill="none" xmlns="http://www.w3.org/2000/svg">
<path d="M5.75 9.5C6.02612 9.5 6.24996 9.7239 6.25 10C6.24994 10.2761 6.02611 10.5 5.75 10.5C5.47389 10.5 5.25006 10.2761 5.25 10C5.25004 9.7239 5.47389 9.5 5.75 9.5Z" fill="#F3F4F4"/>
<path d="M9.75 9C10.0261 9 10.25 9.2239 10.25 9.5C10.2499 9.7761 10.0261 10 9.75 10C9.47389 10 9.25006 9.77609 9.25 9.5C9.25004 9.2239 9.47389 9 9.75 9Z" fill="#F3F4F4"/>
<path fill-rule="evenodd" clip-rule="evenodd" d="M10.2217 1C10.7809 0.999996 11.2314 0.999532 11.5957 1.0293C11.9703 1.05993 12.2979 1.12512 12.6006 1.2793C13.0828 1.52497 13.475 1.91725 13.7207 2.39941C13.8749 2.70211 13.9401 3.02966 13.9707 3.4043C14.0005 3.76861 14 4.21908 14 4.77832V11.2217C14 11.7809 14.0005 12.2314 13.9707 12.5957C13.9401 12.9703 13.8749 13.2979 13.7207 13.6006C13.475 14.0828 13.0828 14.475 12.6006 14.7207C12.2979 14.8749 11.9703 14.9401 11.5957 14.9707C11.2314 15.0005 10.7809 15 10.2217 15H5.77832C5.21908 15 4.76861 15.0005 4.4043 14.9707C4.02966 14.9401 3.70211 14.8749 3.39941 14.7207C2.91725 14.475 2.52497 14.0828 2.2793 13.6006C2.12512 13.2979 2.05993 12.9703 2.0293 12.5957C1.99953 12.2314 2 11.7809 2 11.2217V4.77832C2 4.21908 1.99953 3.76861 2.0293 3.4043C2.05993 3.02966 2.12512 2.70211 2.2793 2.39941C2.52497 1.91725 2.91725 1.52497 3.39941 1.2793C3.70211 1.12512 4.02966 1.05993 4.4043 1.0293C4.76861 0.999532 5.21908 0.999996 5.77832 1H10.2217ZM10.1553 4.60254C10.0329 4.6122 9.88776 4.63687 9.73633 4.66211L7.33594 5.0625C7.2249 5.08101 7.11441 5.09929 7.02149 5.12207C6.92229 5.14642 6.80796 5.18357 6.69629 5.25781C6.53939 5.3622 6.4151 5.50876 6.33789 5.68067C6.28307 5.80292 6.26455 5.92165 6.25684 6.02344C6.24962 6.11899 6.25 6.23194 6.25 6.34473V8.58692C6.09348 8.53153 5.92549 8.5 5.75 8.5C4.9216 8.5 4.25004 9.17161 4.25 10C4.25006 10.8284 4.92161 11.5 5.75 11.5C6.57839 11.5 7.24994 10.8284 7.25 10V6.34473C7.25 6.21698 7.2502 6.14781 7.25391 6.09863V6.09375L7.25977 6.09277C7.30765 6.08106 7.37521 6.06979 7.50098 6.04883L9.90039 5.64844C10.0694 5.62027 10.1653 5.60506 10.2344 5.59961C10.2368 5.59942 10.239 5.59878 10.2412 5.59863C10.2415 5.60136 10.2429 5.60435 10.2432 5.60742C10.2491 5.67646 10.25 5.77315 10.25 5.94434V8.08692C10.0935 8.03153 9.92549 8 9.75 8C8.9216 8 8.25004 8.67161 8.25 9.5C8.25006 10.3284 8.92161 11 9.75 11C10.5784 11 11.2499 10.3284 11.25 9.5V5.94434C11.25 5.79098 11.2508 5.64366 11.2402 5.52149C11.232 5.42619 11.2149 5.31591 11.1709 5.2041L11.1172 5.09277L11.0703 5.01856C10.9543 4.85209 10.7901 4.72353 10.5986 4.65234C10.4378 4.59261 10.2823 4.59252 10.1553 4.60254Z" fill="#F3F4F4"/>
</svg>
