<svg width="16" height="16" viewBox="0 0 16 16" fill="none" xmlns="http://www.w3.org/2000/svg">
<path fill-rule="evenodd" clip-rule="evenodd" d="M7.99998 1C6.7795 1 5.60614 1.47064 4.73878 2.31286C3.87091 3.15556 3.38053 4.3017 3.38053 5.5C3.38053 7.46836 2.8707 8.78458 2.32648 9.63383L2.3202 9.64362C2.07332 10.0289 1.8806 10.3296 1.75129 10.5475C1.68654 10.6566 1.63007 10.7575 1.58924 10.8448C1.56886 10.8884 1.54739 10.939 1.53098 10.9925C1.51712 11.0377 1.4929 11.1279 1.50199 11.2358C1.50912 11.3205 1.52609 11.4497 1.60106 11.5807C1.67536 11.7106 1.77741 11.791 1.84562 11.8401C1.97808 11.9355 2.13406 11.9583 2.19632 11.9672C2.28671 11.9802 2.39299 11.9871 2.50665 11.9914C2.73285 12 3.04828 12 3.44841 12H12.5515C12.9517 12 13.2671 12 13.4933 11.9914C13.607 11.9871 13.7133 11.9802 13.8036 11.9672C13.8659 11.9583 14.0219 11.9355 14.1543 11.8401C14.2226 11.791 14.3246 11.7106 14.3989 11.5807C14.4739 11.4497 14.4908 11.3205 14.498 11.2358C14.5071 11.1279 14.4828 11.0377 14.469 10.9925C14.4526 10.939 14.4311 10.8884 14.4107 10.8448C14.3699 10.7575 14.3134 10.6566 14.2487 10.5475C14.1194 10.3296 13.9266 10.0288 13.6797 9.64351L13.6735 9.63384C13.1293 8.78458 12.6194 7.46836 12.6194 5.5C12.6194 4.3017 12.1291 3.15556 11.2612 2.31286C10.3938 1.47064 9.22046 1 7.99998 1ZM5.4354 3.03029C6.11313 2.37222 7.03537 2 7.99998 2C8.96459 2 9.88683 2.37222 10.5646 3.03029C11.2418 3.68788 11.6194 4.57657 11.6194 5.5C11.6194 7.65188 12.18 9.1567 12.8315 10.1734C13.0606 10.5309 13.2321 10.7986 13.3512 10.9953C13.1538 10.9999 12.8885 11 12.539 11H3.46093C3.11143 11 2.84616 10.9999 2.64876 10.9953C2.76784 10.7986 2.93932 10.5309 3.16843 10.1734C3.81995 9.1567 4.38053 7.65188 4.38053 5.5C4.38053 4.57657 4.75818 3.68788 5.4354 3.03029Z" fill="#F3F4F4"/>
<path d="M10.3294 14.6262C10.5372 14.4442 10.5581 14.1283 10.3762 13.9206C10.1942 13.7129 9.87835 13.6919 9.6706 13.8739C9.22559 14.2636 8.64152 14.5 8.00001 14.5C7.35849 14.5 6.77442 14.2636 6.32941 13.8739C6.12167 13.6919 5.80578 13.7129 5.62385 13.9206C5.44193 14.1283 5.46286 14.4442 5.6706 14.6262C6.29163 15.17 7.10787 15.5 8.00001 15.5C8.89215 15.5 9.70839 15.17 10.3294 14.6262Z" fill="#F3F4F4"/>
</svg>
