<svg width="14" height="14" viewBox="0 0 14 14" fill="none" xmlns="http://www.w3.org/2000/svg">
<path d="M10.0203 5.35355C10.2155 5.15829 10.2155 4.84171 10.0203 4.64645C9.825 4.45118 9.50842 4.45118 9.31315 4.64645L6.00004 7.95956L4.68693 6.64645C4.49167 6.45118 4.17508 6.45118 3.97982 6.64645C3.78456 6.84171 3.78456 7.15829 3.97982 7.35355L5.64649 9.02022C5.74026 9.11399 5.86743 9.16667 6.00004 9.16667C6.13265 9.16667 6.25983 9.11399 6.35359 9.02022L10.0203 5.35355Z" fill="#A9ABAD"/>
<path fill-rule="evenodd" clip-rule="evenodd" d="M7 0C3.13401 0 0 3.13401 0 7C0 10.866 3.13401 14 7 14C10.866 14 14 10.866 14 7C14 3.13401 10.866 0 7 0ZM1 7C1 3.68629 3.68629 1 7 1C10.3137 1 13 3.68629 13 7C13 10.3137 10.3137 13 7 13C3.68629 13 1 10.3137 1 7Z" fill="#A9ABAD"/>
</svg>
