<svg width="16" height="16" viewBox="0 0 16 16" fill="none" xmlns="http://www.w3.org/2000/svg">
<path fill-rule="evenodd" clip-rule="evenodd" d="M8.5 1C8.5 0.723858 8.27614 0.5 8 0.5C7.72386 0.5 7.5 0.723858 7.5 1V2H6.75C4.95507 2 3.5 3.45507 3.5 5.25C3.5 7.04493 4.95508 8.5 6.75 8.5H7.5V13H4.00016C3.72402 13 3.50016 13.2239 3.50016 13.5C3.50016 13.7761 3.72402 14 4.00016 14H7.5V15C7.5 15.2761 7.72386 15.5 8 15.5C8.27614 15.5 8.5 15.2761 8.5 15V14H9.74984C11.5448 14 12.9998 12.5449 12.9998 10.75C12.9998 8.95507 11.5448 7.5 9.74984 7.5H8.5V3H12C12.2761 3 12.5 2.77614 12.5 2.5C12.5 2.22386 12.2761 2 12 2H8.5V1ZM7.5 3H6.75C5.50736 3 4.5 4.00736 4.5 5.25C4.5 6.49264 5.50736 7.5 6.75 7.5H7.5V3ZM8.5 8.5V13H9.74984C10.9925 13 11.9998 11.9926 11.9998 10.75C11.9998 9.50736 10.9925 8.5 9.74984 8.5H8.5Z" fill="#F3F4F4"/>
</svg>
