<svg width="48" height="48" viewBox="0 0 48 48" fill="none" xmlns="http://www.w3.org/2000/svg">
<path fill-rule="evenodd" clip-rule="evenodd" d="M24 2.5C24.8284 2.5 25.5 3.17157 25.5 4C25.5 4.82843 24.8284 5.5 24 5.5C19.1458 5.5 14.8131 6.15736 11.7461 7.17969C10.2054 7.69325 9.06676 8.27226 8.34375 8.8418C7.60386 9.4249 7.5 9.82817 7.5 10C7.5 10.1718 7.60386 10.5751 8.34375 11.1582C9.06676 11.7277 10.2054 12.3068 11.7461 12.8203C14.8131 13.8426 19.1458 14.5 24 14.5C24.8284 14.5 25.5 15.1716 25.5 16C25.5 16.8284 24.8284 17.5 24 17.5C18.9131 17.5 14.2446 16.8153 10.7969 15.666C9.56231 15.2545 8.44102 14.7693 7.5 14.207V24C7.5 24.1718 7.60386 24.5751 8.34375 25.1582C9.06676 25.7277 10.2054 26.3068 11.7461 26.8203C14.8131 27.8426 19.1458 28.5 24 28.5C28.8542 28.5 33.1869 27.8426 36.2539 26.8203C37.7946 26.3068 38.9332 25.7277 39.6562 25.1582C40.3961 24.5751 40.5 24.1718 40.5 24C40.5 23.1716 41.1716 22.5 42 22.5C42.8284 22.5 43.5 23.1716 43.5 24V38C43.5 39.485 42.5955 40.6611 41.5137 41.5137C40.4151 42.3794 38.9188 43.0941 37.2031 43.666C33.7554 44.8153 29.0869 45.5 24 45.5C18.9131 45.5 14.2446 44.8153 10.7969 43.666C9.08123 43.0941 7.58489 42.3794 6.48633 41.5137C5.40452 40.6611 4.5 39.485 4.5 38V10C4.5 8.51497 5.40452 7.33889 6.48633 6.48633C7.58489 5.62062 9.08123 4.90592 10.7969 4.33398C14.2446 3.18474 18.9131 2.5 24 2.5ZM40.5 28.207C39.559 28.7693 38.4377 29.2545 37.2031 29.666C33.7554 30.8153 29.0869 31.5 24 31.5C18.9131 31.5 14.2446 30.8153 10.7969 29.666C9.56231 29.2545 8.44102 28.7693 7.5 28.207V38C7.5 38.1718 7.60386 38.5751 8.34375 39.1582C9.06676 39.7277 10.2054 40.3068 11.7461 40.8203C14.8131 41.8426 19.1458 42.5 24 42.5C28.8542 42.5 33.1869 41.8426 36.2539 40.8203C37.7946 40.3068 38.9332 39.7277 39.6562 39.1582C40.3961 38.5751 40.5 38.1718 40.5 38V28.207Z" fill="#FD6F90"/>
<path fill-rule="evenodd" clip-rule="evenodd" d="M38 0.5C43.2467 0.5 47.5 4.75329 47.5 10C47.5 15.2467 43.2467 19.5 38 19.5C32.7535 19.4998 28.5 15.2466 28.5 10C28.5 4.75342 32.7535 0.500206 38 0.5ZM38 14C37.4479 14.0002 37 14.4478 37 15V15.0195C37 15.5717 37.4479 16.0193 38 16.0195C38.5523 16.0195 39 15.5718 39 15.0195V15C39 14.4477 38.5523 14 38 14ZM38 4C37.4479 4.00021 37 4.44784 37 5V11C37 11.5522 37.4479 11.9998 38 12C38.5523 12 39 11.5523 39 11V5C39 4.44772 38.5523 4 38 4Z" fill="#FD6F90"/>
</svg>
