<svg width="14" height="14" viewBox="0 0 14 14" fill="none" xmlns="http://www.w3.org/2000/svg">
<path d="M7 4C7.27614 4 7.5 4.22386 7.5 4.5V7C7.5 7.27614 7.27614 7.5 7 7.5C6.72386 7.5 6.5 7.27614 6.5 7V4.5C6.5 4.22386 6.72386 4 7 4Z" fill="#303233"/>
<path d="M7 9C6.72386 9 6.5 9.22386 6.5 9.5C6.5 9.77614 6.72386 10 7 10H7.00667C7.28281 10 7.50667 9.77614 7.50667 9.5C7.50667 9.22386 7.28281 9 7.00667 9H7Z" fill="#303233"/>
<path fill-rule="evenodd" clip-rule="evenodd" d="M0 7C0 3.13401 3.13401 0 7 0C10.866 0 14 3.13401 14 7C14 10.866 10.866 14 7 14C3.13401 14 0 10.866 0 7ZM7 1C3.68629 1 1 3.68629 1 7C1 10.3137 3.68629 13 7 13C10.3137 13 13 10.3137 13 7C13 3.68629 10.3137 1 7 1Z" fill="#303233"/>
</svg>
