<svg width="16" height="16" viewBox="0 0 16 16" fill="none" xmlns="http://www.w3.org/2000/svg">
<path fill-rule="evenodd" clip-rule="evenodd" d="M15 8C15 11.866 11.866 15 8 15C4.13401 15 1 11.866 1 8C1 4.13401 4.13401 1 8 1C11.866 1 15 4.13401 15 8ZM8 5C8.27614 5 8.5 5.22386 8.5 5.5V8C8.5 8.27614 8.27614 8.5 8 8.5C7.72386 8.5 7.5 8.27614 7.5 8V5.5C7.5 5.22386 7.72386 5 8 5ZM7.5 10.5C7.5 10.2239 7.72386 10 8 10H8.00667C8.28281 10 8.50667 10.2239 8.50667 10.5C8.50667 10.7761 8.28281 11 8.00667 11H8C7.72386 11 7.5 10.7761 7.5 10.5Z" fill="#F3F4F4"/>
</svg>
