<svg width="14" height="14" viewBox="0 0 14 14" fill="none" xmlns="http://www.w3.org/2000/svg">
<path fill-rule="evenodd" clip-rule="evenodd" d="M14 7C14 10.866 10.866 14 7 14C3.13401 14 0 10.866 0 7C0 3.13401 3.13401 0 7 0C10.866 0 14 3.13401 14 7ZM7 4C7.27614 4 7.5 4.22386 7.5 4.5V7C7.5 7.27614 7.27614 7.5 7 7.5C6.72386 7.5 6.5 7.27614 6.5 7V4.5C6.5 4.22386 6.72386 4 7 4ZM6.5 9.5C6.5 9.22386 6.72386 9 7 9H7.00667C7.28281 9 7.50667 9.22386 7.50667 9.5C7.50667 9.77614 7.28281 10 7.00667 10H7C6.72386 10 6.5 9.77614 6.5 9.5Z" fill="#303233"/>
</svg>
