<svg width="16" height="16" viewBox="0 0 16 16" fill="none" xmlns="http://www.w3.org/2000/svg">
<path d="M8 8.5C8.85517 8.5 9.54845 7.82843 9.54845 7C9.54845 6.17157 8.85517 5.5 8 5.5C7.14483 5.5 6.45156 6.17157 6.45156 7C6.45156 7.82843 7.14483 8.5 8 8.5Z" fill="#F3F4F4"/>
<path d="M10.6346 11.5C10.8673 11.5 11.0493 11.3013 10.988 11.0837C10.6296 9.81077 9.42762 8.875 8 8.875C6.57239 8.875 5.37037 9.81077 5.01199 11.0837C4.95074 11.3013 5.13263 11.5 5.36545 11.5H10.6346Z" fill="#F3F4F4"/>
<path fill-rule="evenodd" clip-rule="evenodd" d="M1 4.00001C0.999992 2.89544 1.89543 2 3 2H6.79318C7.24589 2 7.68006 2.17986 8.00015 2.5C8.32024 2.82014 8.75441 3 9.20712 3H13.0001C14.1046 3 15.0001 3.89543 15.0001 5V12C15.0001 13.1046 14.1046 14 13.0001 14H3.00006C1.89549 14 1.00006 13.1046 1.00006 12L1 4.00001ZM2.00015 5C2.00015 4.44772 2.44787 4 3.00015 4H13.0002C13.5524 4 14.0002 4.44772 14.0002 5V12C14.0002 12.5523 13.5524 13 13.0002 13H3.00015C2.44787 13 2.00015 12.5523 2.00015 12V5Z" fill="#F3F4F4"/>
</svg>
