<svg width="16" height="16" viewBox="0 0 16 16" fill="none" xmlns="http://www.w3.org/2000/svg">
<path d="M3.33333 2.5C3.11232 2.5 2.90036 2.5878 2.74408 2.74408C2.5878 2.90036 2.5 3.11232 2.5 3.33333V12.6667C2.5 12.8877 2.5878 13.0996 2.74408 13.2559C2.90036 13.4122 3.11232 13.5 3.33333 13.5H6C6.27614 13.5 6.5 13.7239 6.5 14C6.5 14.2761 6.27614 14.5 6 14.5H3.33333C2.8471 14.5 2.38079 14.3068 2.03697 13.963C1.69315 13.6192 1.5 13.1529 1.5 12.6667V3.33333C1.5 2.8471 1.69315 2.38079 2.03697 2.03697C2.38079 1.69315 2.8471 1.5 3.33333 1.5H6C6.27614 1.5 6.5 1.72386 6.5 2C6.5 2.27614 6.27614 2.5 6 2.5H3.33333Z" fill="#F3F4F4"/>
<path d="M10.1465 4.14644C10.3417 3.95118 10.6583 3.95119 10.8536 4.14645L14.3459 7.63897C14.4409 7.72998 14.5 7.85809 14.5 8C14.5 8.14197 14.4408 8.27012 14.3458 8.36114L10.8536 11.8535C10.6583 12.0488 10.3417 12.0488 10.1465 11.8536C9.95119 11.6583 9.95118 11.3417 10.1464 11.1465L12.7928 8.5H6C5.72386 8.5 5.5 8.27614 5.5 8C5.5 7.72386 5.72386 7.5 6 7.5H12.7928L10.1464 4.85355C9.95118 4.65828 9.95119 4.3417 10.1465 4.14644Z" fill="#F3F4F4"/>
</svg>
