<svg width="16" height="16" viewBox="0 0 16 16" fill="none" xmlns="http://www.w3.org/2000/svg">
<path fill-rule="evenodd" clip-rule="evenodd" d="M4.50564 1.3335H11.494C12.0307 1.33349 12.4736 1.33348 12.8344 1.36296C13.2091 1.39358 13.5536 1.45929 13.8771 1.62415C14.3789 1.87981 14.7869 2.28776 15.0425 2.78952C15.2074 3.11308 15.2731 3.45755 15.3037 3.83228C15.3332 4.19307 15.3332 4.63597 15.3332 5.17261V8.16105C15.3332 8.69769 15.3332 9.14059 15.3037 9.50138C15.2731 9.87611 15.2074 10.2206 15.0425 10.5441C14.7869 11.0459 14.3789 11.4539 13.8771 11.7095C13.5536 11.8744 13.2091 11.9401 12.8344 11.9707C12.4736 12.0002 12.0307 12.0002 11.494 12.0002H4.50565C3.969 12.0002 3.52609 12.0002 3.16529 11.9707C2.79056 11.9401 2.44609 11.8744 2.12253 11.7095C1.62076 11.4539 1.21282 11.0459 0.957154 10.5441C0.792293 10.2206 0.726584 9.87611 0.695967 9.50138C0.666489 9.14058 0.666496 8.69768 0.666504 8.16103V5.17263C0.666496 4.63598 0.666489 4.19308 0.695967 3.83228C0.726584 3.45755 0.792293 3.11308 0.957154 2.78952C1.21282 2.28776 1.62076 1.87981 2.12253 1.62415C2.44609 1.45929 2.79056 1.39358 3.16529 1.36296C3.52608 1.33348 3.96899 1.33349 4.50564 1.3335ZM3.27386 2.69186C2.98159 2.71574 2.83212 2.75903 2.72785 2.81215C2.47697 2.93999 2.27299 3.14396 2.14516 3.39484C2.09204 3.49911 2.04875 3.64858 2.02487 3.94086C2.00036 4.24092 1.99984 4.62911 1.99984 5.20016V8.1335C1.99984 8.70455 2.00036 9.09275 2.02487 9.39281C2.04875 9.68508 2.09204 9.83455 2.14516 9.93882C2.27299 10.1897 2.47697 10.3937 2.72785 10.5215C2.83212 10.5746 2.98159 10.6179 3.27386 10.6418C3.57392 10.6663 3.96212 10.6668 4.53317 10.6668H11.4665C12.0376 10.6668 12.4258 10.6663 12.7258 10.6418C13.0181 10.6179 13.1676 10.5746 13.2718 10.5215C13.5227 10.3937 13.7267 10.1897 13.8545 9.93882C13.9076 9.83455 13.9509 9.68508 13.9748 9.39281C13.9993 9.09275 13.9998 8.70455 13.9998 8.1335V5.20016C13.9998 4.62911 13.9993 4.24092 13.9748 3.94086C13.9509 3.64858 13.9076 3.49911 13.8545 3.39484C13.7267 3.14396 13.5227 2.93999 13.2718 2.81215C13.1676 2.75903 13.0181 2.71574 12.7258 2.69186C12.4258 2.66735 12.0376 2.66683 11.4665 2.66683H4.53317C3.96212 2.66683 3.57392 2.66735 3.27386 2.69186ZM7.99984 14.0002C7.0412 14.0002 6.13734 14.2169 5.33602 14.6013C5.00404 14.7605 4.60584 14.6204 4.44661 14.2885C4.28738 13.9565 4.42743 13.5583 4.75941 13.3991C5.73782 12.9298 6.83843 12.6668 7.99984 12.6668C9.16124 12.6668 10.2619 12.9298 11.2403 13.3991C11.5722 13.5583 11.7123 13.9565 11.5531 14.2885C11.3938 14.6204 10.9956 14.7605 10.6637 14.6013C9.86234 14.2169 8.95848 14.0002 7.99984 14.0002Z" fill="#F3F4F4"/>
</svg>
