<svg width="16" height="16" viewBox="0 0 16 16" fill="none" xmlns="http://www.w3.org/2000/svg">
<path d="M8.5 2C8.22386 2 8 2.22386 8 2.5C8 2.77614 8.22386 3 8.5 3H13.5C13.7761 3 14 2.77614 14 2.5C14 2.22386 13.7761 2 13.5 2H8.5Z" fill="#F3F4F4"/>
<path fill-rule="evenodd" clip-rule="evenodd" d="M3.75 9.5C2.7835 9.5 2 10.2835 2 11.25C2 12.2165 2.7835 13 3.75 13H12.25C13.2165 13 14 12.2165 14 11.25C14 10.2835 13.2165 9.5 12.25 9.5H3.75ZM3 11.25C3 10.8358 3.33579 10.5 3.75 10.5H12.25C12.6642 10.5 13 10.8358 13 11.25C13 11.6642 12.6642 12 12.25 12H3.75C3.33579 12 3 11.6642 3 11.25Z" fill="#F3F4F4"/>
<path d="M3.5 2C3.77614 2 4 2.22386 4 2.5V6.29289L5.64645 4.64645C5.84171 4.45118 6.15829 4.45118 6.35355 4.64645C6.54882 4.84171 6.54882 5.15829 6.35355 5.35355L3.85355 7.85355C3.65829 8.04882 3.34171 8.04882 3.14645 7.85355L0.646447 5.35355C0.451184 5.15829 0.451184 4.84171 0.646447 4.64645C0.841709 4.45118 1.15829 4.45118 1.35355 4.64645L3 6.29289V2.5C3 2.22386 3.22386 2 3.5 2Z" fill="#F3F4F4"/>
<path d="M8.5 4.5H13.5C13.7761 4.5 14 4.72386 14 5C14 5.27614 13.7761 5.5 13.5 5.5H8.5C8.22386 5.5 8 5.27614 8 5C8 4.72386 8.22386 4.5 8.5 4.5Z" fill="#F3F4F4"/>
<path d="M8.5 7C8.22386 7 8 7.22386 8 7.5C8 7.77614 8.22386 8 8.5 8H13.5C13.7761 8 14 7.77614 14 7.5C14 7.22386 13.7761 7 13.5 7H8.5Z" fill="#F3F4F4"/>
</svg>
