<svg width="16" height="16" viewBox="0 0 16 16" fill="none" xmlns="http://www.w3.org/2000/svg">
<path d="M2.5 2C2.22386 2 2 2.22386 2 2.5C2 2.77614 2.22386 3 2.5 3H13.5C13.7761 3 14 2.77614 14 2.5C14 2.22386 13.7761 2 13.5 2H2.5Z" fill="#F3F4F4"/>
<path fill-rule="evenodd" clip-rule="evenodd" d="M3.75 4.5C2.7835 4.5 2 5.2835 2 6.25C2 7.2165 2.7835 8 3.75 8H12.25C13.2165 8 14 7.2165 14 6.25C14 5.2835 13.2165 4.5 12.25 4.5H3.75ZM3 6.25C3 5.83579 3.33579 5.5 3.75 5.5H12.25C12.6642 5.5 13 5.83579 13 6.25C13 6.66421 12.6642 7 12.25 7H3.75C3.33579 7 3 6.66421 3 6.25Z" fill="#F3F4F4"/>
<path d="M2 10C2 9.72386 2.22386 9.5 2.5 9.5H13.5C13.7761 9.5 14 9.72386 14 10C14 10.2761 13.7761 10.5 13.5 10.5H2.5C2.22386 10.5 2 10.2761 2 10Z" fill="#F3F4F4"/>
<path d="M2.5 12C2.22386 12 2 12.2239 2 12.5C2 12.7761 2.22386 13 2.5 13H13.5C13.7761 13 14 12.7761 14 12.5C14 12.2239 13.7761 12 13.5 12H2.5Z" fill="#F3F4F4"/>
</svg>
