<svg width="16" height="16" viewBox="0 0 16 16" fill="none" xmlns="http://www.w3.org/2000/svg">
<path d="M13.333 13.5C13.6091 13.5 13.833 13.7239 13.833 14C13.833 14.2761 13.6091 14.5 13.333 14.5H2.66699C2.39085 14.5 2.16699 14.2761 2.16699 14C2.16699 13.7239 2.39085 13.5 2.66699 13.5H13.333ZM12 7.5C13.0124 7.5 13.8328 8.32064 13.833 9.33301V10C13.833 11.0125 13.0125 11.833 12 11.833H4C2.98748 11.833 2.16699 11.0125 2.16699 10V9.33301C2.16717 8.32064 2.98759 7.5 4 7.5H12ZM4 8.5C3.53987 8.5 3.16717 8.87292 3.16699 9.33301V10C3.16699 10.4602 3.53976 10.833 4 10.833H12C12.4602 10.833 12.833 10.4602 12.833 10V9.33301C12.8328 8.87292 12.4601 8.5 12 8.5H4ZM13.333 4.83301C13.609 4.83301 13.8328 5.05702 13.833 5.33301C13.833 5.60915 13.6091 5.83301 13.333 5.83301H2.66699C2.39085 5.83301 2.16699 5.60915 2.16699 5.33301C2.16717 5.05702 2.39096 4.83301 2.66699 4.83301H13.333ZM13.333 2.16699C13.6091 2.16699 13.833 2.39085 13.833 2.66699C13.8328 2.94298 13.609 3.16699 13.333 3.16699H2.66699C2.39096 3.16699 2.16717 2.94298 2.16699 2.66699C2.16699 2.39085 2.39085 2.16699 2.66699 2.16699H13.333Z" fill="#F3F4F4"/>
</svg>
