<svg width="16" height="16" viewBox="0 0 16 16" fill="none" xmlns="http://www.w3.org/2000/svg">
<path d="M6.94831 4.97346C6.54296 4.70323 6 4.99381 6 5.48098V10.5211C6 11.0083 6.54296 11.2988 6.94831 11.0286L10.7284 8.50855C11.0905 8.26712 11.0905 7.73495 10.7284 7.49351L6.94831 4.97346Z" fill="#A9ABAD"/>
<path fill-rule="evenodd" clip-rule="evenodd" d="M2.94444 1C1.87056 1 1 1.87056 1 2.94444V13.0556C1 14.1294 1.87056 15 2.94444 15H13.0556C14.1294 15 15 14.1294 15 13.0556V2.94444C15 1.87056 14.1294 1 13.0556 1H2.94444ZM2 2.94444C2 2.42284 2.42284 2 2.94444 2H13.0556C13.5772 2 14 2.42284 14 2.94444V13.0556C14 13.5772 13.5772 14 13.0556 14H2.94444C2.42284 14 2 13.5772 2 13.0556V2.94444Z" fill="#A9ABAD"/>
</svg>
