<svg width="16" height="16" viewBox="0 0 16 16" fill="none" xmlns="http://www.w3.org/2000/svg">
<path d="M8.50016 3.33325C8.50016 3.05711 8.27631 2.83325 8.00016 2.83325C7.72402 2.83325 7.50016 3.05711 7.50016 3.33325V7.49992H3.3335C3.05735 7.49992 2.8335 7.72378 2.8335 7.99992C2.8335 8.27606 3.05735 8.49992 3.3335 8.49992H7.50016V12.6666C7.50016 12.9427 7.72402 13.1666 8.00016 13.1666C8.27631 13.1666 8.50016 12.9427 8.50016 12.6666V8.49992H12.6668C12.943 8.49992 13.1668 8.27606 13.1668 7.99992C13.1668 7.72378 12.943 7.49992 12.6668 7.49992H8.50016V3.33325Z" fill="#A9ABAD"/>
</svg>
