<svg width="48" height="48" viewBox="0 0 48 48" fill="none" xmlns="http://www.w3.org/2000/svg">
<circle cx="24" cy="24" r="24" fill="#2a2b2c"/>
<circle cx="24" cy="24" r="22" fill="#151616"/>
<path d="M30 24C30 20.6863 27.3137 18 24 18C20.6863 18 18 20.6863 18 24C18 27.3137 20.6863 30 24 30C27.3137 30 30 27.3137 30 24ZM26.6465 20.6465C26.8417 20.4512 27.1583 20.4512 27.3535 20.6465C27.5488 20.8417 27.5488 21.1583 27.3535 21.3535L25.1621 23.5439C25.2176 23.6854 25.249 23.8389 25.249 24C25.249 24.6904 24.6894 25.25 23.999 25.25C23.3088 25.2498 22.749 24.6902 22.749 24C22.749 23.3098 23.3088 22.7502 23.999 22.75C24.16 22.75 24.3138 22.7815 24.4551 22.8369L26.6465 20.6465ZM18.999 24C18.999 21.2387 21.2377 19.0002 23.999 19C24.2752 19 24.499 19.2239 24.499 19.5C24.499 19.7761 24.2752 20 23.999 20C21.79 20.0002 19.999 21.791 19.999 24C19.999 24.2761 19.7752 24.5 19.499 24.5C19.223 24.4998 18.999 24.276 18.999 24ZM31 24C31 27.866 27.866 31 24 31C20.134 31 17 27.866 17 24C17 20.134 20.134 17 24 17C27.866 17 31 20.134 31 24Z" fill="#a9abad"/>
</svg>
