<svg width="16" height="16" viewBox="0 0 16 16" fill="none" xmlns="http://www.w3.org/2000/svg">
<path d="M2 2.5C2 2.22386 1.77614 2 1.5 2C1.22386 2 1 2.22386 1 2.5V6.5C1 6.77614 1.22386 7 1.5 7H5.5C5.77614 7 6 6.77614 6 6.5C6 6.22386 5.77614 6 5.5 6H2.74994L4.44874 4.48028C4.45554 4.4742 4.46218 4.46793 4.46863 4.46148C5.23581 3.69561 6.23111 3.1998 7.30456 3.04877C8.37802 2.89774 9.47149 3.09967 10.4202 3.62413C11.3689 4.14859 12.1215 4.96717 12.5645 5.95654C13.0076 6.9459 13.1171 8.05245 12.8765 9.10946C12.636 10.1665 12.0584 11.1167 11.2309 11.8169C10.4034 12.5171 9.37071 12.9294 8.28847 12.9917C7.20623 13.054 6.13306 12.7629 5.23067 12.1622C4.32827 11.5616 3.64552 10.6839 3.2853 9.66148C3.19354 9.40103 2.90802 9.26428 2.64757 9.35604C2.38712 9.4478 2.25037 9.73332 2.34213 9.99377C2.77439 11.2207 3.59368 12.2739 4.67656 12.9947C5.75944 13.7155 7.04725 14.0648 8.34593 13.9901C9.64462 13.9153 10.8838 13.4206 11.8769 12.5803C12.8699 11.74 13.563 10.5998 13.8516 9.33135C14.1402 8.06294 14.0088 6.73508 13.4772 5.54784C12.9456 4.36061 12.0425 3.37831 10.904 2.74896C9.76555 2.1196 8.45339 1.87729 7.16524 2.05853C5.88171 2.23911 4.6913 2.83047 3.77203 3.74391L2 5.32913V2.5Z" fill="#FD6F90"/>
</svg>
