<svg width="48" height="48" viewBox="0 0 48 48" fill="none" xmlns="http://www.w3.org/2000/svg">
<path d="M14.5073 7.54363C23.5874 2.30125 35.198 5.41231 40.4404 14.4924L40.5267 14.6418L36.1141 13.4595C35.5807 13.3165 35.0323 13.6331 34.8894 14.1666C34.7465 14.7 35.063 15.2484 35.5965 15.3913L42.0198 17.1124C42.276 17.1811 42.549 17.1451 42.7786 17.0125C43.0083 16.8799 43.1759 16.6615 43.2446 16.4053L44.9657 9.98201C45.1086 9.44855 44.792 8.90021 44.2586 8.75727C43.7251 8.61433 43.1768 8.93091 43.0338 9.46437L42.0229 13.2374C36.1594 3.39782 23.4585 0.0662634 13.5073 5.81158C7.46569 9.29971 3.81542 15.3393 3.1299 21.7796C3.07145 22.3288 3.46926 22.8213 4.01844 22.8798C4.56762 22.9383 5.06021 22.5404 5.11867 21.9913C5.73943 16.1593 9.04272 10.6986 14.5073 7.54363Z" fill="#6E747D"/>
<path d="M44.8683 26.1904C44.9268 25.6412 44.529 25.1486 43.9798 25.0902C43.4306 25.0317 42.938 25.4296 42.8796 25.9787C42.2588 31.8107 38.9555 37.2714 33.4909 40.4264C24.4108 45.6687 12.8002 42.5577 7.55783 33.4776L7.47135 33.3278L11.8854 34.5106C12.4188 34.6535 12.9672 34.3369 13.1101 33.8035C13.2531 33.27 12.9365 32.7217 12.403 32.5787L5.9797 30.8576C5.44624 30.7146 4.8979 31.0312 4.75496 31.5647L3.03383 37.988C2.89089 38.5215 3.20747 39.0698 3.74094 39.2128C4.27441 39.3557 4.82274 39.0391 4.96569 38.5057L5.97626 34.7341C11.8401 44.5725 24.5402 47.9034 34.4909 42.1584C40.5325 38.6703 44.1828 32.6307 44.8683 26.1904Z" fill="#6E747D"/>
<path fill-rule="evenodd" clip-rule="evenodd" d="M24 13.25C18.0629 13.25 13.25 18.0629 13.25 24C13.25 29.9371 18.0629 34.75 24 34.75C29.9371 34.75 34.75 29.9371 34.75 24C34.75 18.0629 29.9371 13.25 24 13.25ZM28.6027 27.6676C28.7617 27.6676 28.89 27.5392 28.89 27.3742V20.6259C28.89 20.4608 28.7617 20.3325 28.6027 20.3325H27.7531C27.6003 20.3325 27.4536 20.3936 27.3435 20.5036L24.1039 23.7861C24.0488 23.8411 23.951 23.8411 23.896 23.7861L20.6563 20.5036C20.5463 20.3936 20.3996 20.3325 20.2468 20.3325H19.3972C19.2382 20.3325 19.1099 20.4608 19.1099 20.6259V27.3742C19.1099 27.5392 19.2382 27.6676 19.3972 27.6676H20.6319C20.7908 27.6676 20.9192 27.5392 20.9192 27.3742V23.5416C20.9192 23.5049 20.962 23.4927 20.9803 23.511L23.5904 26.1516C23.8166 26.3839 24.1833 26.3839 24.4095 26.1516L27.0196 23.511C27.0379 23.4927 27.0807 23.5049 27.0807 23.5416V27.3742C27.0807 27.5392 27.2091 27.6676 27.368 27.6676H28.6027Z" fill="#F23433"/>
</svg>
