<svg width="16" height="16" viewBox="0 0 16 16" fill="none" xmlns="http://www.w3.org/2000/svg">
<path fill-rule="evenodd" clip-rule="evenodd" d="M7 1.5C3.96243 1.5 1.5 3.96243 1.5 7C1.5 10.0376 3.96243 12.5 7 12.5C8.36411 12.5 9.61223 12.0034 10.5734 11.1811L13.6412 14.3479C13.8334 14.5462 14.1499 14.5513 14.3483 14.3591C14.5466 14.167 14.5516 13.8504 14.3595 13.6521L11.2717 10.4647C12.0397 9.51899 12.5 8.31325 12.5 7C12.5 3.96243 10.0376 1.5 7 1.5ZM2.5 7C2.5 4.51472 4.51472 2.5 7 2.5C9.48528 2.5 11.5 4.51472 11.5 7C11.5 9.48528 9.48528 11.5 7 11.5C4.51472 11.5 2.5 9.48528 2.5 7Z" fill="#A9ABAD"/>
</svg>
