<svg width="16" height="16" viewBox="0 0 16 16" fill="none" xmlns="http://www.w3.org/2000/svg">
<path d="M3.5 7C3.5 5.067 5.067 3.5 7 3.5C8.933 3.5 10.5 5.067 10.5 7C10.5 8.933 8.933 10.5 7 10.5C5.067 10.5 3.5 8.933 3.5 7Z" fill="#F3F4F4"/>
<path fill-rule="evenodd" clip-rule="evenodd" d="M1.5 7C1.5 3.96243 3.96243 1.5 7 1.5C10.0376 1.5 12.5 3.96243 12.5 7C12.5 8.31325 12.0397 9.51899 11.2717 10.4647L14.3595 13.6521C14.5516 13.8504 14.5466 14.167 14.3483 14.3591C14.1499 14.5513 13.8334 14.5462 13.6412 14.3479L10.5734 11.1811C9.61223 12.0034 8.36411 12.5 7 12.5C3.96243 12.5 1.5 10.0376 1.5 7ZM7 2.5C4.51472 2.5 2.5 4.51472 2.5 7C2.5 9.48528 4.51472 11.5 7 11.5C9.48528 11.5 11.5 9.48528 11.5 7C11.5 4.51472 9.48528 2.5 7 2.5Z" fill="#F3F4F4"/>
</svg>
