<svg width="16" height="16" viewBox="0 0 16 16" fill="none" xmlns="http://www.w3.org/2000/svg">
<path d="M3.75736 3.75358C3.95262 3.55832 3.95262 3.24173 3.75736 3.04647C3.5621 2.85121 3.24551 2.85121 3.05025 3.04647C0.316583 5.78014 0.316583 10.2123 3.05025 12.946C3.24551 13.1412 3.5621 13.1412 3.75736 12.946C3.95262 12.7507 3.95262 12.4341 3.75736 12.2389C1.41421 9.89571 1.41421 6.09672 3.75736 3.75358Z" fill="#F3F4F4"/>
<path d="M12.9497 3.0465C12.7545 2.85124 12.4379 2.85124 12.2426 3.0465C12.0474 3.24176 12.0474 3.55835 12.2426 3.75361C14.5858 6.09675 14.5858 9.89574 12.2426 12.2389C12.0474 12.4342 12.0474 12.7507 12.2426 12.946C12.4379 13.1413 12.7545 13.1413 12.9497 12.946C15.6834 10.2123 15.6834 5.78017 12.9497 3.0465Z" fill="#F3F4F4"/>
<path d="M5.59584 5.59203C5.7911 5.39677 5.7911 5.08019 5.59584 4.88493C5.40057 4.68966 5.08399 4.68966 4.88873 4.88493C3.17042 6.60323 3.17042 9.38916 4.88873 11.1075C5.08399 11.3027 5.40057 11.3027 5.59584 11.1075C5.7911 10.9122 5.7911 10.5956 5.59584 10.4004C4.26805 9.07258 4.26805 6.91982 5.59584 5.59203Z" fill="#F3F4F4"/>
<path d="M11.1113 4.88495C10.916 4.68969 10.5994 4.68969 10.4042 4.88495C10.2089 5.08021 10.2089 5.39679 10.4042 5.59206C11.7319 6.91984 11.7319 9.0726 10.4042 10.4004C10.2089 10.5956 10.2089 10.9122 10.4042 11.1075C10.5994 11.3028 10.916 11.3028 11.1113 11.1075C12.8296 9.38918 12.8296 6.60326 11.1113 4.88495Z" fill="#F3F4F4"/>
<path fill-rule="evenodd" clip-rule="evenodd" d="M7.87255 6.5806C7.78469 6.52409 7.69231 6.46467 7.61095 6.42232C7.5291 6.37972 7.38056 6.31076 7.19657 6.3239C6.97958 6.3394 6.78 6.44836 6.64962 6.62251C6.53907 6.77018 6.51675 6.93241 6.50833 7.02429C6.49995 7.11564 6.49998 7.22548 6.5 7.32994V8.89822C6.49998 9.00269 6.49995 9.11253 6.50833 9.20387C6.51675 9.29576 6.53907 9.45799 6.64962 9.60565C6.78 9.7798 6.97958 9.88876 7.19657 9.90426C7.38056 9.9174 7.5291 9.84845 7.61095 9.80584C7.69231 9.7635 7.78469 9.70408 7.87255 9.64757L9.09333 8.86278C9.16886 8.81426 9.2514 8.76123 9.31715 8.70995C9.38689 8.65556 9.49697 8.55962 9.56188 8.406C9.64074 8.21937 9.64074 8.00879 9.56188 7.82217C9.49697 7.66854 9.38689 7.5726 9.31715 7.51821C9.2514 7.46693 9.16886 7.41391 9.09333 7.36538L7.87255 6.5806ZM7.50001 8.69825V7.52991L8.40871 8.11408L7.50001 8.69825Z" fill="#F3F4F4"/>
</svg>
