<svg width="48" height="48" viewBox="0 0 48 48" fill="none" xmlns="http://www.w3.org/2000/svg">
<path d="M42.0003 22.5C42.8287 22.5 43.5003 23.1716 43.5003 24C43.5003 28.9905 41.597 33.9814 37.7893 37.7891C35.6892 39.8892 34.045 41.4046 32.764 42.5H40.0003C40.8287 42.5 41.5003 43.1716 41.5003 44C41.5003 44.8284 40.8287 45.5 40.0003 45.5H28.0003C27.6026 45.4999 27.221 45.3418 26.9397 45.0605C26.6586 44.7793 26.5003 44.3977 26.5003 44V32C26.5003 31.1717 27.172 30.5002 28.0003 30.5C28.8287 30.5 29.5003 31.1716 29.5003 32V41.2949C30.7723 40.3057 32.7377 38.5986 35.6683 35.668C38.8901 32.4461 40.5003 28.2227 40.5003 24C40.5003 23.1717 41.172 22.5002 42.0003 22.5Z" fill="#FD6F90"/>
<path d="M20.0003 2.5C20.8286 2.50003 21.5001 3.17177 21.5003 4V16C21.5003 16.8284 20.8287 17.5 20.0003 17.5C19.172 17.4998 18.5003 16.8283 18.5003 16V6.70508C17.2283 7.69431 15.2648 9.4035 12.3343 12.334C5.89062 18.7776 5.89062 29.2243 12.3343 35.668C14.6187 37.9522 17.402 39.4249 20.3323 40.0898C21.1402 40.2731 21.6465 41.0769 21.4632 41.8848C21.2798 42.6926 20.4761 43.1989 19.6683 43.0156C16.202 42.2291 12.9076 40.4854 10.2112 37.7891C2.59639 30.1738 2.59613 17.826 10.2112 10.2109C12.3117 8.11048 13.9574 6.59542 15.2386 5.5H8.00029C7.17203 5.49979 6.50029 4.82829 6.50029 4C6.50031 3.17172 7.17206 2.50021 8.00029 2.5H20.0003Z" fill="#FD6F90"/>
<path fill-rule="evenodd" clip-rule="evenodd" d="M38.0003 0.5C43.247 0.5 47.5003 4.75329 47.5003 10C47.5003 15.2467 43.247 19.5 38.0003 19.5C32.7538 19.4998 28.5003 15.2466 28.5003 10C28.5003 4.75342 32.7538 0.500206 38.0003 0.5ZM38.0003 14C37.4482 14.0002 37.0003 14.4478 37.0003 15V15.0195C37.0003 15.5717 37.4482 16.0193 38.0003 16.0195C38.5526 16.0195 39.0003 15.5718 39.0003 15.0195V15C39.0003 14.4477 38.5526 14 38.0003 14ZM38.0003 4C37.4482 4.00021 37.0003 4.44784 37.0003 5V11C37.0003 11.5522 37.4482 11.9998 38.0003 12C38.5526 12 39.0003 11.5523 39.0003 11V5C39.0003 4.44772 38.5526 4 38.0003 4Z" fill="#FD6F90"/>
</svg>
