<svg width="16" height="16" viewBox="0 0 16 16" fill="none" xmlns="http://www.w3.org/2000/svg">
<path fill-rule="evenodd" clip-rule="evenodd" d="M15 8C15 11.866 11.866 15 8 15C4.13401 15 1 11.866 1 8C1 4.13401 4.13401 1 8 1C11.866 1 15 4.13401 15 8ZM5.14645 7.64645L7.64645 5.14645C7.84171 4.95118 8.15829 4.95118 8.35355 5.14645L10.8536 7.64645C11.0488 7.84171 11.0488 8.15829 10.8536 8.35355C10.6583 8.54882 10.3417 8.54882 10.1464 8.35355L8.5 6.70711V10.5C8.5 10.7761 8.27614 11 8 11C7.72386 11 7.5 10.7761 7.5 10.5V6.70711L5.85355 8.35355C5.65829 8.54882 5.34171 8.54882 5.14645 8.35355C4.95118 8.15829 4.95118 7.84171 5.14645 7.64645Z" fill="#F3F4F4"/>
</svg>
