<svg width="16" height="16" viewBox="0 0 16 16" fill="none" xmlns="http://www.w3.org/2000/svg">
<g clip-path="url(#clip0_1979_16170)">
<path fill-rule="evenodd" clip-rule="evenodd" d="M4.33849 0.5H11.6615C12.2313 0.499995 12.6894 0.499992 13.06 0.530272C13.4411 0.561409 13.7735 0.62704 14.0804 0.783383C14.5696 1.03265 14.9673 1.4304 15.2166 1.91962C15.373 2.22647 15.4386 2.55891 15.4697 2.94001C15.5 3.31063 15.5 3.7687 15.5 4.33852V11.6615C15.5 12.2313 15.5 12.6894 15.4697 13.06C15.4386 13.4411 15.373 13.7735 15.2166 14.0804C14.9673 14.5696 14.5696 14.9673 14.0804 15.2166C13.7735 15.373 13.4411 15.4386 13.06 15.4697C12.6894 15.5 12.2313 15.5 11.6615 15.5H4.33852C3.7687 15.5 3.31063 15.5 2.94001 15.4697C2.55891 15.4386 2.22647 15.373 1.91962 15.2166C1.4304 14.9673 1.03265 14.5696 0.783383 14.0804C0.62704 13.7735 0.561409 13.4411 0.530272 13.06C0.499992 12.6894 0.499995 12.2313 0.5 11.6615V4.33849C0.499995 3.76868 0.499992 3.31062 0.530272 2.94001C0.561409 2.55891 0.62704 2.22647 0.783383 1.91962C1.03265 1.4304 1.4304 1.03265 1.91962 0.783383C2.22647 0.62704 2.55891 0.561409 2.94001 0.530272C3.31062 0.499992 3.76868 0.499995 4.33849 0.5ZM1.5 5V7.5H4V5H1.5ZM4 4H1.50031C1.50137 3.5889 1.50609 3.27677 1.52695 3.02144C1.55304 2.70218 1.60185 2.51599 1.67439 2.37362C1.82779 2.07256 2.07256 1.82779 2.37362 1.67439C2.51599 1.60185 2.70218 1.55304 3.02144 1.52695C3.27677 1.50609 3.5889 1.50137 4 1.50031V4ZM12 1.50031V4H14.4997C14.4986 3.5889 14.4939 3.27677 14.473 3.02144C14.447 2.70218 14.3982 2.51599 14.3256 2.37362C14.1722 2.07256 13.9274 1.82779 13.6264 1.67439C13.484 1.60185 13.2978 1.55304 12.9786 1.52695C12.7232 1.50609 12.4111 1.50137 12 1.50031ZM14.5 5H12V7.5H14.5V5ZM14.5 8.5H12V11H14.5V8.5ZM14.4997 12H12V14.4997C12.4111 14.4986 12.7232 14.4939 12.9786 14.473C13.2978 14.447 13.484 14.3982 13.6264 14.3256C13.9274 14.1722 14.1722 13.9274 14.3256 13.6264C14.3982 13.484 14.447 13.2978 14.473 12.9786C14.4939 12.7232 14.4986 12.4111 14.4997 12ZM4 14.4997V12H1.50031C1.50137 12.4111 1.50609 12.7232 1.52695 12.9786C1.55304 13.2978 1.60185 13.484 1.67439 13.6264C1.82779 13.9274 2.07256 14.1722 2.37362 14.3256C2.51599 14.3982 2.70218 14.447 3.02144 14.473C3.27677 14.4939 3.5889 14.4986 4 14.4997ZM1.5 11H4V8.5H1.5V11Z" fill="#A9ABAD"/>
</g>
<defs>
<clipPath id="clip0_1979_16170">
<rect width="16" height="16" fill="white"/>
</clipPath>
</defs>
</svg>
