<svg width="24" height="24" viewBox="0 0 24 24" fill="none" xmlns="http://www.w3.org/2000/svg">
<path fill-rule="evenodd" clip-rule="evenodd" d="M5 4C3.89543 4 3 4.89543 3 6V18C3 19.1046 3.89543 20 5 20H19C20.1046 20 21 19.1046 21 18V8C21 6.89543 20.1046 6 19 6H13.4142C13.149 6 12.8946 5.89464 12.7071 5.70711L11.2929 4.29289C11.1054 4.10536 10.851 4 10.5858 4H5ZM7.00002 11C7.00001 9.89544 7.89545 9 9.00002 9H15.0001C16.1047 9 17.0001 9.89543 17.0001 11V15C17.0001 16.1046 16.1047 17 15.0001 17L12.4986 17C12.2225 17 11.9986 16.7761 11.9986 16.5C11.9986 16.2239 12.2225 16 12.4986 16L12.5 16L15.0002 16C15.5525 16 16.0002 15.5523 16.0002 15V11C16.0002 10.4477 15.5525 10 15.0002 10H9.00017C8.44789 10 8.00017 10.4477 8.00017 11L8 11.5046C8 11.7808 7.77614 12.0046 7.5 12.0046C7.22386 12.0046 7 11.7808 7 11.5046L7.00002 11.5V11ZM10.9621 13.3086C10.938 13.2505 10.9026 13.196 10.8557 13.1486L10.8514 13.1443C10.7611 13.0551 10.6369 13 10.4999 13H7.5C7.22386 13 7 13.2239 7 13.5C7 13.7761 7.22386 14 7.5 14H9.29291L7.15002 16.15C6.95476 16.3453 6.95472 16.6547 7.14998 16.85C7.34524 17.0453 7.65472 17.0453 7.84998 16.85L10 14.7071V16.5C10 16.7761 10.2239 17 10.5 17C10.7762 17 11 16.7761 11 16.5V13.5003L11 13.497C10.9996 13.4329 10.987 13.3688 10.9621 13.3086Z" fill="url(#paint0_linear_48_1343)"/>
<defs>
<linearGradient id="paint0_linear_48_1343" x1="12" y1="4" x2="12" y2="20" gradientUnits="userSpaceOnUse">
<stop stop-color="#FDC121"/>
<stop offset="1" stop-color="#F7A308"/>
</linearGradient>
</defs>
</svg>
