<svg width="24" height="24" viewBox="0 0 24 24" fill="none" xmlns="http://www.w3.org/2000/svg">
<path d="M3 6C3 4.89543 3.89543 4 5 4H10.5858C10.851 4 11.1054 4.10536 11.2929 4.29289L12.7071 5.70711C12.8946 5.89464 13.149 6 13.4142 6H19C20.1046 6 21 6.89543 21 8V18C21 19.1046 20.1046 20 19 20H11.5C11.2239 20 11 19.7761 11 19.5V13.5C11 12.6716 10.3284 12 9.5 12H3.5C3.22386 12 3 11.7761 3 11.5V6Z" fill="url(#paint0_linear_48_1427)"/>
<path d="M9.85355 13.1464C9.90149 13.1944 9.93766 13.2496 9.96206 13.3086C9.98651 13.3676 10 13.4322 10 13.5V19.5C10 19.7761 9.77614 20 9.5 20C9.22386 20 9 19.7761 9 19.5V14.7071L3.85355 19.8536C3.65829 20.0488 3.34171 20.0488 3.14645 19.8536C2.95118 19.6583 2.95118 19.3417 3.14645 19.1464L8.29289 14H3.5C3.22386 14 3 13.7761 3 13.5C3 13.2239 3.22386 13 3.5 13H9.49985C9.56764 13 9.63244 13.0135 9.69139 13.0379C9.75036 13.0623 9.80561 13.0985 9.85355 13.1464Z" fill="url(#paint1_linear_48_1427)"/>
<defs>
<linearGradient id="paint0_linear_48_1427" x1="12" y1="4" x2="12" y2="20" gradientUnits="userSpaceOnUse">
<stop stop-color="#FDC121"/>
<stop offset="1" stop-color="#F7A308"/>
</linearGradient>
<linearGradient id="paint1_linear_48_1427" x1="12" y1="4" x2="12" y2="20" gradientUnits="userSpaceOnUse">
<stop stop-color="#FDC121"/>
<stop offset="1" stop-color="#F7A308"/>
</linearGradient>
</defs>
</svg>
