<svg width="24" height="24" viewBox="0 0 24 24" fill="none" xmlns="http://www.w3.org/2000/svg">
<path fill-rule="evenodd" clip-rule="evenodd" d="M5 4C3.89543 4 3 4.89543 3 6V18C3 19.1046 3.89543 20 5 20H19C20.1046 20 21 19.1046 21 18V8C21 6.89543 20.1046 6 19 6H13.4142C13.149 6 12.8946 5.89464 12.7071 5.70711L11.2929 4.29289C11.1054 4.10536 10.851 4 10.5858 4H5ZM10.9999 13C12.1044 13 12.9999 12.1046 12.9999 11C12.9999 9.89543 12.1044 9 10.9999 9C9.8953 9 8.99986 9.89543 8.99986 11C8.99986 12.1046 9.8953 13 10.9999 13ZM14.4027 17C14.7033 17 14.9383 16.735 14.8592 16.4449C14.3963 14.7477 12.8438 13.5 10.9999 13.5C9.15592 13.5 7.60337 14.7477 7.14048 16.4449C7.06138 16.735 7.2963 17 7.59702 17H14.4027ZM12.8805 12.6472C13.2662 12.2073 13.4999 11.631 13.4999 11C13.4999 10.369 13.2662 9.79269 12.8805 9.35278C12.7633 9.21912 12.8221 9 12.9999 9C14.1044 9 14.9999 9.89543 14.9999 11C14.9999 12.1046 14.1044 13 12.9999 13C12.8221 13 12.7633 12.7809 12.8805 12.6472ZM15.9157 17C15.6629 17 15.4527 16.8104 15.3994 16.5633C15.1562 15.4365 14.5251 14.5023 13.661 13.8699C13.5204 13.7669 13.5912 13.5396 13.7623 13.5726C15.2611 13.8618 16.4618 14.9877 16.8592 16.4449C16.9384 16.735 16.7034 17 16.4027 17H15.9157Z" fill="url(#paint0_linear_48_1282)"/>
<defs>
<linearGradient id="paint0_linear_48_1282" x1="12" y1="4" x2="12" y2="20" gradientUnits="userSpaceOnUse">
<stop stop-color="#FDC121"/>
<stop offset="1" stop-color="#F7A308"/>
</linearGradient>
</defs>
</svg>
