<svg width="24" height="24" viewBox="0 0 24 24" fill="none" xmlns="http://www.w3.org/2000/svg">
<path d="M12.5 16L12.5 14.2071L13.2929 15C13.4881 15.1953 13.8047 15.1953 14 15C14.1952 14.8047 14.1952 14.4882 14 14.2929L12.3535 12.6465C12.1583 12.4512 11.8417 12.4512 11.6464 12.6465L9.99999 14.2929C9.80472 14.4882 9.80472 14.8047 9.99999 15C10.1952 15.1953 10.5118 15.1953 10.7071 15L11.5 14.2071L11.5 16H12.5Z" fill="url(#paint0_linear_48_1525)"/>
<path fill-rule="evenodd" clip-rule="evenodd" d="M5 4C3.89543 4 3 4.89543 3 6V18C3 19.1046 3.89543 20 5 20H19C20.1046 20 21 19.1046 21 18V8C21 6.89543 20.1046 6 19 6H13.4142C13.149 6 12.8946 5.89464 12.7071 5.70711L11.2929 4.29289C11.1054 4.10536 10.851 4 10.5858 4H5ZM12.5 16H14.2057L14.2116 16L14.2175 16H14.2402C15.4479 15.9847 16.4221 15.0055 16.4221 13.8C16.4221 12.585 15.4324 11.6 14.2116 11.6L14.1781 11.6002C13.755 10.6572 12.8044 10 11.6996 10C10.2013 10 8.98672 11.2088 8.98672 12.7C8.98672 12.7375 8.98749 12.7749 8.98902 12.8121C8.19487 12.9095 7.58002 13.5833 7.58002 14.4C7.58002 15.2837 8.29979 16 9.18767 16L9.19382 16H11.5L11.4999 17.5C11.4999 17.7762 11.7238 18 11.9999 18C12.2761 18 12.4999 17.7762 12.4999 17.5L12.5 16Z" fill="url(#paint1_linear_48_1525)"/>
<defs>
<linearGradient id="paint0_linear_48_1525" x1="12" y1="4" x2="12" y2="20" gradientUnits="userSpaceOnUse">
<stop stop-color="#FDC121"/>
<stop offset="1" stop-color="#F7A308"/>
</linearGradient>
<linearGradient id="paint1_linear_48_1525" x1="12" y1="4" x2="12" y2="20" gradientUnits="userSpaceOnUse">
<stop stop-color="#FDC121"/>
<stop offset="1" stop-color="#F7A308"/>
</linearGradient>
</defs>
</svg>
