<svg width="24" height="24" viewBox="0 0 24 24" fill="none" xmlns="http://www.w3.org/2000/svg">
<path fill-rule="evenodd" clip-rule="evenodd" d="M5 4C3.89543 4 3 4.89543 3 6V18C3 19.1046 3.89543 20 5 20H19C20.1046 20 21 19.1046 21 18V8C21 6.89543 20.1046 6 19 6H13.4142C13.149 6 12.8946 5.89464 12.7071 5.70711L11.2929 4.29289C11.1054 4.10536 10.851 4 10.5858 4H5ZM15.4056 13.2695C15.4315 13.0951 15.5837 12.9767 15.7479 13.0039C15.911 13.0316 16.0222 13.1956 15.9962 13.37C15.6828 15.4732 14.007 17 12.0132 17C10.6896 17 9.46968 16.3059 8.72287 15.1798L8.59206 15.8973C8.5644 16.0501 8.43935 16.1561 8.29933 16.1561C8.28031 16.1561 8.26129 16.1543 8.24228 16.15C8.07978 16.1161 7.97432 15.9484 8.00544 15.7752L8.28838 14.2225C8.3195 14.0493 8.47681 13.9353 8.63874 13.9698L10.0909 14.2724C10.2522 14.3057 10.3577 14.474 10.3266 14.6472C10.2949 14.8204 10.1387 14.9338 9.9762 14.8999L9.15851 14.7292C9.7895 15.7364 10.8544 16.3608 12.0132 16.3608C13.712 16.3608 15.1388 15.0608 15.4056 13.2695ZM15.4091 10.1055C15.4413 9.93249 15.5977 9.8194 15.7604 9.85339C15.9214 9.888 16.026 10.0567 15.9944 10.2303L15.7081 11.7863C15.692 11.8691 15.6465 11.9427 15.581 11.9903C15.5316 12.0255 15.4741 12.044 15.4154 12.044C15.3959 12.044 15.3769 12.0422 15.3574 12.0378L13.9103 11.7301C13.7488 11.6955 13.6436 11.5268 13.6758 11.3538C13.7074 11.1801 13.8649 11.067 14.0259 11.1017L14.8198 11.2704C14.1897 10.2649 13.1296 9.64143 11.9769 9.64143C10.2861 9.64143 8.86324 10.9404 8.59304 12.7306C8.56889 12.8875 8.44241 13 8.29869 13C8.28316 13 8.26707 12.9981 8.25097 12.9957C8.08827 12.9672 7.97789 12.8029 8.00376 12.628C8.32168 10.5257 9.99178 9 11.9769 9C13.305 9 14.5289 9.7057 15.2729 10.8477L15.4091 10.1055Z" fill="url(#paint0_linear_48_1314)"/>
<defs>
<linearGradient id="paint0_linear_48_1314" x1="12" y1="4" x2="12" y2="20" gradientUnits="userSpaceOnUse">
<stop stop-color="#FDC121"/>
<stop offset="1" stop-color="#F7A308"/>
</linearGradient>
</defs>
</svg>
