<svg width="48" height="48" viewBox="0 0 48 48" fill="none" xmlns="http://www.w3.org/2000/svg">
<path fill-rule="evenodd" clip-rule="evenodd" d="M8 8C6.89543 8 6 8.89543 6 10V37C6 38.6569 7.34315 40 9 40H39C40.6569 40 42 38.6569 42 37V14C42 12.3431 40.6569 11 39 11H27.6569C26.596 11 25.5786 10.5786 24.8284 9.82843L24.1716 9.17157C23.4214 8.42143 22.404 8 21.3431 8H8ZM24 18C28.9911 18 33 21.605 33 26C33 30.394 28.992 33.999 24.0009 34C22.7603 34.0036 21.5308 33.7741 20.3797 33.3252C20.1342 33.2292 19.8674 33.1862 19.608 33.2374L15.828 33.9862C15.5816 34.0356 15.3277 33.9478 15.1653 33.7586C15.0019 33.5684 14.9557 33.3069 15.0443 33.0738L15.9868 30.5833C16.1336 30.1965 16.0459 29.7696 15.852 29.4029C15.3056 28.3689 15 27.216 15 26C15 21.605 19.009 18 24 18Z" fill="url(#paint0_linear_48_1434)"/>
<defs>
<linearGradient id="paint0_linear_48_1434" x1="24" y1="8" x2="24" y2="40" gradientUnits="userSpaceOnUse">
<stop stop-color="#FDC121"/>
<stop offset="1" stop-color="#F7A308"/>
</linearGradient>
</defs>
</svg>
