<svg width="48" height="48" viewBox="0 0 48 48" fill="none" xmlns="http://www.w3.org/2000/svg">
<path fill-rule="evenodd" clip-rule="evenodd" d="M8 8C6.89543 8 6 8.89543 6 10V37C6 38.6569 7.34315 40 9 40H39C40.6569 40 42 38.6569 42 37V14C42 12.3431 40.6569 11 39 11H27.6569C26.596 11 25.5786 10.5786 24.8284 9.82843L24.1716 9.17157C23.4214 8.42143 22.404 8 21.3431 8H8ZM16 17C14.3431 17 13 18.3431 13 20V24C13 24.5523 13.4477 25 14 25C14.5523 25 15 24.5523 15 24V20C15 19.4477 15.4477 19 16 19H32C32.5523 19 33 19.4477 33 20V32C33 32.5523 32.5523 33 32 33H24C23.4477 33 23 33.4477 23 34C23 34.5523 23.4477 35 24 35H32C33.6569 35 35 33.6569 35 32V20C35 18.3431 33.6569 17 32 17H16ZM20.9241 27.6172C20.8757 27.5001 20.804 27.3904 20.7092 27.295L20.705 27.2908C20.5242 27.1111 20.2751 27 20 27H14C13.4477 27 13 27.4477 13 28C13 28.5523 13.4477 29 14 29H17.5858L13.2929 33.2929C12.9024 33.6834 12.9024 34.3166 13.2929 34.7071C13.6834 35.0976 14.3166 35.0976 14.7071 34.7071L19 30.4142V34C19 34.5523 19.4477 35 20 35C20.5523 35 21 34.5523 21 34V28.0007L21 27.997C20.9996 27.8625 20.9727 27.7343 20.9241 27.6172Z" fill="url(#paint0_linear_48_1330)"/>
<defs>
<linearGradient id="paint0_linear_48_1330" x1="24" y1="8" x2="24" y2="40" gradientUnits="userSpaceOnUse">
<stop stop-color="#FDC121"/>
<stop offset="1" stop-color="#F7A308"/>
</linearGradient>
</defs>
</svg>
