<svg width="24" height="24" viewBox="0 0 24 24" fill="none" xmlns="http://www.w3.org/2000/svg">
<path fill-rule="evenodd" clip-rule="evenodd" d="M5 4C3.89543 4 3 4.89543 3 6V18C3 19.1046 3.89543 20 5 20H19C20.1046 20 21 19.1046 21 18V8C21 6.89543 20.1046 6 19 6H13.4142C13.149 6 12.8946 5.89464 12.7071 5.70711L11.2929 4.29289C11.1054 4.10536 10.851 4 10.5858 4H5ZM12 9C14.4955 9 16.5 10.8025 16.5 13C16.5 15.197 14.496 16.9995 12.0005 17C11.3802 17.0018 10.7654 16.8871 10.1899 16.6626C10.0671 16.6146 9.93371 16.5931 9.80401 16.6187L7.91402 16.9931C7.79079 17.0178 7.66386 16.9739 7.58263 16.8793C7.50094 16.7842 7.47786 16.6535 7.52217 16.5369L7.9934 15.2916C8.06679 15.0983 8.02294 14.8848 7.92602 14.7015C7.65279 14.1844 7.50002 13.608 7.50002 13C7.50002 10.8025 9.50448 9 12 9Z" fill="url(#paint0_linear_48_1441)"/>
<defs>
<linearGradient id="paint0_linear_48_1441" x1="12" y1="4" x2="12" y2="20" gradientUnits="userSpaceOnUse">
<stop stop-color="#FDC121"/>
<stop offset="1" stop-color="#F7A308"/>
</linearGradient>
</defs>
</svg>
