<svg width="48" height="48" viewBox="0 0 48 48" fill="none" xmlns="http://www.w3.org/2000/svg">
<path fill-rule="evenodd" clip-rule="evenodd" d="M8 8C6.89543 8 6 8.89543 6 10V37C6 38.6569 7.34315 40 9 40H39C40.6569 40 42 38.6569 42 37V14C42 12.3431 40.6569 11 39 11H27.6569C26.596 11 25.5786 10.5786 24.8284 9.82843L24.1716 9.17157C23.4214 8.42143 22.404 8 21.3431 8H8ZM24.6129 18.2097L24.7071 18.2929L28.7071 22.2929C29.0976 22.6834 29.0976 23.3166 28.7071 23.7071C28.3466 24.0676 27.7794 24.0953 27.3871 23.7903L27.2929 23.7071L25 21.414V29C25 29.5523 24.5523 30 24 30C23.4477 30 23 29.5523 23 29V21.414L20.7071 23.7071C20.3466 24.0676 19.7794 24.0953 19.3871 23.7903L19.2929 23.7071C18.9324 23.3466 18.9047 22.7794 19.2097 22.3871L19.2929 22.2929L23.2929 18.2929C23.6534 17.9324 24.2206 17.9047 24.6129 18.2097ZM29.1429 32C29.6162 32 30 32.4477 30 33C30 33.5523 29.6162 34 29.1429 34H18.8571C18.3838 34 18 33.5523 18 33C18 32.4477 18.3838 32 18.8571 32H29.1429Z" fill="url(#paint0_linear_48_1547)"/>
<defs>
<linearGradient id="paint0_linear_48_1547" x1="24" y1="8" x2="24" y2="40" gradientUnits="userSpaceOnUse">
<stop stop-color="#FDC121"/>
<stop offset="1" stop-color="#F7A308"/>
</linearGradient>
</defs>
</svg>
