<svg width="48" height="48" viewBox="0 0 48 48" fill="none" xmlns="http://www.w3.org/2000/svg">
<path fill-rule="evenodd" clip-rule="evenodd" d="M8 8C6.89543 8 6 8.89543 6 10V37C6 38.6569 7.34315 40 9 40H39C40.6569 40 42 38.6569 42 37V14C42 12.3431 40.6569 11 39 11H27.6569C26.596 11 25.5786 10.5786 24.8284 9.82843L24.1716 9.17157C23.4214 8.42143 22.404 8 21.3431 8H8ZM18.3203 24.9469C17.7994 24.7632 17.5261 24.1921 17.7098 23.6713C18.6891 20.8945 21.3207 19 24.3128 19C26.3136 19 28.1605 19.8473 29.4572 21.2516L29.6441 20.2893C29.7414 19.7889 30.1961 19.4487 30.6919 19.4822L30.8165 19.4985C31.317 19.5958 31.6571 20.0505 31.6236 20.5463L31.6073 20.671L30.9327 24.1415C30.8355 24.642 30.3807 24.9822 29.8849 24.9486L29.7603 24.9324L26.2897 24.2577C25.7476 24.1524 25.3935 23.6274 25.4989 23.0853C25.5962 22.5849 26.0509 22.2447 26.5467 22.2782L26.6713 22.2945L27.9211 22.5375C26.9987 21.5767 25.7083 21 24.3128 21C22.1754 21 20.2953 22.3535 19.5959 24.3365C19.4123 24.8573 18.8411 25.1306 18.3203 24.9469ZM30.9158 28.329C31.0995 27.8082 30.8262 27.237 30.3054 27.0533C29.7845 26.8697 29.2134 27.143 29.0297 27.6638C28.3304 29.6467 26.4502 31.0003 24.3128 31.0003C22.9174 31.0003 21.627 30.4236 20.7046 29.4628L21.9546 29.7058L22.0792 29.7221C22.575 29.7556 23.0297 29.4154 23.127 28.915C23.2324 28.3729 22.8783 27.8479 22.3362 27.7426L18.8656 27.0679L18.741 27.0517C18.2452 27.0182 17.7904 27.3583 17.6932 27.8588L17.0186 31.3293L17.0023 31.454C16.9688 31.9498 17.3089 32.4045 17.8094 32.5018L17.934 32.5181C18.4298 32.5516 18.8845 32.2114 18.9818 31.711L19.1684 30.7486C20.4651 32.153 22.312 33.0003 24.3128 33.0003C27.3049 33.0003 29.9365 31.1057 30.9158 28.329Z" fill="url(#paint0_linear_48_1298)"/>
<defs>
<linearGradient id="paint0_linear_48_1298" x1="24" y1="8" x2="24" y2="40" gradientUnits="userSpaceOnUse">
<stop stop-color="#FDC121"/>
<stop offset="1" stop-color="#F7A308"/>
</linearGradient>
</defs>
</svg>
