<svg width="48" height="48" viewBox="0 0 48 48" fill="none" xmlns="http://www.w3.org/2000/svg">
<path fill-rule="evenodd" clip-rule="evenodd" d="M8 8C6.89543 8 6 8.89543 6 10V37C6 38.6569 7.34315 40 9 40H39C40.6569 40 42 38.6569 42 37V14C42 12.3431 40.6569 11 39 11H27.6569C26.596 11 25.5786 10.5786 24.8284 9.82843L24.1716 9.17157C23.4214 8.42143 22.404 8 21.3431 8H8ZM22 26C24.2091 26 26 24.2091 26 22C26 19.7909 24.2091 18 22 18C19.7908 18 18 19.7909 18 22C18 24.2091 19.7908 26 22 26ZM28.8056 34C29.4069 34 29.8769 33.47 29.7187 32.8898C28.7929 29.4954 25.6878 27 22 27C18.3121 27 15.207 29.4954 14.2812 32.8898C14.123 33.47 14.5929 34 15.1943 34H28.8056ZM25.7613 25.2944C26.5325 24.4146 27 23.2619 27 22C27 20.7381 26.5325 19.5854 25.7613 18.7056C25.5269 18.4382 25.6445 18 26 18C28.2091 18 30 19.7909 30 22C30 24.2091 28.2091 26 26 26C25.6445 26 25.5269 25.5618 25.7613 25.2944ZM31.8316 34C31.326 34 30.9057 33.6209 30.799 33.1266C30.3127 30.873 29.0505 29.0046 27.3222 27.7397C27.041 27.5338 27.1826 27.0791 27.5249 27.1452C30.5224 27.7237 32.9239 29.9754 33.7187 32.8898C33.877 33.47 33.4071 34 32.8056 34H31.8316Z" fill="url(#paint0_linear_48_1271)"/>
<defs>
<linearGradient id="paint0_linear_48_1271" x1="24" y1="8" x2="24" y2="40" gradientUnits="userSpaceOnUse">
<stop stop-color="#FDC121"/>
<stop offset="1" stop-color="#F7A308"/>
</linearGradient>
</defs>
</svg>
