<svg width="16" height="16" viewBox="0 0 16 16" fill="none" xmlns="http://www.w3.org/2000/svg">
<g clip-path="url(#clip0_1300_1066)">
<path fill-rule="evenodd" clip-rule="evenodd" d="M2.25 8C2.25 4.82436 4.82436 2.25 8 2.25C11.1756 2.25 13.75 4.82436 13.75 8C13.75 11.1756 11.1756 13.75 8 13.75C4.82436 13.75 2.25 11.1756 2.25 8ZM8 0.75C3.99594 0.75 0.75 3.99594 0.75 8C0.75 12.0041 3.99594 15.25 8 15.25C12.0041 15.25 15.25 12.0041 15.25 8C15.25 3.99594 12.0041 0.75 8 0.75ZM11.0451 10.0403C11.3297 9.73938 11.3166 9.26469 11.0156 8.98005C10.7147 8.6954 10.24 8.70859 9.95539 9.00951C9.65692 9.32504 8.9597 9.91666 7.99992 9.91666C7.04076 9.91666 6.34381 9.32581 6.04497 9.01005C5.76024 8.70921 5.28555 8.69615 4.98471 8.98087C4.68387 9.2656 4.6708 9.74029 4.95553 10.0411C5.35547 10.4637 6.42285 11.4167 7.99992 11.4167C9.57795 11.4167 10.6457 10.4626 11.0451 10.0403ZM5 6C5 5.44772 5.44573 5 5.99557 5H6.00443C6.55427 5 7 5.44772 7 6C7 6.55228 6.55427 7 6.00443 7H5.99557C5.44573 7 5 6.55228 5 6ZM9.99557 5C9.44573 5 9 5.44772 9 6C9 6.55228 9.44573 7 9.99557 7H10.0044C10.5543 7 11 6.55228 11 6C11 5.44772 10.5543 5 10.0044 5H9.99557Z" fill="#009B48"/>
</g>
<defs>
<clipPath id="clip0_1300_1066">
<rect width="16" height="16" fill="white"/>
</clipPath>
</defs>
</svg>
