<svg width="16" height="16" viewBox="0 0 16 16" fill="none" xmlns="http://www.w3.org/2000/svg">
<g clip-path="url(#clip0_1300_4940)">
<path fill-rule="evenodd" clip-rule="evenodd" d="M2.25 8C2.25 4.82436 4.82436 2.25 8 2.25C11.1756 2.25 13.75 4.82436 13.75 8C13.75 11.1756 11.1756 13.75 8 13.75C4.82436 13.75 2.25 11.1756 2.25 8ZM8 0.75C3.99594 0.75 0.75 3.99594 0.75 8C0.75 12.0041 3.99594 15.25 8 15.25C12.0041 15.25 15.25 12.0041 15.25 8C15.25 3.99594 12.0041 0.75 8 0.75ZM5.99557 5C5.44573 5 5 5.44772 5 6C5 6.55228 5.44573 7 5.99557 7H6.00443C6.55427 7 7 6.55228 7 6C7 5.44772 6.55427 5 6.00443 5H5.99557ZM9 6C9 5.44772 9.44573 5 9.99557 5H10.0044C10.5543 5 11 5.44772 11 6C11 6.55228 10.5543 7 10.0044 7H9.99557C9.44573 7 9 6.55228 9 6ZM4 8.25C3.58579 8.25 3.25 8.58579 3.25 9C3.25 10.0191 3.86806 10.9648 4.70113 11.624C5.55114 12.2965 6.71394 12.75 8 12.75C9.28606 12.75 10.4489 12.2965 11.2989 11.624C12.1319 10.9648 12.75 10.0191 12.75 9C12.75 8.58579 12.4142 8.25 12 8.25H4ZM5.63187 10.4477C5.34812 10.2232 5.13777 9.98343 4.99383 9.75H11.0062C10.8622 9.98343 10.6519 10.2232 10.3681 10.4477C9.77381 10.9179 8.9366 11.25 8 11.25C7.0634 11.25 6.22619 10.9179 5.63187 10.4477Z" fill="#009B48"/>
</g>
<defs>
<clipPath id="clip0_1300_4940">
<rect width="16" height="16" fill="white"/>
</clipPath>
</defs>
</svg>
