<svg width="16" height="16" viewBox="0 0 16 16" fill="none" xmlns="http://www.w3.org/2000/svg">
<g clip-path="url(#clip0_1300_4159)">
<path fill-rule="evenodd" clip-rule="evenodd" d="M8.00002 1.99996C4.68631 1.99996 2.00002 4.68625 2.00002 7.99996C2.00002 11.3137 4.68631 14 8.00002 14C11.3137 14 14 11.3137 14 7.99996C14 4.68625 11.3137 1.99996 8.00002 1.99996ZM0.666687 7.99996C0.666687 3.94987 3.94993 0.666626 8.00002 0.666626C12.0501 0.666626 15.3334 3.94987 15.3334 7.99996C15.3334 12.05 12.0501 15.3333 8.00002 15.3333C3.94993 15.3333 0.666687 12.05 0.666687 7.99996ZM5.86463 11.0694C5.64318 11.3615 5.22702 11.4201 4.93339 11.1999C4.63884 10.979 4.57915 10.5611 4.80006 10.2666L4.80073 10.2657L4.8015 10.2647L4.80333 10.2623L4.80813 10.256L4.82233 10.2378C4.83383 10.2233 4.8494 10.204 4.86897 10.1807C4.90806 10.1341 4.96339 10.071 5.03436 9.99698C5.17574 9.84945 5.38235 9.65513 5.64961 9.46076C6.18157 9.07388 6.98304 8.66659 8.00006 8.66659C9.01708 8.66659 9.81855 9.07388 10.3505 9.46076C10.6178 9.65513 10.8244 9.84945 10.9658 9.99698C11.0367 10.071 11.0921 10.1341 11.1312 10.1807C11.1507 10.204 11.1663 10.2233 11.1778 10.2378L11.192 10.256L11.1968 10.2623L11.1986 10.2647L11.1994 10.2657L11.2001 10.2666C11.421 10.5611 11.3613 10.979 11.0667 11.1999C10.7731 11.4201 10.3569 11.3615 10.1355 11.0694L10.1324 11.0654C10.1284 11.0604 10.1209 11.051 10.1099 11.0379C10.0878 11.0115 10.0519 10.9705 10.0031 10.9195C9.90491 10.8171 9.75735 10.678 9.56628 10.5391C9.18157 10.2593 8.64971 9.99992 8.00006 9.99992C7.35041 9.99992 6.81855 10.2593 6.43384 10.5391C6.24277 10.678 6.09521 10.8171 5.99701 10.9195C5.94818 10.9705 5.91237 11.0115 5.89027 11.0379C5.87924 11.051 5.8717 11.0604 5.86773 11.0654L5.86463 11.0694ZM7.18362 6.58095C7.41613 6.29546 7.37319 5.87554 7.0877 5.64303C6.80221 5.41052 6.38229 5.45347 6.14978 5.73896C5.99655 5.92711 5.81814 5.99995 5.6667 5.99995C5.52194 5.99995 5.3475 5.93265 5.17582 5.72956C4.93813 5.44838 4.51749 5.41313 4.23631 5.65083C3.95513 5.88853 3.91988 6.30917 4.15758 6.59035C4.53257 7.03393 5.05813 7.33329 5.6667 7.33329C6.2686 7.33329 6.81019 7.03947 7.18362 6.58095ZM11.8503 6.58095C12.0828 6.29546 12.0399 5.87554 11.7544 5.64303C11.4689 5.41052 11.049 5.45347 10.8164 5.73896C10.6632 5.92711 10.4848 5.99995 10.3334 5.99995C10.1886 5.99995 10.0142 5.93265 9.84249 5.72956C9.60479 5.44838 9.18416 5.41313 8.90298 5.65083C8.62179 5.88853 8.58655 6.30917 8.82424 6.59035C9.19923 7.03393 9.72479 7.33329 10.3334 7.33329C10.9353 7.33329 11.4769 7.03947 11.8503 6.58095Z" fill="#F63D6B"/>
</g>
<defs>
<clipPath id="clip0_1300_4159">
<rect width="16" height="16" fill="white"/>
</clipPath>
</defs>
</svg>
