<svg width="16" height="16" viewBox="0 0 16 16" fill="none" xmlns="http://www.w3.org/2000/svg">
<g clip-path="url(#clip0_1300_4959)">
<path fill-rule="evenodd" clip-rule="evenodd" d="M2.25 8C2.25 4.82436 4.82436 2.25 8 2.25C11.1756 2.25 13.75 4.82436 13.75 8C13.75 11.1756 11.1756 13.75 8 13.75C4.82436 13.75 2.25 11.1756 2.25 8ZM8 0.75C3.99594 0.75 0.75 3.99594 0.75 8C0.75 12.0041 3.99594 15.25 8 15.25C12.0041 15.25 15.25 12.0041 15.25 8C15.25 3.99594 12.0041 0.75 8 0.75ZM11.0451 10.1513C11.3297 10.4522 11.3166 10.9269 11.0156 11.2115C10.7147 11.4962 10.24 11.483 9.95539 11.182C9.65692 10.8665 8.9597 10.2749 7.99992 10.2749C7.04076 10.2749 6.34381 10.8658 6.04497 11.1815C5.76024 11.4823 5.28555 11.4954 4.98471 11.2107C4.68387 10.926 4.6708 10.4513 4.95553 10.1504C5.35547 9.72785 6.42285 8.7749 7.99992 8.7749C9.57795 8.7749 10.6457 9.729 11.0451 10.1513ZM5 6C5 5.44772 5.44573 5 5.99557 5H6.00443C6.55427 5 7 5.44772 7 6C7 6.55228 6.55427 7 6.00443 7H5.99557C5.44573 7 5 6.55228 5 6ZM9.99557 5C9.44573 5 9 5.44772 9 6C9 6.55228 9.44573 7 9.99557 7H10.0044C10.5543 7 11 6.55228 11 6C11 5.44772 10.5543 5 10.0044 5H9.99557Z" fill="#E31B57"/>
</g>
<defs>
<clipPath id="clip0_1300_4959">
<rect width="16" height="16" fill="white"/>
</clipPath>
</defs>
</svg>
