<svg width="16" height="16" viewBox="0 0 16 16" fill="none" xmlns="http://www.w3.org/2000/svg">
<path fill-rule="evenodd" clip-rule="evenodd" d="M1.52879 1.52864C1.78914 1.26829 2.21125 1.26829 2.4716 1.52864L4.89742 3.95446C4.93628 3.98533 4.97217 4.02097 5.00416 4.0612L11.9315 10.9886C11.9767 11.0232 12.018 11.0642 12.0541 11.1112L14.4716 13.5286C14.732 13.789 14.732 14.2111 14.4716 14.4714C14.2113 14.7318 13.7891 14.7318 13.5288 14.4714L11.4263 12.369C10.4631 12.9326 9.31462 13.3334 8.0002 13.3334C6.09241 13.3334 4.53709 12.4902 3.38469 11.5284C2.23386 10.5679 1.44484 9.45718 1.04967 8.83148C1.04445 8.82321 1.03909 8.81477 1.03362 8.80615C0.955193 8.68271 0.853372 8.52244 0.801907 8.29787C0.760354 8.11655 0.760368 7.88334 0.801941 7.70203C0.85344 7.47744 0.955548 7.31676 1.03418 7.19304C1.0397 7.18435 1.0451 7.17585 1.05036 7.16751C1.45194 6.53181 2.26747 5.38354 3.46376 4.40641L1.52879 2.47145C1.26844 2.2111 1.26844 1.78899 1.52879 1.52864ZM4.41211 5.35476C3.31932 6.2175 2.55596 7.2807 2.17761 7.87961C2.15395 7.91707 2.13736 7.94337 2.1235 7.96619C2.11425 7.98142 2.10815 7.99194 2.10409 7.99926L2.10409 8.00003L2.10409 8.00084C2.1081 8.00805 2.1141 8.01841 2.12319 8.03338C2.13696 8.05606 2.15344 8.0822 2.17701 8.11951C2.53212 8.68179 3.23485 9.66666 4.23905 10.5048C5.24167 11.3416 6.50464 12 8.0002 12C8.90215 12 9.71846 11.761 10.4449 11.3875L9.35474 10.2974C8.95778 10.5318 8.49445 10.6667 8.0002 10.6667C6.52744 10.6667 5.33353 9.4728 5.33353 8.00004C5.33353 7.50578 5.46839 7.04245 5.70284 6.64549L4.41211 5.35476ZM6.71192 7.65457C6.68251 7.7647 6.66686 7.88048 6.66686 8.00004C6.66686 8.73642 7.26382 9.33337 8.0002 9.33337C8.11976 9.33337 8.23554 9.31773 8.34566 9.28832L6.71192 7.65457ZM8.0002 4.00004C7.74562 4.00004 7.49871 4.01903 7.25939 4.05442C6.89516 4.10827 6.55624 3.85666 6.50238 3.49243C6.44853 3.1282 6.70015 2.78927 7.06438 2.73542C7.36693 2.69069 7.67902 2.66671 8.0002 2.66671C9.90798 2.66671 11.4633 3.50985 12.6157 4.47166C13.7665 5.43216 14.5556 6.5429 14.9507 7.16861C14.9559 7.17687 14.9613 7.18531 14.9668 7.19393C15.0452 7.31738 15.147 7.47766 15.1985 7.70225C15.24 7.88357 15.24 8.11681 15.1984 8.29812C15.1469 8.52274 15.0447 8.68365 14.9659 8.80754C14.9604 8.81627 14.9549 8.82481 14.9496 8.83317C14.7374 9.16908 14.4154 9.63876 13.9887 10.1483C13.7524 10.4306 13.3319 10.4679 13.0496 10.2315C12.7673 9.99512 12.7301 9.57465 12.9664 9.29236C13.3473 8.83746 13.6349 8.41787 13.8224 8.121C13.8462 8.08346 13.8628 8.05707 13.8767 8.03417C13.8861 8.01879 13.8922 8.00819 13.8963 8.00081L13.8963 8.00006L13.8963 7.99925C13.8923 7.99203 13.8863 7.98168 13.8772 7.96671C13.8634 7.94403 13.8469 7.91788 13.8234 7.88057C13.4683 7.31829 12.7655 6.33342 11.7613 5.49531C10.7587 4.65851 9.49575 4.00004 8.0002 4.00004Z" fill="#616366"/>
</svg>
