<svg width="16" height="16" viewBox="0 0 16 16" fill="none" xmlns="http://www.w3.org/2000/svg">
<path fill-rule="evenodd" clip-rule="evenodd" d="M2.53082 1.46967C2.23793 1.17678 1.76305 1.17678 1.47016 1.46967C1.17726 1.76256 1.17726 2.23744 1.47016 2.53033L3.41759 4.47776C2.24336 5.42192 1.44236 6.521 1.04572 7.13231L1.02896 7.158C0.95159 7.27633 0.840111 7.44682 0.784162 7.68438C0.738626 7.87772 0.738612 8.12208 0.784124 8.31543C0.840035 8.55296 0.95121 8.72304 1.02839 8.84111L1.04503 8.86663C1.44002 9.47555 2.2283 10.556 3.37877 11.4909C4.53144 12.4275 6.08906 13.25 8 13.25C9.26373 13.25 10.3745 12.8897 11.3146 12.3748L13.4702 14.5303C13.7631 14.8232 14.2379 14.8232 14.5308 14.5303C14.8237 14.2374 14.8237 13.7626 14.5308 13.4697L2.53082 1.46967ZM10.1981 11.2583L9.2973 10.3575C8.91047 10.5626 8.46811 10.6786 8 10.6786C6.51082 10.6786 5.26913 9.49812 5.26913 8C5.26913 7.51997 5.39816 7.07031 5.62207 6.68224L4.48564 5.54581C3.41991 6.36731 2.67425 7.37821 2.30405 7.94877L2.27091 8L2.30345 8.05032C2.65156 8.58696 3.34077 9.52723 4.32471 10.3268C5.30644 11.1245 6.54016 11.75 8 11.75C8.80317 11.75 9.53676 11.5611 10.1981 11.2583ZM6.78027 7.84044C6.77291 7.89268 6.76913 7.94595 6.76913 8C6.76913 8.63212 7.30117 9.17857 8 9.17857C8.03831 9.17857 8.07617 9.17691 8.11349 9.17366L6.78027 7.84044Z" fill="#FFFFFF"/>
<path d="M7.27656 4.3017C7.51023 4.26806 7.75135 4.25 8 4.25C9.45984 4.25 10.6936 4.87551 11.6753 5.67324C12.6592 6.47277 13.3484 7.41304 13.6965 7.94968L13.7291 8L13.6956 8.05174C13.512 8.33476 13.23 8.73539 12.8564 9.16983C12.5863 9.48388 12.6219 9.95741 12.936 10.2275C13.25 10.4976 13.7235 10.4619 13.9936 10.1479C14.4198 9.65231 14.7416 9.19543 14.9539 8.86828L14.9707 8.84248C15.0482 8.72401 15.1599 8.55328 15.2158 8.31569C15.2614 8.12234 15.2614 7.87796 15.2159 7.6846C15.16 7.44706 15.0488 7.27697 14.9716 7.15889L14.955 7.13337C14.56 6.52446 13.7717 5.44396 12.6212 4.50912C11.4686 3.57247 9.91094 2.75 8 2.75C7.67841 2.75 7.36588 2.77338 7.06285 2.817C6.65286 2.87601 6.36834 3.25622 6.42735 3.66621C6.48637 4.07619 6.86657 4.36071 7.27656 4.3017Z" fill="#FFFFFF"/>
</svg>
