<svg width="16" height="16" viewBox="0 0 16 16" fill="none" xmlns="http://www.w3.org/2000/svg">
<path d="M6.66691 8.00008C6.66691 7.2637 7.26386 6.66675 8.00024 6.66675C8.73662 6.66675 9.33358 7.2637 9.33358 8.00008C9.33358 8.73646 8.73662 9.33341 8.00024 9.33341C7.26386 9.33341 6.66691 8.73646 6.66691 8.00008Z" fill="#C1C2C4"/>
<path fill-rule="evenodd" clip-rule="evenodd" d="M8.00019 2.66675C6.09241 2.66675 4.53708 3.50989 3.38469 4.4717C2.23385 5.4322 1.44483 6.54294 1.04967 7.16865L1.03361 7.19397C0.955196 7.3174 0.853387 7.47765 0.801919 7.70219C0.760363 7.8835 0.760363 8.11667 0.801919 8.29797C0.853387 8.52251 0.955196 8.68277 1.03361 8.80619L1.04967 8.83152C1.44483 9.45722 2.23385 10.568 3.38469 11.5285C4.53709 12.4903 6.09241 13.3334 8.00019 13.3334C9.90797 13.3334 11.4633 12.4903 12.6157 11.5285C13.7665 10.568 14.5555 9.45722 14.9507 8.83152L14.9668 8.80619C15.0452 8.68277 15.147 8.52251 15.1985 8.29797C15.24 8.11667 15.24 7.8835 15.1985 7.70219C15.147 7.47766 15.0452 7.31741 14.9668 7.19398L14.9507 7.16865C14.5555 6.54294 13.7665 5.4322 12.6157 4.4717C11.4633 3.50989 9.90797 2.66675 8.00019 2.66675ZM8.00024 5.33341C6.52748 5.33341 5.33358 6.52732 5.33358 8.00008C5.33358 9.47284 6.52748 10.6667 8.00024 10.6667C9.473 10.6667 10.6669 9.47284 10.6669 8.00008C10.6669 6.52732 9.473 5.33341 8.00024 5.33341Z" fill="#C1C2C4"/>
</svg>
