<svg width="16" height="16" viewBox="0 0 16 16" fill="none" xmlns="http://www.w3.org/2000/svg">
<path fill-rule="evenodd" clip-rule="evenodd" d="M8 5.25C6.48122 5.25 5.25 6.48122 5.25 8C5.25 9.51878 6.48122 10.75 8 10.75C9.51878 10.75 10.75 9.51878 10.75 8C10.75 6.48122 9.51878 5.25 8 5.25ZM6.75 8C6.75 7.30964 7.30964 6.75 8 6.75C8.69036 6.75 9.25 7.30964 9.25 8C9.25 8.69036 8.69036 9.25 8 9.25C7.30964 9.25 6.75 8.69036 6.75 8Z" fill="#FFFFFF"/>
<path fill-rule="evenodd" clip-rule="evenodd" d="M8 2.75C6.08906 2.75 4.53144 3.57247 3.37876 4.50912C2.22829 5.44396 1.44001 6.52445 1.04502 7.13337L1.02839 7.15888C0.951213 7.27694 0.840051 7.44701 0.784138 7.68451C0.738621 7.87784 0.738621 8.12216 0.784138 8.31549C0.840051 8.55299 0.951213 8.72305 1.02839 8.84112L1.04502 8.86663C1.44001 9.47555 2.22829 10.556 3.37876 11.4909C4.53144 12.4275 6.08906 13.25 8 13.25C9.91094 13.25 11.4686 12.4275 12.6212 11.4909C13.7717 10.556 14.56 9.47555 14.955 8.86663L14.9716 8.84112C15.0488 8.72305 15.16 8.55299 15.2159 8.31549C15.2614 8.12216 15.2614 7.87784 15.2159 7.68451C15.1599 7.447 15.0488 7.27694 14.9716 7.15888L14.955 7.13337C14.56 6.52445 13.7717 5.44396 12.6212 4.50912C11.4686 3.57247 9.91094 2.75 8 2.75ZM2.30345 7.94968C2.65155 7.41304 3.34076 6.47277 4.3247 5.67324C5.30644 4.87551 6.54016 4.25 8 4.25C9.45984 4.25 10.6936 4.87551 11.6753 5.67324C12.6592 6.47277 13.3485 7.41304 13.6966 7.94968L13.7291 8L13.6966 8.05032C13.3485 8.58696 12.6592 9.52723 11.6753 10.3268C10.6936 11.1245 9.45984 11.75 8 11.75C6.54016 11.75 5.30644 11.1245 4.3247 10.3268C3.34076 9.52723 2.65155 8.58696 2.30345 8.05032L2.27091 8L2.30345 7.94968Z" fill="#FFFFFF"/>
</svg>
