<svg width="24" height="24" viewBox="0 0 24 24" fill="none" xmlns="http://www.w3.org/2000/svg">
<path d="M12 8C12.4142 8 12.75 8.33579 12.75 8.75V13.25C12.75 13.6642 12.4142 14 12 14C11.5858 14 11.25 13.6642 11.25 13.25V8.75C11.25 8.33579 11.5858 8 12 8Z" fill="#303233"/>
<path d="M12 16.5C11.5858 16.5 11.25 16.8358 11.25 17.25C11.25 17.6642 11.5858 18 12 18H12.01C12.4242 18 12.76 17.6642 12.76 17.25C12.76 16.8358 12.4242 16.5 12.01 16.5H12Z" fill="#303233"/>
<path fill-rule="evenodd" clip-rule="evenodd" d="M10.6509 2.50094C11.0627 2.26907 11.5274 2.14725 12 2.14725C12.4727 2.14725 12.9373 2.26907 13.3492 2.50094C13.761 2.73282 14.1061 3.06692 14.3513 3.47103L14.3534 3.47459L22.8296 17.6249C23.0697 18.0407 23.1967 18.5122 23.198 18.9924C23.1994 19.4726 23.075 19.9448 22.8372 20.3619C22.5994 20.7791 22.2565 21.1267 21.8427 21.3702C21.4288 21.6138 20.9584 21.7447 20.4783 21.75L20.47 21.75L3.52178 21.75C3.04162 21.7447 2.57122 21.6138 2.15738 21.3702C1.74352 21.1267 1.40065 20.7791 1.16286 20.3619C0.925078 19.9448 0.800668 19.4726 0.802013 18.9924C0.803357 18.5122 0.930409 18.0408 1.17053 17.625L1.17654 17.6145L9.64662 3.4746L10.29 3.86L9.64877 3.47103C9.89389 3.06692 10.239 2.73282 10.6509 2.50094ZM10.9322 4.2474L10.9313 4.24897L2.46686 18.3797C2.35943 18.5675 2.30261 18.7801 2.30201 18.9966C2.3014 19.2149 2.35795 19.4295 2.46603 19.6191C2.57412 19.8087 2.72997 19.9668 2.91808 20.0775C3.10514 20.1875 3.31762 20.247 3.53459 20.25H20.4655C20.6824 20.247 20.8949 20.1875 21.082 20.0775C21.2701 19.9668 21.4259 19.8087 21.534 19.6191C21.6421 19.4295 21.6986 19.2149 21.698 18.9966C21.6974 18.7801 21.6406 18.5676 21.5332 18.3797L13.0688 4.24897L13.0678 4.2474C12.9565 4.06442 12.7999 3.91312 12.6133 3.80802C12.4261 3.70262 12.2149 3.64725 12 3.64725C11.7852 3.64725 11.574 3.70262 11.3868 3.80802C11.2001 3.91312 11.0436 4.06442 10.9322 4.2474Z" fill="#303233"/>
</svg>
