<svg width="16" height="16" viewBox="0 0 16 16" fill="none" xmlns="http://www.w3.org/2000/svg">
<path d="M8.00002 5.25C8.41423 5.25 8.75002 5.58579 8.75002 6V8.5C8.75002 8.91421 8.41423 9.25 8.00002 9.25C7.5858 9.25 7.25002 8.91421 7.25002 8.5V6C7.25002 5.58579 7.5858 5.25 8.00002 5.25Z" fill="#303233"/>
<path d="M8.00002 10.5C7.5858 10.5 7.25002 10.8358 7.25002 11.25C7.25002 11.6642 7.5858 12 8.00002 12H8.00668C8.4209 12 8.75668 11.6642 8.75668 11.25C8.75668 10.8358 8.4209 10.5 8.00668 10.5H8.00002Z" fill="#303233"/>
<path fill-rule="evenodd" clip-rule="evenodd" d="M6.97794 1.44945C7.28994 1.27379 7.64196 1.1815 8.00001 1.1815C8.35807 1.1815 8.71009 1.27379 9.02209 1.44945C9.3341 1.62511 9.59557 1.87822 9.78126 2.18436L9.78342 2.18792L15.4363 11.6249C15.6182 11.9399 15.7143 12.2971 15.7154 12.6609C15.7164 13.0247 15.6221 13.3824 15.442 13.6984C15.2618 14.0145 15.0021 14.2778 14.6886 14.4623C14.375 14.6468 14.0187 14.746 13.6549 14.75L13.6467 14.75L2.3451 14.75C1.98135 14.746 1.62499 14.6468 1.31147 14.4623C0.997943 14.2778 0.73819 14.0145 0.558049 13.6984C0.377907 13.3824 0.283658 13.0247 0.284676 12.6609C0.285695 12.2971 0.381946 11.94 0.563854 11.625L0.569864 11.6145L6.21661 2.18793L6.86001 2.57333L6.21876 2.18436C6.40446 1.87822 6.66593 1.62511 6.97794 1.44945ZM7.50212 2.96089L7.50126 2.9623L1.86047 12.3792C1.81107 12.4664 1.78495 12.5648 1.78467 12.6651C1.78439 12.767 1.81078 12.8671 1.86121 12.9556C1.91165 13.0441 1.98439 13.1178 2.07217 13.1695C2.15901 13.2206 2.25758 13.2483 2.35828 13.25H13.6417C13.7424 13.2483 13.841 13.2206 13.9279 13.1695C14.0156 13.1178 14.0884 13.0441 14.1388 12.9556C14.1893 12.8671 14.2156 12.767 14.2154 12.6651C14.2151 12.5648 14.189 12.4664 14.1396 12.3792L8.49876 2.9623L8.4979 2.96089C8.44596 2.8758 8.37308 2.80544 8.2862 2.75653C8.19883 2.70734 8.10027 2.6815 8.00001 2.6815C7.89976 2.6815 7.80119 2.70734 7.71383 2.75653C7.62695 2.80544 7.55407 2.87581 7.50212 2.96089Z" fill="#303233"/>
</svg>
