<svg width="16" height="16" viewBox="0 0 16 16" fill="none" xmlns="http://www.w3.org/2000/svg">
<path d="M7.99953 6.00002C8.27567 6.00002 8.49953 6.22387 8.49953 6.50002V9.00002C8.49953 9.27616 8.27567 9.50002 7.99953 9.50002C7.72338 9.50002 7.49953 9.27616 7.49953 9.00002V6.50002C7.49953 6.22387 7.72338 6.00002 7.99953 6.00002Z" fill="#F7A308"/>
<path d="M7.99953 11C7.72338 11 7.49953 11.2239 7.49953 11.5C7.49953 11.7762 7.72338 12 7.99953 12H8.00619C8.28234 12 8.50619 11.7762 8.50619 11.5C8.50619 11.2239 8.28234 11 8.00619 11H7.99953Z" fill="#F7A308"/>
<path fill-rule="evenodd" clip-rule="evenodd" d="M7.1001 1.66731C7.37466 1.51273 7.68444 1.43152 7.99953 1.43152C8.31462 1.43152 8.62439 1.51273 8.89896 1.66731C9.17352 1.82189 9.40361 2.04463 9.56703 2.31403L9.56847 2.31641L15.2192 11.75C15.3793 12.0272 15.464 12.3415 15.4649 12.6616C15.4658 12.9817 15.3828 13.2965 15.2243 13.5746C15.0658 13.8527 14.8372 14.0845 14.5613 14.2468C14.2854 14.4092 13.9718 14.4965 13.6517 14.5L13.6462 14.5L2.34736 14.5C2.02726 14.4965 1.71366 14.4092 1.43776 14.2468C1.16186 14.0845 0.933279 13.8527 0.774755 13.5746C0.61623 13.2965 0.533291 12.9817 0.534187 12.6616C0.535083 12.3415 0.619785 12.0272 0.779864 11.75L0.78387 11.743L6.43059 2.31641L6.85953 2.57335L6.43203 2.31403C6.59544 2.04463 6.82553 1.82189 7.1001 1.66731ZM7.28767 2.8316L7.28703 2.83266L1.64409 12.2531C1.57247 12.3784 1.53459 12.5201 1.53418 12.6644C1.53378 12.8099 1.57148 12.953 1.64353 13.0794C1.71559 13.2058 1.81949 13.3112 1.9449 13.385C2.06961 13.4584 2.21126 13.498 2.35591 13.5H13.6431C13.7878 13.498 13.9294 13.4584 14.0542 13.385C14.1796 13.3112 14.2835 13.2058 14.3555 13.0794C14.4276 12.953 14.4653 12.8099 14.4649 12.6644C14.4645 12.5201 14.4266 12.3784 14.355 12.2531L8.71203 2.83266L8.71138 2.8316C8.63714 2.70962 8.5328 2.60876 8.40836 2.5387C8.28355 2.46843 8.14275 2.43152 7.99953 2.43152C7.8563 2.43152 7.7155 2.46843 7.59069 2.5387C7.46625 2.60876 7.36191 2.70962 7.28767 2.8316Z" fill="#F7A308"/>
</svg>
