<svg width="16" height="16" viewBox="0 0 16 16" fill="none" xmlns="http://www.w3.org/2000/svg">
<path d="M8.5 6.70711L10.1464 8.35355C10.3417 8.54882 10.6583 8.54882 10.8536 8.35355C11.0488 8.15829 11.0488 7.84171 10.8536 7.64645L8.35355 5.14645C8.15829 4.95118 7.84171 4.95118 7.64645 5.14645L5.14645 7.64645C4.95118 7.84171 4.95118 8.15829 5.14645 8.35355C5.34171 8.54882 5.65829 8.54882 5.85355 8.35355L7.5 6.70711V10.5C7.5 10.7761 7.72386 11 8 11C8.27614 11 8.5 10.7761 8.5 10.5V6.70711Z" fill="#A9ABAD"/>
<path fill-rule="evenodd" clip-rule="evenodd" d="M1 8C1 4.13401 4.13401 1 8 1C11.866 1 15 4.13401 15 8C15 11.866 11.866 15 8 15C4.13401 15 1 11.866 1 8ZM8 2C4.68629 2 2 4.68629 2 8C2 11.3137 4.68629 14 8 14C11.3137 14 14 11.3137 14 8C14 4.68629 11.3137 2 8 2Z" fill="#A9ABAD"/>
</svg>
