<svg width="84" height="84" viewBox="0 0 84 84" fill="none" xmlns="http://www.w3.org/2000/svg">
<path d="M27.0002 23.9985C28.6571 23.9985 30.0002 25.3417 30.0002 26.9985V49.7559L33.8789 45.8772C35.0505 44.7056 36.95 44.7056 38.1216 45.8772C39.2931 47.0488 39.2931 48.9483 38.1216 50.1199L29.1216 59.1199C28.8339 59.4075 28.5024 59.6245 28.1486 59.7709C27.8001 59.9154 27.4185 59.9961 27.0182 59.9985L27.0002 59.9985L26.9823 59.9985C26.582 59.9961 26.2004 59.9154 25.8519 59.7709C25.4981 59.6245 25.1666 59.4075 24.8789 59.1199L15.8789 50.1199C14.7074 48.9483 14.7074 47.0488 15.8789 45.8772C17.0505 44.7056 18.95 44.7056 20.1216 45.8772L24.0002 49.7559V26.9985C24.0002 25.3417 25.3434 23.9985 27.0002 23.9985Z" fill="#616366"/>
<path d="M54.0002 56.9985V34.2412L50.1216 38.1199C48.95 39.2914 47.0505 39.2914 45.8789 38.1199C44.7074 36.9483 44.7074 35.0488 45.8789 33.8772L54.8789 24.8772C55.1666 24.5896 55.4981 24.3726 55.8519 24.2262C56.2056 24.0795 56.5935 23.9985 57.0002 23.9985C57.407 23.9985 57.7949 24.0795 58.1486 24.2262C58.5024 24.3726 58.8339 24.5896 59.1216 24.8772L68.1216 33.8772C69.2931 35.0488 69.2931 36.9483 68.1216 38.1199C66.95 39.2914 65.0505 39.2914 63.8789 38.1199L60.0002 34.2412V56.9985C60.0002 58.6554 58.6571 59.9985 57.0002 59.9985C55.3434 59.9985 54.0002 58.6554 54.0002 56.9985Z" fill="#616366"/>
<path fill-rule="evenodd" clip-rule="evenodd" d="M42.0002 -0.00146484C18.8043 -0.00146484 0.000244141 18.8026 0.000244141 41.9985C0.000244141 65.1945 18.8043 83.9985 42.0002 83.9985C65.1962 83.9985 84.0003 65.1945 84.0003 41.9985C84.0003 18.8026 65.1962 -0.00146484 42.0002 -0.00146484ZM6.00024 41.9985C6.00024 22.1163 22.118 5.99854 42.0002 5.99854C61.8825 5.99854 78.0003 22.1163 78.0003 41.9985C78.0003 61.8808 61.8825 77.9985 42.0002 77.9985C22.118 77.9985 6.00024 61.8808 6.00024 41.9985Z" fill="#616366"/>
</svg>
