<svg width="96" height="96" viewBox="0 0 96 96" fill="none" xmlns="http://www.w3.org/2000/svg">
<path d="M33.0002 29.9985C34.6571 29.9985 36.0002 31.3417 36.0002 32.9985V55.7559L39.8789 51.8772C41.0505 50.7056 42.95 50.7056 44.1216 51.8772C45.2931 53.0488 45.2931 54.9483 44.1216 56.1199L35.1216 65.1199C34.8339 65.4075 34.5024 65.6245 34.1486 65.7709C33.8001 65.9154 33.4185 65.9961 33.0182 65.9985L33.0002 65.9985L32.9823 65.9985C32.582 65.9961 32.2004 65.9154 31.8519 65.7709C31.4981 65.6245 31.1666 65.4075 30.8789 65.1199L21.8789 56.1199C20.7074 54.9483 20.7074 53.0488 21.8789 51.8772C23.0505 50.7056 24.95 50.7056 26.1216 51.8772L30.0002 55.7559V32.9985C30.0002 31.3417 31.3434 29.9985 33.0002 29.9985Z" fill="#616366"/>
<path d="M60.0002 62.9985V40.2412L56.1216 44.1199C54.95 45.2914 53.0505 45.2914 51.8789 44.1199C50.7074 42.9483 50.7074 41.0488 51.8789 39.8772L60.8789 30.8772C61.1666 30.5896 61.4981 30.3726 61.8519 30.2262C62.2056 30.0795 62.5935 29.9985 63.0002 29.9985C63.407 29.9985 63.7949 30.0795 64.1486 30.2262C64.5024 30.3726 64.8339 30.5896 65.1216 30.8772L74.1216 39.8772C75.2931 41.0488 75.2931 42.9483 74.1216 44.1199C72.95 45.2914 71.0505 45.2914 69.8789 44.1199L66.0002 40.2412V62.9985C66.0002 64.6554 64.6571 65.9985 63.0002 65.9985C61.3434 65.9985 60.0002 64.6554 60.0002 62.9985Z" fill="#616366"/>
<path fill-rule="evenodd" clip-rule="evenodd" d="M48.0002 5.99854C24.8043 5.99854 6.00024 24.8026 6.00024 47.9985C6.00024 71.1945 24.8043 89.9985 48.0002 89.9985C71.1962 89.9985 90.0003 71.1945 90.0003 47.9985C90.0003 24.8026 71.1962 5.99854 48.0002 5.99854ZM12.0002 47.9985C12.0002 28.1163 28.118 11.9985 48.0002 11.9985C67.8825 11.9985 84.0003 28.1163 84.0003 47.9985C84.0003 67.8808 67.8825 83.9985 48.0002 83.9985C28.118 83.9985 12.0002 67.8808 12.0002 47.9985Z" fill="#616366"/>
</svg>
