<svg width="84" height="84" viewBox="0 0 84 84" fill="none" xmlns="http://www.w3.org/2000/svg">
<path d="M45.0002 34.2427L54.8789 44.1214C56.0505 45.2929 57.95 45.2929 59.1216 44.1214C60.2931 42.9498 60.2931 41.0503 59.1216 39.8787L44.1216 24.8787C42.95 23.7071 41.0505 23.7071 39.8789 24.8787L24.8789 39.8787C23.7074 41.0503 23.7074 42.9498 24.8789 44.1214C26.0505 45.2929 27.95 45.2929 29.1216 44.1214L39.0002 34.2427V57C39.0002 58.6569 40.3434 60 42.0002 60C43.6571 60 45.0002 58.6569 45.0002 57V34.2427Z" fill="#616366"/>
<path fill-rule="evenodd" clip-rule="evenodd" d="M0.000244141 42C0.000244141 18.8041 18.8043 3.05176e-05 42.0002 3.05176e-05C65.1962 3.05176e-05 84.0003 18.8041 84.0003 42C84.0003 65.196 65.1962 84 42.0002 84C18.8043 84 0.000244141 65.196 0.000244141 42ZM42.0002 6.00003C22.118 6.00003 6.00024 22.1178 6.00024 42C6.00024 61.8823 22.118 78 42.0002 78C61.8825 78 78.0003 61.8823 78.0003 42C78.0003 22.1178 61.8825 6.00003 42.0002 6.00003Z" fill="#616366"/>
</svg>
