<svg width="16" height="16" viewBox="0 0 16 16" fill="none" xmlns="http://www.w3.org/2000/svg">
<path d="M2 2.5C2 2.22386 1.77614 2 1.5 2C1.22386 2 1 2.22386 1 2.5V6.5C1 6.77614 1.22386 7 1.5 7H5.5C5.77614 7 6 6.77614 6 6.5C6 6.22386 5.77614 6 5.5 6H2.78761L4.45306 4.47656C4.45843 4.47165 4.46369 4.46662 4.46884 4.46148C5.23601 3.69561 6.23131 3.1998 7.30477 3.04877C8.37822 2.89774 9.47169 3.09967 10.4204 3.62413C11.3691 4.14859 12.1217 4.96717 12.5647 5.95654C13.0078 6.9459 13.1173 8.05245 12.8767 9.10946C12.6362 10.1665 12.0587 11.1167 11.2311 11.8169C10.4036 12.5171 9.37091 12.9294 8.28868 12.9917C7.20644 13.054 6.13327 12.7629 5.23087 12.1622C4.32847 11.5616 3.64572 10.6839 3.28551 9.66148C3.19374 9.40103 2.90822 9.26428 2.64777 9.35604C2.38732 9.4478 2.25057 9.73332 2.34233 9.99377C2.77459 11.2207 3.59389 12.2739 4.67677 12.9947C5.75964 13.7155 7.04745 14.0648 8.34614 13.9901C9.64482 13.9153 10.884 13.4206 11.8771 12.5803C12.8701 11.74 13.5632 10.5998 13.8518 9.33135C14.1404 8.06294 14.009 6.73508 13.4774 5.54784C12.9458 4.36061 12.0427 3.37831 10.9042 2.74896C9.76575 2.1196 8.45359 1.87729 7.16544 2.05853C5.88098 2.23924 4.68976 2.83133 3.77023 3.74591L2 5.36519V2.5Z" fill="#303233"/>
<path d="M8 4.5C8.27614 4.5 8.5 4.72386 8.5 5V7.69098L10.2236 8.55279C10.4706 8.67628 10.5707 8.97662 10.4472 9.22361C10.3237 9.4706 10.0234 9.57071 9.77639 9.44721L7.77639 8.44721C7.607 8.36252 7.5 8.18939 7.5 8V5C7.5 4.72386 7.72386 4.5 8 4.5Z" fill="#303233"/>
</svg>
