<svg width="24" height="24" viewBox="0 0 24 24" fill="none" xmlns="http://www.w3.org/2000/svg">
<path fill-rule="evenodd" clip-rule="evenodd" d="M12 1.25C12.3471 1.25 12.6899 1.25612 13.0273 1.26855C13.4413 1.28381 13.7643 1.63197 13.749 2.0459C13.7338 2.45974 13.3865 2.78268 12.9727 2.76758C12.6536 2.75582 12.3288 2.75 12 2.75C9.5729 2.75 7.40654 3.07868 5.87305 3.58984C5.10272 3.84662 4.53338 4.13613 4.17188 4.4209C3.80193 4.71245 3.75 4.91409 3.75 5C3.75 5.08591 3.80193 5.28755 4.17188 5.5791C4.53338 5.86387 5.10272 6.15338 5.87305 6.41016C7.40654 6.92132 9.5729 7.25 12 7.25C12.3288 7.25 12.6536 7.24418 12.9727 7.23242C13.3865 7.21732 13.7338 7.54026 13.749 7.9541C13.7643 8.36803 13.4413 8.71619 13.0273 8.73145C12.6899 8.74388 12.3471 8.75 12 8.75C9.45654 8.75 7.12231 8.40763 5.39844 7.83301C4.78116 7.62723 4.22051 7.38466 3.75 7.10352V12C3.75 12.0859 3.80193 12.2876 4.17188 12.5791C4.53338 12.8639 5.10272 13.1534 5.87305 13.4102C7.40654 13.9213 9.5729 14.25 12 14.25C14.4271 14.25 16.5935 13.9213 18.127 13.4102C18.8973 13.1534 19.4666 12.8639 19.8281 12.5791C20.1981 12.2876 20.25 12.0859 20.25 12C20.25 11.5858 20.5858 11.25 21 11.25C21.4142 11.25 21.75 11.5858 21.75 12V19C21.75 19.7425 21.2977 20.3306 20.7568 20.7568C20.2076 21.1897 19.4594 21.547 18.6016 21.833C16.8777 22.4076 14.5435 22.75 12 22.75C9.45654 22.75 7.12231 22.4076 5.39844 21.833C4.54061 21.547 3.79244 21.1897 3.24316 20.7568C2.70226 20.3306 2.25 19.7425 2.25 19V5C2.25 4.25749 2.70226 3.66944 3.24316 3.24316C3.79244 2.81031 4.54061 2.45296 5.39844 2.16699C7.12231 1.59237 9.45654 1.25 12 1.25ZM20.25 14.1035C19.7795 14.3847 19.2188 14.6272 18.6016 14.833C16.8777 15.4076 14.5435 15.75 12 15.75C9.45654 15.75 7.12231 15.4076 5.39844 14.833C4.78116 14.6272 4.22051 14.3847 3.75 14.1035V19C3.75 19.0859 3.80193 19.2876 4.17188 19.5791C4.53338 19.8639 5.10272 20.1534 5.87305 20.4102C7.40654 20.9213 9.5729 21.25 12 21.25C14.4271 21.25 16.5935 20.9213 18.127 20.4102C18.8973 20.1534 19.4666 19.8639 19.8281 19.5791C20.1981 19.2876 20.25 19.0859 20.25 19V14.1035Z" fill="#303233"/>
<path d="M20.5908 2.34863C20.8837 2.0558 21.3585 2.05576 21.6514 2.34863C21.9442 2.64151 21.9442 3.1163 21.6514 3.40918L20.0605 5L21.6514 6.59082C21.9442 6.88369 21.9442 7.35847 21.6514 7.65137C21.3585 7.94426 20.8837 7.94426 20.5908 7.65137L19 6.06055L17.4092 7.65137C17.1163 7.94424 16.6415 7.94421 16.3486 7.65137C16.0557 7.35847 16.0557 6.88371 16.3486 6.59082L17.9395 5L16.3486 3.40918C16.0557 3.11629 16.0557 2.64152 16.3486 2.34863C16.6415 2.05581 17.1163 2.05577 17.4092 2.34863L19 3.93945L20.5908 2.34863Z" fill="#303233"/>
</svg>
