<svg width="16" height="16" viewBox="0 0 16 16" fill="none" xmlns="http://www.w3.org/2000/svg">
<path d="M12.5 11C12.2239 11 12 11.2239 12 11.5C12 11.7761 12.2239 12 12.5 12H12.501C12.7771 12 13.001 11.7761 13.001 11.5C13.001 11.2239 12.7771 11 12.501 11H12.5Z" fill="#303233"/>
<path fill-rule="evenodd" clip-rule="evenodd" d="M3.37935 2H10.1207C10.5231 1.99999 10.8553 1.99999 11.1259 2.0221C11.407 2.04506 11.6653 2.09434 11.908 2.21799C12.2843 2.40973 12.5903 2.7157 12.782 3.09202C12.9057 3.33469 12.9549 3.59304 12.9779 3.87409C12.9927 4.0547 12.9976 4.26274 12.9992 4.50081C13.2373 4.50244 13.4453 4.50734 13.6259 4.5221C13.907 4.54506 14.1653 4.59434 14.408 4.71799C14.7843 4.90973 15.0903 5.2157 15.282 5.59202C15.4057 5.83469 15.4549 6.09304 15.4779 6.37409C15.5 6.64469 15.5 6.97687 15.5 7.37936V11.1206C15.5 11.5231 15.5 11.8553 15.4779 12.1259C15.4549 12.407 15.4057 12.6653 15.282 12.908C15.0903 13.2843 14.7843 13.5903 14.408 13.782C14.1653 13.9057 13.907 13.9549 13.6259 13.9779C13.3553 14 13.0231 14 12.6207 14H12.3793C11.9769 14 11.6447 14 11.3741 13.9779C11.093 13.9549 10.8347 13.9057 10.592 13.782C10.2157 13.5903 9.90973 13.2843 9.71799 12.908C9.59434 12.6653 9.54506 12.407 9.5221 12.1259C9.51878 12.0853 9.51596 12.0434 9.51357 12H3.37934C2.97686 12 2.64468 12 2.37409 11.9779C2.09304 11.9549 1.83469 11.9057 1.59202 11.782C1.2157 11.5903 0.909735 11.2843 0.717988 10.908C0.594342 10.6653 0.54506 10.407 0.522098 10.1259C0.499989 9.85532 0.499994 9.52314 0.5 9.12067V4.87935C0.499994 4.47687 0.499989 4.14468 0.522098 3.87409C0.54506 3.59304 0.594342 3.33469 0.717988 3.09202C0.909735 2.7157 1.2157 2.40973 1.59202 2.21799C1.83469 2.09434 2.09304 2.04506 2.37409 2.0221C2.64468 1.99999 2.97687 1.99999 3.37935 2ZM11.4555 5.51878C11.2363 5.53669 11.1242 5.56915 11.046 5.60899C10.8578 5.70487 10.7049 5.85785 10.609 6.04601C10.5691 6.12421 10.5367 6.23631 10.5188 6.45552C10.5004 6.68056 10.5 6.97171 10.5 7.4V11.1C10.5 11.5283 10.5004 11.8194 10.5188 12.0445C10.5367 12.2637 10.5691 12.3758 10.609 12.454C10.7049 12.6422 10.8578 12.7951 11.046 12.891C11.1242 12.9309 11.2363 12.9633 11.4555 12.9812C11.6806 12.9996 11.9717 13 12.4 13H12.6C13.0283 13 13.3194 12.9996 13.5445 12.9812C13.7637 12.9633 13.8758 12.9309 13.954 12.891C14.1422 12.7951 14.2951 12.6422 14.391 12.454C14.4309 12.3758 14.4633 12.2637 14.4812 12.0445C14.4996 11.8194 14.5 11.5283 14.5 11.1V7.4C14.5 6.97171 14.4996 6.68056 14.4812 6.45552C14.4633 6.23631 14.4309 6.12421 14.391 6.04601C14.2951 5.85785 14.1422 5.70487 13.954 5.60899C13.8758 5.56915 13.7637 5.53669 13.5445 5.51878C13.3194 5.50039 13.0283 5.5 12.6 5.5H12.4C11.9717 5.5 11.6806 5.50039 11.4555 5.51878Z" fill="#303233"/>
<path d="M5.5 13C5.22386 13 5 13.2239 5 13.5C5 13.7761 5.22386 14 5.5 14H8C8.27614 14 8.5 13.7761 8.5 13.5C8.5 13.2239 8.27614 13 8 13H5.5Z" fill="#303233"/>
</svg>
