<svg width="16" height="16" viewBox="0 0 16 16" fill="none" xmlns="http://www.w3.org/2000/svg">
<path d="M8 1.5C8.27614 1.5 8.5 1.72386 8.5 2V8.79273L10.9796 6.31311C11.1749 6.11785 11.4915 6.11785 11.6867 6.31311C11.882 6.50837 11.882 6.82496 11.6867 7.02022L8.36118 10.3458C8.27016 10.4408 8.14199 10.5 8 10.5C7.99137 10.5 7.98279 10.4998 7.97427 10.4993C7.93772 10.4975 7.90221 10.4917 7.86815 10.4824C7.78688 10.4603 7.7101 10.4174 7.64628 10.3535L4.31295 7.02022C4.11769 6.82496 4.11769 6.50837 4.31295 6.31311C4.50821 6.11785 4.8248 6.11785 5.02006 6.31311L7.5 8.79305V2C7.5 1.72386 7.72386 1.5 8 1.5Z" fill="#303233"/>
<path d="M2.5 10C2.5 9.72386 2.27614 9.5 2 9.5C1.72386 9.5 1.5 9.72386 1.5 10V10.8214C1.5 11.3633 1.49999 11.8004 1.52891 12.1543C1.55868 12.5187 1.62159 12.8388 1.77248 13.135C2.01217 13.6054 2.39462 13.9878 2.86502 14.2275C3.16117 14.3784 3.48126 14.4413 3.84569 14.4711C4.19963 14.5 4.6367 14.5 5.17858 14.5H10.8214C11.3633 14.5 11.8004 14.5 12.1543 14.4711C12.5187 14.4413 12.8388 14.3784 13.135 14.2275C13.6054 13.9878 13.9878 13.6054 14.2275 13.135C14.3784 12.8388 14.4413 12.5187 14.4711 12.1543C14.5 11.8004 14.5 11.3633 14.5 10.8215V10C14.5 9.72386 14.2761 9.5 14 9.5C13.7239 9.5 13.5 9.72386 13.5 10V10.8C13.5 11.3683 13.4996 11.7645 13.4744 12.0729C13.4497 12.3755 13.4036 12.5493 13.3365 12.681C13.1927 12.9632 12.9632 13.1927 12.681 13.3365C12.5493 13.4036 12.3755 13.4497 12.0729 13.4744C11.7645 13.4996 11.3683 13.5 10.8 13.5H5.2C4.6317 13.5 4.23554 13.4996 3.92712 13.4744C3.62454 13.4497 3.45069 13.4036 3.31901 13.3365C3.03677 13.1927 2.8073 12.9632 2.66349 12.681C2.5964 12.5493 2.55031 12.3755 2.52559 12.0729C2.50039 11.7645 2.5 11.3683 2.5 10.8V10Z" fill="#303233"/>
</svg>
