<svg width="16" height="16" viewBox="0 0 16 16" fill="none" xmlns="http://www.w3.org/2000/svg">
<path fill-rule="evenodd" clip-rule="evenodd" d="M13.3333 0.752441C12.8256 0.752441 12.3387 0.954117 11.9797 1.3131L5.64638 7.64644C5.5823 7.71052 5.53684 7.7908 5.51486 7.87872L4.84819 10.5454C4.80559 10.7158 4.85552 10.896 4.97971 11.0202C5.1039 11.1444 5.28414 11.1943 5.45453 11.1517L8.1212 10.4851C8.20911 10.4631 8.2894 10.4176 8.35348 10.3535L14.6868 4.02021C15.0458 3.66122 15.2475 3.17434 15.2475 2.66665C15.2475 2.15897 15.0458 1.67209 14.6868 1.3131C14.3278 0.954117 13.8409 0.752441 13.3333 0.752441ZM12.6868 2.02021C12.8583 1.84876 13.0908 1.75244 13.3333 1.75244C13.5757 1.75244 13.8083 1.84876 13.9797 2.02021C14.1512 2.19166 14.2475 2.42419 14.2475 2.66665C14.2475 2.90912 14.1512 3.14165 13.9797 3.3131L7.7443 9.54851L6.02045 9.97947L6.45141 8.25561L12.6868 2.02021Z" fill="#616366"/>
<path d="M2 4.49998C2 3.67156 2.67157 2.99998 3.5 2.99998H7.5C7.77614 2.99998 8 2.77613 8 2.49998C8 2.22384 7.77614 1.99998 7.5 1.99998H3.5C2.11929 1.99998 1 3.11927 1 4.49998V12.5C1 13.8807 2.11929 15 3.5 15H11.5C12.8807 15 14 13.8807 14 12.5V8.49998C14 8.22384 13.7761 7.99998 13.5 7.99998C13.2239 7.99998 13 8.22384 13 8.49998V12.5C13 13.3284 12.3284 14 11.5 14H3.5C2.67157 14 2 13.3284 2 12.5V4.49998Z" fill="#616366"/>
</svg>
