<svg width="16" height="16" viewBox="0 0 16 16" fill="none" xmlns="http://www.w3.org/2000/svg">
<path d="M14 1.5C14.2761 1.5 14.5 1.72386 14.5 2V6C14.5 6.27614 14.2761 6.5 14 6.5C13.7239 6.5 13.5 6.27614 13.5 6V3.20694L6.85355 9.85339C6.65829 10.0487 6.34171 10.0487 6.14645 9.85339C5.95118 9.65813 5.95118 9.34155 6.14645 9.14628L12.7927 2.5H10C9.72386 2.5 9.5 2.27614 9.5 2C9.5 1.72386 9.72386 1.5 10 1.5H14Z" fill="#303233"/>
<path d="M3.5 4.5C2.94772 4.5 2.5 4.94772 2.5 5.5V12.5C2.5 13.0523 2.94772 13.5 3.5 13.5H10.5C11.0523 13.5 11.5 13.0523 11.5 12.5V8.5C11.5 8.22386 11.7239 8 12 8C12.2761 8 12.5 8.22386 12.5 8.5V12.5C12.5 13.6046 11.6046 14.5 10.5 14.5H3.5C2.39543 14.5 1.5 13.6046 1.5 12.5V5.5C1.5 4.39543 2.39543 3.5 3.5 3.5H7.5C7.77614 3.5 8 3.72386 8 4C8 4.27614 7.77614 4.5 7.5 4.5H3.5Z" fill="#303233"/>
</svg>
