<svg width="16" height="16" viewBox="0 0 16 16" fill="none" xmlns="http://www.w3.org/2000/svg">
<path fill-rule="evenodd" clip-rule="evenodd" d="M8 5.5C6.61929 5.5 5.5 6.61929 5.5 8C5.5 9.38071 6.61929 10.5 8 10.5C9.38071 10.5 10.5 9.38071 10.5 8C10.5 6.61929 9.38071 5.5 8 5.5ZM6.5 8C6.5 7.17157 7.17157 6.5 8 6.5C8.82843 6.5 9.5 7.17157 9.5 8C9.5 8.82843 8.82843 9.5 8 9.5C7.17157 9.5 6.5 8.82843 6.5 8Z" fill="#303233"/>
<path fill-rule="evenodd" clip-rule="evenodd" d="M8 3C6.16424 3 4.66061 3.78965 3.53642 4.70314C2.4137 5.61543 1.64193 6.67255 1.25476 7.26942L1.2399 7.29226C1.1619 7.41198 1.07301 7.54844 1.02748 7.7418C0.990838 7.89746 0.990838 8.10254 1.02748 8.2582C1.07301 8.45156 1.1619 8.58802 1.2399 8.70774L1.25476 8.73058C1.64193 9.32745 2.4137 10.3846 3.53642 11.2969C4.66061 12.2104 6.16424 13 8 13C9.83576 13 11.3394 12.2104 12.4636 11.2969C13.5863 10.3846 14.3581 9.32745 14.7452 8.73058L14.7601 8.70774C14.8381 8.58802 14.927 8.45156 14.9725 8.2582C15.0092 8.10254 15.0092 7.89746 14.9725 7.7418C14.927 7.54844 14.8381 7.41198 14.7601 7.29225L14.7452 7.26942C14.3581 6.67255 13.5863 5.61543 12.4636 4.70314C11.3394 3.78965 9.83576 3 8 3ZM2.09371 7.81363C2.44963 7.26495 3.15535 6.3013 4.16705 5.47922C5.17727 4.65834 6.46497 4 8 4C9.53503 4 10.8227 4.65834 11.833 5.47922C12.8447 6.3013 13.5504 7.26494 13.9063 7.81363C13.9552 7.88899 13.9756 7.92113 13.989 7.94625C13.9953 7.95815 13.9971 7.96284 13.9983 7.96744L13.9988 7.972C13.9995 7.97915 14 7.98889 14 8C14 8.01111 13.9995 8.02085 13.9988 8.028L13.9983 8.03251C13.9971 8.03713 13.9953 8.04181 13.989 8.05374C13.9756 8.07887 13.9552 8.11101 13.9063 8.18637C13.5504 8.73505 12.8447 9.6987 11.833 10.5208C10.8227 11.3417 9.53503 12 8 12C6.46497 12 5.17727 11.3417 4.16705 10.5208C3.15535 9.6987 2.44963 8.73505 2.09371 8.18637C2.04483 8.11101 2.02445 8.07887 2.01104 8.05374C2.00469 8.04185 2.00293 8.03717 2.00173 8.03256L2.00122 8.028C2.00053 8.02085 2 8.01111 2 8C2 7.98889 2.00053 7.97915 2.00122 7.972L2.00173 7.96742C2.00294 7.96283 2.0047 7.95813 2.01104 7.94626C2.02445 7.92113 2.04483 7.88899 2.09371 7.81363Z" fill="#303233"/>
</svg>
