<svg width="16" height="16" viewBox="0 0 16 16" fill="none" xmlns="http://www.w3.org/2000/svg">
<path fill-rule="evenodd" clip-rule="evenodd" d="M6.5 4.5C7.60457 4.5 8.5 5.39543 8.5 6.5C8.5 7.60457 7.60457 8.5 6.5 8.5C5.39543 8.5 4.5 7.60457 4.5 6.5C4.5 5.39543 5.39543 4.5 6.5 4.5Z" fill="#303233"/>
<path fill-rule="evenodd" clip-rule="evenodd" d="M10.2217 1C10.7809 0.999996 11.2314 0.999532 11.5957 1.0293C11.9703 1.05993 12.2979 1.12512 12.6006 1.2793C13.0828 1.52497 13.475 1.91725 13.7207 2.39941C13.8749 2.70211 13.9401 3.02966 13.9707 3.4043C14.0005 3.76861 14 4.21908 14 4.77832V11.2217C14 11.7809 14.0005 12.2314 13.9707 12.5957C13.9401 12.9703 13.8749 13.2979 13.7207 13.6006C13.475 14.0828 13.0828 14.475 12.6006 14.7207C12.2979 14.8749 11.9703 14.9401 11.5957 14.9707C11.2314 15.0005 10.7809 15 10.2217 15H5.77832C5.21908 15 4.76861 15.0005 4.4043 14.9707C4.02966 14.9401 3.70211 14.8749 3.39941 14.7207C2.91725 14.475 2.52497 14.0828 2.2793 13.6006C2.12512 13.2979 2.05993 12.9703 2.0293 12.5957C1.99953 12.2314 2 11.7809 2 11.2217V4.77832C2 4.21908 1.99953 3.76861 2.0293 3.4043C2.05993 3.02966 2.12512 2.70211 2.2793 2.39941C2.52497 1.91725 2.91725 1.52497 3.39941 1.2793C3.70211 1.12512 4.02966 1.05993 4.4043 1.0293C4.76861 0.999532 5.21908 0.999996 5.77832 1H10.2217ZM5.79981 2C5.21427 2 4.8051 2.00034 4.48633 2.02637C4.17366 2.05191 3.99182 2.09955 3.85352 2.16992C3.55951 2.31972 3.31972 2.55951 3.16992 2.85352C3.09955 2.99182 3.05191 3.17366 3.02637 3.48633C3.00034 3.8051 3 4.21427 3 4.79981V11.2002C3 11.7857 3.00034 12.1949 3.02637 12.5137C3.05191 12.8263 3.09955 13.0082 3.16992 13.1465C3.27655 13.3558 3.42956 13.5365 3.61426 13.6777L9.01465 8.27734C9.20681 8.08518 9.37281 7.91948 9.51953 7.79492C9.67054 7.66678 9.83451 7.55286 10.0361 7.48731C10.3374 7.38942 10.6626 7.38942 10.9639 7.48731C11.1655 7.55286 11.3295 7.66678 11.4805 7.79492C11.6272 7.91948 11.7932 8.08518 11.9854 8.27734L13 9.29199V4.79981C13 4.21427 12.9997 3.8051 12.9736 3.48633C12.9481 3.17366 12.9005 2.99182 12.8301 2.85352C12.6803 2.55951 12.4405 2.31972 12.1465 2.16992C12.0082 2.09955 11.8263 2.05191 11.5137 2.02637C11.1949 2.00034 10.7857 2 10.2002 2H5.79981Z" fill="#303233"/>
</svg>
