<svg width="16" height="16" viewBox="0 0 16 16" fill="none" xmlns="http://www.w3.org/2000/svg">
<path fill-rule="evenodd" clip-rule="evenodd" d="M4.25 1.25C3.2835 1.25 2.5 2.0335 2.5 3V13C2.5 13.9665 3.2835 14.75 4.25 14.75H11.75C12.7165 14.75 13.5 13.9665 13.5 13V4.76777C13.5 4.43625 13.3683 4.1183 13.1339 3.88388L10.8661 1.61612C10.6317 1.3817 10.3138 1.25 9.98223 1.25H4.25ZM10.7845 2.78452C10.6795 2.67952 10.5 2.75388 10.5 2.90237V4.33333C10.5 4.42538 10.5746 4.5 10.6667 4.5H12.0976C12.2461 4.5 12.3205 4.32048 12.2155 4.21548L10.7845 2.78452Z" fill="#303233"/>
</svg>
