<svg width="16" height="16" viewBox="0 0 16 16" fill="none" xmlns="http://www.w3.org/2000/svg">
<path d="M13 8.5H11V11H12.9961C12.9966 10.8426 13 10.6762 13 10.5V8.5ZM6 13.9961C6.15737 13.9966 6.32377 14 6.5 14H9.5C9.67623 14 9.84263 13.9966 10 13.9961V8.5H6V13.9961ZM3.02051 12C3.03064 12.2355 3.04348 12.4429 3.06836 12.6279C3.13413 13.1171 3.25494 13.376 3.43945 13.5605C3.62396 13.7451 3.88289 13.8659 4.37207 13.9316C4.55712 13.9565 4.76446 13.9694 5 13.9795V12H3.02051ZM11 13.9795C11.2355 13.9694 11.4429 13.9565 11.6279 13.9316C12.1171 13.8659 12.376 13.7451 12.5605 13.5605C12.7451 13.376 12.8659 13.1171 12.9316 12.6279C12.9565 12.4429 12.9694 12.2355 12.9795 12H11V13.9795ZM6 2.00293V7.5H10V2.00293C9.84263 2.00245 9.67623 2 9.5 2H6.5C6.32377 2 6.15737 2.00245 6 2.00293ZM11 4H12.9795C12.9694 3.76446 12.9565 3.55712 12.9316 3.37207C12.8659 2.88289 12.7451 2.62396 12.5605 2.43945C12.376 2.25494 12.1171 2.13413 11.6279 2.06836C11.4429 2.04348 11.2356 2.02967 11 2.01953V4ZM5 2.01953C4.76445 2.02967 4.55713 2.04348 4.37207 2.06836C3.88289 2.13413 3.62396 2.25494 3.43945 2.43945C3.25494 2.62396 3.13413 2.88289 3.06836 3.37207C3.04348 3.55712 3.03064 3.76446 3.02051 4H5V2.01953ZM3.00391 11H5V8.5H3V10.5C3 10.6762 3.00342 10.8426 3.00391 11ZM12.9961 5H11V7.5H13V5.5C13 5.32377 12.9966 5.15737 12.9961 5ZM3 7.5H5V5H3.00391C3.00342 5.15737 3 5.32377 3 5.5V7.5ZM14 10.5C14 11.4285 14.0006 12.1751 13.9219 12.7607C13.8412 13.3608 13.6689 13.8663 13.2676 14.2676C12.8663 14.6689 12.3608 14.8412 11.7607 14.9219C11.1751 15.0006 10.4285 15 9.5 15H6.5C5.57152 15 4.82489 15.0006 4.23926 14.9219C3.63919 14.8412 3.1337 14.6689 2.73242 14.2676C2.33114 13.8663 2.1588 13.3608 2.07813 12.7607C1.99943 12.1751 2 11.4285 2 10.5V5.5C2 4.57152 1.99943 3.82489 2.07813 3.23926C2.1588 2.63919 2.33114 2.1337 2.73242 1.73242C3.1337 1.33114 3.63919 1.1588 4.23926 1.07813C4.82489 0.99943 5.57152 1 6.5 1H9.5C10.4285 1 11.1751 0.99943 11.7607 1.07813C12.3608 1.1588 12.8663 1.33114 13.2676 1.73242C13.6689 2.1337 13.8412 2.63919 13.9219 3.23926C14.0006 3.82489 14 4.57152 14 5.5V10.5Z" fill="#616366"/>
</svg>
