<svg width="16" height="16" viewBox="0 0 16 16" fill="none" xmlns="http://www.w3.org/2000/svg">
<path fill-rule="evenodd" clip-rule="evenodd" d="M0.5 4.00001C0.499992 2.89544 1.39543 2 2.5 2H6.29318C6.74589 2 7.18006 2.17986 7.50015 2.5C7.82024 2.82014 8.25441 3 8.70712 3H11C11.9319 3 12.715 3.63739 12.937 4.5H13.7803C15.0424 4.5 15.989 5.65465 15.7415 6.89223L14.6415 12.3922C14.4545 13.3271 13.6337 14 12.6803 14H2.50006C1.39549 14 0.500064 13.1046 0.500056 12L0.5 4.00001ZM12.7332 12.9986C12.7332 12.9986 12.7332 12.9986 12.7332 12.9986C13.1871 12.9748 13.5709 12.6462 13.6609 12.1961L14.7609 6.69612C14.8846 6.07732 14.4114 5.5 13.7803 5.5H3.81958C3.3429 5.5 2.93248 5.83646 2.839 6.30388L1.739 11.8039C1.61524 12.4227 2.08853 13 2.71958 13H12.68C12.6978 13 12.7156 12.9995 12.7332 12.9986Z" fill="#303233"/>
</svg>
