<svg width="16" height="16" viewBox="0 0 16 16" fill="none" xmlns="http://www.w3.org/2000/svg">
<path fill-rule="evenodd" clip-rule="evenodd" d="M2.99988 2C1.8953 2 0.99987 2.89544 0.999878 4.00001L0.999934 12C0.999942 13.1046 1.89537 14 2.99993 14H12.9999C14.1045 14 14.9999 13.1046 14.9999 12V5C14.9999 3.89543 14.1045 3 12.9999 3H9.207C8.75429 3 8.32012 2.82014 8.00003 2.5C7.67994 2.17986 7.24577 2 6.79306 2H2.99988ZM3.00003 4C2.44774 4 2.00003 4.44772 2.00003 5V12C2.00003 12.5523 2.44774 13 3.00003 13H13C13.5523 13 14 12.5523 14 12V5C14 4.44772 13.5523 4 13 4H3.00003Z" fill="#616366"/>
</svg>
