<svg width="16" height="16" viewBox="0 0 16 16" fill="none" xmlns="http://www.w3.org/2000/svg">
<path fill-rule="evenodd" clip-rule="evenodd" d="M3 2C1.89543 2 0.999992 2.89544 1 4.00001L1.00006 12C1.00006 13.1046 1.89549 14 3.00006 14H13.0001C14.1046 14 15.0001 13.1046 15.0001 12V5C15.0001 3.89543 14.1046 3 13.0001 3H9.20712C8.75441 3 8.32024 2.82014 8.00015 2.5C7.68006 2.17986 7.24589 2 6.79318 2H3ZM8 8.5C8.85517 8.5 9.54845 7.82843 9.54845 7C9.54845 6.17157 8.85517 5.5 8 5.5C7.14483 5.5 6.45156 6.17157 6.45156 7C6.45156 7.82843 7.14483 8.5 8 8.5ZM10.6346 11.5C10.8673 11.5 11.0493 11.3013 10.988 11.0837C10.6296 9.81077 9.42762 8.875 8 8.875C6.57239 8.875 5.37037 9.81077 5.01199 11.0837C4.95074 11.3013 5.13263 11.5 5.36545 11.5H10.6346Z" fill="#303233"/>
</svg>
