<svg width="16" height="16" viewBox="0 0 16 16" fill="none" xmlns="http://www.w3.org/2000/svg">
<path d="M5 8.5C5 8.22386 5.22386 8 5.5 8H7.5V6C7.5 5.72386 7.72386 5.5 8 5.5C8.27614 5.5 8.5 5.72386 8.5 6V8H10.5C10.7761 8 11 8.22386 11 8.5C11 8.77614 10.7761 9 10.5 9H8.5V11C8.5 11.2761 8.27614 11.5 8 11.5C7.72386 11.5 7.5 11.2761 7.5 11V9H5.5C5.22386 9 5 8.77614 5 8.5Z" fill="#F4F4F5"/>
<path fill-rule="evenodd" clip-rule="evenodd" d="M3 2C1.89543 2 0.999992 2.89544 1 4.00001L1.00006 12C1.00006 13.1046 1.89549 14 3.00006 14H13.0001C14.1046 14 15.0001 13.1046 15.0001 12V5C15.0001 3.89543 14.1046 3 13.0001 3H9.20712C8.75441 3 8.32024 2.82014 8.00015 2.5C7.68006 2.17986 7.24589 2 6.79318 2H3ZM3.00015 4C2.44787 4 2.00015 4.44772 2.00015 5V12C2.00015 12.5523 2.44787 13 3.00015 13H13.0002C13.5524 13 14.0002 12.5523 14.0002 12V5C14.0002 4.44772 13.5524 4 13.0002 4H3.00015Z" fill="#F4F4F5"/>
</svg>
