<svg width="24" height="24" viewBox="0 0 24 24" fill="none" xmlns="http://www.w3.org/2000/svg">
<path d="M1.25 5C1.25 3.48122 2.48122 2.25 4 2.25H10.1716C10.6357 2.25 11.0808 2.43437 11.409 2.76256L12.2374 3.59099C12.6594 4.01295 13.2317 4.25 13.8284 4.25H20C21.5188 4.25 22.75 5.48122 22.75 7V9.75C22.75 10.1642 22.4142 10.5 22 10.5C21.5858 10.5 21.25 10.1642 21.25 9.75V7C21.25 6.30964 20.6904 5.75 20 5.75H4C3.30964 5.75 2.75 6.30964 2.75 7V19C2.75 19.6904 3.30964 20.25 4 20.25H13.75C14.1642 20.25 14.5 20.5858 14.5 21C14.5 21.4142 14.1642 21.75 13.75 21.75H4C2.48122 21.75 1.25 20.5188 1.25 19V5Z" fill="#303233"/>
<path d="M20.75 15C20.75 14.5858 20.4142 14.25 20 14.25C19.5858 14.25 19.25 14.5858 19.25 15V17.25H17C16.5858 17.25 16.25 17.5858 16.25 18C16.25 18.4142 16.5858 18.75 17 18.75H19.25V21C19.25 21.4142 19.5858 21.75 20 21.75C20.4142 21.75 20.75 21.4142 20.75 21V18.75H23C23.4142 18.75 23.75 18.4142 23.75 18C23.75 17.5858 23.4142 17.25 23 17.25H20.75V15Z" fill="#303233"/>
</svg>
