<svg width="16" height="16" viewBox="0 0 16 16" fill="none" xmlns="http://www.w3.org/2000/svg">
<path fill-rule="evenodd" clip-rule="evenodd" d="M3 2C1.89543 2 0.999992 2.89544 1 4.00001L1.00006 12C1.00006 13.1046 1.89549 14 3.00006 14H13.0001C14.1046 14 15.0001 13.1046 15.0001 12V5C15.0001 3.89543 14.1046 3 13.0001 3H9.20712C8.75441 3 8.32024 2.82014 8.00015 2.5C7.68006 2.17986 7.24589 2 6.79318 2H3ZM3.00015 4C2.44787 4 2.00015 4.44772 2.00015 5V12C2.00015 12.5523 2.44787 13 3.00015 13H13.0002C13.5524 13 14.0002 12.5523 14.0002 12V5C14.0002 4.44772 13.5524 4 13.0002 4H3.00015Z" fill="#303233"/>
</svg>
