<svg width="16" height="16" viewBox="0 0 16 16" fill="none" xmlns="http://www.w3.org/2000/svg">
<path fill-rule="evenodd" clip-rule="evenodd" d="M5.49609 8.00008C5.49609 9.38075 6.61543 10.5001 7.99609 10.5001C9.37676 10.5001 10.4961 9.38075 10.4961 8.00008C10.4961 6.61941 9.37676 5.50008 7.99609 5.50008C6.61543 5.50008 5.49609 6.61941 5.49609 8.00008ZM9.49609 8.00008C9.49609 8.82875 8.82476 9.50008 7.99609 9.50008C7.16743 9.50008 6.49609 8.82875 6.49609 8.00008C6.49609 7.17141 7.16743 6.50008 7.99609 6.50008C8.82476 6.50008 9.49609 7.17141 9.49609 8.00008Z" fill="#303233"/>
<path fill-rule="evenodd" clip-rule="evenodd" d="M5.34138 12.6027C5.54605 12.7207 5.70805 12.9014 5.80405 13.1174L6.19338 13.9934C6.34871 14.3427 6.60138 14.6394 6.92205 14.8474C7.24271 15.056 7.61671 15.1667 7.99871 15.1667C8.38071 15.1667 8.75471 15.056 9.07471 14.8474C9.39538 14.6394 9.64871 14.3427 9.80338 13.9934L10.1927 13.118C10.2887 12.9034 10.45 12.724 10.6534 12.606C10.858 12.488 11.0954 12.438 11.3307 12.4627L12.2834 12.564C12.6634 12.604 13.0474 12.5334 13.3874 12.36C13.728 12.1867 14.0107 11.918 14.202 11.5874C14.3927 11.256 14.484 10.8774 14.464 10.4954C14.444 10.114 14.3134 9.74671 14.0887 9.43737L13.5254 8.66337C13.386 8.47071 13.312 8.23938 13.3134 8.00271V8.00004C13.3134 7.76337 13.388 7.53271 13.5274 7.34137L14.0914 6.56604C14.3167 6.25737 14.4467 5.88937 14.4667 5.50804C14.4867 5.12671 14.396 4.74737 14.2047 4.41671C14.014 4.08604 13.7307 3.81737 13.3907 3.64404C13.05 3.47071 12.6667 3.39937 12.2867 3.44004L11.3334 3.54137C11.0987 3.56604 10.8614 3.51537 10.6567 3.39737C10.4527 3.27937 10.292 3.09937 10.1967 2.88404L10.1954 2.88137L9.80271 2.00537C9.64871 1.65737 9.39538 1.36071 9.07471 1.15271C8.75471 0.944041 8.38071 0.833374 7.99871 0.833374C7.61671 0.833374 7.24271 0.944041 6.92205 1.15271C6.60138 1.36071 6.34871 1.65737 6.19338 2.00671L5.80405 2.88271L5.80338 2.88404C5.70805 3.09937 5.54738 3.27937 5.34338 3.39804C5.13871 3.51604 4.90138 3.56604 4.66605 3.54137L3.71071 3.44004C3.33071 3.39937 2.94671 3.47071 2.60671 3.64404C2.26605 3.81737 1.98338 4.08604 1.79205 4.41671C1.60138 4.74737 1.51005 5.12671 1.53005 5.50804C1.55005 5.89004 1.68071 6.25737 1.90538 6.56604L2.46938 7.34137C2.60871 7.53271 2.68405 7.76337 2.68338 8.00004C2.68405 8.23671 2.60871 8.46737 2.46938 8.65871L1.90538 9.43404C1.68071 9.74271 1.55005 10.11 1.53005 10.492C1.51005 10.8734 1.60138 11.2527 1.79205 11.5834C1.98338 11.914 2.26605 12.1827 2.60671 12.356C2.94671 12.5294 3.33071 12.6 3.71071 12.56L4.66338 12.4587C4.89871 12.434 5.13605 12.4847 5.34138 12.6027ZM7.10738 13.5874L6.71738 12.7114C6.53605 12.3014 6.22871 11.9607 5.84071 11.7367C5.45338 11.5127 5.00405 11.4174 4.55871 11.464L3.60538 11.566C3.41805 11.5854 3.22871 11.55 3.06005 11.4647C2.89205 11.3794 2.75271 11.2467 2.65805 11.0834C2.56405 10.92 2.51871 10.7327 2.52871 10.5447C2.53871 10.356 2.60271 10.1747 2.71405 10.0227L3.27871 9.24671C3.54205 8.88471 3.68405 8.44804 3.68338 8.00004C3.68405 7.55204 3.54205 7.11604 3.27871 6.75338L2.71405 5.97737C2.60271 5.82537 2.53871 5.64404 2.52871 5.45537C2.51871 5.26737 2.56405 5.08004 2.65805 4.91671C2.75271 4.75337 2.89205 4.62071 3.06005 4.53538C3.22805 4.44937 3.41738 4.41471 3.60538 4.43404L4.56205 4.53604C5.00738 4.58271 5.45605 4.48737 5.84405 4.26337L5.84538 4.26271C6.23205 4.03804 6.53738 3.69671 6.71805 3.28804L7.10738 2.41271C7.18405 2.24004 7.30871 2.09337 7.46671 1.99071C7.62538 1.88804 7.81005 1.83337 7.99871 1.83337C8.18738 1.83337 8.37205 1.88804 8.53005 1.99071C8.68805 2.09337 8.81338 2.24004 8.88938 2.41271L8.89005 2.41404L9.28271 3.29071C9.46271 3.69671 9.76805 4.03804 10.1547 4.26271L10.156 4.26337C10.544 4.48737 10.9927 4.58271 11.438 4.53604L12.392 4.43404C12.5794 4.41471 12.7687 4.44937 12.9367 4.53538C13.1047 4.62071 13.2447 4.75337 13.3387 4.91671C13.4334 5.08004 13.478 5.26737 13.468 5.45537C13.4587 5.64404 13.394 5.82537 13.2834 5.97737L12.7187 6.75338C12.4554 7.11538 12.3134 7.55138 12.3134 7.99871C12.3114 8.44738 12.452 8.88538 12.7147 9.24937L12.7154 9.25071L13.28 10.026C13.3914 10.1787 13.4554 10.36 13.4654 10.548C13.4754 10.7367 13.43 10.924 13.336 11.0874C13.2414 11.2507 13.102 11.3834 12.934 11.4687C12.766 11.554 12.5767 11.5894 12.3887 11.5694L11.4354 11.468C10.99 11.4214 10.5407 11.5167 10.1527 11.7407C9.76671 11.964 9.46138 12.3034 9.27938 12.7107L8.88938 13.5874C8.81338 13.76 8.68805 13.9067 8.53005 14.0094C8.37205 14.112 8.18738 14.1667 7.99871 14.1667C7.81005 14.1667 7.62538 14.112 7.46671 14.0094C7.30871 13.9067 7.18405 13.76 7.10738 13.5874Z" fill="#303233"/>
</svg>
