<svg width="16" height="16" viewBox="0 0 16 16" fill="none" xmlns="http://www.w3.org/2000/svg">
<path fill-rule="evenodd" clip-rule="evenodd" d="M2.02054 7.5H4.9218C5.05394 5.552 5.72925 3.68464 6.86394 2.10741C4.25292 2.6078 2.24324 4.80055 2.02054 7.5ZM8 2.26653C6.79253 3.75892 6.06808 5.58483 5.92434 7.5H10.0757C9.93192 5.58483 9.20746 3.75892 8 2.26653ZM10.0757 8.5C9.93192 10.4152 9.20746 12.2411 8 13.7335C6.79253 12.2411 6.06808 10.4152 5.92434 8.5H10.0757ZM4.9218 8.5H2.02054C2.24324 11.1995 4.25292 13.3922 6.86394 13.8926C5.72925 12.3154 5.05394 10.448 4.9218 8.5ZM9.13606 13.8926C10.2708 12.3154 10.9461 10.448 11.0782 8.5H13.9795C13.7568 11.1995 11.7471 13.3922 9.13606 13.8926ZM13.9795 7.5H11.0782C10.9461 5.552 10.2708 3.68464 9.13606 2.10741C11.7471 2.6078 13.7568 4.80055 13.9795 7.5ZM1 8C1 4.13401 4.13401 1 8 1C11.866 1 15 4.13401 15 8C15 11.866 11.866 15 8 15C4.13401 15 1 11.866 1 8Z" fill="#303233"/>
</svg>
