<svg width="16" height="16" viewBox="0 0 16 16" fill="none" xmlns="http://www.w3.org/2000/svg">
<path fill-rule="evenodd" clip-rule="evenodd" d="M8 2C8.33859 2 8.6 2.26834 8.6 2.58333V7.27778C8.6 7.55392 8.82386 7.77778 9.1 7.77778C9.37614 7.77778 9.6 7.55392 9.6 7.27778V3.30556C9.6 2.99056 9.8614 2.72222 10.2 2.72222C10.5386 2.72222 10.8 2.99056 10.8 3.30556V9.44444C10.8 9.72059 11.0239 9.94444 11.3 9.94444C11.5761 9.94444 11.8 9.72059 11.8 9.44444V7.63889C11.8 7.32389 12.0614 7.05556 12.4 7.05556C12.7386 7.05556 13 7.32389 13 7.63889V9.08333C13 11.7916 10.7686 14 8 14C5.23135 14 3 11.7916 3 9.08333V5.47222C3 5.15723 3.2614 4.88889 3.6 4.88889C3.93859 4.88889 4.2 5.15723 4.2 5.47222V7.27778C4.2 7.55392 4.42386 7.77778 4.7 7.77778C4.97614 7.77778 5.2 7.55392 5.2 7.27778V3.30556C5.2 2.99056 5.4614 2.72222 5.8 2.72222C6.1386 2.72222 6.4 2.99056 6.4 3.30556V7.27778C6.4 7.55392 6.62386 7.77778 6.9 7.77778C7.17614 7.77778 7.4 7.55392 7.4 7.27778V2.58333C7.4 2.26834 7.6614 2 8 2ZM6.55214 1.90799C6.8093 1.36899 7.36446 1 8 1C8.63554 1 9.1907 1.36899 9.44786 1.90799C9.67273 1.78928 9.92906 1.72222 10.2 1.72222C11.0764 1.72222 11.8 2.42394 11.8 3.30556V6.17091C11.9857 6.09645 12.1884 6.05556 12.4 6.05556C13.2764 6.05556 14 6.75727 14 7.63889V9.08333C14 12.3582 11.3065 15 8 15C4.69352 15 2 12.3582 2 9.08333V5.47222C2 4.5906 2.72357 3.88889 3.6 3.88889C3.81159 3.88889 4.01426 3.92979 4.2 4.00424V3.30556C4.2 2.42394 4.92357 1.72222 5.8 1.72222C6.07094 1.72222 6.32727 1.78928 6.55214 1.90799Z" fill="#303233"/>
</svg>
