<svg width="16" height="16" viewBox="0 0 16 16" fill="none" xmlns="http://www.w3.org/2000/svg">
<path fill-rule="evenodd" clip-rule="evenodd" d="M8 1C4.13401 1 1 4.13401 1 8C1 11.866 4.13401 15 8 15C11.866 15 15 11.866 15 8C15 4.13401 11.866 1 8 1ZM7.5 5.5C7.5 5.22386 7.72386 5 8 5H8.00667C8.28281 5 8.50667 5.22386 8.50667 5.5C8.50667 5.77614 8.28281 6 8.00667 6H8C7.72386 6 7.5 5.77614 7.5 5.5ZM8 7.5C8.27614 7.5 8.5 7.72386 8.5 8V10.5C8.5 10.7761 8.27614 11 8 11C7.72386 11 7.5 10.7761 7.5 10.5V8C7.5 7.72386 7.72386 7.5 8 7.5Z" fill="#303233"/>
</svg>
