<svg width="16" height="16" viewBox="0 0 16 16" fill="none" xmlns="http://www.w3.org/2000/svg">
<path fill-rule="evenodd" clip-rule="evenodd" d="M1 8C1 4.15196 4.00861 1 7.75926 1C8.99339 1 10.1509 1.34296 11.1464 1.94097C11.3831 2.08317 11.4597 2.39034 11.3175 2.62706C11.1753 2.86377 10.8681 2.94039 10.6314 2.79819C9.78561 2.29011 8.8053 2 7.75926 2C4.59613 2 2 4.66834 2 8C2 11.3317 4.59613 14 7.75926 14C8.8053 14 9.78561 13.7099 10.6314 13.2018C10.8681 13.0596 11.1753 13.1362 11.3175 13.3729C11.4597 13.6097 11.3831 13.9168 11.1464 14.059C10.1509 14.657 8.99339 15 7.75926 15C4.00861 15 1 11.848 1 8ZM12.1464 5.14645C12.3417 4.95118 12.6583 4.95118 12.8536 5.14645L15.3536 7.64645C15.5488 7.84171 15.5488 8.15829 15.3536 8.35355L12.8536 10.8536C12.6583 11.0488 12.3417 11.0488 12.1464 10.8536C11.9512 10.6583 11.9512 10.3417 12.1464 10.1464L13.7929 8.5H6.5C6.22386 8.5 6 8.27614 6 8C6 7.72386 6.22386 7.5 6.5 7.5H13.7929L12.1464 5.85355C11.9512 5.65829 11.9512 5.34171 12.1464 5.14645Z" fill="#303233"/>
</svg>
