<svg width="16" height="16" viewBox="0 0 16 16" fill="none" xmlns="http://www.w3.org/2000/svg">
<path d="M9.99935 0.833496C10.2755 0.833496 10.4993 1.05735 10.4993 1.3335V2.3335C10.4993 2.60964 10.2755 2.8335 9.99935 2.8335C9.72321 2.8335 9.49935 2.60964 9.49935 2.3335V1.3335C9.49935 1.05735 9.72321 0.833496 9.99935 0.833496Z" fill="#009B48"/>
<path d="M6.31246 2.31328C6.50772 2.11801 6.82431 2.11801 7.01957 2.31328L7.68624 2.97994C7.8815 3.1752 7.8815 3.49179 7.68624 3.68705C7.49097 3.88231 7.17439 3.88231 6.97913 3.68705L6.31246 3.02038C6.1172 2.82512 6.1172 2.50854 6.31246 2.31328Z" fill="#009B48"/>
<path d="M13.6862 2.31328C13.8815 2.50854 13.8815 2.82512 13.6862 3.02038L13.0196 3.68705C12.8243 3.88231 12.5077 3.88231 12.3125 3.68705C12.1172 3.49179 12.1172 3.1752 12.3125 2.97994L12.9791 2.31328C13.1744 2.11801 13.491 2.11801 13.6862 2.31328Z" fill="#009B48"/>
<path d="M13.166 6.00016C13.166 5.72402 13.3899 5.50016 13.666 5.50016H14.666C14.9422 5.50016 15.166 5.72402 15.166 6.00016C15.166 6.27631 14.9422 6.50016 14.666 6.50016H13.666C13.3899 6.50016 13.166 6.27631 13.166 6.00016Z" fill="#009B48"/>
<path d="M12.3125 8.31328C12.5077 8.11801 12.8243 8.11801 13.0196 8.31328L13.6862 8.97994C13.8815 9.17521 13.8815 9.49179 13.6862 9.68705C13.491 9.88231 13.1744 9.88231 12.9791 9.68705L12.3125 9.02038C12.1172 8.82512 12.1172 8.50854 12.3125 8.31328Z" fill="#009B48"/>
<path fill-rule="evenodd" clip-rule="evenodd" d="M8.63938 4.8334C8.8737 4.75726 9.1261 4.75726 9.36042 4.8334C9.52431 4.88665 9.65302 4.97778 9.7617 5.07004C9.86249 5.15561 9.97395 5.26708 10.0953 5.38846L10.6115 5.90469C10.7329 6.02603 10.8445 6.13758 10.93 6.23836C11.0223 6.34704 11.1134 6.47575 11.1667 6.63964C11.2428 6.87395 11.2428 7.12636 11.1667 7.36068C11.1134 7.52456 11.0223 7.65327 10.93 7.76195C10.8444 7.86275 10.733 7.97422 10.6116 8.09558L4.42868 14.2785C4.30731 14.3999 4.19583 14.5114 4.09503 14.5969C3.98635 14.6892 3.85764 14.7803 3.69375 14.8336C3.45944 14.9097 3.20703 14.9097 2.97271 14.8336C2.80883 14.7803 2.68012 14.6892 2.57144 14.5969C2.47064 14.5114 2.35918 14.3999 2.23781 14.2785L1.72159 13.7623C1.6002 13.6409 1.48869 13.5294 1.40312 13.4286C1.31085 13.3199 1.21973 13.1912 1.16648 13.0273C1.09034 12.793 1.09034 12.5406 1.16648 12.3063C1.21973 12.1424 1.31085 12.0137 1.40311 11.905C1.48869 11.8042 1.60017 11.6928 1.72156 11.5714L7.90447 5.38848C8.02584 5.26709 8.1373 5.15561 8.2381 5.07004C8.34678 4.97778 8.47549 4.88665 8.63938 4.8334ZM6.66633 8.04083L2.44103 12.2661C2.30319 12.404 2.22135 12.4864 2.16545 12.5522C2.13134 12.5924 2.11973 12.612 2.11684 12.6175C2.10689 12.6496 2.10689 12.684 2.11684 12.7162C2.11973 12.7216 2.13134 12.7413 2.16545 12.7814C2.22135 12.8473 2.30319 12.9297 2.44103 13.0675L2.93254 13.559C3.07038 13.6969 3.15277 13.7787 3.21861 13.8346C3.2588 13.8687 3.27842 13.8803 3.2839 13.8832C3.31603 13.8932 3.35043 13.8932 3.38256 13.8832C3.38804 13.8803 3.40766 13.8687 3.44785 13.8346C3.5137 13.7787 3.59609 13.6969 3.73393 13.559L7.95922 9.33373L6.66633 8.04083ZM8.66633 8.62662L7.37344 7.33373L8.59921 6.10796C8.73704 5.97012 8.81944 5.88828 8.88528 5.83238C8.92547 5.79826 8.94509 5.78665 8.95057 5.78377C8.9827 5.77381 9.0171 5.77381 9.04923 5.78377C9.05471 5.78665 9.07433 5.79826 9.11452 5.83238C9.18036 5.88828 9.26275 5.97012 9.40059 6.10796L9.8921 6.59946C10.0299 6.7373 10.1118 6.81969 10.1677 6.88554C10.2018 6.92572 10.2134 6.94534 10.2163 6.95083C10.2262 6.98296 10.2262 7.01735 10.2163 7.04948C10.2134 7.05496 10.2018 7.07458 10.1677 7.11477C10.1118 7.18062 10.0299 7.26301 9.8921 7.40085L8.66633 8.62662Z" fill="#009B48"/>
</svg>
