<svg width="16" height="16" viewBox="0 0 16 16" fill="none" xmlns="http://www.w3.org/2000/svg">
<path fill-rule="evenodd" clip-rule="evenodd" d="M3.41847 4.12558C2.53358 5.17092 2 6.52315 2 8C2 11.3137 4.68629 14 8 14C9.47685 14 10.8291 13.4664 11.8744 12.5815L3.41847 4.12558ZM4.12558 3.41847L12.5815 11.8744C13.4664 10.8291 14 9.47685 14 8C14 4.68629 11.3137 2 8 2C6.52315 2 5.17092 2.53358 4.12558 3.41847ZM1 8C1 4.13401 4.13401 1 8 1C11.866 1 15 4.13401 15 8C15 11.866 11.866 15 8 15C4.13401 15 1 11.866 1 8Z" fill="#303233"/>
</svg>
