<svg width="16" height="16" viewBox="0 0 16 16" fill="none" xmlns="http://www.w3.org/2000/svg">
<path fill-rule="evenodd" clip-rule="evenodd" d="M4.50588 1.3335H11.4943C12.0309 1.33349 12.4738 1.33348 12.8346 1.36296C13.2094 1.39358 13.5538 1.45929 13.8774 1.62415C14.3792 1.87981 14.7871 2.28776 15.0428 2.78952C15.2076 3.11308 15.2733 3.45755 15.304 3.83228C15.3334 4.19307 15.3334 4.63597 15.3334 5.17261V8.16105C15.3334 8.69769 15.3334 9.14059 15.304 9.50138C15.2733 9.87611 15.2076 10.2206 15.0428 10.5441C14.7871 11.0459 14.3792 11.4539 13.8774 11.7095C13.5538 11.8744 13.2094 11.9401 12.8346 11.9707C12.4738 12.0002 12.0309 12.0002 11.4943 12.0002H4.5059C3.96924 12.0002 3.52633 12.0002 3.16553 11.9707C2.7908 11.9401 2.44633 11.8744 2.12277 11.7095C1.62101 11.4539 1.21306 11.0459 0.957398 10.5441C0.792537 10.2206 0.726828 9.87611 0.696211 9.50138C0.666733 9.14058 0.66674 8.69768 0.666748 8.16103V5.17263C0.66674 4.63598 0.666733 4.19308 0.696211 3.83228C0.726828 3.45755 0.792537 3.11308 0.957398 2.78952C1.21306 2.28776 1.62101 1.87981 2.12277 1.62415C2.44633 1.45929 2.7908 1.39358 3.16553 1.36296C3.52633 1.33348 3.96924 1.33349 4.50588 1.3335ZM3.27411 2.69186C2.98183 2.71574 2.83236 2.75903 2.72809 2.81215C2.47721 2.93999 2.27324 3.14396 2.14541 3.39484C2.09228 3.49911 2.049 3.64858 2.02512 3.94086C2.0006 4.24092 2.00008 4.62911 2.00008 5.20016V8.1335C2.00008 8.70455 2.0006 9.09275 2.02512 9.39281C2.049 9.68508 2.09228 9.83455 2.14541 9.93882C2.27324 10.1897 2.47721 10.3937 2.72809 10.5215C2.83236 10.5746 2.98183 10.6179 3.27411 10.6418C3.57417 10.6663 3.96236 10.6668 4.53342 10.6668H11.4667C12.0378 10.6668 12.426 10.6663 12.7261 10.6418C13.0183 10.6179 13.1678 10.5746 13.2721 10.5215C13.523 10.3937 13.7269 10.1897 13.8548 9.93882C13.9079 9.83455 13.9512 9.68508 13.975 9.39281C13.9996 9.09275 14.0001 8.70455 14.0001 8.1335V5.20016C14.0001 4.62911 13.9996 4.24092 13.975 3.94086C13.9512 3.64858 13.9079 3.49911 13.8548 3.39484C13.7269 3.14396 13.523 2.93999 13.2721 2.81215C13.1678 2.75903 13.0183 2.71574 12.7261 2.69186C12.426 2.66735 12.0378 2.66683 11.4667 2.66683H4.53342C3.96236 2.66683 3.57417 2.66735 3.27411 2.69186ZM8.00008 14.0002C7.04144 14.0002 6.13759 14.2169 5.33626 14.6013C5.00428 14.7605 4.60608 14.6204 4.44685 14.2885C4.28763 13.9565 4.42767 13.5583 4.75965 13.3991C5.73806 12.9298 6.83868 12.6668 8.00008 12.6668C9.16149 12.6668 10.2621 12.9298 11.2405 13.3991C11.5725 13.5583 11.7125 13.9565 11.5533 14.2885C11.3941 14.6204 10.9959 14.7605 10.6639 14.6013C9.86258 14.2169 8.95872 14.0002 8.00008 14.0002Z" fill="#303233"/>
</svg>
