<svg width="16" height="16" viewBox="0 0 16 16" fill="none" xmlns="http://www.w3.org/2000/svg">
<path d="M6.66699 13.5C6.94298 13.5002 7.16699 13.724 7.16699 14C7.16699 14.276 6.94298 14.4998 6.66699 14.5H2.66699C2.39085 14.5 2.16699 14.2761 2.16699 14C2.16699 13.7239 2.39085 13.5 2.66699 13.5H6.66699ZM11.6465 8.14648C11.8417 7.95122 12.1583 7.95122 12.3535 8.14648L15.1865 10.9795C15.3818 11.1748 15.3818 11.4913 15.1865 11.6865C14.9913 11.8818 14.6748 11.8818 14.4795 11.6865L12.5 9.70703V14C12.5 14.2761 12.2761 14.5 12 14.5C11.7239 14.5 11.5 14.2761 11.5 14V9.70703L9.52051 11.6865C9.32525 11.8818 9.00874 11.8818 8.81348 11.6865C8.61821 11.4913 8.61821 11.1748 8.81348 10.9795L11.6465 8.14648ZM6.66699 10.833C6.94288 10.8332 7.16682 11.0571 7.16699 11.333C7.16699 11.609 6.94298 11.8328 6.66699 11.833H2.66699C2.39085 11.833 2.16699 11.6091 2.16699 11.333C2.16717 11.057 2.39096 10.833 2.66699 10.833H6.66699ZM6.66699 8.16699C6.94298 8.16717 7.16699 8.39096 7.16699 8.66699C7.16682 8.94288 6.94288 9.16682 6.66699 9.16699H2.66699C2.39096 9.16699 2.16717 8.94299 2.16699 8.66699C2.16699 8.39085 2.39085 8.16699 2.66699 8.16699H6.66699ZM12 2.16699C13.0125 2.16699 13.833 2.98748 13.833 4V4.66699C13.8328 5.67936 13.0124 6.5 12 6.5H4C2.98759 6.5 2.16717 5.67936 2.16699 4.66699V4C2.16699 2.98748 2.98748 2.16699 4 2.16699H12ZM4 3.16699C3.53976 3.16699 3.16699 3.53976 3.16699 4V4.66699C3.16717 5.12708 3.53987 5.5 4 5.5H12C12.4601 5.5 12.8328 5.12708 12.833 4.66699V4C12.833 3.53976 12.4602 3.16699 12 3.16699H4Z" fill="#303233"/>
</svg>
