<svg width="24" height="24" viewBox="0 0 24 24" fill="none" xmlns="http://www.w3.org/2000/svg">
<path d="M9.25 8.25C9.66421 8.25 10 8.58579 10 9V15C10 15.4142 9.66421 15.75 9.25 15.75C8.83579 15.75 8.5 15.4142 8.5 15V9C8.5 8.58579 8.83579 8.25 9.25 8.25Z" fill="#04101E"/>
<path d="M15.5 9C15.5 8.58579 15.1642 8.25 14.75 8.25C14.3358 8.25 14 8.58579 14 9V15C14 15.4142 14.3358 15.75 14.75 15.75C15.1642 15.75 15.5 15.4142 15.5 15V9Z" fill="#04101E"/>
<path fill-rule="evenodd" clip-rule="evenodd" d="M1.25 12C1.25 6.06294 6.06294 1.25 12 1.25C17.9371 1.25 22.75 6.06294 22.75 12C22.75 17.9371 17.9371 22.75 12 22.75C6.06294 22.75 1.25 17.9371 1.25 12ZM12 2.75C6.89137 2.75 2.75 6.89137 2.75 12C2.75 17.1086 6.89137 21.25 12 21.25C17.1086 21.25 21.25 17.1086 21.25 12C21.25 6.89137 17.1086 2.75 12 2.75Z" fill="#04101E"/>
</svg>
