<svg width="14" height="14" viewBox="0 0 14 14" fill="none" xmlns="http://www.w3.org/2000/svg">
<path d="M5 4.5C5.27614 4.5 5.5 4.72386 5.5 5V9C5.5 9.27614 5.27614 9.5 5 9.5C4.72386 9.5 4.5 9.27614 4.5 9V5C4.5 4.72386 4.72386 4.5 5 4.5Z" fill="#616366"/>
<path d="M9.5 5C9.5 4.72386 9.27614 4.5 9 4.5C8.72386 4.5 8.5 4.72386 8.5 5V9C8.5 9.27614 8.72386 9.5 9 9.5C9.27614 9.5 9.5 9.27614 9.5 9V5Z" fill="#616366"/>
<path fill-rule="evenodd" clip-rule="evenodd" d="M0 1.94444C0 0.870557 0.870557 0 1.94444 0H12.0556C13.1294 0 14 0.870557 14 1.94444V12.0556C14 13.1294 13.1294 14 12.0556 14H1.94444C0.870557 14 0 13.1294 0 12.0556V1.94444ZM1.94444 1C1.42284 1 1 1.42284 1 1.94444V12.0556C1 12.5772 1.42284 13 1.94444 13H12.0556C12.5772 13 13 12.5772 13 12.0556V1.94444C13 1.42284 12.5772 1 12.0556 1H1.94444Z" fill="#616366"/>
</svg>
