<svg width="16" height="16" viewBox="0 0 16 16" fill="none" xmlns="http://www.w3.org/2000/svg">
<path d="M6 5.5C6.27614 5.5 6.5 5.72386 6.5 6V10C6.5 10.2761 6.27614 10.5 6 10.5C5.72386 10.5 5.5 10.2761 5.5 10V6C5.5 5.72386 5.72386 5.5 6 5.5Z" fill="#303233"/>
<path d="M10.5 6C10.5 5.72386 10.2761 5.5 10 5.5C9.72386 5.5 9.5 5.72386 9.5 6V10C9.5 10.2761 9.72386 10.5 10 10.5C10.2761 10.5 10.5 10.2761 10.5 10V6Z" fill="#303233"/>
<path fill-rule="evenodd" clip-rule="evenodd" d="M1 8C1 4.13401 4.13401 1 8 1C11.866 1 15 4.13401 15 8C15 11.866 11.866 15 8 15C4.13401 15 1 11.866 1 8ZM8 2C4.68629 2 2 4.68629 2 8C2 11.3137 4.68629 14 8 14C11.3137 14 14 11.3137 14 8C14 4.68629 11.3137 2 8 2Z" fill="#303233"/>
</svg>
