<svg width="48" height="48" viewBox="0 0 48 48" fill="none" xmlns="http://www.w3.org/2000/svg">
<path d="M22.2133 29.9189C21.9581 29.462 21.773 29.1769 21.6293 28.9883C21.7503 28.9394 21.8719 28.786 21.8719 28.367C21.8719 27.8667 21.232 27.2846 20.6869 26.7887C20.3234 26.458 20.0021 26.1656 19.9408 25.9615C19.7878 25.4514 20.0938 24.4097 20.8416 23.0191C21.4913 21.8109 21.7897 20.2534 21.8569 19.8655C21.8768 19.8803 21.8975 19.8953 21.9189 19.9103C22.6559 20.4272 23.3414 20.4973 23.7912 20.4272C23.9813 20.3976 24.2032 20.2607 24.4106 20.1326C24.5638 20.0381 24.7092 19.9483 24.8281 19.9103C24.9815 19.8612 25.2372 19.7283 25.4369 19.5869C25.4794 19.9639 25.5994 20.6156 25.9378 21.2489C26.4569 22.2205 27.471 24.9368 27.471 24.9368L27.6642 25.1979C27.5169 25.2082 27.3725 25.2477 27.2333 25.3241C27.0093 25.4469 26.9071 25.757 26.8822 26.0837C26.579 26.2487 26.1679 26.6229 26.1679 27.4397C26.1679 28.0749 26.0238 28.57 25.8772 29.0741C25.8349 29.2194 25.7924 29.3655 25.753 29.5159C24.4072 30.5871 22.9319 30.2369 22.2191 29.9294L22.2133 29.9189Z" fill="url(#paint0_linear_5037_752)"/>
<path d="M26.9644 26.8655C26.7935 27.0414 26.6464 27.3184 26.6464 27.751C26.6464 28.258 26.5294 28.653 26.4102 29.0553C26.2866 29.4725 26.1607 29.8975 26.1607 30.4631C26.1607 30.9595 26.9183 31.4998 27.8287 31.3712C28.3761 31.2939 28.6528 31.0297 28.9482 30.7477C29.1441 30.5606 29.3482 30.3657 29.645 30.2122C29.8505 30.1059 30.0753 30.0221 30.2908 29.9418C30.8558 29.7313 31.3557 29.545 31.2698 29.0404C31.2012 28.6375 30.99 28.4724 30.8239 28.3427C30.7027 28.248 30.6056 28.1721 30.6056 28.0363C30.6056 27.7144 30.5123 27.1863 30.1328 27.0281C29.9501 26.952 29.6 26.9343 29.2858 26.9364C29.0451 27.248 28.5852 27.6008 28.0941 27.6008C27.4791 27.6008 27.1943 27.3251 27.0109 26.9765C26.9943 26.9449 26.9787 26.9075 26.9644 26.8655Z" fill="url(#paint1_linear_5037_752)"/>
<path d="M24.5594 16.5712C25.587 16.7159 25.4367 18.216 25.184 18.612C25.0846 18.563 24.9671 18.5131 24.8281 18.4625C24.7789 18.4446 24.7321 18.4273 24.6875 18.4105C24.8175 18.1931 24.8739 17.8068 24.4548 17.7553C24.1467 17.7174 24.0451 17.9522 24.012 18.1295L23.9513 18.1014C23.8074 18.0345 23.7395 18.0029 23.6675 18.0029C23.6515 18.0029 23.6309 18.0018 23.6066 18.0001C23.6063 17.965 23.6018 16.4363 24.5594 16.5712Z" fill="url(#paint2_linear_5037_752)"/>
<path d="M22.2291 16.7335C22.7166 16.7335 22.8984 17.8696 22.9163 17.9904C22.8201 18.0039 22.7299 18.0276 22.6559 18.067C22.6422 18.0742 22.6282 18.082 22.6139 18.0902C22.5487 17.8736 22.4284 17.663 22.2168 17.8112C21.9606 17.9908 22.049 18.268 22.1344 18.4304C22.0938 18.462 22.0533 18.4938 22.0134 18.5251L21.9113 18.6051C21.3253 17.7631 21.7336 16.7335 22.2291 16.7335Z" fill="url(#paint3_linear_5037_752)"/>
<path d="M24.1543 19.8259C23.9883 19.9113 23.8108 20.0026 23.6587 20.0223C23.2989 20.069 22.7505 20.0223 22.1609 19.6777C21.5714 19.3331 21.7144 19.0672 21.9318 18.9455C22.0166 18.8981 22.1234 18.8282 22.2363 18.7543C22.4131 18.6387 22.6049 18.5133 22.7505 18.4488C22.9395 18.3651 23.2607 18.3872 23.4465 18.4C23.4951 18.4034 23.5345 18.4061 23.5598 18.4061C23.6173 18.4061 23.6717 18.4271 23.7868 18.4717C23.9153 18.5215 24.1195 18.6006 24.4882 18.7125C25.1875 18.9247 25.2079 19.1186 25.2079 19.2456C25.2079 19.3726 24.7121 19.618 24.4882 19.6777C24.3931 19.7031 24.2768 19.7629 24.1543 19.8259Z" fill="url(#paint4_linear_5037_752)"/>
<path d="M17.5661 30.7064C17.9116 30.6693 18.3653 30.6207 19.4416 31.1929C20.7596 31.8935 22.3553 30.9889 21.6615 29.7466C21.2032 28.9262 21.0233 28.7878 20.8695 28.6696C20.7905 28.6088 20.7184 28.5534 20.619 28.4134C20.4562 28.184 20.2976 27.8924 20.142 27.6064C20.0178 27.378 19.8956 27.1531 19.7745 26.9662C19.5019 26.5452 18.8968 26.5128 18.5776 26.6046C18.4312 26.6467 18.3417 26.8155 18.2478 26.9927C18.137 27.2017 18.0199 27.4225 17.7957 27.4612C17.3364 27.5404 16.7107 28.0813 16.8353 28.4134C16.9165 28.6298 16.8389 29.1084 16.775 29.5022C16.7409 29.7125 16.7107 29.8987 16.7107 30.0079C16.7107 30.3216 16.9487 30.7225 17.344 30.7225C17.4164 30.7225 17.4886 30.7147 17.5661 30.7064Z" fill="url(#paint5_linear_5037_752)"/>
<path d="M27.3601 25.7054C27.0821 25.8634 27.116 26.5184 27.2263 26.7357C27.3367 26.9531 27.5081 27.125 27.8781 27.125C28.2481 27.125 28.5887 26.7802 28.6777 26.5726C28.7667 26.3649 28.7345 26.143 28.3964 25.9127C28.0583 25.6824 27.6858 25.5203 27.3601 25.7054Z" fill="url(#paint6_linear_5037_752)"/>
<path fill-rule="evenodd" clip-rule="evenodd" d="M38 10C40.2091 10 42 11.7909 42 14V32C42 34.2091 40.2091 36 38 36H10C7.79086 36 6 34.2091 6 32V14C6 11.7909 7.79086 10 10 10H38ZM28.1651 21.4825C30.0173 23.233 29.8936 25.6662 29.8015 26.4261C30.0631 26.4387 30.3076 26.4698 30.4588 26.5339C30.9259 26.7322 31.0407 27.3939 31.0407 27.7972C31.0407 27.9674 31.1603 28.0625 31.3094 28.1811C31.5138 28.3437 31.7738 28.5505 31.8582 29.0554C31.9639 29.6876 31.3486 29.9211 30.6532 30.1849C30.3881 30.2854 30.1113 30.3905 29.8584 30.5237C29.4932 30.7161 29.2419 30.9603 29.0009 31.1946C28.6373 31.548 28.2968 31.879 27.623 31.9759C26.6669 32.1134 25.8477 31.6406 25.6279 31.1124C24.0152 30.7837 22.8402 31.0064 22.2953 31.1628C21.8954 31.9448 20.6061 32.297 19.4812 31.6989C18.1564 30.9947 17.5981 31.0546 17.1728 31.1002C17.0774 31.1104 16.9887 31.1199 16.8995 31.1199C16.413 31.1199 16.1201 30.6266 16.1201 30.2405C16.1201 30.1061 16.1573 29.877 16.1992 29.6181C16.2779 29.1334 16.3734 28.5444 16.2734 28.278C16.1201 27.8693 16.8902 27.2036 17.4555 27.106C17.7314 27.0584 17.8755 26.7867 18.0118 26.5294C18.0525 26.4527 18.0925 26.3773 18.1351 26.3095C18.1089 25.9158 18.1892 25.2247 18.5912 24.0207C18.8983 23.1012 19.376 22.5346 19.8409 21.9832C20.6544 21.0184 21.4284 20.1004 21.1782 17.4201C20.8191 13.5739 25.2814 12.9512 26.4879 15.6561C26.8689 16.5104 26.8605 17.2751 26.8523 18.0186C26.8399 19.1431 26.8281 20.219 28.1651 21.4825Z" fill="url(#paint7_linear_5037_752)"/>
<path d="M2 39C2 38.4477 2.44772 38 3 38H45C45.5523 38 46 38.4477 46 39C46 39.5523 45.5523 40 45 40H3C2.44771 40 2 39.5523 2 39Z" fill="url(#paint8_linear_5037_752)"/>
<defs>
<linearGradient id="paint0_linear_5037_752" x1="24" y1="10" x2="24" y2="40" gradientUnits="userSpaceOnUse">
<stop stop-color="#BDC0C4"/>
<stop offset="1" stop-color="#A3A6AD"/>
</linearGradient>
<linearGradient id="paint1_linear_5037_752" x1="24" y1="10" x2="24" y2="40" gradientUnits="userSpaceOnUse">
<stop stop-color="#BDC0C4"/>
<stop offset="1" stop-color="#A3A6AD"/>
</linearGradient>
<linearGradient id="paint2_linear_5037_752" x1="24" y1="10" x2="24" y2="40" gradientUnits="userSpaceOnUse">
<stop stop-color="#BDC0C4"/>
<stop offset="1" stop-color="#A3A6AD"/>
</linearGradient>
<linearGradient id="paint3_linear_5037_752" x1="24" y1="10" x2="24" y2="40" gradientUnits="userSpaceOnUse">
<stop stop-color="#BDC0C4"/>
<stop offset="1" stop-color="#A3A6AD"/>
</linearGradient>
<linearGradient id="paint4_linear_5037_752" x1="24" y1="10" x2="24" y2="40" gradientUnits="userSpaceOnUse">
<stop stop-color="#BDC0C4"/>
<stop offset="1" stop-color="#A3A6AD"/>
</linearGradient>
<linearGradient id="paint5_linear_5037_752" x1="24" y1="10" x2="24" y2="40" gradientUnits="userSpaceOnUse">
<stop stop-color="#BDC0C4"/>
<stop offset="1" stop-color="#A3A6AD"/>
</linearGradient>
<linearGradient id="paint6_linear_5037_752" x1="24" y1="10" x2="24" y2="40" gradientUnits="userSpaceOnUse">
<stop stop-color="#BDC0C4"/>
<stop offset="1" stop-color="#A3A6AD"/>
</linearGradient>
<linearGradient id="paint7_linear_5037_752" x1="24" y1="10" x2="24" y2="40" gradientUnits="userSpaceOnUse">
<stop stop-color="#BDC0C4"/>
<stop offset="1" stop-color="#A3A6AD"/>
</linearGradient>
<linearGradient id="paint8_linear_5037_752" x1="24" y1="10" x2="24" y2="40" gradientUnits="userSpaceOnUse">
<stop stop-color="#BDC0C4"/>
<stop offset="1" stop-color="#A3A6AD"/>
</linearGradient>
</defs>
</svg>
