<svg width="48" height="48" viewBox="0 0 48 48" fill="none" xmlns="http://www.w3.org/2000/svg">
<path fill-rule="evenodd" clip-rule="evenodd" d="M38 10C40.2091 10 42 11.7909 42 14V32C42 34.2091 40.2091 36 38 36H10C7.79086 36 6 34.2091 6 32V14C6 11.7909 7.79086 10 10 10H38ZM26.1724 18.0264C26.7221 17.3883 26.9929 16.5681 26.9273 15.74C26.0875 15.8253 25.3118 16.2134 24.7547 16.827C24.2046 17.4325 23.9259 18.2245 23.98 19.0288C24.8311 19.0372 25.6391 18.6678 26.1724 18.0264ZM28.0227 23.3252C28.0375 22.214 28.6399 21.1876 29.6189 20.6056C28.9985 19.7488 27.9966 19.225 26.9155 19.1923C26.2198 19.1217 25.5371 19.3837 24.9791 19.5979C24.6249 19.7338 24.3209 19.8505 24.0959 19.8505C23.8398 19.8505 23.5272 19.729 23.1768 19.5929C22.7187 19.415 22.1962 19.212 21.6517 19.2229C20.3873 19.2624 19.2372 19.9407 18.622 21.0096C17.3121 23.2029 18.2892 26.4262 19.544 28.199C20.1718 29.0671 20.9056 30.0368 21.8657 30.0024C22.3012 29.985 22.6102 29.8592 22.9294 29.7293C23.2988 29.579 23.6818 29.4231 24.2901 29.4231C24.8637 29.4231 25.2303 29.5741 25.5821 29.719C25.9193 29.8579 26.243 29.9913 26.7224 29.9806C27.7306 29.9647 28.3657 29.1086 28.9715 28.2323C29.4226 27.6137 29.7697 26.9301 30 26.2067C28.8026 25.7169 28.0241 24.5824 28.0227 23.3252Z" fill="url(#paint0_linear_5037_747)"/>
<path d="M2 39C2 38.4477 2.44772 38 3 38H45C45.5523 38 46 38.4477 46 39C46 39.5523 45.5523 40 45 40H3C2.44771 40 2 39.5523 2 39Z" fill="url(#paint1_linear_5037_747)"/>
<defs>
<linearGradient id="paint0_linear_5037_747" x1="24" y1="10" x2="24" y2="40" gradientUnits="userSpaceOnUse">
<stop stop-color="#BDC0C4"/>
<stop offset="1" stop-color="#A3A6AD"/>
</linearGradient>
<linearGradient id="paint1_linear_5037_747" x1="24" y1="10" x2="24" y2="40" gradientUnits="userSpaceOnUse">
<stop stop-color="#BDC0C4"/>
<stop offset="1" stop-color="#A3A6AD"/>
</linearGradient>
</defs>
</svg>
