<svg width="16" height="16" viewBox="0 0 16 16" fill="none" xmlns="http://www.w3.org/2000/svg">
<path fill-rule="evenodd" clip-rule="evenodd" d="M12.0132 1C11.4863 1 10.9809 1.20932 10.6083 1.58192L1.84734 10.3429C1.78326 10.407 1.7378 10.4873 1.71582 10.5752L1.01494 13.3787C0.972342 13.5491 1.02227 13.7294 1.14646 13.8536C1.27065 13.9777 1.45089 14.0277 1.62128 13.9851L4.4248 13.2842C4.51272 13.2622 4.59301 13.2168 4.65709 13.1527L13.4181 4.39167C13.6026 4.20718 13.7489 3.98815 13.8488 3.7471C13.9486 3.50606 14 3.2477 14 2.98679C14 2.72588 13.9486 2.46753 13.8488 2.22648C13.7489 1.98543 13.6026 1.76641 13.4181 1.58192C13.2336 1.39743 13.0146 1.25108 12.7735 1.15124C12.5325 1.05139 12.2741 1 12.0132 1ZM11.3155 2.28902C11.5005 2.10397 11.7515 2 12.0132 2C12.1428 2 12.2711 2.02552 12.3908 2.07512C12.5106 2.12471 12.6194 2.19739 12.711 2.28902C12.8026 2.38066 12.8753 2.48944 12.9249 2.60916C12.9745 2.72889 13 2.8572 13 2.98679C13 3.11638 12.9745 3.2447 12.9249 3.36442C12.8753 3.48414 12.8026 3.59293 12.711 3.68456L4.04791 12.3476L2.18719 12.8128L2.65237 10.9521L11.3155 2.28902Z" fill="#616366"/>
<path d="M7.5 13C7.22386 13 7 13.2239 7 13.5C7 13.7761 7.22386 14 7.5 14H14.5C14.7761 14 15 13.7761 15 13.5C15 13.2239 14.7761 13 14.5 13H7.5Z" fill="#616366"/>
</svg>
