<svg width="14" height="14" viewBox="0 0 14 14" fill="none" xmlns="http://www.w3.org/2000/svg">
<path d="M5.94831 3.97346C5.54296 3.70323 5 3.99381 5 4.48098V9.52108C5 10.0083 5.54296 10.2988 5.94831 10.0286L9.72838 7.50855C10.0905 7.26712 10.0905 6.73495 9.72838 6.49351L5.94831 3.97346Z" fill="#616366"/>
<path fill-rule="evenodd" clip-rule="evenodd" d="M1.94444 0C0.870557 0 0 0.870557 0 1.94444V12.0556C0 13.1294 0.870557 14 1.94444 14H12.0556C13.1294 14 14 13.1294 14 12.0556V1.94444C14 0.870557 13.1294 0 12.0556 0H1.94444ZM1 1.94444C1 1.42284 1.42284 1 1.94444 1H12.0556C12.5772 1 13 1.42284 13 1.94444V12.0556C13 12.5772 12.5772 13 12.0556 13H1.94444C1.42284 13 1 12.5772 1 12.0556V1.94444Z" fill="#616366"/>
</svg>
