<svg width="16" height="16" viewBox="0 0 16 16" fill="none" xmlns="http://www.w3.org/2000/svg">
<path fill-rule="evenodd" clip-rule="evenodd" d="M3.75736 3.55025C3.95262 3.74551 3.95262 4.0621 3.75736 4.25736C1.41421 6.60051 1.41421 10.3995 3.75736 12.7426C6.1005 15.0858 9.8995 15.0858 12.2426 12.7426C14.5858 10.3995 14.5858 6.60051 12.2426 4.25736C12.0474 4.0621 12.0474 3.74551 12.2426 3.55025C12.4379 3.35499 12.7545 3.35499 12.9497 3.55025C15.6834 6.28392 15.6834 10.7161 12.9497 13.4497C10.2161 16.1834 5.78392 16.1834 3.05025 13.4497C0.316583 10.7161 0.316583 6.28392 3.05025 3.55025C3.24551 3.35499 3.5621 3.35499 3.75736 3.55025Z" fill="#303233"/>
<path fill-rule="evenodd" clip-rule="evenodd" d="M8 1C8.27614 1 8.5 1.22386 8.5 1.5V8.5C8.5 8.77614 8.27614 9 8 9C7.72386 9 7.5 8.77614 7.5 8.5V1.5C7.5 1.22386 7.72386 1 8 1Z" fill="#303233"/>
</svg>
