<svg width="24" height="24" viewBox="0 0 24 24" fill="none" xmlns="http://www.w3.org/2000/svg">
<path fill-rule="evenodd" clip-rule="evenodd" d="M18.308 7.49662C16.0178 4.28054 11.6138 3.27383 8.12489 5.28814C5.89429 6.57598 4.54562 8.80462 4.2921 11.1864C4.24826 11.5983 3.87882 11.8966 3.46693 11.8528C3.05505 11.809 2.75669 11.4395 2.80053 11.0276C3.10261 8.1896 4.71152 5.5268 7.37489 3.9891C11.545 1.58149 16.8106 2.78993 19.5406 6.64155L19.7822 5.7399C19.8894 5.3398 20.3007 5.10236 20.7008 5.20957C21.1009 5.31677 21.3383 5.72803 21.2311 6.12813L20.4991 8.86018C20.4476 9.05231 20.3219 9.21613 20.1496 9.31558C19.9774 9.41504 19.7726 9.44199 19.5805 9.39051L16.8485 8.65846C16.4484 8.55125 16.2109 8.14 16.3181 7.7399C16.4253 7.3398 16.8366 7.10236 17.2367 7.20957L18.308 7.49662ZM20.5325 12.1473C20.9444 12.1911 21.2428 12.5605 21.1989 12.9724C20.8969 15.8105 19.288 18.4733 16.6246 20.011C12.4547 22.4185 7.18944 21.2102 4.45924 17.3591L4.21779 18.2602C4.11059 18.6603 3.69934 18.8977 3.29924 18.7905C2.89914 18.6833 2.6617 18.272 2.76891 17.8719L3.50096 15.1399C3.60816 14.7398 4.01942 14.5024 4.41952 14.6096L7.15157 15.3416C7.55167 15.4488 7.7891 15.8601 7.6819 16.2602C7.57469 16.6603 7.16344 16.8977 6.76334 16.7905L5.69138 16.5033C7.9815 19.7195 12.3856 20.7263 15.8746 18.7119C18.1052 17.4241 19.4539 15.1954 19.7074 12.8137C19.7512 12.4018 20.1207 12.1034 20.5325 12.1473Z" fill="#04101E"/>
</svg>
