<svg width="78" height="78" viewBox="0 0 78 78" fill="none" xmlns="http://www.w3.org/2000/svg">
<path fill-rule="evenodd" clip-rule="evenodd" d="M32.9995 -6.10352e-05C14.7741 -6.10352e-05 -0.000488281 14.7745 -0.000488281 32.9999C-0.000488281 51.2253 14.7741 65.9999 32.9995 65.9999C41.1842 65.9999 48.6729 63.0203 54.4401 58.0866L72.847 77.0873C73.9998 78.2773 75.8991 78.3075 77.0891 77.1546C78.2791 76.0018 78.3093 74.1026 77.1564 72.9125L58.6299 53.7883C63.2379 48.1139 65.9995 40.8794 65.9995 32.9999C65.9995 14.7745 51.2249 -6.10352e-05 32.9995 -6.10352e-05ZM5.99951 32.9999C5.99951 18.0883 18.0878 5.99994 32.9995 5.99994C47.9112 5.99994 59.9995 18.0883 59.9995 32.9999C59.9995 47.9116 47.9112 59.9999 32.9995 59.9999C18.0878 59.9999 5.99951 47.9116 5.99951 32.9999Z" fill="#616366"/>
</svg>
