<svg width="24" height="24" viewBox="0 0 24 24" fill="none" xmlns="http://www.w3.org/2000/svg">
<path fill-rule="evenodd" clip-rule="evenodd" d="M6.57514 3.23332C10.0728 1.9217 13.9272 1.9217 17.4249 3.23332L18.9656 3.81109C20.0389 4.21359 20.75 5.23968 20.75 6.386V12C20.75 14.8673 19.1138 17.2553 17.3738 18.9929C15.6226 20.7419 13.6652 21.9346 12.8031 22.419C12.3005 22.7013 11.6995 22.7013 11.1969 22.419C10.3348 21.9346 8.37744 20.7419 6.62617 18.9929C4.88625 17.2553 3.25 14.8673 3.25 12V6.386C3.25 5.23968 3.96107 4.21359 5.03441 3.81109L6.57514 3.23332ZM16.8982 4.63781C13.7401 3.45353 10.2599 3.45353 7.10183 4.63781L5.5611 5.21559C5.07322 5.39854 4.75 5.86494 4.75 6.386V12C4.75 14.2832 6.06125 16.3088 7.68615 17.9316C9.2997 19.5431 11.1245 20.6577 11.9317 21.1112C11.9779 21.1372 12.0221 21.1372 12.0683 21.1112C12.8755 20.6577 14.7003 19.5431 16.3139 17.9316C17.9387 16.3088 19.25 14.2832 19.25 12V6.386C19.25 5.86494 18.9268 5.39854 18.4389 5.21559L16.8982 4.63781Z" fill="#303233"/>
</svg>
