<svg width="24" height="24" viewBox="0 0 24 24" fill="none" xmlns="http://www.w3.org/2000/svg">
<path d="M14.1334 2.48983C12.7231 2.17272 11.2574 2.17263 9.84278 2.4927C8.23639 2.85617 6.74824 3.62064 5.51722 4.71479C4.28619 5.80894 3.3524 7.19711 2.80297 8.74976C2.66479 9.14024 2.86932 9.56881 3.25981 9.70699C3.65029 9.84517 4.07886 9.64064 4.21704 9.25015C4.68194 7.93637 5.47207 6.76177 6.51371 5.83595C7.55535 4.91013 8.81456 4.26327 10.1738 3.95572C11.2324 3.7162 12.3248 3.68857 13.3887 3.87099C13.5766 3.37594 13.8282 2.91223 14.1334 2.48983Z" fill="#303233"/>
<path d="M1.75 20V15.759L5.11803 18.8986C6.28085 20.0592 7.71813 20.9071 9.29642 21.3636C10.8786 21.8213 12.5508 21.8707 14.1572 21.5072C15.7636 21.1437 17.2518 20.3793 18.4828 19.2851C19.7138 18.191 20.6476 16.8028 21.1971 15.2502C21.3352 14.8597 21.1307 14.4311 20.7402 14.2929C20.3497 14.1547 19.9212 14.3593 19.783 14.7498C19.3181 16.0635 18.5279 17.2381 17.4863 18.164C16.4447 19.0898 15.1855 19.7366 13.8262 20.0442C12.467 20.3517 11.0519 20.3099 9.71322 19.9227C8.37448 19.5355 7.15564 18.8154 6.17046 17.8298C6.16492 17.8242 6.15929 17.8188 6.15358 17.8134L2.86739 14.75H7C7.41421 14.75 7.75 14.4142 7.75 14C7.75 13.5857 7.41421 13.25 7 13.25H1C0.585786 13.25 0.25 13.5857 0.25 14V20C0.25 20.4142 0.585786 20.75 1 20.75C1.41421 20.75 1.75 20.4142 1.75 20Z" fill="#303233"/>
<path fill-rule="evenodd" clip-rule="evenodd" d="M19 11C21.7614 11 24 8.76142 24 6C24 3.23858 21.7614 1 19 1C16.2386 1 14 3.23858 14 6C14 8.76142 16.2386 11 19 11ZM19.5 3.5C19.5 3.22386 19.2761 3 19 3C18.7239 3 18.5 3.22386 18.5 3.5V6C18.5 6.27614 18.7239 6.5 19 6.5C19.2761 6.5 19.5 6.27614 19.5 6V3.5ZM18.5 8.5C18.5 8.22386 18.7239 8 19 8H19.0067C19.2828 8 19.5067 8.22386 19.5067 8.5C19.5067 8.77614 19.2828 9 19.0067 9H19C18.7239 9 18.5 8.77614 18.5 8.5Z" fill="#303233"/>
</svg>
