<svg width="24" height="24" viewBox="0 0 24 24" fill="none" xmlns="http://www.w3.org/2000/svg">
<path fill-rule="evenodd" clip-rule="evenodd" d="M15.1133 1.42888C14.1346 1.3125 13.0864 1.25 12 1.25C9.45654 1.25 7.12274 1.59254 5.39887 2.16717C4.54085 2.45317 3.79239 2.81026 3.24303 3.24321C2.70213 3.66949 2.25 4.25749 2.25 5V19C2.25 19.7408 2.6974 20.329 3.23733 20.7569C3.78475 21.1907 4.53097 21.548 5.3875 21.8339C7.10832 22.4084 9.44243 22.75 12 22.75C14.5576 22.75 16.8917 22.4084 18.6125 21.8339C19.469 21.548 20.2153 21.1907 20.7627 20.7569C21.3026 20.329 21.75 19.7408 21.75 19V11.3341C21.2825 11.5756 20.7791 11.7575 20.25 11.8696V12C20.25 12.0892 20.1974 12.291 19.8311 12.5812C19.4722 12.8656 18.906 13.1545 18.1375 13.4111C16.6083 13.9216 14.4424 14.25 12 14.25C9.55757 14.25 7.39168 13.9216 5.8625 13.4111C5.09403 13.1545 4.52775 12.8656 4.16892 12.5812C3.8026 12.291 3.75 12.0892 3.75 12V7.10311C4.22063 7.38436 4.78138 7.627 5.39887 7.83283C7.12274 8.40746 9.45654 8.75 12 8.75C12.5586 8.75 13.1071 8.73348 13.6412 8.7016C13.4084 8.24073 13.2333 7.74573 13.1254 7.22611C12.7577 7.24185 12.3821 7.25 12 7.25C9.5729 7.25 7.4067 6.92097 5.87321 6.40981C5.10255 6.15292 4.53298 5.86356 4.17149 5.57868C3.80155 5.28713 3.75 5.08591 3.75 5C3.75 4.91409 3.80155 4.71287 4.17149 4.42132C4.53298 4.13644 5.10255 3.84708 5.87321 3.59019C7.4067 3.07903 9.5729 2.75 12 2.75C12.6588 2.75 13.2983 2.77424 13.9112 2.81978C14.2389 2.29649 14.6451 1.82736 15.1133 1.42888ZM18.6125 14.8339C19.2257 14.6292 19.7823 14.3879 20.25 14.1082V19C20.25 19.0892 20.1974 19.291 19.8311 19.5812C19.4722 19.8656 18.906 20.1545 18.1375 20.4111C16.6083 20.9216 14.4424 21.25 12 21.25C9.55757 21.25 7.39168 20.9216 5.8625 20.4111C5.09403 20.1545 4.52775 19.8656 4.16892 19.5812C3.8026 19.291 3.75 19.0892 3.75 19V14.1082C4.21765 14.3879 4.77431 14.6292 5.3875 14.8339C7.10832 15.4084 9.44243 15.75 12 15.75C14.5576 15.75 16.8917 15.4084 18.6125 14.8339Z" fill="#303233"/>
<path fill-rule="evenodd" clip-rule="evenodd" d="M19 11C21.7614 11 24 8.76142 24 6C24 3.23858 21.7614 1 19 1C16.2386 1 14 3.23858 14 6C14 8.76142 16.2386 11 19 11ZM19.5 3.5C19.5 3.22386 19.2761 3 19 3C18.7239 3 18.5 3.22386 18.5 3.5V6C18.5 6.27614 18.7239 6.5 19 6.5C19.2761 6.5 19.5 6.27614 19.5 6V3.5ZM18.5 8.5C18.5 8.22386 18.7239 8 19 8H19.0067C19.2828 8 19.5067 8.22386 19.5067 8.5C19.5067 8.77614 19.2828 9 19.0067 9H19C18.7239 9 18.5 8.77614 18.5 8.5Z" fill="#303233"/>
</svg>
