<svg width="24" height="24" viewBox="0 0 24 24" fill="none" xmlns="http://www.w3.org/2000/svg">
<path fill-rule="evenodd" clip-rule="evenodd" d="M11.9995 5.25C9.92846 5.25 8.24953 6.92893 8.24953 9C8.24953 11.0711 9.92846 12.75 11.9995 12.75C14.0706 12.75 15.7495 11.0711 15.7495 9C15.7495 6.92893 14.0706 5.25 11.9995 5.25ZM9.74953 9C9.74953 7.75736 10.7569 6.75 11.9995 6.75C13.2422 6.75 14.2495 7.75736 14.2495 9C14.2495 10.2426 13.2422 11.25 11.9995 11.25C10.7569 11.25 9.74953 10.2426 9.74953 9Z" fill="#303233"/>
<path fill-rule="evenodd" clip-rule="evenodd" d="M12 1.25C6.06294 1.25 1.25 6.06294 1.25 12C1.25 17.9371 6.06294 22.75 12 22.75C17.9371 22.75 22.75 17.9371 22.75 12C22.75 6.06294 17.9371 1.25 12 1.25ZM2.75 12C2.75 6.89137 6.89137 2.75 12 2.75C17.1086 2.75 21.25 6.89137 21.25 12C21.25 14.4214 20.3196 16.6254 18.7969 18.2742C17.4794 15.8757 14.9293 14.25 11.9995 14.25C9.07002 14.25 6.52014 15.8754 5.20256 18.2736C3.68014 16.6249 2.75 14.4211 2.75 12ZM6.34966 19.3242C7.91246 20.5316 9.87234 21.25 12 21.25C14.1274 21.25 16.087 20.5319 17.6497 19.3248C16.6472 17.2114 14.4941 15.75 11.9995 15.75C9.50522 15.75 7.35218 17.2112 6.34966 19.3242Z" fill="#303233"/>
</svg>
