<svg width="24" height="24" viewBox="0 0 24 24" fill="none" xmlns="http://www.w3.org/2000/svg">
<path fill-rule="evenodd" clip-rule="evenodd" d="M8.24414 12.0001C8.24414 14.0711 9.92314 15.7501 11.9941 15.7501C14.0651 15.7501 15.7441 14.0711 15.7441 12.0001C15.7441 9.92906 14.0651 8.25006 11.9941 8.25006C9.92314 8.25006 8.24414 9.92906 8.24414 12.0001ZM14.2441 12.0001C14.2441 13.2431 13.2371 14.2501 11.9941 14.2501C10.7511 14.2501 9.74414 13.2431 9.74414 12.0001C9.74414 10.7571 10.7511 9.75006 11.9941 9.75006C13.2371 9.75006 14.2441 10.7571 14.2441 12.0001Z" fill="#303233"/>
<path fill-rule="evenodd" clip-rule="evenodd" d="M8.01207 18.904C8.31907 19.081 8.56207 19.352 8.70607 19.676L9.29007 20.99C9.52307 21.514 9.90207 21.959 10.3831 22.271C10.8641 22.584 11.4251 22.75 11.9981 22.75C12.5711 22.75 13.1321 22.584 13.6121 22.271C14.0931 21.959 14.4731 21.514 14.7051 20.99L15.2891 19.677C15.4331 19.355 15.6751 19.086 15.9801 18.909C16.2871 18.732 16.6431 18.657 16.9961 18.694L18.4251 18.846C18.9951 18.906 19.5711 18.8 20.0811 18.54C20.5921 18.28 21.0161 17.877 21.3031 17.381C21.5891 16.884 21.7261 16.316 21.6961 15.743C21.6661 15.171 21.4701 14.62 21.1331 14.156L20.2881 12.995C20.0791 12.706 19.9681 12.359 19.9701 12.004V12C19.9701 11.645 20.0821 11.299 20.2911 11.012L21.1371 9.849C21.4751 9.386 21.6701 8.834 21.7001 8.262C21.7301 7.69 21.5941 7.121 21.3071 6.625C21.0211 6.129 20.5961 5.726 20.0861 5.466C19.5751 5.206 19.0001 5.099 18.4301 5.16L17.0001 5.312C16.6481 5.349 16.2921 5.273 15.9851 5.096C15.6791 4.919 15.4381 4.649 15.2951 4.326L15.2931 4.322L14.7041 3.008C14.4731 2.486 14.0931 2.041 13.6121 1.729C13.1321 1.416 12.5711 1.25 11.9981 1.25C11.4251 1.25 10.8641 1.416 10.3831 1.729C9.90207 2.041 9.52307 2.486 9.29007 3.01L8.70607 4.324L8.70507 4.326C8.56207 4.649 8.32107 4.919 8.01507 5.097C7.70807 5.274 7.35207 5.349 6.99907 5.312L5.56607 5.16C4.99607 5.099 4.42007 5.206 3.91007 5.466C3.39907 5.726 2.97507 6.129 2.68807 6.625C2.40207 7.121 2.26507 7.69 2.29507 8.262C2.32507 8.835 2.52107 9.386 2.85807 9.849L3.70407 11.012C3.91307 11.299 4.02607 11.645 4.02507 12C4.02607 12.355 3.91307 12.701 3.70407 12.988L2.85807 14.151C2.52107 14.614 2.32507 15.165 2.29507 15.738C2.26507 16.31 2.40207 16.879 2.68807 17.375C2.97507 17.871 3.39907 18.274 3.91007 18.534C4.42007 18.794 4.99607 18.9 5.56607 18.84L6.99507 18.688C7.34807 18.651 7.70407 18.727 8.01207 18.904ZM10.6611 20.381L10.0761 19.067C9.80407 18.452 9.34307 17.941 8.76107 17.605C8.18007 17.269 7.50607 17.126 6.83807 17.196L5.40807 17.349C5.12707 17.378 4.84307 17.325 4.59007 17.197C4.33807 17.069 4.12907 16.87 3.98707 16.625C3.84607 16.38 3.77807 16.099 3.79307 15.817C3.80807 15.534 3.90407 15.262 4.07107 15.034L4.91807 13.87C5.31307 13.327 5.52607 12.672 5.52507 12C5.52607 11.328 5.31307 10.674 4.91807 10.13L4.07107 8.966C3.90407 8.738 3.80807 8.466 3.79307 8.183C3.77807 7.901 3.84607 7.62 3.98707 7.375C4.12907 7.13 4.33807 6.931 4.59007 6.803C4.84207 6.674 5.12607 6.622 5.40807 6.651L6.84307 6.804C7.51107 6.874 8.18407 6.731 8.76607 6.395L8.76807 6.394C9.34807 6.057 9.80607 5.545 10.0771 4.932L10.6611 3.619C10.7761 3.36 10.9631 3.14 11.2001 2.986C11.4381 2.832 11.7151 2.75 11.9981 2.75C12.2811 2.75 12.5581 2.832 12.7951 2.986C13.0321 3.14 13.2201 3.36 13.3341 3.619L13.3351 3.621L13.9241 4.936C14.1941 5.545 14.6521 6.057 15.2321 6.394L15.2341 6.395C15.8161 6.731 16.4891 6.874 17.1571 6.804L18.5881 6.651C18.8691 6.622 19.1531 6.674 19.4051 6.803C19.6571 6.931 19.8671 7.13 20.0081 7.375C20.1501 7.62 20.2171 7.901 20.2021 8.183C20.1881 8.466 20.0911 8.738 19.9251 8.966L19.0781 10.13C18.6831 10.673 18.4701 11.327 18.4701 11.998C18.4671 12.671 18.6781 13.328 19.0721 13.874L19.0731 13.876L19.9201 15.039C20.0871 15.268 20.1831 15.54 20.1981 15.822C20.2131 16.105 20.1451 16.386 20.0041 16.631C19.8621 16.876 19.6531 17.075 19.4011 17.203C19.1491 17.331 18.8651 17.384 18.5831 17.354L17.1531 17.202C16.4851 17.132 15.8111 17.275 15.2291 17.611C14.6501 17.946 14.1921 18.455 13.9191 19.066L13.3341 20.381C13.2201 20.64 13.0321 20.86 12.7951 21.014C12.5581 21.168 12.2811 21.25 11.9981 21.25C11.7151 21.25 11.4381 21.168 11.2001 21.014C10.9631 20.86 10.7761 20.64 10.6611 20.381Z" fill="#303233"/>
</svg>
