<svg width="24" height="24" viewBox="0 0 24 24" fill="none" xmlns="http://www.w3.org/2000/svg">
<path fill-rule="evenodd" clip-rule="evenodd" d="M1.25 5C1.25 3.48122 2.48122 2.25 4 2.25H10.1716C10.6357 2.25 11.0808 2.43437 11.409 2.76256L12.2374 3.59099C12.6594 4.01295 13.2317 4.25 13.8284 4.25H20C21.5188 4.25 22.75 5.48122 22.75 7V19C22.75 20.5188 21.5188 21.75 20 21.75H4C2.48122 21.75 1.25 20.5188 1.25 19V5ZM4 5.75C3.30964 5.75 2.75 6.30964 2.75 7V19C2.75 19.6904 3.30964 20.25 4 20.25H20C20.6904 20.25 21.25 19.6904 21.25 19V7C21.25 6.30964 20.6904 5.75 20 5.75H4Z" fill="#303233"/>
</svg>
