<svg width="16" height="16" viewBox="0 0 16 16" fill="none" xmlns="http://www.w3.org/2000/svg">
<path fill-rule="evenodd" clip-rule="evenodd" d="M7.56964 1.72697C7.84188 1.59717 8.15816 1.59717 8.4304 1.72697C8.64602 1.82978 8.7773 2.01441 8.86496 2.1576C8.95417 2.3033 9.04913 2.49571 9.15596 2.71217L10.2709 4.97096C10.3073 5.04466 10.3259 5.08194 10.3408 5.10828C10.3412 5.10902 10.3416 5.10973 10.342 5.11041C10.3427 5.11057 10.3435 5.11074 10.3444 5.11091C10.374 5.11693 10.4152 5.12313 10.4965 5.13502L12.9912 5.49964C13.2299 5.53452 13.4422 5.56554 13.6082 5.60547C13.7715 5.64472 13.9875 5.71267 14.1518 5.88604C14.3592 6.10495 14.4567 6.40576 14.4172 6.70472C14.3859 6.94149 14.2509 7.12329 14.1417 7.25084C14.0307 7.38062 13.877 7.53027 13.7042 7.69862L11.9003 9.45558C11.8414 9.51301 11.8116 9.54226 11.7911 9.56456C11.7905 9.56519 11.79 9.5658 11.7894 9.56638C11.7895 9.56716 11.7896 9.56797 11.7897 9.56882C11.7932 9.59892 11.8 9.64008 11.814 9.7212L12.2395 12.2024C12.2803 12.4404 12.3166 12.6519 12.3301 12.8222C12.3434 12.9896 12.3457 13.2162 12.2317 13.4261C12.0877 13.6912 11.8318 13.8771 11.5352 13.9321C11.3003 13.9756 11.0855 13.9034 10.9304 13.839C10.7726 13.7735 10.5826 13.6736 10.3689 13.5612L8.13966 12.3889C8.06682 12.3505 8.02981 12.3313 8.00226 12.3187C8.00148 12.3183 8.00073 12.318 8.00002 12.3177C7.99931 12.318 7.99856 12.3183 7.99778 12.3187C7.97023 12.3313 7.93322 12.3505 7.86038 12.3889L5.63113 13.5612C5.41741 13.6736 5.22745 13.7735 5.06961 13.839C4.91451 13.9034 4.69975 13.9756 4.46484 13.9321C4.16826 13.8771 3.91234 13.6912 3.76837 13.4261C3.65434 13.2162 3.65667 12.9896 3.66992 12.8222C3.68341 12.6519 3.71971 12.4403 3.76054 12.2024L4.18609 9.7212C4.2 9.64008 4.20688 9.59892 4.21034 9.56882C4.21044 9.56797 4.21053 9.56716 4.21062 9.56638C4.21009 9.5658 4.20954 9.56519 4.20896 9.56456C4.18846 9.54226 4.15869 9.51301 4.09972 9.45558L2.29586 7.69862C2.123 7.53027 1.96933 7.38062 1.8583 7.25084C1.74917 7.12329 1.6141 6.94149 1.58283 6.70472C1.54335 6.40576 1.64089 6.10495 1.84828 5.88604C2.01253 5.71267 2.22858 5.64472 2.39179 5.60547C2.55786 5.56554 2.77011 5.53453 3.00889 5.49964L5.5035 5.13502C5.58482 5.12313 5.62602 5.11693 5.65567 5.11091C5.6565 5.11074 5.6573 5.11057 5.65807 5.11041C5.65846 5.10973 5.65886 5.10902 5.65928 5.10828C5.67415 5.08194 5.69274 5.04466 5.72912 4.97096L6.84407 2.71219C6.95091 2.49572 7.04587 2.3033 7.13508 2.1576C7.22275 2.01441 7.35402 1.82978 7.56964 1.72697ZM7.98793 2.67974C7.9255 2.78173 7.85066 2.9322 7.73101 3.17461L6.62583 5.41358C6.6212 5.42297 6.61647 5.43263 6.61162 5.44253C6.55941 5.5492 6.49371 5.68341 6.39199 5.79289C6.30394 5.88766 6.19835 5.96444 6.08105 6.01898C5.94554 6.082 5.79762 6.10312 5.68005 6.11991C5.66914 6.12147 5.65849 6.12299 5.64813 6.1245L3.17536 6.48593C2.90796 6.52502 2.74181 6.54981 2.62559 6.57775C2.61762 6.57967 2.61027 6.58152 2.60352 6.58329C2.60795 6.58869 2.61281 6.59451 2.61814 6.60074C2.69585 6.69156 2.81584 6.80913 3.00943 6.99769L4.79746 8.73922C4.80496 8.74654 4.81271 8.75403 4.82064 8.76171C4.90612 8.84441 5.01366 8.94847 5.08646 9.07921C5.14947 9.19238 5.1899 9.31672 5.20549 9.4453C5.2235 9.59386 5.19772 9.74127 5.17723 9.85842C5.17532 9.8693 5.17347 9.87992 5.17169 9.89025L4.74988 12.3496C4.70417 12.6161 4.67625 12.7819 4.6668 12.9012C4.66616 12.9093 4.66564 12.9169 4.66523 12.9239C4.67174 12.9213 4.67878 12.9185 4.68637 12.9154C4.79685 12.8695 4.94587 12.7917 5.1852 12.6659L7.39493 11.5038C7.40421 11.4989 7.41373 11.4939 7.42349 11.4887C7.52855 11.433 7.66074 11.3629 7.80757 11.3341C7.93466 11.3092 8.06538 11.3092 8.19247 11.3341C8.3393 11.3629 8.47149 11.433 8.57655 11.4887C8.58631 11.4939 8.59583 11.4989 8.60511 11.5038L10.8148 12.6659C11.0542 12.7917 11.2032 12.8695 11.3137 12.9154C11.3213 12.9185 11.3283 12.9213 11.3348 12.9239C11.3344 12.9169 11.3339 12.9093 11.3332 12.9012C11.3238 12.7819 11.2959 12.6161 11.2502 12.3496L10.8283 9.89025C10.8266 9.87991 10.8247 9.8693 10.8228 9.85842C10.8023 9.74127 10.7765 9.59386 10.7946 9.4453C10.8101 9.31672 10.8506 9.19238 10.9136 9.07921C10.9864 8.94847 11.0939 8.84441 11.1794 8.76171C11.1873 8.75403 11.1951 8.74654 11.2026 8.73922L12.9906 6.99769C13.1842 6.80913 13.3042 6.69156 13.3819 6.60074C13.3872 6.59451 13.3921 6.58869 13.3965 6.58329C13.3898 6.58152 13.3824 6.57967 13.3744 6.57775C13.2582 6.54981 13.0921 6.52502 12.8247 6.48593L10.3519 6.1245C10.3416 6.12299 10.3309 6.12147 10.32 6.11991C10.2024 6.10312 10.0545 6.082 9.91899 6.01898C9.8017 5.96444 9.6961 5.88766 9.60805 5.79289C9.50633 5.68341 9.44063 5.5492 9.38842 5.44253C9.38357 5.43263 9.37884 5.42297 9.37421 5.41358L8.26903 3.17461C8.14938 2.9322 8.07454 2.78173 8.01211 2.67974C8.00782 2.67275 8.00379 2.66632 8.00002 2.66044C7.99625 2.66632 7.99222 2.67275 7.98793 2.67974Z" fill="#303233"/>
</svg>
