<svg width="16" height="16" viewBox="0 0 16 16" fill="none" xmlns="http://www.w3.org/2000/svg">
<path d="M13 0.5C13.2761 0.5 13.5 0.723858 13.5 1V2.5H15C15.2761 2.5 15.5 2.72386 15.5 3C15.5 3.27614 15.2761 3.5 15 3.5H13.5V5C13.5 5.27614 13.2761 5.5 13 5.5C12.7239 5.5 12.5 5.27614 12.5 5V3.5H11C10.7239 3.5 10.5 3.27614 10.5 3C10.5 2.72386 10.7239 2.5 11 2.5H12.5V1C12.5 0.723858 12.7239 0.5 13 0.5Z" fill="#303233"/>
<path d="M13 8C13.0003 9.27999 12.5121 10.5601 11.5355 11.5367C10.6909 12.3813 10.11 12.8926 9.72222 13.2002L9.72222 10.4456C9.72222 10.1694 9.49836 9.94557 9.22222 9.94557C8.94608 9.94557 8.72222 10.1694 8.72222 10.4456L8.72222 14.1122C8.72222 14.2448 8.7749 14.372 8.86867 14.4658C8.96244 14.5596 9.08961 14.6122 9.22222 14.6122H12.8889C13.165 14.6122 13.3889 14.3884 13.3889 14.1122C13.3889 13.8361 13.165 13.6122 12.8889 13.6122H10.7898C11.1692 13.2833 11.6459 12.8405 12.2426 12.2438C13.4145 11.0719 14.0003 9.53591 14 8C14 7.72386 13.7761 7.5 13.5 7.5C13.2239 7.5 13 7.72386 13 8Z" fill="#303233"/>
<path d="M3.11113 1.39001C2.83498 1.39001 2.61112 1.61386 2.61111 1.89C2.6111 2.16614 2.83495 2.39001 3.11109 2.39001L5.21027 2.39008C4.83082 2.71907 4.35411 3.16185 3.75736 3.75861C1.41421 6.10175 1.41421 9.90074 3.75736 12.2439C4.587 13.0735 5.60051 13.6101 6.66714 13.8521C6.93644 13.9132 7.20428 13.7444 7.26538 13.4751C7.32649 13.2058 7.15771 12.938 6.88841 12.8769C6.00036 12.6754 5.15683 12.2291 4.46447 11.5368C2.51184 9.58416 2.51184 6.41833 4.46447 4.46571C5.30906 3.62111 5.89 3.1098 6.27778 2.80215V5.55668C6.27778 5.83282 6.50164 6.05668 6.77778 6.05668C7.05392 6.05668 7.27778 5.83282 7.27778 5.55668V1.89013C7.27778 1.614 7.05393 1.39014 6.77779 1.39013L3.11113 1.39001Z" fill="#303233"/>
</svg>
