<svg width="16" height="16" viewBox="0 0 16 16" fill="none" xmlns="http://www.w3.org/2000/svg">
<g clip-path="url(#clip0_4000_905)">
<path fill-rule="evenodd" clip-rule="evenodd" d="M6.97554 1.85637C6.89302 1.83656 6.79955 1.83335 6.44963 1.83335L3.46662 1.83335C3.085 1.83335 2.82886 1.83374 2.63161 1.84985C2.44019 1.86549 2.34867 1.89342 2.2883 1.92418C2.1315 2.00407 2.00401 2.13156 1.92412 2.28836C1.89335 2.34873 1.86543 2.44025 1.84979 2.63167C1.83368 2.82892 1.83329 3.08506 1.83329 3.46668L1.83329 6.44969C1.83329 6.79961 1.8365 6.89308 1.85631 6.9756C1.87673 7.06063 1.9104 7.14192 1.95609 7.21648C2.00043 7.28884 2.06425 7.3572 2.31168 7.60463L7.4241 12.7171C7.82595 13.1189 8.10635 13.3988 8.34225 13.599C8.57369 13.7955 8.72921 13.8858 8.86976 13.9315C9.17103 14.0294 9.49555 14.0294 9.79681 13.9315C9.93737 13.8858 10.0929 13.7955 10.3243 13.599C10.5602 13.3988 10.8406 13.1189 11.2425 12.7171L12.717 11.2425C13.1188 10.8407 13.3987 10.5603 13.599 10.3244C13.7954 10.0929 13.8858 9.93743 13.9314 9.79687C14.0293 9.49561 14.0293 9.17109 13.9314 8.86982C13.8858 8.72927 13.7954 8.57376 13.599 8.34232C13.3987 8.10641 13.1188 7.82601 12.717 7.42416L7.60457 2.31174C7.35714 2.06431 7.28878 2.00049 7.21642 1.95615C7.14186 1.91046 7.06057 1.87679 6.97554 1.85637ZM6.49795 0.833331C6.77702 0.833169 6.99671 0.833041 7.20899 0.884005C7.39605 0.928915 7.57488 1.00299 7.73892 1.10351C7.92506 1.21758 8.08031 1.37301 8.27753 1.57046C8.28877 1.58171 8.30015 1.59311 8.31168 1.60463L13.4393 6.73222C13.8224 7.11538 14.1315 7.42442 14.3613 7.69514C14.5979 7.97388 14.7798 8.2447 14.8825 8.56081C15.0456 9.06291 15.0456 9.60378 14.8825 10.1059C14.7798 10.422 14.5979 10.6928 14.3613 10.9716C14.1315 11.2423 13.8224 11.5513 13.4393 11.9345L11.9344 13.4393C11.5513 13.8225 11.2422 14.1315 10.9715 14.3614C10.6928 14.598 10.4219 14.7799 10.1058 14.8826C9.60372 15.0457 9.06285 15.0457 8.56074 14.8826C8.24464 14.7799 7.97382 14.598 7.69508 14.3614C7.42436 14.1315 7.11532 13.8225 6.73216 13.4393L1.60457 8.31174C1.59304 8.30021 1.58165 8.28883 1.5704 8.27759C1.37294 8.08037 1.21751 7.92512 1.10345 7.73898C1.00293 7.57495 0.928854 7.39611 0.883944 7.20905C0.83298 6.99677 0.833108 6.77709 0.83327 6.49801C0.833279 6.4821 0.833288 6.466 0.833288 6.44969L0.833289 3.44639C0.833281 3.09029 0.833276 2.79306 0.853115 2.55024C0.873807 2.29698 0.918548 2.05921 1.03311 1.83437C1.20888 1.4894 1.48934 1.20894 1.83431 1.03317C2.05915 0.918608 2.29692 0.873868 2.55018 0.853176C2.793 0.833336 3.09023 0.833342 3.44633 0.833349L6.44963 0.833349C6.46594 0.833349 6.48204 0.83334 6.49795 0.833331ZM4.49996 5.33335C4.49996 4.87311 4.87305 4.50002 5.33329 4.50002C5.79353 4.50002 6.16662 4.87311 6.16662 5.33335C6.16662 5.79359 5.79353 6.16668 5.33329 6.16668C4.87305 6.16668 4.49996 5.79359 4.49996 5.33335Z" fill="#FAFAFA"/>
</g>
<defs>
<clipPath id="clip0_4000_905">
<rect width="16" height="16" fill="white"/>
</clipPath>
</defs>
</svg>
