<svg width="16" height="16" viewBox="0 0 16 16" fill="none" xmlns="http://www.w3.org/2000/svg">
<path d="M6.5 7C6.77614 7 7 7.22386 7 7.5V11.5C7 11.7761 6.77614 12 6.5 12C6.22386 12 6 11.7761 6 11.5V7.5C6 7.22386 6.22386 7 6.5 7Z" fill="#616366"/>
<path d="M10 7.5C10 7.22386 9.77614 7 9.5 7C9.22386 7 9 7.22386 9 7.5V11.5C9 11.7761 9.22386 12 9.5 12C9.77614 12 10 11.7761 10 11.5V7.5Z" fill="#616366"/>
<path fill-rule="evenodd" clip-rule="evenodd" d="M6.5 1C5.67157 1 5 1.67157 5 2.5V3.5H2C1.72386 3.5 1.5 3.72386 1.5 4C1.5 4.27614 1.72386 4.5 2 4.5H3V13C3 14.1046 3.89543 15 5 15H11C12.1046 15 13 14.1046 13 13V4.5H14C14.2761 4.5 14.5 4.27614 14.5 4C14.5 3.72386 14.2761 3.5 14 3.5H11V2.5C11 1.67157 10.3284 1 9.5 1H6.5ZM10 3.5V2.5C10 2.22386 9.77614 2 9.5 2H6.5C6.22386 2 6 2.22386 6 2.5V3.5H10ZM4 4.5H12V13C12 13.5523 11.5523 14 11 14H5C4.44772 14 4 13.5523 4 13V4.5Z" fill="#616366"/>
</svg>
