<svg width="14" height="14" viewBox="0 0 14 14" fill="none" xmlns="http://www.w3.org/2000/svg">
<path d="M9.85355 4.14645C10.0488 4.34171 10.0488 4.65829 9.85355 4.85355L7.70711 7L9.85355 9.14645C10.0488 9.34171 10.0488 9.65829 9.85355 9.85355C9.65829 10.0488 9.34171 10.0488 9.14645 9.85355L7 7.70711L4.85355 9.85355C4.65829 10.0488 4.34171 10.0488 4.14645 9.85355C3.95118 9.65829 3.95118 9.34171 4.14645 9.14645L6.29289 7L4.14645 4.85355C3.95118 4.65829 3.95118 4.34171 4.14645 4.14645C4.34171 3.95118 4.65829 3.95118 4.85355 4.14645L7 6.29289L9.14645 4.14645C9.34171 3.95118 9.65829 3.95118 9.85355 4.14645Z" fill="#616366"/>
<path fill-rule="evenodd" clip-rule="evenodd" d="M0 1.94444C0 0.870557 0.870557 0 1.94444 0H12.0556C13.1294 0 14 0.870557 14 1.94444V12.0556C14 13.1294 13.1294 14 12.0556 14H1.94444C0.870557 14 0 13.1294 0 12.0556V1.94444ZM1.94444 1C1.42284 1 1 1.42284 1 1.94444V12.0556C1 12.5772 1.42284 13 1.94444 13H12.0556C12.5772 13 13 12.5772 13 12.0556V1.94444C13 1.42284 12.5772 1 12.0556 1H1.94444Z" fill="#616366"/>
</svg>
