<svg width="16" height="16" viewBox="0 0 16 16" fill="none" xmlns="http://www.w3.org/2000/svg">
<path fill-rule="evenodd" clip-rule="evenodd" d="M7.52277 4C5.42434 4 3.72731 5.69237 3.72731 7.775C3.72731 7.82761 3.72839 7.87995 3.73053 7.93198C3.7412 8.19222 3.55032 8.41706 3.29181 8.44876C2.28017 8.57283 1.5 9.43108 1.5 10.4667C1.5 11.5874 2.41349 12.5 3.54538 12.5C3.54536 12.5 3.54539 12.5 3.54538 12.5L11.5 12.5L11.5285 12.5C11.532 12.4999 11.5355 12.4998 11.5391 12.4998C13.1801 12.479 14.5 11.1491 14.5 9.51667C14.5 7.87127 13.1591 6.53333 11.5 6.53333C11.4847 6.53333 11.4695 6.53345 11.4543 6.53367C11.2547 6.53663 11.0725 6.42055 10.9907 6.2384C10.3989 4.91936 9.06895 4 7.52277 4ZM11.5701 13.4994C11.5619 13.4998 11.5537 13.5 11.5454 13.5L3.54549 13.5C1.86581 13.5 0.5 12.1442 0.5 10.4667C0.5 9.07001 1.44656 7.89665 2.73289 7.54264C2.85462 5.01138 4.95467 3 7.52277 3C9.36082 3 10.9576 4.02988 11.7624 5.54178C13.8473 5.67631 15.5 7.40245 15.5 9.51667C15.5 11.6955 13.7448 13.4621 11.5701 13.4994Z" fill="#616366"/>
</svg>
