<?xml version="1.0" encoding="UTF-8"?>
<svg width="3300px" height="2200px" viewBox="0 0 3300 2200" version="1.1" xmlns="http://www.w3.org/2000/svg" xmlns:xlink="http://www.w3.org/1999/xlink">
    <title>general</title>
    <g id="General" stroke="none" stroke-width="1" fill="none" fill-rule="evenodd">
        <g id="general">
            <g id="Notes">
                <rect id="artboard" fill="#FFFFFF" fill-rule="nonzero" x="0" y="0" width="3300" height="2200"></rect>
                <line x1="263" y1="292" x2="3036" y2="292" id="Path" stroke="#000000" stroke-width="0.5"></line>
                <text id="Weight/Scale-Variations" fill="#000000" fill-rule="nonzero" font-family="Helvetica-Bold, Helvetica" font-size="13" font-weight="bold">
                    <tspan x="263" y="322">Weight/Scale Variations</tspan>
                </text>
                <text id="Ultralight" fill="#000000" fill-rule="nonzero" font-family="Helvetica" font-size="13" font-weight="normal">
                    <tspan x="533.711" y="322">Ultralight</tspan>
                </text>
                <text id="Thin" fill="#000000" fill-rule="nonzero" font-family="Helvetica" font-size="13" font-weight="normal">
                    <tspan x="843.422" y="322">Thin</tspan>
                </text>
                <text id="Light" fill="#000000" fill-rule="nonzero" font-family="Helvetica" font-size="13" font-weight="normal">
                    <tspan x="1138.63" y="322">Light</tspan>
                </text>
                <text id="Regular" fill="#000000" fill-rule="nonzero" font-family="Helvetica" font-size="13" font-weight="normal">
                    <tspan x="1426.84" y="322">Regular</tspan>
                </text>
                <text id="Medium" fill="#000000" fill-rule="nonzero" font-family="Helvetica" font-size="13" font-weight="normal">
                    <tspan x="1723.06" y="322">Medium</tspan>
                </text>
                <text id="Semibold" fill="#000000" fill-rule="nonzero" font-family="Helvetica" font-size="13" font-weight="normal">
                    <tspan x="2015.77" y="322">Semibold</tspan>
                </text>
                <text id="Bold" fill="#000000" fill-rule="nonzero" font-family="Helvetica" font-size="13" font-weight="normal">
                    <tspan x="2326.48" y="322">Bold</tspan>
                </text>
                <text id="Heavy" fill="#000000" fill-rule="nonzero" font-family="Helvetica" font-size="13" font-weight="normal">
                    <tspan x="2618.19" y="322">Heavy</tspan>
                </text>
                <text id="Black" fill="#000000" fill-rule="nonzero" font-family="Helvetica" font-size="13" font-weight="normal">
                    <tspan x="2917.4" y="322">Black</tspan>
                </text>
                <line x1="263" y1="1903" x2="3036" y2="1903" id="Path" stroke="#000000" stroke-width="0.5"></line>
                <g id="Group" transform="translate(264.367190, 1918.068400)" fill="#000000" fill-rule="nonzero">
                    <path d="M7.88086,15.761678 C12.18751,15.761678 15.77151,12.18746 15.77151,7.88082 C15.77151,3.5742 12.17771,0 7.87109,0 C3.57422,0 -8.8817842e-16,3.5742 -8.8817842e-16,7.88082 C-8.8817842e-16,12.18746 3.58398,15.761678 7.88086,15.761678 Z M7.88086,14.277303 C4.33593,14.277303 1.5039,11.43551 1.5039,7.88082 C1.5039,4.3261 4.32617,1.4843 7.87109,1.4843 C11.42581,1.4843 14.26761,4.3261 14.2773352,7.88082 C14.28711,11.43551 11.43551,14.277303 7.88086,14.277303 Z M5.02929,8.61324 L7.13867,8.61324 L7.13867,10.73238 C7.13867,11.17183 7.43164,11.47457 7.86133,11.47457 C8.31054,11.47457 8.60351,11.17183 8.60351,10.73238 L8.60351,8.61324 L10.73241,8.61324 C11.17191,8.61324 11.47461,8.32027 11.47461,7.89058 C11.47461,7.45113 11.17191,7.1484 10.73241,7.1484 L8.60351,7.1484 L8.60351,5.03902 C8.60351,4.5898 8.31054,4.2871 7.86133,4.2871 C7.43164,4.2871 7.13867,4.5898 7.13867,5.03902 L7.13867,7.1484 L5.02929,7.1484 C4.58008,7.1484 4.27734,7.45113 4.27734,7.89058 C4.27734,8.32027 4.58008,8.61324 5.02929,8.61324 Z" id="Shape"></path>
                </g>
                <g id="Group" transform="translate(283.254050, 1915.988300)" fill="#000000" fill-rule="nonzero">
                    <path d="M9.96095,19.92186 C15.41015,19.92186 19.92185,15.40037 19.92185,9.96092 C19.92185,4.5117 15.40035,0 9.95115,0 C4.51172,0 8.8817842e-16,4.5117 8.8817842e-16,9.96092 C8.8817842e-16,15.40037 4.52148,19.92186 9.96095,19.92186 Z M9.96095,18.2617 C5.35156,18.2617 1.66992,14.57029 1.66992,9.96092 C1.66992,5.3515 5.34179,1.6601 9.95115,1.6601 C14.56055,1.6601 18.25195,5.3515 18.261769,9.96092 C18.27145,14.57029 14.57035,18.2617 9.96095,18.2617 Z M6.24023,10.78123 L9.13085,10.78123 L9.13085,13.69139 C9.13085,14.17967 9.46285,14.5117 9.94145,14.5117 C10.42965,14.5117 10.77145,14.17967 10.77145,13.69139 L10.77145,10.78123 L13.68165,10.78123 C14.16995,10.78123 14.50195,10.4492 14.50195,9.97068 C14.50195,9.4824 14.16995,9.14061 13.68165,9.14061 L10.77145,9.14061 L10.77145,6.25 C10.77145,5.7422 10.42965,5.4101 9.94145,5.4101 C9.46285,5.4101 9.13085,5.7519 9.13085,6.25 L9.13085,9.14061 L6.24023,9.14061 C5.73242,9.14061 5.40039,9.4824 5.40039,9.97068 C5.40039,10.4492 5.74218,10.78123 6.24023,10.78123 Z" id="Shape"></path>
                </g>
                <g id="Group" transform="translate(307.179860, 1913.224600)" fill="#000000" fill-rule="nonzero">
                    <path d="M12.71484,25.43946 C19.67774,25.43946 25.43944,19.6777438 25.43944,12.72462 C25.43944,5.7617 19.66794,0 12.70504,0 C5.75195,0 0,5.7617 0,12.72462 C0,19.6777438 5.76172,25.43946 12.71484,25.43946 Z M12.71484,23.62306 C6.67969,23.62306 1.82617,18.75978 1.82617,12.72462 C1.82617,6.6797 6.66992,1.8262 12.70504,1.8262 C18.75004,1.8262 23.60354,6.6797 23.6132548,12.72462 C23.62304,18.75978 18.75974,23.62306 12.71484,23.62306 Z M7.80274,13.63282 L11.80664,13.63282 L11.80664,17.64649 C11.80664,18.1836 12.17774,18.5547 12.69534,18.5547 C13.23244,18.5547 13.60354,18.1836 13.60354,17.64649 L13.60354,13.63282 L17.62694,13.63282 C18.15434,13.63282 18.53514,13.26173 18.53514,12.74415 C18.53514,12.20704 18.16404,11.82618 17.62694,11.82618 L13.60354,11.82618 L13.60354,7.8223 C13.60354,7.2656 13.23244,6.8945 12.69534,6.8945 C12.17774,6.8945 11.80664,7.2754 11.80664,7.8223 L11.80664,11.82618 L7.80274,11.82618 C7.24609,11.82618 6.875,12.20704 6.875,12.74415 C6.875,13.26173 7.25586,13.63282 7.80274,13.63282 Z" id="Shape"></path>
                </g>
                <text id="Design-Variations" fill="#000000" fill-rule="nonzero" font-family="Helvetica-Bold, Helvetica" font-size="13" font-weight="bold">
                    <tspan x="263" y="1953">Design Variations</tspan>
                </text>
                <text id="Symbols-are-supported-in-up-to-nine-weights-and-three-scales." fill="#000000" fill-rule="nonzero" font-family="Helvetica" font-size="13" font-weight="normal">
                    <tspan x="263" y="1971">Symbols are supported in up to nine weights and three scales.</tspan>
                </text>
                <text id="For-optimal-layout-with-text-and-other-symbols,-vertically-align" fill="#000000" fill-rule="nonzero" font-family="Helvetica" font-size="13" font-weight="normal">
                    <tspan x="263" y="1989">For optimal layout with text and other symbols, vertically align</tspan>
                </text>
                <text id="symbols-with-the-adjacent-text." fill="#000000" fill-rule="nonzero" font-family="Helvetica" font-size="13" font-weight="normal">
                    <tspan x="263" y="2007">symbols with the adjacent text.</tspan>
                </text>
                <line x1="776" y1="1919" x2="776" y2="1933" id="Path" stroke="#00AEEF" stroke-width="0.5"></line>
                <g id="Group" transform="translate(778.490230, 1918.712900)" fill="#000000" fill-rule="nonzero">
                    <path d="M0.82032,14.414053 C1.33789,14.414053 1.5918,14.2187406 1.77735,13.681631 L3.03711,10.2246 L8.79887,10.2246 L10.05857,13.681631 C10.24417,14.2187406 10.49807,14.414053 11.00587,14.414053 C11.52347,14.414053 11.85547,14.101553 11.85547,13.613272 C11.85547,13.447256 11.82617,13.300772 11.74807,13.08593 L7.16797,0.8984 C6.94336,0.293 6.54297,0 5.91797,0 C5.3125,0 4.90235,0.293 4.6875,0.8887 L0.10743,13.09569 C0.0293,13.310538 -4.4408921e-16,13.457022 -4.4408921e-16,13.623038 C-4.4408921e-16,14.111319 0.3125,14.414053 0.82032,14.414053 Z M3.51563,8.74999 L5.88868,2.1777 L5.9375,2.1777 L8.31057,8.74999 L3.51563,8.74999 Z" id="Shape"></path>
                </g>
                <line x1="792.836" y1="1919" x2="792.836" y2="1933" id="Path" stroke="#00AEEF" stroke-width="0.5"></line>
                <text id="Margins" fill="#000000" fill-rule="nonzero" font-family="Helvetica-Bold, Helvetica" font-size="13" font-weight="bold">
                    <tspan x="776" y="1953">Margins</tspan>
                </text>
                <text id="Leading-and-trailing-margins-on-the-left-and-right-side-of-each-symbol" fill="#000000" fill-rule="nonzero" font-family="Helvetica" font-size="13" font-weight="normal">
                    <tspan x="776" y="1971">Leading and trailing margins on the left and right side of each symbol</tspan>
                </text>
                <text id="can-be-adjusted-by-modifying-the-x-location-of-the-margin-guidelines." fill="#000000" fill-rule="nonzero" font-family="Helvetica" font-size="13" font-weight="normal">
                    <tspan x="776" y="1989">can be adjusted by modifying the x-location of the margin guidelines.</tspan>
                </text>
                <text id="Modifications-are-automatically-applied-proportionally-to-all" fill="#000000" fill-rule="nonzero" font-family="Helvetica" font-size="13" font-weight="normal">
                    <tspan x="776" y="2007">Modifications are automatically applied proportionally to all</tspan>
                </text>
                <text id="scales-and-weights." fill="#000000" fill-rule="nonzero" font-family="Helvetica" font-size="13" font-weight="normal">
                    <tspan x="776" y="2025">scales and weights.</tspan>
                </text>
                <g id="Group" transform="translate(1291.248126, 1914.517396)" fill="#000000" fill-rule="nonzero">
                    <path d="M0.593673634,20.347834 L2.29289363,22.056824 C3.15226363,22.925964 4.13859363,22.867374 5.06632363,21.841984 L15.2420736,10.631044 C15.5057736,10.718934 15.7791736,10.699404 16.0916736,10.640804 L17.1561736,10.445494 L17.8202736,11.119324 L17.7811736,11.675964 C17.7420736,12.174014 17.8690736,12.554874 18.3573736,13.033384 L19.1190736,13.775574 C19.5975736,14.254084 20.2127736,14.283384 20.6815736,13.814634 L23.5916736,10.894714 C24.0604736,10.425964 24.0409736,9.83026404 23.5623736,9.35174404 L22.7909736,8.59002404 C22.3123736,8.11150404 21.9413736,7.95530404 21.4627736,7.99430404 L20.8866736,8.04310404 L20.2420736,7.40840404 L20.4862736,6.28530404 C20.6131736,5.71890404 20.4569736,5.27950404 19.8709736,4.69350404 L17.6737736,2.50600404 C14.3338736,-0.814295964 9.90027363,-0.736195964 7.00968363,2.15450404 C6.58976363,2.56460404 6.56046363,3.14080404 6.79484363,3.53140404 C7.02921363,3.89280404 7.48820363,4.12710404 8.13277363,3.96110404 C9.59757363,3.61930404 11.1209736,3.56070404 12.5467736,4.49820404 L11.9608736,5.95330404 C11.7655736,6.43180404 11.7362736,6.83220404 11.8631736,7.19350404 L0.798753634,17.584166 C-0.187576366,18.5021352 -0.265706366,19.478698 0.593673634,20.347834 Z M8.50387363,2.52560404 C10.9354736,0.748204036 14.2264736,1.05100404 16.4530736,3.27750404 L18.8846736,5.68960404 C19.1190736,5.92400404 19.1580736,6.10960404 19.0897736,6.45140404 L18.7674736,7.93570404 L20.2713736,9.42010404 L21.2577736,9.36151404 C21.5116736,9.35174404 21.5897736,9.37127404 21.7850736,9.56658404 L22.3612736,10.142764 L19.9198736,12.584164 L19.3436736,12.007994 C19.1483736,11.812684 19.1190736,11.734554 19.1288736,11.470884 L19.1971736,10.494324 L17.7030736,9.00994404 L16.1795736,9.26385404 C15.8573736,9.33221404 15.7108736,9.30291404 15.4666736,9.06854404 L13.4647736,7.06660404 C13.2108736,6.83220404 13.1815736,6.66620404 13.3377736,6.29510404 L14.2166736,4.20530404 C12.6541736,2.75020404 10.6229736,2.12520404 8.59167363,2.72090404 C8.43547363,2.75990404 8.37687363,2.63300404 8.50387363,2.52560404 Z M3.02531363,20.787304 L1.85343363,19.625184 C1.38468363,19.166198 1.49210363,18.824401 1.89249363,18.4630728 L12.7030736,8.28730404 L14.1678736,9.77166404 L4.17765363,20.757994 C3.82609363,21.158384 3.49406363,21.256044 3.02531363,20.787304 Z" id="Shape"></path>
                </g>
                <text id="Exporting" fill="#000000" fill-rule="nonzero" font-family="Helvetica-Bold, Helvetica" font-size="13" font-weight="bold">
                    <tspan x="1289" y="1953">Exporting</tspan>
                </text>
                <text id="Symbols-should-be-outlined-when-exporting-to-ensure-the" fill="#000000" fill-rule="nonzero" font-family="Helvetica" font-size="13" font-weight="normal">
                    <tspan x="1289" y="1971">Symbols should be outlined when exporting to ensure the</tspan>
                </text>
                <text id="design-is-preserved-when-submitting-to-Xcode." fill="#000000" fill-rule="nonzero" font-family="Helvetica" font-size="13" font-weight="normal">
                    <tspan x="1289" y="1989">design is preserved when submitting to Xcode.</tspan>
                </text>
                <text id="template-version" fill="#000000" fill-rule="nonzero" font-family="Helvetica" font-size="13" font-weight="normal">
                    <tspan x="2952" y="1933">Template v.2.0</tspan>
                </text>
                <text id="Requires-Xcode-12-or-greater" fill="#000000" fill-rule="nonzero" font-family="Helvetica" font-size="13" font-weight="normal">
                    <tspan x="2865" y="1951">Requires Xcode 12 or greater</tspan>
                </text>
                <text id="Generated-from-person.crop.circle" fill="#000000" fill-rule="nonzero" font-family="Helvetica" font-size="13" font-weight="normal">
                    <tspan x="2838" y="1969">Generated from person.crop.circle</tspan>
                </text>
                <text id="Typeset-at-100-points" fill="#000000" fill-rule="nonzero" font-family="Helvetica" font-size="13" font-weight="normal">
                    <tspan x="2912" y="1987">Typeset at 100 points</tspan>
                </text>
                <text id="Small" fill="#000000" fill-rule="nonzero" font-family="Helvetica" font-size="13" font-weight="normal">
                    <tspan x="263" y="726">Small</tspan>
                </text>
                <text id="Medium" fill="#000000" fill-rule="nonzero" font-family="Helvetica" font-size="13" font-weight="normal">
                    <tspan x="263" y="1156">Medium</tspan>
                </text>
                <text id="Large" fill="#000000" fill-rule="nonzero" font-family="Helvetica" font-size="13" font-weight="normal">
                    <tspan x="263" y="1586">Large</tspan>
                </text>
            </g>
            <g id="Guides" transform="translate(263.000000, 625.041000)">
                <g id="H-reference" transform="translate(76.976562, 0.500000)" fill="#27AAE1" fill-rule="nonzero">
                    <path d="M-1.22124533e-15,70.459 L2.685548,70.459 L12.011738,45.9961 L44.775438,45.9961 L54.150438,70.459 L56.787138,70.459 L29.638638,0 L27.148438,0 L-1.22124533e-15,70.459 Z M28.369138,3.3203 L28.466838,3.3203 L43.896438,43.75 L12.890638,43.75 L28.369138,3.3203 Z" id="Shape"></path>
                </g>
                <line x1="0" y1="70.959" x2="2773" y2="70.959" id="Baseline-S" stroke="#27AAE1" stroke-width="0.5"></line>
                <line x1="0" y1="0.5" x2="2773" y2="0.5" id="Capline-S" stroke="#27AAE1" stroke-width="0.5"></line>
                <g id="H-reference" transform="translate(76.976562, 430.500000)" fill="#27AAE1" fill-rule="nonzero">
                    <path d="M-1.22124533e-15,70.459 L2.685548,70.459 L12.011738,45.9961 L44.775438,45.9961 L54.150438,70.459 L56.787138,70.459 L29.638638,0 L27.148438,0 L-1.22124533e-15,70.459 Z M28.369138,3.3203 L28.466838,3.3203 L43.896438,43.75 L12.890638,43.75 L28.369138,3.3203 Z" id="Shape"></path>
                </g>
                <line x1="0" y1="500.959" x2="2773" y2="500.959" id="Baseline-M" stroke="#27AAE1" stroke-width="0.5"></line>
                <line x1="0" y1="430.499" x2="2773" y2="430.499" id="Capline-M" stroke="#27AAE1" stroke-width="0.5"></line>
                <g id="H-reference" transform="translate(76.976562, 860.500000)" fill="#27AAE1" fill-rule="nonzero">
                    <path d="M-1.22124533e-15,70.459 L2.685548,70.459 L12.011738,45.9961 L44.775438,45.9961 L54.150438,70.459 L56.787138,70.459 L29.638638,0 L27.148438,0 L-1.22124533e-15,70.459 Z M28.369138,3.3203 L28.466838,3.3203 L43.896438,43.75 L12.890638,43.75 L28.369138,3.3203 Z" id="Shape"></path>
                </g>
                <line x1="0" y1="930.959" x2="2773" y2="930.959" id="Baseline-L" stroke="#27AAE1" stroke-width="0.5"></line>
                <line x1="0" y1="860.499" x2="2773" y2="860.499" id="Capline-L" stroke="#27AAE1" stroke-width="0.5"></line>
                <line x1="1128.3" y1="405.749" x2="1128.3" y2="525.079" id="left-margin" stroke="#00AEEF" stroke-width="0.5"></line>
                <line x1="1245.39" y1="405.749" x2="1245.39" y2="525.079" id="right-margin" stroke="#00AEEF" stroke-width="0.5"></line>
            </g>
            <g id="Symbols" transform="translate(1390.249300, 620.511700)" fill="#000000">
                <g id="Semibold-L" transform="translate(592.000000, 835.209000)">
                    <path d="M70.549839,0 C74.0272001,-1.06276274e-15 76.9943568,2.51518443 77.5638438,5.94559622 L79.7504204,19.1102195 C83.9686789,20.8343586 87.8956895,23.1278119 91.4367868,25.89554 L103.864344,21.2210911 C107.125054,19.9946942 110.794104,21.311501 112.530818,24.3314527 L121.940407,40.6936824 C123.668222,43.6981607 122.977963,47.5106807 120.306432,49.7186553 L110.02751,58.2152202 C110.329368,60.430189 110.485319,62.6918104 110.485319,64.99 C110.485319,67.2881896 110.329368,69.549811 110.02751,71.7647798 L120.306432,80.2613447 C122.977963,82.4693193 123.668222,86.2818393 121.940407,89.2863176 L112.530818,105.648547 C110.794104,108.668499 107.125054,109.985306 103.864344,108.758909 L91.4367868,104.08446 C87.895409,106.852407 83.9680566,109.146005 79.7494177,110.87019 L77.5638438,124.034404 C76.9943568,127.464816 74.0272001,129.98 70.549839,129.98 L51.7778576,129.98 C48.3004964,129.98 45.3333397,127.464816 44.7638527,124.034404 L42.5772761,110.869781 C38.359061,109.145659 34.4320877,106.852235 30.891019,104.084545 L18.4633525,108.758909 C15.2026422,109.985306 11.5335921,108.668499 9.79687874,105.648547 L0.387289747,89.2863176 C-1.34052521,86.2818393 -0.650266818,82.4693193 2.02126499,80.2613447 L12.300323,71.7657806 C11.9983757,69.5504923 11.8423774,67.2885358 11.8423774,64.99 C11.8423774,62.6914642 11.9983757,60.4295077 12.300323,58.2142194 L2.02126499,49.7186553 C-0.650266818,47.5106807 -1.34052521,43.6981607 0.387289747,40.6936824 L9.79687874,24.3314527 C11.5335921,21.311501 15.2026422,19.9946942 18.4633525,21.2210911 L30.891019,25.8954546 C34.4323683,23.1275454 38.3596833,20.8339774 42.5782788,19.1098096 L44.7638527,5.94559622 C45.3333397,2.51518443 48.3004964,1.12969219e-14 51.7778576,0 L70.549839,0 Z M61.1638483,41.5031681 C48.2487043,41.5031681 37.7789115,52.0185809 37.7789115,64.99 C37.7789115,77.9614191 48.2487043,88.4768319 61.1638483,88.4768319 C74.0789922,88.4768319 84.5487851,77.9614191 84.5487851,64.99 C84.5487851,52.0185809 74.0789922,41.5031681 61.1638483,41.5031681 Z" id="Shape"></path>
                </g>
                <g id="Regular-L" transform="translate(0.000000, 836.429700)">
                    <path d="M68.8403398,0 C72.3177009,5.1142715e-15 75.2848576,2.51518443 75.8543446,5.94559622 L77.9731331,18.7015282 C82.1009266,20.388701 85.9437341,22.6329458 89.408931,25.3412722 L101.45028,20.8127043 C104.71099,19.5863073 108.38004,20.9031142 110.116753,23.9230658 L119.196692,39.7120693 C120.924506,42.7165475 120.234248,46.5290675 117.562716,48.7370421 L107.602452,56.9692532 C107.897931,59.1371247 108.050588,61.3506646 108.050588,63.6 C108.050588,65.8489892 107.897978,68.0621939 107.602589,70.2297458 L117.562716,78.4629579 C120.234248,80.6709325 120.924506,84.4834525 119.196692,87.4879307 L110.116753,103.276934 C108.38004,106.296886 104.71099,107.613693 101.45028,106.387296 L89.408931,101.858728 C85.9437341,104.567054 82.1009266,106.811299 77.9731331,108.498472 L75.8543446,121.254404 C75.2848576,124.684816 72.3177009,127.2 68.8403398,127.2 L50.7276602,127.2 C47.2502991,127.2 44.2831424,124.684816 43.7136554,121.254404 L41.5948669,108.498472 C37.4670734,106.811299 33.6242659,104.567054 30.159069,101.858728 L18.1177203,106.387296 C14.85701,107.613693 11.1879599,106.296886 9.45124653,103.276934 L0.37130847,87.4879307 C-1.35650649,84.4834525 -0.666248094,80.6709325 2.00528371,78.4629579 L11.9655477,70.2307468 C11.6700686,68.0628753 11.5174121,65.8493354 11.5174121,63.6 C11.5174121,61.3510108 11.6700216,59.1378061 11.9654113,56.9702542 L2.00528371,48.7370421 C-0.666248094,46.5290675 -1.35650649,42.7165475 0.37130847,39.7120693 L9.45124653,23.9230658 C11.1879599,20.9031142 14.85701,19.5863073 18.1177203,20.8127043 L30.159069,25.3412722 C33.6242659,22.6329458 37.4670734,20.388701 41.5948669,18.7015282 L43.7136554,5.94559622 C44.2831424,2.51518443 47.2502991,3.30331614e-15 50.7276602,0 L68.8403398,0 Z M59.784,39.3714286 C46.4555498,39.3714286 35.6507061,50.2189295 35.6507061,63.6 C35.6507061,76.9810705 46.4555498,87.8285714 59.784,87.8285714 C73.1124502,87.8285714 83.9172939,76.9810705 83.9172939,63.6 C83.9172939,50.2189295 73.1124502,39.3714286 59.784,39.3714286 Z" id="Shape"></path>
                </g>
                <g id="Semibold-M" transform="translate(604.943191, 419.209000)">
                    <path d="M54.0950748,0 C57.572436,2.9139328e-15 60.5395927,2.51518443 61.1090797,5.94559622 L62.6130146,15.0035451 C65.9250221,16.3571941 69.0083518,18.1578646 71.7886707,20.3309303 L80.3309812,17.1181256 C83.5916915,15.8917286 87.2607416,17.2085355 88.997455,20.2284871 L95.0951193,30.831648 C96.8229343,33.8361262 96.1326759,37.6486462 93.4611441,39.8566208 L86.3847972,45.7053332 C86.6218498,47.4445576 86.7443208,49.22042 86.7443208,51.025 C86.7443208,52.8292337 86.6218968,54.6047608 86.3849336,56.3436655 L93.4611441,62.1933792 C96.1326759,64.4013538 96.8229343,68.2138738 95.0951193,71.218352 L88.997455,81.8215129 C87.2607416,84.8414645 83.5916915,86.1582714 80.3309812,84.9318744 L71.7886707,81.7190697 C69.0083518,83.8921354 65.9250221,85.6928059 62.6130146,87.0464549 L61.1090797,96.1044038 C60.5395927,99.5348156 57.572436,102.05 54.0950748,102.05 L41.9469427,102.05 C38.4695815,102.05 35.5024248,99.5348156 34.9329378,96.1044038 L33.4290029,87.0464549 C30.1169954,85.6928059 27.0336657,83.8921354 24.2533468,81.7190697 L15.7110363,84.9318744 C12.450326,86.1582714 8.7812759,84.8414645 7.0445625,81.8215129 L0.946898138,71.218352 C-0.780916823,68.2138738 -0.0906584268,64.4013538 2.58087338,62.1933792 L9.6572203,56.3446668 C9.42016768,54.6054424 9.29769671,52.82958 9.29769671,51.025 C9.29769671,49.2207663 9.42012067,47.4452392 9.65708384,45.7063345 L2.58087338,39.8566208 C-0.0906584268,37.6486462 -0.780916823,33.8361262 0.946898138,30.831648 L7.0445625,20.2284871 C8.7812759,17.2085355 12.450326,15.8917286 15.7110363,17.1181256 L24.2533468,20.3309303 C27.0336657,18.1578646 30.1169954,16.3571941 33.4290029,15.0035451 L34.9329378,5.94559622 C35.5024248,2.51518443 38.4695815,3.30331614e-15 41.9469427,0 L54.0950748,0 Z M48.0210087,32.585 C37.8810607,32.585 29.6610087,40.8408692 29.6610087,51.025 C29.6610087,61.2091308 37.8810607,69.465 48.0210087,69.465 C58.1609567,69.465 66.3810087,61.2091308 66.3810087,51.025 C66.3810087,40.8408692 58.1609567,32.585 48.0210087,32.585 Z" id="Shape"></path>
                </g>
                <g id="Regular-M" transform="translate(13.000700, 420.429700)">
                    <path d="M52.6014322,0 C56.0787933,2.02575438e-15 59.04595,2.51518443 59.615437,5.94559622 L61.0596066,14.6447282 C64.2924192,15.965987 67.3020252,17.7235766 70.01587,19.8446561 L78.2189432,16.7596854 C81.4796536,15.5332884 85.1487036,16.8500953 86.885417,19.8700469 L92.6937475,29.9700882 C94.4215624,32.9745665 93.731304,36.7870864 91.0597722,38.9950611 L84.2632614,44.6128578 C84.4946164,46.3103916 84.6141435,48.0436822 84.6141435,49.805 C84.6141435,51.5663178 84.4946164,53.2996084 84.2632614,54.9971422 L91.0597722,60.6149389 C93.731304,62.8229136 94.4215624,66.6354335 92.6937475,69.6399118 L86.885417,79.7399531 C85.1487036,82.7599047 81.4796536,84.0767116 78.2189432,82.8503146 L70.01587,79.7653439 C67.3020252,81.8864234 64.2924192,83.644013 61.0596066,84.9652718 L59.615437,93.6644038 C59.04595,97.0948156 56.0787933,99.61 52.6014322,99.61 L41.0319678,99.61 C37.5546067,99.61 34.58745,97.0948156 34.017963,93.6644038 L32.572791,84.9648621 C29.3403587,83.6436497 26.3310943,81.8862041 23.61753,79.7653439 L15.4144568,82.8503146 C12.1537464,84.0767116 8.48469637,82.7599047 6.74798297,79.7399531 L0.939652515,69.6399118 C-0.788162446,66.6354335 -0.0979040493,62.8229136 2.57362776,60.6149389 L9.37000236,54.9961422 C9.13873665,53.2989278 9.01925647,51.565972 9.01925647,49.805 C9.01925647,48.0436822 9.13878358,46.3103916 9.37013863,44.6128578 L2.57362776,38.9950611 C-0.0979040493,36.7870864 -0.788162446,32.9745665 0.939652515,29.9700882 L6.74798297,19.8700469 C8.48469637,16.8500953 12.1537464,15.5332884 15.4144568,16.7596854 L23.61753,19.8446561 C26.3310943,17.7237959 29.3403587,15.9663503 32.572791,14.6451379 L34.017963,5.94559622 C34.58745,2.51518443 37.5546067,4.19149456e-15 41.0319678,0 L52.6014322,0 Z M46.8167,30.8316667 C36.3792242,30.8316667 27.9179782,39.3263173 27.9179782,49.805 C27.9179782,60.2836827 36.3792242,68.7783333 46.8167,68.7783333 C57.2541758,68.7783333 65.7154218,60.2836827 65.7154218,49.805 C65.7154218,39.3263173 57.2541758,30.8316667 46.8167,30.8316667 Z" id="Shape"></path>
                </g>
                <g id="Semibold-S" transform="translate(614.943191, -0.000000)">
                    <path d="M41.3813688,0 C44.8587299,1.13757596e-15 47.8258866,2.51518443 48.3953736,5.94559622 L49.3728395,11.830937 C51.9839635,12.8981591 54.4148335,14.3177372 56.6068689,16.0308591 L62.1480249,13.9479861 C65.4087352,12.7215891 69.0777853,14.038396 70.8144987,17.0583476 L74.353218,23.2117875 C76.081033,26.2162657 75.3907746,30.0287857 72.7192428,32.2367603 L68.1172977,36.0392214 C68.3043145,37.4109912 68.4009357,38.8116675 68.4009357,40.235 C68.4009357,41.6579863 68.3043615,43.0583274 68.1174342,44.4297776 L72.7192428,48.2332397 C75.3907746,50.4412143 76.081033,54.2537343 74.353218,57.2582125 L70.8144987,63.4116524 C69.0777853,66.431604 65.4087352,67.7484109 62.1480249,66.5220139 L56.6068689,64.4391409 C54.4148335,66.1522628 51.9839635,67.5718409 49.3728395,68.639063 L48.3953736,74.5244038 C47.8258866,77.9548156 44.8587299,80.47 41.3813688,80.47 L34.3511265,80.47 C30.8737654,80.47 27.9066087,77.9548156 27.3371217,74.5244038 L26.3596559,68.639063 C23.7485318,67.5718409 21.3176618,66.1522628 19.1256264,64.4391409 L13.5844704,66.5220139 C10.3237601,67.7484109 6.65471005,66.431604 4.91799665,63.4116524 L1.37927727,57.2582125 C-0.348537694,54.2537343 0.341720702,50.4412143 3.01325251,48.2332397 L7.61506114,44.4297776 C7.42813381,43.0583274 7.33155957,41.6579863 7.33155957,40.235 C7.33155957,38.8120137 7.42813381,37.4116726 7.61506114,36.0402224 L3.01325251,32.2367603 C0.341720702,30.0287857 -0.348537694,26.2162657 1.37927727,23.2117875 L4.91799665,17.0583476 C6.65471005,14.038396 10.3237601,12.7215891 13.5844704,13.9479861 L19.1256264,16.0308591 C21.3176618,14.3177372 23.7485318,12.8981591 26.3596559,11.830937 L27.3371217,5.94559622 C27.9066087,2.51518443 30.8737654,1.5269593e-15 34.3511265,0 L41.3813688,0 Z M37.8662477,25.694414 C29.8705434,25.694414 23.3887445,32.2044561 23.3887445,40.235 C23.3887445,48.2655439 29.8705434,54.775586 37.8662477,54.775586 C45.8619519,54.775586 52.3437508,48.2655439 52.3437508,40.235 C52.3437508,32.2044561 45.8619519,25.694414 37.8662477,25.694414 Z" id="Shape"></path>
                </g>
                <g id="Regular-S" transform="translate(22.000700, 0.830100)">
                    <path d="M40.3589792,0 C43.8363403,1.13757596e-15 46.803497,2.51518443 47.372984,5.94559622 L48.310173,11.5869805 C50.8677725,12.632353 53.2487861,14.0229057 55.3958179,15.7010162 L60.7049237,13.7041292 C63.9656341,12.4777323 67.6346841,13.7945391 69.3713975,16.8144908 L72.713275,22.6256444 C74.44109,25.6301226 73.7508316,29.4426426 71.0792997,31.6506172 L66.6678891,35.2971111 C66.8509286,36.6401564 66.9454939,38.0114912 66.9454939,39.405 C66.9454939,40.7985088 66.8509286,42.1698436 66.6678891,43.5128889 L71.0792997,47.1593828 C73.7508316,49.3673574 74.44109,53.1798774 72.713275,56.1843556 L69.3713975,61.9955092 C67.6346841,65.0154609 63.9656341,66.3322677 60.7049237,65.1058708 L55.3958179,63.1089838 C53.2487861,64.7870943 50.8677725,66.177647 48.310173,67.2230195 L47.372984,72.8644038 C46.803497,76.2948156 43.8363403,78.81 40.3589792,78.81 L33.7224208,78.81 C30.2450597,78.81 27.277903,76.2948156 26.708416,72.8644038 L25.771227,67.2230195 C23.2135841,66.1776292 20.8325331,64.7870471 18.6854728,63.1088984 L13.3764763,65.1058708 C10.1157659,66.3322677 6.44671587,65.0154609 4.71000247,61.9955092 L1.36812501,56.1843556 C-0.359689951,53.1798774 0.330568446,49.3673574 3.00210025,47.1593828 L7.41351089,43.5128889 C7.23047141,42.1698436 7.13590606,40.7985088 7.13590606,39.405 C7.13590606,38.0111457 7.2305183,36.6394766 7.41364703,35.2961123 L3.00210025,31.6506172 C0.330568446,29.4426426 -0.359689951,25.6301226 1.36812501,22.6256444 L4.71000247,16.8144908 C6.44671587,13.7945391 10.1157659,12.4777323 13.3764763,13.7041292 L18.6854728,15.7011016 C20.8325331,14.0229529 23.2135841,12.6323708 25.771227,11.5869805 L26.708416,5.94559622 C27.277903,2.51518443 30.2450597,3.30331614e-15 33.7224208,0 L40.3589792,0 Z M37.0407,24.3935714 C28.7827192,24.3935714 22.088303,31.1144169 22.088303,39.405 C22.088303,47.6955831 28.7827192,54.4164286 37.0407,54.4164286 C45.2986808,54.4164286 51.993097,47.6955831 51.993097,39.405 C51.993097,31.1144169 45.2986808,24.3935714 37.0407,24.3935714 Z" id="Shape"></path>
                </g>
            </g>
        </g>
    </g>
</svg>