<?xml version="1.0" encoding="UTF-8"?>
<svg width="3300px" height="2200px" viewBox="0 0 3300 2200" version="1.1" xmlns="http://www.w3.org/2000/svg" xmlns:xlink="http://www.w3.org/1999/xlink">
    <title>general</title>
    <g id="Page-1" stroke="none" stroke-width="1" fill="none" fill-rule="evenodd">
        <g id="general">
            <g id="Notes">
                <rect id="artboard" fill="#FFFFFF" fill-rule="nonzero" x="0" y="0" width="3300" height="2200"></rect>
                <line x1="266" y1="291" x2="3039" y2="291" id="Path" stroke="#000000" stroke-width="0.5"></line>
                <text id="Weight/Scale-Variations" fill="#000000" fill-rule="nonzero" font-family="Helvetica-Bold, Helvetica" font-size="13" font-weight="bold">
                    <tspan x="266" y="321">Weight/Scale Variations</tspan>
                </text>
                <text id="Ultralight" fill="#000000" fill-rule="nonzero" font-family="Helvetica" font-size="13" font-weight="normal">
                    <tspan x="536.711" y="321">Ultralight</tspan>
                </text>
                <text id="Thin" fill="#000000" fill-rule="nonzero" font-family="Helvetica" font-size="13" font-weight="normal">
                    <tspan x="846.422" y="321">Thin</tspan>
                </text>
                <text id="Light" fill="#000000" fill-rule="nonzero" font-family="Helvetica" font-size="13" font-weight="normal">
                    <tspan x="1141.63" y="321">Light</tspan>
                </text>
                <text id="Regular" fill="#000000" fill-rule="nonzero" font-family="Helvetica" font-size="13" font-weight="normal">
                    <tspan x="1429.84" y="321">Regular</tspan>
                </text>
                <text id="Medium" fill="#000000" fill-rule="nonzero" font-family="Helvetica" font-size="13" font-weight="normal">
                    <tspan x="1726.06" y="321">Medium</tspan>
                </text>
                <text id="Semibold" fill="#000000" fill-rule="nonzero" font-family="Helvetica" font-size="13" font-weight="normal">
                    <tspan x="2018.77" y="321">Semibold</tspan>
                </text>
                <text id="Bold" fill="#000000" fill-rule="nonzero" font-family="Helvetica" font-size="13" font-weight="normal">
                    <tspan x="2329.48" y="321">Bold</tspan>
                </text>
                <text id="Heavy" fill="#000000" fill-rule="nonzero" font-family="Helvetica" font-size="13" font-weight="normal">
                    <tspan x="2621.19" y="321">Heavy</tspan>
                </text>
                <text id="Black" fill="#000000" fill-rule="nonzero" font-family="Helvetica" font-size="13" font-weight="normal">
                    <tspan x="2920.4" y="321">Black</tspan>
                </text>
                <line x1="266" y1="1902" x2="3039" y2="1902" id="Path" stroke="#000000" stroke-width="0.5"></line>
                <g id="Group" transform="translate(267.000000, 1917.000000)" fill="#000000" fill-rule="nonzero">
                    <path d="M8.24805,15.830078 C12.5547,15.830078 16.1387,12.25586 16.1387,7.94922 C16.1387,3.6426 12.5449,0.0684 8.23828,0.0684 C3.94141,0.0684 0.36719,3.6426 0.36719,7.94922 C0.36719,12.25586 3.95117,15.830078 8.24805,15.830078 Z M8.24805,14.345703 C4.70312,14.345703 1.87109,11.50391 1.87109,7.94922 C1.87109,4.3945 4.69336,1.5527 8.23828,1.5527 C11.793,1.5527 14.6348,4.3945 14.6445252,7.94922 C14.6543,11.50391 11.8027,14.345703 8.24805,14.345703 Z M5.39648,8.68164 L7.50586,8.68164 L7.50586,10.80078 C7.50586,11.24023 7.79883,11.54297 8.22852,11.54297 C8.67773,11.54297 8.9707,11.24023 8.9707,10.80078 L8.9707,8.68164 L11.0996,8.68164 C11.5391,8.68164 11.8418,8.38867 11.8418,7.95898 C11.8418,7.51953 11.5391,7.2168 11.0996,7.2168 L8.9707,7.2168 L8.9707,5.10742 C8.9707,4.6582 8.67773,4.3555 8.22852,4.3555 C7.79883,4.3555 7.50586,4.6582 7.50586,5.10742 L7.50586,7.2168 L5.39648,7.2168 C4.94727,7.2168 4.64453,7.51953 4.64453,7.95898 C4.64453,8.38867 4.94727,8.68164 5.39648,8.68164 Z" id="Shape"></path>
                </g>
                <g id="Group" transform="translate(285.506000, 1914.000000)" fill="#000000" fill-rule="nonzero">
                    <path d="M10.709,20.91016 C16.1582,20.91016 20.6699,16.38867 20.6699,10.94922 C20.6699,5.5 16.1484,0.9883 10.6992,0.9883 C5.25977,0.9883 0.74805,5.5 0.74805,10.94922 C0.74805,16.38867 5.26953,20.91016 10.709,20.91016 Z M10.709,19.25 C6.09961,19.25 2.41797,15.55859 2.41797,10.94922 C2.41797,6.3398 6.08984,2.6484 10.6992,2.6484 C15.3086,2.6484 19,6.3398 19.009819,10.94922 C19.0195,15.55859 15.3184,19.25 10.709,19.25 Z M6.98828,11.76953 L9.8789,11.76953 L9.8789,14.67969 C9.8789,15.16797 10.2109,15.5 10.6895,15.5 C11.1777,15.5 11.5195,15.16797 11.5195,14.67969 L11.5195,11.76953 L14.4297,11.76953 C14.918,11.76953 15.25,11.4375 15.25,10.95898 C15.25,10.4707 14.918,10.12891 14.4297,10.12891 L11.5195,10.12891 L11.5195,7.2383 C11.5195,6.7305 11.1777,6.3984 10.6895,6.3984 C10.2109,6.3984 9.8789,6.7402 9.8789,7.2383 L9.8789,10.12891 L6.98828,10.12891 C6.48047,10.12891 6.14844,10.4707 6.14844,10.95898 C6.14844,11.4375 6.49023,11.76953 6.98828,11.76953 Z" id="Shape"></path>
                </g>
                <g id="Group" transform="translate(309.924000, 1912.000000)" fill="#000000" fill-rule="nonzero">
                    <path d="M12.9707,25.66406 C19.9336,25.66406 25.6953,19.9023438 25.6953,12.94922 C25.6953,5.9863 19.9238,0.2246 12.9609,0.2246 C6.00781,0.2246 0.25586,5.9863 0.25586,12.94922 C0.25586,19.9023438 6.01758,25.66406 12.9707,25.66406 Z M12.9707,23.84766 C6.93555,23.84766 2.08203,18.98438 2.08203,12.94922 C2.08203,6.9043 6.92578,2.0508 12.9609,2.0508 C19.0059,2.0508 23.8594,6.9043 23.8691148,12.94922 C23.8789,18.98438 19.0156,23.84766 12.9707,23.84766 Z M8.0586,13.85742 L12.0625,13.85742 L12.0625,17.87109 C12.0625,18.4082 12.4336,18.7793 12.9512,18.7793 C13.4883,18.7793 13.8594,18.4082 13.8594,17.87109 L13.8594,13.85742 L17.8828,13.85742 C18.4102,13.85742 18.791,13.48633 18.791,12.96875 C18.791,12.43164 18.4199,12.05078 17.8828,12.05078 L13.8594,12.05078 L13.8594,8.0469 C13.8594,7.4902 13.4883,7.1191 12.9512,7.1191 C12.4336,7.1191 12.0625,7.5 12.0625,8.0469 L12.0625,12.05078 L8.0586,12.05078 C7.50195,12.05078 7.13086,12.43164 7.13086,12.96875 C7.13086,13.48633 7.51172,13.85742 8.0586,13.85742 Z" id="Shape"></path>
                </g>
                <text id="Design-Variations" fill="#000000" fill-rule="nonzero" font-family="Helvetica-Bold, Helvetica" font-size="13" font-weight="bold">
                    <tspan x="266" y="1952">Design Variations</tspan>
                </text>
                <text id="Symbols-are-supported-in-up-to-nine-weights-and-three-scales." fill="#000000" fill-rule="nonzero" font-family="Helvetica" font-size="13" font-weight="normal">
                    <tspan x="266" y="1970">Symbols are supported in up to nine weights and three scales.</tspan>
                </text>
                <text id="For-optimal-layout-with-text-and-other-symbols,-vertically-align" fill="#000000" fill-rule="nonzero" font-family="Helvetica" font-size="13" font-weight="normal">
                    <tspan x="266" y="1988">For optimal layout with text and other symbols, vertically align</tspan>
                </text>
                <text id="symbols-with-the-adjacent-text." fill="#000000" fill-rule="nonzero" font-family="Helvetica" font-size="13" font-weight="normal">
                    <tspan x="266" y="2006">symbols with the adjacent text.</tspan>
                </text>
                <line x1="779" y1="1918" x2="779" y2="1932" id="Path" stroke="#00AEEF" stroke-width="0.5"></line>
                <g id="Group" transform="translate(781.000000, 1917.000000)" fill="#000000" fill-rule="nonzero">
                    <path d="M1.31055,15.126953 C1.82812,15.126953 2.08203,14.9316406 2.26758,14.394531 L3.52734,10.9375 L9.2891,10.9375 L10.5488,14.394531 C10.7344,14.9316406 10.9883,15.126953 11.4961,15.126953 C12.0137,15.126953 12.3457,14.814453 12.3457,14.326172 C12.3457,14.160156 12.3164,14.013672 12.2383,13.79883 L7.6582,1.6113 C7.43359,1.0059 7.0332,0.7129 6.4082,0.7129 C5.80273,0.7129 5.39258,1.0059 5.17773,1.6016 L0.59766,13.80859 C0.51953,14.023438 0.49023,14.169922 0.49023,14.335938 C0.49023,14.824219 0.80273,15.126953 1.31055,15.126953 Z M4.00586,9.46289 L6.37891,2.8906 L6.42773,2.8906 L8.8008,9.46289 L4.00586,9.46289 Z" id="Shape"></path>
                </g>
                <line x1="795.836" y1="1918" x2="795.836" y2="1932" id="Path" stroke="#00AEEF" stroke-width="0.5"></line>
                <text id="Margins" fill="#000000" fill-rule="nonzero" font-family="Helvetica-Bold, Helvetica" font-size="13" font-weight="bold">
                    <tspan x="779" y="1952">Margins</tspan>
                </text>
                <text id="Leading-and-trailing-margins-on-the-left-and-right-side-of-each-symbol" fill="#000000" fill-rule="nonzero" font-family="Helvetica" font-size="13" font-weight="normal">
                    <tspan x="779" y="1970">Leading and trailing margins on the left and right side of each symbol</tspan>
                </text>
                <text id="can-be-adjusted-by-modifying-the-x-location-of-the-margin-guidelines." fill="#000000" fill-rule="nonzero" font-family="Helvetica" font-size="13" font-weight="normal">
                    <tspan x="779" y="1988">can be adjusted by modifying the x-location of the margin guidelines.</tspan>
                </text>
                <text id="Modifications-are-automatically-applied-proportionally-to-all" fill="#000000" fill-rule="nonzero" font-family="Helvetica" font-size="13" font-weight="normal">
                    <tspan x="779" y="2006">Modifications are automatically applied proportionally to all</tspan>
                </text>
                <text id="scales-and-weights." fill="#000000" fill-rule="nonzero" font-family="Helvetica" font-size="13" font-weight="normal">
                    <tspan x="779" y="2024">scales and weights.</tspan>
                </text>
                <g id="Group" transform="translate(1294.000000, 1913.000000)" fill="#000000" fill-rule="nonzero">
                    <path d="M0.8418,20.86523 L2.54102,22.57422 C3.40039,23.44336 4.38672,23.38477 5.31445,22.35938 L15.4902,11.14844 C15.7539,11.23633 16.0273,11.2168 16.3398,11.1582 L17.4043,10.96289 L18.0684,11.63672 L18.0293,12.19336 C17.9902,12.69141 18.1172,13.07227 18.6055,13.55078 L19.3672,14.29297 C19.8457,14.77148 20.4609,14.80078 20.9297,14.33203 L23.8398,11.41211 C24.3086,10.94336 24.2891,10.34766 23.8105,9.86914 L23.0391,9.10742 C22.5605,8.6289 22.1895,8.4727 21.7109,8.5117 L21.1348,8.5605 L20.4902,7.9258 L20.7344,6.8027 C20.8613,6.2363 20.7051,5.7969 20.1191,5.2109 L17.9219,3.0234 C14.582,-0.2969 10.1484,-0.2188 7.25781,2.6719 C6.83789,3.082 6.80859,3.6582 7.04297,4.0488 C7.27734,4.4102 7.73633,4.6445 8.3809,4.4785 C9.8457,4.1367 11.3691,4.0781 12.7949,5.0156 L12.209,6.4707 C12.0137,6.9492 11.9844,7.3496 12.1113,7.7109 L1.04688,18.101562 C0.06055,19.0195312 -0.01758,19.996094 0.8418,20.86523 Z M8.752,3.043 C11.1836,1.2656 14.4746,1.5684 16.7012,3.7949 L19.1328,6.207 C19.3672,6.4414 19.4062,6.627 19.3379,6.9688 L19.0156,8.4531 L20.5195,9.9375 L21.5059,9.87891 C21.7598,9.86914 21.8379,9.88867 22.0332,10.08398 L22.6094,10.66016 L20.168,13.10156 L19.5918,12.52539 C19.3965,12.33008 19.3672,12.25195 19.377,11.98828 L19.4453,11.01172 L17.9512,9.52734 L16.4277,9.78125 C16.1055,9.84961 15.959,9.82031 15.7148,9.58594 L13.7129,7.584 C13.459,7.3496 13.4297,7.1836 13.5859,6.8125 L14.4648,4.7227 C12.9023,3.2676 10.8711,2.6426 8.8398,3.2383 C8.6836,3.2773 8.625,3.1504 8.752,3.043 Z M3.27344,21.3047 L2.10156,20.14258 C1.63281,19.683594 1.74023,19.341797 2.14062,18.9804688 L12.9512,8.8047 L14.416,10.28906 L4.42578,21.27539 C4.07422,21.67578 3.74219,21.77344 3.27344,21.3047 Z" id="Shape"></path>
                </g>
                <text id="Exporting" fill="#000000" fill-rule="nonzero" font-family="Helvetica-Bold, Helvetica" font-size="13" font-weight="bold">
                    <tspan x="1292" y="1952">Exporting</tspan>
                </text>
                <text id="Symbols-should-be-outlined-when-exporting-to-ensure-the" fill="#000000" fill-rule="nonzero" font-family="Helvetica" font-size="13" font-weight="normal">
                    <tspan x="1292" y="1970">Symbols should be outlined when exporting to ensure the</tspan>
                </text>
                <text id="design-is-preserved-when-submitting-to-Xcode." fill="#000000" fill-rule="nonzero" font-family="Helvetica" font-size="13" font-weight="normal">
                    <tspan x="1292" y="1988">design is preserved when submitting to Xcode.</tspan>
                </text>
                <text id="template-version" fill="#000000" fill-rule="nonzero" font-family="Helvetica" font-size="13" font-weight="normal">
                    <tspan x="2955" y="1932">Template v.2.0</tspan>
                </text>
                <text id="Requires-Xcode-12-or-greater" fill="#000000" fill-rule="nonzero" font-family="Helvetica" font-size="13" font-weight="normal">
                    <tspan x="2868" y="1950">Requires Xcode 12 or greater</tspan>
                </text>
                <text id="Generated-from-a.circle.fill" fill="#000000" fill-rule="nonzero" font-family="Helvetica" font-size="13" font-weight="normal">
                    <tspan x="2887" y="1968">Generated from a.circle.fill</tspan>
                </text>
                <text id="Typeset-at-100-points" fill="#000000" fill-rule="nonzero" font-family="Helvetica" font-size="13" font-weight="normal">
                    <tspan x="2915" y="1986">Typeset at 100 points</tspan>
                </text>
                <text id="Small" fill="#000000" fill-rule="nonzero" font-family="Helvetica" font-size="13" font-weight="normal">
                    <tspan x="266" y="725">Small</tspan>
                </text>
                <text id="Medium" fill="#000000" fill-rule="nonzero" font-family="Helvetica" font-size="13" font-weight="normal">
                    <tspan x="266" y="1155">Medium</tspan>
                </text>
                <text id="Large" fill="#000000" fill-rule="nonzero" font-family="Helvetica" font-size="13" font-weight="normal">
                    <tspan x="266" y="1585">Large</tspan>
                </text>
            </g>
            <g id="Guides" transform="translate(266.000000, 624.000000)">
                <g id="H-reference" transform="translate(76.000000, 0.000000)" fill="#27AAE1" fill-rule="nonzero">
                    <path d="M0.976562,71 L3.66211,71 L12.9883,46.5371 L45.752,46.5371 L55.127,71 L57.7637,71 L30.6152,0.541 L28.125,0.541 L0.976562,71 Z M29.3457,3.8613 L29.4434,3.8613 L44.873,44.291 L13.8672,44.291 L29.3457,3.8613 Z" id="Shape"></path>
                </g>
                <line x1="0" y1="71" x2="2773" y2="71" id="Baseline-S" stroke="#27AAE1" stroke-width="0.5"></line>
                <line x1="0" y1="0.541" x2="2773" y2="0.541" id="Capline-S" stroke="#27AAE1" stroke-width="0.5"></line>
                <g id="H-reference" transform="translate(76.000000, 430.000000)" fill="#27AAE1" fill-rule="nonzero">
                    <path d="M0.976562,71 L3.66211,71 L12.9883,46.5371 L45.752,46.5371 L55.127,71 L57.7637,71 L30.6152,0.541 L28.125,0.541 L0.976562,71 Z M29.3457,3.8613 L29.4434,3.8613 L44.873,44.291 L13.8672,44.291 L29.3457,3.8613 Z" id="Shape"></path>
                </g>
                <line x1="0" y1="501" x2="2773" y2="501" id="Baseline-M" stroke="#27AAE1" stroke-width="0.5"></line>
                <line x1="0" y1="430.54" x2="2773" y2="430.54" id="Capline-M" stroke="#27AAE1" stroke-width="0.5"></line>
                <g id="H-reference" transform="translate(76.000000, 860.000000)" fill="#27AAE1" fill-rule="nonzero">
                    <path d="M0.976562,71 L3.66211,71 L12.9883,46.5371 L45.752,46.5371 L55.127,71 L57.7637,71 L30.6152,0.541 L28.125,0.541 L0.976562,71 Z M29.3457,3.8613 L29.4434,3.8613 L44.873,44.291 L13.8672,44.291 L29.3457,3.8613 Z" id="Shape"></path>
                </g>
                <line x1="0" y1="931" x2="2773" y2="931" id="Baseline-L" stroke="#27AAE1" stroke-width="0.5"></line>
                <line x1="0" y1="860.54" x2="2773" y2="860.54" id="Capline-L" stroke="#27AAE1" stroke-width="0.5"></line>
                <line x1="1128.3" y1="405.79" x2="1128.3" y2="525.12" id="left-margin" stroke="#00AEEF" stroke-width="0.5"></line>
                <line x1="1245.39" y1="405.79" x2="1245.39" y2="525.12" id="right-margin" stroke="#00AEEF" stroke-width="0.5"></line>
            </g>
            <g id="Symbols" transform="translate(501.000000, 617.000000)" fill="#000000">
                <g id="Black-L" transform="translate(2367.050000, 834.000000)" fill-rule="nonzero">
                    <path d="M68.3457,136.8613 C105.748,136.8613 136.412,106.19727 136.412,68.7949 C136.412,31.3926 105.748,0.729 68.2969,0.729 C30.8945,0.729 0.2793,31.3926 0.2793,68.7949 C0.2793,106.19727 30.9434,136.8613 68.3457,136.8613 Z M49.6445,98.9707 C43.834,98.9707 40.5625,95.65039 40.5625,90.1816 C40.5625,88.7656 40.8555,86.7637 41.7344,83.9805 L53.1113,50.3379 C55.748,42.0859 60.4844,38.3262 68.0527,38.3262 C75.8652,38.3262 80.8457,42.1836 83.4336,50.3379 L94.811,83.9805 C95.689,86.7637 95.982,88.7656 95.982,90.1816 C95.982,95.65039 92.711,98.9707 86.9004,98.9707 C82.0664,98.9707 78.9902,96.28516 77.7207,90.5234 L76.3535,85.7383 L60.1914,85.7383 L58.8242,90.5234 C57.5547,96.28516 54.4785,98.9707 49.6445,98.9707 Z M63.1211,72.8477 L73.4238,72.8477 L68.6387,54.0977 L67.9062,54.0977 L63.1211,72.8477 Z" id="Shape"></path>
                </g>
                <g id="Heavy-L" transform="translate(2071.390000, 835.000000)" fill-rule="nonzero">
                    <path d="M67.2715,134.7871 C104.088,134.7871 134.312,104.5625 134.312,67.7949 C134.312,30.9785 104.039,0.754 67.2715,0.754 C30.4551,0.754 0.2793,30.9785 0.2793,67.7949 C0.2793,104.5625 30.5039,134.7871 67.2715,134.7871 Z M47.9844,97.87305 C42.9551,97.87305 40.0254,95.04102 40.0254,90.3047 C40.0254,88.9863 40.3184,87.2773 41.0996,84.8359 L54.1367,47.4336 C56.4316,40.4512 60.582,37.2285 67.0273,37.2285 C73.7168,37.2285 78.0137,40.5 80.2598,47.4336 L93.297,84.8359 C94.078,87.2773 94.371,88.9863 94.371,90.3047 C94.371,94.99219 91.441,97.87305 86.4609,97.87305 C82.2617,97.87305 79.5762,95.62695 78.4043,90.6465 L76.1582,83.5176 L58.2871,83.5176 L55.9922,90.6465 C54.8203,95.62695 52.1348,97.87305 47.9844,97.87305 Z M61.0215,72.043 L73.375,72.043 L67.5645,51.584 L66.8809,51.584 L61.0215,72.043 Z" id="Shape"></path>
                </g>
                <g id="Bold-L" transform="translate(1775.880000, 836.000000)" fill-rule="nonzero">
                    <path d="M66.0996,132.5664 C102.232,132.5664 131.92,102.878906 131.92,66.7461 C131.92,30.6621 102.184,0.926 66.0508,0.926 C29.9668,0.926 0.2793,30.6621 0.2793,66.7461 C0.2793,102.878906 30.0156,132.5664 66.0996,132.5664 Z M46.1289,96.82422 C41.9297,96.82422 39.4883,94.38281 39.4883,90.5254 C39.4883,89.3535 39.7324,87.9863 40.3672,85.9844 L55.3574,44.2852 C57.2129,38.7188 60.6309,36.1309 65.9043,36.1309 C71.2754,36.1309 74.8398,38.7676 76.6953,44.2852 L91.686,85.9844 C92.32,87.9863 92.564,89.3535 92.564,90.5254 C92.564,94.38281 90.074,96.82422 85.9727,96.82422 C82.5059,96.82422 80.2598,95.01758 79.1855,90.8184 L75.9141,81.1992 L56.0898,81.1992 L52.8672,90.8184 C51.793,95.01758 49.5469,96.82422 46.1289,96.82422 Z M58.7266,71.2871 L73.3262,71.2871 L66.3438,48.9238 L65.709,48.9238 L58.7266,71.2871 Z" id="Shape"></path>
                </g>
                <g id="Semibold-L" transform="translate(1484.970000, 840.000000)">
                    <path d="M67.5298402,0 C71.9241558,-8.07222678e-16 75.6760071,3.17333925 76.405098,7.50674852 L78.2598072,18.5249859 C82.4036119,20.1961483 86.26134,22.4190838 89.7400154,25.1016908 L100.410184,21.1429701 C104.511931,19.6207644 109.114172,21.2688176 111.31723,25.0487616 L118.775163,37.8448691 C121.005512,41.6716366 120.119938,46.5523267 116.687334,49.3515833 L108.005491,56.4319731 C108.302113,58.5793401 108.455359,60.771942 108.455359,63 C108.455359,65.228058 108.302113,67.4206599 108.005491,69.5680269 L116.687334,76.6484167 C120.119938,79.4476733 121.005512,84.3283634 118.775163,88.1551309 L111.31723,100.951238 C109.114172,104.731182 104.511931,106.379236 100.410184,104.85703 L89.7400154,100.898309 C86.26134,103.580916 82.4036119,105.803852 78.2598072,107.475014 L76.405098,118.493251 C75.6760071,122.826661 71.9241558,126 67.5298402,126 L52.4695686,126 C48.0752531,126 44.3234018,122.826661 43.5943109,118.493251 L41.7406051,107.475419 C37.5960247,105.804051 33.7376142,103.580709 30.2583986,100.897542 L19.5894368,104.856951 C15.4875957,106.379192 10.885255,104.731027 8.68225737,100.950932 L1.22466311,88.1545425 C-1.00550637,84.3278237 -0.119915089,79.4473153 3.3125596,76.64811 L11.9937796,69.5670263 C11.6972487,67.4199788 11.5440497,65.2277119 11.5440497,63 C11.5440497,60.771942 11.6972963,58.5793401 11.9939178,56.4319731 L3.3125596,49.35189 C-0.119915089,46.5526847 -1.00550637,41.6721763 1.22466311,37.8454575 L8.68225737,25.0490684 C10.885255,21.2689734 15.4875957,19.6208082 19.5894368,21.1430486 L30.2583986,25.102458 C33.7376142,22.4192911 37.5960247,20.1959487 41.7406051,18.5245812 L43.5943109,7.50674852 C44.3234018,3.17333925 48.0752531,8.07222678e-16 52.4695686,0 L67.5298402,0 Z M59.9997044,45 C49.9642098,45 41.8288339,53.0588745 41.8288339,63 C41.8288339,72.9411255 49.9642098,81 59.9997044,81 C70.0351991,81 78.170575,72.9411255 78.170575,63 C78.170575,53.0588745 70.0351991,45 59.9997044,45 Z" id="Combined-Shape-Copy-2" fill-opacity="0.2"></path>
                    <path d="M67.5298391,0 C71.9241547,0 75.676006,3.17333925 76.4050969,7.50674852 L78.2598061,18.5249859 C82.4036108,20.1961483 86.2613389,22.4190838 89.7400143,25.1016908 L100.410182,21.1429701 C104.51193,19.6207644 109.11417,21.2688176 111.317229,25.0487616 L118.775162,37.8448691 C121.005511,41.6716366 120.119937,46.5523267 116.687333,49.3515833 L108.00549,56.4319731 C108.302111,58.5793401 108.455358,60.771942 108.455358,63 C108.455358,65.228058 108.302111,67.4206599 108.00549,69.5680269 L116.687333,76.6484167 C120.119937,79.4476733 121.005511,84.3283634 118.775162,88.1551309 L111.317229,100.951238 C109.11417,104.731182 104.51193,106.379236 100.410182,104.85703 L89.7400143,100.898309 C86.2613389,103.580916 82.4036108,105.803852 78.2598061,107.475014 L76.4050969,118.493251 C75.676006,122.826661 71.9241547,126 67.5298391,126 L52.4695675,126 C48.0752519,126 44.3234007,122.826661 43.5943098,118.493251 L41.740604,107.475419 C37.5960236,105.804051 33.737613,103.580709 30.2583975,100.897542 L19.5894357,104.856951 C15.4875946,106.379192 10.8852539,104.731027 8.68225626,100.950932 L1.22466199,88.1545425 C-1.00550749,84.3278237 -0.119916206,79.4473153 3.31255848,76.64811 L11.9937784,69.5670263 C11.6972476,67.4199788 11.5440486,65.2277119 11.5440486,63 C11.5440486,60.771942 11.6972952,58.5793401 11.9939167,56.4319731 L3.31255848,49.35189 C-0.119916206,46.5526847 -1.00550749,41.6721763 1.22466199,37.8454575 L8.68225626,25.0490684 C10.8852539,21.2689734 15.4875946,19.6208082 19.5894357,21.1430486 L30.2583975,25.102458 C33.737613,22.4192911 37.5960236,20.1959487 41.740604,18.5245812 L43.5943098,7.50674852 C44.3234007,3.17333925 48.0752519,0 52.4695675,0 L67.5298391,0 Z M67.5298391,9 L52.4695675,9 L49.779839,24.9868837 L45.1066061,26.8714387 C41.9784695,28.1329092 39.0295012,29.7892444 36.3293679,31.7943119 L35.754602,32.2292902 L31.8041343,35.2758861 L16.4581081,29.580749 L9.00051379,42.377138 L21.6012776,52.653693 L20.9092633,57.6634735 C20.6666762,59.4196632 20.5440486,61.2009085 20.5440486,63 C20.5440486,64.5418409 20.6341146,66.0705744 20.8125672,67.5816626 L20.9091513,68.3357152 L21.6009795,73.3449341 L9.00051379,83.622862 L16.4581081,96.419251 L31.8041343,90.7241139 L35.754602,93.7707098 C38.418832,95.8253608 41.3368732,97.5345748 44.4390589,98.8522192 L45.1066061,99.1285613 L49.779839,101.013116 L52.4695675,117 L67.5299583,117 L70.2210017,101.012659 L74.8936174,99.1282319 C78.0211722,97.8669147 80.9696161,96.2108756 83.6693189,94.2062226 L84.243994,93.771335 L88.1939839,90.7252702 L103.54151,96.4193295 L110.999443,83.623222 L98.3981241,73.3463431 L99.0901433,68.3365265 C99.3327304,66.5803368 99.4553581,64.7990915 99.4553581,63 C99.4553581,61.4579216 99.3652643,59.9289546 99.186757,58.4176392 L99.0901433,57.6634735 L98.3981241,52.6536569 L110.999443,42.376778 L103.540744,29.5809546 L88.1939839,35.2747298 L84.243994,32.228665 C81.5801809,30.1744453 78.6626532,28.465546 75.5610408,27.1480752 L74.8936174,26.8717681 L70.2210017,24.9873406 L67.5298391,9 Z M59.9997033,36 C74.9868257,36 87.1705738,48.0691778 87.1705738,63 C87.1705738,77.9308222 74.9868257,90 59.9997033,90 C45.012581,90 32.8288328,77.9308222 32.8288328,63 C32.8288328,48.0691778 45.012581,36 59.9997033,36 Z M59.9997033,45 C49.9642086,45 41.8288328,53.0588745 41.8288328,63 C41.8288328,72.9411255 49.9642086,81 59.9997033,81 C70.035198,81 78.1705738,72.9411255 78.1705738,63 C78.1705738,53.0588745 70.035198,45 59.9997033,45 Z" id="Combined-Shape" fill-rule="nonzero"></path>
                </g>
                <g id="Medium-L" transform="translate(1188.870000, 840.000000)" fill-opacity="0.2" stroke="#000000" stroke-width="9">
                    <path d="M67.6598402,4.5 C68.7584191,4.5 69.77669,4.89666741 70.5658843,5.56417289 C71.2943714,6.1803318 71.8276689,7.02726399 72.0488134,8.00627975 L72.0975287,8.25372832 L74.3840175,21.8370307 C79.6051836,23.6073006 84.382988,26.3241127 88.5092566,29.7803118 L89.0216317,30.2161726 L102.105847,25.3618203 C103.131284,24.9812689 104.219283,24.9969998 105.188613,25.3441151 C106.08338,25.6645292 106.877033,26.2673063 107.42703,27.1014024 L107.559371,27.3147161 L115.017304,40.1108235 C115.574891,41.0675154 115.742988,42.1559476 115.55715,43.1801604 C115.385608,44.1255875 114.912488,45.0162952 114.165676,45.6982216 L113.973287,45.8642644 L103.266563,54.5960248 C103.804111,57.3151411 104.085359,60.1250136 104.085359,63 C104.085359,65.5874878 103.857548,68.1222332 103.420114,70.5855433 L103.266563,71.4039752 L113.973389,80.1358194 C114.83154,80.8356335 115.371312,81.7956269 115.55715,82.8198396 C115.728693,83.7652668 115.598658,84.7654135 115.13908,85.666152 L115.017304,85.8891765 L107.559371,98.6852839 C107.008606,99.6302699 106.157944,100.30877 105.188613,100.655885 C104.293847,100.976299 103.297966,101.01435 102.343214,100.718882 L102.105465,100.638038 L89.0216317,95.7838274 C84.9500192,99.3012824 80.2181969,102.087982 75.034339,103.936771 L74.3840175,104.162969 L72.0974691,117.746626 C71.9151964,118.829978 71.3550786,119.768322 70.5658843,120.435827 C69.8373972,121.051986 68.9137207,121.437372 67.9118651,121.493016 L67.6598402,121.5 L52.5995686,121.5 C51.5009897,121.5 50.4827189,121.103333 49.6935246,120.435827 C48.9650375,119.819668 48.4317399,118.972736 48.2106439,117.994008 L48.1619418,117.746638 L45.8766143,104.163384 C40.6545246,102.392972 35.8759255,99.6756923 31.7490932,96.2188011 L31.2366489,95.7828526 L18.153773,100.638101 C17.1283127,101.018661 16.04029,101.002921 15.070945,100.655784 C14.176165,100.33535 13.3825068,99.7325438 12.8325208,98.8984136 L12.7001833,98.6850913 L5.24258901,85.8887022 C4.68504664,84.9320225 4.51697436,83.8436191 4.70281735,82.8194353 C4.87436472,81.8740349 5.34747302,80.9833541 6.09446064,80.3012767 L6.28689734,80.1351923 L16.9926084,71.4027749 C16.4552151,68.684032 16.1740497,65.8745634 16.1740497,63 C16.1740497,60.4125179 16.4018597,57.8777779 16.8392923,55.4144729 L16.9928421,54.5960427 L6.28653725,45.864514 C5.42841858,45.1647127 4.88866033,44.2047485 4.70281735,43.1805647 C4.53126998,42.2351642 4.66128354,41.2350441 5.12082287,40.3343191 L5.24258901,40.1112978 L12.7001833,27.3149087 C13.2509327,26.3698849 14.1016,25.6913524 15.070945,25.3442159 C15.965725,25.0237821 16.9616268,24.9857212 17.9160907,25.2810791 L18.1537608,25.3618943 L31.2366489,30.2171474 C35.3088056,26.6989818 40.0414075,23.9117918 45.226178,22.0628342 L45.8766143,21.8366161 L48.1619398,8.25337426 C48.3442125,7.17002194 48.9043303,6.23167838 49.6935246,5.56417289 C50.4220116,4.94801398 51.3456882,4.56262835 52.3475437,4.50698416 L52.5995686,4.5 L67.6598402,4.5 Z M60.1297044,40.5 C53.8742156,40.5 48.2128098,43.0148797 44.1140451,47.0751015 C39.9998199,51.1506384 37.4588339,56.7819702 37.4588339,63 C37.4588339,69.2180298 39.9998199,74.8493616 44.1140451,78.9248985 C48.2128098,82.9851203 53.8742156,85.5 60.1297044,85.5 C66.3851932,85.5 72.0465991,82.9851203 76.1453638,78.9248985 C80.259589,74.8493616 82.800575,69.2180298 82.800575,63 C82.800575,56.7819702 80.259589,51.1506384 76.1453638,47.0751015 C72.0465991,43.0148797 66.3851932,40.5 60.1297044,40.5 Z" id="Combined-Shape-Copy-2"></path>
                </g>
                <g id="Regular-L" transform="translate(891.970000, 840.000000)" fill-rule="nonzero">
                    <path d="M67.5598402,0 C71.9541558,0 75.7060071,3.17333925 76.435098,7.50674852 L78.2898072,18.5249859 C82.4336119,20.1961483 86.29134,22.4190838 89.7700154,25.1016908 L100.440184,21.1429701 C104.541931,19.6207644 109.144172,21.2688176 111.34723,25.0487616 L118.805163,37.8448691 C121.035512,41.6716366 120.149938,46.5523267 116.717334,49.3515833 L108.035491,56.4319731 C108.332113,58.5793401 108.485359,60.771942 108.485359,63 C108.485359,65.228058 108.332113,67.4206599 108.035491,69.5680269 L116.717334,76.6484167 C120.149938,79.4476733 121.035512,84.3283634 118.805163,88.1551309 L111.34723,100.951238 C109.144172,104.731182 104.541931,106.379236 100.440184,104.85703 L89.7700154,100.898309 C86.29134,103.580916 82.4336119,105.803852 78.2898072,107.475014 L76.435098,118.493251 C75.7060071,122.826661 71.9541558,126 67.5598402,126 L52.4995686,126 C48.1052531,126 44.3534018,122.826661 43.6243109,118.493251 L41.7706051,107.475419 C37.6260247,105.804051 33.7676142,103.580709 30.2883986,100.897542 L19.6194368,104.856951 C15.5175957,106.379192 10.915255,104.731027 8.71225737,100.950932 L1.25466311,88.1545425 C-0.97550637,84.3278237 -0.0899150891,79.4473153 3.3425596,76.64811 L12.0237796,69.5670263 C11.7272487,67.4199788 11.5740497,65.2277119 11.5740497,63 C11.5740497,60.771942 11.7272963,58.5793401 12.0239178,56.4319731 L3.3425596,49.35189 C-0.0899150891,46.5526847 -0.97550637,41.6721763 1.25466311,37.8454575 L8.71225737,25.0490684 C10.915255,21.2689734 15.5175957,19.6208082 19.6194368,21.1430486 L30.2883986,25.102458 C33.7676142,22.4192911 37.6260247,20.1959487 41.7706051,18.5245812 L43.6243109,7.50674852 C44.3534018,3.17333925 48.1052531,0 52.4995686,0 L67.5598402,0 Z M67.5598402,9 L52.4995686,9 L49.8098401,24.9868837 L45.1366072,26.8714387 C42.0084706,28.1329092 39.0595023,29.7892444 36.359369,31.7943119 L35.7846031,32.2292902 L31.8341354,35.2758861 L16.4881092,29.580749 L9.03051491,42.377138 L21.6312787,52.653693 L20.9392645,57.6634735 C20.6966773,59.4196632 20.5740497,61.2009085 20.5740497,63 C20.5740497,64.5418409 20.6641157,66.0705744 20.8425683,67.5816626 L20.9391524,68.3357152 L21.6309806,73.3449341 L9.03051491,83.622862 L16.4881092,96.419251 L31.8341354,90.7241139 L35.7846031,93.7707098 C38.4488331,95.8253608 41.3668743,97.5345748 44.46906,98.8522192 L45.1366072,99.1285613 L49.8098401,101.013116 L52.4995686,117 L67.5599594,117 L70.2510028,101.012659 L74.9236185,99.1282319 C78.0511734,97.8669147 80.9996172,96.2108756 83.69932,94.2062226 L84.2739951,93.771335 L88.223985,90.7252702 L103.571511,96.4193295 L111.029445,83.623222 L98.4281252,73.3463431 L99.1201444,68.3365265 C99.3627315,66.5803368 99.4853592,64.7990915 99.4853592,63 C99.4853592,61.4579216 99.3952654,59.9289546 99.2167581,58.4176392 L99.1201444,57.6634735 L98.4281252,52.6536569 L111.029445,42.376778 L103.570746,29.5809546 L88.223985,35.2747298 L84.2739951,32.228665 C81.610182,30.1744453 78.6926543,28.465546 75.591042,27.1480752 L74.9236185,26.8717681 L70.2510028,24.9873406 L67.5598402,9 Z M60.0297044,36 C75.0168268,36 87.200575,48.0691778 87.200575,63 C87.200575,77.9308222 75.0168268,90 60.0297044,90 C45.0425821,90 32.8588339,77.9308222 32.8588339,63 C32.8588339,48.0691778 45.0425821,36 60.0297044,36 Z M60.0297044,45 C49.9942098,45 41.8588339,53.0588745 41.8588339,63 C41.8588339,72.9411255 49.9942098,81 60.0297044,81 C70.0651991,81 78.200575,72.9411255 78.200575,63 C78.200575,53.0588745 70.0651991,45 60.0297044,45 Z" id="Combined-Shape"></path>
                </g>
                <g id="Light-L" transform="translate(592.180000, 840.000000)" fill-rule="nonzero">
                    <path d="M62.9258,125.3926 C97.301,125.3926 125.621,97.072266 125.621,62.7461 C125.621,28.3711 97.252,0.0508 62.9258,0.0508 C28.5508,0.0508 0.2793,28.3711 0.2793,62.7461 C0.2793,97.072266 28.5996,125.3926 62.9258,125.3926 Z M41.9297,92.04297 C39.8789,92.04297 38.6582,90.87109 38.6582,89.06445 C38.6582,88.38086 38.7559,87.8438 39.0977,86.916 L58.1406,36.2812 C58.9707,34.0352 60.5332,32.9121 62.877,32.9121 C65.123,32.9121 66.7344,34.0352 67.5645,36.2812 L86.6074,86.916 C86.9492,87.8438 87.0957,88.38086 87.0957,89.11328 C87.0957,90.82227 85.7773,92.04297 83.873,92.04297 C82.2129,92.04297 81.1875,91.31055 80.4551,89.25977 L74.8887,73.8301 L50.8652,73.8301 L45.25,89.25977 C44.5176,91.35938 43.541,92.04297 41.9297,92.04297 Z M52.7207,68.3125 L72.9844,68.3125 L63.0723,41.0664 L62.6328,41.0664 L52.7207,68.3125 Z" id="Shape"></path>
                </g>
                <g id="Thin-L" transform="translate(296.693000, 841.000000)" fill-rule="nonzero">
                    <path d="M61.7051,123.1719 C95.494,123.1719 123.18,95.48633 123.18,61.7461 C123.18,27.957 95.494,0.2715 61.7051,0.2715 C27.9648,0.2715 0.2793,27.957 0.2793,61.7461 C0.2793,95.48633 27.9648,123.1719 61.7051,123.1719 Z M41.0508,90.16406 C39.7324,90.16406 38.9512,89.48047 38.9512,88.35742 C38.9512,87.9668 39.0488,87.72266 39.2441,87.13672 L58.9219,35.2812 C59.4102,33.9141 60.3379,33.2793 61.7051,33.2793 C62.9746,33.2793 63.9023,33.9141 64.3906,35.2812 L84.0684,87.13672 C84.2637,87.72266 84.3613,87.9668 84.3613,88.40625 C84.3613,89.43164 83.5312,90.16406 82.4082,90.16406 C81.2363,90.16406 80.6992,89.72461 80.2598,88.45508 L74.0098,71.7559 L49.3027,71.7559 L43.0527,88.45508 C42.6133,89.77344 42.0762,90.16406 41.0508,90.16406 Z M50.6699,68.0449 L72.6426,68.0449 L61.8027,39.1387 L61.5098,39.1387 L50.6699,68.0449 Z" id="Shape"></path>
                </g>
                <g id="Ultralight-L" transform="translate(0.616000, 841.000000)" fill-rule="nonzero">
                    <path d="M61.1191,122.5371 C94.566,122.5371 121.91,95.19336 121.91,61.7461 C121.91,28.25 94.566,0.9062 61.1191,0.9062 C27.623,0.9062 0.2793,28.25 0.2793,61.7461 C0.2793,95.19336 27.623,122.5371 61.1191,122.5371 Z M40.5625,89.72461 C39.6348,89.72461 39.0977,89.28516 39.0977,88.50391 C39.0977,88.25977 39.1465,88.16211 39.293,87.77148 L59.3125,35.2812 C59.6543,34.3535 60.1914,34.0117 61.0703,34.0117 C61.9004,34.0117 62.4375,34.3535 62.7793,35.2812 L82.7988,87.77148 C82.8965,88.16211 82.9941,88.25977 82.9941,88.60156 C82.9941,89.23633 82.3594,89.72461 81.6758,89.72461 C80.748,89.72461 80.5039,89.43164 80.1621,88.55273 L73.5215,71.2188 L48.5215,71.2188 L41.9297,88.55273 C41.5879,89.48047 41.2949,89.72461 40.5625,89.72461 Z M49.5957,68.4355 L72.4961,68.4355 L61.1191,38.6504 L60.9238,38.6504 L49.5957,68.4355 Z" id="Shape"></path>
                </g>
                <g id="Black-M" transform="translate(2380.970000, 419.000000)" fill-rule="nonzero">
                    <path d="M54.4023,107.457 C83.9922,107.457 108.113,83.38477 108.113,53.7949 C108.113,24.2051 83.9922,0.1328 54.4023,0.1328 C24.8125,0.1328 0.74023,24.2051 0.74023,53.7949 C0.74023,83.38477 24.8125,107.457 54.4023,107.457 Z M40.877,76.8906 C35.6523,76.8906 32.7227,74.0098 32.7227,69.0293 C32.7227,67.8086 33.0645,66.002 33.7969,63.4629 L40.584,42.0273 C42.9766,34.3125 47.2734,30.8457 54.207,30.8457 C61.3359,30.8457 65.877,34.4102 68.2207,42.0273 L74.959,63.4629 C75.6914,66.002 76.0332,67.8086 76.0332,69.0293 C76.0332,74.0098 73.1523,76.8906 67.8789,76.8906 C63.4844,76.8906 60.75,74.3516 59.7734,69.2734 L59.5781,68.1016 L49.1777,68.1016 L48.9824,69.2734 C48.0059,74.3516 45.2715,76.8906 40.877,76.8906 Z M51.4238,56.9199 L57.332,56.9199 L54.6465,44.0293 L54.1582,44.0293 L51.4238,56.9199 Z" id="Shape"></path>
                </g>
                <g id="Heavy-M" transform="translate(2085.190000, 420.000000)" fill-rule="nonzero">
                    <path d="M53.5234,105.5293 C82.5273,105.5293 106.258,81.79883 106.258,52.7949 C106.258,23.7422 82.5273,0.0117 53.4746,0.0117 C24.4707,0.0117 0.74023,23.7422 0.74023,52.7949 C0.74023,81.79883 24.4707,105.5293 53.5234,105.5293 Z M39.2656,75.9883 C34.7246,75.9883 32.1367,73.4492 32.1367,69.1523 C32.1367,68.0781 32.4297,66.5156 33.0645,64.3184 L41.5605,38.9766 C43.6602,32.4336 47.3711,29.5039 53.3281,29.5039 C59.4316,29.5039 63.3379,32.4824 65.3398,38.9766 L73.8359,64.3184 C74.5195,66.5156 74.7637,68.0781 74.7637,69.1523 C74.7637,73.4492 72.2246,75.9883 67.6836,75.9883 C63.875,75.9883 61.5312,73.8887 60.5547,69.3965 L59.5781,66.0273 L47.3711,66.0273 L46.3457,69.3965 C45.418,73.8887 43.0254,75.9883 39.2656,75.9883 Z M49.5684,56.0176 L57.3809,56.0176 L53.7188,41.5645 L53.2305,41.5645 L49.5684,56.0176 Z" id="Shape"></path>
                </g>
                <g id="Bold-M" transform="translate(1789.500000, 421.000000)" fill-rule="nonzero">
                    <path d="M52.498,103.5039 C80.8672,103.5039 104.207,80.16406 104.207,51.7949 C104.207,23.377 80.8672,0.0371 52.4492,0.0371 C24.0312,0.0371 0.74023,23.377 0.74023,51.7949 C0.74023,80.16406 24.0801,103.5039 52.498,103.5039 Z M37.4102,75.1348 C33.6504,75.1348 31.4531,72.9375 31.4531,69.4219 C31.4531,68.4453 31.6973,67.1758 32.2832,65.3691 L42.6836,35.6328 C44.3926,30.457 47.4688,28.0645 52.3027,28.0645 C57.2832,28.0645 60.5059,30.5059 62.166,35.6328 L72.6152,65.3691 C73.2012,67.1758 73.3965,68.4453 73.3965,69.4219 C73.3965,72.9375 71.1992,75.1348 67.4883,75.1348 C64.3633,75.1348 62.3613,73.4258 61.4336,69.666 L59.5293,63.7578 L45.3691,63.7578 L43.416,69.666 C42.5371,73.4258 40.5352,75.1348 37.4102,75.1348 Z M47.4688,55.1152 L57.3809,55.1152 L52.6934,38.9531 L52.2051,38.9531 L47.4688,55.1152 Z" id="Shape"></path>
                </g>
                <g id="Semibold-M" transform="translate(1496.500000, 421.000000)">
                    <path d="M56.2748685,0 C59.9368065,2.1549133e-16 63.0633537,2.64446107 63.6709203,6.25564543 L65.2155978,15.4371325 C68.6690192,16.8297992 71.8840167,18.6823558 74.7830933,20.9180328 L83.6746337,17.6192022 C87.0927801,16.3506661 90.9280217,17.7240583 92.763902,20.8740509 L98.9787382,31.5374303 C100.837322,34.7263777 100.09936,38.7935656 97.2389112,41.1262785 L90.0041895,47.0272471 C90.2513151,48.8165271 90.3789896,50.6434935 90.3789896,52.5 C90.3789896,54.3565065 90.2513151,56.1834729 90.0041895,57.9727529 L97.2389112,63.8737215 C100.09936,66.2064344 100.837322,70.2736223 98.9787382,73.4625697 L92.763902,84.1259491 C90.9280217,87.2759417 87.0927801,88.6493339 83.6746337,87.3807978 L74.7830933,84.0819672 C71.8840167,86.3176442 68.6690192,88.1702008 65.2155978,89.5628675 L63.6709203,98.7443546 C63.0633537,102.355539 59.9368065,105 56.2748685,105 L43.7251315,105 C40.0631935,105 36.9366463,102.355539 36.3290797,98.7443546 L34.7844022,89.5628675 C31.3309808,88.1702008 28.1159833,86.3176442 25.2169067,84.0819672 L16.3255463,87.380731 C12.9073202,88.6492967 9.07199335,87.2758091 7.23616476,84.1256881 L1.02163979,73.4621081 C-0.836801933,70.2731851 -0.0988065046,66.2061285 2.76156484,63.8734665 L9.99581046,57.9727529 C9.7486849,56.1834729 9.62101039,54.3565065 9.62101039,52.5 C9.62101039,50.6434935 9.7486849,48.8165271 9.99581046,47.0272471 L2.76156484,41.1265335 C-0.0988065046,38.7938715 -0.836801933,34.7268149 1.02163979,31.5378919 L7.23616476,20.8743119 C9.07199335,17.7241909 12.9073202,16.3507033 16.3255463,17.619269 L25.2169067,20.9180328 C28.1159833,18.6823558 31.3309808,16.8297992 34.7844022,15.4371325 L36.3290797,6.25564543 C36.9366463,2.64446107 40.0631935,6.7268709e-16 43.7251315,0 L56.2748685,0 Z M50,37.5 C41.6372374,37.5 34.8578789,44.2157288 34.8578789,52.5 C34.8578789,60.7842712 41.6372374,67.5 50,67.5 C58.3627626,67.5 65.1421211,60.7842712 65.1421211,52.5 C65.1421211,44.2157288 58.3627626,37.5 50,37.5 Z" id="Combined-Shape-Copy-2" fill-opacity="0.2"></path>
                    <path d="M56.2737561,0 C59.9356941,0 63.0622413,2.64446107 63.6698079,6.25564543 L65.2144854,15.4371325 C68.6679068,16.8297992 71.8829043,18.6823558 74.7819809,20.9180328 L83.6735213,17.6192022 C87.0916678,16.3506661 90.9269093,17.7240583 92.7627896,20.8740509 L98.9776259,31.5374303 C100.83621,34.7263777 100.098248,38.7935656 97.2377988,41.1262785 L90.0030772,47.0272471 C90.2502027,48.8165271 90.3778772,50.6434935 90.3778772,52.5 C90.3778772,54.3565065 90.2502027,56.1834729 90.0030772,57.9727529 L97.2377988,63.8737215 C100.098248,66.2064344 100.83621,70.2736223 98.9776259,73.4625697 L92.7627896,84.1259491 C90.9269093,87.2759417 87.0916678,88.6493339 83.6735213,87.3807978 L74.7819809,84.0819672 C71.8829043,86.3176442 68.6679068,88.1702008 65.2144854,89.5628675 L63.6698079,98.7443546 C63.0622413,102.355539 59.9356941,105 56.2737561,105 L43.7240191,105 C40.0620812,105 36.9355339,102.355539 36.3279674,98.7443546 L34.7832898,89.5628675 C31.3298684,88.1702008 28.114871,86.3176442 25.2157943,84.0819672 L16.3244339,87.380731 C12.9062078,88.6492967 9.07088097,87.2758091 7.23505237,84.1256881 L1.02052741,73.4621081 C-0.837914314,70.2731851 -0.0999188853,66.2061285 2.76045246,63.8734665 L9.99469808,57.9727529 C9.74757252,56.1834729 9.61989801,54.3565065 9.61989801,52.5 C9.61989801,50.6434935 9.74757252,48.8165271 9.99469808,47.0272471 L2.76045246,41.1265335 C-0.0999188853,38.7938715 -0.837914314,34.7268149 1.02052741,31.5378919 L7.23505237,20.8743119 C9.07088097,17.7241909 12.9062078,16.3507033 16.3244339,17.619269 L25.2157943,20.9180328 C28.114871,18.6823558 31.3298684,16.8297992 34.7832898,15.4371325 L36.3279674,6.25564543 C36.9355339,2.64446107 40.0620812,0 43.7240191,0 L56.2737561,0 Z M56.2728876,7.5 L43.7240191,7.5 L41.4826905,20.8223466 L37.5883262,22.3928331 C35.0105012,23.4323966 32.5786853,24.793759 30.3490237,26.4397423 L29.7958523,26.8571462 L26.5041865,29.3955757 L13.7149531,24.6506707 L7.50042816,35.3146886 L18.000718,43.878959 L17.4241719,48.0533653 C17.2220635,49.5167044 17.119898,51.000918 17.119898,52.5 C17.119898,53.749235 17.1908463,54.9881447 17.3314566,56.2132534 L17.4241719,56.9466347 L18.000718,61.121041 L7.50042816,69.6857493 L13.7149531,80.3493293 L26.5041865,75.6044243 L29.7958523,78.1428538 C31.9914317,79.8360157 34.393844,81.2476549 36.9469443,82.3405934 L37.5883262,82.6071669 L41.4826905,84.1776534 L43.7240191,97.5 L56.2737561,97.5 L58.5150848,84.1776534 L62.4094491,82.6071669 C64.987274,81.5676034 67.4190899,80.206241 69.6487515,78.5602577 L70.2019229,78.1428538 L73.4935888,75.6044243 L86.283002,80.349396 L92.4978383,69.6856188 L81.9970497,61.1210951 L82.5736033,56.9466347 C82.7757117,55.4832956 82.8778772,53.999082 82.8778772,52.5 C82.8778772,51.250765 82.806929,50.0118553 82.6663187,48.7867466 L82.5736033,48.0533653 L81.9970497,43.8789049 L92.4978383,35.3139834 L86.2823199,24.6508571 L73.4935888,29.3955757 L70.2019229,26.8571462 C68.0063436,25.1639843 65.6039312,23.7523451 63.050831,22.6594066 L62.4094491,22.3928331 L58.5150848,20.8223466 L56.2728876,7.5 Z M49.9988876,30 C62.4880363,30 72.6410087,40.0576785 72.6410087,52.5 C72.6410087,64.9423215 62.4880363,75 49.9988876,75 C37.5097389,75 27.3567665,64.9423215 27.3567665,52.5 C27.3567665,40.0576785 37.5097389,30 49.9988876,30 Z M49.9988876,37.5 C41.6361251,37.5 34.8567665,44.2157288 34.8567665,52.5 C34.8567665,60.7842712 41.6361251,67.5 49.9988876,67.5 C58.3616502,67.5 65.1410087,60.7842712 65.1410087,52.5 C65.1410087,44.2157288 58.3616502,37.5 49.9988876,37.5 Z" id="Combined-Shape" fill-rule="nonzero"></path>
                </g>
                <g id="Medium-M" transform="translate(1199.300000, 421.000000)" fill-opacity="0.2" stroke="#000000" stroke-width="7.5">
                    <path d="M56.9748685,3.75 C57.890353,3.75 58.7389136,4.08055763 59.3965761,4.63681429 C59.9994333,5.14671622 60.441883,5.84626803 60.6284299,6.65468107 L60.6728898,6.8777957 L62.5772377,18.1971451 C66.9038066,19.6639687 70.8650575,21.9107766 74.2904155,24.7678242 L74.7760884,25.1801068 L85.679374,21.1349031 C86.5339107,20.8177691 87.4405842,20.8308761 88.248366,21.1201411 C88.9888327,21.3853008 89.646203,21.8825099 90.1041464,22.5701107 L90.2240082,22.7623274 L96.4388445,33.4257069 C96.9034905,34.2229437 97.0435682,35.1299606 96.8887064,35.9834629 C96.7467498,36.7658399 96.3569619,37.5032498 95.7419767,38.0700673 L95.5686871,38.2203299 L86.6468168,45.4974137 C87.0946709,47.7631182 87.3289896,50.1044342 87.3289896,52.5 C87.3289896,54.6293919 87.1438489,56.7159196 86.7881643,58.7445803 L86.6468168,59.5025863 L95.5689309,66.779869 C96.2840432,67.3630473 96.7338446,68.1630349 96.8887064,69.0165371 C97.0294899,69.7924483 96.9265216,70.6125864 96.5575412,71.3542658 L96.4388445,71.5742931 L90.2240082,82.2376726 C89.7650381,83.0251707 89.0561479,83.5905938 88.248366,83.8798589 C87.5140189,84.1428271 86.6979431,84.1775656 85.9133524,83.9433458 L85.679033,83.8649703 L74.7760884,79.8198932 C71.4021546,82.7346739 67.4842053,85.0472981 63.1928154,86.588021 L62.5772377,86.8028549 L60.6728944,98.1221773 C60.5210027,99.0249734 60.0542385,99.8069291 59.3965761,100.363186 C58.7937188,100.873088 58.0304541,101.19334 57.2022736,101.243174 L56.9748685,101.25 L44.4251315,101.25 C43.509647,101.25 42.6610864,100.919442 42.0034239,100.363186 C41.4005667,99.8532838 40.958117,99.153732 40.7715701,98.3453189 L40.7271102,98.1222043 L38.8227623,86.8028549 C34.4961934,85.3360313 30.5349425,83.0892234 27.1095845,80.2321758 L26.6239116,79.8198932 L15.7208059,83.8650301 C14.8662494,84.1821716 13.9595552,84.1690563 13.151761,83.8797732 C12.4112829,83.6145969 11.7539082,83.1173629 11.295974,82.4297333 L11.1761151,82.2375087 L4.96159016,71.5739287 C4.49697973,70.7766979 4.35692395,69.8697005 4.51179398,69.0162193 C4.65375817,68.2338616 5.04354197,67.4964725 5.65853041,66.9296528 L5.83182112,66.779389 L14.7531779,59.5025595 C14.3053272,57.2368633 14.0710104,54.8955564 14.0710104,52.5 C14.0710104,50.3706165 14.2561496,48.2840968 14.6118315,46.2554437 L14.7531779,45.4974405 L5.83155269,38.2203921 C5.11645985,37.6372266 4.66666401,36.8372618 4.51179398,35.9837807 C4.37100304,35.2078887 4.47395245,34.3877684 4.84290278,33.6460967 L4.96159016,33.4260713 L11.1761151,22.7624913 C11.6350723,21.9749611 12.3439667,21.40951 13.151761,21.1202268 C13.8861194,20.8572422 14.7022132,20.8224954 15.4868221,21.0567194 L15.721147,21.1350964 L26.6239116,25.1801068 C29.9978454,22.2653261 33.9157947,19.9527019 38.2071846,18.411979 L38.8227623,18.1971451 L40.7271056,6.87782271 C40.8789973,5.97502662 41.3457615,5.19307095 42.0034239,4.63681429 C42.6062812,4.12691236 43.3695459,3.80666029 44.1977264,3.75682594 L44.4251315,3.75 L56.9748685,3.75 Z M50.7,33.75 C45.4871597,33.75 40.7693793,35.8457387 37.353785,39.2292748 C33.9253315,42.6255496 31.8078789,47.3183161 31.8078789,52.5 C31.8078789,57.6816839 33.9253315,62.3744504 37.353785,65.7707252 C40.7693793,69.1542613 45.4871597,71.25 50.7,71.25 C55.9128403,71.25 60.6306207,69.1542613 64.046215,65.7707252 C67.4746685,62.3744504 69.5921211,57.6816839 69.5921211,52.5 C69.5921211,47.3183161 67.4746685,42.6255496 64.046215,39.2292748 C60.6306207,35.8457387 55.9128403,33.75 50.7,33.75 Z" id="Combined-Shape-Copy-2"></path>
                </g>
                <g id="Regular-M" transform="translate(901.300000, 421.000000)" fill-rule="nonzero">
                    <path d="M56.9748685,0 C60.6368065,0 63.7633537,2.64446107 64.3709203,6.25564543 L65.9155978,15.4371325 C69.3690192,16.8297992 72.5840167,18.6823558 75.4830933,20.9180328 L84.3746337,17.6192022 C87.7927801,16.3506661 91.6280217,17.7240583 93.463902,20.8740509 L99.6787382,31.5374303 C101.537322,34.7263777 100.79936,38.7935656 97.9389112,41.1262785 L90.7041895,47.0272471 C90.9513151,48.8165271 91.0789896,50.6434935 91.0789896,52.5 C91.0789896,54.3565065 90.9513151,56.1834729 90.7041895,57.9727529 L97.9389112,63.8737215 C100.79936,66.2064344 101.537322,70.2736223 99.6787382,73.4625697 L93.463902,84.1259491 C91.6280217,87.2759417 87.7927801,88.6493339 84.3746337,87.3807978 L75.4830933,84.0819672 C72.5840167,86.3176442 69.3690192,88.1702008 65.9155978,89.5628675 L64.3709203,98.7443546 C63.7633537,102.355539 60.6368065,105 56.9748685,105 L44.4251315,105 C40.7631935,105 37.6366463,102.355539 37.0290797,98.7443546 L35.4844022,89.5628675 C32.0309808,88.1702008 28.8159833,86.3176442 25.9169067,84.0819672 L17.0255463,87.380731 C13.6073202,88.6492967 9.77199335,87.2758091 7.93616476,84.1256881 L1.72163979,73.4621081 C-0.136801933,70.2731851 0.601193495,66.2061285 3.46156484,63.8734665 L10.6958105,57.9727529 C10.4486849,56.1834729 10.3210104,54.3565065 10.3210104,52.5 C10.3210104,50.6434935 10.4486849,48.8165271 10.6958105,47.0272471 L3.46156484,41.1265335 C0.601193495,38.7938715 -0.136801933,34.7268149 1.72163979,31.5378919 L7.93616476,20.8743119 C9.77199335,17.7241909 13.6073202,16.3507033 17.0255463,17.619269 L25.9169067,20.9180328 C28.8159833,18.6823558 32.0309808,16.8297992 35.4844022,15.4371325 L37.0290797,6.25564543 C37.6366463,2.64446107 40.7631935,0 44.4251315,0 L56.9748685,0 Z M56.974,7.5 L44.4251315,7.5 L42.1838029,20.8223466 L38.2894386,22.3928331 C35.7116136,23.4323966 33.2797977,24.793759 31.0501361,26.4397423 L30.4969647,26.8571462 L27.2052989,29.3955757 L14.4160655,24.6506707 L8.20154054,35.3146886 L18.7018304,43.878959 L18.1252843,48.0533653 C17.9231759,49.5167044 17.8210104,51.000918 17.8210104,52.5 C17.8210104,53.749235 17.8919587,54.9881447 18.032569,56.2132534 L18.1252843,56.9466347 L18.7018304,61.121041 L8.20154054,69.6857493 L14.4160655,80.3493293 L27.2052989,75.6044243 L30.4969647,78.1428538 C32.6925441,79.8360157 35.0949564,81.2476549 37.6480567,82.3405934 L38.2894386,82.6071669 L42.1838029,84.1776534 L44.4251315,97.5 L56.9748685,97.5 L59.2161971,84.1776534 L63.1105614,82.6071669 C65.6883864,81.5676034 68.1202023,80.206241 70.3498639,78.5602577 L70.9030353,78.1428538 L74.1947011,75.6044243 L86.9841144,80.349396 L93.1989507,69.6856188 L82.6981621,61.1210951 L83.2747157,56.9466347 C83.4768241,55.4832956 83.5789896,53.999082 83.5789896,52.5 C83.5789896,51.250765 83.5080413,50.0118553 83.367431,48.7867466 L83.2747157,48.0533653 L82.6981621,43.8789049 L93.1989507,35.3139834 L86.9834323,24.6508571 L74.1947011,29.3955757 L70.9030353,26.8571462 C68.7074559,25.1639843 66.3050436,23.7523451 63.7519433,22.6594066 L63.1105614,22.3928331 L59.2161971,20.8223466 L56.974,7.5 Z M50.7,30 C63.1891487,30 73.3421211,40.0576785 73.3421211,52.5 C73.3421211,64.9423215 63.1891487,75 50.7,75 C38.2108513,75 28.0578789,64.9423215 28.0578789,52.5 C28.0578789,40.0576785 38.2108513,30 50.7,30 Z M50.7,37.5 C42.3372374,37.5 35.5578789,44.2157288 35.5578789,52.5 C35.5578789,60.7842712 42.3372374,67.5 50.7,67.5 C59.0627626,67.5 65.8421211,60.7842712 65.8421211,52.5 C65.8421211,44.2157288 59.0627626,37.5 50.7,37.5 Z" id="Combined-Shape"></path>
                </g>
                <g id="Light-M" transform="translate(605.420000, 423.000000)" fill-rule="nonzero">
                    <path d="M49.7148,98.7207 C76.5215,98.7207 98.689,76.55273 98.689,49.7461 C98.689,22.8906 76.5215,0.7715 49.666,0.7715 C22.8594,0.7715 0.74023,22.8906 0.74023,49.7461 C0.74023,76.55273 22.9082,98.7207 49.7148,98.7207 Z M33.3574,72.7441 C31.5508,72.7441 30.3789,71.6699 30.3789,70.0586 C30.3789,69.4238 30.4766,68.9355 30.8184,68.0566 L45.3691,29.2383 C46.1016,27.1875 47.5664,26.1621 49.666,26.1621 C51.7656,26.1621 53.1816,27.1875 53.9629,29.2383 L68.5137,68.0566 C68.8555,68.9355 68.9531,69.4238 68.9531,70.0586 C68.9531,71.6211 67.7812,72.7441 66.0234,72.7441 C64.5586,72.7441 63.582,72.0605 62.9473,70.2539 L58.8457,58.6816 L40.4863,58.6816 L36.3359,70.2539 C35.7012,72.1094 34.7734,72.7441 33.3574,72.7441 Z M42.0977,53.7988 L57.2344,53.7988 L49.8613,33.2422 L49.4707,33.2422 L42.0977,53.7988 Z" id="Shape"></path>
                </g>
                <g id="Thin-M" transform="translate(309.806000, 424.000000)" fill-rule="nonzero">
                    <path d="M48.6406,96.5977 C74.9102,96.5977 96.492,75.01562 96.492,48.7461 C96.492,22.4277 74.9102,0.8457 48.5918,0.8457 C22.3223,0.8457 0.74023,22.4277 0.74023,48.7461 C0.74023,75.01562 22.3223,96.5977 48.6406,96.5977 Z M32.5273,70.9629 C31.3555,70.9629 30.623,70.3281 30.623,69.3027 C30.623,68.9609 30.7207,68.7168 30.916,68.1797 L46.0039,28.2383 C46.4922,26.9688 47.3223,26.4316 48.5918,26.4316 C49.8125,26.4316 50.6426,26.9688 51.1309,28.2383 L66.2188,68.1797 C66.4141,68.7168 66.5117,68.9609 66.5117,69.3516 C66.5117,70.2793 65.7305,70.9629 64.7051,70.9629 C63.6797,70.9629 63.1914,70.5723 62.752,69.4004 L58.0645,56.7539 L39.0703,56.7539 L34.3828,69.4004 C33.9434,70.6211 33.4551,70.9629 32.5273,70.9629 Z M40.2422,53.4824 L56.8926,53.4824 L48.6895,31.4121 L48.4453,31.4121 L40.2422,53.4824 Z" id="Shape"></path>
                </g>
                <g id="Ultralight-M" transform="translate(13.656000, 425.000000)" fill-rule="nonzero">
                    <path d="M48.0547,95.0605 C74.0801,95.0605 95.369,73.77148 95.369,47.7461 C95.369,21.7207 74.0801,0.4316 48.0547,0.4316 C22.0293,0.4316 0.74023,21.7207 0.74023,47.7461 C0.74023,73.77148 22.0293,95.0605 48.0547,95.0605 Z M32.0879,69.5723 C31.2578,69.5723 30.7695,69.1816 30.7695,68.4492 C30.7695,68.2051 30.8184,68.1074 30.9648,67.7168 L46.3457,27.2383 C46.6387,26.4082 47.1758,26.0176 48.0547,26.0176 C48.7871,26.0176 49.3242,26.4082 49.666,27.2383 L65.0469,67.7168 C65.1934,68.1074 65.2422,68.2051 65.2422,68.498 C65.2422,69.084 64.7051,69.5723 64.0215,69.5723 C63.2402,69.5723 62.9473,69.2793 62.6543,68.498 L57.625,55.2168 L38.3379,55.2168 L33.3574,68.498 C33.0645,69.3281 32.7715,69.5723 32.0879,69.5723 Z M39.2656,52.8242 L56.7461,52.8242 L48.1035,30.0215 L47.9082,30.0215 L39.2656,52.8242 Z" id="Shape"></path>
                </g>
                <g id="Black-S" transform="translate(2392.570000, 0.000000)" fill-rule="nonzero">
                    <path d="M42.8281,84.78711 C65.9727,84.78711 84.8203,65.9395 84.8203,42.7949 C84.8203,19.6504 65.9727,0.8027 42.8281,0.8027 C19.6836,0.8027 0.83594,19.6504 0.83594,42.7949 C0.83594,65.9395 19.6836,84.78711 42.8281,84.78711 Z M32.1836,60.9102 C28.1309,60.9102 25.8848,58.6641 25.8848,54.8066 C25.8848,53.8789 26.1289,52.4629 26.7148,50.5098 L32.1348,33.4199 C33.9902,27.4629 37.3105,24.7773 42.6816,24.7773 C48.1992,24.7773 51.7148,27.5117 53.5215,33.4199 L58.9414,50.5098 C59.5273,52.4629 59.7715,53.8789 59.7715,54.8066 C59.7715,58.6641 57.5254,60.9102 53.4727,60.9102 C50.0547,60.9102 47.9551,58.957 47.1738,55.002 L46.9785,53.9277 L38.6777,53.9277 L38.4824,55.002 C37.7012,58.957 35.6016,60.9102 32.1836,60.9102 Z M40.4355,45.2363 L45.2207,45.2363 L43.0234,35.0312 L42.6328,35.0312 L40.4355,45.2363 Z" id="Shape"></path>
                </g>
                <g id="Heavy-S" transform="translate(2096.470000, 1.000000)" fill-rule="nonzero">
                    <path d="M42.2422,83.15234 C64.9961,83.15234 83.5996,64.5488 83.5996,41.7949 C83.5996,19.041 64.9961,0.3887 42.1934,0.3887 C19.4395,0.3887 0.83594,19.041 0.83594,41.7949 C0.83594,64.5488 19.4395,83.15234 42.2422,83.15234 Z M31.0117,60.0566 C27.3984,60.0566 25.3965,58.0547 25.3965,54.6367 C25.3965,53.7578 25.5918,52.5371 26.1289,50.8281 L32.8184,30.8086 C34.4785,25.7305 37.4082,23.3867 42.0957,23.3867 C46.8809,23.3867 50.0059,25.7793 51.5684,30.8086 L58.2578,50.8281 C58.7949,52.5371 59.0391,53.7578 59.0391,54.6367 C59.0391,58.0547 56.9883,60.0566 53.4238,60.0566 C50.4453,60.0566 48.541,58.3965 47.8086,54.8809 L47.0273,52.1465 L37.4082,52.1465 L36.627,54.8809 C35.8457,58.3965 33.9902,60.0566 31.0117,60.0566 Z M39.166,44.2363 L45.2695,44.2363 L42.3887,33.0059 L41.998,33.0059 L39.166,44.2363 Z" id="Shape"></path>
                </g>
                <g id="Bold-S" transform="translate(1800.440000, 2.000000)" fill-rule="nonzero">
                    <path d="M41.5586,81.46875 C63.873,81.46875 82.2324,63.1094 82.2324,40.7461 C82.2324,18.4316 63.873,0.0723 41.5098,0.0723 C19.1953,0.0723 0.83594,18.4316 0.83594,40.7461 C0.83594,63.1094 19.1953,81.46875 41.5586,81.46875 Z M29.6445,59.2031 C26.6172,59.2031 24.8594,57.4453 24.8594,54.6133 C24.8594,53.7832 25.0059,52.7578 25.4941,51.293 L33.6484,28.0508 C35.0156,23.9004 37.5059,21.9473 41.4121,21.9473 C45.416,21.9473 48.0527,23.9004 49.3711,28.0508 L57.5254,51.293 C58.0137,52.7578 58.1602,53.7832 58.1602,54.6133 C58.1602,57.4453 56.4023,59.2031 53.375,59.2031 C50.8359,59.2031 49.2246,57.8359 48.4922,54.8086 L47.0273,50.3164 L35.9922,50.3164 L34.5762,54.8086 C33.7949,57.8359 32.1836,59.2031 29.6445,59.2031 Z M37.75,43.2852 L45.3184,43.2852 L41.7539,30.834 L41.3145,30.834 L37.75,43.2852 Z" id="Shape"></path>
                </g>
                <g id="Semibold-S" transform="translate(1506.200000, 1.000000)">
                    <path d="M44.3800937,0 C47.31439,-1.4271999e-15 49.8182185,2.12225662 50.2990047,5.01689636 L51.5176672,12.3500211 C54.2449917,13.4641972 56.7840182,14.9462618 59.073546,16.7348037 L65.9952037,14.1330194 C68.746211,13.0988525 71.8413897,14.2096084 73.3070918,16.7570109 L78.204545,25.2688259 C79.6637004,27.8048503 79.0809055,31.0235414 76.8251675,32.8869256 L71.0943447,37.6221169 C71.2894897,39.053439 71.3903088,40.5149052 71.3903088,42 C71.3903088,43.4854406 71.2894427,44.9472417 71.0942083,46.3788831 L76.8251675,51.1130744 C79.0809055,52.9764586 79.6637004,56.1951497 78.204545,58.7311741 L73.3070918,67.2429891 C71.8413897,69.7903916 68.746211,70.9011475 65.9952037,69.8669806 L59.073546,67.2651963 C56.7840182,69.0537382 54.2449917,70.5358028 51.5176672,71.6499789 L50.2990047,78.9831036 C49.8182185,81.8777434 47.31439,84 44.3800937,84 L34.6199063,84 C31.68561,84 29.1817815,81.8777434 28.7009953,78.9831036 L27.4823328,71.6499789 C24.7550083,70.5358028 22.2159818,69.0537382 19.926454,67.2651963 L13.0047963,69.8669806 C10.253789,70.9011475 7.15861025,69.7903916 5.6929082,67.2429891 L0.795455007,58.7311741 C-0.663700393,56.1951497 -0.0809054586,52.9764586 2.17483245,51.1130744 L7.90579169,46.3788831 C7.7105573,44.9472417 7.60969122,43.4854406 7.60969122,42 C7.60969122,40.5145594 7.7105573,39.0527583 7.90579169,37.6211169 L2.17483245,32.8869256 C-0.0809054586,31.0235414 -0.663700393,27.8048503 0.795455007,25.2688259 L5.6929082,16.7570109 C7.15861025,14.2096084 10.253789,13.0988525 13.0047963,14.1330194 L19.926454,16.7348037 C22.2159818,14.9462618 24.7550083,13.4641972 27.4823328,12.3500211 L28.7009953,5.01689636 C29.1817815,2.12225662 31.68561,-1.23733536e-15 34.6199063,0 L44.3800937,0 Z M39.5,30 C32.8953008,30 27.5411342,35.372583 27.5411342,42 C27.5411342,48.627417 32.8953008,54 39.5,54 C46.1046992,54 51.4588658,48.627417 51.4588658,42 C51.4588658,35.372583 46.1046992,30 39.5,30 Z" id="Combined-Shape-Copy-2" fill-opacity="0.2"></path>
                    <path d="M44.3843643,0 C47.3186605,0 49.822489,2.12225662 50.3032752,5.01689636 L51.5219378,12.3500211 C54.2492622,13.4641972 56.7882887,14.9462618 59.0778166,16.7348037 L65.9994743,14.1330194 C68.7504815,13.0988525 71.8456603,14.2096084 73.3113624,16.7570109 L78.2088155,25.2688259 C79.6679709,27.8048503 79.085176,31.0235414 76.8294381,32.8869256 L71.0986152,37.6221169 C71.2937602,39.053439 71.3945793,40.5149052 71.3945793,42 C71.3945793,43.4854406 71.2937133,44.9472417 71.0984789,46.3788831 L76.8294381,51.1130744 C79.085176,52.9764586 79.6679709,56.1951497 78.2088155,58.7311741 L73.3113624,67.2429891 C71.8456603,69.7903916 68.7504815,70.9011475 65.9994743,69.8669806 L59.0778166,67.2651963 C56.7882887,69.0537382 54.2492622,70.5358028 51.5219378,71.6499789 L50.3032752,78.9831036 C49.822489,81.8777434 47.3186605,84 44.3843643,84 L34.6241768,84 C31.6898806,84 29.1860521,81.8777434 28.7052659,78.9831036 L27.4866033,71.6499789 C24.7592789,70.5358028 22.2202524,69.0537382 19.9307245,67.2651963 L13.0090668,69.8669806 C10.2580596,70.9011475 7.16288081,69.7903916 5.69717875,67.2429891 L0.799725561,58.7311741 C-0.659429839,56.1951497 -0.0766349047,52.9764586 2.17910301,51.1130744 L7.91006225,46.3788831 C7.71482785,44.9472417 7.61396177,43.4854406 7.61396177,42 C7.61396177,40.5145594 7.71482785,39.0527583 7.91006225,37.6211169 L2.17910301,32.8869256 C-0.0766349047,31.0235414 -0.659429839,27.8048503 0.799725561,25.2688259 L5.69717875,16.7570109 C7.16288081,14.2096084 10.2580596,13.0988525 13.0090668,14.1330194 L19.9307245,16.7348037 C22.2202524,14.9462618 24.7592789,13.4641972 27.4866033,12.3500211 L28.7052659,5.01689636 C29.1860521,2.12225662 31.6898806,0 34.6241768,0 L44.3843643,0 Z M44.3843643,6 L34.6240901,6 L32.8563363,16.6377241 L29.7557003,17.9044067 C27.7424835,18.726853 25.8416379,19.8026013 24.0964599,21.1029225 L23.6243943,21.4631019 L20.9711527,23.5357711 L10.8977822,19.7492883 L6.00032897,28.2611033 L14.3063388,35.1224747 L13.8550374,38.4318393 C13.6949099,39.606044 13.6139618,40.797057 13.6139618,42 C13.6139618,42.9623544 13.6657686,43.9170736 13.7684766,44.8616599 L13.8550374,45.5681607 L14.3063388,48.8775253 L6.00032897,55.7388967 L10.8977822,64.2507117 L20.9711527,60.4642289 L23.6243943,62.5368981 C25.3409113,63.8778133 27.217032,64.9967674 29.2094598,65.8650312 L29.7557003,66.0955933 L32.8563363,67.3622759 L34.6241768,78 L44.384451,78 L46.1522048,67.3622759 L49.2528408,66.0955933 C51.2660576,65.273147 53.1669032,64.1973987 54.9120812,62.8970775 L55.3841468,62.5368981 L58.0373884,60.4642289 L68.1107589,64.2507117 L73.0082121,55.7388967 L64.7022023,48.8775253 L65.1535037,45.5681607 C65.3136312,44.393956 65.3945793,43.202943 65.3945793,42 C65.3945793,41.0378679 65.3427965,40.0833673 65.2401357,39.1389942 L65.1536146,38.4326523 L64.7024952,35.1238452 L73.0082121,28.2611033 L68.1107589,19.7492883 L58.0373884,23.5357711 L55.3841468,21.4631019 C53.6676298,20.1221867 51.7915091,19.0032326 49.7990814,18.1349688 L49.2528408,17.9044067 L46.1522048,16.6377241 L44.3843643,6 Z M39.5042706,24 C49.427299,24 57.4631363,32.0634777 57.4631363,42 C57.4631363,51.9365223 49.427299,60 39.5042706,60 C29.5812421,60 21.5454048,51.9365223 21.5454048,42 C21.5454048,32.0634777 29.5812421,24 39.5042706,24 Z M39.5042706,30 C32.8995714,30 27.5454048,35.372583 27.5454048,42 C27.5454048,48.627417 32.8995714,54 39.5042706,54 C46.1089698,54 51.4631363,48.627417 51.4631363,42 C51.4631363,35.372583 46.1089698,30 39.5042706,30 Z" id="Combined-Shape" fill-rule="nonzero"></path>
                </g>
                <g id="Medium-S" transform="translate(1208.830000, 1.000000)" fill-opacity="0.2" stroke="#000000" stroke-width="6">
                    <path d="M44.5500937,3 C45.2836678,3 45.9634334,3.26528208 46.4898546,3.71147914 C46.9636337,4.11305649 47.3132038,4.66117499 47.466035,5.29452126 L47.5095926,5.50870916 L49.0119257,14.5487805 C52.4035006,15.711404 55.5104573,17.4900211 58.2011608,19.7507814 L58.6716431,20.1547168 L67.2208461,16.9411538 C67.9085979,16.6826121 68.6393711,16.6921857 69.2898128,16.9256075 C69.8752103,17.135687 70.3955392,17.5270835 70.7608753,18.0675261 L70.8767901,18.2531496 L75.7742433,26.7649646 C76.1390321,27.3989707 76.2485772,28.1183101 76.1259414,28.7956096 C76.0155692,29.4051791 75.7171306,29.9806961 75.2472348,30.4294738 L75.0842754,30.5742451 L68.0241807,36.4077702 C68.3761761,38.2173628 68.5603088,40.0870896 68.5603088,42 C68.5603088,43.6741608 68.4192708,45.3152446 68.1481017,46.9118887 L68.023951,47.5934108 L75.0845546,53.4259855 C75.648489,53.8918316 76.0033056,54.527091 76.1259414,55.2043904 C76.2363136,55.8139599 76.1586193,56.4575818 75.8760457,57.0424009 L75.7742433,57.2350354 L70.8767901,65.7468504 C70.5103646,66.383701 69.9402545,66.8409708 69.2898128,67.0743925 C68.7044153,67.2844721 68.0539492,67.3132347 67.4282803,67.1283875 L67.2207657,67.058816 L58.6716431,63.8452832 C56.030366,66.1623031 52.9650926,68.0050533 49.6074576,69.2396835 L49.0119257,69.4512195 L47.5095492,78.4915518 C47.3893526,79.2152118 47.0162758,79.8423238 46.4898546,80.2885209 C46.0160755,80.6900982 45.4180875,80.9451344 44.7684521,80.9921259 L44.5500937,81 L34.7899063,81 C34.0563322,81 33.3765666,80.7347179 32.8501454,80.2885209 C32.3763663,79.8869435 32.0267962,79.338825 31.873965,78.7054787 L31.8304074,78.4912908 L30.3280743,69.4512195 C26.9364994,68.288596 23.8295427,66.5099789 21.1388392,64.2492186 L20.6683569,63.8452832 L12.1191539,67.0588462 C11.4314021,67.3173879 10.7006289,67.3078143 10.0501872,67.0743925 C9.46478969,66.864313 8.94446075,66.4729165 8.57912474,65.9324739 L8.46320991,65.7468504 L3.56575671,57.2350354 C3.20096786,56.6010293 3.0914228,55.8816899 3.21405858,55.2043904 C3.32443077,54.5948209 3.62286945,54.0193039 4.09257067,53.570687 L4.25545776,53.4259754 L11.316049,47.5934108 C10.963904,45.7834507 10.7796912,43.9133266 10.7796912,42 C10.7796912,40.3258392 10.9207292,38.6847554 11.1918983,37.0881113 L11.316049,36.4065892 L4.25544544,30.5740145 C3.69151096,30.1081684 3.33669435,29.472909 3.21405858,28.7956096 C3.10368638,28.1860401 3.18138066,27.5424182 3.46395431,26.9575991 L3.56575671,26.7649646 L8.46320991,18.2531496 C8.82963542,17.616299 9.39974552,17.1590292 10.0501872,16.9256075 C10.6355847,16.7155279 11.2860508,16.6867653 11.9117197,16.8716125 L12.1192343,16.941184 L20.6683569,20.1547168 C23.309634,17.8376969 26.3749074,15.9949467 29.7325424,14.7603165 L30.3280743,14.5487805 L31.8304508,5.50844818 C31.9506474,4.78478825 32.3237242,4.1576762 32.8501454,3.71147914 C33.3239245,3.30990178 33.9219125,3.05486557 34.5715479,3.0078741 L34.7899063,3 L44.5500937,3 Z M39.67,27 C35.5380482,27 31.7967992,28.6797755 29.0888457,31.3970434 C26.384614,34.1105766 24.7111342,37.8590458 24.7111342,42 C24.7111342,46.1409542 26.384614,49.8894234 29.0888457,52.6029566 C31.7967992,55.3202245 35.5380482,57 39.67,57 C43.8019518,57 47.5432008,55.3202245 50.2511543,52.6029566 C52.955386,49.8894234 54.6288658,46.1409542 54.6288658,42 C54.6288658,37.8590458 52.955386,34.1105766 50.2511543,31.3970434 C47.5432008,28.6797755 43.8019518,27 39.67,27 Z" id="Combined-Shape-Copy-2"></path>
                </g>
                <g id="Regular-S" transform="translate(911.580000, 1.000000)" fill-rule="nonzero">
                    <path d="M45.3000937,0 C48.23439,0 50.7382185,2.12225662 51.2190047,5.01689636 L52.4376672,12.3500211 C55.1649917,13.4641972 57.7040182,14.9462618 59.993546,16.7348037 L66.9152037,14.1330194 C69.666211,13.0988525 72.7613897,14.2096084 74.2270918,16.7570109 L79.124545,25.2688259 C80.5837004,27.8048503 80.0009055,31.0235414 77.7451675,32.8869256 L72.0143447,37.6221169 C72.2094897,39.053439 72.3103088,40.5149052 72.3103088,42 C72.3103088,43.4854406 72.2094427,44.9472417 72.0142083,46.3788831 L77.7451675,51.1130744 C80.0009055,52.9764586 80.5837004,56.1951497 79.124545,58.7311741 L74.2270918,67.2429891 C72.7613897,69.7903916 69.666211,70.9011475 66.9152037,69.8669806 L59.993546,67.2651963 C57.7040182,69.0537382 55.1649917,70.5358028 52.4376672,71.6499789 L51.2190047,78.9831036 C50.7382185,81.8777434 48.23439,84 45.3000937,84 L35.5399063,84 C32.60561,84 30.1017815,81.8777434 29.6209953,78.9831036 L28.4023328,71.6499789 C25.6750083,70.5358028 23.1359818,69.0537382 20.846454,67.2651963 L13.9247963,69.8669806 C11.173789,70.9011475 8.07861025,69.7903916 6.6129082,67.2429891 L1.71545501,58.7311741 C0.256299607,56.1951497 0.839094541,52.9764586 3.09483245,51.1130744 L8.82579169,46.3788831 C8.6305573,44.9472417 8.52969122,43.4854406 8.52969122,42 C8.52969122,40.5145594 8.6305573,39.0527583 8.82579169,37.6211169 L3.09483245,32.8869256 C0.839094541,31.0235414 0.256299607,27.8048503 1.71545501,25.2688259 L6.6129082,16.7570109 C8.07861025,14.2096084 11.173789,13.0988525 13.9247963,14.1330194 L20.846454,16.7348037 C23.1359818,14.9462618 25.6750083,13.4641972 28.4023328,12.3500211 L29.6209953,5.01689636 C30.1017815,2.12225662 32.60561,0 35.5399063,0 L45.3000937,0 Z M45.3000937,6 L35.5398196,6 L33.7720657,16.6377241 L30.6714297,17.9044067 C28.658213,18.726853 26.7573674,19.8026013 25.0121893,21.1029225 L24.5401237,21.4631019 L21.8868821,23.5357711 L11.8135116,19.7492883 L6.91605842,28.2611033 L15.2220683,35.1224747 L14.7707668,38.4318393 C14.6106393,39.606044 14.5296912,40.797057 14.5296912,42 C14.5296912,42.9623544 14.581498,43.9170736 14.684206,44.8616599 L14.7707668,45.5681607 L15.2220683,48.8775253 L6.91605842,55.7388967 L11.8135116,64.2507117 L21.8868821,60.4642289 L24.5401237,62.5368981 C26.2566407,63.8778133 28.1327614,64.9967674 30.1251892,65.8650312 L30.6714297,66.0955933 L33.7720657,67.3622759 L35.5399063,78 L45.3001804,78 L47.0679343,67.3622759 L50.1685703,66.0955933 C52.181787,65.273147 54.0826326,64.1973987 55.8278107,62.8970775 L56.2998763,62.5368981 L58.9531179,60.4642289 L69.0264884,64.2507117 L73.9239416,55.7388967 L65.6179317,48.8775253 L66.0692332,45.5681607 C66.2293607,44.393956 66.3103088,43.202943 66.3103088,42 C66.3103088,41.0378679 66.2585259,40.0833673 66.1558651,39.1389942 L66.069344,38.4326523 L65.6182246,35.1238452 L73.9239416,28.2611033 L69.0264884,19.7492883 L58.9531179,23.5357711 L56.2998763,21.4631019 C54.5833593,20.1221867 52.7072386,19.0032326 50.7148108,18.1349688 L50.1685703,17.9044067 L47.0679343,16.6377241 L45.3000937,6 Z M40.42,24 C50.3430285,24 58.3788658,32.0634777 58.3788658,42 C58.3788658,51.9365223 50.3430285,60 40.42,60 C30.4969715,60 22.4611342,51.9365223 22.4611342,42 C22.4611342,32.0634777 30.4969715,24 40.42,24 Z M40.42,30 C33.8153008,30 28.4611342,35.372583 28.4611342,42 C28.4611342,48.627417 33.8153008,54 40.42,54 C47.0246992,54 52.3788658,48.627417 52.3788658,42 C52.3788658,35.372583 47.0246992,30 40.42,30 Z" id="Combined-Shape"></path>
                </g>
                <g id="Light-S" transform="translate(615.600000, 4.000000)" fill-rule="nonzero">
                    <path d="M39.5078,77.41797 C60.6992,77.41797 78.2285,59.9375 78.2285,38.7461 C78.2285,17.5547 60.6504,0.0742 39.5078,0.0742 C18.3164,0.0742 0.83594,17.5547 0.83594,38.7461 C0.83594,59.9375 18.3652,77.41797 39.5078,77.41797 Z M26.6172,57.0078 C25.0059,57.0078 23.9805,56.0312 23.9805,54.5664 C23.9805,54.0293 24.0781,53.541 24.3711,52.8086 L35.6016,22.6816 C36.2852,20.875 37.5547,19.9473 39.459,19.9473 C41.3633,19.9473 42.6816,20.875 43.3652,22.6816 L54.5957,52.8086 C54.8887,53.541 54.9863,54.0293 54.9863,54.6152 C54.9863,55.9824 53.9121,57.0078 52.3984,57.0078 C51.0801,57.0078 50.2012,56.4219 49.6641,54.7617 L46.5879,46.0215 L32.3789,46.0215 L29.3027,54.7617 C28.7656,56.4219 27.8867,57.0078 26.6172,57.0078 Z M33.7949,41.7734 L45.1719,41.7734 L39.6543,26.0996 L39.3125,26.0996 L33.7949,41.7734 Z" id="Shape"></path>
                </g>
                <g id="Thin-S" transform="translate(319.867000, 5.000000)" fill-rule="nonzero">
                    <path d="M38.5801,75.49023 C59.2832,75.49023 76.2754,58.4492 76.2754,37.7461 C76.2754,17.043 59.2344,0.002 38.5312,0.002 C17.8281,0.002 0.83594,17.043 0.83594,37.7461 C0.83594,58.4492 17.877,75.49023 38.5801,75.49023 Z M25.8848,55.3242 C24.8594,55.3242 24.2246,54.7383 24.2246,53.8105 C24.2246,53.4688 24.2734,53.2246 24.4688,52.7363 L36.1875,21.6816 C36.627,20.5586 37.4082,20.0215 38.5312,20.0215 C39.6543,20.0215 40.4355,20.5586 40.875,21.6816 L52.5938,52.7363 C52.7891,53.2246 52.8379,53.4688 52.8379,53.8594 C52.8379,54.6895 52.1543,55.3242 51.2266,55.3242 C50.3477,55.3242 49.8594,54.9336 49.4688,53.9082 L45.9043,44.1914 L31.1582,44.1914 L27.5938,53.9082 C27.2031,54.9824 26.7148,55.3242 25.8848,55.3242 Z M32.1348,41.3105 L44.9277,41.3105 L38.6289,24.3672 L38.4336,24.3672 L32.1348,41.3105 Z" id="Shape"></path>
                </g>
                <g id="Ultralight-S" transform="translate(23.644000, 5.000000)" fill-rule="nonzero">
                    <path d="M38.043,74.95312 C58.502,74.95312 75.2988,58.2051 75.2988,37.7461 C75.2988,17.2871 58.502,0.5391 38.043,0.5391 C17.584,0.5391 0.83594,17.2871 0.83594,37.7461 C0.83594,58.2051 17.584,74.95312 38.043,74.95312 Z M25.543,54.9824 C24.8105,54.9824 24.3711,54.5918 24.3711,53.9082 C24.3711,53.7129 24.4199,53.5664 24.5176,53.2734 L36.5293,21.6816 C36.7734,20.9004 37.3105,20.5586 38.0918,20.5586 C38.7754,20.5586 39.3125,20.9004 39.5566,21.6816 L51.5684,53.2734 C51.666,53.5664 51.7148,53.7129 51.7148,53.957 C51.7148,54.543 51.2754,54.9824 50.6406,54.9824 C49.957,54.9824 49.6641,54.6895 49.4199,54.0059 L45.5625,43.752 L30.5234,43.752 L26.666,54.0059 C26.4219,54.7383 26.1289,54.9824 25.543,54.9824 Z M31.3047,41.6523 L44.7812,41.6523 L38.1406,23.9766 L37.9453,23.9766 L31.3047,41.6523 Z" id="Shape"></path>
                </g>
            </g>
        </g>
    </g>
</svg>