<?xml version="1.0" encoding="UTF-8"?>
<svg width="3300px" height="2200px" viewBox="0 0 3300 2200" version="1.1" xmlns="http://www.w3.org/2000/svg" xmlns:xlink="http://www.w3.org/1999/xlink">
    <title>syncs_disabled</title>
    <g id="Syncs-Disabled" stroke="none" stroke-width="1" fill="none" fill-rule="evenodd">
        <g id="syncs_disabled">
            <g id="Notes">
                <rect id="artboard" fill="#FFFFFF" fill-rule="nonzero" x="0" y="0" width="3300" height="2200"></rect>
                <line x1="263" y1="292" x2="3036" y2="292" id="Path" stroke="#000000" stroke-width="0.5"></line>
                <text id="Weight/Scale-Variations" fill="#000000" fill-rule="nonzero" font-family="Helvetica-Bold, Helvetica" font-size="13" font-weight="bold">
                    <tspan x="263" y="322">Weight/Scale Variations</tspan>
                </text>
                <text id="Ultralight" fill="#000000" fill-rule="nonzero" font-family="Helvetica" font-size="13" font-weight="normal">
                    <tspan x="533.711" y="322">Ultralight</tspan>
                </text>
                <text id="Thin" fill="#000000" fill-rule="nonzero" font-family="Helvetica" font-size="13" font-weight="normal">
                    <tspan x="843.422" y="322">Thin</tspan>
                </text>
                <text id="Light" fill="#000000" fill-rule="nonzero" font-family="Helvetica" font-size="13" font-weight="normal">
                    <tspan x="1138.63" y="322">Light</tspan>
                </text>
                <text id="Regular" fill="#000000" fill-rule="nonzero" font-family="Helvetica" font-size="13" font-weight="normal">
                    <tspan x="1426.84" y="322">Regular</tspan>
                </text>
                <text id="Medium" fill="#000000" fill-rule="nonzero" font-family="Helvetica" font-size="13" font-weight="normal">
                    <tspan x="1723.06" y="322">Medium</tspan>
                </text>
                <text id="Semibold" fill="#000000" fill-rule="nonzero" font-family="Helvetica" font-size="13" font-weight="normal">
                    <tspan x="2015.77" y="322">Semibold</tspan>
                </text>
                <text id="Bold" fill="#000000" fill-rule="nonzero" font-family="Helvetica" font-size="13" font-weight="normal">
                    <tspan x="2326.48" y="322">Bold</tspan>
                </text>
                <text id="Heavy" fill="#000000" fill-rule="nonzero" font-family="Helvetica" font-size="13" font-weight="normal">
                    <tspan x="2618.19" y="322">Heavy</tspan>
                </text>
                <text id="Black" fill="#000000" fill-rule="nonzero" font-family="Helvetica" font-size="13" font-weight="normal">
                    <tspan x="2917.4" y="322">Black</tspan>
                </text>
                <line x1="263" y1="1903" x2="3036" y2="1903" id="Path" stroke="#000000" stroke-width="0.5"></line>
                <g id="Group" transform="translate(264.367190, 1918.068400)" fill="#000000" fill-rule="nonzero">
                    <path d="M7.88086,15.761678 C12.18751,15.761678 15.77151,12.18746 15.77151,7.88082 C15.77151,3.5742 12.17771,0 7.87109,0 C3.57422,0 -8.8817842e-16,3.5742 -8.8817842e-16,7.88082 C-8.8817842e-16,12.18746 3.58398,15.761678 7.88086,15.761678 Z M7.88086,14.277303 C4.33593,14.277303 1.5039,11.43551 1.5039,7.88082 C1.5039,4.3261 4.32617,1.4843 7.87109,1.4843 C11.42581,1.4843 14.26761,4.3261 14.2773352,7.88082 C14.28711,11.43551 11.43551,14.277303 7.88086,14.277303 Z M5.02929,8.61324 L7.13867,8.61324 L7.13867,10.73238 C7.13867,11.17183 7.43164,11.47457 7.86133,11.47457 C8.31054,11.47457 8.60351,11.17183 8.60351,10.73238 L8.60351,8.61324 L10.73241,8.61324 C11.17191,8.61324 11.47461,8.32027 11.47461,7.89058 C11.47461,7.45113 11.17191,7.1484 10.73241,7.1484 L8.60351,7.1484 L8.60351,5.03902 C8.60351,4.5898 8.31054,4.2871 7.86133,4.2871 C7.43164,4.2871 7.13867,4.5898 7.13867,5.03902 L7.13867,7.1484 L5.02929,7.1484 C4.58008,7.1484 4.27734,7.45113 4.27734,7.89058 C4.27734,8.32027 4.58008,8.61324 5.02929,8.61324 Z" id="Shape"></path>
                </g>
                <g id="Group" transform="translate(283.254050, 1915.988300)" fill="#000000" fill-rule="nonzero">
                    <path d="M9.96095,19.92186 C15.41015,19.92186 19.92185,15.40037 19.92185,9.96092 C19.92185,4.5117 15.40035,0 9.95115,0 C4.51172,0 8.8817842e-16,4.5117 8.8817842e-16,9.96092 C8.8817842e-16,15.40037 4.52148,19.92186 9.96095,19.92186 Z M9.96095,18.2617 C5.35156,18.2617 1.66992,14.57029 1.66992,9.96092 C1.66992,5.3515 5.34179,1.6601 9.95115,1.6601 C14.56055,1.6601 18.25195,5.3515 18.261769,9.96092 C18.27145,14.57029 14.57035,18.2617 9.96095,18.2617 Z M6.24023,10.78123 L9.13085,10.78123 L9.13085,13.69139 C9.13085,14.17967 9.46285,14.5117 9.94145,14.5117 C10.42965,14.5117 10.77145,14.17967 10.77145,13.69139 L10.77145,10.78123 L13.68165,10.78123 C14.16995,10.78123 14.50195,10.4492 14.50195,9.97068 C14.50195,9.4824 14.16995,9.14061 13.68165,9.14061 L10.77145,9.14061 L10.77145,6.25 C10.77145,5.7422 10.42965,5.4101 9.94145,5.4101 C9.46285,5.4101 9.13085,5.7519 9.13085,6.25 L9.13085,9.14061 L6.24023,9.14061 C5.73242,9.14061 5.40039,9.4824 5.40039,9.97068 C5.40039,10.4492 5.74218,10.78123 6.24023,10.78123 Z" id="Shape"></path>
                </g>
                <g id="Group" transform="translate(307.179860, 1913.224600)" fill="#000000" fill-rule="nonzero">
                    <path d="M12.71484,25.43946 C19.67774,25.43946 25.43944,19.6777438 25.43944,12.72462 C25.43944,5.7617 19.66794,0 12.70504,0 C5.75195,0 0,5.7617 0,12.72462 C0,19.6777438 5.76172,25.43946 12.71484,25.43946 Z M12.71484,23.62306 C6.67969,23.62306 1.82617,18.75978 1.82617,12.72462 C1.82617,6.6797 6.66992,1.8262 12.70504,1.8262 C18.75004,1.8262 23.60354,6.6797 23.6132548,12.72462 C23.62304,18.75978 18.75974,23.62306 12.71484,23.62306 Z M7.80274,13.63282 L11.80664,13.63282 L11.80664,17.64649 C11.80664,18.1836 12.17774,18.5547 12.69534,18.5547 C13.23244,18.5547 13.60354,18.1836 13.60354,17.64649 L13.60354,13.63282 L17.62694,13.63282 C18.15434,13.63282 18.53514,13.26173 18.53514,12.74415 C18.53514,12.20704 18.16404,11.82618 17.62694,11.82618 L13.60354,11.82618 L13.60354,7.8223 C13.60354,7.2656 13.23244,6.8945 12.69534,6.8945 C12.17774,6.8945 11.80664,7.2754 11.80664,7.8223 L11.80664,11.82618 L7.80274,11.82618 C7.24609,11.82618 6.875,12.20704 6.875,12.74415 C6.875,13.26173 7.25586,13.63282 7.80274,13.63282 Z" id="Shape"></path>
                </g>
                <text id="Design-Variations" fill="#000000" fill-rule="nonzero" font-family="Helvetica-Bold, Helvetica" font-size="13" font-weight="bold">
                    <tspan x="263" y="1953">Design Variations</tspan>
                </text>
                <text id="Symbols-are-supported-in-up-to-nine-weights-and-three-scales." fill="#000000" fill-rule="nonzero" font-family="Helvetica" font-size="13" font-weight="normal">
                    <tspan x="263" y="1971">Symbols are supported in up to nine weights and three scales.</tspan>
                </text>
                <text id="For-optimal-layout-with-text-and-other-symbols,-vertically-align" fill="#000000" fill-rule="nonzero" font-family="Helvetica" font-size="13" font-weight="normal">
                    <tspan x="263" y="1989">For optimal layout with text and other symbols, vertically align</tspan>
                </text>
                <text id="symbols-with-the-adjacent-text." fill="#000000" fill-rule="nonzero" font-family="Helvetica" font-size="13" font-weight="normal">
                    <tspan x="263" y="2007">symbols with the adjacent text.</tspan>
                </text>
                <line x1="776" y1="1919" x2="776" y2="1933" id="Path" stroke="#00AEEF" stroke-width="0.5"></line>
                <g id="Group" transform="translate(778.490230, 1918.712900)" fill="#000000" fill-rule="nonzero">
                    <path d="M0.82032,14.414053 C1.33789,14.414053 1.5918,14.2187406 1.77735,13.681631 L3.03711,10.2246 L8.79887,10.2246 L10.05857,13.681631 C10.24417,14.2187406 10.49807,14.414053 11.00587,14.414053 C11.52347,14.414053 11.85547,14.101553 11.85547,13.613272 C11.85547,13.447256 11.82617,13.300772 11.74807,13.08593 L7.16797,0.8984 C6.94336,0.293 6.54297,0 5.91797,0 C5.3125,0 4.90235,0.293 4.6875,0.8887 L0.10743,13.09569 C0.0293,13.310538 -4.4408921e-16,13.457022 -4.4408921e-16,13.623038 C-4.4408921e-16,14.111319 0.3125,14.414053 0.82032,14.414053 Z M3.51563,8.74999 L5.88868,2.1777 L5.9375,2.1777 L8.31057,8.74999 L3.51563,8.74999 Z" id="Shape"></path>
                </g>
                <line x1="792.836" y1="1919" x2="792.836" y2="1933" id="Path" stroke="#00AEEF" stroke-width="0.5"></line>
                <text id="Margins" fill="#000000" fill-rule="nonzero" font-family="Helvetica-Bold, Helvetica" font-size="13" font-weight="bold">
                    <tspan x="776" y="1953">Margins</tspan>
                </text>
                <text id="Leading-and-trailing-margins-on-the-left-and-right-side-of-each-symbol" fill="#000000" fill-rule="nonzero" font-family="Helvetica" font-size="13" font-weight="normal">
                    <tspan x="776" y="1971">Leading and trailing margins on the left and right side of each symbol</tspan>
                </text>
                <text id="can-be-adjusted-by-modifying-the-x-location-of-the-margin-guidelines." fill="#000000" fill-rule="nonzero" font-family="Helvetica" font-size="13" font-weight="normal">
                    <tspan x="776" y="1989">can be adjusted by modifying the x-location of the margin guidelines.</tspan>
                </text>
                <text id="Modifications-are-automatically-applied-proportionally-to-all" fill="#000000" fill-rule="nonzero" font-family="Helvetica" font-size="13" font-weight="normal">
                    <tspan x="776" y="2007">Modifications are automatically applied proportionally to all</tspan>
                </text>
                <text id="scales-and-weights." fill="#000000" fill-rule="nonzero" font-family="Helvetica" font-size="13" font-weight="normal">
                    <tspan x="776" y="2025">scales and weights.</tspan>
                </text>
                <g id="Group" transform="translate(1291.248126, 1914.517396)" fill="#000000" fill-rule="nonzero">
                    <path d="M0.593673634,20.347834 L2.29289363,22.056824 C3.15226363,22.925964 4.13859363,22.867374 5.06632363,21.841984 L15.2420736,10.631044 C15.5057736,10.718934 15.7791736,10.699404 16.0916736,10.640804 L17.1561736,10.445494 L17.8202736,11.119324 L17.7811736,11.675964 C17.7420736,12.174014 17.8690736,12.554874 18.3573736,13.033384 L19.1190736,13.775574 C19.5975736,14.254084 20.2127736,14.283384 20.6815736,13.814634 L23.5916736,10.894714 C24.0604736,10.425964 24.0409736,9.83026404 23.5623736,9.35174404 L22.7909736,8.59002404 C22.3123736,8.11150404 21.9413736,7.95530404 21.4627736,7.99430404 L20.8866736,8.04310404 L20.2420736,7.40840404 L20.4862736,6.28530404 C20.6131736,5.71890404 20.4569736,5.27950404 19.8709736,4.69350404 L17.6737736,2.50600404 C14.3338736,-0.814295964 9.90027363,-0.736195964 7.00968363,2.15450404 C6.58976363,2.56460404 6.56046363,3.14080404 6.79484363,3.53140404 C7.02921363,3.89280404 7.48820363,4.12710404 8.13277363,3.96110404 C9.59757363,3.61930404 11.1209736,3.56070404 12.5467736,4.49820404 L11.9608736,5.95330404 C11.7655736,6.43180404 11.7362736,6.83220404 11.8631736,7.19350404 L0.798753634,17.584166 C-0.187576366,18.5021352 -0.265706366,19.478698 0.593673634,20.347834 Z M8.50387363,2.52560404 C10.9354736,0.748204036 14.2264736,1.05100404 16.4530736,3.27750404 L18.8846736,5.68960404 C19.1190736,5.92400404 19.1580736,6.10960404 19.0897736,6.45140404 L18.7674736,7.93570404 L20.2713736,9.42010404 L21.2577736,9.36151404 C21.5116736,9.35174404 21.5897736,9.37127404 21.7850736,9.56658404 L22.3612736,10.142764 L19.9198736,12.584164 L19.3436736,12.007994 C19.1483736,11.812684 19.1190736,11.734554 19.1288736,11.470884 L19.1971736,10.494324 L17.7030736,9.00994404 L16.1795736,9.26385404 C15.8573736,9.33221404 15.7108736,9.30291404 15.4666736,9.06854404 L13.4647736,7.06660404 C13.2108736,6.83220404 13.1815736,6.66620404 13.3377736,6.29510404 L14.2166736,4.20530404 C12.6541736,2.75020404 10.6229736,2.12520404 8.59167363,2.72090404 C8.43547363,2.75990404 8.37687363,2.63300404 8.50387363,2.52560404 Z M3.02531363,20.787304 L1.85343363,19.625184 C1.38468363,19.166198 1.49210363,18.824401 1.89249363,18.4630728 L12.7030736,8.28730404 L14.1678736,9.77166404 L4.17765363,20.757994 C3.82609363,21.158384 3.49406363,21.256044 3.02531363,20.787304 Z" id="Shape"></path>
                </g>
                <text id="Exporting" fill="#000000" fill-rule="nonzero" font-family="Helvetica-Bold, Helvetica" font-size="13" font-weight="bold">
                    <tspan x="1289" y="1953">Exporting</tspan>
                </text>
                <text id="Symbols-should-be-outlined-when-exporting-to-ensure-the" fill="#000000" fill-rule="nonzero" font-family="Helvetica" font-size="13" font-weight="normal">
                    <tspan x="1289" y="1971">Symbols should be outlined when exporting to ensure the</tspan>
                </text>
                <text id="design-is-preserved-when-submitting-to-Xcode." fill="#000000" fill-rule="nonzero" font-family="Helvetica" font-size="13" font-weight="normal">
                    <tspan x="1289" y="1989">design is preserved when submitting to Xcode.</tspan>
                </text>
                <text id="template-version" fill="#000000" fill-rule="nonzero" font-family="Helvetica" font-size="13" font-weight="normal">
                    <tspan x="2952" y="1933">Template v.2.0</tspan>
                </text>
                <text id="Requires-Xcode-12-or-greater" fill="#000000" fill-rule="nonzero" font-family="Helvetica" font-size="13" font-weight="normal">
                    <tspan x="2865" y="1951">Requires Xcode 12 or greater</tspan>
                </text>
                <text id="Generated-from-person.crop.circle" fill="#000000" fill-rule="nonzero" font-family="Helvetica" font-size="13" font-weight="normal">
                    <tspan x="2838" y="1969">Generated from person.crop.circle</tspan>
                </text>
                <text id="Typeset-at-100-points" fill="#000000" fill-rule="nonzero" font-family="Helvetica" font-size="13" font-weight="normal">
                    <tspan x="2912" y="1987">Typeset at 100 points</tspan>
                </text>
                <text id="Small" fill="#000000" fill-rule="nonzero" font-family="Helvetica" font-size="13" font-weight="normal">
                    <tspan x="263" y="726">Small</tspan>
                </text>
                <text id="Medium" fill="#000000" fill-rule="nonzero" font-family="Helvetica" font-size="13" font-weight="normal">
                    <tspan x="263" y="1156">Medium</tspan>
                </text>
                <text id="Large" fill="#000000" fill-rule="nonzero" font-family="Helvetica" font-size="13" font-weight="normal">
                    <tspan x="263" y="1586">Large</tspan>
                </text>
            </g>
            <g id="Guides" transform="translate(263.000000, 625.041000)">
                <g id="H-reference" transform="translate(76.976562, 0.500000)" fill="#27AAE1" fill-rule="nonzero">
                    <path d="M-1.22124533e-15,70.459 L2.685548,70.459 L12.011738,45.9961 L44.775438,45.9961 L54.150438,70.459 L56.787138,70.459 L29.638638,0 L27.148438,0 L-1.22124533e-15,70.459 Z M28.369138,3.3203 L28.466838,3.3203 L43.896438,43.75 L12.890638,43.75 L28.369138,3.3203 Z" id="Shape"></path>
                </g>
                <line x1="0" y1="70.959" x2="2773" y2="70.959" id="Baseline-S" stroke="#27AAE1" stroke-width="0.5"></line>
                <line x1="0" y1="0.5" x2="2773" y2="0.5" id="Capline-S" stroke="#27AAE1" stroke-width="0.5"></line>
                <g id="H-reference" transform="translate(76.976562, 430.500000)" fill="#27AAE1" fill-rule="nonzero">
                    <path d="M-1.22124533e-15,70.459 L2.685548,70.459 L12.011738,45.9961 L44.775438,45.9961 L54.150438,70.459 L56.787138,70.459 L29.638638,0 L27.148438,0 L-1.22124533e-15,70.459 Z M28.369138,3.3203 L28.466838,3.3203 L43.896438,43.75 L12.890638,43.75 L28.369138,3.3203 Z" id="Shape"></path>
                </g>
                <line x1="0" y1="500.959" x2="2773" y2="500.959" id="Baseline-M" stroke="#27AAE1" stroke-width="0.5"></line>
                <line x1="0" y1="430.499" x2="2773" y2="430.499" id="Capline-M" stroke="#27AAE1" stroke-width="0.5"></line>
                <g id="H-reference" transform="translate(76.976562, 860.500000)" fill="#27AAE1" fill-rule="nonzero">
                    <path d="M-1.22124533e-15,70.459 L2.685548,70.459 L12.011738,45.9961 L44.775438,45.9961 L54.150438,70.459 L56.787138,70.459 L29.638638,0 L27.148438,0 L-1.22124533e-15,70.459 Z M28.369138,3.3203 L28.466838,3.3203 L43.896438,43.75 L12.890638,43.75 L28.369138,3.3203 Z" id="Shape"></path>
                </g>
                <line x1="0" y1="930.959" x2="2773" y2="930.959" id="Baseline-L" stroke="#27AAE1" stroke-width="0.5"></line>
                <line x1="0" y1="860.499" x2="2773" y2="860.499" id="Capline-L" stroke="#27AAE1" stroke-width="0.5"></line>
                <line x1="1128.3" y1="405.749" x2="1128.3" y2="525.079" id="left-margin" stroke="#00AEEF" stroke-width="0.5"></line>
                <line x1="1245.39" y1="405.749" x2="1245.39" y2="525.079" id="right-margin" stroke="#00AEEF" stroke-width="0.5"></line>
            </g>
            <g id="Symbols" transform="translate(1386.249300, 620.511700)" fill="#000000">
                <g id="Semibold-L" transform="translate(592.000000, 835.208300)">
                    <path d="M124.369304,68.4033371 L124.651227,68.4274112 L124.926485,68.4633755 L124.76004,69.5370624 L124.932184,68.4642612 C128.137577,68.9697479 130.353073,71.8903075 129.991357,75.0604393 L129.954005,75.3327256 C124.860044,107.018776 97.6248238,130.03 65.2257143,130.03 C45.1167233,130.03 26.2524481,120.863973 13.8918112,105.427403 L13.5010479,104.933764 L11.9725505,112.708241 C11.4376254,115.449221 9.08022614,117.432725 6.32705009,117.55784 L6.05046607,117.564117 C5.64924326,117.564117 5.25919497,117.52602 4.89684754,117.449618 C1.70860909,116.832928 -0.400878688,113.846532 0.0641438405,110.689127 L0.110342724,110.418125 L4.61784769,87.4838566 C5.23114182,84.3187829 8.25914905,82.2141233 11.4306776,82.6933305 L11.7028214,82.7407687 L34.8379897,87.2112707 C38.1028571,87.8357294 40.2393519,90.9889801 39.6085729,94.2442495 C38.984464,97.4065742 35.9767831,99.4985252 32.7969263,99.0294631 L32.5239971,98.9829511 L22.6573124,97.0720776 L22.7386885,97.1796292 C32.6605615,110.060942 48.0491314,117.829857 64.5559183,118.034738 L65.2257143,118.038894 C91.6653757,118.038894 113.860948,99.2876279 118.012313,73.4467064 C118.507449,70.3585402 121.277317,68.2099224 124.369304,68.4033371 Z M65.2257143,1.76483773e-15 C71.9843148,3.42021743e-15 78.6031554,1.03832369 84.8820072,3.00386943 C82.1959416,6.10711619 80.1333359,9.75826853 78.8866733,13.7658948 C74.6928957,12.6627811 70.3331323,12.0593951 65.8933729,12.00435 L65.2257143,12.0002118 C38.8497555,12.0002118 16.6619303,30.688885 12.4470228,56.4544998 C11.9618708,59.3643102 9.42263505,61.4904061 6.48200008,61.4904061 C6.18819412,61.4904061 5.89259682,61.4639954 5.51489753,61.4102466 C2.22062112,60.8791984 -0.0180820911,57.8058505 0.507227023,54.5295413 C5.68652908,22.9298484 32.8989536,-6.15293507e-15 65.2257143,1.76483773e-15 Z M107.922729,1.55449878 C119.670895,1.55449878 129.194665,11.0252435 129.194665,22.7079992 C129.194665,34.3907549 119.670895,43.8614996 107.922729,43.8614996 C96.174564,43.8614996 86.6507941,34.3907549 86.6507941,22.7079992 C86.6507941,11.0252435 96.174564,1.55449878 107.922729,1.55449878 Z M110.711577,31.7737851 L105.133882,31.7737851 C105.015535,31.7737851 104.916395,31.8560185 104.890484,31.9664624 L104.883882,32.0237851 L104.883882,37.5676423 C104.883882,37.6859891 104.966115,37.7851292 105.076559,37.8110397 L105.133882,37.8176423 L110.711577,37.8176423 C110.829924,37.8176423 110.929064,37.7354089 110.954975,37.624965 L110.961577,37.5676423 L110.961577,32.0237851 C110.961577,31.8857139 110.849649,31.7737851 110.711577,31.7737851 Z M110.711577,7.59835603 L105.133882,7.59835603 C105.015535,7.59835603 104.916395,7.68058945 104.890484,7.79103333 L104.883882,7.84835603 L104.883882,25.4799278 C104.883882,25.5982745 104.966115,25.6974146 105.076559,25.7233251 L105.133882,25.7299278 L110.711577,25.7299278 C110.829924,25.7299278 110.929064,25.6476944 110.954975,25.5372505 L110.961577,25.4799278 L110.961577,7.84835603 C110.961577,7.71028485 110.849649,7.59835603 110.711577,7.59835603 Z" id="Shape"></path>
                </g>
                <g id="Regular-L" transform="translate(0.000000, 836.428300)">
                    <path d="M122.491789,68.2973143 C125.069999,68.7061714 126.828284,71.1229714 126.418321,73.6942286 C121.462327,104.694686 94.969624,127.2 63.4480447,127.2 C42.7309878,127.2 23.6211489,117.173073 11.7847745,100.865959 L11.4283287,100.369886 L9.36029446,110.945657 C8.92300088,113.198914 6.94606946,114.761657 4.73227069,114.761657 C4.43163135,114.761657 4.13099201,114.7344 3.83035267,114.6708 C1.33261674,114.184967 -0.312611797,111.835545 0.0500011331,109.359213 L0.0860263508,109.146686 L4.55917531,86.2597714 C5.03746517,83.7776048 7.4016047,82.1198825 9.88510483,82.497269 L10.0982274,82.5346286 L33.0561406,86.9957143 C35.6070198,87.4863429 37.2742016,89.9667429 36.7822463,92.5198286 C36.2950993,95.0019952 33.9479361,96.6511295 31.4570139,96.2816154 L31.2431943,96.2449714 L18.3157027,93.7282286 C28.2914626,108.574286 45.1272656,117.778114 63.4480447,117.778114 C90.3051591,117.778114 112.86222,98.6163429 117.080281,72.2132571 C117.490244,69.642 119.895358,67.8975429 122.491789,68.2973143 Z M63.4480447,1.32943426e-15 C69.8321005,2.89307696e-15 76.0644107,0.954840493 81.9786462,2.75393449 C80.0219348,5.29749564 78.4609946,8.16009325 77.3865519,11.2503802 C72.9046566,10.0583652 68.2265407,9.43097143 63.4480447,9.43097143 C36.6547024,9.43097143 14.1067519,28.5291429 9.82491889,54.8504571 C9.44228701,57.1582286 7.43802474,58.8118286 5.16045399,58.8118286 C4.91447635,58.8118286 4.65938842,58.7845714 4.4043005,58.7482286 C1.82609041,58.3302857 0.0769160678,55.9134857 0.486878803,53.3422286 C5.52486531,22.4326286 31.9902375,-6.37550633e-15 63.4480447,1.32943426e-15 Z M106,0 C117.708437,0 127.2,9.4915633 127.2,21.2 C127.2,32.9084367 117.708437,42.4 106,42.4 C94.2915633,42.4 84.8,32.9084367 84.8,21.2 C84.8,9.4915633 94.2915633,0 106,0 Z M108.778571,30.2857143 L103.221429,30.2857143 C103.103082,30.2857143 103.003942,30.3679477 102.978031,30.4783916 L102.971429,30.5357143 L102.971429,36.0928571 C102.971429,36.2112039 103.053662,36.310344 103.164106,36.3362545 L103.221429,36.3428571 L108.778571,36.3428571 C108.896918,36.3428571 108.996058,36.2606237 109.021969,36.1501798 L109.028571,36.0928571 L109.028571,30.5357143 C109.028571,30.3976431 108.916643,30.2857143 108.778571,30.2857143 Z M108.778571,6.05714286 L103.221429,6.05714286 C103.103082,6.05714286 103.003942,6.13937627 102.978031,6.24982015 L102.971429,6.30714286 L102.971429,23.9785714 C102.971429,24.0969182 103.053662,24.1960582 103.164106,24.2219688 L103.221429,24.2285714 L108.778571,24.2285714 C108.896918,24.2285714 108.996058,24.146338 109.021969,24.0358941 L109.028571,23.9785714 L109.028571,6.30714286 C109.028571,6.16907167 108.916643,6.05714286 108.778571,6.05714286 Z" id="Shape"></path>
                </g>
                <g id="Semibold-M" transform="translate(605.570817, 419.208300)">
                    <path d="M97.0639336,53.684231 L97.2839601,53.7031247 L97.498785,53.7313502 L97.378,54.513 L97.5032332,53.7320454 C100.004879,54.1287609 101.733962,56.4208712 101.451661,58.9088505 L101.422509,59.122546 C97.4469316,83.990357 76.1912234,102.05 50.9053617,102.05 C35.2113142,102.05 20.4887042,94.8563286 10.8418541,82.7414173 L10.5368831,82.354 L9.34396842,88.4555564 C8.92648649,90.6067294 7.08665594,92.1634204 4.93794169,92.2616136 L4.72208189,92.2665393 C4.40894783,92.2665393 4.10453492,92.2366401 3.82174114,92.1766784 C1.33348273,91.6926886 -0.312865483,89.3489089 0.0500610141,86.8709177 L0.0861168995,86.65823 L3.6039959,68.658983 C4.08264086,66.1749735 6.44584693,64.5231968 8.92106411,64.8992877 L9.13345856,64.9365181 L27.189284,68.4450525 C29.7373473,68.9351394 31.4047732,71.4098702 30.9124822,73.9646671 C30.4253968,76.4465193 28.0780544,78.0883219 25.5963375,77.7201931 L25.3833301,77.6836896 L17.6828831,76.184 L17.7463931,76.2684086 C25.4899117,86.3779061 37.49991,92.4750973 50.3826199,92.6358918 L50.9053617,92.6391536 C71.5401764,92.6391536 88.8626946,77.9228057 92.1026245,57.6423625 C92.4890529,55.2187113 94.6507947,53.5324355 97.0639336,53.684231 Z M50.9053617,-1.74263706e-15 C56.18035,-4.50637552e-16 61.3462528,0.81497125 66.2467797,2.35770702 C64.1499456,4.79251437 62.539777,7.6586975 61.5667287,10.8047641 C58.2938785,9.93797058 54.891372,9.46444018 51.4264354,9.42124062 L50.9053617,9.41799286 C30.3202637,9.41799286 13.0037915,24.0852166 9.71426995,44.3065577 C9.33563343,46.5902319 7.35388874,48.2588321 5.05887229,48.2588321 C4.82957164,48.2588321 4.59887294,48.2381045 4.3040978,48.1959214 C1.73308215,47.7791448 -0.014112155,45.3671233 0.395864964,42.795814 C4.43804752,17.9957781 25.6759646,-7.92205713e-15 50.9053617,-1.74263706e-15 Z M84.2282165,1.22 C93.3970638,1.22 100.829883,8.65281935 100.829883,17.8216667 C100.829883,26.990514 93.3970638,34.4233333 84.2282165,34.4233333 C75.0593691,34.4233333 67.6265498,26.990514 67.6265498,17.8216667 C67.6265498,8.65281935 75.0593691,1.22 84.2282165,1.22 Z M86.3498831,24.9366667 L82.1065498,24.9366667 C81.9882031,24.9366667 81.889063,25.0189001 81.8631525,25.129344 L81.8565498,25.1866667 L81.8565498,29.43 C81.8565498,29.5483467 81.9387832,29.6474868 82.0492271,29.6733973 L82.1065498,29.68 L86.3498831,29.68 C86.4682299,29.68 86.5673699,29.5977666 86.5932804,29.4873227 L86.5998831,29.43 L86.5998831,25.1866667 C86.5998831,25.0485955 86.4879543,24.9366667 86.3498831,24.9366667 Z M86.3498831,5.96333333 L82.1065498,5.96333333 C81.9882031,5.96333333 81.889063,6.04556675 81.8631525,6.15601063 L81.8565498,6.21333333 L81.8565498,19.9433333 C81.8565498,20.0616801 81.9387832,20.1608202 82.0492271,20.1867307 L82.1065498,20.1933333 L86.3498831,20.1933333 C86.4682299,20.1933333 86.5673699,20.1110999 86.5932804,20.000656 L86.5998831,19.9433333 L86.5998831,6.21333333 C86.5998831,6.07526215 86.4879543,5.96333333 86.3498831,5.96333333 Z" id="Shape"></path>
                </g>
                <g id="Regular-M" transform="translate(13.790700, 420.428300)">
                    <path d="M95.9230118,53.483455 C97.9420016,53.80363 99.3189099,55.69622 98.9978691,57.709765 C95.1168427,81.986145 74.3704736,99.61 49.6860042,99.61 C33.4848755,99.61 18.5388902,91.7795548 9.26696149,79.0406197 L8.94949546,78.599405 L7.33002304,86.881265 C6.98757954,88.645785 5.43944952,89.869565 3.70582927,89.869565 C3.47039936,89.869565 3.23496945,89.84822 2.99953954,89.798415 C1.05258251,89.4197134 -0.232916917,87.5950602 0.0353301133,85.6657275 L0.0673670189,85.472495 L3.57027872,67.54981 C3.94310028,65.614989 5.77914623,64.3198517 7.71411987,64.5994196 L7.90789646,64.63266 L25.8861805,68.126125 C27.8837677,68.510335 29.1893335,70.45273 28.8040846,72.452045 C28.4243589,74.386866 26.601453,75.6753399 24.6608685,75.4017906 L24.4664668,75.369195 L14.3429807,73.39834 C22.1549732,85.02425 35.3390481,92.231745 49.6860042,92.231745 C70.7177429,92.231745 88.3821204,77.22621 91.6852734,56.55002 C92.0063142,54.536475 93.8897535,53.170395 95.9230118,53.483455 Z M49.6860042,6.19075527e-14 C54.6855832,6.31320964e-14 59.5663192,0.747805273 64.1979414,2.1568029 L64.0855841,2.30227418 C62.6059054,4.25731155 61.4222271,6.4488011 60.6012496,8.8100424 C57.0916516,7.87670709 53.4281337,7.38537 49.6860042,7.38537 C28.7042052,7.38537 11.0469619,22.3411 7.69386927,42.953255 C7.3942312,44.760465 5.82469847,46.055395 4.04113854,46.055395 C3.84851407,46.055395 3.64875535,46.03405 3.44899664,46.00559 C1.4300068,45.6783 0.0602327792,43.78571 0.381273566,41.772165 C4.32650813,17.566935 25.0514745,5.58738331e-14 49.6860042,6.19075527e-14 Z M83.0083333,6.39488462e-14 C92.1771807,6.39488462e-14 99.61,7.43281935 99.61,16.6016667 C99.61,25.770514 92.1771807,33.2033333 83.0083333,33.2033333 C73.839486,33.2033333 66.4066667,25.770514 66.4066667,16.6016667 C66.4066667,7.43281935 73.839486,6.39488462e-14 83.0083333,6.39488462e-14 Z M85.13,23.7166667 L80.8866667,23.7166667 C80.7683199,23.7166667 80.6691798,23.7989001 80.6432693,23.909344 L80.6366667,23.9666667 L80.6366667,28.21 C80.6366667,28.3283467 80.7189001,28.4274868 80.829344,28.4533973 L80.8866667,28.46 L85.13,28.46 C85.2483467,28.46 85.3474868,28.3777666 85.3733973,28.2673227 L85.38,28.21 L85.38,23.9666667 C85.38,23.8285955 85.2680712,23.7166667 85.13,23.7166667 Z M85.13,4.74333333 L80.8866667,4.74333333 C80.7683199,4.74333333 80.6691798,4.82556675 80.6432693,4.93601063 L80.6366667,4.99333333 L80.6366667,18.7233333 C80.6366667,18.8416801 80.7189001,18.9408202 80.829344,18.9667307 L80.8866667,18.9733333 L85.13,18.9733333 C85.2483467,18.9733333 85.3474868,18.8910999 85.3733973,18.780656 L85.38,18.7233333 L85.38,4.99333333 C85.38,4.85526215 85.2680712,4.74333333 85.13,4.74333333 Z" id="Shape"></path>
                </g>
                <g id="Semibold-S" transform="translate(616.570817, 0.000000)">
                    <path d="M76.9668376,42.5689062 L77.1413075,42.583888 L77.3116529,42.6062694 L77.227,43.153 L77.3151801,42.6068206 C79.2988602,42.9213961 80.6699361,44.7389248 80.4460857,46.7117678 L80.4229697,46.8812176 C77.2705358,66.6001461 60.4158238,80.9205384 40.365402,80.9205384 C27.9208085,80.9205384 16.2465162,75.2163173 8.59704721,65.6097995 L8.35522054,65.302597 L7.40929893,70.1408256 C7.07825667,71.846598 5.6193632,73.080976 3.91554042,73.1588383 L3.74437441,73.1627441 C3.49607479,73.1627441 3.2546906,73.1390356 3.03044929,73.091489 C1.05738501,72.7077093 -0.248086657,70.8492094 0.0396958767,68.8842865 L0.0682863878,68.7156358 L2.85778823,54.4431345 C3.23732971,52.4734393 5.11123375,51.1636632 7.073957,51.4618844 L7.24237515,51.4914063 L21.5597403,54.2734983 C23.5802269,54.6621127 24.9024121,56.6244502 24.51205,58.6502762 C24.1258157,60.6182607 22.2644908,61.9201279 20.2966135,61.6282202 L20.1277093,61.5992748 L14.0216406,60.410096 L14.0720008,60.4770278 C20.2122232,68.493353 29.7355503,73.3281202 39.950894,73.4556222 L40.365402,73.4582086 C56.7277765,73.4582086 70.4636658,61.7888819 73.0327679,45.7075062 C73.3391863,43.7856722 75.0533392,42.44854 76.9668376,42.5689062 Z M40.365402,2.78124472e-15 C44.5479388,3.80567078e-15 48.6439871,0.646149579 52.5296403,1.8693113 C50.8673334,3.80093844 49.5909482,6.07310683 48.8194974,8.56710243 C46.2236043,7.88024032 43.5258431,7.50482369 40.7785874,7.47057191 L40.365402,7.4679966 C24.0424504,7.4679966 10.3113553,19.0983703 7.7029295,35.132881 C7.4026897,36.9437202 5.83126542,38.2668367 4.01143233,38.2668367 C3.8296084,38.2668367 3.64667589,38.2504007 3.41293397,38.2169516 C1.37424734,37.8864686 -0.011190232,35.9738564 0.313901088,33.9349369 C3.51914939,14.2697506 20.3597539,-2.11872587e-15 40.365402,2.78124472e-15 Z M66.7887568,0.967398892 C74.0591934,0.967398892 79.9530469,6.86125233 79.9530469,14.131689 C79.9530469,21.4021257 74.0591934,27.2959791 66.7887568,27.2959791 C59.5183201,27.2959791 53.6244667,21.4021257 53.6244667,14.131689 C53.6244667,6.86125233 59.5183201,0.967398892 66.7887568,0.967398892 Z M68.4193696,19.7735276 L65.1581439,19.7735276 C65.0397972,19.7735276 64.9406571,19.855761 64.9147466,19.9662049 L64.9081439,20.0235276 L64.9081439,23.2847534 C64.9081439,23.4031001 64.9903773,23.5022402 65.1008212,23.5281507 L65.1581439,23.5347534 L68.4193696,23.5347534 C68.5377164,23.5347534 68.6368565,23.45252 68.662767,23.3420761 L68.6693696,23.2847534 L68.6693696,20.0235276 C68.6693696,19.8854564 68.5574408,19.7735276 68.4193696,19.7735276 Z M68.4193696,4.72862464 L65.1581439,4.72862464 C65.0397972,4.72862464 64.9406571,4.81085805 64.9147466,4.92130193 L64.9081439,4.97862464 L64.9081439,15.7623019 C64.9081439,15.8806486 64.9903773,15.9797887 65.1008212,16.0056992 L65.1581439,16.0123019 L68.4193696,16.0123019 C68.5377164,16.0123019 68.6368565,15.9300685 68.662767,15.8196246 L68.6693696,15.7623019 L68.6693696,4.97862464 C68.6693696,4.84055345 68.5574408,4.72862464 68.4193696,4.72862464 Z" id="Shape"></path>
                </g>
                <g id="Regular-S" transform="translate(23.790700, 0.830100)">
                    <path d="M75.9410572,42.3421871 C77.5394664,42.5956657 78.6295476,44.0940057 78.3753836,45.6881043 C75.3028232,64.9074129 58.8781804,78.86 39.3357925,78.86 C26.5398535,78.86 14.7329077,72.6899824 7.38862436,62.6468711 L7.08520442,62.2261729 L5.80308822,68.7828186 C5.53197995,70.1797671 4.30634464,71.1486186 2.93385901,71.1486186 C2.74747208,71.1486186 2.56108514,71.13172 2.3746982,71.09229 C0.838821436,70.7935474 -0.177121366,69.358225 0.0257420795,67.8368547 L0.0533336323,67.6675129 L2.82654532,53.4783457 C3.12064938,51.9520426 4.5649104,50.9285582 6.09076279,51.1402345 L6.26058342,51.1688743 L20.4937677,53.9346071 C22.0752326,54.2387814 23.1088329,55.7765514 22.8038361,57.3593843 C22.5042856,58.8856874 21.0703338,59.9039341 19.5401604,59.6969343 L19.369798,59.6688557 L11.3551597,58.1085543 C17.5398171,67.3126429 27.9774856,73.0187271 39.3357925,73.0187271 C55.9863588,73.0187271 69.9710272,61.1390314 72.5860924,44.7699486 C72.8402564,43.17585 74.3313518,42.0943414 75.9410572,42.3421871 Z M39.3357925,2.52906312e-15 C43.2934564,3.49841121e-15 47.1570547,0.591896328 50.8234882,1.70714151 C49.610984,3.28439847 48.643165,5.05933182 47.9770309,6.97545076 C45.1989019,6.23591135 42.2984667,5.84690571 39.3357925,5.84690571 C22.7247628,5.84690571 8.74574258,17.6871714 6.09114076,34.0055586 C5.85392102,35.4363043 4.61134144,36.4614843 3.1993192,36.4614843 C3.04682079,36.4614843 2.8886743,36.4445857 2.73052781,36.4220543 C1.13211863,36.1629429 0.0476855433,34.6646029 0.301849548,33.0705043 C3.42524276,13.9075243 19.8329413,-2.24775775e-15 39.3357925,2.52906312e-15 Z M65.7166667,0 C72.9755292,0 78.86,5.88447077 78.86,13.1433333 C78.86,20.4021959 72.9755292,26.2866667 65.7166667,26.2866667 C58.4578041,26.2866667 52.5733333,20.4021959 52.5733333,13.1433333 C52.5733333,5.88447077 58.4578041,0 65.7166667,0 Z M67.3442857,18.7761905 L64.0890476,18.7761905 C63.9707009,18.7761905 63.8715608,18.8584239 63.8456503,18.9688678 L63.8390476,19.0261905 L63.8390476,22.2814286 C63.8390476,22.3997753 63.921281,22.4989154 64.0317249,22.5248259 L64.0890476,22.5314286 L67.3442857,22.5314286 C67.4626324,22.5314286 67.5617725,22.4491952 67.587683,22.3387513 L67.5942857,22.2814286 L67.5942857,19.0261905 C67.5942857,18.8881193 67.4823569,18.7761905 67.3442857,18.7761905 Z M67.3442857,3.7552381 L64.0890476,3.7552381 C63.9707009,3.7552381 63.8715608,3.83747151 63.8456503,3.94791539 L63.8390476,4.0052381 L63.8390476,14.7709524 C63.8390476,14.8892991 63.921281,14.9884392 64.0317249,15.0143497 L64.0890476,15.0209524 L67.3442857,15.0209524 C67.4626324,15.0209524 67.5617725,14.938719 67.587683,14.8282751 L67.5942857,14.7709524 L67.5942857,4.0052381 C67.5942857,3.86716691 67.4823569,3.7552381 67.3442857,3.7552381 Z" id="Shape"></path>
                </g>
            </g>
        </g>
    </g>
</svg>