<svg width="16" height="16" viewBox="0 0 16 16" fill="none" xmlns="http://www.w3.org/2000/svg">
<path d="M7.25 4.25C6.83579 4.25 6.5 4.58579 6.5 5C6.5 5.41421 6.83579 5.75 7.25 5.75H8.75C9.16421 5.75 9.5 5.41421 9.5 5C9.5 4.58579 9.16421 4.25 8.75 4.25H7.25Z" fill="url(#paint0_linear_1374_78645)"/>
<path d="M7.25 6.75C6.83579 6.75 6.5 7.08579 6.5 7.5C6.5 7.91421 6.83579 8.25 7.25 8.25H8.75C9.16421 8.25 9.5 7.91421 9.5 7.5C9.5 7.08579 9.16421 6.75 8.75 6.75H7.25Z" fill="url(#paint1_linear_1374_78645)"/>
<path d="M7.25 9.25C6.83579 9.25 6.5 9.58579 6.5 10C6.5 10.4142 6.83579 10.75 7.25 10.75H8.75C9.16421 10.75 9.5 10.4142 9.5 10C9.5 9.58579 9.16421 9.25 8.75 9.25H7.25Z" fill="url(#paint2_linear_1374_78645)"/>
<path fill-rule="evenodd" clip-rule="evenodd" d="M9.39486 1.25H6.60514C6.25589 1.24999 5.94969 1.24997 5.69653 1.27066C5.42781 1.29261 5.15348 1.34156 4.88752 1.47707C4.49552 1.67681 4.17681 1.99552 3.97707 2.38752C3.84156 2.65348 3.79261 2.92781 3.77066 3.19653C3.74997 3.4497 3.74998 3.75587 3.75 4.10513L3.75 6.75L2.54377 6.75C2.37702 6.74998 2.21001 6.74995 2.06773 6.76158C1.91018 6.77445 1.71817 6.80523 1.52351 6.90441C1.25695 7.04023 1.04023 7.25695 0.904407 7.52352C0.805226 7.71817 0.774446 7.91018 0.761574 8.06773C0.749949 8.21001 0.749973 8.37702 0.749998 8.54377L0.75 13.2927C0.458702 13.3956 0.25 13.6734 0.25 14C0.25 14.4142 0.585786 14.75 1 14.75H15C15.4142 14.75 15.75 14.4142 15.75 14C15.75 13.6734 15.5413 13.3956 15.25 13.2927L15.25 8.54376C15.25 8.37701 15.2501 8.21001 15.2384 8.06773C15.2256 7.91018 15.1948 7.71817 15.0956 7.52352C14.9598 7.25695 14.7431 7.04023 14.4765 6.90441C14.2818 6.80523 14.0898 6.77445 13.9323 6.76158C13.79 6.74995 13.623 6.74998 13.4562 6.75L12.25 6.75V4.10513C12.25 3.75587 12.25 3.4497 12.2293 3.19653C12.2074 2.92781 12.1584 2.65348 12.0229 2.38752C11.8232 1.99552 11.5045 1.67681 11.1125 1.47707C10.8465 1.34156 10.5722 1.29261 10.3035 1.27066C10.0503 1.24997 9.74411 1.24999 9.39486 1.25ZM5.25 13.25V4.13334C5.25 3.74759 5.25058 3.50339 5.26568 3.31868C5.28005 3.14272 5.30377 3.08776 5.31358 3.06851C5.36951 2.95875 5.45874 2.86951 5.56851 2.81358C5.58776 2.80377 5.64272 2.78005 5.81868 2.76568C6.00339 2.75059 6.24759 2.75 6.63333 2.75H9.36667C9.75241 2.75 9.99661 2.75059 10.1813 2.76568C10.3573 2.78005 10.4122 2.80377 10.4315 2.81358C10.5413 2.86951 10.6305 2.95875 10.6864 3.06851C10.6962 3.08776 10.7199 3.14272 10.7343 3.31868C10.7494 3.50339 10.75 3.74759 10.75 4.13334V13.25H5.25ZM12.25 13.25V8.25H13.4333C13.5818 8.25 13.6775 8.25033 13.747 8.25298C13.7497 8.32254 13.75 8.41823 13.75 8.56667L13.75 13.25H12.25ZM3.75 8.25V13.25H2.25L2.25 8.56667C2.25 8.41823 2.25033 8.32254 2.25298 8.25298C2.32254 8.25033 2.41823 8.25 2.56667 8.25H3.75Z" fill="url(#paint3_linear_1374_78645)"/>
<defs>
<linearGradient id="paint0_linear_1374_78645" x1="8" y1="1.25" x2="8" y2="14.75" gradientUnits="userSpaceOnUse">
<stop stop-color="#69A3FB"/>
<stop offset="1" stop-color="#477EF7"/>
</linearGradient>
<linearGradient id="paint1_linear_1374_78645" x1="8" y1="1.25" x2="8" y2="14.75" gradientUnits="userSpaceOnUse">
<stop stop-color="#69A3FB"/>
<stop offset="1" stop-color="#477EF7"/>
</linearGradient>
<linearGradient id="paint2_linear_1374_78645" x1="8" y1="1.25" x2="8" y2="14.75" gradientUnits="userSpaceOnUse">
<stop stop-color="#69A3FB"/>
<stop offset="1" stop-color="#477EF7"/>
</linearGradient>
<linearGradient id="paint3_linear_1374_78645" x1="8" y1="1.25" x2="8" y2="14.75" gradientUnits="userSpaceOnUse">
<stop stop-color="#69A3FB"/>
<stop offset="1" stop-color="#477EF7"/>
</linearGradient>
</defs>
</svg>
