<svg width="16" height="16" viewBox="0 0 16 16" fill="none" xmlns="http://www.w3.org/2000/svg">
<g clip-path="url(#clip0_1213_19270)">
<path fill-rule="evenodd" clip-rule="evenodd" d="M3.18324 1.36895C4.44887 0.979527 6.15169 0.75 8 0.75C9.84831 0.75 11.5511 0.979527 12.8168 1.36895C13.445 1.56225 14.008 1.80773 14.4304 2.11501C14.8364 2.41036 15.25 2.86892 15.25 3.5V12.4933C15.25 13.1223 14.8409 13.5811 14.435 13.8781C14.0138 14.1861 13.4523 14.4318 12.825 14.6251C11.5615 15.0145 9.85838 15.2433 8 15.2433C6.14162 15.2433 4.43852 15.0145 3.17496 14.6251C2.54774 14.4318 1.98618 14.1861 1.56503 13.8781C1.15906 13.5811 0.75 13.1223 0.75 12.4933V3.5C0.75 2.86892 1.16361 2.41036 1.5696 2.11501C1.99201 1.80773 2.55501 1.56225 3.18324 1.36895ZM2.26489 3.5C2.28886 3.46677 2.34127 3.40856 2.45201 3.32801C2.68743 3.15674 3.07633 2.97125 3.62437 2.80262C4.71128 2.46819 6.25846 2.25 8 2.25C9.74154 2.25 11.2887 2.46819 12.3756 2.80262C12.9237 2.97125 13.3126 3.15674 13.548 3.32801C13.6587 3.40856 13.7111 3.46677 13.7351 3.5C13.7111 3.53323 13.6587 3.59144 13.548 3.67199C13.3126 3.84326 12.9237 4.02875 12.3756 4.19738C11.2887 4.53181 9.74154 4.75 8 4.75C6.25846 4.75 4.71128 4.53181 3.62437 4.19738C3.07633 4.02875 2.68743 3.84326 2.45201 3.67199C2.34127 3.59144 2.28886 3.53323 2.26489 3.5ZM2.25 9.78152V12.4715C2.26166 12.4943 2.30585 12.5615 2.4506 12.6674C2.68396 12.8381 3.07032 13.0232 3.61671 13.1916C4.70037 13.5255 6.24727 13.7433 8 13.7433C9.75273 13.7433 11.2996 13.5255 12.3833 13.1916C12.9297 13.0232 13.316 12.8381 13.5494 12.6674C13.6941 12.5615 13.7383 12.4943 13.75 12.4715V9.78152C13.4671 9.91374 13.1552 10.03 12.825 10.1317C11.5615 10.5211 9.85838 10.75 8 10.75C6.14162 10.75 4.43852 10.5211 3.17496 10.1317C2.84481 10.03 2.53286 9.91374 2.25 9.78152ZM13.75 7.97816C13.7383 8.00091 13.6942 8.06815 13.5494 8.17403C13.316 8.34472 12.9297 8.52988 12.3833 8.69826C11.2996 9.03221 9.75273 9.25 8 9.25C6.24727 9.25 4.70037 9.03221 3.61671 8.69826C3.07032 8.52988 2.68396 8.34472 2.4506 8.17403C2.30585 8.06816 2.26166 8.00091 2.25 7.97816V5.27805C2.53524 5.41135 2.85007 5.52853 3.18324 5.63105C4.44887 6.02047 6.15169 6.25 8 6.25C9.84831 6.25 11.5511 6.02047 12.8168 5.63105C13.1499 5.52853 13.4648 5.41135 13.75 5.27805V7.97816Z" fill="#000000"/>
</g>
<defs>
<clipPath id="clip0_1213_19270">
<rect width="16" height="16" fill="white"/>
</clipPath>
</defs>
</svg>
