<svg width="16" height="16" viewBox="0 0 16 16" fill="none" xmlns="http://www.w3.org/2000/svg">
<path fill-rule="evenodd" clip-rule="evenodd" d="M11.4922 2.4658C11.6304 2.32763 11.8178 2.25 12.0132 2.25C12.11 2.25 12.2058 2.26906 12.2952 2.30608C12.3846 2.34311 12.4658 2.39738 12.5342 2.4658C12.6026 2.53422 12.6569 2.61544 12.6939 2.70483C12.731 2.79423 12.75 2.89004 12.75 2.98679C12.75 3.08355 12.731 3.17936 12.6939 3.26875C12.6569 3.35814 12.6026 3.43936 12.5342 3.50778L3.9201 12.1219L2.53079 12.4692L2.87812 11.0799L11.4922 2.4658ZM12.0132 0.75C11.42 0.75 10.8511 0.985661 10.4316 1.40514L1.67057 10.1661C1.57445 10.2623 1.50626 10.3827 1.47329 10.5146L0.772409 13.3181C0.708514 13.5737 0.783401 13.844 0.969686 14.0303C1.15597 14.2166 1.42634 14.2915 1.68192 14.2276L4.48544 13.5267C4.61731 13.4938 4.73775 13.4256 4.83387 13.3294L13.5949 4.56844C13.8026 4.36074 13.9673 4.11416 14.0798 3.84278C14.1922 3.5714 14.25 3.28053 14.25 2.98679C14.25 2.69305 14.1922 2.40219 14.0798 2.13081C13.9673 1.85943 13.8026 1.61285 13.5949 1.40514C13.3872 1.19744 13.1406 1.03267 12.8692 0.920266C12.5978 0.807856 12.307 0.75 12.0132 0.75ZM7.5 12.75C7.08579 12.75 6.75 13.0858 6.75 13.5C6.75 13.9142 7.08579 14.25 7.5 14.25H14.5C14.9142 14.25 15.25 13.9142 15.25 13.5C15.25 13.0858 14.9142 12.75 14.5 12.75H7.5Z" fill="#FFFFFF"/>
</svg>
