<svg width="16" height="16" viewBox="0 0 16 16" fill="none" xmlns="http://www.w3.org/2000/svg">
<path fill-rule="evenodd" clip-rule="evenodd" d="M1.5 3.1C1.5 2.53995 1.5 2.25992 1.60899 2.04601C1.70487 1.85785 1.85785 1.70487 2.04601 1.60899C2.25992 1.5 2.53995 1.5 3.1 1.5H4.61365C4.94356 1.5 5.10851 1.5 5.26887 1.52623C5.41123 1.54951 5.55065 1.58813 5.6847 1.64141C5.8357 1.70142 5.97714 1.78629 6.26004 1.95602L7.23996 2.54398C7.52286 2.71371 7.6643 2.79858 7.8153 2.85859C7.94935 2.91187 8.08877 2.95049 8.23113 2.97377C8.39149 3 8.55644 3 8.88635 3H12.58C13.2521 3 13.5881 3 13.8448 3.13079C14.0706 3.24584 14.2542 3.42942 14.3692 3.65521C14.5 3.91191 14.5 4.24794 14.5 4.92V12.1C14.5 12.9401 14.5 13.3601 14.3365 13.681C14.1927 13.9632 13.9632 14.1927 13.681 14.3365C13.3601 14.5 12.9401 14.5 12.1 14.5H3.9C3.05992 14.5 2.63988 14.5 2.31901 14.3365C2.03677 14.1927 1.8073 13.9632 1.66349 13.681C1.5 13.3601 1.5 12.9401 1.5 12.1L1.5 3.1Z" fill="url(#paint0_linear_1771_89630)"/>
<path d="M3.1 1.75H4.61365C4.95141 1.75 5.0928 1.75075 5.22851 1.77295C5.35308 1.79332 5.47507 1.82711 5.59237 1.87373C5.72016 1.92452 5.84178 1.99662 6.13141 2.1704L7.11134 2.75835L7.13096 2.77012C7.39522 2.9287 7.55293 3.02334 7.72296 3.09092C7.87377 3.15085 8.03062 3.1943 8.19078 3.22049C8.37135 3.25003 8.55528 3.25002 8.86347 3.25L8.88635 3.25H12.58C12.9202 3.25 13.1602 3.25019 13.3478 3.26552C13.5324 3.2806 13.6441 3.3091 13.7313 3.35354C13.91 3.44462 14.0554 3.58996 14.1465 3.76871C14.1909 3.85594 14.2194 3.96756 14.2345 4.1522C14.2498 4.33976 14.25 4.57984 14.25 4.92V12.1C14.25 12.5242 14.2498 12.8273 14.2304 13.0648C14.2112 13.2995 14.1746 13.4482 14.1138 13.5675C13.9939 13.8027 13.8027 13.9939 13.5675 14.1138C13.4482 14.1746 13.2995 14.2112 13.0648 14.2304C12.8273 14.2498 12.5242 14.25 12.1 14.25H3.9C3.47584 14.25 3.17275 14.2498 2.93516 14.2304C2.70049 14.2112 2.55183 14.1746 2.43251 14.1138C2.19731 13.9939 2.00608 13.8027 1.88624 13.5675C1.82545 13.4482 1.78878 13.2995 1.76961 13.0648C1.75019 12.8273 1.75 12.5242 1.75 12.1V3.1C1.75 2.81585 1.75019 2.61777 1.76279 2.46356C1.77515 2.31227 1.7982 2.22535 1.83175 2.15951C1.90365 2.01839 2.01839 1.90365 2.15951 1.83175C2.22535 1.7982 2.31227 1.77515 2.46356 1.76279C2.61777 1.75019 2.81585 1.75 3.1 1.75Z" stroke="#074163" stroke-opacity="0.22" stroke-width="0.5"/>
<path d="M4.88374 1.8H3.1L3.09125 1.8C2.81864 1.8 2.60183 1.8 2.42692 1.81429C2.2478 1.82892 2.09506 1.85954 1.95521 1.93079C1.72942 2.04584 1.54584 2.22942 1.43079 2.45521C1.35954 2.59506 1.32892 2.7478 1.31429 2.92692C1.3 3.10183 1.3 3.31864 1.3 3.59125L1.3 3.6V12.1L1.3 12.109C1.3 12.5214 1.3 12.8432 1.3211 13.1015C1.34255 13.364 1.38678 13.5785 1.48529 13.7718C1.64827 14.0917 1.90834 14.3517 2.22822 14.5147C2.42154 14.6132 2.63602 14.6575 2.89852 14.6789C3.1568 14.7 3.47858 14.7 3.89099 14.7H3.9H12.1H12.109C12.5214 14.7 12.8432 14.7 13.1015 14.6789C13.364 14.6575 13.5785 14.6132 13.7718 14.5147C14.0917 14.3517 14.3517 14.0917 14.5147 13.7718C14.6132 13.5785 14.6575 13.364 14.6789 13.1015C14.7 12.8432 14.7 12.5214 14.7 12.109V12.1V4.98837V4.97956C14.7 4.65548 14.7 4.4001 14.6833 4.19437C14.6663 3.98443 14.6308 3.80895 14.5502 3.649C14.4185 3.38752 14.208 3.17393 13.9485 3.03829C13.7898 2.95532 13.6149 2.9173 13.4052 2.89713C13.1998 2.87736 12.9444 2.87356 12.6204 2.86874L12.6115 2.86861L8.59452 2.80883C8.36928 2.80547 8.2714 2.80374 8.17583 2.79178C8.08872 2.78087 8.00253 2.7636 7.91794 2.74012C7.82513 2.71435 7.73414 2.67825 7.52499 2.59459L6.14646 2.04318L6.13419 2.03827C5.93203 1.9574 5.81526 1.91069 5.69391 1.87758C5.58618 1.84819 5.47637 1.82704 5.36542 1.81432C5.24046 1.79999 5.11469 1.79999 4.89696 1.8L4.88374 1.8Z" fill="url(#paint1_linear_1771_89630)" stroke="#2880B4" stroke-width="0.4"/>
<mask id="mask0_1771_89630" style="mask-type:luminance" maskUnits="userSpaceOnUse" x="1" y="1" width="14" height="14">
<path d="M4.88374 1.8H3.1L3.09125 1.8C2.81864 1.8 2.60183 1.8 2.42692 1.81429C2.2478 1.82892 2.09506 1.85954 1.95521 1.93079C1.72942 2.04584 1.54584 2.22942 1.43079 2.45521C1.35954 2.59506 1.32892 2.7478 1.31429 2.92692C1.3 3.10183 1.3 3.31864 1.3 3.59125L1.3 3.6V12.1L1.3 12.109C1.3 12.5214 1.3 12.8432 1.3211 13.1015C1.34255 13.364 1.38678 13.5785 1.48529 13.7718C1.64827 14.0917 1.90834 14.3517 2.22822 14.5147C2.42154 14.6132 2.63602 14.6575 2.89852 14.6789C3.1568 14.7 3.47858 14.7 3.89099 14.7H3.9H12.1H12.109C12.5214 14.7 12.8432 14.7 13.1015 14.6789C13.364 14.6575 13.5785 14.6132 13.7718 14.5147C14.0917 14.3517 14.3517 14.0917 14.5147 13.7718C14.6132 13.5785 14.6575 13.364 14.6789 13.1015C14.7 12.8432 14.7 12.5214 14.7 12.109V12.1V4.98837V4.97956C14.7 4.65548 14.7 4.4001 14.6833 4.19437C14.6663 3.98443 14.6308 3.80895 14.5502 3.649C14.4185 3.38752 14.208 3.17393 13.9485 3.03829C13.7898 2.95532 13.6149 2.9173 13.4052 2.89713C13.1998 2.87736 12.9444 2.87356 12.6204 2.86874L12.6115 2.86861L8.59452 2.80883C8.36928 2.80547 8.2714 2.80374 8.17583 2.79178C8.08872 2.78087 8.00253 2.7636 7.91794 2.74012C7.82513 2.71435 7.73414 2.67825 7.52499 2.59459L6.14646 2.04318L6.13419 2.03827C5.93203 1.9574 5.81526 1.91069 5.69391 1.87758C5.58618 1.84819 5.47637 1.82704 5.36542 1.81432C5.24046 1.79999 5.11469 1.79999 4.89696 1.8L4.88374 1.8Z" fill="white" stroke="white" stroke-width="0.4"/>
</mask>
<g mask="url(#mask0_1771_89630)">
<g style="mix-blend-mode:darken" filter="url(#filter0_df_1771_89630)">
<rect x="1" y="5" width="14" height="2" rx="1" fill="url(#paint2_linear_1771_89630)"/>
</g>
<path fill-rule="evenodd" clip-rule="evenodd" d="M1.5 6.6C1.5 6.03995 1.5 5.75992 1.60899 5.54601C1.70487 5.35785 1.85785 5.20487 2.04601 5.10899C2.25992 5 2.53995 5 3.1 5H12.9C13.4601 5 13.7401 5 13.954 5.10899C14.1422 5.20487 14.2951 5.35785 14.391 5.54601C14.5 5.75992 14.5 6.03995 14.5 6.6V12.1C14.5 12.9401 14.5 13.3601 14.3365 13.681C14.1927 13.9632 13.9632 14.1927 13.681 14.3365C13.3601 14.5 12.9401 14.5 12.1 14.5H3.9C3.05992 14.5 2.63988 14.5 2.31901 14.3365C2.03677 14.1927 1.8073 13.9632 1.66349 13.681C1.5 13.3601 1.5 12.9401 1.5 12.1V6.6Z" fill="#73D0FA"/>
<path fill-rule="evenodd" clip-rule="evenodd" d="M1.5 6.6C1.5 6.03995 1.5 5.75992 1.60899 5.54601C1.70487 5.35785 1.85785 5.20487 2.04601 5.10899C2.25992 5 2.53995 5 3.1 5H12.9C13.4601 5 13.7401 5 13.954 5.10899C14.1422 5.20487 14.2951 5.35785 14.391 5.54601C14.5 5.75992 14.5 6.03995 14.5 6.6V12.1C14.5 12.9401 14.5 13.3601 14.3365 13.681C14.1927 13.9632 13.9632 14.1927 13.681 14.3365C13.3601 14.5 12.9401 14.5 12.1 14.5H3.9C3.05992 14.5 2.63988 14.5 2.31901 14.3365C2.03677 14.1927 1.8073 13.9632 1.66349 13.681C1.5 13.3601 1.5 12.9401 1.5 12.1V6.6Z" fill="url(#paint3_radial_1771_89630)" fill-opacity="0.55"/>
<path d="M3.1 5.125H12.9C13.1821 5.125 13.3861 5.1251 13.5466 5.13821C13.7056 5.1512 13.8108 5.17635 13.8972 5.22037C14.0619 5.30426 14.1957 5.43812 14.2796 5.60276C14.3237 5.68916 14.3488 5.79436 14.3618 5.95338C14.3749 6.11386 14.375 6.31791 14.375 6.6V12.1C14.375 12.5221 14.3749 12.8312 14.355 13.075C14.3352 13.3174 14.2964 13.4844 14.2251 13.6242C14.0933 13.883 13.883 14.0933 13.6242 14.2251C13.4844 14.2964 13.3174 14.3352 13.075 14.355C12.8312 14.3749 12.5221 14.375 12.1 14.375H3.9C3.4779 14.375 3.16884 14.3749 2.92498 14.355C2.68258 14.3352 2.51564 14.2964 2.37576 14.2251C2.11704 14.0933 1.90669 13.883 1.77487 13.6242C1.7036 13.4844 1.66483 13.3174 1.64502 13.075C1.6251 12.8312 1.625 12.5221 1.625 12.1V6.6C1.625 6.31791 1.6251 6.11386 1.63821 5.95338C1.6512 5.79436 1.67635 5.68916 1.72037 5.60276C1.80426 5.43812 1.93812 5.30426 2.10276 5.22037C2.18916 5.17635 2.29436 5.1512 2.45338 5.13821C2.61386 5.1251 2.81791 5.125 3.1 5.125Z" stroke="#B6E4FF" stroke-opacity="0.44" stroke-width="0.25"/>
<g opacity="0.7008" filter="url(#filter1_f_1771_89630)">
<rect x="1" y="4" width="1" height="12" fill="#73AED2"/>
</g>
<g opacity="0.7008" filter="url(#filter2_f_1771_89630)">
<rect x="15" y="4" width="1" height="12" fill="#73AED2"/>
</g>
</g>
<defs>
<filter id="filter0_df_1771_89630" x="-1.71828" y="2.28172" width="19.4366" height="7.71828" filterUnits="userSpaceOnUse" color-interpolation-filters="sRGB">
<feFlood flood-opacity="0" result="BackgroundImageFix"/>
<feColorMatrix in="SourceAlpha" type="matrix" values="0 0 0 0 0 0 0 0 0 0 0 0 0 0 0 0 0 0 127 0" result="hardAlpha"/>
<feOffset dy="1"/>
<feGaussianBlur stdDeviation="1"/>
<feColorMatrix type="matrix" values="0 0 0 0 0.243148 0 0 0 0 0.530446 0 0 0 0 0.784098 0 0 0 1 0"/>
<feBlend mode="normal" in2="BackgroundImageFix" result="effect1_dropShadow_1771_89630"/>
<feBlend mode="normal" in="SourceGraphic" in2="effect1_dropShadow_1771_89630" result="shape"/>
<feGaussianBlur stdDeviation="1.35914" result="effect2_foregroundBlur_1771_89630"/>
</filter>
<filter id="filter1_f_1771_89630" x="-1.71828" y="1.28172" width="6.43656" height="17.4366" filterUnits="userSpaceOnUse" color-interpolation-filters="sRGB">
<feFlood flood-opacity="0" result="BackgroundImageFix"/>
<feBlend mode="normal" in="SourceGraphic" in2="BackgroundImageFix" result="shape"/>
<feGaussianBlur stdDeviation="1.35914" result="effect1_foregroundBlur_1771_89630"/>
</filter>
<filter id="filter2_f_1771_89630" x="12.2817" y="1.28172" width="6.43656" height="17.4366" filterUnits="userSpaceOnUse" color-interpolation-filters="sRGB">
<feFlood flood-opacity="0" result="BackgroundImageFix"/>
<feBlend mode="normal" in="SourceGraphic" in2="BackgroundImageFix" result="shape"/>
<feGaussianBlur stdDeviation="1.35914" result="effect1_foregroundBlur_1771_89630"/>
</filter>
<linearGradient id="paint0_linear_1771_89630" x1="1.5" y1="1.5" x2="1.5" y2="14.5" gradientUnits="userSpaceOnUse">
<stop offset="0.000158361" stop-color="#6298C9"/>
<stop offset="0.270858" stop-color="#4DABE2"/>
<stop offset="1" stop-color="#5E9CDE"/>
</linearGradient>
<linearGradient id="paint1_linear_1771_89630" x1="1.5" y1="2" x2="1.5" y2="14.5" gradientUnits="userSpaceOnUse">
<stop offset="0.000158361" stop-color="#6298C9"/>
<stop offset="0.270858" stop-color="#4DABE2"/>
<stop offset="1" stop-color="#5E9CDE"/>
</linearGradient>
<linearGradient id="paint2_linear_1771_89630" x1="1" y1="5" x2="1" y2="7" gradientUnits="userSpaceOnUse">
<stop offset="0.000158361" stop-color="#1E6293"/>
<stop offset="1" stop-color="#17659D"/>
</linearGradient>
<radialGradient id="paint3_radial_1771_89630" cx="0" cy="0" r="1" gradientUnits="userSpaceOnUse" gradientTransform="translate(8 7.16848) rotate(90) scale(7.33152 10.0326)">
<stop stop-color="white" stop-opacity="0.278354"/>
<stop offset="1" stop-color="white" stop-opacity="0.01"/>
</radialGradient>
</defs>
</svg>
