<svg width="14" height="14" viewBox="0 0 14 14" fill="none" xmlns="http://www.w3.org/2000/svg">
<path fill-rule="evenodd" clip-rule="evenodd" d="M0.5 2.1C0.5 1.53995 0.5 1.25992 0.608993 1.04601C0.704867 0.857847 0.857847 0.704867 1.04601 0.608993C1.25992 0.5 1.53995 0.5 2.1 0.5H3.61365C3.94356 0.5 4.10851 0.5 4.26887 0.526227C4.41123 0.549512 4.55065 0.58813 4.6847 0.641408C4.8357 0.701418 4.97714 0.786286 5.26004 0.956023L6.23996 1.54398C6.52286 1.71371 6.6643 1.79858 6.8153 1.85859C6.94935 1.91187 7.08877 1.95049 7.23113 1.97377C7.39149 2 7.55644 2 7.88635 2H11.58C12.2521 2 12.5881 2 12.8448 2.13079C13.0706 2.24584 13.2542 2.42942 13.3692 2.65521C13.5 2.91191 13.5 3.24794 13.5 3.92V11.1C13.5 11.9401 13.5 12.3601 13.3365 12.681C13.1927 12.9632 12.9632 13.1927 12.681 13.3365C12.3601 13.5 11.9401 13.5 11.1 13.5H2.9C2.05992 13.5 1.63988 13.5 1.31901 13.3365C1.03677 13.1927 0.8073 12.9632 0.66349 12.681C0.5 12.3601 0.5 11.9401 0.5 11.1L0.5 2.1Z" fill="url(#paint0_linear_1203_166234)"/>
<path d="M0.75 2.1C0.75 1.81585 0.750194 1.61777 0.762794 1.46356C0.775155 1.31227 0.798199 1.22535 0.831745 1.15951C0.90365 1.01839 1.01839 0.90365 1.15951 0.831745C1.22535 0.798199 1.31227 0.775155 1.46356 0.762794C1.61777 0.750194 1.81585 0.75 2.1 0.75H3.61365C3.95141 0.75 4.0928 0.750752 4.22851 0.772949C4.35308 0.793323 4.47507 0.827114 4.59237 0.873732C4.72016 0.92452 4.84178 0.996618 5.13141 1.1704L6.11134 1.75835L6.13095 1.77012C6.39522 1.9287 6.55293 2.02334 6.72296 2.09092C6.87377 2.15085 7.03062 2.1943 7.19078 2.22049C7.37135 2.25003 7.55528 2.25002 7.86347 2.25L7.88635 2.25H11.58C11.9202 2.25 12.1602 2.25019 12.3478 2.26552C12.5324 2.2806 12.6441 2.3091 12.7313 2.35354C12.91 2.44462 13.0554 2.58995 13.1465 2.76871C13.1909 2.85594 13.2194 2.96756 13.2345 3.1522C13.2498 3.33976 13.25 3.57984 13.25 3.92V11.1C13.25 11.5242 13.2498 11.8273 13.2304 12.0648C13.2112 12.2995 13.1746 12.4482 13.1138 12.5675C12.9939 12.8027 12.8027 12.9939 12.5675 13.1138C12.4482 13.1746 12.2995 13.2112 12.0648 13.2304C11.8273 13.2498 11.5242 13.25 11.1 13.25H2.9C2.47584 13.25 2.17275 13.2498 1.93516 13.2304C1.70049 13.2112 1.55183 13.1746 1.43251 13.1138C1.19731 12.9939 1.00608 12.8027 0.886242 12.5675C0.825447 12.4482 0.788779 12.2995 0.769606 12.0648C0.750194 11.8273 0.75 11.5242 0.75 11.1V2.1Z" stroke="#074163" stroke-opacity="0.22" stroke-width="0.5"/>
<path d="M5.14646 1.04318L5.07264 1.22774L5.14646 1.04318L5.13419 1.03827C4.93203 0.957399 4.81526 0.910688 4.69391 0.877579C4.58618 0.848186 4.47637 0.827038 4.36542 0.814318C4.24046 0.799991 4.11469 0.799994 3.89696 0.8L3.88374 0.8H2.1L2.09125 0.8C1.81864 0.799998 1.60183 0.799997 1.42692 0.814288C1.2478 0.828923 1.09506 0.859535 0.955211 0.930792C0.729417 1.04584 0.54584 1.22942 0.430792 1.45521C0.359535 1.59506 0.328923 1.7478 0.314288 1.92692C0.299997 2.10183 0.299998 2.31864 0.3 2.59125L0.3 2.6V11.1L0.3 11.109C0.299999 11.5214 0.299998 11.8432 0.3211 12.1015C0.342547 12.364 0.386784 12.5785 0.485289 12.7718C0.648274 13.0917 0.908341 13.3517 1.22822 13.5147C1.42154 13.6132 1.63602 13.6575 1.89852 13.6789C2.1568 13.7 2.47858 13.7 2.89099 13.7H2.9H11.1H11.109C11.5214 13.7 11.8432 13.7 12.1015 13.6789C12.364 13.6575 12.5785 13.6132 12.7718 13.5147C13.0917 13.3517 13.3517 13.0917 13.5147 12.7718C13.6132 12.5785 13.6575 12.364 13.6789 12.1015C13.7 11.8432 13.7 11.5214 13.7 11.109V11.1V3.98837V3.97956C13.7 3.65548 13.7 3.4001 13.6833 3.19437C13.6663 2.98443 13.6308 2.80895 13.5502 2.649C13.4185 2.38752 13.208 2.17393 12.9485 2.03829C12.7898 1.95532 12.6149 1.9173 12.4052 1.89713C12.1998 1.87736 11.9444 1.87356 11.6204 1.86874L11.6115 1.86861L7.59452 1.80883C7.36928 1.80547 7.2714 1.80374 7.17583 1.79178C7.08872 1.78087 7.00253 1.7636 6.91794 1.74012C6.82513 1.71435 6.73414 1.67825 6.52499 1.59459L5.14646 1.04318Z" fill="url(#paint1_linear_1203_166234)" stroke="#2880B4" stroke-width="0.4"/>
<mask id="mask0_1203_166234" style="mask-type:luminance" maskUnits="userSpaceOnUse" x="0" y="0" width="14" height="14">
<path d="M5.14646 1.04318L5.07264 1.22774L5.14646 1.04318L5.13419 1.03827C4.93203 0.957399 4.81526 0.910688 4.69391 0.877579C4.58618 0.848186 4.47637 0.827038 4.36542 0.814318C4.24046 0.799991 4.11469 0.799994 3.89696 0.8L3.88374 0.8H2.1L2.09125 0.8C1.81864 0.799998 1.60183 0.799997 1.42692 0.814288C1.2478 0.828923 1.09506 0.859535 0.955211 0.930792C0.729417 1.04584 0.54584 1.22942 0.430792 1.45521C0.359535 1.59506 0.328923 1.7478 0.314288 1.92692C0.299997 2.10183 0.299998 2.31864 0.3 2.59125L0.3 2.6V11.1L0.3 11.109C0.299999 11.5214 0.299998 11.8432 0.3211 12.1015C0.342547 12.364 0.386784 12.5785 0.485289 12.7718C0.648274 13.0917 0.908341 13.3517 1.22822 13.5147C1.42154 13.6132 1.63602 13.6575 1.89852 13.6789C2.1568 13.7 2.47858 13.7 2.89099 13.7H2.9H11.1H11.109C11.5214 13.7 11.8432 13.7 12.1015 13.6789C12.364 13.6575 12.5785 13.6132 12.7718 13.5147C13.0917 13.3517 13.3517 13.0917 13.5147 12.7718C13.6132 12.5785 13.6575 12.364 13.6789 12.1015C13.7 11.8432 13.7 11.5214 13.7 11.109V11.1V3.98837V3.97956C13.7 3.65548 13.7 3.4001 13.6833 3.19437C13.6663 2.98443 13.6308 2.80895 13.5502 2.649C13.4185 2.38752 13.208 2.17393 12.9485 2.03829C12.7898 1.95532 12.6149 1.9173 12.4052 1.89713C12.1998 1.87736 11.9444 1.87356 11.6204 1.86874L11.6115 1.86861L7.59452 1.80883C7.36928 1.80547 7.2714 1.80374 7.17583 1.79178C7.08872 1.78087 7.00253 1.7636 6.91794 1.74012C6.82513 1.71435 6.73414 1.67825 6.52499 1.59459L5.14646 1.04318Z" fill="white" stroke="white" stroke-width="0.4"/>
</mask>
<g mask="url(#mask0_1203_166234)">
<g style="mix-blend-mode:darken" filter="url(#filter0_df_1203_166234)">
<rect y="4" width="14" height="2" rx="1" fill="url(#paint2_linear_1203_166234)"/>
</g>
<path fill-rule="evenodd" clip-rule="evenodd" d="M0.5 5.6C0.5 5.03995 0.5 4.75992 0.608993 4.54601C0.704867 4.35785 0.857847 4.20487 1.04601 4.10899C1.25992 4 1.53995 4 2.1 4H11.9C12.4601 4 12.7401 4 12.954 4.10899C13.1422 4.20487 13.2951 4.35785 13.391 4.54601C13.5 4.75992 13.5 5.03995 13.5 5.6V11.1C13.5 11.9401 13.5 12.3601 13.3365 12.681C13.1927 12.9632 12.9632 13.1927 12.681 13.3365C12.3601 13.5 11.9401 13.5 11.1 13.5H2.9C2.05992 13.5 1.63988 13.5 1.31901 13.3365C1.03677 13.1927 0.8073 12.9632 0.66349 12.681C0.5 12.3601 0.5 11.9401 0.5 11.1V5.6Z" fill="#73D0FA"/>
<path fill-rule="evenodd" clip-rule="evenodd" d="M0.5 5.6C0.5 5.03995 0.5 4.75992 0.608993 4.54601C0.704867 4.35785 0.857847 4.20487 1.04601 4.10899C1.25992 4 1.53995 4 2.1 4H11.9C12.4601 4 12.7401 4 12.954 4.10899C13.1422 4.20487 13.2951 4.35785 13.391 4.54601C13.5 4.75992 13.5 5.03995 13.5 5.6V11.1C13.5 11.9401 13.5 12.3601 13.3365 12.681C13.1927 12.9632 12.9632 13.1927 12.681 13.3365C12.3601 13.5 11.9401 13.5 11.1 13.5H2.9C2.05992 13.5 1.63988 13.5 1.31901 13.3365C1.03677 13.1927 0.8073 12.9632 0.66349 12.681C0.5 12.3601 0.5 11.9401 0.5 11.1V5.6Z" fill="url(#paint3_radial_1203_166234)" fill-opacity="0.55"/>
<path d="M0.625 5.6C0.625 5.31791 0.625097 5.11386 0.638209 4.95338C0.651202 4.79436 0.676348 4.68916 0.720369 4.60276C0.804258 4.43812 0.938116 4.30426 1.10276 4.22037C1.18916 4.17635 1.29436 4.1512 1.45338 4.13821C1.61386 4.1251 1.81791 4.125 2.1 4.125H11.9C12.1821 4.125 12.3861 4.1251 12.5466 4.13821C12.7056 4.1512 12.8108 4.17635 12.8972 4.22037C13.0619 4.30426 13.1957 4.43812 13.2796 4.60276C13.3237 4.68916 13.3488 4.79436 13.3618 4.95338C13.3749 5.11386 13.375 5.31791 13.375 5.6V11.1C13.375 11.5221 13.3749 11.8312 13.355 12.075C13.3352 12.3174 13.2964 12.4844 13.2251 12.6242C13.0933 12.883 12.883 13.0933 12.6242 13.2251C12.4844 13.2964 12.3174 13.3352 12.075 13.355C11.8312 13.3749 11.5221 13.375 11.1 13.375H2.9C2.4779 13.375 2.16884 13.3749 1.92498 13.355C1.68258 13.3352 1.51564 13.2964 1.37576 13.2251C1.11704 13.0933 0.906692 12.883 0.774866 12.6242C0.703596 12.4844 0.664826 12.3174 0.645021 12.075C0.625097 11.8312 0.625 11.5221 0.625 11.1V5.6Z" stroke="#B6E4FF" stroke-opacity="0.44" stroke-width="0.25"/>
<g opacity="0.7008" filter="url(#filter1_f_1203_166234)">
<rect y="3" width="1" height="12" fill="#73AED2"/>
</g>
<g opacity="0.7008" filter="url(#filter2_f_1203_166234)">
<rect x="14" y="3" width="1" height="12" fill="#73AED2"/>
</g>
</g>
<defs>
<filter id="filter0_df_1203_166234" x="-2.71828" y="1.28172" width="19.4366" height="7.71828" filterUnits="userSpaceOnUse" color-interpolation-filters="sRGB">
<feFlood flood-opacity="0" result="BackgroundImageFix"/>
<feColorMatrix in="SourceAlpha" type="matrix" values="0 0 0 0 0 0 0 0 0 0 0 0 0 0 0 0 0 0 127 0" result="hardAlpha"/>
<feOffset dy="1"/>
<feGaussianBlur stdDeviation="1"/>
<feColorMatrix type="matrix" values="0 0 0 0 0.243148 0 0 0 0 0.530446 0 0 0 0 0.784098 0 0 0 1 0"/>
<feBlend mode="normal" in2="BackgroundImageFix" result="effect1_dropShadow_1203_166234"/>
<feBlend mode="normal" in="SourceGraphic" in2="effect1_dropShadow_1203_166234" result="shape"/>
<feGaussianBlur stdDeviation="1.35914" result="effect2_foregroundBlur_1203_166234"/>
</filter>
<filter id="filter1_f_1203_166234" x="-2.71828" y="0.281718" width="6.43656" height="17.4366" filterUnits="userSpaceOnUse" color-interpolation-filters="sRGB">
<feFlood flood-opacity="0" result="BackgroundImageFix"/>
<feBlend mode="normal" in="SourceGraphic" in2="BackgroundImageFix" result="shape"/>
<feGaussianBlur stdDeviation="1.35914" result="effect1_foregroundBlur_1203_166234"/>
</filter>
<filter id="filter2_f_1203_166234" x="11.2817" y="0.281718" width="6.43656" height="17.4366" filterUnits="userSpaceOnUse" color-interpolation-filters="sRGB">
<feFlood flood-opacity="0" result="BackgroundImageFix"/>
<feBlend mode="normal" in="SourceGraphic" in2="BackgroundImageFix" result="shape"/>
<feGaussianBlur stdDeviation="1.35914" result="effect1_foregroundBlur_1203_166234"/>
</filter>
<linearGradient id="paint0_linear_1203_166234" x1="0.5" y1="0.5" x2="0.5" y2="13.5" gradientUnits="userSpaceOnUse">
<stop offset="0.000158361" stop-color="#6298C9"/>
<stop offset="0.270858" stop-color="#4DABE2"/>
<stop offset="1" stop-color="#5E9CDE"/>
</linearGradient>
<linearGradient id="paint1_linear_1203_166234" x1="0.5" y1="1" x2="0.5" y2="13.5" gradientUnits="userSpaceOnUse">
<stop offset="0.000158361" stop-color="#6298C9"/>
<stop offset="0.270858" stop-color="#4DABE2"/>
<stop offset="1" stop-color="#5E9CDE"/>
</linearGradient>
<linearGradient id="paint2_linear_1203_166234" x1="0" y1="4" x2="0" y2="6" gradientUnits="userSpaceOnUse">
<stop offset="0.000158361" stop-color="#1E6293"/>
<stop offset="1" stop-color="#17659D"/>
</linearGradient>
<radialGradient id="paint3_radial_1203_166234" cx="0" cy="0" r="1" gradientUnits="userSpaceOnUse" gradientTransform="translate(7 6.16848) rotate(90) scale(7.33152 10.0326)">
<stop stop-color="white" stop-opacity="0.278354"/>
<stop offset="1" stop-color="white" stop-opacity="0.01"/>
</radialGradient>
</defs>
</svg>
