<svg width="208" height="104" viewBox="0 0 208 104" fill="none" xmlns="http://www.w3.org/2000/svg">
<path fill-rule="evenodd" clip-rule="evenodd" d="M20.75 4.00002C20.75 2.75737 21.7574 1.75 23 1.75H26.7932C27.3122 1.75 27.81 1.9562 28.1769 2.32324C28.4501 2.59649 28.8207 2.75 29.2071 2.75H33.0001C34.2427 2.75 35.2501 3.75736 35.2501 5V12C35.2501 13.2426 34.2427 14.25 33.0001 14.25H23.0001C21.7574 14.25 20.7501 13.2427 20.7501 12L20.75 4.00002ZM23.0002 4.25C22.5859 4.25 22.2502 4.58579 22.2502 5V12C22.2502 12.4142 22.5859 12.75 23.0002 12.75H33.0002C33.4144 12.75 33.7502 12.4142 33.7502 12V5C33.7502 4.58579 33.4144 4.25 33.0002 4.25H23.0002Z" fill="#04101E"/>
<path d="M46.98 7H46.0993C46.0473 6.74669 45.9561 6.52415 45.8259 6.33239C45.6981 6.14062 45.5418 5.97964 45.3572 5.84943C45.1749 5.71686 44.9724 5.61742 44.7499 5.55114C44.5274 5.48485 44.2954 5.4517 44.0539 5.4517C43.6135 5.4517 43.2146 5.56297 42.8572 5.78551C42.502 6.00805 42.2191 6.33594 42.0084 6.76918C41.8001 7.20241 41.6959 7.7339 41.6959 8.36364C41.6959 8.99337 41.8001 9.52486 42.0084 9.9581C42.2191 10.3913 42.502 10.7192 42.8572 10.9418C43.2146 11.1643 43.6135 11.2756 44.0539 11.2756C44.2954 11.2756 44.5274 11.2424 44.7499 11.1761C44.9724 11.1098 45.1749 11.0116 45.3572 10.8814C45.5418 10.7488 45.6981 10.5866 45.8259 10.3949C45.9561 10.2008 46.0473 9.97822 46.0993 9.72727H46.98C46.9137 10.099 46.793 10.4316 46.6178 10.7251C46.4426 11.0187 46.2248 11.2685 45.9644 11.4744C45.704 11.678 45.4116 11.8331 45.0873 11.9396C44.7653 12.0462 44.4208 12.0994 44.0539 12.0994C43.4336 12.0994 42.882 11.9479 42.3991 11.6449C41.9161 11.3419 41.5361 10.911 41.2591 10.3523C40.9822 9.79356 40.8437 9.13068 40.8437 8.36364C40.8437 7.59659 40.9822 6.93371 41.2591 6.375C41.5361 5.81629 41.9161 5.38542 42.3991 5.08239C42.882 4.77936 43.4336 4.62784 44.0539 4.62784C44.4208 4.62784 44.7653 4.68111 45.0873 4.78764C45.4116 4.89418 45.704 5.05043 45.9644 5.25639C46.2248 5.45999 46.4426 5.70857 46.6178 6.00213C46.793 6.29332 46.9137 6.62595 46.98 7ZM49.8946 12.1278C49.549 12.1278 49.2353 12.0627 48.9536 11.9325C48.6718 11.8 48.4481 11.6094 48.2824 11.3608C48.1167 11.1098 48.0338 10.8068 48.0338 10.4517C48.0338 10.1392 48.0954 9.88589 48.2185 9.69176C48.3416 9.49527 48.5061 9.34138 48.7121 9.23011C48.9181 9.11884 49.1453 9.03598 49.3939 8.98153C49.6449 8.92472 49.897 8.87973 50.1503 8.84659C50.4817 8.80398 50.7504 8.77202 50.9564 8.75071C51.1647 8.72704 51.3163 8.68797 51.411 8.63352C51.508 8.57907 51.5566 8.48437 51.5566 8.34943V8.32102C51.5566 7.97064 51.4607 7.69839 51.2689 7.50426C51.0795 7.31013 50.7919 7.21307 50.406 7.21307C50.0059 7.21307 49.6922 7.30066 49.4649 7.47585C49.2377 7.65104 49.0779 7.83807 48.9855 8.03693L48.1901 7.75284C48.3321 7.4214 48.5215 7.16335 48.7583 6.97869C48.9974 6.79167 49.2578 6.66146 49.5395 6.58807C49.8236 6.51231 50.103 6.47443 50.3776 6.47443C50.5528 6.47443 50.754 6.49574 50.9813 6.53835C51.2109 6.5786 51.4323 6.66264 51.6453 6.79048C51.8608 6.91832 52.0395 7.11127 52.1816 7.36932C52.3236 7.62737 52.3946 7.97301 52.3946 8.40625V12H51.5566V11.2614H51.5139C51.4571 11.3797 51.3624 11.5064 51.2298 11.6413C51.0973 11.7763 50.9209 11.8911 50.7007 11.9858C50.4806 12.0805 50.2119 12.1278 49.8946 12.1278ZM50.0225 11.375C50.3539 11.375 50.6333 11.3099 50.8605 11.1797C51.0902 11.0495 51.263 10.8814 51.379 10.6754C51.4974 10.4695 51.5566 10.2528 51.5566 10.0256V9.25852C51.521 9.30114 51.4429 9.3402 51.3222 9.37571C51.2038 9.40885 51.0665 9.43845 50.9102 9.46449C50.7564 9.48816 50.606 9.50947 50.4593 9.52841C50.3148 9.54498 50.1977 9.55919 50.1077 9.57102C49.8899 9.59943 49.6863 9.6456 49.4969 9.70952C49.3099 9.77107 49.1584 9.86458 49.0423 9.99006C48.9287 10.1132 48.8719 10.2812 48.8719 10.4943C48.8719 10.7855 48.9796 11.0057 49.195 11.1548C49.4128 11.3016 49.6887 11.375 50.0225 11.375ZM53.9243 12V6.54545H54.7339V7.39773H54.805C54.9186 7.10653 55.1021 6.88045 55.3554 6.71946C55.6087 6.55611 55.9129 6.47443 56.268 6.47443C56.6279 6.47443 56.9273 6.55611 57.1665 6.71946C57.4079 6.88045 57.5961 7.10653 57.7311 7.39773H57.7879C57.9276 7.116 58.1371 6.89228 58.4165 6.72656C58.6958 6.55848 59.0308 6.47443 59.4214 6.47443C59.9091 6.47443 60.308 6.62713 60.6182 6.93253C60.9283 7.23556 61.0834 7.70786 61.0834 8.34943V12H60.2453V8.34943C60.2453 7.94697 60.1352 7.65933 59.915 7.48651C59.6949 7.31368 59.4356 7.22727 59.1373 7.22727C58.7538 7.22727 58.4567 7.34328 58.246 7.57528C58.0353 7.80492 57.93 8.09612 57.93 8.44886V12H57.0777V8.2642C57.0777 7.95407 56.9771 7.70431 56.7758 7.51491C56.5746 7.32315 56.3154 7.22727 55.9981 7.22727C55.7803 7.22727 55.5767 7.28527 55.3873 7.40128C55.2003 7.51728 55.0488 7.67827 54.9328 7.88423C54.8192 8.08783 54.7623 8.32339 54.7623 8.59091V12H53.9243ZM64.9026 12.1136C64.377 12.1136 63.9237 11.9976 63.5425 11.7656C63.1637 11.5312 62.8714 11.2045 62.6654 10.7855C62.4618 10.3641 62.36 9.87405 62.36 9.31534C62.36 8.75663 62.4618 8.2642 62.6654 7.83807C62.8714 7.40956 63.1578 7.07576 63.5248 6.83665C63.8941 6.59517 64.325 6.47443 64.8174 6.47443C65.1015 6.47443 65.382 6.52178 65.659 6.61648C65.936 6.71117 66.1881 6.86506 66.4154 7.07812C66.6427 7.28883 66.8238 7.56818 66.9587 7.91619C67.0937 8.2642 67.1611 8.69271 67.1611 9.2017V9.55682H62.9566V8.83239H66.3089C66.3089 8.52462 66.2473 8.25 66.1242 8.00852C66.0035 7.76705 65.8306 7.57647 65.6057 7.43679C65.3832 7.29711 65.1204 7.22727 64.8174 7.22727C64.4836 7.22727 64.1948 7.31013 63.9509 7.47585C63.7094 7.6392 63.5236 7.85227 63.3934 8.11506C63.2632 8.37784 63.1981 8.65956 63.1981 8.96023V9.44318C63.1981 9.85511 63.2691 10.2043 63.4111 10.4908C63.5555 10.7749 63.7556 10.9915 64.0113 11.1406C64.267 11.2874 64.5641 11.3608 64.9026 11.3608C65.1228 11.3608 65.3216 11.33 65.4992 11.2685C65.6791 11.2045 65.8342 11.1098 65.9644 10.9844C66.0946 10.8565 66.1952 10.6979 66.2662 10.5085L67.0759 10.7358C66.9907 11.0104 66.8474 11.2519 66.6462 11.4602C66.445 11.6662 66.1964 11.8272 65.9005 11.9432C65.6046 12.0568 65.2719 12.1136 64.9026 12.1136ZM68.436 12V6.54545H69.2456V7.36932H69.3025C69.4019 7.09943 69.5818 6.88045 69.8422 6.71236C70.1027 6.54427 70.3962 6.46023 70.7229 6.46023C70.7845 6.46023 70.8614 6.46141 70.9537 6.46378C71.0461 6.46615 71.1159 6.4697 71.1633 6.47443V7.3267C71.1349 7.3196 71.0698 7.30895 70.968 7.29474C70.8685 7.27817 70.7632 7.26989 70.6519 7.26989C70.3867 7.26989 70.15 7.32552 69.9417 7.43679C69.7357 7.54569 69.5724 7.69721 69.4516 7.89134C69.3332 8.0831 69.2741 8.30208 69.2741 8.5483V12H68.436ZM73.7618 12.1278C73.4162 12.1278 73.1025 12.0627 72.8208 11.9325C72.539 11.8 72.3153 11.6094 72.1496 11.3608C71.9839 11.1098 71.901 10.8068 71.901 10.4517C71.901 10.1392 71.9626 9.88589 72.0857 9.69176C72.2088 9.49527 72.3733 9.34138 72.5793 9.23011C72.7852 9.11884 73.0125 9.03598 73.2611 8.98153C73.512 8.92472 73.7642 8.87973 74.0175 8.84659C74.3489 8.80398 74.6176 8.77202 74.8236 8.75071C75.0319 8.72704 75.1834 8.68797 75.2781 8.63352C75.3752 8.57907 75.4237 8.48437 75.4237 8.34943V8.32102C75.4237 7.97064 75.3279 7.69839 75.1361 7.50426C74.9467 7.31013 74.6591 7.21307 74.2732 7.21307C73.8731 7.21307 73.5594 7.30066 73.3321 7.47585C73.1048 7.65104 72.945 7.83807 72.8527 8.03693L72.0573 7.75284C72.1993 7.4214 72.3887 7.16335 72.6254 6.97869C72.8646 6.79167 73.125 6.66146 73.4067 6.58807C73.6908 6.51231 73.9701 6.47443 74.2448 6.47443C74.42 6.47443 74.6212 6.49574 74.8485 6.53835C75.0781 6.5786 75.2994 6.66264 75.5125 6.79048C75.728 6.91832 75.9067 7.11127 76.0487 7.36932C76.1908 7.62737 76.2618 7.97301 76.2618 8.40625V12H75.4237V11.2614H75.3811C75.3243 11.3797 75.2296 11.5064 75.097 11.6413C74.9645 11.7763 74.7881 11.8911 74.5679 11.9858C74.3477 12.0805 74.079 12.1278 73.7618 12.1278ZM73.8896 11.375C74.2211 11.375 74.5004 11.3099 74.7277 11.1797C74.9574 11.0495 75.1302 10.8814 75.2462 10.6754C75.3646 10.4695 75.4237 10.2528 75.4237 10.0256V9.25852C75.3882 9.30114 75.3101 9.3402 75.1894 9.37571C75.071 9.40885 74.9337 9.43845 74.7774 9.46449C74.6235 9.48816 74.4732 9.50947 74.3264 9.52841C74.182 9.54498 74.0648 9.55919 73.9749 9.57102C73.7571 9.59943 73.5535 9.6456 73.3641 9.70952C73.1771 9.77107 73.0255 9.86458 72.9095 9.99006C72.7959 10.1132 72.7391 10.2812 72.7391 10.4943C72.7391 10.7855 72.8468 11.0057 73.0622 11.1548C73.28 11.3016 73.5558 11.375 73.8896 11.375ZM85.4903 4.72727H86.371V9.54261C86.371 10.0398 86.2538 10.4837 86.0194 10.8743C85.7874 11.2625 85.4595 11.5691 85.0358 11.794C84.612 12.0166 84.1148 12.1278 83.5443 12.1278C82.9738 12.1278 82.4766 12.0166 82.0528 11.794C81.6291 11.5691 81.3 11.2625 81.0656 10.8743C80.8336 10.4837 80.7176 10.0398 80.7176 9.54261V4.72727H81.5983V9.47159C81.5983 9.8267 81.6764 10.1428 81.8327 10.4197C81.9889 10.6944 82.2114 10.911 82.5003 11.0696C82.7915 11.2259 83.1395 11.304 83.5443 11.304C83.9491 11.304 84.2971 11.2259 84.5883 11.0696C84.8795 10.911 85.1021 10.6944 85.2559 10.4197C85.4122 10.1428 85.4903 9.8267 85.4903 9.47159V4.72727ZM88.0161 14.0455V6.54545H88.8257V7.41193H88.9252C88.9867 7.31723 89.0719 7.1965 89.1808 7.04972C89.2921 6.90057 89.4507 6.76799 89.6567 6.65199C89.865 6.53362 90.1468 6.47443 90.5019 6.47443C90.9611 6.47443 91.366 6.58925 91.7164 6.81889C92.0667 7.04853 92.3402 7.37405 92.5367 7.79545C92.7332 8.21686 92.8314 8.71402 92.8314 9.28693C92.8314 9.86458 92.7332 10.3653 92.5367 10.7891C92.3402 11.2105 92.0679 11.5372 91.7199 11.7692C91.3719 11.9988 90.9706 12.1136 90.5161 12.1136C90.1657 12.1136 89.8852 12.0556 89.6744 11.9396C89.4637 11.8213 89.3016 11.6875 89.1879 11.5384C89.0743 11.3868 88.9867 11.2614 88.9252 11.1619H88.8541V14.0455H88.0161ZM88.8399 9.27273C88.8399 9.68466 88.9003 10.0481 89.021 10.3629C89.1418 10.6754 89.3182 10.9205 89.5502 11.098C89.7822 11.2732 90.0663 11.3608 90.4024 11.3608C90.7528 11.3608 91.0452 11.2685 91.2796 11.0838C91.5163 10.8968 91.6939 10.6458 91.8122 10.331C91.933 10.0137 91.9933 9.66098 91.9933 9.27273C91.9933 8.8892 91.9342 8.54356 91.8158 8.2358C91.6998 7.92566 91.5234 7.68063 91.2867 7.50071C91.0523 7.31842 90.7575 7.22727 90.4024 7.22727C90.0615 7.22727 89.7751 7.31368 89.5431 7.48651C89.3111 7.65696 89.1359 7.89607 89.0175 8.20384C88.8991 8.50923 88.8399 8.86553 88.8399 9.27273ZM94.9479 4.72727V12H94.1098V4.72727H94.9479ZM98.6988 12.1136C98.2064 12.1136 97.7743 11.9964 97.4026 11.7621C97.0333 11.5277 96.7445 11.1998 96.5361 10.7784C96.3302 10.357 96.2272 9.86458 96.2272 9.30114C96.2272 8.73295 96.3302 8.23698 96.5361 7.81321C96.7445 7.38944 97.0333 7.06037 97.4026 6.82599C97.7743 6.59162 98.2064 6.47443 98.6988 6.47443C99.1912 6.47443 99.6221 6.59162 99.9914 6.82599C100.363 7.06037 100.652 7.38944 100.858 7.81321C101.066 8.23698 101.17 8.73295 101.17 9.30114C101.17 9.86458 101.066 10.357 100.858 10.7784C100.652 11.1998 100.363 11.5277 99.9914 11.7621C99.6221 11.9964 99.1912 12.1136 98.6988 12.1136ZM98.6988 11.3608C99.0728 11.3608 99.3806 11.2649 99.6221 11.0732C99.8635 10.8814 100.042 10.6293 100.158 10.3168C100.274 10.0043 100.332 9.66572 100.332 9.30114C100.332 8.93655 100.274 8.59683 100.158 8.28196C100.042 7.96709 99.8635 7.71259 99.6221 7.51847C99.3806 7.32434 99.0728 7.22727 98.6988 7.22727C98.3247 7.22727 98.017 7.32434 97.7755 7.51847C97.534 7.71259 97.3553 7.96709 97.2393 8.28196C97.1233 8.59683 97.0653 8.93655 97.0653 9.30114C97.0653 9.66572 97.1233 10.0043 97.2393 10.3168C97.3553 10.6293 97.534 10.8814 97.7755 11.0732C98.017 11.2649 98.3247 11.3608 98.6988 11.3608ZM104.055 12.1278C103.709 12.1278 103.395 12.0627 103.114 11.9325C102.832 11.8 102.608 11.6094 102.443 11.3608C102.277 11.1098 102.194 10.8068 102.194 10.4517C102.194 10.1392 102.256 9.88589 102.379 9.69176C102.502 9.49527 102.666 9.34138 102.872 9.23011C103.078 9.11884 103.305 9.03598 103.554 8.98153C103.805 8.92472 104.057 8.87973 104.31 8.84659C104.642 8.80398 104.911 8.77202 105.117 8.75071C105.325 8.72704 105.476 8.68797 105.571 8.63352C105.668 8.57907 105.717 8.48437 105.717 8.34943V8.32102C105.717 7.97064 105.621 7.69839 105.429 7.50426C105.24 7.31013 104.952 7.21307 104.566 7.21307C104.166 7.21307 103.852 7.30066 103.625 7.47585C103.398 7.65104 103.238 7.83807 103.146 8.03693L102.35 7.75284C102.492 7.4214 102.682 7.16335 102.918 6.97869C103.158 6.79167 103.418 6.66146 103.7 6.58807C103.984 6.51231 104.263 6.47443 104.538 6.47443C104.713 6.47443 104.914 6.49574 105.141 6.53835C105.371 6.5786 105.592 6.66264 105.805 6.79048C106.021 6.91832 106.2 7.11127 106.342 7.36932C106.484 7.62737 106.555 7.97301 106.555 8.40625V12H105.717V11.2614H105.674C105.617 11.3797 105.523 11.5064 105.39 11.6413C105.257 11.7763 105.081 11.8911 104.861 11.9858C104.641 12.0805 104.372 12.1278 104.055 12.1278ZM104.183 11.375C104.514 11.375 104.793 11.3099 105.021 11.1797C105.25 11.0495 105.423 10.8814 105.539 10.6754C105.658 10.4695 105.717 10.2528 105.717 10.0256V9.25852C105.681 9.30114 105.603 9.3402 105.482 9.37571C105.364 9.40885 105.227 9.43845 105.07 9.46449C104.917 9.48816 104.766 9.50947 104.619 9.52841C104.475 9.54498 104.358 9.55919 104.268 9.57102C104.05 9.59943 103.846 9.6456 103.657 9.70952C103.47 9.77107 103.319 9.86458 103.203 9.99006C103.089 10.1132 103.032 10.2812 103.032 10.4943C103.032 10.7855 103.14 11.0057 103.355 11.1548C103.573 11.3016 103.849 11.375 104.183 11.375ZM110.144 12.1136C109.69 12.1136 109.288 11.9988 108.94 11.7692C108.592 11.5372 108.32 11.2105 108.123 10.7891C107.927 10.3653 107.829 9.86458 107.829 9.28693C107.829 8.71402 107.927 8.21686 108.123 7.79545C108.32 7.37405 108.593 7.04853 108.944 6.81889C109.294 6.58925 109.699 6.47443 110.158 6.47443C110.513 6.47443 110.794 6.53362 111 6.65199C111.208 6.76799 111.367 6.90057 111.476 7.04972C111.587 7.1965 111.673 7.31723 111.735 7.41193H111.806V4.72727H112.644V12H111.834V11.1619H111.735C111.673 11.2614 111.586 11.3868 111.472 11.5384C111.359 11.6875 111.196 11.8213 110.986 11.9396C110.775 12.0556 110.494 12.1136 110.144 12.1136ZM110.258 11.3608C110.594 11.3608 110.878 11.2732 111.11 11.098C111.342 10.9205 111.518 10.6754 111.639 10.3629C111.76 10.0481 111.82 9.68466 111.82 9.27273C111.82 8.86553 111.761 8.50923 111.643 8.20384C111.524 7.89607 111.349 7.65696 111.117 7.48651C110.885 7.31368 110.599 7.22727 110.258 7.22727C109.903 7.22727 109.607 7.31842 109.37 7.50071C109.136 7.68063 108.959 7.92566 108.841 8.2358C108.725 8.54356 108.667 8.8892 108.667 9.27273C108.667 9.66098 108.726 10.0137 108.844 10.331C108.965 10.6458 109.143 10.8968 109.377 11.0838C109.614 11.2685 109.907 11.3608 110.258 11.3608ZM118.159 7.76705L117.406 7.98011C117.359 7.85464 117.289 7.73272 117.197 7.61435C117.107 7.49361 116.984 7.39418 116.827 7.31605C116.671 7.23793 116.471 7.19886 116.227 7.19886C115.893 7.19886 115.615 7.2758 115.393 7.42969C115.172 7.5812 115.062 7.77415 115.062 8.00852C115.062 8.21686 115.138 8.38139 115.29 8.50213C115.441 8.62287 115.678 8.72348 116 8.80398L116.81 9.00284C117.297 9.12121 117.661 9.30232 117.9 9.54616C118.139 9.78764 118.258 10.099 118.258 10.4801C118.258 10.7926 118.168 11.072 117.989 11.3182C117.811 11.5644 117.562 11.7585 117.243 11.9006C116.923 12.0426 116.552 12.1136 116.128 12.1136C115.571 12.1136 115.111 11.9929 114.746 11.7514C114.382 11.5099 114.151 11.1572 114.054 10.6932L114.849 10.4943C114.925 10.7879 115.068 11.008 115.279 11.1548C115.492 11.3016 115.77 11.375 116.114 11.375C116.504 11.375 116.814 11.2921 117.044 11.1264C117.276 10.9583 117.392 10.7571 117.392 10.5227C117.392 10.3333 117.326 10.1747 117.193 10.0469C117.061 9.91667 116.857 9.8196 116.582 9.75568L115.673 9.54261C115.174 9.42424 114.807 9.24077 114.572 8.99219C114.34 8.74124 114.224 8.42756 114.224 8.05114C114.224 7.74337 114.311 7.47112 114.484 7.23438C114.659 6.99763 114.897 6.81179 115.197 6.67685C115.5 6.5419 115.844 6.47443 116.227 6.47443C116.767 6.47443 117.191 6.5928 117.498 6.82955C117.809 7.06629 118.029 7.37879 118.159 7.76705Z" fill="black"/>
<path fill-rule="evenodd" clip-rule="evenodd" d="M204.854 4.64645C205.049 4.84171 205.049 5.15829 204.854 5.35355L198.354 11.8536C198.158 12.0488 197.842 12.0488 197.647 11.8536L195.147 9.35355C194.951 9.15829 194.951 8.84171 195.147 8.64645C195.342 8.45118 195.658 8.45118 195.854 8.64645L198 10.7929L204.147 4.64645C204.342 4.45118 204.658 4.45118 204.854 4.64645Z" fill="#04101E"/>
<path fill-rule="evenodd" clip-rule="evenodd" d="M20.75 92C20.75 90.7574 21.7574 89.75 23 89.75H26.7932C27.3122 89.75 27.81 89.9562 28.1769 90.3232C28.4501 90.5965 28.8207 90.75 29.2071 90.75H33.0001C34.2427 90.75 35.2501 91.7574 35.2501 93V100C35.2501 101.243 34.2427 102.25 33.0001 102.25H23.0001C21.7574 102.25 20.7501 101.243 20.7501 100L20.75 92ZM23.0002 92.25C22.5859 92.25 22.2502 92.5858 22.2502 93V100C22.2502 100.414 22.5859 100.75 23.0002 100.75H33.0002C33.4144 100.75 33.7502 100.414 33.7502 100V93C33.7502 92.5858 33.4144 92.25 33.0002 92.25H23.0002Z" fill="#04101E"/>
<path d="M40.9149 100V92.7273H43.3722C43.9428 92.7273 44.4092 92.8303 44.7714 93.0362C45.136 93.2398 45.4059 93.5156 45.5811 93.8636C45.7562 94.2116 45.8438 94.5999 45.8438 95.0284C45.8438 95.4569 45.7562 95.8464 45.5811 96.1967C45.4082 96.5471 45.1407 96.8265 44.7785 97.0348C44.4163 97.2408 43.9523 97.3438 43.3865 97.3438H41.6251V96.5625H43.358C43.7487 96.5625 44.0624 96.495 44.2991 96.3601C44.5358 96.2251 44.7075 96.0429 44.814 95.8132C44.9229 95.5812 44.9774 95.3196 44.9774 95.0284C44.9774 94.7372 44.9229 94.4768 44.814 94.2472C44.7075 94.0175 44.5347 93.8376 44.2955 93.7074C44.0564 93.5748 43.7392 93.5085 43.3438 93.5085H41.7955V100H40.9149ZM47.1489 100V94.5455H47.9585V95.3693H48.0154C48.1148 95.0994 48.2947 94.8804 48.5551 94.7124C48.8155 94.5443 49.1091 94.4602 49.4358 94.4602C49.4974 94.4602 49.5743 94.4614 49.6666 94.4638C49.759 94.4661 49.8288 94.4697 49.8762 94.4744V95.3267C49.8477 95.3196 49.7826 95.3089 49.6808 95.2947C49.5814 95.2782 49.4761 95.2699 49.3648 95.2699C49.0996 95.2699 48.8629 95.3255 48.6546 95.4368C48.4486 95.5457 48.2852 95.6972 48.1645 95.8913C48.0461 96.0831 47.9869 96.3021 47.9869 96.5483V100H47.1489ZM52.9905 100.114C52.4649 100.114 52.0116 99.9976 51.6304 99.7656C51.2516 99.5312 50.9593 99.2045 50.7533 98.7855C50.5497 98.3641 50.4479 97.8741 50.4479 97.3153C50.4479 96.7566 50.5497 96.2642 50.7533 95.8381C50.9593 95.4096 51.2457 95.0758 51.6127 94.8366C51.982 94.5952 52.4128 94.4744 52.9053 94.4744C53.1894 94.4744 53.4699 94.5218 53.7469 94.6165C54.0239 94.7112 54.276 94.8651 54.5033 95.0781C54.7306 95.2888 54.9117 95.5682 55.0466 95.9162C55.1816 96.2642 55.249 96.6927 55.249 97.2017V97.5568H51.0445V96.8324H54.3968C54.3968 96.5246 54.3352 96.25 54.2121 96.0085C54.0914 95.767 53.9185 95.5765 53.6936 95.4368C53.4711 95.2971 53.2083 95.2273 52.9053 95.2273C52.5715 95.2273 52.2826 95.3101 52.0388 95.4759C51.7973 95.6392 51.6115 95.8523 51.4813 96.1151C51.3511 96.3778 51.286 96.6596 51.286 96.9602V97.4432C51.286 97.8551 51.357 98.2043 51.499 98.4908C51.6434 98.7749 51.8435 98.9915 52.0992 99.1406C52.3548 99.2874 52.652 99.3608 52.9905 99.3608C53.2107 99.3608 53.4095 99.33 53.5871 99.2685C53.767 99.2045 53.9221 99.1098 54.0523 98.9844C54.1825 98.8565 54.2831 98.6979 54.3541 98.5085L55.1638 98.7358C55.0786 99.0104 54.9353 99.2519 54.7341 99.4602C54.5329 99.6662 54.2843 99.8272 53.9884 99.9432C53.6924 100.057 53.3598 100.114 52.9905 100.114ZM60.3875 95.767L59.6347 95.9801C59.5873 95.8546 59.5175 95.7327 59.4252 95.6143C59.3352 95.4936 59.2121 95.3942 59.0558 95.3161C58.8996 95.2379 58.6995 95.1989 58.4557 95.1989C58.1219 95.1989 57.8437 95.2758 57.6212 95.4297C57.401 95.5812 57.2909 95.7741 57.2909 96.0085C57.2909 96.2169 57.3667 96.3814 57.5182 96.5021C57.6697 96.6229 57.9065 96.7235 58.2284 96.804L59.0381 97.0028C59.5258 97.1212 59.8892 97.3023 60.1283 97.5462C60.3674 97.7876 60.4869 98.099 60.4869 98.4801C60.4869 98.7926 60.397 99.072 60.2171 99.3182C60.0395 99.5644 59.7909 99.7585 59.4713 99.9006C59.1517 100.043 58.78 100.114 58.3563 100.114C57.7999 100.114 57.3395 99.9929 56.9749 99.7514C56.6103 99.5099 56.3795 99.1572 56.2824 98.6932L57.0779 98.4943C57.1536 98.7879 57.2968 99.008 57.5075 99.1548C57.7206 99.3016 57.9988 99.375 58.3421 99.375C58.7327 99.375 59.0428 99.2921 59.2725 99.1264C59.5045 98.9583 59.6205 98.7571 59.6205 98.5227C59.6205 98.3333 59.5542 98.1747 59.4216 98.0469C59.289 97.9167 59.0854 97.8196 58.8108 97.7557L57.9017 97.5426C57.4022 97.4242 57.0352 97.2408 56.8009 96.9922C56.5689 96.7412 56.4529 96.4276 56.4529 96.0511C56.4529 95.7434 56.5393 95.4711 56.7121 95.2344C56.8873 94.9976 57.1252 94.8118 57.4259 94.6768C57.7289 94.5419 58.0722 94.4744 58.4557 94.4744C58.9955 94.4744 59.4192 94.5928 59.727 94.8295C60.0371 95.0663 60.2573 95.3788 60.3875 95.767ZM64.0354 100.114C63.5099 100.114 63.0565 99.9976 62.6753 99.7656C62.2965 99.5312 62.0042 99.2045 61.7982 98.7855C61.5946 98.3641 61.4928 97.8741 61.4928 97.3153C61.4928 96.7566 61.5946 96.2642 61.7982 95.8381C62.0042 95.4096 62.2906 95.0758 62.6576 94.8366C63.0269 94.5952 63.4578 94.4744 63.9502 94.4744C64.2343 94.4744 64.5148 94.5218 64.7918 94.6165C65.0688 94.7112 65.3209 94.8651 65.5482 95.0781C65.7755 95.2888 65.9566 95.5682 66.0915 95.9162C66.2265 96.2642 66.2939 96.6927 66.2939 97.2017V97.5568H62.0894V96.8324H65.4417C65.4417 96.5246 65.3801 96.25 65.257 96.0085C65.1363 95.767 64.9635 95.5765 64.7385 95.4368C64.516 95.2971 64.2532 95.2273 63.9502 95.2273C63.6164 95.2273 63.3276 95.3101 63.0837 95.4759C62.8422 95.6392 62.6564 95.8523 62.5262 96.1151C62.396 96.3778 62.3309 96.6596 62.3309 96.9602V97.4432C62.3309 97.8551 62.4019 98.2043 62.5439 98.4908C62.6884 98.7749 62.8884 98.9915 63.1441 99.1406C63.3998 99.2874 63.6969 99.3608 64.0354 99.3608C64.2556 99.3608 64.4545 99.33 64.632 99.2685C64.8119 99.2045 64.967 99.1098 65.0972 98.9844C65.2274 98.8565 65.328 98.6979 65.3991 98.5085L66.2087 98.7358C66.1235 99.0104 65.9803 99.2519 65.779 99.4602C65.5778 99.6662 65.3292 99.8272 65.0333 99.9432C64.7374 100.057 64.4047 100.114 64.0354 100.114ZM68.4069 96.7188V100H67.5688V94.5455H68.3785V95.3977H68.4495C68.5773 95.1207 68.7715 94.8982 69.0319 94.7301C69.2923 94.5597 69.6285 94.4744 70.0404 94.4744C70.4097 94.4744 70.7329 94.5502 71.0099 94.7017C71.2868 94.8509 71.5023 95.0781 71.6562 95.3835C71.81 95.6866 71.887 96.0701 71.887 96.5341V100H71.0489V96.5909C71.0489 96.1624 70.9376 95.8286 70.7151 95.5895C70.4926 95.348 70.1872 95.2273 69.7989 95.2273C69.5314 95.2273 69.2923 95.2853 69.0816 95.4013C68.8733 95.5173 68.7087 95.6866 68.588 95.9091C68.4672 96.1316 68.4069 96.4015 68.4069 96.7188ZM75.7906 94.5455V95.2557H72.9639V94.5455H75.7906ZM73.7877 93.2386H74.6258V98.4375C74.6258 98.6742 74.6601 98.8518 74.7288 98.9702C74.7998 99.0862 74.8898 99.1643 74.9987 99.2045C75.1099 99.2424 75.2271 99.2614 75.3502 99.2614C75.4426 99.2614 75.5183 99.2566 75.5775 99.2472C75.6367 99.2353 75.684 99.2259 75.7195 99.2188L75.89 99.9716C75.8332 99.9929 75.7539 100.014 75.6521 100.036C75.5503 100.059 75.4213 100.071 75.265 100.071C75.0283 100.071 74.7963 100.02 74.569 99.9183C74.3441 99.8165 74.157 99.6615 74.0079 99.4531C73.8611 99.2448 73.7877 98.982 73.7877 98.6648V93.2386ZM78.6563 100.128C78.3107 100.128 77.997 100.063 77.7153 99.9325C77.4336 99.8 77.2098 99.6094 77.0441 99.3608C76.8784 99.1098 76.7955 98.8068 76.7955 98.4517C76.7955 98.1392 76.8571 97.8859 76.9802 97.6918C77.1033 97.4953 77.2678 97.3414 77.4738 97.2301C77.6798 97.1188 77.907 97.036 78.1556 96.9815C78.4066 96.9247 78.6587 96.8797 78.912 96.8466C79.2435 96.804 79.5122 96.772 79.7181 96.7507C79.9265 96.727 80.078 96.688 80.1727 96.6335C80.2697 96.5791 80.3183 96.4844 80.3183 96.3494V96.321C80.3183 95.9706 80.2224 95.6984 80.0306 95.5043C79.8412 95.3101 79.5536 95.2131 79.1677 95.2131C78.7676 95.2131 78.4539 95.3007 78.2267 95.4759C77.9994 95.651 77.8396 95.8381 77.7472 96.0369L76.9518 95.7528C77.0938 95.4214 77.2832 95.1634 77.52 94.9787C77.7591 94.7917 78.0195 94.6615 78.3012 94.5881C78.5853 94.5123 78.8647 94.4744 79.1393 94.4744C79.3145 94.4744 79.5157 94.4957 79.743 94.5384C79.9726 94.5786 80.194 94.6626 80.407 94.7905C80.6225 94.9183 80.8012 95.1113 80.9433 95.3693C81.0853 95.6274 81.1563 95.973 81.1563 96.4062V100H80.3183V99.2614H80.2757C80.2188 99.3797 80.1241 99.5064 79.9916 99.6413C79.859 99.7763 79.6826 99.8911 79.4624 99.9858C79.2423 100.08 78.9736 100.128 78.6563 100.128ZM78.7842 99.375C79.1156 99.375 79.395 99.3099 79.6222 99.1797C79.8519 99.0495 80.0247 98.8814 80.1407 98.6754C80.2591 98.4695 80.3183 98.2528 80.3183 98.0256V97.2585C80.2828 97.3011 80.2046 97.3402 80.0839 97.3757C79.9655 97.4089 79.8282 97.4384 79.672 97.4645C79.5181 97.4882 79.3677 97.5095 79.221 97.5284C79.0766 97.545 78.9594 97.5592 78.8694 97.571C78.6516 97.5994 78.448 97.6456 78.2586 97.7095C78.0716 97.7711 77.9201 97.8646 77.8041 97.9901C77.6904 98.1132 77.6336 98.2812 77.6336 98.4943C77.6336 98.7855 77.7413 99.0057 77.9568 99.1548C78.1746 99.3016 78.4504 99.375 78.7842 99.375ZM85.0581 94.5455V95.2557H82.2314V94.5455H85.0581ZM83.0553 93.2386H83.8934V98.4375C83.8934 98.6742 83.9277 98.8518 83.9964 98.9702C84.0674 99.0862 84.1573 99.1643 84.2662 99.2045C84.3775 99.2424 84.4947 99.2614 84.6178 99.2614C84.7101 99.2614 84.7859 99.2566 84.8451 99.2472C84.9043 99.2353 84.9516 99.2259 84.9871 99.2188L85.1576 99.9716C85.1008 99.9929 85.0215 100.014 84.9197 100.036C84.8179 100.059 84.6888 100.071 84.5326 100.071C84.2958 100.071 84.0638 100.02 83.8366 99.9183C83.6117 99.8165 83.4246 99.6615 83.2755 99.4531C83.1287 99.2448 83.0553 98.982 83.0553 98.6648V93.2386ZM86.3188 100V94.5455H87.1569V100H86.3188ZM86.7449 93.6364C86.5816 93.6364 86.4407 93.5807 86.3224 93.4695C86.2064 93.3582 86.1483 93.2244 86.1483 93.0682C86.1483 92.9119 86.2064 92.7782 86.3224 92.6669C86.4407 92.5556 86.5816 92.5 86.7449 92.5C86.9083 92.5 87.048 92.5556 87.164 92.6669C87.2823 92.7782 87.3415 92.9119 87.3415 93.0682C87.3415 93.2244 87.2823 93.3582 87.164 93.4695C87.048 93.5807 86.9083 93.6364 86.7449 93.6364ZM90.9078 100.114C90.4153 100.114 89.9833 99.9964 89.6116 99.7621C89.2423 99.5277 88.9535 99.1998 88.7451 98.7784C88.5392 98.357 88.4362 97.8646 88.4362 97.3011C88.4362 96.733 88.5392 96.237 88.7451 95.8132C88.9535 95.3894 89.2423 95.0604 89.6116 94.826C89.9833 94.5916 90.4153 94.4744 90.9078 94.4744C91.4002 94.4744 91.8311 94.5916 92.2004 94.826C92.5721 95.0604 92.8609 95.3894 93.0669 95.8132C93.2752 96.237 93.3794 96.733 93.3794 97.3011C93.3794 97.8646 93.2752 98.357 93.0669 98.7784C92.8609 99.1998 92.5721 99.5277 92.2004 99.7621C91.8311 99.9964 91.4002 100.114 90.9078 100.114ZM90.9078 99.3608C91.2818 99.3608 91.5896 99.2649 91.8311 99.0732C92.0725 98.8814 92.2513 98.6293 92.3673 98.3168C92.4833 98.0043 92.5413 97.6657 92.5413 97.3011C92.5413 96.9366 92.4833 96.5968 92.3673 96.282C92.2513 95.9671 92.0725 95.7126 91.8311 95.5185C91.5896 95.3243 91.2818 95.2273 90.9078 95.2273C90.5337 95.2273 90.2259 95.3243 89.9845 95.5185C89.743 95.7126 89.5642 95.9671 89.4482 96.282C89.3322 96.5968 89.2742 96.9366 89.2742 97.3011C89.2742 97.6657 89.3322 98.0043 89.4482 98.3168C89.5642 98.6293 89.743 98.8814 89.9845 99.0732C90.2259 99.2649 90.5337 99.3608 90.9078 99.3608ZM95.4967 96.7188V100H94.6586V94.5455H95.4683V95.3977H95.5393C95.6672 95.1207 95.8613 94.8982 96.1217 94.7301C96.3821 94.5597 96.7183 94.4744 97.1302 94.4744C97.4996 94.4744 97.8227 94.5502 98.0997 94.7017C98.3767 94.8509 98.5921 95.0781 98.746 95.3835C98.8999 95.6866 98.9768 96.0701 98.9768 96.5341V100H98.1388V96.5909C98.1388 96.1624 98.0275 95.8286 97.805 95.5895C97.5824 95.348 97.277 95.2273 96.8888 95.2273C96.6212 95.2273 96.3821 95.2853 96.1714 95.4013C95.9631 95.5173 95.7986 95.6866 95.6778 95.9091C95.5571 96.1316 95.4967 96.4015 95.4967 96.7188ZM104.372 95.767L103.619 95.9801C103.572 95.8546 103.502 95.7327 103.41 95.6143C103.32 95.4936 103.196 95.3942 103.04 95.3161C102.884 95.2379 102.684 95.1989 102.44 95.1989C102.106 95.1989 101.828 95.2758 101.606 95.4297C101.385 95.5812 101.275 95.7741 101.275 96.0085C101.275 96.2169 101.351 96.3814 101.503 96.5021C101.654 96.6229 101.891 96.7235 102.213 96.804L103.022 97.0028C103.51 97.1212 103.874 97.3023 104.113 97.5462C104.352 97.7876 104.471 98.099 104.471 98.4801C104.471 98.7926 104.381 99.072 104.201 99.3182C104.024 99.5644 103.775 99.7585 103.456 99.9006C103.136 100.043 102.764 100.114 102.341 100.114C101.784 100.114 101.324 99.9929 100.959 99.7514C100.595 99.5099 100.364 99.1572 100.267 98.6932L101.062 98.4943C101.138 98.7879 101.281 99.008 101.492 99.1548C101.705 99.3016 101.983 99.375 102.326 99.375C102.717 99.375 103.027 99.2921 103.257 99.1264C103.489 98.9583 103.605 98.7571 103.605 98.5227C103.605 98.3333 103.539 98.1747 103.406 98.0469C103.273 97.9167 103.07 97.8196 102.795 97.7557L101.886 97.5426C101.387 97.4242 101.02 97.2408 100.785 96.9922C100.553 96.7412 100.437 96.4276 100.437 96.0511C100.437 95.7434 100.524 95.4711 100.696 95.2344C100.872 94.9976 101.11 94.8118 101.41 94.6768C101.713 94.5419 102.057 94.4744 102.44 94.4744C102.98 94.4744 103.404 94.5928 103.711 94.8295C104.022 95.0663 104.242 95.3788 104.372 95.767Z" fill="black"/>
<path fill-rule="evenodd" clip-rule="evenodd" d="M204.854 92.6464C205.049 92.8417 205.049 93.1583 204.854 93.3536L198.354 99.8536C198.158 100.049 197.842 100.049 197.647 99.8536L195.147 97.3536C194.951 97.1583 194.951 96.8417 195.147 96.6464C195.342 96.4512 195.658 96.4512 195.854 96.6464L198 98.7929L204.147 92.6464C204.342 92.4512 204.658 92.4512 204.854 92.6464Z" fill="#04101E"/>
<path fill-rule="evenodd" clip-rule="evenodd" d="M3.64645 29.6464C3.84171 29.4512 4.15829 29.4512 4.35355 29.6464L8 33.2929L11.6464 29.6464C11.8417 29.4512 12.1583 29.4512 12.3536 29.6464C12.5488 29.8417 12.5488 30.1583 12.3536 30.3536L8.35355 34.3536C8.15829 34.5488 7.84171 34.5488 7.64645 34.3536L3.64645 30.3536C3.45118 30.1583 3.45118 29.8417 3.64645 29.6464Z" fill="#04101E"/>
<path fill-rule="evenodd" clip-rule="evenodd" d="M20.25 28C20.25 26.7574 21.2574 25.75 22.5 25.75H26.2932C26.8122 25.75 27.31 25.9562 27.6769 26.3232C27.9501 26.5965 28.3207 26.75 28.7071 26.75H31C32.2426 26.75 33.25 27.7574 33.25 29V36C33.25 37.2426 32.2426 38.25 31 38.25H22.5001C21.2574 38.25 20.2501 37.2427 20.2501 36L20.25 28Z" fill="#04101E"/>
<path d="M23.6215 28.75C22.7474 28.75 22.0074 29.395 21.8879 30.2609L21.1638 35.5109C21.0188 36.5625 21.8358 37.5 22.8974 37.5H32.6285C33.5026 37.5 34.2426 36.855 34.3621 35.9891L35.0862 30.7391C35.2312 29.6875 34.4142 28.75 33.3526 28.75H23.6215Z" fill="#E5E5E5" stroke="#04101E" stroke-width="1.5"/>
<path d="M43.2891 36H41.0447V28.7273H43.3885C44.094 28.7273 44.6977 28.8729 45.1996 29.1641C45.7015 29.4529 46.0862 29.8684 46.3537 30.4105C46.6212 30.9503 46.755 31.5966 46.755 32.3494C46.755 33.107 46.62 33.7592 46.3501 34.3061C46.0803 34.8506 45.6873 35.2696 45.1712 35.5632C44.6551 35.8544 44.0277 36 43.2891 36ZM41.9254 35.2188H43.2322C43.8336 35.2188 44.3319 35.1027 44.7273 34.8707C45.1226 34.6387 45.4174 34.3085 45.6115 33.88C45.8056 33.4515 45.9027 32.9413 45.9027 32.3494C45.9027 31.7623 45.8068 31.2569 45.6151 30.8331C45.4233 30.407 45.1368 30.0803 44.7557 29.853C44.3745 29.6233 43.8999 29.5085 43.3317 29.5085H41.9254V35.2188ZM50.3345 36.1136C49.8421 36.1136 49.41 35.9964 49.0384 35.7621C48.669 35.5277 48.3802 35.1998 48.1719 34.7784C47.9659 34.357 47.8629 33.8646 47.8629 33.3011C47.8629 32.733 47.9659 32.237 48.1719 31.8132C48.3802 31.3894 48.669 31.0604 49.0384 30.826C49.41 30.5916 49.8421 30.4744 50.3345 30.4744C50.8269 30.4744 51.2578 30.5916 51.6271 30.826C51.9988 31.0604 52.2876 31.3894 52.4936 31.8132C52.7019 32.237 52.8061 32.733 52.8061 33.3011C52.8061 33.8646 52.7019 34.357 52.4936 34.7784C52.2876 35.1998 51.9988 35.5277 51.6271 35.7621C51.2578 35.9964 50.8269 36.1136 50.3345 36.1136ZM50.3345 35.3608C50.7086 35.3608 51.0163 35.2649 51.2578 35.0732C51.4993 34.8814 51.678 34.6293 51.794 34.3168C51.91 34.0043 51.968 33.6657 51.968 33.3011C51.968 32.9366 51.91 32.5968 51.794 32.282C51.678 31.9671 51.4993 31.7126 51.2578 31.5185C51.0163 31.3243 50.7086 31.2273 50.3345 31.2273C49.9605 31.2273 49.6527 31.3243 49.4112 31.5185C49.1697 31.7126 48.991 31.9671 48.875 32.282C48.759 32.5968 48.701 32.9366 48.701 33.3011C48.701 33.6657 48.759 34.0043 48.875 34.3168C48.991 34.6293 49.1697 34.8814 49.4112 35.0732C49.6527 35.2649 49.9605 35.3608 50.3345 35.3608ZM56.3013 36.1136C55.79 36.1136 55.3496 35.9929 54.9803 35.7514C54.611 35.5099 54.3269 35.1773 54.128 34.7536C53.9292 34.3298 53.8297 33.8456 53.8297 33.3011C53.8297 32.7472 53.9315 32.2583 54.1351 31.8345C54.3411 31.4084 54.6275 31.0758 54.9945 30.8366C55.3638 30.5952 55.7947 30.4744 56.2871 30.4744C56.6706 30.4744 57.0163 30.5455 57.324 30.6875C57.6318 30.8295 57.8839 31.0284 58.0804 31.2841C58.2769 31.5398 58.3989 31.8381 58.4462 32.179H57.6081C57.5442 31.9304 57.4022 31.7102 57.182 31.5185C56.9642 31.3243 56.6706 31.2273 56.3013 31.2273C55.9746 31.2273 55.6882 31.3125 55.4419 31.483C55.1981 31.651 55.0075 31.889 54.8702 32.1967C54.7353 32.5021 54.6678 32.8608 54.6678 33.2727C54.6678 33.6941 54.7341 34.0611 54.8667 34.3736C55.0016 34.6861 55.191 34.9287 55.4348 35.1016C55.681 35.2744 55.9699 35.3608 56.3013 35.3608C56.5191 35.3608 56.7168 35.3229 56.8944 35.2472C57.0719 35.1714 57.2222 35.0625 57.3453 34.9205C57.4685 34.7784 57.556 34.608 57.6081 34.4091H58.4462C58.3989 34.7311 58.2817 35.0211 58.0946 35.2791C57.91 35.5348 57.665 35.7384 57.3596 35.8899C57.0565 36.0391 56.7038 36.1136 56.3013 36.1136ZM63.1088 33.7699V30.5455H63.9469V36H63.1088V35.0767H63.052C62.9242 35.3537 62.7253 35.5893 62.4554 35.7834C62.1855 35.9751 61.8446 36.071 61.4327 36.071C61.0918 36.071 60.7888 35.9964 60.5236 35.8473C60.2585 35.6958 60.0501 35.4685 59.8986 35.1655C59.7471 34.8601 59.6713 34.4754 59.6713 34.0114V30.5455H60.5094V33.9545C60.5094 34.3523 60.6207 34.6695 60.8432 34.9062C61.0681 35.143 61.3546 35.2614 61.7026 35.2614C61.9109 35.2614 62.1228 35.2081 62.3382 35.1016C62.556 34.995 62.7383 34.8317 62.8851 34.6115C63.0343 34.3913 63.1088 34.1108 63.1088 33.7699ZM65.4819 36V30.5455H66.2915V31.3977H66.3626C66.4762 31.1065 66.6597 30.8804 66.913 30.7195C67.1663 30.5561 67.4705 30.4744 67.8256 30.4744C68.1855 30.4744 68.485 30.5561 68.7241 30.7195C68.9656 30.8804 69.1538 31.1065 69.2887 31.3977H69.3455C69.4852 31.116 69.6947 30.8923 69.9741 30.7266C70.2534 30.5585 70.5884 30.4744 70.979 30.4744C71.4667 30.4744 71.8656 30.6271 72.1758 30.9325C72.4859 31.2356 72.641 31.7079 72.641 32.3494V36H71.8029V32.3494C71.8029 31.947 71.6928 31.6593 71.4727 31.4865C71.2525 31.3137 70.9933 31.2273 70.695 31.2273C70.3114 31.2273 70.0143 31.3433 69.8036 31.5753C69.5929 31.8049 69.4876 32.0961 69.4876 32.4489V36H68.6353V32.2642C68.6353 31.9541 68.5347 31.7043 68.3335 31.5149C68.1322 31.3232 67.873 31.2273 67.5558 31.2273C67.3379 31.2273 67.1344 31.2853 66.945 31.4013C66.7579 31.5173 66.6064 31.6783 66.4904 31.8842C66.3768 32.0878 66.32 32.3234 66.32 32.5909V36H65.4819ZM76.4602 36.1136C75.9347 36.1136 75.4813 35.9976 75.1001 35.7656C74.7214 35.5312 74.429 35.2045 74.223 34.7855C74.0194 34.3641 73.9176 33.8741 73.9176 33.3153C73.9176 32.7566 74.0194 32.2642 74.223 31.8381C74.429 31.4096 74.7154 31.0758 75.0824 30.8366C75.4517 30.5952 75.8826 30.4744 76.375 30.4744C76.6591 30.4744 76.9396 30.5218 77.2166 30.6165C77.4936 30.7112 77.7457 30.8651 77.973 31.0781C78.2003 31.2888 78.3814 31.5682 78.5163 31.9162C78.6513 32.2642 78.7188 32.6927 78.7188 33.2017V33.5568H74.5142V32.8324H77.8665C77.8665 32.5246 77.8049 32.25 77.6818 32.0085C77.5611 31.767 77.3883 31.5765 77.1634 31.4368C76.9408 31.2971 76.678 31.2273 76.375 31.2273C76.0412 31.2273 75.7524 31.3101 75.5085 31.4759C75.267 31.6392 75.0812 31.8523 74.951 32.1151C74.8208 32.3778 74.7557 32.6596 74.7557 32.9602V33.4432C74.7557 33.8551 74.8267 34.2043 74.9688 34.4908C75.1132 34.7749 75.3132 34.9915 75.5689 35.1406C75.8246 35.2874 76.1217 35.3608 76.4602 35.3608C76.6804 35.3608 76.8793 35.33 77.0568 35.2685C77.2367 35.2045 77.3918 35.1098 77.522 34.9844C77.6522 34.8565 77.7528 34.6979 77.8239 34.5085L78.6335 34.7358C78.5483 35.0104 78.4051 35.2519 78.2038 35.4602C78.0026 35.6662 77.754 35.8272 77.4581 35.9432C77.1622 36.0568 76.8295 36.1136 76.4602 36.1136ZM80.8317 32.7188V36H79.9936V30.5455H80.8033V31.3977H80.8743C81.0021 31.1207 81.1963 30.8982 81.4567 30.7301C81.7171 30.5597 82.0533 30.4744 82.4652 30.4744C82.8345 30.4744 83.1577 30.5502 83.4347 30.7017C83.7116 30.8509 83.9271 31.0781 84.081 31.3835C84.2348 31.6866 84.3118 32.0701 84.3118 32.5341V36H83.4737V32.5909C83.4737 32.1624 83.3625 31.8286 83.1399 31.5895C82.9174 31.348 82.612 31.2273 82.2237 31.2273C81.9562 31.2273 81.7171 31.2853 81.5064 31.4013C81.2981 31.5173 81.1335 31.6866 81.0128 31.9091C80.892 32.1316 80.8317 32.4015 80.8317 32.7188ZM88.2154 30.5455V31.2557H85.3887V30.5455H88.2154ZM86.2125 29.2386H87.0506V34.4375C87.0506 34.6742 87.0849 34.8518 87.1536 34.9702C87.2246 35.0862 87.3146 35.1643 87.4235 35.2045C87.5347 35.2424 87.6519 35.2614 87.775 35.2614C87.8674 35.2614 87.9431 35.2566 88.0023 35.2472C88.0615 35.2353 88.1088 35.2259 88.1444 35.2188L88.3148 35.9716C88.258 35.9929 88.1787 36.0142 88.0769 36.0355C87.9751 36.0592 87.8461 36.071 87.6898 36.071C87.4531 36.071 87.2211 36.0201 86.9938 35.9183C86.7689 35.8165 86.5819 35.6615 86.4327 35.4531C86.2859 35.2448 86.2125 34.982 86.2125 34.6648V29.2386ZM93.242 31.767L92.4892 31.9801C92.4418 31.8546 92.372 31.7327 92.2797 31.6143C92.1897 31.4936 92.0666 31.3942 91.9103 31.3161C91.7541 31.2379 91.554 31.1989 91.3102 31.1989C90.9764 31.1989 90.6982 31.2758 90.4757 31.4297C90.2555 31.5812 90.1454 31.7741 90.1454 32.0085C90.1454 32.2169 90.2212 32.3814 90.3727 32.5021C90.5242 32.6229 90.7609 32.7235 91.0829 32.804L91.8926 33.0028C92.3803 33.1212 92.7437 33.3023 92.9828 33.5462C93.2219 33.7876 93.3414 34.099 93.3414 34.4801C93.3414 34.7926 93.2515 35.072 93.0716 35.3182C92.894 35.5644 92.6454 35.7585 92.3258 35.9006C92.0062 36.0426 91.6345 36.1136 91.2108 36.1136C90.6544 36.1136 90.194 35.9929 89.8294 35.7514C89.4648 35.5099 89.234 35.1572 89.1369 34.6932L89.9324 34.4943C90.0081 34.7879 90.1513 35.008 90.362 35.1548C90.5751 35.3016 90.8533 35.375 91.1966 35.375C91.5872 35.375 91.8973 35.2921 92.127 35.1264C92.359 34.9583 92.475 34.7571 92.475 34.5227C92.475 34.3333 92.4087 34.1747 92.2761 34.0469C92.1435 33.9167 91.9399 33.8196 91.6653 33.7557L90.7562 33.5426C90.2567 33.4242 89.8897 33.2408 89.6554 32.9922C89.4234 32.7412 89.3074 32.4276 89.3074 32.0511C89.3074 31.7434 89.3938 31.4711 89.5666 31.2344C89.7418 30.9976 89.9797 30.8118 90.2804 30.6768C90.5834 30.5419 90.9267 30.4744 91.3102 30.4744C91.85 30.4744 92.2737 30.5928 92.5815 30.8295C92.8916 31.0663 93.1118 31.3788 93.242 31.767Z" fill="black"/>
<path fill-rule="evenodd" clip-rule="evenodd" d="M204.854 28.6464C205.049 28.8417 205.049 29.1583 204.854 29.3536L198.354 35.8536C198.158 36.0488 197.842 36.0488 197.647 35.8536L195.147 33.3536C194.951 33.1583 194.951 32.8417 195.147 32.6464C195.342 32.4512 195.658 32.4512 195.854 32.6464L198 34.7929L204.147 28.6464C204.342 28.4512 204.658 28.4512 204.854 28.6464Z" fill="#04101E"/>
<path fill-rule="evenodd" clip-rule="evenodd" d="M48.75 48C48.75 46.7574 49.7574 45.75 51 45.75H54.7932C55.3122 45.75 55.81 45.9562 56.1769 46.3232C56.4501 46.5965 56.8207 46.75 57.2071 46.75H61.0001C62.2427 46.75 63.2501 47.7574 63.2501 49V56C63.2501 57.2426 62.2427 58.25 61.0001 58.25H51.0001C49.7574 58.25 48.7501 57.2427 48.7501 56L48.75 48ZM51.0002 48.25C50.5859 48.25 50.2502 48.5858 50.2502 49V56C50.2502 56.4142 50.5859 56.75 51.0002 56.75H61.0002C61.4144 56.75 61.7502 56.4142 61.7502 56V49C61.7502 48.5858 61.4144 48.25 61.0002 48.25H51.0002Z" fill="#04101E"/>
<path d="M68.8895 56V48.7273H73.2503V49.5085H69.7702V51.9659H72.9236V52.7472H69.7702V56H68.8895ZM74.645 56V50.5455H75.483V56H74.645ZM75.0711 49.6364C74.9078 49.6364 74.7669 49.5807 74.6485 49.4695C74.5325 49.3582 74.4745 49.2244 74.4745 49.0682C74.4745 48.9119 74.5325 48.7782 74.6485 48.6669C74.7669 48.5556 74.9078 48.5 75.0711 48.5C75.2345 48.5 75.3741 48.5556 75.4901 48.6669C75.6085 48.7782 75.6677 48.9119 75.6677 49.0682C75.6677 49.2244 75.6085 49.3582 75.4901 49.4695C75.3741 49.5807 75.2345 49.6364 75.0711 49.6364ZM77.8561 52.7188V56H77.018V50.5455H77.8277V51.3977H77.8987C78.0265 51.1207 78.2207 50.8982 78.4811 50.7301C78.7415 50.5597 79.0777 50.4744 79.4896 50.4744C79.8589 50.4744 80.1821 50.5502 80.4591 50.7017C80.7361 50.8509 80.9515 51.0781 81.1054 51.3835C81.2593 51.6866 81.3362 52.0701 81.3362 52.5341V56H80.4981V52.5909C80.4981 52.1624 80.3869 51.8286 80.1643 51.5895C79.9418 51.348 79.6364 51.2273 79.2481 51.2273C78.9806 51.2273 78.7415 51.2853 78.5308 51.4013C78.3225 51.5173 78.1579 51.6866 78.0372 51.9091C77.9165 52.1316 77.8561 52.4015 77.8561 52.7188ZM84.4727 56.1278C84.1271 56.1278 83.8134 56.0627 83.5317 55.9325C83.25 55.8 83.0262 55.6094 82.8605 55.3608C82.6948 55.1098 82.6119 54.8068 82.6119 54.4517C82.6119 54.1392 82.6735 53.8859 82.7966 53.6918C82.9197 53.4953 83.0843 53.3414 83.2902 53.2301C83.4962 53.1188 83.7235 53.036 83.972 52.9815C84.223 52.9247 84.4751 52.8797 84.7284 52.8466C85.0599 52.804 85.3286 52.772 85.5345 52.7507C85.7429 52.727 85.8944 52.688 85.9891 52.6335C86.0861 52.5791 86.1347 52.4844 86.1347 52.3494V52.321C86.1347 51.9706 86.0388 51.6984 85.847 51.5043C85.6576 51.3101 85.37 51.2131 84.9841 51.2131C84.584 51.2131 84.2703 51.3007 84.0431 51.4759C83.8158 51.651 83.656 51.8381 83.5637 52.0369L82.7682 51.7528C82.9102 51.4214 83.0996 51.1634 83.3364 50.9787C83.5755 50.7917 83.8359 50.6615 84.1176 50.5881C84.4017 50.5123 84.6811 50.4744 84.9557 50.4744C85.1309 50.4744 85.3321 50.4957 85.5594 50.5384C85.789 50.5786 86.0104 50.6626 86.2235 50.7905C86.4389 50.9183 86.6176 51.1113 86.7597 51.3693C86.9017 51.6274 86.9727 51.973 86.9727 52.4062V56H86.1347V55.2614H86.0921C86.0352 55.3797 85.9405 55.5064 85.808 55.6413C85.6754 55.7763 85.499 55.8911 85.2789 55.9858C85.0587 56.0805 84.79 56.1278 84.4727 56.1278ZM84.6006 55.375C84.932 55.375 85.2114 55.3099 85.4387 55.1797C85.6683 55.0495 85.8411 54.8814 85.9571 54.6754C86.0755 54.4695 86.1347 54.2528 86.1347 54.0256V53.2585C86.0992 53.3011 86.021 53.3402 85.9003 53.3757C85.7819 53.4089 85.6446 53.4384 85.4884 53.4645C85.3345 53.4882 85.1842 53.5095 85.0374 53.5284C84.893 53.545 84.7758 53.5592 84.6858 53.571C84.468 53.5994 84.2644 53.6456 84.075 53.7095C83.888 53.7711 83.7365 53.8646 83.6205 53.9901C83.5068 54.1132 83.45 54.2812 83.45 54.4943C83.45 54.7855 83.5577 55.0057 83.7732 55.1548C83.991 55.3016 84.2668 55.375 84.6006 55.375ZM89.3405 52.7188V56H88.5024V50.5455H89.3121V51.3977H89.3831C89.5109 51.1207 89.705 50.8982 89.9655 50.7301C90.2259 50.5597 90.5621 50.4744 90.974 50.4744C91.3433 50.4744 91.6665 50.5502 91.9434 50.7017C92.2204 50.8509 92.4359 51.0781 92.5898 51.3835C92.7436 51.6866 92.8206 52.0701 92.8206 52.5341V56H91.9825V52.5909C91.9825 52.1624 91.8712 51.8286 91.6487 51.5895C91.4262 51.348 91.1208 51.2273 90.7325 51.2273C90.465 51.2273 90.2259 51.2853 90.0152 51.4013C89.8068 51.5173 89.6423 51.6866 89.5216 51.9091C89.4008 52.1316 89.3405 52.4015 89.3405 52.7188ZM96.5679 56.1136C96.0566 56.1136 95.6162 55.9929 95.2469 55.7514C94.8776 55.5099 94.5935 55.1773 94.3946 54.7536C94.1958 54.3298 94.0963 53.8456 94.0963 53.3011C94.0963 52.7472 94.1981 52.2583 94.4017 51.8345C94.6077 51.4084 94.8941 51.0758 95.2611 50.8366C95.6304 50.5952 96.0613 50.4744 96.5537 50.4744C96.9372 50.4744 97.2829 50.5455 97.5906 50.6875C97.8984 50.8295 98.1505 51.0284 98.347 51.2841C98.5435 51.5398 98.6655 51.8381 98.7128 52.179H97.8747C97.8108 51.9304 97.6688 51.7102 97.4486 51.5185C97.2308 51.3243 96.9372 51.2273 96.5679 51.2273C96.2412 51.2273 95.9548 51.3125 95.7085 51.483C95.4647 51.651 95.2741 51.889 95.1368 52.1967C95.0019 52.5021 94.9344 52.8608 94.9344 53.2727C94.9344 53.6941 95.0007 54.0611 95.1333 54.3736C95.2682 54.6861 95.4576 54.9287 95.7014 55.1016C95.9477 55.2744 96.2365 55.3608 96.5679 55.3608C96.7857 55.3608 96.9834 55.3229 97.161 55.2472C97.3385 55.1714 97.4888 55.0625 97.6119 54.9205C97.7351 54.7784 97.8227 54.608 97.8747 54.4091H98.7128C98.6655 54.7311 98.5483 55.0211 98.3612 55.2791C98.1766 55.5348 97.9316 55.7384 97.6262 55.8899C97.3231 56.0391 96.9704 56.1136 96.5679 56.1136ZM102.225 56.1136C101.699 56.1136 101.246 55.9976 100.865 55.7656C100.486 55.5312 100.194 55.2045 99.9877 54.7855C99.7841 54.3641 99.6823 53.8741 99.6823 53.3153C99.6823 52.7566 99.7841 52.2642 99.9877 51.8381C100.194 51.4096 100.48 51.0758 100.847 50.8366C101.216 50.5952 101.647 50.4744 102.14 50.4744C102.424 50.4744 102.704 50.5218 102.981 50.6165C103.258 50.7112 103.51 50.8651 103.738 51.0781C103.965 51.2888 104.146 51.5682 104.281 51.9162C104.416 52.2642 104.483 52.6927 104.483 53.2017V53.5568H100.279V52.8324H103.631C103.631 52.5246 103.57 52.25 103.446 52.0085C103.326 51.767 103.153 51.5765 102.928 51.4368C102.705 51.2971 102.443 51.2273 102.14 51.2273C101.806 51.2273 101.517 51.3101 101.273 51.4759C101.032 51.6392 100.846 51.8523 100.716 52.1151C100.585 52.3778 100.52 52.6596 100.52 52.9602V53.4432C100.52 53.8551 100.591 54.2043 100.733 54.4908C100.878 54.7749 101.078 54.9915 101.334 55.1406C101.589 55.2874 101.886 55.3608 102.225 55.3608C102.445 55.3608 102.644 55.33 102.821 55.2685C103.001 55.2045 103.156 55.1098 103.287 54.9844C103.417 54.8565 103.517 54.6979 103.589 54.5085L104.398 54.7358C104.313 55.0104 104.17 55.2519 103.968 55.4602C103.767 55.6662 103.519 55.8272 103.223 55.9432C102.927 56.0568 102.594 56.1136 102.225 56.1136Z" fill="black"/>
<path fill-rule="evenodd" clip-rule="evenodd" d="M204.854 48.6464C205.049 48.8417 205.049 49.1583 204.854 49.3536L198.354 55.8536C198.158 56.0488 197.842 56.0488 197.647 55.8536L195.147 53.3536C194.951 53.1583 194.951 52.8417 195.147 52.6464C195.342 52.4512 195.658 52.4512 195.854 52.6464L198 54.7929L204.147 48.6464C204.342 48.4512 204.658 48.4512 204.854 48.6464Z" fill="#04101E"/>
<path fill-rule="evenodd" clip-rule="evenodd" d="M48.75 68C48.75 66.7574 49.7574 65.75 51 65.75H54.7932C55.3122 65.75 55.81 65.9562 56.1769 66.3232C56.4501 66.5965 56.8207 66.75 57.2071 66.75H61.0001C62.2427 66.75 63.2501 67.7574 63.2501 69V76C63.2501 77.2426 62.2427 78.25 61.0001 78.25H51.0001C49.7574 78.25 48.7501 77.2427 48.7501 76L48.75 68ZM51.0002 68.25C50.5859 68.25 50.2502 68.5858 50.2502 69V76C50.2502 76.4142 50.5859 76.75 51.0002 76.75H61.0002C61.4144 76.75 61.7502 76.4142 61.7502 76V69C61.7502 68.5858 61.4144 68.25 61.0002 68.25H51.0002Z" fill="#04101E"/>
<path d="M70.646 76L68.6574 68.7273H69.5523L71.0722 74.6506H71.1432L72.6915 68.7273H73.6858L75.2341 74.6506H75.3051L76.825 68.7273H77.7199L75.7313 76H74.8222L73.2171 70.2045H73.1602L71.5551 76H70.646ZM80.4117 76.1136C79.9192 76.1136 79.4872 75.9964 79.1155 75.7621C78.7462 75.5277 78.4574 75.1998 78.249 74.7784C78.0431 74.357 77.9401 73.8646 77.9401 73.3011C77.9401 72.733 78.0431 72.237 78.249 71.8132C78.4574 71.3894 78.7462 71.0604 79.1155 70.826C79.4872 70.5916 79.9192 70.4744 80.4117 70.4744C80.9041 70.4744 81.335 70.5916 81.7043 70.826C82.076 71.0604 82.3648 71.3894 82.5708 71.8132C82.7791 72.237 82.8833 72.733 82.8833 73.3011C82.8833 73.8646 82.7791 74.357 82.5708 74.7784C82.3648 75.1998 82.076 75.5277 81.7043 75.7621C81.335 75.9964 80.9041 76.1136 80.4117 76.1136ZM80.4117 75.3608C80.7857 75.3608 81.0935 75.2649 81.335 75.0732C81.5764 74.8814 81.7552 74.6293 81.8712 74.3168C81.9872 74.0043 82.0452 73.6657 82.0452 73.3011C82.0452 72.9366 81.9872 72.5968 81.8712 72.282C81.7552 71.9671 81.5764 71.7126 81.335 71.5185C81.0935 71.3243 80.7857 71.2273 80.4117 71.2273C80.0376 71.2273 79.7298 71.3243 79.4884 71.5185C79.2469 71.7126 79.0682 71.9671 78.9521 72.282C78.8361 72.5968 78.7781 72.9366 78.7781 73.3011C78.7781 73.6657 78.8361 74.0043 78.9521 74.3168C79.0682 74.6293 79.2469 74.8814 79.4884 75.0732C79.7298 75.2649 80.0376 75.3608 80.4117 75.3608ZM84.1626 76V70.5455H84.9722V71.3693H85.029C85.1285 71.0994 85.3084 70.8804 85.5688 70.7124C85.8292 70.5443 86.1228 70.4602 86.4495 70.4602C86.511 70.4602 86.588 70.4614 86.6803 70.4638C86.7726 70.4661 86.8425 70.4697 86.8898 70.4744V71.3267C86.8614 71.3196 86.7963 71.3089 86.6945 71.2947C86.5951 71.2782 86.4897 71.2699 86.3785 71.2699C86.1133 71.2699 85.8766 71.3255 85.6682 71.4368C85.4623 71.5457 85.2989 71.6972 85.1782 71.8913C85.0598 72.0831 85.0006 72.3021 85.0006 72.5483V76H84.1626ZM88.6645 74.0114L88.6503 72.9744H88.8208L91.2071 70.5455H92.2441L89.7014 73.1165H89.6304L88.6645 74.0114ZM87.8833 76V68.7273H88.7213V76H87.8833ZM91.3492 76L89.2185 73.3011L89.8151 72.7188L92.4145 76H91.3492Z" fill="black"/>
<path fill-rule="evenodd" clip-rule="evenodd" d="M204.854 68.6464C205.049 68.8417 205.049 69.1583 204.854 69.3536L198.354 75.8536C198.158 76.0488 197.842 76.0488 197.647 75.8536L195.147 73.3536C194.951 73.1583 194.951 72.8417 195.147 72.6464C195.342 72.4512 195.658 72.4512 195.854 72.6464L198 74.7929L204.147 68.6464C204.342 68.4512 204.658 68.4512 204.854 68.6464Z" fill="#04101E"/>
</svg>
