<svg width="16" height="16" viewBox="0 0 16 16" fill="none" xmlns="http://www.w3.org/2000/svg">
<path fill-rule="evenodd" clip-rule="evenodd" d="M7.998 6.90602C9.175 5.68202 10.406 4.65002 12.016 4.65002C14.161 4.65002 15.25 6.31702 15.25 8.00002C15.25 9.68302 14.16 11.35 12.016 11.35C10.406 11.35 9.175 10.318 7.998 9.09402C6.807 10.315 5.498 11.35 3.735 11.35C1.785 11.35 0.75 9.70102 0.75 8.00002C0.75 6.29902 1.785 4.65002 3.735 4.65002C5.498 4.65002 6.807 5.68602 7.998 6.90602ZM6.978 8.00002C6.068 7.03102 5.103 6.15002 3.735 6.15002C2.704 6.15002 2.25 7.10102 2.25 8.00002C2.25 8.90002 2.704 9.85002 3.735 9.85002C5.103 9.85002 6.068 8.96902 6.978 8.00002ZM12.016 6.15002C11.357 6.15002 10.803 6.42402 10.289 6.81102C9.845 7.14602 9.432 7.56202 9.022 8.00002C9.432 8.43802 9.845 8.85503 10.289 9.18903C10.803 9.57603 11.357 9.85002 12.016 9.85002C13.184 9.85002 13.75 8.91702 13.75 8.00002C13.75 7.08302 13.184 6.15002 12.016 6.15002Z" fill="url(#paint0_linear_1374_78647)"/>
<defs>
<linearGradient id="paint0_linear_1374_78647" x1="8" y1="4.65002" x2="8" y2="11.35" gradientUnits="userSpaceOnUse">
<stop stop-color="#FB6361"/>
<stop offset="1" stop-color="#F23433"/>
</linearGradient>
</defs>
</svg>
