<svg width="64" height="64" viewBox="0 0 64 64" fill="none" xmlns="http://www.w3.org/2000/svg">
<path fill-rule="evenodd" clip-rule="evenodd" d="M18 25.5C18 18.5964 23.5964 13 30.5 13C35.5888 13 39.9695 16.041 41.92 20.409C42.083 20.7742 42.448 21.0071 42.8479 21.0011C42.8986 21.0004 42.9493 21 43 21C48.5228 21 53 25.4772 53 31C53 36.5228 48.5228 41 43 41C42.4477 41 42 41.4477 42 42C42 42.5523 42.4477 43 43 43C49.6274 43 55 37.6274 55 31C55 24.5297 49.8792 19.2555 43.4693 19.009C41.0887 14.2615 36.1763 11 30.5 11C22.5845 11 16.1504 17.3425 16.0026 25.2226C11.993 26.1315 9 29.7156 9 34C9 38.9706 13.0294 43 18 43H21C21.5523 43 22 42.5523 22 42C22 41.4477 21.5523 41 21 41H18C14.134 41 11 37.866 11 34C11 30.4276 13.6769 27.479 17.1337 27.053C17.6504 26.9893 18.0318 26.5398 18.0106 26.0197C18.0036 25.8474 18 25.6741 18 25.5ZM31.2929 29.2929C31.6834 28.9024 32.3166 28.9024 32.7071 29.2929L38.7071 35.2929C39.0976 35.6834 39.0976 36.3166 38.7071 36.7071C38.3166 37.0976 37.6834 37.0976 37.2929 36.7071L33 32.4142V50C33 50.5523 32.5523 51 32 51C31.4477 51 31 50.5523 31 50V32.4142L26.7071 36.7071C26.3166 37.0976 25.6834 37.0976 25.2929 36.7071C24.9024 36.3166 24.9024 35.6834 25.2929 35.2929L31.2929 29.2929Z" fill="#FFFFFF"/>
</svg>
