<svg width="48" height="48" viewBox="0 0 48 48" fill="none" xmlns="http://www.w3.org/2000/svg">
<path opacity="0.4" fill-rule="evenodd" clip-rule="evenodd" d="M6.5 26.1923V38C6.5 38.6128 6.8684 39.2739 7.71678 39.9462C8.56017 40.6145 9.81269 41.238 11.4083 41.7707C14.5945 42.8344 19.0384 43.5 24 43.5C28.9616 43.5 33.4055 42.8344 36.5917 41.7707C38.1873 41.238 39.4398 40.6145 40.2832 39.9462C41.1316 39.2739 41.5 38.6128 41.5 38V26.1923C41.3204 26.3791 41.1207 26.5584 40.9043 26.73C39.9352 27.4979 38.5627 28.1669 36.9083 28.7192C33.5945 29.8256 29.0384 30.5 24 30.5C18.9616 30.5 14.4055 29.8256 11.0917 28.7192C9.43731 28.1669 8.06483 27.4979 7.09572 26.73C6.87926 26.5584 6.67955 26.3791 6.5 26.1923Z" fill="#535B65"/>
<path opacity="0.2" fill-rule="evenodd" clip-rule="evenodd" d="M6.5 12.1923V24C6.5 24.6128 6.8684 25.2739 7.71678 25.9462C8.56017 26.6145 9.81269 27.238 11.4083 27.7707C14.5945 28.8344 19.0384 29.5 24 29.5C28.9616 29.5 33.4055 28.8344 36.5917 27.7707C38.1873 27.238 39.4398 26.6145 40.2832 25.9462C41.1316 25.2739 41.5 24.6128 41.5 24V12.1923C41.3204 12.3791 41.1207 12.5584 40.9043 12.73C39.9352 13.4979 38.5627 14.1669 36.9083 14.7192C33.5945 15.8256 29.0384 16.5 24 16.5C18.9616 16.5 14.4055 15.8256 11.0917 14.7192C9.43731 14.1669 8.06483 13.4979 7.09572 12.73C6.87926 12.5584 6.67955 12.3791 6.5 12.1923Z" fill="#535B65"/>
<path fill-rule="evenodd" clip-rule="evenodd" d="M24 2C18.8743 2 14.1508 2.68959 10.6396 3.85999C8.89447 4.44171 7.33792 5.17846 6.17658 6.09371C5.03779 6.99118 4 8.29611 4 10V38C4 39.6988 5.02639 41.0041 6.16412 41.9056C7.32182 42.823 8.87425 43.5604 10.6167 44.1421C14.1222 45.3124 18.8465 46 24 46C29.1535 46 33.8778 45.3124 37.3833 44.1421C39.1258 43.5604 40.6782 42.823 41.8359 41.9056C42.9736 41.0041 44 39.6988 44 38V10C44 8.29611 42.9622 6.99118 41.8234 6.09371C40.6621 5.17846 39.1055 4.44171 37.3604 3.85999C33.8492 2.68959 29.1257 2 24 2ZM7 10C7 9.6093 7.23663 9.07795 8.0335 8.44994C8.81911 7.83082 10.0179 7.22952 11.5883 6.70604C14.7187 5.66256 19.107 5 24 5C28.893 5 33.2813 5.66256 36.4117 6.70604C37.9821 7.22952 39.1809 7.83082 39.9665 8.44994C40.7634 9.07795 41 9.6093 41 10C41 10.3907 40.7634 10.9221 39.9665 11.5501C39.1809 12.1692 37.9821 12.7705 36.4117 13.294C33.2813 14.3374 28.893 15 24 15C19.107 15 14.7187 14.3374 11.5883 13.294C10.0179 12.7705 8.81911 12.1692 8.0335 11.5501C7.23663 10.9221 7 10.3907 7 10ZM37.0442 15.1913C38.6228 14.6651 39.9828 14.0257 41 13.2766V24C41 24.3956 40.7632 24.928 39.9727 25.5544C39.1922 26.1729 37.9996 26.7736 36.4333 27.2965C33.3111 28.3388 28.9232 29 24 29C19.0768 29 14.6889 28.3388 11.5667 27.2965C10.0004 26.7736 8.80784 26.1729 8.02731 25.5544C7.23681 24.928 7 24.3956 7 24V13.2766C8.0172 14.0257 9.37722 14.6651 10.9559 15.1913C14.3401 16.3194 18.9519 17 24 17C29.0481 17 33.6599 16.3194 37.0442 15.1913ZM37.0667 29.1935C38.6365 28.6694 39.9879 28.0326 41 27.2861V38C41 38.3956 40.7632 38.928 39.9727 39.5544C39.1922 40.1729 37.9996 40.7736 36.4333 41.2965C33.3111 42.3388 28.9232 43 24 43C19.0768 43 14.6889 42.3388 11.5667 41.2965C10.0004 40.7736 8.80784 40.1729 8.02731 39.5544C7.23681 38.928 7 38.3956 7 38V27.2861C8.01205 28.0326 9.36349 28.6694 10.9333 29.1935C14.3111 30.3212 18.9232 31 24 31C29.0768 31 33.6889 30.3212 37.0667 29.1935Z" fill="#535B65"/>
</svg>
