<svg width="16" height="16" viewBox="0 0 16 16" fill="none" xmlns="http://www.w3.org/2000/svg">
<g clip-path="url(#clip0_2332_28947)">
<path fill-rule="evenodd" clip-rule="evenodd" d="M5.08324 5.83333C5.08324 3.02589 7.35912 0.75 10.1666 0.75C12.974 0.75 15.2499 3.02589 15.2499 5.83333C15.2499 8.64078 12.974 10.9167 10.1666 10.9167C9.9354 10.9167 9.70745 10.9012 9.48378 10.8711C9.32106 10.8492 9.21998 10.8358 9.14649 10.8287C9.13891 10.828 9.13213 10.8273 9.12611 10.8268C9.08829 10.8614 9.03817 10.9113 8.9485 11.001L7.80801 12.1414C7.66736 12.2821 7.47659 12.3611 7.27768 12.3611H6.58324V13.0556C6.58324 13.4698 6.24745 13.8056 5.83324 13.8056H5.13879V14.5C5.13879 14.9142 4.80301 15.25 4.38879 15.25L2.63188 15.25C2.45011 15.25 2.27154 15.25 2.12003 15.2377C1.95322 15.224 1.75435 15.1917 1.55375 15.0895C1.27673 14.9484 1.05151 14.7232 0.910366 14.4462C0.808157 14.2456 0.775863 14.0467 0.762234 13.8799C0.749855 13.7284 0.749878 13.5498 0.749901 13.368L0.749903 12.0898C0.749903 12.0778 0.749868 12.0654 0.749833 12.0527C0.749447 11.9161 0.748951 11.74 0.790581 11.5666C0.826646 11.4164 0.88613 11.2728 0.96685 11.141C1.06003 10.989 1.18489 10.8648 1.28179 10.7685C1.2908 10.7595 1.29956 10.7508 1.30803 10.7423L4.99895 7.05141C5.08862 6.96173 5.13848 6.91161 5.17306 6.87379C5.17256 6.86777 5.17195 6.86099 5.17122 6.85341C5.16413 6.77993 5.15066 6.67884 5.12879 6.51612C5.09872 6.29245 5.08324 6.0645 5.08324 5.83333ZM5.08324 12.3056H4.38879C3.97458 12.3056 3.63879 12.6413 3.63879 13.0556V13.75H2.65546C2.45268 13.75 2.33806 13.7495 2.25619 13.7437C2.25042 13.6618 2.2499 13.5472 2.2499 13.3444V12.0898C2.2499 12.0017 2.25006 11.9554 2.2513 11.9224C2.27376 11.8981 2.30645 11.8652 2.36869 11.803L6.05961 8.11207C6.07193 8.09974 6.08468 8.08708 6.09774 8.07411C6.22748 7.94524 6.38893 7.78488 6.4913 7.60174C6.58719 7.43019 6.63576 7.28646 6.66359 7.0919C6.68406 6.94875 6.674 6.80998 6.66428 6.70926C6.65415 6.60433 6.63674 6.47491 6.61718 6.32944L6.61541 6.31626C6.59422 6.15866 6.58324 5.99748 6.58324 5.83333C6.58324 3.85431 8.18755 2.25 10.1666 2.25C12.1456 2.25 13.7499 3.85431 13.7499 5.83333C13.7499 7.81235 12.1456 9.41667 10.1666 9.41667C10.0024 9.41667 9.84125 9.40568 9.68364 9.38449L9.67044 9.38272C9.52498 9.36316 9.39557 9.34575 9.29065 9.33562C9.18993 9.3259 9.05115 9.31584 8.908 9.33632C8.71345 9.36415 8.56972 9.41271 8.39816 9.50861C8.21502 9.61097 8.05467 9.77242 7.9258 9.90216C7.91282 9.91522 7.90017 9.92797 7.88784 9.9403L6.96702 10.8611H5.83324C5.41902 10.8611 5.08324 11.1969 5.08324 11.6111V12.3056Z" fill="#E31B57"/>
<path d="M9.41699 5.8335C9.41699 5.41928 9.75278 5.0835 10.167 5.0835H10.1742C10.5884 5.0835 10.9242 5.41928 10.9242 5.8335C10.9242 6.24771 10.5884 6.5835 10.1742 6.5835H10.167C9.75278 6.5835 9.41699 6.24771 9.41699 5.8335Z" fill="#E31B57"/>
</g>
<defs>
<clipPath id="clip0_2332_28947">
<rect width="16" height="16" fill="white"/>
</clipPath>
</defs>
</svg>
