<svg width="16" height="16" viewBox="0 0 16 16" fill="none" xmlns="http://www.w3.org/2000/svg">
<g clip-path="url(#clip0_1990_1336)">
<path fill-rule="evenodd" clip-rule="evenodd" d="M2 3.6C2 3.03995 2 2.75992 2.10899 2.54601C2.20487 2.35785 2.35785 2.20487 2.54601 2.10899C2.75992 2 3.03995 2 3.6 2H5.11365C5.44356 2 5.60851 2 5.76887 2.02623C5.91123 2.04951 6.05065 2.08813 6.1847 2.14141C6.3357 2.20142 6.47714 2.28629 6.76004 2.45602L7.73996 3.04398C8.02286 3.21371 8.1643 3.29858 8.3153 3.35859C8.44935 3.41187 8.58877 3.45049 8.73113 3.47377C8.89149 3.5 9.05644 3.5 9.38635 3.5H13.08C13.7521 3.5 14.0881 3.5 14.3448 3.63079C14.5706 3.74584 14.7542 3.92942 14.8692 4.15521C15 4.41191 15 4.74794 15 5.42V12.6C15 13.4401 15 13.8601 14.8365 14.181C14.6927 14.4632 14.4632 14.6927 14.181 14.8365C13.8601 15 13.4401 15 12.6 15H4.4C3.55992 15 3.13988 15 2.81901 14.8365C2.53677 14.6927 2.3073 14.4632 2.16349 14.181C2 13.8601 2 13.4401 2 12.6L2 3.6Z" fill="url(#paint0_linear_1990_1336)"/>
<path d="M3.59961 2.25H5.11328C5.36686 2.25 5.51014 2.25016 5.62305 2.25977L5.72852 2.27246C5.79077 2.28264 5.85238 2.29667 5.91309 2.31348L6.09277 2.37402C6.15639 2.39933 6.21863 2.42974 6.30078 2.47559L6.63184 2.66992L7.61133 3.25879C7.81839 3.38303 7.961 3.46878 8.09277 3.5332L8.22266 3.59082C8.29796 3.62075 8.37515 3.64636 8.45312 3.66797L8.69043 3.7207C8.87542 3.75096 9.06467 3.75 9.38672 3.75H13.0801C13.4201 3.75 13.6601 3.75031 13.8477 3.76562C13.986 3.77692 14.0834 3.79583 14.1602 3.82324L14.2314 3.85352C14.3656 3.92187 14.4807 4.02096 14.5684 4.1416L14.6465 4.26855C14.6909 4.35578 14.7193 4.4677 14.7344 4.65234C14.7497 4.83987 14.75 5.07989 14.75 5.41992V12.5996C14.75 13.0235 14.7498 13.3269 14.7305 13.5645C14.7161 13.7404 14.6921 13.8685 14.6553 13.9717L14.6133 14.0674C14.5084 14.2732 14.3492 14.4453 14.1533 14.5654L14.0674 14.6133C13.9481 14.6741 13.7991 14.7113 13.5645 14.7305C13.3269 14.7498 13.0235 14.75 12.5996 14.75H4.40039C3.97646 14.75 3.67307 14.7498 3.43555 14.7305C3.25957 14.7161 3.13146 14.6921 3.02832 14.6553L2.93262 14.6133C2.72681 14.5084 2.55465 14.3492 2.43457 14.1533L2.38672 14.0674C2.32592 13.9481 2.2887 13.7991 2.26953 13.5645C2.25015 13.3269 2.25 13.0235 2.25 12.5996V3.59961C2.25 3.31586 2.25013 3.11796 2.2627 2.96387C2.27195 2.85059 2.28744 2.77314 2.30859 2.71387L2.33203 2.65918C2.38591 2.55358 2.46364 2.46267 2.55859 2.39355L2.65918 2.33203C2.72502 2.29848 2.81258 2.27506 2.96387 2.2627C3.11796 2.25013 3.31586 2.25 3.59961 2.25Z" stroke="#074163" stroke-opacity="0.22" stroke-width="0.5"/>
<path d="M5.38379 2.7998C5.60956 2.7998 5.73783 2.79986 5.86523 2.81445L6.03125 2.83984C6.0859 2.85038 6.1406 2.86327 6.19434 2.87793L6.3877 2.94141C6.45919 2.96811 6.5415 3.00097 6.64648 3.04297L8.02539 3.59473L8.26465 3.68945C8.32527 3.71221 8.3715 3.72733 8.41797 3.74023L8.5459 3.77051C8.58892 3.77913 8.63221 3.78654 8.67578 3.79199L8.83691 3.80371C8.90142 3.80605 8.98232 3.80692 9.09473 3.80859L13.1113 3.86816L13.5537 3.87695C13.6852 3.88098 13.8016 3.88749 13.9053 3.89746C14.1148 3.91762 14.2896 3.95524 14.4482 4.03809L14.5439 4.09277C14.7597 4.22809 14.9346 4.42074 15.0498 4.64941L15.1025 4.77246C15.1472 4.89907 15.1708 5.03698 15.1836 5.19434C15.2004 5.4019 15.2002 5.66006 15.2002 5.98828V13.0996C15.2002 13.5163 15.2 13.8414 15.1787 14.1016C15.1626 14.2982 15.134 14.468 15.0791 14.6221L15.0146 14.7715C14.872 15.0514 14.6551 15.2859 14.3887 15.4492L14.2715 15.5146C14.0782 15.6131 13.8639 15.6573 13.6016 15.6787C13.3414 15.7 13.0163 15.7002 12.5996 15.7002H4.40039C3.98365 15.7002 3.6586 15.7 3.39844 15.6787C3.20176 15.6626 3.032 15.634 2.87793 15.5791L2.72852 15.5146C2.44856 15.372 2.21413 15.1551 2.05078 14.8887L1.98535 14.7715C1.88693 14.5782 1.84273 14.3639 1.82129 14.1016C1.80003 13.8414 1.7998 13.5163 1.7998 13.0996V4.59961C1.7998 4.32307 1.80002 4.10346 1.81445 3.92676C1.82909 3.74771 1.85943 3.59488 1.93066 3.45508L2.0293 3.29395C2.14003 3.14171 2.28578 3.01694 2.45508 2.93066L2.5625 2.88477C2.67288 2.84536 2.79238 2.82544 2.92676 2.81445C3.10346 2.80002 3.32307 2.7998 3.59961 2.7998H5.38379Z" fill="url(#paint1_linear_1990_1336)" stroke="#2880B4" stroke-width="0.4"/>
<mask id="mask0_1990_1336" style="mask-type:luminance" maskUnits="userSpaceOnUse" x="1" y="2" width="15" height="15">
<path d="M5.36133 2.7998C5.59529 2.7998 5.72841 2.79975 5.86035 2.81543L6.03125 2.84277C6.08798 2.8541 6.14449 2.86704 6.2002 2.88281L6.40039 2.95215C6.47404 2.98076 6.55895 3.0156 6.66699 3.06055L8.01074 3.62012L8.25781 3.7207C8.32034 3.74511 8.368 3.76155 8.41602 3.77539L8.54785 3.80859C8.59241 3.81786 8.63745 3.82519 8.68262 3.83105L8.84863 3.84375C8.91558 3.84628 8.99935 3.8478 9.11621 3.84961L13.1133 3.91113L13.5547 3.91992C13.6861 3.92402 13.8026 3.9304 13.9062 3.94043C14.1157 3.96072 14.2906 3.99905 14.4492 4.08203L14.5439 4.13574C14.7598 4.27111 14.9355 4.46358 15.0508 4.69238L15.1025 4.81543C15.1473 4.94204 15.1708 5.07995 15.1836 5.2373C15.2004 5.44479 15.2002 5.70316 15.2002 6.03125V13.5996C15.2002 14.0163 15.2 14.3414 15.1787 14.6016C15.1626 14.7982 15.134 14.968 15.0791 15.1221L15.0146 15.2715C14.872 15.5514 14.6551 15.7859 14.3887 15.9492L14.2715 16.0146C14.0782 16.1131 13.8639 16.1573 13.6016 16.1787C13.3414 16.2 13.0163 16.2002 12.5996 16.2002H4.40039C3.98365 16.2002 3.6586 16.2 3.39844 16.1787C3.20176 16.1626 3.032 16.134 2.87793 16.0791L2.72852 16.0146C2.44856 15.872 2.21413 15.6551 2.05078 15.3887L1.98535 15.2715C1.88693 15.0782 1.84273 14.8639 1.82129 14.6016C1.80003 14.3414 1.7998 14.0163 1.7998 13.5996V4.59961C1.7998 4.32307 1.80002 4.10346 1.81445 3.92676C1.82909 3.74771 1.85943 3.59488 1.93066 3.45508L2.0293 3.29395C2.14003 3.14171 2.28578 3.01694 2.45508 2.93066L2.5625 2.88477C2.67288 2.84536 2.79238 2.82544 2.92676 2.81445C3.10346 2.80002 3.32307 2.7998 3.59961 2.7998H5.36133Z" fill="white" stroke="white" stroke-width="0.4"/>
</mask>
<g mask="url(#mask0_1990_1336)">
<g style="mix-blend-mode:darken" filter="url(#filter0_df_1990_1336)">
<rect x="2" y="6" width="14" height="2" rx="1" fill="url(#paint2_linear_1990_1336)"/>
</g>
<path fill-rule="evenodd" clip-rule="evenodd" d="M2 7.6C2 7.03995 2 6.75992 2.10899 6.54601C2.20487 6.35785 2.35785 6.20487 2.54601 6.10899C2.75992 6 3.03995 6 3.6 6H13.4C13.9601 6 14.2401 6 14.454 6.10899C14.6422 6.20487 14.7951 6.35785 14.891 6.54601C15 6.75992 15 7.03995 15 7.6V13.1C15 13.9401 15 14.3601 14.8365 14.681C14.6927 14.9632 14.4632 15.1927 14.181 15.3365C13.8601 15.5 13.4401 15.5 12.6 15.5H4.4C3.55992 15.5 3.13988 15.5 2.81901 15.3365C2.53677 15.1927 2.3073 14.9632 2.16349 14.681C2 14.3601 2 13.9401 2 13.1V7.6Z" fill="#73D0FA"/>
<path fill-rule="evenodd" clip-rule="evenodd" d="M2 7.6C2 7.03995 2 6.75992 2.10899 6.54601C2.20487 6.35785 2.35785 6.20487 2.54601 6.10899C2.75992 6 3.03995 6 3.6 6H13.4C13.9601 6 14.2401 6 14.454 6.10899C14.6422 6.20487 14.7951 6.35785 14.891 6.54601C15 6.75992 15 7.03995 15 7.6V13.1C15 13.9401 15 14.3601 14.8365 14.681C14.6927 14.9632 14.4632 15.1927 14.181 15.3365C13.8601 15.5 13.4401 15.5 12.6 15.5H4.4C3.55992 15.5 3.13988 15.5 2.81901 15.3365C2.53677 15.1927 2.3073 14.9632 2.16349 14.681C2 14.3601 2 13.9401 2 13.1V7.6Z" fill="url(#paint3_radial_1990_1336)" fill-opacity="0.55"/>
<path d="M3.59961 6.125H13.4004C13.6823 6.125 13.8865 6.12557 14.0469 6.13867C14.1658 6.1484 14.2548 6.16427 14.3281 6.19043L14.3975 6.2207C14.5209 6.28365 14.6273 6.37433 14.708 6.48535L14.7793 6.60254C14.8233 6.68888 14.8483 6.79427 14.8613 6.95312C14.8744 7.11353 14.875 7.31772 14.875 7.59961V13.0996C14.875 13.5217 14.8744 13.8313 14.8545 14.0752C14.8396 14.257 14.8144 14.3963 14.7725 14.5137L14.7256 14.624C14.6102 14.8504 14.4342 15.0398 14.2188 15.1719L14.124 15.2256C13.9843 15.2967 13.8173 15.3347 13.5752 15.3545C13.3313 15.3744 13.0217 15.375 12.5996 15.375H4.40039C3.97829 15.375 3.66866 15.3744 3.4248 15.3545C3.24299 15.3396 3.10366 15.3144 2.98633 15.2725L2.87598 15.2256C2.64958 15.1102 2.46024 14.9342 2.32812 14.7188L2.27441 14.624C2.20328 14.4843 2.1653 14.3173 2.14551 14.0752C2.12558 13.8313 2.125 13.5217 2.125 13.0996V7.59961C2.125 7.31772 2.12557 7.11353 2.13867 6.95312C2.1484 6.83418 2.16427 6.74524 2.19043 6.67188L2.2207 6.60254C2.28365 6.47912 2.37433 6.3727 2.48535 6.29199L2.60254 6.2207C2.68888 6.17671 2.79427 6.15167 2.95312 6.13867C3.11353 6.12557 3.31772 6.125 3.59961 6.125Z" stroke="#B6E4FF" stroke-opacity="0.44" stroke-width="0.25"/>
<g opacity="0.7008" filter="url(#filter1_f_1990_1336)">
<rect x="2" y="5" width="1" height="11" fill="#73AED2"/>
</g>
<g opacity="0.7008" filter="url(#filter2_f_1990_1336)">
<rect x="16" y="5" width="1" height="12" fill="#73AED2"/>
</g>
</g>
</g>
<defs>
<filter id="filter0_df_1990_1336" x="-0.718282" y="3.28172" width="19.4366" height="7.71828" filterUnits="userSpaceOnUse" color-interpolation-filters="sRGB">
<feFlood flood-opacity="0" result="BackgroundImageFix"/>
<feColorMatrix in="SourceAlpha" type="matrix" values="0 0 0 0 0 0 0 0 0 0 0 0 0 0 0 0 0 0 127 0" result="hardAlpha"/>
<feOffset dy="1"/>
<feGaussianBlur stdDeviation="1"/>
<feColorMatrix type="matrix" values="0 0 0 0 0.243148 0 0 0 0 0.530446 0 0 0 0 0.784098 0 0 0 1 0"/>
<feBlend mode="normal" in2="BackgroundImageFix" result="effect1_dropShadow_1990_1336"/>
<feBlend mode="normal" in="SourceGraphic" in2="effect1_dropShadow_1990_1336" result="shape"/>
<feGaussianBlur stdDeviation="1.35914" result="effect2_foregroundBlur_1990_1336"/>
</filter>
<filter id="filter1_f_1990_1336" x="-0.718282" y="2.28172" width="6.43656" height="16.4366" filterUnits="userSpaceOnUse" color-interpolation-filters="sRGB">
<feFlood flood-opacity="0" result="BackgroundImageFix"/>
<feBlend mode="normal" in="SourceGraphic" in2="BackgroundImageFix" result="shape"/>
<feGaussianBlur stdDeviation="1.35914" result="effect1_foregroundBlur_1990_1336"/>
</filter>
<filter id="filter2_f_1990_1336" x="13.2817" y="2.28172" width="6.43656" height="17.4366" filterUnits="userSpaceOnUse" color-interpolation-filters="sRGB">
<feFlood flood-opacity="0" result="BackgroundImageFix"/>
<feBlend mode="normal" in="SourceGraphic" in2="BackgroundImageFix" result="shape"/>
<feGaussianBlur stdDeviation="1.35914" result="effect1_foregroundBlur_1990_1336"/>
</filter>
<linearGradient id="paint0_linear_1990_1336" x1="2" y1="2" x2="2" y2="15" gradientUnits="userSpaceOnUse">
<stop offset="0.000158361" stop-color="#6298C9"/>
<stop offset="0.270858" stop-color="#4DABE2"/>
<stop offset="1" stop-color="#5E9CDE"/>
</linearGradient>
<linearGradient id="paint1_linear_1990_1336" x1="2" y1="3" x2="2" y2="15.5" gradientUnits="userSpaceOnUse">
<stop offset="0.000158361" stop-color="#6298C9"/>
<stop offset="0.270858" stop-color="#4DABE2"/>
<stop offset="1" stop-color="#5E9CDE"/>
</linearGradient>
<linearGradient id="paint2_linear_1990_1336" x1="2" y1="6" x2="2" y2="8" gradientUnits="userSpaceOnUse">
<stop offset="0.000158361" stop-color="#1E6293"/>
<stop offset="1" stop-color="#17659D"/>
</linearGradient>
<radialGradient id="paint3_radial_1990_1336" cx="0" cy="0" r="1" gradientUnits="userSpaceOnUse" gradientTransform="translate(8.5 8.16848) rotate(90) scale(7.33152 10.0326)">
<stop stop-color="white" stop-opacity="0.278354"/>
<stop offset="1" stop-color="white" stop-opacity="0.01"/>
</radialGradient>
<clipPath id="clip0_1990_1336">
<rect width="16" height="16" fill="white"/>
</clipPath>
</defs>
</svg>
