<svg width="16" height="16" viewBox="0 0 16 16" fill="none" xmlns="http://www.w3.org/2000/svg">
<g clip-path="url(#clip0_1858_35517)">
<path d="M11.0684 10.445C11.1744 10.445 11.2599 10.3594 11.2599 10.2494V5.75049C11.2599 5.64047 11.1744 5.55489 11.0684 5.55489H10.502C10.4001 5.55489 10.3023 5.59564 10.2289 5.66899L8.06915 7.8573C8.03248 7.89398 7.96728 7.89398 7.9306 7.8573L5.77082 5.66899C5.69747 5.59564 5.59967 5.55489 5.49779 5.55489H4.93136C4.8254 5.55489 4.73983 5.64047 4.73983 5.75049V10.2494C4.73983 10.3594 4.8254 10.445 4.93136 10.445H5.75452C5.86047 10.445 5.94605 10.3594 5.94605 10.2494V7.6943C5.94605 7.66985 5.97457 7.6617 5.9868 7.67392L7.72685 9.43435C7.87763 9.5892 8.12213 9.5892 8.27291 9.43435L10.013 7.67392C10.0252 7.6617 10.0537 7.66985 10.0537 7.6943V10.2494C10.0537 10.3594 10.1393 10.445 10.2452 10.445H11.0684Z" fill="#303233"/>
<path fill-rule="evenodd" clip-rule="evenodd" d="M7.99992 0.833252C4.04188 0.833252 0.833252 4.04188 0.833252 7.99992C0.833252 11.958 4.04188 15.1666 7.99992 15.1666C11.958 15.1666 15.1666 11.958 15.1666 7.99992C15.1666 4.04188 11.958 0.833252 7.99992 0.833252ZM1.83325 7.99992C1.83325 4.59416 4.59416 1.83325 7.99992 1.83325C11.4057 1.83325 14.1666 4.59416 14.1666 7.99992C14.1666 11.4057 11.4057 14.1666 7.99992 14.1666C4.59416 14.1666 1.83325 11.4057 1.83325 7.99992Z" fill="#303233"/>
</g>
<defs>
<clipPath id="clip0_1858_35517">
<rect width="16" height="16" fill="white"/>
</clipPath>
</defs>
</svg>
