<svg width="14" height="14" viewBox="0 0 14 14" fill="none" xmlns="http://www.w3.org/2000/svg">
<path d="M4 6.5C3.72386 6.5 3.5 6.72386 3.5 7C3.5 7.27614 3.72386 7.5 4 7.5H10C10.2761 7.5 10.5 7.27614 10.5 7C10.5 6.72386 10.2761 6.5 10 6.5H4Z" fill="#303233"/>
<path fill-rule="evenodd" clip-rule="evenodd" d="M7 0C3.13401 0 0 3.13401 0 7C0 10.866 3.13401 14 7 14C10.866 14 14 10.866 14 7C14 3.13401 10.866 0 7 0ZM1 7C1 3.68629 3.68629 1 7 1C10.3137 1 13 3.68629 13 7C13 10.3137 10.3137 13 7 13C3.68629 13 1 10.3137 1 7Z" fill="#303233"/>
</svg>
