<svg width="16" height="16" viewBox="0 0 16 16" fill="none" xmlns="http://www.w3.org/2000/svg">
<path fill-rule="evenodd" clip-rule="evenodd" d="M4.51185 1.5H11.488C12.0299 1.5 12.467 1.49999 12.8209 1.52891C13.1853 1.55868 13.5054 1.62159 13.8016 1.77248C14.272 2.01217 14.6544 2.39462 14.8941 2.86502C15.045 3.16117 15.1079 3.48126 15.1377 3.84569C15.1666 4.19963 15.1666 4.6367 15.1666 5.17858V8.15475C15.1666 8.69664 15.1666 9.13371 15.1377 9.48765C15.1079 9.85207 15.045 10.1722 14.8941 10.4683C14.6544 10.9387 14.272 11.3212 13.8016 11.5608C13.5054 11.7117 13.1853 11.7746 12.8209 11.8044C12.467 11.8333 12.0299 11.8333 11.488 11.8333H4.51184C3.96995 11.8333 3.53288 11.8333 3.17894 11.8044C2.81452 11.7746 2.49442 11.7117 2.19828 11.5608C1.72787 11.3212 1.34542 10.9387 1.10574 10.4683C0.954842 10.1722 0.891936 9.85207 0.862161 9.48765C0.833243 9.13371 0.833247 8.69663 0.833252 8.15474V5.1786C0.833247 4.6367 0.833243 4.19963 0.862161 3.84569C0.891936 3.48126 0.954842 3.16117 1.10574 2.86502C1.34542 2.39462 1.72787 2.01217 2.19828 1.77248C2.49442 1.62159 2.81452 1.55868 3.17894 1.52891C3.53288 1.49999 3.96996 1.5 4.51185 1.5ZM3.26037 2.52559C2.95779 2.55031 2.78394 2.5964 2.65227 2.66349C2.37002 2.8073 2.14055 3.03677 1.99674 3.31901C1.92965 3.45069 1.88356 3.62454 1.85884 3.92712C1.83364 4.23554 1.83325 4.6317 1.83325 5.2V8.13333C1.83325 8.70164 1.83364 9.09779 1.85884 9.40621C1.88356 9.7088 1.92965 9.88264 1.99674 10.0143C2.14055 10.2966 2.37002 10.526 2.65227 10.6698C2.78394 10.7369 2.95779 10.783 3.26037 10.8077C3.56879 10.8329 3.96495 10.8333 4.53325 10.8333H11.4666C12.0349 10.8333 12.431 10.8329 12.7395 10.8077C13.042 10.783 13.2159 10.7369 13.3476 10.6698C13.6298 10.526 13.8593 10.2966 14.0031 10.0143C14.0702 9.88264 14.1163 9.7088 14.141 9.40621C14.1662 9.09779 14.1666 8.70164 14.1666 8.13333V5.2C14.1666 4.6317 14.1662 4.23554 14.141 3.92712C14.1163 3.62454 14.0702 3.45069 14.0031 3.31901C13.8593 3.03677 13.6298 2.8073 13.3476 2.66349C13.2159 2.5964 13.042 2.55031 12.7395 2.52559C12.431 2.50039 12.0349 2.5 11.4666 2.5H4.53325C3.96495 2.5 3.56879 2.50039 3.26037 2.52559ZM7.99992 13.8333C7.01594 13.8333 6.08748 14.0559 5.26402 14.4508C5.01504 14.5702 4.71639 14.4652 4.59697 14.2162C4.47755 13.9672 4.58258 13.6686 4.83157 13.5492C5.78784 13.0905 6.86386 12.8333 7.99992 12.8333C9.13598 12.8333 10.212 13.0905 11.1683 13.5492C11.4173 13.6686 11.5223 13.9672 11.4029 14.2162C11.2835 14.4652 10.9848 14.5702 10.7358 14.4508C9.91236 14.0559 8.9839 13.8333 7.99992 13.8333Z" fill="#303233"/>
</svg>
