<svg width="16" height="16" viewBox="0 0 16 16" fill="none" xmlns="http://www.w3.org/2000/svg">
<path fill-rule="evenodd" clip-rule="evenodd" d="M12.6666 3.33331C13.403 3.33331 14 3.93027 14 4.66665V10.6666C14 11.403 13.403 12 12.6666 12H3.33329C2.59691 12 1.99996 11.403 1.99996 10.6666V4.66665C1.99996 3.93027 2.59691 3.33331 3.33329 3.33331H12.6666ZM12.6666 3.99998H3.33329C2.9914 3.99998 2.70962 4.25734 2.67111 4.5889L2.66663 4.66665V10.6666C2.66663 11.0085 2.92399 11.2903 3.25555 11.3288L3.33329 11.3333H12.6666C13.0085 11.3333 13.2903 11.076 13.3288 10.7444L13.3333 10.6666V4.66665C13.3333 4.32476 13.0759 4.04297 12.7444 4.00446L12.6666 3.99998ZM0.999959 12.6666C0.815864 12.6666 0.666626 12.8159 0.666626 13C0.666626 13.1841 0.815864 13.3333 0.999959 13.3333H15C15.1841 13.3333 15.3333 13.1841 15.3333 13C15.3333 12.8159 15.1841 12.6666 15 12.6666H0.999959Z" fill="#616366"/>
</svg>
