<svg width="16" height="16" viewBox="0 0 16 16" fill="none" xmlns="http://www.w3.org/2000/svg">
<path fill-rule="evenodd" clip-rule="evenodd" d="M11.3304 1.75H4.66957C4.13542 1.74999 3.68956 1.74998 3.32533 1.77974C2.94545 1.81078 2.58879 1.87789 2.25153 2.04973C1.73408 2.31339 1.31339 2.73408 1.04973 3.25153C0.877889 3.58879 0.810778 3.94545 0.77974 4.32533C0.749982 4.68956 0.74999 5.13541 0.75 5.66955V8.33044C0.74999 8.86458 0.749982 9.31044 0.77974 9.67467C0.810778 10.0546 0.877889 10.4112 1.04973 10.7485C1.31339 11.2659 1.73408 11.6866 2.25153 11.9503C2.58879 12.1221 2.94545 12.1892 3.32533 12.2203C3.68955 12.25 4.13538 12.25 4.66951 12.25H11.3305C11.8646 12.25 12.3105 12.25 12.6747 12.2203C13.0546 12.1892 13.4112 12.1221 13.7485 11.9503C14.2659 11.6866 14.6866 11.2659 14.9503 10.7485C15.1221 10.4112 15.1892 10.0546 15.2203 9.67467C15.25 9.31045 15.25 8.86462 15.25 8.3305V5.66955C15.25 5.13542 15.25 4.68955 15.2203 4.32533C15.1892 3.94545 15.1221 3.58879 14.9503 3.25153C14.6866 2.73408 14.2659 2.31339 13.7485 2.04973C13.4112 1.87789 13.0546 1.81078 12.6747 1.77974C12.3104 1.74998 11.8646 1.74999 11.3304 1.75ZM2.93251 3.38624C3.02307 3.3401 3.16036 3.29822 3.44748 3.27476C3.74336 3.25058 4.12757 3.25 4.7 3.25H11.3C11.8724 3.25 12.2566 3.25058 12.5525 3.27476C12.8396 3.29822 12.9769 3.3401 13.0675 3.38624C13.3027 3.50608 13.4939 3.69731 13.6138 3.93251C13.6599 4.02307 13.7018 4.16036 13.7252 4.44748C13.7494 4.74336 13.75 5.12757 13.75 5.7V8.3C13.75 8.87243 13.7494 9.25664 13.7252 9.55252C13.7018 9.83965 13.6599 9.97693 13.6138 10.0675C13.4939 10.3027 13.3027 10.4939 13.0675 10.6138C12.9769 10.6599 12.8396 10.7018 12.5525 10.7252C12.2566 10.7494 11.8724 10.75 11.3 10.75H4.7C4.12757 10.75 3.74336 10.7494 3.44748 10.7252C3.16036 10.7018 3.02307 10.6599 2.93251 10.6138C2.69731 10.4939 2.50608 10.3027 2.38624 10.0675C2.3401 9.97693 2.29822 9.83965 2.27476 9.55252C2.25058 9.25664 2.25 8.87243 2.25 8.3V5.7C2.25 5.12757 2.25058 4.74336 2.27476 4.44748C2.29822 4.16036 2.3401 4.02307 2.38624 3.93251C2.50608 3.69731 2.69731 3.50608 2.93251 3.38624Z" fill="#FAFAFA"/>
<path d="M5.35187 14.9124C6.15197 14.4876 7.05016 14.25 8.00015 14.25C8.95014 14.25 9.84833 14.4876 10.6484 14.9124C11.0143 15.1067 11.4683 14.9676 11.6626 14.6017C11.8568 14.2359 11.7177 13.7818 11.3519 13.5876C10.3434 13.0521 9.20458 12.75 8.00015 12.75C6.79572 12.75 5.65692 13.0521 4.64843 13.5876C4.28259 13.7818 4.14349 14.2359 4.33774 14.6017C4.53199 14.9676 4.98603 15.1067 5.35187 14.9124Z" fill="#FAFAFA"/>
</svg>
