<svg width="48" height="48" viewBox="0 0 48 48" fill="none" xmlns="http://www.w3.org/2000/svg">
<path fill-rule="evenodd" clip-rule="evenodd" d="M38 10C40.2091 10 42 11.7909 42 14V32C42 34.2091 40.2091 36 38 36H10C7.79086 36 6 34.2091 6 32V14C6 11.7909 7.79086 10 10 10H38ZM38 12H10C8.97433 12 8.12899 12.7721 8.01346 13.7668L8 14V32C8 33.0257 8.77208 33.871 9.76676 33.9865L10 34H38C39.0257 34 39.871 33.2279 39.9865 32.2332L40 32V14C40 12.9743 39.2279 12.129 38.2332 12.0135L38 12ZM3 38C2.44772 38 2 38.4477 2 39C2 39.5523 2.44771 40 3 40H45C45.5523 40 46 39.5523 46 39C46 38.4477 45.5523 38 45 38H3Z" fill="#04101E"/>
<g clip-path="url(#clip0_4_25149)">
<path d="M27.0683 25.445C27.1743 25.445 27.2598 25.3595 27.2598 25.2494V20.7506C27.2598 20.6405 27.1743 20.555 27.0683 20.555H26.5019C26.4 20.555 26.3022 20.5957 26.2289 20.6691L24.0691 22.8574C24.0324 22.8941 23.9672 22.8941 23.9305 22.8574L21.7707 20.6691C21.6974 20.5957 21.5996 20.555 21.4977 20.555H20.9313C20.8253 20.555 20.7397 20.6405 20.7397 20.7506V25.2494C20.7397 25.3595 20.8253 25.445 20.9313 25.445H21.7544C21.8604 25.445 21.946 25.3595 21.946 25.2494V22.6944C21.946 22.6699 21.9745 22.6618 21.9867 22.674L23.7268 24.4344C23.8775 24.5893 24.122 24.5893 24.2728 24.4344L26.0129 22.674C26.0251 22.6618 26.0536 22.6699 26.0536 22.6944V25.2494C26.0536 25.3595 26.1392 25.445 26.2452 25.445H27.0683Z" fill="#04101E"/>
<path fill-rule="evenodd" clip-rule="evenodd" d="M24 15.75C19.9959 15.75 16.75 18.9959 16.75 23C16.75 27.0041 19.9959 30.25 24 30.25C28.0041 30.25 31.25 27.0041 31.25 23C31.25 18.9959 28.0041 15.75 24 15.75ZM18.25 23C18.25 19.8244 20.8244 17.25 24 17.25C27.1756 17.25 29.75 19.8244 29.75 23C29.75 26.1756 27.1756 28.75 24 28.75C20.8244 28.75 18.25 26.1756 18.25 23Z" fill="#04101E"/>
</g>
<defs>
<clipPath id="clip0_4_25149">
<rect width="16" height="16" fill="white" transform="translate(16 15)"/>
</clipPath>
</defs>
</svg>
