<svg width="16" height="16" viewBox="0 0 16 16" fill="none" xmlns="http://www.w3.org/2000/svg">
<path fill-rule="evenodd" clip-rule="evenodd" d="M6.25 5C6.25 4.0335 7.0335 3.25 8 3.25C8.9665 3.25 9.75 4.0335 9.75 5C9.75 5.9665 8.9665 6.75 8 6.75C7.0335 6.75 6.25 5.9665 6.25 5ZM8 1.75C6.20507 1.75 4.75 3.20507 4.75 5C4.75 6.79493 6.20507 8.25 8 8.25C9.79493 8.25 11.25 6.79493 11.25 5C11.25 3.20507 9.79493 1.75 8 1.75ZM3.83477 13.6492C4.22848 11.7096 5.9445 10.25 7.99974 10.25C10.055 10.25 11.771 11.7096 12.1647 13.6492C12.2471 14.0551 12.643 14.3174 13.0489 14.235C13.4549 14.1526 13.7171 13.7567 13.6347 13.3508C13.1019 10.7259 10.7824 8.75 7.99974 8.75C5.21706 8.75 2.89757 10.7259 2.36475 13.3508C2.28235 13.7567 2.54462 14.1526 2.95056 14.235C3.35649 14.3174 3.75237 14.0551 3.83477 13.6492Z" fill="#E31B57"/>
</svg>
