<svg width="64" height="64" viewBox="0 0 64 64" fill="none" xmlns="http://www.w3.org/2000/svg">
<path fill-rule="evenodd" clip-rule="evenodd" d="M8.00008 32.0001C8.00008 18.7452 18.7452 8.00008 32.0001 8.00008C45.2549 8.00008 56.0001 18.7452 56.0001 32.0001C56.0001 32.509 55.9842 33.0141 55.953 33.5151L46.438 24.0001C44.3552 21.9173 40.9783 21.9173 38.8955 24.0001L14.4862 48.4094C10.4634 44.1176 8.00008 38.3465 8.00008 32.0001ZM18.5548 51.8832C22.3905 54.482 27.018 56.0001 32.0001 56.0001C42.522 56.0001 51.4625 49.229 54.7019 39.8065L42.6667 27.7713L18.5548 51.8832ZM32.0001 2.66675C15.7997 2.66675 2.66675 15.7997 2.66675 32.0001C2.66675 48.2004 15.7997 61.3334 32.0001 61.3334C48.2004 61.3334 61.3334 48.2004 61.3334 32.0001C61.3334 15.7997 48.2004 2.66675 32.0001 2.66675ZM24.0001 18.6667C22.5273 18.6667 21.3334 19.8607 21.3334 21.3334C21.3334 22.8062 22.5273 24.0001 24.0001 24.0001C25.4728 24.0001 26.6667 22.8062 26.6667 21.3334C26.6667 19.8607 25.4728 18.6667 24.0001 18.6667ZM16.0001 21.3334C16.0001 16.9151 19.5818 13.3334 24.0001 13.3334C28.4184 13.3334 32.0001 16.9151 32.0001 21.3334C32.0001 25.7517 28.4184 29.3334 24.0001 29.3334C19.5818 29.3334 16.0001 25.7517 16.0001 21.3334Z" fill="#8E8E93"/>
</svg>
