<svg width="172" height="100" viewBox="0 0 172 100" fill="none" xmlns="http://www.w3.org/2000/svg">
<path fill-rule="evenodd" clip-rule="evenodd" d="M24.75 6.00002C24.75 4.75737 25.7574 3.75 27 3.75H30.7932C31.3122 3.75 31.81 3.9562 32.1769 4.32324C32.4501 4.59649 32.8207 4.75 33.2071 4.75H37.0001C38.2427 4.75 39.2501 5.75736 39.2501 7V14C39.2501 15.2426 38.2427 16.25 37.0001 16.25H27.0001C25.7574 16.25 24.7501 15.2427 24.7501 14L24.75 6.00002ZM27.0002 6.25C26.5859 6.25 26.2502 6.58579 26.2502 7V14C26.2502 14.4142 26.5859 14.75 27.0002 14.75H37.0002C37.4144 14.75 37.7502 14.4142 37.7502 14V7C37.7502 6.58579 37.4144 6.25 37.0002 6.25H27.0002Z" fill="#04101E" fill-opacity="0.1"/>
<path d="M50.98 9H50.0993C50.0473 8.74669 49.9561 8.52415 49.8259 8.33239C49.6981 8.14062 49.5418 7.97964 49.3572 7.84943C49.1749 7.71686 48.9724 7.61742 48.7499 7.55114C48.5274 7.48485 48.2954 7.4517 48.0539 7.4517C47.6135 7.4517 47.2146 7.56297 46.8572 7.78551C46.502 8.00805 46.2191 8.33594 46.0084 8.76918C45.8001 9.20241 45.6959 9.7339 45.6959 10.3636C45.6959 10.9934 45.8001 11.5249 46.0084 11.9581C46.2191 12.3913 46.502 12.7192 46.8572 12.9418C47.2146 13.1643 47.6135 13.2756 48.0539 13.2756C48.2954 13.2756 48.5274 13.2424 48.7499 13.1761C48.9724 13.1098 49.1749 13.0116 49.3572 12.8814C49.5418 12.7488 49.6981 12.5866 49.8259 12.3949C49.9561 12.2008 50.0473 11.9782 50.0993 11.7273H50.98C50.9137 12.099 50.793 12.4316 50.6178 12.7251C50.4426 13.0187 50.2248 13.2685 49.9644 13.4744C49.704 13.678 49.4116 13.8331 49.0873 13.9396C48.7653 14.0462 48.4208 14.0994 48.0539 14.0994C47.4336 14.0994 46.882 13.9479 46.3991 13.6449C45.9161 13.3419 45.5361 12.911 45.2591 12.3523C44.9822 11.7936 44.8437 11.1307 44.8437 10.3636C44.8437 9.59659 44.9822 8.93371 45.2591 8.375C45.5361 7.81629 45.9161 7.38542 46.3991 7.08239C46.882 6.77936 47.4336 6.62784 48.0539 6.62784C48.4208 6.62784 48.7653 6.68111 49.0873 6.78764C49.4116 6.89418 49.704 7.05043 49.9644 7.25639C50.2248 7.45999 50.4426 7.70857 50.6178 8.00213C50.793 8.29332 50.9137 8.62595 50.98 9ZM53.8946 14.1278C53.549 14.1278 53.2353 14.0627 52.9536 13.9325C52.6718 13.8 52.4481 13.6094 52.2824 13.3608C52.1167 13.1098 52.0338 12.8068 52.0338 12.4517C52.0338 12.1392 52.0954 11.8859 52.2185 11.6918C52.3416 11.4953 52.5061 11.3414 52.7121 11.2301C52.9181 11.1188 53.1453 11.036 53.3939 10.9815C53.6449 10.9247 53.897 10.8797 54.1503 10.8466C54.4817 10.804 54.7504 10.772 54.9564 10.7507C55.1647 10.727 55.3163 10.688 55.411 10.6335C55.508 10.5791 55.5566 10.4844 55.5566 10.3494V10.321C55.5566 9.97064 55.4607 9.69839 55.2689 9.50426C55.0795 9.31013 54.7919 9.21307 54.406 9.21307C54.0059 9.21307 53.6922 9.30066 53.4649 9.47585C53.2377 9.65104 53.0779 9.83807 52.9855 10.0369L52.1901 9.75284C52.3321 9.4214 52.5215 9.16335 52.7583 8.97869C52.9974 8.79167 53.2578 8.66146 53.5395 8.58807C53.8236 8.51231 54.103 8.47443 54.3776 8.47443C54.5528 8.47443 54.754 8.49574 54.9813 8.53835C55.2109 8.5786 55.4323 8.66264 55.6453 8.79048C55.8608 8.91832 56.0395 9.11127 56.1816 9.36932C56.3236 9.62737 56.3946 9.97301 56.3946 10.4062V14H55.5566V13.2614H55.5139C55.4571 13.3797 55.3624 13.5064 55.2298 13.6413C55.0973 13.7763 54.9209 13.8911 54.7007 13.9858C54.4806 14.0805 54.2119 14.1278 53.8946 14.1278ZM54.0225 13.375C54.3539 13.375 54.6333 13.3099 54.8605 13.1797C55.0902 13.0495 55.263 12.8814 55.379 12.6754C55.4974 12.4695 55.5566 12.2528 55.5566 12.0256V11.2585C55.521 11.3011 55.4429 11.3402 55.3222 11.3757C55.2038 11.4089 55.0665 11.4384 54.9102 11.4645C54.7564 11.4882 54.606 11.5095 54.4593 11.5284C54.3148 11.545 54.1977 11.5592 54.1077 11.571C53.8899 11.5994 53.6863 11.6456 53.4969 11.7095C53.3099 11.7711 53.1584 11.8646 53.0423 11.9901C52.9287 12.1132 52.8719 12.2812 52.8719 12.4943C52.8719 12.7855 52.9796 13.0057 53.195 13.1548C53.4128 13.3016 53.6887 13.375 54.0225 13.375ZM57.9243 14V8.54545H58.7339V9.39773H58.805C58.9186 9.10653 59.1021 8.88045 59.3554 8.71946C59.6087 8.55611 59.9129 8.47443 60.268 8.47443C60.6279 8.47443 60.9273 8.55611 61.1665 8.71946C61.4079 8.88045 61.5961 9.10653 61.7311 9.39773H61.7879C61.9276 9.116 62.1371 8.89228 62.4165 8.72656C62.6958 8.55848 63.0308 8.47443 63.4214 8.47443C63.9091 8.47443 64.308 8.62713 64.6182 8.93253C64.9283 9.23556 65.0834 9.70786 65.0834 10.3494V14H64.2453V10.3494C64.2453 9.94697 64.1352 9.65933 63.915 9.48651C63.6949 9.31368 63.4356 9.22727 63.1373 9.22727C62.7538 9.22727 62.4567 9.34328 62.246 9.57528C62.0353 9.80492 61.93 10.0961 61.93 10.4489V14H61.0777V10.2642C61.0777 9.95407 60.9771 9.70431 60.7758 9.51491C60.5746 9.32315 60.3154 9.22727 59.9981 9.22727C59.7803 9.22727 59.5767 9.28527 59.3873 9.40128C59.2003 9.51728 59.0488 9.67827 58.9328 9.88423C58.8192 10.0878 58.7623 10.3234 58.7623 10.5909V14H57.9243ZM68.9026 14.1136C68.377 14.1136 67.9237 13.9976 67.5425 13.7656C67.1637 13.5312 66.8714 13.2045 66.6654 12.7855C66.4618 12.3641 66.36 11.8741 66.36 11.3153C66.36 10.7566 66.4618 10.2642 66.6654 9.83807C66.8714 9.40956 67.1578 9.07576 67.5248 8.83665C67.8941 8.59517 68.325 8.47443 68.8174 8.47443C69.1015 8.47443 69.382 8.52178 69.659 8.61648C69.936 8.71117 70.1881 8.86506 70.4154 9.07812C70.6427 9.28883 70.8238 9.56818 70.9587 9.91619C71.0937 10.2642 71.1611 10.6927 71.1611 11.2017V11.5568H66.9566V10.8324H70.3089C70.3089 10.5246 70.2473 10.25 70.1242 10.0085C70.0035 9.76705 69.8306 9.57647 69.6057 9.43679C69.3832 9.29711 69.1204 9.22727 68.8174 9.22727C68.4836 9.22727 68.1948 9.31013 67.9509 9.47585C67.7094 9.6392 67.5236 9.85227 67.3934 10.1151C67.2632 10.3778 67.1981 10.6596 67.1981 10.9602V11.4432C67.1981 11.8551 67.2691 12.2043 67.4111 12.4908C67.5555 12.7749 67.7556 12.9915 68.0113 13.1406C68.267 13.2874 68.5641 13.3608 68.9026 13.3608C69.1228 13.3608 69.3216 13.33 69.4992 13.2685C69.6791 13.2045 69.8342 13.1098 69.9644 12.9844C70.0946 12.8565 70.1952 12.6979 70.2662 12.5085L71.0759 12.7358C70.9907 13.0104 70.8474 13.2519 70.6462 13.4602C70.445 13.6662 70.1964 13.8272 69.9005 13.9432C69.6046 14.0568 69.2719 14.1136 68.9026 14.1136ZM72.436 14V8.54545H73.2456V9.36932H73.3025C73.4019 9.09943 73.5818 8.88045 73.8422 8.71236C74.1027 8.54427 74.3962 8.46023 74.7229 8.46023C74.7845 8.46023 74.8614 8.46141 74.9537 8.46378C75.0461 8.46615 75.1159 8.4697 75.1633 8.47443V9.3267C75.1349 9.3196 75.0698 9.30895 74.968 9.29474C74.8685 9.27817 74.7632 9.26989 74.6519 9.26989C74.3867 9.26989 74.15 9.32552 73.9417 9.43679C73.7357 9.54569 73.5724 9.69721 73.4516 9.89134C73.3332 10.0831 73.2741 10.3021 73.2741 10.5483V14H72.436ZM77.7618 14.1278C77.4162 14.1278 77.1025 14.0627 76.8208 13.9325C76.539 13.8 76.3153 13.6094 76.1496 13.3608C75.9839 13.1098 75.901 12.8068 75.901 12.4517C75.901 12.1392 75.9626 11.8859 76.0857 11.6918C76.2088 11.4953 76.3733 11.3414 76.5793 11.2301C76.7852 11.1188 77.0125 11.036 77.2611 10.9815C77.512 10.9247 77.7642 10.8797 78.0175 10.8466C78.3489 10.804 78.6176 10.772 78.8236 10.7507C79.0319 10.727 79.1834 10.688 79.2781 10.6335C79.3752 10.5791 79.4237 10.4844 79.4237 10.3494V10.321C79.4237 9.97064 79.3279 9.69839 79.1361 9.50426C78.9467 9.31013 78.6591 9.21307 78.2732 9.21307C77.8731 9.21307 77.5594 9.30066 77.3321 9.47585C77.1048 9.65104 76.945 9.83807 76.8527 10.0369L76.0573 9.75284C76.1993 9.4214 76.3887 9.16335 76.6254 8.97869C76.8646 8.79167 77.125 8.66146 77.4067 8.58807C77.6908 8.51231 77.9701 8.47443 78.2448 8.47443C78.42 8.47443 78.6212 8.49574 78.8485 8.53835C79.0781 8.5786 79.2994 8.66264 79.5125 8.79048C79.728 8.91832 79.9067 9.11127 80.0487 9.36932C80.1908 9.62737 80.2618 9.97301 80.2618 10.4062V14H79.4237V13.2614H79.3811C79.3243 13.3797 79.2296 13.5064 79.097 13.6413C78.9645 13.7763 78.7881 13.8911 78.5679 13.9858C78.3477 14.0805 78.079 14.1278 77.7618 14.1278ZM77.8896 13.375C78.2211 13.375 78.5004 13.3099 78.7277 13.1797C78.9574 13.0495 79.1302 12.8814 79.2462 12.6754C79.3646 12.4695 79.4237 12.2528 79.4237 12.0256V11.2585C79.3882 11.3011 79.3101 11.3402 79.1894 11.3757C79.071 11.4089 78.9337 11.4384 78.7774 11.4645C78.6235 11.4882 78.4732 11.5095 78.3264 11.5284C78.182 11.545 78.0648 11.5592 77.9749 11.571C77.7571 11.5994 77.5535 11.6456 77.3641 11.7095C77.1771 11.7711 77.0255 11.8646 76.9095 11.9901C76.7959 12.1132 76.7391 12.2812 76.7391 12.4943C76.7391 12.7855 76.8468 13.0057 77.0622 13.1548C77.28 13.3016 77.5558 13.375 77.8896 13.375ZM89.4903 6.72727H90.371V11.5426C90.371 12.0398 90.2538 12.4837 90.0194 12.8743C89.7874 13.2625 89.4595 13.5691 89.0358 13.794C88.612 14.0166 88.1148 14.1278 87.5443 14.1278C86.9738 14.1278 86.4766 14.0166 86.0528 13.794C85.6291 13.5691 85.3 13.2625 85.0656 12.8743C84.8336 12.4837 84.7176 12.0398 84.7176 11.5426V6.72727H85.5983V11.4716C85.5983 11.8267 85.6764 12.1428 85.8327 12.4197C85.9889 12.6944 86.2114 12.911 86.5003 13.0696C86.7915 13.2259 87.1395 13.304 87.5443 13.304C87.9491 13.304 88.2971 13.2259 88.5883 13.0696C88.8795 12.911 89.1021 12.6944 89.2559 12.4197C89.4122 12.1428 89.4903 11.8267 89.4903 11.4716V6.72727ZM92.0161 16.0455V8.54545H92.8257V9.41193H92.9252C92.9867 9.31723 93.0719 9.1965 93.1808 9.04972C93.2921 8.90057 93.4507 8.76799 93.6567 8.65199C93.865 8.53362 94.1468 8.47443 94.5019 8.47443C94.9611 8.47443 95.366 8.58925 95.7164 8.81889C96.0667 9.04853 96.3402 9.37405 96.5367 9.79545C96.7332 10.2169 96.8314 10.714 96.8314 11.2869C96.8314 11.8646 96.7332 12.3653 96.5367 12.7891C96.3402 13.2105 96.0679 13.5372 95.7199 13.7692C95.3719 13.9988 94.9706 14.1136 94.5161 14.1136C94.1657 14.1136 93.8852 14.0556 93.6744 13.9396C93.4637 13.8213 93.3016 13.6875 93.1879 13.5384C93.0743 13.3868 92.9867 13.2614 92.9252 13.1619H92.8541V16.0455H92.0161ZM92.8399 11.2727C92.8399 11.6847 92.9003 12.0481 93.021 12.3629C93.1418 12.6754 93.3182 12.9205 93.5502 13.098C93.7822 13.2732 94.0663 13.3608 94.4024 13.3608C94.7528 13.3608 95.0452 13.2685 95.2796 13.0838C95.5163 12.8968 95.6939 12.6458 95.8122 12.331C95.933 12.0137 95.9933 11.661 95.9933 11.2727C95.9933 10.8892 95.9342 10.5436 95.8158 10.2358C95.6998 9.92566 95.5234 9.68063 95.2867 9.50071C95.0523 9.31842 94.7575 9.22727 94.4024 9.22727C94.0615 9.22727 93.7751 9.31368 93.5431 9.48651C93.3111 9.65696 93.1359 9.89607 93.0175 10.2038C92.8991 10.5092 92.8399 10.8655 92.8399 11.2727ZM98.9479 6.72727V14H98.1098V6.72727H98.9479ZM102.699 14.1136C102.206 14.1136 101.774 13.9964 101.403 13.7621C101.033 13.5277 100.744 13.1998 100.536 12.7784C100.33 12.357 100.227 11.8646 100.227 11.3011C100.227 10.733 100.33 10.237 100.536 9.81321C100.744 9.38944 101.033 9.06037 101.403 8.82599C101.774 8.59162 102.206 8.47443 102.699 8.47443C103.191 8.47443 103.622 8.59162 103.991 8.82599C104.363 9.06037 104.652 9.38944 104.858 9.81321C105.066 10.237 105.17 10.733 105.17 11.3011C105.17 11.8646 105.066 12.357 104.858 12.7784C104.652 13.1998 104.363 13.5277 103.991 13.7621C103.622 13.9964 103.191 14.1136 102.699 14.1136ZM102.699 13.3608C103.073 13.3608 103.381 13.2649 103.622 13.0732C103.864 12.8814 104.042 12.6293 104.158 12.3168C104.274 12.0043 104.332 11.6657 104.332 11.3011C104.332 10.9366 104.274 10.5968 104.158 10.282C104.042 9.96709 103.864 9.71259 103.622 9.51847C103.381 9.32434 103.073 9.22727 102.699 9.22727C102.325 9.22727 102.017 9.32434 101.775 9.51847C101.534 9.71259 101.355 9.96709 101.239 10.282C101.123 10.5968 101.065 10.9366 101.065 11.3011C101.065 11.6657 101.123 12.0043 101.239 12.3168C101.355 12.6293 101.534 12.8814 101.775 13.0732C102.017 13.2649 102.325 13.3608 102.699 13.3608ZM108.055 14.1278C107.709 14.1278 107.395 14.0627 107.114 13.9325C106.832 13.8 106.608 13.6094 106.443 13.3608C106.277 13.1098 106.194 12.8068 106.194 12.4517C106.194 12.1392 106.256 11.8859 106.379 11.6918C106.502 11.4953 106.666 11.3414 106.872 11.2301C107.078 11.1188 107.305 11.036 107.554 10.9815C107.805 10.9247 108.057 10.8797 108.31 10.8466C108.642 10.804 108.911 10.772 109.117 10.7507C109.325 10.727 109.476 10.688 109.571 10.6335C109.668 10.5791 109.717 10.4844 109.717 10.3494V10.321C109.717 9.97064 109.621 9.69839 109.429 9.50426C109.24 9.31013 108.952 9.21307 108.566 9.21307C108.166 9.21307 107.852 9.30066 107.625 9.47585C107.398 9.65104 107.238 9.83807 107.146 10.0369L106.35 9.75284C106.492 9.4214 106.682 9.16335 106.918 8.97869C107.158 8.79167 107.418 8.66146 107.7 8.58807C107.984 8.51231 108.263 8.47443 108.538 8.47443C108.713 8.47443 108.914 8.49574 109.141 8.53835C109.371 8.5786 109.592 8.66264 109.805 8.79048C110.021 8.91832 110.2 9.11127 110.342 9.36932C110.484 9.62737 110.555 9.97301 110.555 10.4062V14H109.717V13.2614H109.674C109.617 13.3797 109.523 13.5064 109.39 13.6413C109.257 13.7763 109.081 13.8911 108.861 13.9858C108.641 14.0805 108.372 14.1278 108.055 14.1278ZM108.183 13.375C108.514 13.375 108.793 13.3099 109.021 13.1797C109.25 13.0495 109.423 12.8814 109.539 12.6754C109.658 12.4695 109.717 12.2528 109.717 12.0256V11.2585C109.681 11.3011 109.603 11.3402 109.482 11.3757C109.364 11.4089 109.227 11.4384 109.07 11.4645C108.917 11.4882 108.766 11.5095 108.619 11.5284C108.475 11.545 108.358 11.5592 108.268 11.571C108.05 11.5994 107.846 11.6456 107.657 11.7095C107.47 11.7711 107.319 11.8646 107.203 11.9901C107.089 12.1132 107.032 12.2812 107.032 12.4943C107.032 12.7855 107.14 13.0057 107.355 13.1548C107.573 13.3016 107.849 13.375 108.183 13.375ZM114.144 14.1136C113.69 14.1136 113.288 13.9988 112.94 13.7692C112.592 13.5372 112.32 13.2105 112.123 12.7891C111.927 12.3653 111.829 11.8646 111.829 11.2869C111.829 10.714 111.927 10.2169 112.123 9.79545C112.32 9.37405 112.593 9.04853 112.944 8.81889C113.294 8.58925 113.699 8.47443 114.158 8.47443C114.513 8.47443 114.794 8.53362 115 8.65199C115.208 8.76799 115.367 8.90057 115.476 9.04972C115.587 9.1965 115.673 9.31723 115.735 9.41193H115.806V6.72727H116.644V14H115.834V13.1619H115.735C115.673 13.2614 115.586 13.3868 115.472 13.5384C115.359 13.6875 115.196 13.8213 114.986 13.9396C114.775 14.0556 114.494 14.1136 114.144 14.1136ZM114.258 13.3608C114.594 13.3608 114.878 13.2732 115.11 13.098C115.342 12.9205 115.518 12.6754 115.639 12.3629C115.76 12.0481 115.82 11.6847 115.82 11.2727C115.82 10.8655 115.761 10.5092 115.643 10.2038C115.524 9.89607 115.349 9.65696 115.117 9.48651C114.885 9.31368 114.599 9.22727 114.258 9.22727C113.903 9.22727 113.607 9.31842 113.37 9.50071C113.136 9.68063 112.959 9.92566 112.841 10.2358C112.725 10.5436 112.667 10.8892 112.667 11.2727C112.667 11.661 112.726 12.0137 112.844 12.331C112.965 12.6458 113.143 12.8968 113.377 13.0838C113.614 13.2685 113.907 13.3608 114.258 13.3608ZM122.159 9.76705L121.406 9.98011C121.359 9.85464 121.289 9.73272 121.197 9.61435C121.107 9.49361 120.984 9.39418 120.827 9.31605C120.671 9.23793 120.471 9.19886 120.227 9.19886C119.893 9.19886 119.615 9.2758 119.393 9.42969C119.172 9.5812 119.062 9.77415 119.062 10.0085C119.062 10.2169 119.138 10.3814 119.29 10.5021C119.441 10.6229 119.678 10.7235 120 10.804L120.81 11.0028C121.297 11.1212 121.661 11.3023 121.9 11.5462C122.139 11.7876 122.258 12.099 122.258 12.4801C122.258 12.7926 122.168 13.072 121.989 13.3182C121.811 13.5644 121.562 13.7585 121.243 13.9006C120.923 14.0426 120.552 14.1136 120.128 14.1136C119.571 14.1136 119.111 13.9929 118.746 13.7514C118.382 13.5099 118.151 13.1572 118.054 12.6932L118.849 12.4943C118.925 12.7879 119.068 13.008 119.279 13.1548C119.492 13.3016 119.77 13.375 120.114 13.375C120.504 13.375 120.814 13.2921 121.044 13.1264C121.276 12.9583 121.392 12.7571 121.392 12.5227C121.392 12.3333 121.326 12.1747 121.193 12.0469C121.061 11.9167 120.857 11.8196 120.582 11.7557L119.673 11.5426C119.174 11.4242 118.807 11.2408 118.572 10.9922C118.34 10.7412 118.224 10.4276 118.224 10.0511C118.224 9.74337 118.311 9.47112 118.484 9.23438C118.659 8.99763 118.897 8.81179 119.197 8.67685C119.5 8.5419 119.844 8.47443 120.227 8.47443C120.767 8.47443 121.191 8.5928 121.498 8.82955C121.809 9.06629 122.029 9.37879 122.159 9.76705Z" fill="#04101E" fill-opacity="0.1"/>
<path fill-rule="evenodd" clip-rule="evenodd" d="M164.854 6.64645C165.049 6.84171 165.049 7.15829 164.854 7.35355L158.354 13.8536C158.158 14.0488 157.842 14.0488 157.646 13.8536L155.146 11.3536C154.951 11.1583 154.951 10.8417 155.146 10.6464C155.342 10.4512 155.658 10.4512 155.854 10.6464L158 12.7929L164.146 6.64645C164.342 6.45118 164.658 6.45118 164.854 6.64645Z" fill="#04101E" fill-opacity="0.1"/>
<rect y="20" width="172" height="20" rx="4" fill="#FAFAFB"/>
<path fill-rule="evenodd" clip-rule="evenodd" d="M7.64645 27.6464C7.84171 27.4512 8.15829 27.4512 8.35355 27.6464L12 31.2929L15.6464 27.6464C15.8417 27.4512 16.1583 27.4512 16.3536 27.6464C16.5488 27.8417 16.5488 28.1583 16.3536 28.3536L12.3536 32.3536C12.1583 32.5488 11.8417 32.5488 11.6464 32.3536L7.64645 28.3536C7.45118 28.1583 7.45118 27.8417 7.64645 27.6464Z" fill="#303233" fill-opacity="0.75"/>
<path fill-rule="evenodd" clip-rule="evenodd" d="M24.25 26C24.25 24.7574 25.2574 23.75 26.5 23.75H30.2932C30.8122 23.75 31.31 23.9562 31.6769 24.3232C31.9501 24.5965 32.3207 24.75 32.7071 24.75H35C35.8834 24.75 36.6479 25.2591 37.0161 26H37.3526C38.8691 26 40.0364 27.3393 39.8292 28.8416L39.105 34.0916C38.9344 35.3286 37.8772 36.25 36.6285 36.25H26.5001C25.2574 36.25 24.2501 35.2427 24.2501 34L24.25 26ZM37.3526 27.5C37.9592 27.5 38.4263 28.0357 38.3435 28.6366L37.6193 33.8866C37.5511 34.3814 37.1282 34.75 36.6287 34.75H26.8976C26.291 34.75 25.8241 34.2143 25.907 33.6134L26.6312 28.3634C26.6994 27.8686 27.1223 27.5 27.6218 27.5H37.3526Z" fill="#303233"/>
<path d="M47.2891 34H45.0447V26.7273H47.3885C48.094 26.7273 48.6977 26.8729 49.1996 27.1641C49.7015 27.4529 50.0862 27.8684 50.3537 28.4105C50.6212 28.9503 50.755 29.5966 50.755 30.3494C50.755 31.107 50.62 31.7592 50.3501 32.3061C50.0803 32.8506 49.6873 33.2696 49.1712 33.5632C48.6551 33.8544 48.0277 34 47.2891 34ZM45.9254 33.2188H47.2322C47.8336 33.2188 48.3319 33.1027 48.7273 32.8707C49.1226 32.6387 49.4174 32.3085 49.6115 31.88C49.8056 31.4515 49.9027 30.9413 49.9027 30.3494C49.9027 29.7623 49.8068 29.2569 49.6151 28.8331C49.4233 28.407 49.1368 28.0803 48.7557 27.853C48.3745 27.6233 47.8999 27.5085 47.3317 27.5085H45.9254V33.2188ZM54.3345 34.1136C53.8421 34.1136 53.41 33.9964 53.0384 33.7621C52.669 33.5277 52.3802 33.1998 52.1719 32.7784C51.9659 32.357 51.8629 31.8646 51.8629 31.3011C51.8629 30.733 51.9659 30.237 52.1719 29.8132C52.3802 29.3894 52.669 29.0604 53.0384 28.826C53.41 28.5916 53.8421 28.4744 54.3345 28.4744C54.8269 28.4744 55.2578 28.5916 55.6271 28.826C55.9988 29.0604 56.2876 29.3894 56.4936 29.8132C56.7019 30.237 56.8061 30.733 56.8061 31.3011C56.8061 31.8646 56.7019 32.357 56.4936 32.7784C56.2876 33.1998 55.9988 33.5277 55.6271 33.7621C55.2578 33.9964 54.8269 34.1136 54.3345 34.1136ZM54.3345 33.3608C54.7086 33.3608 55.0163 33.2649 55.2578 33.0732C55.4993 32.8814 55.678 32.6293 55.794 32.3168C55.91 32.0043 55.968 31.6657 55.968 31.3011C55.968 30.9366 55.91 30.5968 55.794 30.282C55.678 29.9671 55.4993 29.7126 55.2578 29.5185C55.0163 29.3243 54.7086 29.2273 54.3345 29.2273C53.9605 29.2273 53.6527 29.3243 53.4112 29.5185C53.1697 29.7126 52.991 29.9671 52.875 30.282C52.759 30.5968 52.701 30.9366 52.701 31.3011C52.701 31.6657 52.759 32.0043 52.875 32.3168C52.991 32.6293 53.1697 32.8814 53.4112 33.0732C53.6527 33.2649 53.9605 33.3608 54.3345 33.3608ZM60.3013 34.1136C59.79 34.1136 59.3496 33.9929 58.9803 33.7514C58.611 33.5099 58.3269 33.1773 58.128 32.7536C57.9292 32.3298 57.8297 31.8456 57.8297 31.3011C57.8297 30.7472 57.9315 30.2583 58.1351 29.8345C58.3411 29.4084 58.6275 29.0758 58.9945 28.8366C59.3638 28.5952 59.7947 28.4744 60.2871 28.4744C60.6706 28.4744 61.0163 28.5455 61.324 28.6875C61.6318 28.8295 61.8839 29.0284 62.0804 29.2841C62.2769 29.5398 62.3989 29.8381 62.4462 30.179H61.6081C61.5442 29.9304 61.4022 29.7102 61.182 29.5185C60.9642 29.3243 60.6706 29.2273 60.3013 29.2273C59.9746 29.2273 59.6882 29.3125 59.4419 29.483C59.1981 29.651 59.0075 29.889 58.8702 30.1967C58.7353 30.5021 58.6678 30.8608 58.6678 31.2727C58.6678 31.6941 58.7341 32.0611 58.8667 32.3736C59.0016 32.6861 59.191 32.9287 59.4348 33.1016C59.681 33.2744 59.9699 33.3608 60.3013 33.3608C60.5191 33.3608 60.7168 33.3229 60.8944 33.2472C61.0719 33.1714 61.2222 33.0625 61.3453 32.9205C61.4685 32.7784 61.556 32.608 61.6081 32.4091H62.4462C62.3989 32.7311 62.2817 33.0211 62.0946 33.2791C61.91 33.5348 61.665 33.7384 61.3596 33.8899C61.0565 34.0391 60.7038 34.1136 60.3013 34.1136ZM67.1088 31.7699V28.5455H67.9469V34H67.1088V33.0767H67.052C66.9242 33.3537 66.7253 33.5893 66.4554 33.7834C66.1855 33.9751 65.8446 34.071 65.4327 34.071C65.0918 34.071 64.7888 33.9964 64.5236 33.8473C64.2585 33.6958 64.0501 33.4685 63.8986 33.1655C63.7471 32.8601 63.6713 32.4754 63.6713 32.0114V28.5455H64.5094V31.9545C64.5094 32.3523 64.6207 32.6695 64.8432 32.9062C65.0681 33.143 65.3546 33.2614 65.7026 33.2614C65.9109 33.2614 66.1228 33.2081 66.3382 33.1016C66.556 32.995 66.7383 32.8317 66.8851 32.6115C67.0343 32.3913 67.1088 32.1108 67.1088 31.7699ZM69.4819 34V28.5455H70.2915V29.3977H70.3626C70.4762 29.1065 70.6597 28.8804 70.913 28.7195C71.1663 28.5561 71.4705 28.4744 71.8256 28.4744C72.1855 28.4744 72.485 28.5561 72.7241 28.7195C72.9656 28.8804 73.1538 29.1065 73.2887 29.3977H73.3455C73.4852 29.116 73.6947 28.8923 73.9741 28.7266C74.2534 28.5585 74.5884 28.4744 74.979 28.4744C75.4667 28.4744 75.8656 28.6271 76.1758 28.9325C76.4859 29.2356 76.641 29.7079 76.641 30.3494V34H75.8029V30.3494C75.8029 29.947 75.6928 29.6593 75.4727 29.4865C75.2525 29.3137 74.9933 29.2273 74.695 29.2273C74.3114 29.2273 74.0143 29.3433 73.8036 29.5753C73.5929 29.8049 73.4876 30.0961 73.4876 30.4489V34H72.6353V30.2642C72.6353 29.9541 72.5347 29.7043 72.3335 29.5149C72.1322 29.3232 71.873 29.2273 71.5558 29.2273C71.3379 29.2273 71.1344 29.2853 70.945 29.4013C70.7579 29.5173 70.6064 29.6783 70.4904 29.8842C70.3768 30.0878 70.32 30.3234 70.32 30.5909V34H69.4819ZM80.4602 34.1136C79.9347 34.1136 79.4813 33.9976 79.1001 33.7656C78.7214 33.5312 78.429 33.2045 78.223 32.7855C78.0194 32.3641 77.9176 31.8741 77.9176 31.3153C77.9176 30.7566 78.0194 30.2642 78.223 29.8381C78.429 29.4096 78.7154 29.0758 79.0824 28.8366C79.4517 28.5952 79.8826 28.4744 80.375 28.4744C80.6591 28.4744 80.9396 28.5218 81.2166 28.6165C81.4936 28.7112 81.7457 28.8651 81.973 29.0781C82.2003 29.2888 82.3814 29.5682 82.5163 29.9162C82.6513 30.2642 82.7188 30.6927 82.7188 31.2017V31.5568H78.5142V30.8324H81.8665C81.8665 30.5246 81.8049 30.25 81.6818 30.0085C81.5611 29.767 81.3883 29.5765 81.1634 29.4368C80.9408 29.2971 80.678 29.2273 80.375 29.2273C80.0412 29.2273 79.7524 29.3101 79.5085 29.4759C79.267 29.6392 79.0812 29.8523 78.951 30.1151C78.8208 30.3778 78.7557 30.6596 78.7557 30.9602V31.4432C78.7557 31.8551 78.8267 32.2043 78.9688 32.4908C79.1132 32.7749 79.3132 32.9915 79.5689 33.1406C79.8246 33.2874 80.1217 33.3608 80.4602 33.3608C80.6804 33.3608 80.8793 33.33 81.0568 33.2685C81.2367 33.2045 81.3918 33.1098 81.522 32.9844C81.6522 32.8565 81.7528 32.6979 81.8239 32.5085L82.6335 32.7358C82.5483 33.0104 82.4051 33.2519 82.2038 33.4602C82.0026 33.6662 81.754 33.8272 81.4581 33.9432C81.1622 34.0568 80.8295 34.1136 80.4602 34.1136ZM84.8317 30.7188V34H83.9936V28.5455H84.8033V29.3977H84.8743C85.0021 29.1207 85.1963 28.8982 85.4567 28.7301C85.7171 28.5597 86.0533 28.4744 86.4652 28.4744C86.8345 28.4744 87.1577 28.5502 87.4347 28.7017C87.7116 28.8509 87.9271 29.0781 88.081 29.3835C88.2348 29.6866 88.3118 30.0701 88.3118 30.5341V34H87.4737V30.5909C87.4737 30.1624 87.3625 29.8286 87.1399 29.5895C86.9174 29.348 86.612 29.2273 86.2237 29.2273C85.9562 29.2273 85.7171 29.2853 85.5064 29.4013C85.2981 29.5173 85.1335 29.6866 85.0128 29.9091C84.892 30.1316 84.8317 30.4015 84.8317 30.7188ZM92.2154 28.5455V29.2557H89.3887V28.5455H92.2154ZM90.2125 27.2386H91.0506V32.4375C91.0506 32.6742 91.0849 32.8518 91.1536 32.9702C91.2246 33.0862 91.3146 33.1643 91.4235 33.2045C91.5347 33.2424 91.6519 33.2614 91.775 33.2614C91.8674 33.2614 91.9431 33.2566 92.0023 33.2472C92.0615 33.2353 92.1088 33.2259 92.1444 33.2188L92.3148 33.9716C92.258 33.9929 92.1787 34.0142 92.0769 34.0355C91.9751 34.0592 91.8461 34.071 91.6898 34.071C91.4531 34.071 91.2211 34.0201 90.9938 33.9183C90.7689 33.8165 90.5819 33.6615 90.4327 33.4531C90.2859 33.2448 90.2125 32.982 90.2125 32.6648V27.2386ZM97.242 29.767L96.4892 29.9801C96.4418 29.8546 96.372 29.7327 96.2797 29.6143C96.1897 29.4936 96.0666 29.3942 95.9103 29.3161C95.7541 29.2379 95.554 29.1989 95.3102 29.1989C94.9764 29.1989 94.6982 29.2758 94.4757 29.4297C94.2555 29.5812 94.1454 29.7741 94.1454 30.0085C94.1454 30.2169 94.2212 30.3814 94.3727 30.5021C94.5242 30.6229 94.7609 30.7235 95.0829 30.804L95.8926 31.0028C96.3803 31.1212 96.7437 31.3023 96.9828 31.5462C97.2219 31.7876 97.3414 32.099 97.3414 32.4801C97.3414 32.7926 97.2515 33.072 97.0716 33.3182C96.894 33.5644 96.6454 33.7585 96.3258 33.9006C96.0062 34.0426 95.6345 34.1136 95.2108 34.1136C94.6544 34.1136 94.194 33.9929 93.8294 33.7514C93.4648 33.5099 93.234 33.1572 93.1369 32.6932L93.9324 32.4943C94.0081 32.7879 94.1513 33.008 94.362 33.1548C94.5751 33.3016 94.8533 33.375 95.1966 33.375C95.5872 33.375 95.8973 33.2921 96.127 33.1264C96.359 32.9583 96.475 32.7571 96.475 32.5227C96.475 32.3333 96.4087 32.1747 96.2761 32.0469C96.1435 31.9167 95.9399 31.8196 95.6653 31.7557L94.7562 31.5426C94.2567 31.4242 93.8897 31.2408 93.6554 30.9922C93.4234 30.7412 93.3074 30.4276 93.3074 30.0511C93.3074 29.7434 93.3938 29.4711 93.5666 29.2344C93.7418 28.9976 93.9797 28.8118 94.2804 28.6768C94.5834 28.5419 94.9267 28.4744 95.3102 28.4744C95.85 28.4744 96.2737 28.5928 96.5815 28.8295C96.8916 29.0663 97.1118 29.3788 97.242 29.767Z" fill="#303233"/>
<path fill-rule="evenodd" clip-rule="evenodd" d="M164.854 26.6464C165.049 26.8417 165.049 27.1583 164.854 27.3536L158.354 33.8536C158.158 34.0488 157.842 34.0488 157.646 33.8536L155.146 31.3536C154.951 31.1583 154.951 30.8417 155.146 30.6464C155.342 30.4512 155.658 30.4512 155.854 30.6464L158 32.7929L164.146 26.6464C164.342 26.4512 164.658 26.4512 164.854 26.6464Z" fill="#009B48"/>
<path fill-rule="evenodd" clip-rule="evenodd" d="M44.75 46C44.75 44.7574 45.7574 43.75 47 43.75H50.7932C51.3122 43.75 51.81 43.9562 52.1769 44.3232C52.4501 44.5965 52.8207 44.75 53.2071 44.75H57.0001C58.2427 44.75 59.2501 45.7574 59.2501 47V54C59.2501 55.2426 58.2427 56.25 57.0001 56.25H47.0001C45.7574 56.25 44.7501 55.2427 44.7501 54L44.75 46ZM47.0002 46.25C46.5859 46.25 46.2502 46.5858 46.2502 47V54C46.2502 54.4142 46.5859 54.75 47.0002 54.75H57.0002C57.4144 54.75 57.7502 54.4142 57.7502 54V47C57.7502 46.5858 57.4144 46.25 57.0002 46.25H47.0002Z" fill="#303233"/>
<path d="M64.8895 54V46.7273H69.2503V47.5085H65.7702V49.9659H68.9236V50.7472H65.7702V54H64.8895ZM70.645 54V48.5455H71.483V54H70.645ZM71.0711 47.6364C70.9078 47.6364 70.7669 47.5807 70.6485 47.4695C70.5325 47.3582 70.4745 47.2244 70.4745 47.0682C70.4745 46.9119 70.5325 46.7782 70.6485 46.6669C70.7669 46.5556 70.9078 46.5 71.0711 46.5C71.2345 46.5 71.3741 46.5556 71.4901 46.6669C71.6085 46.7782 71.6677 46.9119 71.6677 47.0682C71.6677 47.2244 71.6085 47.3582 71.4901 47.4695C71.3741 47.5807 71.2345 47.6364 71.0711 47.6364ZM73.8561 50.7188V54H73.018V48.5455H73.8277V49.3977H73.8987C74.0265 49.1207 74.2207 48.8982 74.4811 48.7301C74.7415 48.5597 75.0777 48.4744 75.4896 48.4744C75.8589 48.4744 76.1821 48.5502 76.4591 48.7017C76.7361 48.8509 76.9515 49.0781 77.1054 49.3835C77.2593 49.6866 77.3362 50.0701 77.3362 50.5341V54H76.4981V50.5909C76.4981 50.1624 76.3869 49.8286 76.1643 49.5895C75.9418 49.348 75.6364 49.2273 75.2481 49.2273C74.9806 49.2273 74.7415 49.2853 74.5308 49.4013C74.3225 49.5173 74.1579 49.6866 74.0372 49.9091C73.9165 50.1316 73.8561 50.4015 73.8561 50.7188ZM80.4727 54.1278C80.1271 54.1278 79.8134 54.0627 79.5317 53.9325C79.25 53.8 79.0262 53.6094 78.8605 53.3608C78.6948 53.1098 78.6119 52.8068 78.6119 52.4517C78.6119 52.1392 78.6735 51.8859 78.7966 51.6918C78.9197 51.4953 79.0843 51.3414 79.2902 51.2301C79.4962 51.1188 79.7235 51.036 79.972 50.9815C80.223 50.9247 80.4751 50.8797 80.7284 50.8466C81.0599 50.804 81.3286 50.772 81.5345 50.7507C81.7429 50.727 81.8944 50.688 81.9891 50.6335C82.0861 50.5791 82.1347 50.4844 82.1347 50.3494V50.321C82.1347 49.9706 82.0388 49.6984 81.847 49.5043C81.6576 49.3101 81.37 49.2131 80.9841 49.2131C80.584 49.2131 80.2703 49.3007 80.0431 49.4759C79.8158 49.651 79.656 49.8381 79.5637 50.0369L78.7682 49.7528C78.9102 49.4214 79.0996 49.1634 79.3364 48.9787C79.5755 48.7917 79.8359 48.6615 80.1176 48.5881C80.4017 48.5123 80.6811 48.4744 80.9557 48.4744C81.1309 48.4744 81.3321 48.4957 81.5594 48.5384C81.789 48.5786 82.0104 48.6626 82.2235 48.7905C82.4389 48.9183 82.6176 49.1113 82.7597 49.3693C82.9017 49.6274 82.9727 49.973 82.9727 50.4062V54H82.1347V53.2614H82.0921C82.0352 53.3797 81.9405 53.5064 81.808 53.6413C81.6754 53.7763 81.499 53.8911 81.2789 53.9858C81.0587 54.0805 80.79 54.1278 80.4727 54.1278ZM80.6006 53.375C80.932 53.375 81.2114 53.3099 81.4387 53.1797C81.6683 53.0495 81.8411 52.8814 81.9571 52.6754C82.0755 52.4695 82.1347 52.2528 82.1347 52.0256V51.2585C82.0992 51.3011 82.021 51.3402 81.9003 51.3757C81.7819 51.4089 81.6446 51.4384 81.4884 51.4645C81.3345 51.4882 81.1842 51.5095 81.0374 51.5284C80.893 51.545 80.7758 51.5592 80.6858 51.571C80.468 51.5994 80.2644 51.6456 80.075 51.7095C79.888 51.7711 79.7365 51.8646 79.6205 51.9901C79.5068 52.1132 79.45 52.2812 79.45 52.4943C79.45 52.7855 79.5577 53.0057 79.7732 53.1548C79.991 53.3016 80.2668 53.375 80.6006 53.375ZM85.3405 50.7188V54H84.5024V48.5455H85.3121V49.3977H85.3831C85.5109 49.1207 85.705 48.8982 85.9655 48.7301C86.2259 48.5597 86.5621 48.4744 86.974 48.4744C87.3433 48.4744 87.6665 48.5502 87.9434 48.7017C88.2204 48.8509 88.4359 49.0781 88.5898 49.3835C88.7436 49.6866 88.8206 50.0701 88.8206 50.5341V54H87.9825V50.5909C87.9825 50.1624 87.8712 49.8286 87.6487 49.5895C87.4262 49.348 87.1208 49.2273 86.7325 49.2273C86.465 49.2273 86.2259 49.2853 86.0152 49.4013C85.8068 49.5173 85.6423 49.6866 85.5216 49.9091C85.4008 50.1316 85.3405 50.4015 85.3405 50.7188ZM92.5679 54.1136C92.0566 54.1136 91.6162 53.9929 91.2469 53.7514C90.8776 53.5099 90.5935 53.1773 90.3946 52.7536C90.1958 52.3298 90.0963 51.8456 90.0963 51.3011C90.0963 50.7472 90.1981 50.2583 90.4017 49.8345C90.6077 49.4084 90.8941 49.0758 91.2611 48.8366C91.6304 48.5952 92.0613 48.4744 92.5537 48.4744C92.9372 48.4744 93.2829 48.5455 93.5906 48.6875C93.8984 48.8295 94.1505 49.0284 94.347 49.2841C94.5435 49.5398 94.6655 49.8381 94.7128 50.179H93.8747C93.8108 49.9304 93.6688 49.7102 93.4486 49.5185C93.2308 49.3243 92.9372 49.2273 92.5679 49.2273C92.2412 49.2273 91.9548 49.3125 91.7085 49.483C91.4647 49.651 91.2741 49.889 91.1368 50.1967C91.0019 50.5021 90.9344 50.8608 90.9344 51.2727C90.9344 51.6941 91.0007 52.0611 91.1333 52.3736C91.2682 52.6861 91.4576 52.9287 91.7014 53.1016C91.9477 53.2744 92.2365 53.3608 92.5679 53.3608C92.7857 53.3608 92.9834 53.3229 93.161 53.2472C93.3385 53.1714 93.4888 53.0625 93.6119 52.9205C93.7351 52.7784 93.8227 52.608 93.8747 52.4091H94.7128C94.6655 52.7311 94.5483 53.0211 94.3612 53.2791C94.1766 53.5348 93.9316 53.7384 93.6262 53.8899C93.3231 54.0391 92.9704 54.1136 92.5679 54.1136ZM98.2249 54.1136C97.6993 54.1136 97.2459 53.9976 96.8648 53.7656C96.486 53.5312 96.1936 53.2045 95.9877 52.7855C95.7841 52.3641 95.6823 51.8741 95.6823 51.3153C95.6823 50.7566 95.7841 50.2642 95.9877 49.8381C96.1936 49.4096 96.4801 49.0758 96.847 48.8366C97.2164 48.5952 97.6472 48.4744 98.1396 48.4744C98.4237 48.4744 98.7043 48.5218 98.9813 48.6165C99.2583 48.7112 99.5104 48.8651 99.7377 49.0781C99.9649 49.2888 100.146 49.5682 100.281 49.9162C100.416 50.2642 100.483 50.6927 100.483 51.2017V51.5568H96.2789V50.8324H99.6311C99.6311 50.5246 99.5696 50.25 99.4465 50.0085C99.3257 49.767 99.1529 49.5765 98.928 49.4368C98.7055 49.2971 98.4427 49.2273 98.1396 49.2273C97.8058 49.2273 97.517 49.3101 97.2732 49.4759C97.0317 49.6392 96.8459 49.8523 96.7156 50.1151C96.5854 50.3778 96.5203 50.6596 96.5203 50.9602V51.4432C96.5203 51.8551 96.5914 52.2043 96.7334 52.4908C96.8778 52.7749 97.0779 52.9915 97.3335 53.1406C97.5892 53.2874 97.8863 53.3608 98.2249 53.3608C98.445 53.3608 98.6439 53.33 98.8215 53.2685C99.0014 53.2045 99.1565 53.1098 99.2867 52.9844C99.4169 52.8565 99.5175 52.6979 99.5885 52.5085L100.398 52.7358C100.313 53.0104 100.17 53.2519 99.9685 53.4602C99.7673 53.6662 99.5187 53.8272 99.2227 53.9432C98.9268 54.0568 98.5942 54.1136 98.2249 54.1136Z" fill="#303233"/>
<path fill-rule="evenodd" clip-rule="evenodd" d="M164.854 46.6464C165.049 46.8417 165.049 47.1583 164.854 47.3536L158.354 53.8536C158.158 54.0488 157.842 54.0488 157.646 53.8536L155.146 51.3536C154.951 51.1583 154.951 50.8417 155.146 50.6464C155.342 50.4512 155.658 50.4512 155.854 50.6464L158 52.7929L164.146 46.6464C164.342 46.4512 164.658 46.4512 164.854 46.6464Z" fill="#009B48"/>
<rect y="60" width="172" height="20" rx="4" fill="#FAFAFB"/>
<path fill-rule="evenodd" clip-rule="evenodd" d="M44.75 66C44.75 64.7574 45.7574 63.75 47 63.75H50.7932C51.3122 63.75 51.81 63.9562 52.1769 64.3232C52.4501 64.5965 52.8207 64.75 53.2071 64.75H57.0001C58.2427 64.75 59.2501 65.7574 59.2501 67V74C59.2501 75.2426 58.2427 76.25 57.0001 76.25H47.0001C45.7574 76.25 44.7501 75.2427 44.7501 74L44.75 66ZM47.0002 66.25C46.5859 66.25 46.2502 66.5858 46.2502 67V74C46.2502 74.4142 46.5859 74.75 47.0002 74.75H57.0002C57.4144 74.75 57.7502 74.4142 57.7502 74V67C57.7502 66.5858 57.4144 66.25 57.0002 66.25H47.0002Z" fill="#04101E" fill-opacity="0.1"/>
<path d="M66.646 74L64.6574 66.7273H65.5523L67.0722 72.6506H67.1432L68.6915 66.7273H69.6858L71.2341 72.6506H71.3051L72.825 66.7273H73.7199L71.7313 74H70.8222L69.2171 68.2045H69.1602L67.5551 74H66.646ZM76.4117 74.1136C75.9192 74.1136 75.4872 73.9964 75.1155 73.7621C74.7462 73.5277 74.4574 73.1998 74.249 72.7784C74.0431 72.357 73.9401 71.8646 73.9401 71.3011C73.9401 70.733 74.0431 70.237 74.249 69.8132C74.4574 69.3894 74.7462 69.0604 75.1155 68.826C75.4872 68.5916 75.9192 68.4744 76.4117 68.4744C76.9041 68.4744 77.335 68.5916 77.7043 68.826C78.076 69.0604 78.3648 69.3894 78.5708 69.8132C78.7791 70.237 78.8833 70.733 78.8833 71.3011C78.8833 71.8646 78.7791 72.357 78.5708 72.7784C78.3648 73.1998 78.076 73.5277 77.7043 73.7621C77.335 73.9964 76.9041 74.1136 76.4117 74.1136ZM76.4117 73.3608C76.7857 73.3608 77.0935 73.2649 77.335 73.0732C77.5764 72.8814 77.7552 72.6293 77.8712 72.3168C77.9872 72.0043 78.0452 71.6657 78.0452 71.3011C78.0452 70.9366 77.9872 70.5968 77.8712 70.282C77.7552 69.9671 77.5764 69.7126 77.335 69.5185C77.0935 69.3243 76.7857 69.2273 76.4117 69.2273C76.0376 69.2273 75.7298 69.3243 75.4884 69.5185C75.2469 69.7126 75.0682 69.9671 74.9521 70.282C74.8361 70.5968 74.7781 70.9366 74.7781 71.3011C74.7781 71.6657 74.8361 72.0043 74.9521 72.3168C75.0682 72.6293 75.2469 72.8814 75.4884 73.0732C75.7298 73.2649 76.0376 73.3608 76.4117 73.3608ZM80.1626 74V68.5455H80.9722V69.3693H81.029C81.1285 69.0994 81.3084 68.8804 81.5688 68.7124C81.8292 68.5443 82.1228 68.4602 82.4495 68.4602C82.511 68.4602 82.588 68.4614 82.6803 68.4638C82.7726 68.4661 82.8425 68.4697 82.8898 68.4744V69.3267C82.8614 69.3196 82.7963 69.3089 82.6945 69.2947C82.5951 69.2782 82.4897 69.2699 82.3785 69.2699C82.1133 69.2699 81.8766 69.3255 81.6682 69.4368C81.4623 69.5457 81.2989 69.6972 81.1782 69.8913C81.0598 70.0831 81.0006 70.3021 81.0006 70.5483V74H80.1626ZM84.6645 72.0114L84.6503 70.9744H84.8208L87.2071 68.5455H88.2441L85.7014 71.1165H85.6304L84.6645 72.0114ZM83.8833 74V66.7273H84.7213V74H83.8833ZM87.3492 74L85.2185 71.3011L85.8151 70.7188L88.4145 74H87.3492Z" fill="#04101E" fill-opacity="0.1"/>
<path fill-rule="evenodd" clip-rule="evenodd" d="M164.854 66.6464C165.049 66.8417 165.049 67.1583 164.854 67.3536L158.354 73.8536C158.158 74.0488 157.842 74.0488 157.646 73.8536L155.146 71.3536C154.951 71.1583 154.951 70.8417 155.146 70.6464C155.342 70.4512 155.658 70.4512 155.854 70.6464L158 72.7929L164.146 66.6464C164.342 66.4512 164.658 66.4512 164.854 66.6464Z" fill="#04101E" fill-opacity="0.1"/>
<path fill-rule="evenodd" clip-rule="evenodd" d="M24.75 86C24.75 84.7574 25.7574 83.75 27 83.75H30.7932C31.3122 83.75 31.81 83.9562 32.1769 84.3232C32.4501 84.5965 32.8207 84.75 33.2071 84.75H37.0001C38.2427 84.75 39.2501 85.7574 39.2501 87V94C39.2501 95.2426 38.2427 96.25 37.0001 96.25H27.0001C25.7574 96.25 24.7501 95.2427 24.7501 94L24.75 86ZM27.0002 86.25C26.5859 86.25 26.2502 86.5858 26.2502 87V94C26.2502 94.4142 26.5859 94.75 27.0002 94.75H37.0002C37.4144 94.75 37.7502 94.4142 37.7502 94V87C37.7502 86.5858 37.4144 86.25 37.0002 86.25H27.0002Z" fill="#04101E" fill-opacity="0.1"/>
<path d="M44.9149 94V86.7273H47.3722C47.9428 86.7273 48.4092 86.8303 48.7714 87.0362C49.136 87.2398 49.4059 87.5156 49.5811 87.8636C49.7562 88.2116 49.8438 88.5999 49.8438 89.0284C49.8438 89.4569 49.7562 89.8464 49.5811 90.1967C49.4082 90.5471 49.1407 90.8265 48.7785 91.0348C48.4163 91.2408 47.9523 91.3438 47.3865 91.3438H45.6251V90.5625H47.358C47.7487 90.5625 48.0624 90.495 48.2991 90.3601C48.5358 90.2251 48.7075 90.0429 48.814 89.8132C48.9229 89.5812 48.9774 89.3196 48.9774 89.0284C48.9774 88.7372 48.9229 88.4768 48.814 88.2472C48.7075 88.0175 48.5347 87.8376 48.2955 87.7074C48.0564 87.5748 47.7392 87.5085 47.3438 87.5085H45.7955V94H44.9149ZM51.1489 94V88.5455H51.9585V89.3693H52.0154C52.1148 89.0994 52.2947 88.8804 52.5551 88.7124C52.8155 88.5443 53.1091 88.4602 53.4358 88.4602C53.4974 88.4602 53.5743 88.4614 53.6666 88.4638C53.759 88.4661 53.8288 88.4697 53.8762 88.4744V89.3267C53.8477 89.3196 53.7826 89.3089 53.6808 89.2947C53.5814 89.2782 53.4761 89.2699 53.3648 89.2699C53.0996 89.2699 52.8629 89.3255 52.6546 89.4368C52.4486 89.5457 52.2852 89.6972 52.1645 89.8913C52.0461 90.0831 51.9869 90.3021 51.9869 90.5483V94H51.1489ZM56.9905 94.1136C56.4649 94.1136 56.0116 93.9976 55.6304 93.7656C55.2516 93.5312 54.9593 93.2045 54.7533 92.7855C54.5497 92.3641 54.4479 91.8741 54.4479 91.3153C54.4479 90.7566 54.5497 90.2642 54.7533 89.8381C54.9593 89.4096 55.2457 89.0758 55.6127 88.8366C55.982 88.5952 56.4128 88.4744 56.9053 88.4744C57.1894 88.4744 57.4699 88.5218 57.7469 88.6165C58.0239 88.7112 58.276 88.8651 58.5033 89.0781C58.7306 89.2888 58.9117 89.5682 59.0466 89.9162C59.1816 90.2642 59.249 90.6927 59.249 91.2017V91.5568H55.0445V90.8324H58.3968C58.3968 90.5246 58.3352 90.25 58.2121 90.0085C58.0914 89.767 57.9185 89.5765 57.6936 89.4368C57.4711 89.2971 57.2083 89.2273 56.9053 89.2273C56.5715 89.2273 56.2826 89.3101 56.0388 89.4759C55.7973 89.6392 55.6115 89.8523 55.4813 90.1151C55.3511 90.3778 55.286 90.6596 55.286 90.9602V91.4432C55.286 91.8551 55.357 92.2043 55.499 92.4908C55.6434 92.7749 55.8435 92.9915 56.0992 93.1406C56.3548 93.2874 56.652 93.3608 56.9905 93.3608C57.2107 93.3608 57.4095 93.33 57.5871 93.2685C57.767 93.2045 57.9221 93.1098 58.0523 92.9844C58.1825 92.8565 58.2831 92.6979 58.3541 92.5085L59.1638 92.7358C59.0786 93.0104 58.9353 93.2519 58.7341 93.4602C58.5329 93.6662 58.2843 93.8272 57.9884 93.9432C57.6924 94.0568 57.3598 94.1136 56.9905 94.1136ZM64.3875 89.767L63.6347 89.9801C63.5873 89.8546 63.5175 89.7327 63.4252 89.6143C63.3352 89.4936 63.2121 89.3942 63.0558 89.3161C62.8996 89.2379 62.6995 89.1989 62.4557 89.1989C62.1219 89.1989 61.8437 89.2758 61.6212 89.4297C61.401 89.5812 61.2909 89.7741 61.2909 90.0085C61.2909 90.2169 61.3667 90.3814 61.5182 90.5021C61.6697 90.6229 61.9065 90.7235 62.2284 90.804L63.0381 91.0028C63.5258 91.1212 63.8892 91.3023 64.1283 91.5462C64.3674 91.7876 64.4869 92.099 64.4869 92.4801C64.4869 92.7926 64.397 93.072 64.2171 93.3182C64.0395 93.5644 63.7909 93.7585 63.4713 93.9006C63.1517 94.0426 62.78 94.1136 62.3563 94.1136C61.7999 94.1136 61.3395 93.9929 60.9749 93.7514C60.6103 93.5099 60.3795 93.1572 60.2824 92.6932L61.0779 92.4943C61.1536 92.7879 61.2968 93.008 61.5075 93.1548C61.7206 93.3016 61.9988 93.375 62.3421 93.375C62.7327 93.375 63.0428 93.2921 63.2725 93.1264C63.5045 92.9583 63.6205 92.7571 63.6205 92.5227C63.6205 92.3333 63.5542 92.1747 63.4216 92.0469C63.289 91.9167 63.0854 91.8196 62.8108 91.7557L61.9017 91.5426C61.4022 91.4242 61.0352 91.2408 60.8009 90.9922C60.5689 90.7412 60.4529 90.4276 60.4529 90.0511C60.4529 89.7434 60.5393 89.4711 60.7121 89.2344C60.8873 88.9976 61.1252 88.8118 61.4259 88.6768C61.7289 88.5419 62.0722 88.4744 62.4557 88.4744C62.9955 88.4744 63.4192 88.5928 63.727 88.8295C64.0371 89.0663 64.2573 89.3788 64.3875 89.767ZM68.0354 94.1136C67.5099 94.1136 67.0565 93.9976 66.6753 93.7656C66.2965 93.5312 66.0042 93.2045 65.7982 92.7855C65.5946 92.3641 65.4928 91.8741 65.4928 91.3153C65.4928 90.7566 65.5946 90.2642 65.7982 89.8381C66.0042 89.4096 66.2906 89.0758 66.6576 88.8366C67.0269 88.5952 67.4578 88.4744 67.9502 88.4744C68.2343 88.4744 68.5148 88.5218 68.7918 88.6165C69.0688 88.7112 69.3209 88.8651 69.5482 89.0781C69.7755 89.2888 69.9566 89.5682 70.0915 89.9162C70.2265 90.2642 70.2939 90.6927 70.2939 91.2017V91.5568H66.0894V90.8324H69.4417C69.4417 90.5246 69.3801 90.25 69.257 90.0085C69.1363 89.767 68.9635 89.5765 68.7385 89.4368C68.516 89.2971 68.2532 89.2273 67.9502 89.2273C67.6164 89.2273 67.3276 89.3101 67.0837 89.4759C66.8422 89.6392 66.6564 89.8523 66.5262 90.1151C66.396 90.3778 66.3309 90.6596 66.3309 90.9602V91.4432C66.3309 91.8551 66.4019 92.2043 66.5439 92.4908C66.6884 92.7749 66.8884 92.9915 67.1441 93.1406C67.3998 93.2874 67.6969 93.3608 68.0354 93.3608C68.2556 93.3608 68.4545 93.33 68.632 93.2685C68.8119 93.2045 68.967 93.1098 69.0972 92.9844C69.2274 92.8565 69.328 92.6979 69.3991 92.5085L70.2087 92.7358C70.1235 93.0104 69.9803 93.2519 69.779 93.4602C69.5778 93.6662 69.3292 93.8272 69.0333 93.9432C68.7374 94.0568 68.4047 94.1136 68.0354 94.1136ZM72.4069 90.7188V94H71.5688V88.5455H72.3785V89.3977H72.4495C72.5773 89.1207 72.7715 88.8982 73.0319 88.7301C73.2923 88.5597 73.6285 88.4744 74.0404 88.4744C74.4097 88.4744 74.7329 88.5502 75.0099 88.7017C75.2868 88.8509 75.5023 89.0781 75.6562 89.3835C75.81 89.6866 75.887 90.0701 75.887 90.5341V94H75.0489V90.5909C75.0489 90.1624 74.9376 89.8286 74.7151 89.5895C74.4926 89.348 74.1872 89.2273 73.7989 89.2273C73.5314 89.2273 73.2923 89.2853 73.0816 89.4013C72.8733 89.5173 72.7087 89.6866 72.588 89.9091C72.4672 90.1316 72.4069 90.4015 72.4069 90.7188ZM79.7906 88.5455V89.2557H76.9639V88.5455H79.7906ZM77.7877 87.2386H78.6258V92.4375C78.6258 92.6742 78.6601 92.8518 78.7288 92.9702C78.7998 93.0862 78.8898 93.1643 78.9987 93.2045C79.1099 93.2424 79.2271 93.2614 79.3502 93.2614C79.4426 93.2614 79.5183 93.2566 79.5775 93.2472C79.6367 93.2353 79.684 93.2259 79.7195 93.2188L79.89 93.9716C79.8332 93.9929 79.7539 94.0142 79.6521 94.0355C79.5503 94.0592 79.4213 94.071 79.265 94.071C79.0283 94.071 78.7963 94.0201 78.569 93.9183C78.3441 93.8165 78.157 93.6615 78.0079 93.4531C77.8611 93.2448 77.7877 92.982 77.7877 92.6648V87.2386ZM82.6563 94.1278C82.3107 94.1278 81.997 94.0627 81.7153 93.9325C81.4336 93.8 81.2098 93.6094 81.0441 93.3608C80.8784 93.1098 80.7955 92.8068 80.7955 92.4517C80.7955 92.1392 80.8571 91.8859 80.9802 91.6918C81.1033 91.4953 81.2678 91.3414 81.4738 91.2301C81.6798 91.1188 81.907 91.036 82.1556 90.9815C82.4066 90.9247 82.6587 90.8797 82.912 90.8466C83.2435 90.804 83.5122 90.772 83.7181 90.7507C83.9265 90.727 84.078 90.688 84.1727 90.6335C84.2697 90.5791 84.3183 90.4844 84.3183 90.3494V90.321C84.3183 89.9706 84.2224 89.6984 84.0306 89.5043C83.8412 89.3101 83.5536 89.2131 83.1677 89.2131C82.7676 89.2131 82.4539 89.3007 82.2267 89.4759C81.9994 89.651 81.8396 89.8381 81.7472 90.0369L80.9518 89.7528C81.0938 89.4214 81.2832 89.1634 81.52 88.9787C81.7591 88.7917 82.0195 88.6615 82.3012 88.5881C82.5853 88.5123 82.8647 88.4744 83.1393 88.4744C83.3145 88.4744 83.5157 88.4957 83.743 88.5384C83.9726 88.5786 84.194 88.6626 84.407 88.7905C84.6225 88.9183 84.8012 89.1113 84.9433 89.3693C85.0853 89.6274 85.1563 89.973 85.1563 90.4062V94H84.3183V93.2614H84.2757C84.2188 93.3797 84.1241 93.5064 83.9916 93.6413C83.859 93.7763 83.6826 93.8911 83.4624 93.9858C83.2423 94.0805 82.9736 94.1278 82.6563 94.1278ZM82.7842 93.375C83.1156 93.375 83.395 93.3099 83.6222 93.1797C83.8519 93.0495 84.0247 92.8814 84.1407 92.6754C84.2591 92.4695 84.3183 92.2528 84.3183 92.0256V91.2585C84.2828 91.3011 84.2046 91.3402 84.0839 91.3757C83.9655 91.4089 83.8282 91.4384 83.672 91.4645C83.5181 91.4882 83.3677 91.5095 83.221 91.5284C83.0766 91.545 82.9594 91.5592 82.8694 91.571C82.6516 91.5994 82.448 91.6456 82.2586 91.7095C82.0716 91.7711 81.9201 91.8646 81.8041 91.9901C81.6904 92.1132 81.6336 92.2812 81.6336 92.4943C81.6336 92.7855 81.7413 93.0057 81.9568 93.1548C82.1746 93.3016 82.4504 93.375 82.7842 93.375ZM89.0581 88.5455V89.2557H86.2314V88.5455H89.0581ZM87.0553 87.2386H87.8934V92.4375C87.8934 92.6742 87.9277 92.8518 87.9964 92.9702C88.0674 93.0862 88.1573 93.1643 88.2662 93.2045C88.3775 93.2424 88.4947 93.2614 88.6178 93.2614C88.7101 93.2614 88.7859 93.2566 88.8451 93.2472C88.9043 93.2353 88.9516 93.2259 88.9871 93.2188L89.1576 93.9716C89.1008 93.9929 89.0215 94.0142 88.9197 94.0355C88.8179 94.0592 88.6888 94.071 88.5326 94.071C88.2958 94.071 88.0638 94.0201 87.8366 93.9183C87.6117 93.8165 87.4246 93.6615 87.2755 93.4531C87.1287 93.2448 87.0553 92.982 87.0553 92.6648V87.2386ZM90.3188 94V88.5455H91.1569V94H90.3188ZM90.7449 87.6364C90.5816 87.6364 90.4407 87.5807 90.3224 87.4695C90.2064 87.3582 90.1483 87.2244 90.1483 87.0682C90.1483 86.9119 90.2064 86.7782 90.3224 86.6669C90.4407 86.5556 90.5816 86.5 90.7449 86.5C90.9083 86.5 91.048 86.5556 91.164 86.6669C91.2823 86.7782 91.3415 86.9119 91.3415 87.0682C91.3415 87.2244 91.2823 87.3582 91.164 87.4695C91.048 87.5807 90.9083 87.6364 90.7449 87.6364ZM94.9078 94.1136C94.4153 94.1136 93.9833 93.9964 93.6116 93.7621C93.2423 93.5277 92.9535 93.1998 92.7451 92.7784C92.5392 92.357 92.4362 91.8646 92.4362 91.3011C92.4362 90.733 92.5392 90.237 92.7451 89.8132C92.9535 89.3894 93.2423 89.0604 93.6116 88.826C93.9833 88.5916 94.4153 88.4744 94.9078 88.4744C95.4002 88.4744 95.8311 88.5916 96.2004 88.826C96.5721 89.0604 96.8609 89.3894 97.0669 89.8132C97.2752 90.237 97.3794 90.733 97.3794 91.3011C97.3794 91.8646 97.2752 92.357 97.0669 92.7784C96.8609 93.1998 96.5721 93.5277 96.2004 93.7621C95.8311 93.9964 95.4002 94.1136 94.9078 94.1136ZM94.9078 93.3608C95.2818 93.3608 95.5896 93.2649 95.8311 93.0732C96.0725 92.8814 96.2513 92.6293 96.3673 92.3168C96.4833 92.0043 96.5413 91.6657 96.5413 91.3011C96.5413 90.9366 96.4833 90.5968 96.3673 90.282C96.2513 89.9671 96.0725 89.7126 95.8311 89.5185C95.5896 89.3243 95.2818 89.2273 94.9078 89.2273C94.5337 89.2273 94.2259 89.3243 93.9845 89.5185C93.743 89.7126 93.5642 89.9671 93.4482 90.282C93.3322 90.5968 93.2742 90.9366 93.2742 91.3011C93.2742 91.6657 93.3322 92.0043 93.4482 92.3168C93.5642 92.6293 93.743 92.8814 93.9845 93.0732C94.2259 93.2649 94.5337 93.3608 94.9078 93.3608ZM99.4967 90.7188V94H98.6586V88.5455H99.4683V89.3977H99.5393C99.6672 89.1207 99.8613 88.8982 100.122 88.7301C100.382 88.5597 100.718 88.4744 101.13 88.4744C101.5 88.4744 101.823 88.5502 102.1 88.7017C102.377 88.8509 102.592 89.0781 102.746 89.3835C102.9 89.6866 102.977 90.0701 102.977 90.5341V94H102.139V90.5909C102.139 90.1624 102.027 89.8286 101.805 89.5895C101.582 89.348 101.277 89.2273 100.889 89.2273C100.621 89.2273 100.382 89.2853 100.171 89.4013C99.9631 89.5173 99.7986 89.6866 99.6778 89.9091C99.5571 90.1316 99.4967 90.4015 99.4967 90.7188ZM108.372 89.767L107.619 89.9801C107.572 89.8546 107.502 89.7327 107.41 89.6143C107.32 89.4936 107.196 89.3942 107.04 89.3161C106.884 89.2379 106.684 89.1989 106.44 89.1989C106.106 89.1989 105.828 89.2758 105.606 89.4297C105.385 89.5812 105.275 89.7741 105.275 90.0085C105.275 90.2169 105.351 90.3814 105.503 90.5021C105.654 90.6229 105.891 90.7235 106.213 90.804L107.022 91.0028C107.51 91.1212 107.874 91.3023 108.113 91.5462C108.352 91.7876 108.471 92.099 108.471 92.4801C108.471 92.7926 108.381 93.072 108.201 93.3182C108.024 93.5644 107.775 93.7585 107.456 93.9006C107.136 94.0426 106.764 94.1136 106.341 94.1136C105.784 94.1136 105.324 93.9929 104.959 93.7514C104.595 93.5099 104.364 93.1572 104.267 92.6932L105.062 92.4943C105.138 92.7879 105.281 93.008 105.492 93.1548C105.705 93.3016 105.983 93.375 106.326 93.375C106.717 93.375 107.027 93.2921 107.257 93.1264C107.489 92.9583 107.605 92.7571 107.605 92.5227C107.605 92.3333 107.539 92.1747 107.406 92.0469C107.273 91.9167 107.07 91.8196 106.795 91.7557L105.886 91.5426C105.387 91.4242 105.02 91.2408 104.785 90.9922C104.553 90.7412 104.437 90.4276 104.437 90.0511C104.437 89.7434 104.524 89.4711 104.696 89.2344C104.872 88.9976 105.11 88.8118 105.41 88.6768C105.713 88.5419 106.057 88.4744 106.44 88.4744C106.98 88.4744 107.404 88.5928 107.711 88.8295C108.022 89.0663 108.242 89.3788 108.372 89.767Z" fill="#04101E" fill-opacity="0.1"/>
<path fill-rule="evenodd" clip-rule="evenodd" d="M164.854 86.6464C165.049 86.8417 165.049 87.1583 164.854 87.3536L158.354 93.8536C158.158 94.0488 157.842 94.0488 157.646 93.8536L155.146 91.3536C154.951 91.1583 154.951 90.8417 155.146 90.6464C155.342 90.4512 155.658 90.4512 155.854 90.6464L158 92.7929L164.146 86.6464C164.342 86.4512 164.658 86.4512 164.854 86.6464Z" fill="#04101E" fill-opacity="0.1"/>
</svg>
