<svg width="16" height="16" viewBox="0 0 16 16" fill="none" xmlns="http://www.w3.org/2000/svg">
<path fill-rule="evenodd" clip-rule="evenodd" d="M11.8119 1.44123C9.35419 0.519591 6.64581 0.519591 4.18812 1.44123L3.12886 1.83845C2.29947 2.14947 1.75 2.94235 1.75 3.82815V7.68777C1.75 9.75032 2.9257 11.4487 4.13987 12.6613C5.36539 13.8852 6.73179 14.7173 7.33308 15.0552C7.74988 15.2893 8.25012 15.2893 8.66692 15.0552C9.26822 14.7173 10.6346 13.8852 11.8601 12.6613C13.0743 11.4487 14.25 9.75032 14.25 7.68777V3.82815C14.25 2.94235 13.7005 2.14947 12.8711 1.83845L11.8119 1.44123ZM4.7148 2.84572C6.83292 2.05143 9.16708 2.05143 11.2852 2.84572L12.3445 3.24294C12.5884 3.33442 12.75 3.56762 12.75 3.82815V7.68777C12.75 9.16618 11.8993 10.5022 10.8002 11.5999C9.75527 12.6434 8.57566 13.3804 8 13.709C7.42434 13.3804 6.24473 12.6434 5.19985 11.5999C4.10071 10.5022 3.25 9.16618 3.25 7.68777V3.82815C3.25 3.56762 3.41161 3.33442 3.65555 3.24294L4.7148 2.84572ZM8.75 5C8.75 4.58579 8.41421 4.25 8 4.25C7.58579 4.25 7.25 4.58579 7.25 5V10C7.25 10.4142 7.58579 10.75 8 10.75C8.41421 10.75 8.75 10.4142 8.75 10V5Z" fill="url(#paint0_linear_1087_55796)"/>
<defs>
<linearGradient id="paint0_linear_1087_55796" x1="8" y1="0.75" x2="8" y2="15.2308" gradientUnits="userSpaceOnUse">
<stop stop-color="#FB6361"/>
<stop offset="1" stop-color="#F23433"/>
</linearGradient>
</defs>
</svg>
