<svg width="16" height="16" viewBox="0 0 16 16" fill="none" xmlns="http://www.w3.org/2000/svg">
<path fill-rule="evenodd" clip-rule="evenodd" d="M4.18812 1.44123C6.64581 0.519591 9.35419 0.519591 11.8119 1.44123L12.8711 1.83845C13.7005 2.14947 14.25 2.94235 14.25 3.82815V7.68777C14.25 9.75032 13.0743 11.4487 11.8601 12.6613C10.6346 13.8852 9.26822 14.7173 8.66692 15.0552C8.25012 15.2893 7.74988 15.2893 7.33308 15.0552C6.73179 14.7173 5.36539 13.8852 4.13987 12.6613C2.9257 11.4487 1.75 9.75032 1.75 7.68777V3.82815C1.75 2.94235 2.29947 2.14947 3.12886 1.83845L4.18812 1.44123ZM11.2852 2.84572C9.16708 2.05143 6.83292 2.05143 4.7148 2.84572L3.65555 3.24294C3.41161 3.33442 3.25 3.56762 3.25 3.82815V7.68777C3.25 9.16618 4.10071 10.5022 5.19985 11.5999C6.24473 12.6434 7.42434 13.3804 8 13.709C8.57566 13.3804 9.75527 12.6434 10.8002 11.5999C11.8993 10.5022 12.75 9.16618 12.75 7.68777V3.82815C12.75 3.56762 12.5884 3.33442 12.3445 3.24294L11.2852 2.84572Z" fill="#F23433"/>
</svg>
