<svg width="48" height="48" viewBox="0 0 48 48" fill="none" xmlns="http://www.w3.org/2000/svg">
<path fill-rule="evenodd" clip-rule="evenodd" d="M6 3C3.23858 3 1 5.23858 1 8V40C1 42.7614 3.23857 45 6 45H42C44.7614 45 47 42.7614 47 40V11C47 8.23858 44.7614 6 42 6H27.6569C26.8612 6 26.0981 5.68393 25.5355 5.12132L24.8787 4.46447C23.941 3.52678 22.6692 3 21.3431 3H6ZM4 12C4 10.8954 4.89543 10 6 10H42C43.1046 10 44 10.8954 44 12V40C44 41.1046 43.1046 42 42 42H6C4.89543 42 4 41.1046 4 40V12Z" fill="#535B65"/>
<path opacity="0.3" d="M2 8C2 5.79086 3.79086 4 6 4H21.3431C22.404 4 23.4214 4.42143 24.1716 5.17157L24.8284 5.82843C25.5786 6.57857 26.596 7 27.6569 7H42C44.2091 7 46 8.79086 46 11V40C46 42.2091 44.2091 44 42 44H6C3.79086 44 2 42.2091 2 40V8Z" fill="#535B65"/>
<path fill-rule="evenodd" clip-rule="evenodd" d="M29.6443 21.0603C27.3347 18.4149 23.4048 17.6825 20.2487 19.5047C18.0903 20.7509 16.785 22.9072 16.5395 25.2129C16.4811 25.7621 15.9885 26.1599 15.4393 26.1014C14.8901 26.043 14.4923 25.5504 14.5508 25.0012C14.861 22.0871 16.5132 19.352 19.2487 17.7726C23.3776 15.3888 28.552 16.4566 31.431 20.0807L31.5396 19.6752C31.6825 19.1418 32.2309 18.8252 32.7643 18.9681C33.2978 19.1111 33.6144 19.6594 33.4714 20.1929L32.7394 22.9249C32.6708 23.1811 32.5032 23.3995 32.2735 23.5321C32.0438 23.6647 31.7708 23.7007 31.5147 23.632L28.7826 22.9C28.2491 22.757 27.9326 22.2087 28.0755 21.6752C28.2184 21.1418 28.7668 20.8252 29.3002 20.9681L29.6443 21.0603ZM32.5578 25.8987C33.107 25.9572 33.5048 26.4498 33.4464 26.9989C33.1362 29.913 31.4839 32.6482 28.7484 34.2275C24.6198 36.6112 19.4456 35.5436 16.5666 31.92L16.4581 32.3249C16.3152 32.8584 15.7668 33.175 15.2334 33.032C14.6999 32.8891 14.3833 32.3408 14.5263 31.8073L15.2583 29.0752C15.4013 28.5418 15.9496 28.2252 16.4831 28.3681L19.2151 29.1002C19.7486 29.2431 20.0652 29.7915 19.9222 30.3249C19.7793 30.8584 19.2309 31.175 18.6975 31.032L18.3527 30.9397C20.6623 33.5852 24.5923 34.3176 27.7484 32.4955C29.9069 31.2493 31.2122 29.093 31.4576 26.7872C31.5161 26.2381 32.0087 25.8403 32.5578 25.8987Z" fill="#535B65"/>
</svg>
