<svg width="12" height="12" viewBox="0 0 12 12" fill="none" xmlns="http://www.w3.org/2000/svg">
<path d="M5.99989 2.25C4.41049 2.25 3.05116 3.23895 2.5054 4.63642C2.43006 4.82933 2.2126 4.92465 2.01968 4.84931C1.82676 4.77397 1.73145 4.5565 1.80679 4.36358C2.46114 2.68804 4.09131 1.5 5.99989 1.5C7.24384 1.5 8.37049 2.00523 9.18464 2.82079L10.3352 3.97136V2.625C10.3352 2.41789 10.5031 2.25 10.7102 2.25C10.9173 2.25 11.0852 2.41789 11.0852 2.625V4.875C11.0852 5.08211 10.9173 5.25 10.7102 5.25H8.46021C8.2531 5.25 8.08521 5.08211 8.08521 4.875C8.08521 4.66789 8.2531 4.5 8.46021 4.5H9.80319L8.65431 3.35112C7.97508 2.67061 7.0368 2.25 5.99989 2.25Z" fill="#616366"/>
<path d="M1.66479 9.375V8.02887L2.81637 9.18044C3.63042 9.99527 4.75657 10.5 5.99989 10.5C7.90847 10.5 9.53864 9.31196 10.193 7.63642C10.2683 7.4435 10.173 7.22603 9.9801 7.15069C9.78718 7.07535 9.56972 7.17067 9.49438 7.36358C8.94862 8.76105 7.58929 9.75 5.99989 9.75C4.96354 9.75 4.02584 9.32996 3.3467 8.65011L2.19659 7.5H3.53979C3.7469 7.5 3.91479 7.33211 3.91479 7.125C3.91479 6.91789 3.7469 6.75 3.53979 6.75H1.28979C1.08269 6.75 0.914795 6.91789 0.914795 7.125V9.375C0.914795 9.58211 1.08269 9.75 1.28979 9.75C1.4969 9.75 1.66479 9.58211 1.66479 9.375Z" fill="#616366"/>
</svg>
