<svg width="16" height="16" viewBox="0 0 16 16" fill="none" xmlns="http://www.w3.org/2000/svg">
<path d="M7.99985 3C5.88066 3 4.06821 4.31859 3.34054 6.18189C3.24008 6.43911 2.95013 6.5662 2.69291 6.46574C2.43568 6.36529 2.3086 6.07534 2.40905 5.81811C3.28152 3.58405 5.45508 2 7.99985 2C9.65845 2 11.1607 2.67364 12.2462 3.76105L13.7803 5.29514V3.5C13.7803 3.22386 14.0041 3 14.2803 3C14.5564 3 14.7803 3.22386 14.7803 3.5V6.5C14.7803 6.77614 14.5564 7 14.2803 7H11.2803C11.0041 7 10.7803 6.77614 10.7803 6.5C10.7803 6.22386 11.0041 6 11.2803 6H13.0709L11.5391 4.46816C10.6334 3.56081 9.38241 3 7.99985 3Z" fill="#FAFAFA"/>
<path d="M2.21973 12.5V10.7052L3.75516 12.2406C4.84056 13.327 6.34209 14 7.99985 14C10.5446 14 12.7182 12.416 13.5907 10.1819C13.6911 9.92466 13.564 9.63471 13.3068 9.53426C13.0496 9.4338 12.7596 9.56089 12.6592 9.81811C11.9315 11.6814 10.119 13 7.99985 13C6.61805 13 5.36778 12.4399 4.46226 11.5335L2.92879 10H4.71973C4.99587 10 5.21973 9.77614 5.21973 9.5C5.21973 9.22386 4.99587 9 4.71973 9H1.71973C1.44358 9 1.21973 9.22386 1.21973 9.5V12.5C1.21973 12.7761 1.44358 13 1.71973 13C1.99587 13 2.21973 12.7761 2.21973 12.5Z" fill="#FAFAFA"/>
</svg>
