<svg width="96" height="96" viewBox="0 0 96 96" fill="none" xmlns="http://www.w3.org/2000/svg">
<path d="M32.0001 26C30.8955 26 30 26.8954 30 27.9999C30 29.1045 30.8954 30 31.9999 30L37.9074 30.0002C36.7904 30.9997 35.454 32.2622 33.8579 33.8583C26.0474 41.6687 26.0474 54.332 33.8579 62.1425C36.623 64.9076 40.0017 66.6964 43.5575 67.5032C44.6347 67.7476 45.706 67.0725 45.9504 65.9953C46.1948 64.9181 45.5197 63.8467 44.4425 63.6023C41.6011 62.9576 38.9023 61.5301 36.6863 59.3141C30.4379 53.0657 30.4379 42.9351 36.6863 36.6867C39.043 34.3299 40.7661 32.7729 42 31.749V40C42 41.1046 42.8954 42 44 42C45.1046 42 46 41.1046 46 40V28.0004C46 26.8958 45.1046 26.0004 44.0001 26.0004L32.0001 26Z" fill="#E31B57"/>
<path d="M64 48C64 52.0948 62.4379 56.1895 59.3137 59.3137C56.957 61.6705 55.2339 63.2275 54 64.2514L54 56C54 54.8954 53.1046 54 52 54C50.8954 54 50 54.8954 50 56L50 68C50 68.5304 50.2107 69.0391 50.5858 69.4142C50.9609 69.7893 51.4696 70 52 70H64C65.1046 70 66 69.1046 66 68C66 66.8954 65.1046 66 64 66H58.0928C59.2098 65.0005 60.5462 63.7381 62.1421 62.1421C66.0474 58.2369 68 53.1184 68 48C68 46.8954 67.1046 46 66 46C64.8954 46 64 46.8954 64 48Z" fill="#E31B57"/>
<path d="M67.6569 28.3434C68.4379 29.1244 68.4379 30.3908 67.6569 31.1718L64.8284 34.0002L67.6569 36.8287C68.4379 37.6097 68.4379 38.876 67.6569 39.6571C66.8758 40.4381 65.6095 40.4381 64.8284 39.6571L62 36.8287L59.1716 39.6571C58.3905 40.4381 57.1242 40.4381 56.3431 39.6571C55.5621 38.876 55.5621 37.6097 56.3431 36.8287L59.1716 34.0002L56.3431 31.1718C55.5621 30.3908 55.5621 29.1244 56.3431 28.3434C57.1242 27.5623 58.3905 27.5623 59.1716 28.3434L62 31.1718L64.8284 28.3434C65.6095 27.5623 66.8758 27.5623 67.6569 28.3434Z" fill="#E31B57"/>
</svg>
