<svg width="256" height="256" viewBox="0 0 256 256" fill="none" xmlns="http://www.w3.org/2000/svg">
<path d="M53.3333 40C49.7971 40 46.4057 41.4048 43.9052 43.9052C41.4048 46.4057 40 49.7971 40 53.3333V202.667C40 206.203 41.4048 209.594 43.9052 212.095C46.4057 214.595 49.7971 216 53.3333 216H96C100.418 216 104 219.582 104 224C104 228.418 100.418 232 96 232H53.3333C45.5536 232 38.0926 228.91 32.5915 223.408C27.0905 217.907 24 210.446 24 202.667V53.3333C24 45.5536 27.0905 38.0926 32.5915 32.5915C38.0926 27.0905 45.5536 24 53.3333 24H96C100.418 24 104 27.5817 104 32C104 36.4183 100.418 40 96 40H53.3333Z" fill="#303233"/>
<path d="M162.343 66.343C165.468 63.2189 170.533 63.219 173.657 66.3433L229.535 122.224C231.054 123.68 232 125.729 232 128C232 130.272 231.053 132.322 229.533 133.778L173.657 189.657C170.533 192.781 165.468 192.781 162.343 189.657C159.219 186.533 159.219 181.468 162.343 178.343L204.684 136H96C91.5817 136 88 132.418 88 128C88 123.582 91.5817 120 96 120H204.684L162.343 77.6567C159.219 74.5325 159.219 69.4671 162.343 66.343Z" fill="#303233"/>
</svg>
