<svg width="256" height="256" viewBox="0 0 256 256" fill="none" xmlns="http://www.w3.org/2000/svg">
<path fill-rule="evenodd" clip-rule="evenodd" d="M89 128.003C89 149.651 106.552 167.203 128.2 167.203C149.864 167.203 167.4 149.651 167.4 128.003C167.4 106.355 149.864 88.8027 128.2 88.8027C106.552 88.8027 89 106.355 89 128.003ZM151.4 128.003C151.4 140.819 141.016 151.203 128.2 151.203C115.4 151.203 105 140.819 105 128.003C105 115.187 115.4 104.803 128.2 104.803C141.016 104.803 151.4 115.187 151.4 128.003Z" fill="#303233"/>
<path fill-rule="evenodd" clip-rule="evenodd" d="M86.4832 199.968C89.6352 201.792 92.1312 204.576 93.6032 207.904L99.6832 221.584C102.115 227.056 106.099 231.712 111.123 234.992L111.139 235.008C116.163 238.256 122.035 240 128.035 240C134.019 240 139.891 238.256 144.915 235.008L144.931 234.992C149.971 231.712 153.939 227.056 156.371 221.584L162.435 207.92C163.923 204.608 166.403 201.84 169.539 200.032C172.707 198.208 176.355 197.424 179.987 197.808L194.851 199.392C200.819 200.016 206.851 198.912 212.195 196.176C217.539 193.456 221.971 189.264 224.979 184.064C227.971 178.864 229.411 172.912 229.091 166.928C228.771 160.928 226.723 155.136 223.187 150.304L214.403 138.224C212.259 135.264 211.123 131.696 211.139 128.032V128C211.139 124.352 212.291 120.8 214.435 117.84L223.251 105.744C226.771 100.896 228.819 95.136 229.139 89.136C229.443 83.152 228.019 77.2 225.027 72C222.035 66.816 217.587 62.6079 212.259 59.8719L212.227 59.856C206.883 57.136 200.851 56.016 194.883 56.672L180.051 58.256C176.419 58.624 172.755 57.84 169.587 56.032C166.451 54.192 163.971 51.4241 162.499 48.1121L162.483 48.08L156.355 34.4C153.939 28.944 149.971 24.2881 144.931 21.0081L144.915 20.9919C139.891 17.7439 134.019 16 128.035 16C122.035 16 116.163 17.7439 111.139 20.9919L111.123 21.0081C106.099 24.2881 102.115 28.944 99.6832 34.416L93.6032 48.0959C92.1312 51.4239 89.6512 54.192 86.5152 56.032C83.3472 57.84 79.6832 58.624 76.0512 58.256L61.1552 56.672C55.2032 56.016 49.1712 57.136 43.8272 59.856L43.8112 59.8719C38.4672 62.6079 34.0352 66.816 31.0432 72C28.0352 77.2 26.6112 83.152 26.9152 89.136C27.2352 95.136 29.2832 100.896 32.8192 105.744L41.6192 117.84C43.7632 120.8 44.9152 124.352 44.9152 128C44.9152 131.648 43.7632 135.2 41.6192 138.16L32.8192 150.256C29.2832 155.104 27.2352 160.864 26.9152 166.864C26.6112 172.848 28.0352 178.8 31.0432 184C34.0352 189.184 38.4672 193.392 43.8112 196.128L43.8272 196.144C49.1712 198.848 55.1872 199.952 61.1552 199.328L76.0032 197.744C79.6512 197.376 83.3152 198.16 86.4832 199.968ZM114.307 215.088L108.227 201.408C105.379 194.976 100.547 189.632 94.4672 186.112C88.3872 182.624 81.3472 181.12 74.3712 181.84H74.3392L59.4752 183.424C56.5952 183.728 53.6832 183.2 51.0912 181.888C48.4992 180.56 46.3392 178.512 44.8992 176C43.4432 173.488 42.7392 170.608 42.8992 167.696C43.0592 164.8 44.0352 162.016 45.7472 159.664L54.5632 147.568C58.6912 141.888 60.9152 135.04 60.9152 128C60.9152 120.96 58.6912 114.112 54.5632 108.432L45.7472 96.3359C44.0352 93.9839 43.0592 91.2 42.8992 88.304C42.7392 85.392 43.4432 82.512 44.8992 80C46.3392 77.488 48.4992 75.4401 51.0912 74.1121C53.6672 72.8161 56.5792 72.272 59.4432 72.576L74.3872 74.16H74.4192C81.3952 74.88 88.4192 73.3921 94.4992 69.9041L94.5472 69.8719C100.611 66.3359 105.395 60.9761 108.227 54.576L114.307 40.912C115.491 38.256 117.411 36.016 119.843 34.416C122.275 32.848 125.123 32 128.035 32C130.931 32 133.779 32.848 136.211 34.416C138.643 36.016 140.563 38.256 141.747 40.912L147.875 54.608C150.707 60.976 155.491 66.3359 161.555 69.8719L161.603 69.9041C167.683 73.3921 174.707 74.88 181.683 74.16H181.715L196.611 72.576C199.491 72.272 202.387 72.8161 204.963 74.1121C207.555 75.4401 209.715 77.488 211.171 80C212.611 82.512 213.315 85.392 213.155 88.304C213.011 91.2 212.019 93.9839 210.307 96.3359L201.491 108.432C197.363 114.112 195.139 120.96 195.139 127.984C195.107 135.04 197.315 141.888 201.443 147.6L210.275 159.744C211.971 162.08 212.963 164.864 213.107 167.76C213.267 170.672 212.563 173.552 211.123 176.064C209.667 178.576 207.523 180.608 204.931 181.92L204.915 181.936C202.323 183.264 199.411 183.792 196.531 183.488L181.667 181.904C174.675 181.168 167.619 182.656 161.539 186.176C155.475 189.68 150.691 195.008 147.827 201.392L141.747 215.088C140.563 217.744 138.643 219.984 136.211 221.584C133.779 223.152 130.931 224 128.035 224C125.123 224 122.275 223.152 119.843 221.584C117.411 219.984 115.491 217.744 114.307 215.088Z" fill="#303233"/>
</svg>
