<svg width="24" height="24" viewBox="0 0 24 24" fill="none" xmlns="http://www.w3.org/2000/svg">
<path fill-rule="evenodd" clip-rule="evenodd" d="M5 4C3.89543 4 3 4.89543 3 6V18C3 19.1046 3.89543 20 5 20H19C20.1046 20 21 19.1046 21 18V8C21 6.89543 20.1046 6 19 6H13.4142C13.149 6 12.8946 5.89464 12.7071 5.70711L11.2929 4.29289C11.1054 4.10536 10.851 4 10.5858 4H5ZM8 10.5C8 10.2239 8.22386 10 8.5 10C8.77614 10 9 10.2239 9 10.5V15.5C9 15.7761 8.77614 16 8.5 16C8.22386 16 8 15.7761 8 15.5V10.5ZM12.6464 15.8536C12.8417 16.0488 13.1583 16.0488 13.3536 15.8536C13.5488 15.6583 13.5488 15.3417 13.3536 15.1464L11.7071 13.5H16.5C16.7761 13.5 17 13.2761 17 13C17 12.7239 16.7761 12.5 16.5 12.5H11.7071L13.3536 10.8536C13.5488 10.6583 13.5488 10.3417 13.3536 10.1464C13.1583 9.95118 12.8417 9.95119 12.6464 10.1464L10.1492 12.6437C10.0571 12.7344 10 12.8605 10 13C10 13.1163 10.0405 13.2284 10.1137 13.3175L12.6464 15.8536Z" fill="url(#paint0_linear_48_1411)"/>
<defs>
<linearGradient id="paint0_linear_48_1411" x1="12" y1="4" x2="12" y2="20" gradientUnits="userSpaceOnUse">
<stop stop-color="#FDC121"/>
<stop offset="1" stop-color="#F7A308"/>
</linearGradient>
</defs>
</svg>
