<svg width="48" height="48" viewBox="0 0 48 48" fill="none" xmlns="http://www.w3.org/2000/svg">
<path d="M23.2929 25.2929C23.3888 25.197 23.4993 25.1247 23.6172 25.0759C23.9797 24.9259 24.4125 24.9982 24.7071 25.2929L27.7071 28.2929C28.0976 28.6834 28.0976 29.3166 27.7071 29.7071C27.3166 30.0976 26.6834 30.0976 26.2929 29.7071L25 28.4142V32H23V28.4142L21.7071 29.7071C21.3166 30.0976 20.6834 30.0976 20.2929 29.7071C19.9024 29.3166 19.9024 28.6834 20.2929 28.2929L23.2929 25.2929Z" fill="url(#paint0_linear_48_1498)"/>
<path fill-rule="evenodd" clip-rule="evenodd" d="M8 8C6.89543 8 6 8.89543 6 10V37C6 38.6569 7.34315 40 9 40H39C40.6569 40 42 38.6569 42 37V14C42 12.3431 40.6569 11 39 11H27.6569C26.596 11 25.5786 10.5786 24.8284 9.82843L24.1716 9.17157C23.4214 8.42143 22.404 8 21.3431 8H8ZM23 32H17C14.7909 32 13 30.2091 13 28C13 25.9582 14.5298 24.2737 16.5057 24.0302C16.5019 23.9373 16.5 23.8439 16.5 23.75C16.5 20.0221 19.5221 17 23.25 17C25.9988 17 28.3638 18.6431 29.4165 21.0006C29.4443 21.0002 29.4721 21 29.5 21C32.5376 21 35 23.4624 35 26.5C35 29.5376 32.5376 32 29.5 32H25V36C25 36.5523 24.5523 37 24 37C23.4477 37 23 36.5523 23 36V32Z" fill="url(#paint1_linear_48_1498)"/>
<defs>
<linearGradient id="paint0_linear_48_1498" x1="24" y1="8" x2="24" y2="40" gradientUnits="userSpaceOnUse">
<stop stop-color="#FDC121"/>
<stop offset="1" stop-color="#F7A308"/>
</linearGradient>
<linearGradient id="paint1_linear_48_1498" x1="24" y1="8" x2="24" y2="40" gradientUnits="userSpaceOnUse">
<stop stop-color="#FDC121"/>
<stop offset="1" stop-color="#F7A308"/>
</linearGradient>
</defs>
</svg>
