<svg width="24" height="24" viewBox="0 0 24 24" fill="none" xmlns="http://www.w3.org/2000/svg">
<path fill-rule="evenodd" clip-rule="evenodd" d="M5 4C3.89543 4 3 4.89543 3 6V18C3 19.1046 3.89543 20 5 20H19C20.1046 20 21 19.1046 21 18V8C21 6.89543 20.1046 6 19 6H13.4142C13.149 6 12.8946 5.89464 12.7071 5.70711L11.2929 4.29289C11.1054 4.10536 10.851 4 10.5858 4H5ZM11.6464 9.14645C11.8417 8.95118 12.1583 8.95118 12.3536 9.14645L14.8536 11.6464C15.0488 11.8417 15.0488 12.1583 14.8536 12.3536C14.6583 12.5488 14.3417 12.5488 14.1464 12.3536L12.5 10.7071V14.5C12.5 14.7761 12.2761 15 12 15C11.7239 15 11.5 14.7761 11.5 14.5V10.7071L9.85355 12.3536C9.65829 12.5488 9.34171 12.5488 9.14645 12.3536C8.95118 12.1583 8.95118 11.8417 9.14645 11.6464L11.6464 9.14645ZM9.5 16C9.22386 16 9 16.2239 9 16.5C9 16.7761 9.22386 17 9.5 17H14.5C14.7761 17 15 16.7761 15 16.5C15 16.2239 14.7761 16 14.5 16H9.5Z" fill="url(#paint0_linear_48_1562)"/>
<defs>
<linearGradient id="paint0_linear_48_1562" x1="12" y1="4" x2="12" y2="20" gradientUnits="userSpaceOnUse">
<stop stop-color="#FDC121"/>
<stop offset="1" stop-color="#F7A308"/>
</linearGradient>
</defs>
</svg>
