<svg width="18" height="16" viewBox="0 0 18 16" fill="none" xmlns="http://www.w3.org/2000/svg">
<path d="M9.49996 12L9.49999 10.2071L10.2929 11C10.4881 11.1953 10.8047 11.1953 11 11C11.1952 10.8047 11.1952 10.4882 11 10.2929L9.35351 8.64645C9.15825 8.45119 8.84167 8.45119 8.64641 8.64645L6.99999 10.2929C6.80472 10.4882 6.80472 10.8047 6.99999 11C7.19525 11.1953 7.51183 11.1953 7.70709 11L8.49999 10.2071L8.49996 12H9.49996Z" fill="url(#paint0_linear_2321_1951)"/>
<path fill-rule="evenodd" clip-rule="evenodd" d="M2 0C0.895431 0 0 0.895431 0 2V14C0 15.1046 0.89543 16 2 16H16C17.1046 16 18 15.1046 18 14V4C18 2.89543 17.1046 2 16 2H10.4142C10.149 2 9.89464 1.89464 9.70711 1.70711L8.29289 0.292893C8.10536 0.105357 7.851 0 7.58579 0H2ZM9.49996 12H11.2057L11.2116 12L11.2175 12H11.2402C12.4479 11.9847 13.4221 11.0055 13.4221 9.8C13.4221 8.58497 12.4324 7.6 11.2116 7.6L11.1781 7.60025C10.755 6.65722 9.80441 6 8.69964 6C7.20134 6 5.98672 7.20883 5.98672 8.7C5.98672 8.73755 5.98749 8.77492 5.98902 8.8121C5.19487 8.9095 4.58002 9.58329 4.58002 10.4C4.58002 11.2837 5.29979 12 6.18767 12L6.19382 12H8.49996L8.49994 13.5C8.49994 13.7762 8.72379 14 8.99994 14C9.27608 14 9.49994 13.7762 9.49994 13.5L9.49996 12Z" fill="url(#paint1_linear_2321_1951)"/>
<defs>
<linearGradient id="paint0_linear_2321_1951" x1="9" y1="0" x2="9" y2="16" gradientUnits="userSpaceOnUse">
<stop stop-color="#FDC121"/>
<stop offset="1" stop-color="#F7A308"/>
</linearGradient>
<linearGradient id="paint1_linear_2321_1951" x1="9" y1="0" x2="9" y2="16" gradientUnits="userSpaceOnUse">
<stop stop-color="#FDC121"/>
<stop offset="1" stop-color="#F7A308"/>
</linearGradient>
</defs>
</svg>
