<svg width="16" height="16" viewBox="0 0 16 16" fill="none" xmlns="http://www.w3.org/2000/svg">
<path d="M12.5 10.75C12.0858 10.75 11.75 11.0858 11.75 11.5C11.75 11.9142 12.0858 12.25 12.5 12.25H12.501C12.9152 12.25 13.251 11.9142 13.251 11.5C13.251 11.0858 12.9152 10.75 12.501 10.75H12.5Z" fill="#303233"/>
<path fill-rule="evenodd" clip-rule="evenodd" d="M3.37109 1.75H10.1289C10.5242 1.74999 10.8654 1.74998 11.1463 1.77293C11.4428 1.79716 11.7377 1.85064 12.0215 1.99524C12.4448 2.21095 12.7891 2.55516 13.0048 2.97852C13.1494 3.26231 13.2029 3.55722 13.2271 3.85373C13.2371 3.97597 13.2427 4.10959 13.2459 4.25412C13.3904 4.2573 13.524 4.26294 13.6463 4.27293C13.9428 4.29716 14.2377 4.35064 14.5215 4.49524C14.9448 4.71095 15.2891 5.05516 15.5048 5.47852C15.6494 5.76231 15.7029 6.05722 15.7271 6.35373C15.75 6.63466 15.75 6.97574 15.75 7.3711V11.1289C15.75 11.5243 15.75 11.8653 15.7271 12.1463C15.7029 12.4428 15.6494 12.7377 15.5048 13.0215C15.2891 13.4448 14.9448 13.7891 14.5215 14.0048C14.2377 14.1494 13.9428 14.2029 13.6463 14.2271C13.3653 14.25 13.0243 14.25 12.6289 14.25H12.3711C11.9757 14.25 11.6347 14.25 11.3537 14.2271C11.0572 14.2029 10.7623 14.1494 10.4785 14.0048C10.0552 13.7891 9.71095 13.4448 9.49524 13.0215C9.36752 12.7708 9.31088 12.5115 9.28271 12.25H3.37108C2.97572 12.25 2.63466 12.25 2.35373 12.2271C2.05722 12.2029 1.76231 12.1494 1.47852 12.0048C1.05516 11.7891 0.710953 11.4448 0.495238 11.0215C0.350642 10.7377 0.297155 10.4428 0.27293 10.1463C0.249978 9.86536 0.249988 9.5243 0.250001 9.12897V4.87109C0.249988 4.47576 0.249978 4.13465 0.27293 3.85373C0.297155 3.55722 0.350642 3.26231 0.495238 2.97852C0.710953 2.55516 1.05516 2.21095 1.47852 1.99524C1.76231 1.85064 2.05722 1.79716 2.35373 1.77293C2.63465 1.74998 2.97576 1.74999 3.37109 1.75ZM11.4759 5.76795C11.2721 5.78459 11.1966 5.81285 11.1595 5.83175C11.0184 5.90365 10.9037 6.01839 10.8317 6.15951C10.8129 6.19659 10.7846 6.27213 10.7679 6.47588C10.7506 6.68838 10.75 6.96759 10.75 7.4V11.1C10.75 11.5324 10.7506 11.8116 10.7679 12.0241C10.7846 12.2279 10.8129 12.3034 10.8317 12.3405C10.9037 12.4816 11.0184 12.5964 11.1595 12.6683C11.1966 12.6872 11.2721 12.7154 11.4759 12.7321C11.6884 12.7494 11.9676 12.75 12.4 12.75H12.6C13.0324 12.75 13.3116 12.7494 13.5241 12.7321C13.7279 12.7154 13.8034 12.6872 13.8405 12.6683C13.9816 12.5964 14.0964 12.4816 14.1683 12.3405C14.1872 12.3034 14.2154 12.2279 14.2321 12.0241C14.2494 11.8116 14.25 11.5324 14.25 11.1V7.4C14.25 6.96759 14.2494 6.68838 14.2321 6.47588C14.2154 6.27213 14.1872 6.19659 14.1683 6.15951C14.0964 6.01839 13.9816 5.90365 13.8405 5.83175C13.8034 5.81285 13.7279 5.78459 13.5241 5.76795C13.3116 5.75059 13.0324 5.75 12.6 5.75H12.4C11.9676 5.75 11.6884 5.75059 11.4759 5.76795Z" fill="#303233"/>
<path d="M5.5 12.75C5.08579 12.75 4.75 13.0858 4.75 13.5C4.75 13.9142 5.08579 14.25 5.5 14.25H8C8.41422 14.25 8.75 13.9142 8.75 13.5C8.75 13.0858 8.41422 12.75 8 12.75H5.5Z" fill="#303233"/>
</svg>
