<svg width="96" height="96" viewBox="0 0 96 96" fill="none" xmlns="http://www.w3.org/2000/svg">
<path d="M44.4267 59.8379C43.9162 58.924 43.546 58.3539 43.2587 57.9766C43.5006 57.8788 43.7437 57.5719 43.7437 56.7339C43.7437 55.7334 42.464 54.5692 41.3739 53.5774C40.6468 52.916 40.0041 52.3312 39.8817 51.923C39.5757 50.9028 40.1877 48.8194 41.6833 46.0381C42.9826 43.6218 43.5794 40.5069 43.7137 39.7309C43.7536 39.7606 43.7949 39.7905 43.8378 39.8206C45.3117 40.8544 46.6828 40.9946 47.5824 40.8544C47.9626 40.7952 48.4063 40.5213 48.8212 40.2653C49.1277 40.0761 49.4184 39.8967 49.6562 39.8206C49.9631 39.7224 50.4745 39.4567 50.8737 39.1738C50.9588 39.9277 51.1988 41.2311 51.8756 42.4979C52.9138 44.441 54.942 49.8735 54.942 49.8735L55.3285 50.3959C55.0339 50.4164 54.7451 50.4954 54.4665 50.6481C54.0186 50.8938 53.8142 51.5141 53.7643 52.1675C53.1579 52.4973 52.3358 53.2458 52.3358 54.8794C52.3358 56.1499 52.0477 57.14 51.7544 58.1481C51.6698 58.4388 51.5848 58.731 51.5061 59.0318C48.8143 61.1742 45.8638 60.4739 44.4383 59.8589L44.4267 59.8379Z" fill="url(#paint0_linear_2239_9039)"/>
<path d="M53.9289 53.731C53.587 54.0828 53.2929 54.6369 53.2929 55.502C53.2929 56.5159 53.0588 57.3061 52.8204 58.1106C52.5733 58.9451 52.3215 59.795 52.3215 60.9261C52.3215 61.919 53.8367 62.9996 55.6574 62.7424C56.7523 62.5877 57.3056 62.0594 57.8964 61.4953C58.2882 61.1213 58.6964 60.7315 59.29 60.4244C59.7009 60.2118 60.1507 60.0442 60.5816 59.8836C61.7116 59.4625 62.7114 59.0899 62.5397 58.0808C62.4025 57.2749 61.98 56.9448 61.6479 56.6854C61.4055 56.496 61.2112 56.3442 61.2112 56.0726C61.2112 55.4288 61.0246 54.3727 60.2655 54.0562C59.9003 53.904 59.1999 53.8685 58.5715 53.8727C58.0903 54.4961 57.1704 55.2015 56.1881 55.2015C54.9583 55.2015 54.3885 54.6501 54.0218 53.953C53.9885 53.8898 53.9574 53.8151 53.9289 53.731Z" fill="url(#paint1_linear_2239_9039)"/>
<path d="M49.1189 33.1424C51.1741 33.4318 50.8735 36.4319 50.3681 37.2239C50.1693 37.126 49.9342 37.0262 49.6562 36.925C49.5579 36.8892 49.4643 36.8545 49.3751 36.821C49.635 36.3861 49.7479 35.6136 48.9096 35.5105C48.2935 35.4347 48.0902 35.9045 48.024 36.259L47.9027 36.2027C47.6148 36.0689 47.4789 36.0058 47.3351 36.0058C47.303 36.0058 47.2618 36.0037 47.2131 36.0003C47.2127 35.9301 47.2037 32.8727 49.1189 33.1424Z" fill="url(#paint2_linear_2239_9039)"/>
<path d="M44.4582 33.467C45.4332 33.467 45.7967 35.7392 45.8326 35.9808C45.6403 36.0078 45.4598 36.0553 45.3117 36.1339C45.2844 36.1485 45.2564 36.164 45.2279 36.1805C45.0974 35.7473 44.8567 35.326 44.4336 35.6225C43.9213 35.9815 44.0981 36.5361 44.2688 36.8608C44.1875 36.9241 44.1065 36.9876 44.0268 37.0502L43.8226 37.2102C42.6505 35.5263 43.4671 33.467 44.4582 33.467Z" fill="url(#paint3_linear_2239_9039)"/>
<path d="M48.3085 39.6518C47.9766 39.8226 47.6216 40.0051 47.3174 40.0446C46.5978 40.138 45.5009 40.0446 44.3218 39.3554C43.1427 38.6662 43.4287 38.1344 43.8636 37.8911C44.0332 37.7962 44.2468 37.6565 44.4727 37.5087C44.8262 37.2774 45.2097 37.0265 45.5009 36.8976C45.8791 36.7302 46.5214 36.7745 46.8929 36.8001C46.9903 36.8068 47.0691 36.8122 47.1196 36.8122C47.2347 36.8122 47.3434 36.8543 47.5737 36.9435C47.8307 37.043 48.239 37.2012 48.9765 37.425C50.375 37.8493 50.4157 38.2373 50.4157 38.4913C50.4157 38.7453 49.4242 39.2361 48.9765 39.3554C48.7863 39.4061 48.5537 39.5257 48.3085 39.6518Z" fill="url(#paint4_linear_2239_9039)"/>
<path d="M35.1322 61.4128C35.8232 61.3387 36.7305 61.2413 38.8833 62.3858C41.5191 63.7871 44.7107 61.9779 43.3229 59.4933C42.4064 57.8523 42.0465 57.5756 41.7391 57.3392C41.581 57.2177 41.4368 57.1068 41.238 56.8267C40.9124 56.368 40.5952 55.7848 40.2841 55.2127C40.0357 54.7559 39.7911 54.3062 39.5491 53.9324C39.0039 53.0903 37.7935 53.0257 37.1552 53.2092C36.8624 53.2934 36.6834 53.6309 36.4955 53.9853C36.2739 54.4034 36.0398 54.8449 35.5915 54.9223C34.6728 55.0809 33.4215 56.1625 33.6706 56.8267C33.833 57.2597 33.6778 58.2168 33.5501 59.0044C33.4819 59.4251 33.4215 59.7974 33.4215 60.0158C33.4215 60.6433 33.8974 61.4449 34.688 61.4449C34.8329 61.4449 34.9772 61.4294 35.1322 61.4128Z" fill="url(#paint5_linear_2239_9039)"/>
<path d="M54.7203 51.4107C54.1642 51.7267 54.232 53.0368 54.4527 53.4715C54.6733 53.9061 55.0162 54.25 55.7562 54.25C56.4963 54.25 57.1774 53.5605 57.3554 53.1452C57.5335 52.7298 57.4691 52.286 56.7929 51.8255C56.1167 51.3649 55.3716 51.0406 54.7203 51.4107Z" fill="url(#paint6_linear_2239_9039)"/>
<path fill-rule="evenodd" clip-rule="evenodd" d="M76 20C80.4183 20 84 23.5817 84 28V64C84 68.4183 80.4183 72 76 72H20C15.5817 72 12 68.4183 12 64V28C12 23.5817 15.5817 20 20 20H76ZM56.3302 42.9651C60.0345 46.4659 59.7873 51.3323 59.603 52.8521C60.1261 52.8774 60.6151 52.9395 60.9175 53.0679C61.8517 53.4644 62.0815 54.7877 62.0815 55.5944C62.0815 55.9348 62.3205 56.1249 62.6189 56.3622C63.0276 56.6873 63.5476 57.101 63.7165 58.1107C63.9279 59.3752 62.6972 59.8421 61.3065 60.3697C60.7762 60.5709 60.2226 60.7809 59.7169 61.0473C58.9863 61.4321 58.4839 61.9205 58.0017 62.3892C57.2745 63.0961 56.5935 63.758 55.246 63.9518C53.3337 64.2268 51.6953 63.2812 51.2559 62.2248C48.0303 61.5675 45.6804 62.0128 44.5907 62.3256C43.7909 63.8896 41.2122 64.5939 38.9624 63.3979C36.3129 61.9894 35.1962 62.1092 34.3457 62.2004C34.1548 62.2209 33.9774 62.2399 33.799 62.2399C32.8259 62.2399 32.2402 61.2533 32.2402 60.481C32.2402 60.2122 32.3145 59.754 32.3985 59.2363C32.5557 58.2668 32.7467 57.0888 32.5468 56.556C32.2402 55.7385 33.7803 54.4072 34.911 54.2121C35.4628 54.1169 35.7509 53.5734 36.0237 53.0589C36.105 52.9054 36.185 52.7546 36.2702 52.6189C36.2178 51.8316 36.3784 50.4493 37.1825 48.0413C37.7965 46.2024 38.752 45.0691 39.6817 43.9665C41.3088 42.0367 42.8568 40.2009 42.3563 34.8401C41.6383 27.1478 50.5628 25.9024 52.9757 31.3122C53.7378 33.0207 53.721 34.5502 53.7046 36.0372C53.6799 38.2862 53.6562 40.4379 56.3302 42.9651Z" fill="url(#paint7_linear_2239_9039)"/>
<path d="M4 78C4 76.8954 4.89543 76 6 76H90C91.1046 76 92 76.8954 92 78C92 79.1046 91.1046 80 90 80H6C4.89543 80 4 79.1046 4 78Z" fill="url(#paint8_linear_2239_9039)"/>
<defs>
<linearGradient id="paint0_linear_2239_9039" x1="48" y1="20" x2="48" y2="80" gradientUnits="userSpaceOnUse">
<stop stop-color="#39424E"/>
<stop offset="1" stop-color="#1E2936"/>
</linearGradient>
<linearGradient id="paint1_linear_2239_9039" x1="48" y1="20" x2="48" y2="80" gradientUnits="userSpaceOnUse">
<stop stop-color="#39424E"/>
<stop offset="1" stop-color="#1E2936"/>
</linearGradient>
<linearGradient id="paint2_linear_2239_9039" x1="48" y1="20" x2="48" y2="80" gradientUnits="userSpaceOnUse">
<stop stop-color="#39424E"/>
<stop offset="1" stop-color="#1E2936"/>
</linearGradient>
<linearGradient id="paint3_linear_2239_9039" x1="48" y1="20" x2="48" y2="80" gradientUnits="userSpaceOnUse">
<stop stop-color="#39424E"/>
<stop offset="1" stop-color="#1E2936"/>
</linearGradient>
<linearGradient id="paint4_linear_2239_9039" x1="48" y1="20" x2="48" y2="80" gradientUnits="userSpaceOnUse">
<stop stop-color="#39424E"/>
<stop offset="1" stop-color="#1E2936"/>
</linearGradient>
<linearGradient id="paint5_linear_2239_9039" x1="48" y1="20" x2="48" y2="80" gradientUnits="userSpaceOnUse">
<stop stop-color="#39424E"/>
<stop offset="1" stop-color="#1E2936"/>
</linearGradient>
<linearGradient id="paint6_linear_2239_9039" x1="48" y1="20" x2="48" y2="80" gradientUnits="userSpaceOnUse">
<stop stop-color="#39424E"/>
<stop offset="1" stop-color="#1E2936"/>
</linearGradient>
<linearGradient id="paint7_linear_2239_9039" x1="48" y1="20" x2="48" y2="80" gradientUnits="userSpaceOnUse">
<stop stop-color="#39424E"/>
<stop offset="1" stop-color="#1E2936"/>
</linearGradient>
<linearGradient id="paint8_linear_2239_9039" x1="48" y1="20" x2="48" y2="80" gradientUnits="userSpaceOnUse">
<stop stop-color="#39424E"/>
<stop offset="1" stop-color="#1E2936"/>
</linearGradient>
</defs>
</svg>
