<svg width="96" height="96" viewBox="0 0 96 96" fill="none" xmlns="http://www.w3.org/2000/svg">
<path fill-rule="evenodd" clip-rule="evenodd" d="M76 20C80.4183 20 84 23.5817 84 28V64C84 68.4183 80.4183 72 76 72H20C15.5817 72 12 68.4183 12 64V28C12 23.5817 15.5817 20 20 20H76ZM52.3448 36.0527C53.4441 34.7765 53.9857 33.1361 53.8546 31.48C52.175 31.6506 50.6236 32.4268 49.5094 33.6541C48.4092 34.8649 47.8518 36.449 47.96 38.0575C49.6621 38.0745 51.2782 37.3356 52.3448 36.0527ZM56.0454 46.6504C56.075 44.428 57.2798 42.3752 59.2378 41.2111C57.997 39.4975 55.9933 38.45 53.8311 38.3846C52.4396 38.2433 51.0741 38.7674 49.9582 39.1957C49.2497 39.4676 48.6419 39.7009 48.1917 39.7009C47.6796 39.7009 47.0543 39.458 46.3536 39.1859C45.4375 38.83 44.3924 38.4241 43.3034 38.4457C40.7747 38.5247 38.4744 39.8814 37.2441 42.0193C34.6242 46.4057 36.5784 52.8523 39.0881 56.398C40.3437 58.1342 41.8112 60.0736 43.7314 60.0049C44.6024 59.9699 45.2205 59.7184 45.8589 59.4586C46.5976 59.1579 47.3636 58.8462 48.5802 58.8462C49.7275 58.8462 50.4606 59.1482 51.1641 59.438C51.8386 59.7159 52.4859 59.9825 53.4448 59.9611C55.4611 59.9295 56.7314 58.2172 57.943 56.4646C58.8452 55.2274 59.5394 53.8601 60 52.4133C57.6053 51.4339 56.0482 49.1648 56.0454 46.6504Z" fill="url(#paint0_linear_1831_21745)"/>
<path d="M4 78C4 76.8954 4.89543 76 6 76H90C91.1046 76 92 76.8954 92 78C92 79.1046 91.1046 80 90 80H6C4.89543 80 4 79.1046 4 78Z" fill="url(#paint1_linear_1831_21745)"/>
<defs>
<linearGradient id="paint0_linear_1831_21745" x1="48" y1="20" x2="48" y2="80" gradientUnits="userSpaceOnUse">
<stop stop-color="#39424E"/>
<stop offset="1" stop-color="#1E2936"/>
</linearGradient>
<linearGradient id="paint1_linear_1831_21745" x1="48" y1="20" x2="48" y2="80" gradientUnits="userSpaceOnUse">
<stop stop-color="#39424E"/>
<stop offset="1" stop-color="#1E2936"/>
</linearGradient>
</defs>
</svg>
