<svg width="16" height="16" viewBox="0 0 16 16" fill="none" xmlns="http://www.w3.org/2000/svg">
<path fill-rule="evenodd" clip-rule="evenodd" d="M2.36111 1.89011C2.36112 1.4759 2.69692 1.14012 3.11114 1.14014L6.7778 1.14026C7.19201 1.14027 7.52778 1.47605 7.52778 1.89026V5.5568C7.52778 5.97102 7.19199 6.3068 6.77778 6.3068C6.36356 6.3068 6.02778 5.97102 6.02778 5.5568V3.33582C5.67818 3.63901 5.22389 4.05997 4.64124 4.64261C2.78625 6.4976 2.78625 9.50513 4.64124 11.3601C5.29928 12.0182 6.10033 12.4418 6.94373 12.6332C7.34768 12.7248 7.60084 13.1266 7.50919 13.5305C7.41754 13.9345 7.01577 14.1876 6.61183 14.096C5.50055 13.8439 4.44454 13.2847 3.58058 12.4208C1.13981 9.98001 1.13981 6.02273 3.58058 3.58195C3.94901 3.21353 4.27274 2.90265 4.55701 2.64018L3.11109 2.64014C2.69687 2.64012 2.3611 2.30433 2.36111 1.89011ZM8.49081 2.47208C8.58246 2.06813 8.98423 1.81497 9.38817 1.90662C10.4995 2.15876 11.5555 2.71787 12.4194 3.58183C14.8602 6.02261 14.8602 9.97989 12.4194 12.4207C12.051 12.7891 11.7273 13.0999 11.4431 13.3624H12.8889C13.3031 13.3624 13.6389 13.6981 13.6389 14.1124C13.6389 14.5266 13.3031 14.8624 12.8889 14.8624H9.22222C9.02331 14.8624 8.83254 14.7833 8.69189 14.6427C8.55124 14.502 8.47222 14.3113 8.47222 14.1124L8.47222 10.4457C8.47222 10.0315 8.80801 9.69569 9.22222 9.69569C9.63644 9.69569 9.97222 10.0315 9.97222 10.4457V12.6668C10.3218 12.3636 10.7761 11.9426 11.3588 11.36C13.2137 9.50501 13.2137 6.49748 11.3588 4.64249C10.7007 3.98445 9.89967 3.5608 9.05627 3.36944C8.65232 3.27779 8.39916 2.87603 8.49081 2.47208Z" fill="#05BAF1"/>
</svg>
