<svg width="18" height="16" viewBox="0 0 18 16" fill="none" xmlns="http://www.w3.org/2000/svg">
<path fill-rule="evenodd" clip-rule="evenodd" d="M2 0C0.895431 0 0 0.895431 0 2V14C0 15.1046 0.89543 16 2 16H16C17.1046 16 18 15.1046 18 14V4C18 2.89543 17.1046 2 16 2H10.4142C10.149 2 9.89464 1.89464 9.70711 1.70711L8.29289 0.292893C8.10536 0.105357 7.851 0 7.58579 0H2ZM12.4056 9.26954C12.4315 9.0951 12.5837 8.97675 12.7479 9.00387C12.911 9.03161 13.0222 9.19557 12.9962 9.37001C12.6828 11.4732 11.007 13 9.01323 13C7.6896 13 6.46968 12.3059 5.72287 11.1798L5.59206 11.8973C5.5644 12.0501 5.43935 12.1561 5.29933 12.1561C5.28031 12.1561 5.26129 12.1543 5.24228 12.15C5.07978 12.1161 4.97432 11.9484 5.00544 11.7752L5.28838 10.2225C5.3195 10.0493 5.47681 9.93525 5.63874 9.96977L7.09088 10.2724C7.25223 10.3057 7.35768 10.474 7.32656 10.6472C7.29487 10.8204 7.1387 10.9338 6.9762 10.8999L6.15851 10.7292C6.7895 11.7364 7.8544 12.3608 9.01323 12.3608C10.712 12.3608 12.1388 11.0608 12.4056 9.26954ZM12.4091 6.10552C12.4413 5.93249 12.5977 5.8194 12.7604 5.85339C12.9214 5.888 13.026 6.0567 12.9944 6.23034L12.7081 7.78634C12.692 7.86915 12.6465 7.94269 12.581 7.99027C12.5316 8.02549 12.4741 8.04403 12.4154 8.04403C12.3959 8.04403 12.3769 8.04218 12.3574 8.03785L10.9103 7.73011C10.7488 7.6955 10.6436 7.5268 10.6758 7.35378C10.7074 7.18013 10.8649 7.06705 11.0259 7.10165L11.8198 7.27035C11.1897 6.26495 10.1296 5.64143 8.97693 5.64143C7.28613 5.64143 5.86324 6.94037 5.59304 8.73057C5.56889 8.88753 5.44241 9 5.29869 9C5.28316 9 5.26707 8.99815 5.25097 8.99567C5.08827 8.96725 4.97789 8.80287 5.00376 8.62799C5.32168 6.52572 6.99178 5 8.97693 5C10.305 5 11.5289 5.7057 12.2729 6.84767L12.4091 6.10552Z" fill="url(#paint0_linear_2321_1983)"/>
<defs>
<linearGradient id="paint0_linear_2321_1983" x1="9" y1="0" x2="9" y2="16" gradientUnits="userSpaceOnUse">
<stop stop-color="#FDC121"/>
<stop offset="1" stop-color="#F7A308"/>
</linearGradient>
</defs>
</svg>
