<svg width="36" height="35" viewBox="0 0 36 35" fill="none" xmlns="http://www.w3.org/2000/svg">
<path fill-rule="evenodd" clip-rule="evenodd" d="M17.0586 0.502261C17.6541 0.218322 18.346 0.218322 18.9415 0.502261C19.439 0.739491 19.7242 1.15675 19.8868 1.42232C20.0536 1.69477 20.2277 2.04766 20.4096 2.41618L24.259 10.2147C24.2662 10.2293 24.273 10.243 24.2794 10.2559C24.2936 10.258 24.3087 10.2602 24.3249 10.2626L32.9355 11.5212C33.342 11.5805 33.7312 11.6374 34.0417 11.712C34.3445 11.7848 34.8292 11.9275 35.2082 12.3275C35.6619 12.8064 35.8752 13.4644 35.7889 14.1184C35.7167 14.6647 35.4079 15.0646 35.2055 15.3012C34.9979 15.5439 34.716 15.8183 34.4218 16.1049L28.1933 22.1714C28.1816 22.1828 28.1707 22.1934 28.1604 22.2035C28.1628 22.2177 28.1654 22.2328 28.1681 22.2489L29.6378 30.8175C29.7073 31.2226 29.7739 31.6105 29.7991 31.9291C29.8237 32.2395 29.8383 32.7448 29.5751 33.2293C29.2602 33.8091 28.7004 34.2158 28.0516 34.336C27.5095 34.4365 27.0335 34.2664 26.7458 34.1471C26.4507 34.0246 26.1023 33.8414 25.7385 33.65L18.0408 29.6018C18.0263 29.5942 18.0128 29.5871 18 29.5804C17.9873 29.5871 17.9737 29.5942 17.9593 29.6018L10.2615 33.65C9.89773 33.8414 9.54937 34.0246 9.25424 34.1471C8.96659 34.2664 8.49056 34.4365 7.94848 34.336C7.29971 34.2158 6.73989 33.8091 6.42495 33.2293C6.16181 32.7448 6.1764 32.2395 6.20099 31.9291C6.22621 31.6105 6.29279 31.2226 6.36233 30.8175L7.83195 22.2489C7.8347 22.2328 7.83729 22.2177 7.83972 22.2035C7.82939 22.1934 7.81844 22.1828 7.80676 22.1714L1.57837 16.1049C1.28406 15.8184 1.00222 15.5439 0.794589 15.3012C0.592174 15.0646 0.283379 14.6647 0.211228 14.1184C0.124865 13.4644 0.338222 12.8064 0.791897 12.3275C1.17091 11.9275 1.65563 11.7848 1.95835 11.712C2.26887 11.6374 2.65813 11.5805 3.06459 11.5212C3.08154 11.5187 3.09851 11.5162 3.11551 11.5137L11.6752 10.2626C11.6913 10.2602 11.7064 10.258 11.7207 10.2559C11.7271 10.243 11.7338 10.2293 11.741 10.2147L15.5905 2.41618C15.7723 2.04766 15.9465 1.69477 16.1133 1.42232C16.2759 1.15675 16.561 0.739491 17.0586 0.502261Z" fill="#F7A308"/>
</svg>
