<svg width="36" height="35" viewBox="0 0 36 35" fill="none" xmlns="http://www.w3.org/2000/svg">
<path fill-rule="evenodd" clip-rule="evenodd" d="M17.0586 0.502261C17.6541 0.218322 18.346 0.218322 18.9415 0.502261C19.439 0.739491 19.7242 1.15675 19.8868 1.42232C20.0536 1.69477 20.2277 2.04766 20.4096 2.41618L24.259 10.2147C24.2662 10.2293 24.273 10.243 24.2794 10.2559C24.2936 10.258 24.3087 10.2602 24.3249 10.2626L32.9355 11.5212C33.342 11.5805 33.7312 11.6374 34.0417 11.712C34.3445 11.7848 34.8292 11.9275 35.2082 12.3275C35.6619 12.8064 35.8752 13.4644 35.7889 14.1184C35.7167 14.6647 35.4079 15.0646 35.2055 15.3012C34.9979 15.5439 34.716 15.8183 34.4218 16.1049L28.1933 22.1714C28.1816 22.1828 28.1707 22.1934 28.1604 22.2035C28.1628 22.2177 28.1654 22.2328 28.1681 22.2489L29.6378 30.8175C29.7073 31.2226 29.7739 31.6105 29.7991 31.9291C29.8237 32.2395 29.8383 32.7448 29.5751 33.2293C29.2602 33.8091 28.7004 34.2158 28.0516 34.336C27.5095 34.4365 27.0335 34.2664 26.7458 34.1471C26.4507 34.0246 26.1023 33.8414 25.7385 33.65L18.0408 29.6018C18.0263 29.5942 18.0128 29.5871 18 29.5804C17.9873 29.5871 17.9737 29.5942 17.9593 29.6018L10.2615 33.65C9.89773 33.8414 9.54937 34.0246 9.25424 34.1471C8.96659 34.2664 8.49056 34.4365 7.94848 34.336C7.29971 34.2158 6.73989 33.8091 6.42495 33.2293C6.16181 32.7448 6.1764 32.2395 6.20099 31.9291C6.22621 31.6105 6.29279 31.2226 6.36233 30.8175L7.83195 22.2489C7.8347 22.2328 7.83729 22.2177 7.83972 22.2035C7.82939 22.1934 7.81844 22.1828 7.80676 22.1714L1.57837 16.1049C1.28406 15.8184 1.00222 15.5439 0.794589 15.3012C0.592174 15.0646 0.283379 14.6647 0.211228 14.1184C0.124865 13.4644 0.338222 12.8064 0.791897 12.3275C1.17091 11.9275 1.65563 11.7848 1.95835 11.712C2.26887 11.6374 2.65813 11.5805 3.06459 11.5212C3.08154 11.5187 3.09851 11.5162 3.11551 11.5137L11.6752 10.2626C11.6913 10.2602 11.7064 10.258 11.7207 10.2559C11.7271 10.243 11.7338 10.2293 11.741 10.2147L15.5905 2.41618C15.7723 2.04766 15.9465 1.69477 16.1133 1.42232C16.2759 1.15675 16.561 0.739491 17.0586 0.502261ZM18 3.46545C17.9753 3.51532 17.9492 3.56815 17.9216 3.62419L14.0949 11.3766C14.0872 11.3923 14.0789 11.4093 14.07 11.4275C13.9829 11.6066 13.8393 11.902 13.6139 12.1446C13.4213 12.3519 13.1903 12.5198 12.9337 12.6391C12.6334 12.7788 12.3082 12.8244 12.1109 12.852C12.0909 12.8548 12.0721 12.8575 12.0549 12.86L3.49516 14.1111C3.43335 14.1202 3.37507 14.1287 3.32004 14.1368C3.35983 14.1757 3.40202 14.2168 3.44676 14.2604L9.63831 20.2909C9.65082 20.3031 9.66448 20.3163 9.67909 20.3304C9.82282 20.4687 10.0598 20.6968 10.2211 20.9865C10.3589 21.2341 10.4473 21.506 10.4814 21.7873C10.5213 22.1165 10.4639 22.4403 10.429 22.6368C10.4254 22.6567 10.4221 22.6754 10.4192 22.6926L8.95825 31.2105C8.94769 31.2721 8.93774 31.3302 8.92841 31.3851C8.97771 31.3593 9.02989 31.3318 9.08522 31.3027L16.7375 27.2785C16.753 27.2704 16.7697 27.2614 16.7876 27.2519C16.9636 27.158 17.2537 27.0033 17.5791 26.9395C17.8571 26.8849 18.143 26.8849 18.421 26.9395C18.7464 27.0033 19.0365 27.158 19.2125 27.2519C19.2304 27.2614 19.2471 27.2704 19.2626 27.2785L26.9149 31.3027C26.9702 31.3318 27.0224 31.3593 27.0717 31.3851C27.0623 31.3302 27.0524 31.2721 27.0418 31.2105L25.5809 22.6926C25.578 22.6754 25.5746 22.6567 25.5711 22.6368C25.5362 22.4403 25.4787 22.1165 25.5187 21.7873C25.5528 21.506 25.6412 21.2341 25.779 20.9865C25.9403 20.6968 26.1773 20.4687 26.321 20.3304C26.3356 20.3163 26.3493 20.3031 26.3618 20.2909L32.5533 14.2604C32.5981 14.2168 32.6402 14.1757 32.68 14.1368C32.625 14.1287 32.5667 14.1202 32.5049 14.1111L23.9452 12.86C23.9279 12.8575 23.9092 12.8548 23.8892 12.852C23.6919 12.8244 23.3666 12.7788 23.0664 12.6391C22.8098 12.5198 22.5788 12.3519 22.3862 12.1446C22.1608 11.902 22.0172 11.6066 21.93 11.4275C21.9212 11.4093 21.9129 11.3923 21.9052 11.3766L18.0785 3.62419C18.0508 3.56815 18.0247 3.51532 18 3.46545Z" fill="#C1C2C4"/>
</svg>
