<svg width="24" height="24" viewBox="0 0 24 24" fill="none" xmlns="http://www.w3.org/2000/svg">
<path fill-rule="evenodd" clip-rule="evenodd" d="M6 2C4.34315 2 3 3.34315 3 5V19C3 20.6569 4.34315 22 6 22H18C19.6569 22 21 20.6569 21 19V5C21 3.34315 19.6569 2 18 2H6ZM16.2283 8.53696C16.3577 8.61464 16.3577 8.80227 16.2283 8.87995L12.2572 11.2626C12.0989 11.3576 11.9011 11.3576 11.7428 11.2626L7.77174 8.87995C7.64227 8.80227 7.64227 8.61464 7.77174 8.53696L11.7428 6.15435C11.9011 6.05934 12.0989 6.05934 12.2572 6.15435L16.2283 8.53696ZM7 9.93634C7 9.78088 7.16959 9.68486 7.3029 9.76484L11.2572 12.1374C11.4079 12.2278 11.5 12.3906 11.5 12.5662V17.3468C11.5 17.5022 11.3304 17.5982 11.1971 17.5183L7.24275 15.1457C7.09215 15.0553 7 14.8925 7 14.7169V9.93634ZM12.5 17.3468C12.5 17.5022 12.6696 17.5982 12.8029 17.5183L16.7572 15.1457C16.9079 15.0553 17 14.8925 17 14.7169V9.93634C17 9.78088 16.8304 9.68486 16.6971 9.76484L12.7428 12.1374C12.5921 12.2278 12.5 12.3906 12.5 12.5662V17.3468Z" fill="url(#paint0_linear_48_2045)"/>
<defs>
<linearGradient id="paint0_linear_48_2045" x1="12" y1="2" x2="12" y2="22" gradientUnits="userSpaceOnUse">
<stop stop-color="#69A3FB"/>
<stop offset="1" stop-color="#477EF7"/>
</linearGradient>
</defs>
</svg>
