<svg width="24" height="24" viewBox="0 0 24 24" fill="none" xmlns="http://www.w3.org/2000/svg">
<path fill-rule="evenodd" clip-rule="evenodd" d="M6 2C4.34315 2 3 3.34315 3 5V19C3 20.6569 4.34315 22 6 22H18C19.6569 22 21 20.6569 21 19V5C21 3.34315 19.6569 2 18 2H6ZM10.3843 11.0935L12.375 10.6199L14.4185 10.1642C14.4541 10.1563 14.4905 10.1523 14.527 10.1523C14.8032 10.1523 15.027 10.3761 15.027 10.6523V12.2976C15.027 12.7367 14.7406 13.1244 14.3208 13.2535L14.0072 13.3499C13.4011 13.5362 12.9874 14.0961 12.9874 14.7302V15.071C12.9874 15.1682 13.0007 15.2649 13.0268 15.3585C13.1856 15.9267 13.775 16.2586 14.3432 16.0998L14.4904 16.0587C15.3789 15.8103 15.9933 15.0007 15.9933 14.0781V8.50027C15.9933 8.40759 15.9847 8.31511 15.9676 8.22401C15.8151 7.40976 15.0313 6.87336 14.217 7.02593L12.375 7.37108L9.80419 7.91362C9.34168 8.01123 9.01068 8.41936 9.01068 8.89207V13.6034C9.01068 13.8141 8.8787 14.0021 8.68062 14.0737L7.97548 14.3285C7.38124 14.5433 6.98529 15.1074 6.98529 15.7392V16.1021C6.98529 16.2092 7.00251 16.3156 7.03628 16.4173C7.21039 16.9414 7.77642 17.2252 8.30055 17.0511L8.63051 16.9415C9.44819 16.6698 10 15.9051 10 15.0434V11.5799C10 11.3483 10.159 11.1471 10.3843 11.0935Z" fill="url(#paint0_linear_48_1903)"/>
<defs>
<linearGradient id="paint0_linear_48_1903" x1="12" y1="2" x2="12" y2="22" gradientUnits="userSpaceOnUse">
<stop stop-color="#69A3FB"/>
<stop offset="1" stop-color="#477EF7"/>
</linearGradient>
</defs>
</svg>
