<svg width="48" height="48" viewBox="0 0 48 48" fill="none" xmlns="http://www.w3.org/2000/svg">
<path d="M18.5 20C18.2239 20 18 20.2239 18 20.5V22.5C18 22.7761 18.2239 23 18.5 23H20.5C20.7761 23 21 22.7761 21 22.5V20.5C21 20.2239 20.7761 20 20.5 20H18.5Z" fill="url(#paint0_linear_48_1823)"/>
<path fill-rule="evenodd" clip-rule="evenodd" d="M11 6H37C38.6569 6 40 7.34315 40 9V39C40 40.6569 38.6569 42 37 42H11C9.34315 42 8 40.6569 8 39V9C8 7.34315 9.34315 6 11 6ZM20 7H19V19H18.5C17.6716 19 17 19.6716 17 20.5V21H9V22H17V22.5C17 23.3284 17.6716 24 18.5 24H19V41H20V24H20.5C21.3284 24 22 23.3284 22 22.5V22H39V21H22V20.5C22 19.6716 21.3284 19 20.5 19H20V7Z" fill="url(#paint1_linear_48_1823)"/>
<defs>
<linearGradient id="paint0_linear_48_1823" x1="24" y1="6" x2="24" y2="42" gradientUnits="userSpaceOnUse">
<stop stop-color="#FB6361"/>
<stop offset="1" stop-color="#F23433"/>
</linearGradient>
<linearGradient id="paint1_linear_48_1823" x1="24" y1="6" x2="24" y2="42" gradientUnits="userSpaceOnUse">
<stop stop-color="#FB6361"/>
<stop offset="1" stop-color="#F23433"/>
</linearGradient>
</defs>
</svg>
