<svg width="48" height="48" viewBox="0 0 48 48" fill="none" xmlns="http://www.w3.org/2000/svg">
<path d="M24 29C24.5523 29 25 28.5523 25 28C25 27.4477 24.5523 27 24 27C23.4477 27 23 27.4477 23 28C23 28.5523 23.4477 29 24 29Z" fill="url(#paint0_linear_48_1767)"/>
<path fill-rule="evenodd" clip-rule="evenodd" d="M11 6H37C38.6569 6 40 7.34315 40 9V39C40 40.6569 38.6569 42 37 42H11C9.34315 42 8 40.6569 8 39V9C8 7.34315 9.34315 6 11 6ZM22 8.5C22 8.22386 22.2239 8 22.5 8H25.5C25.7761 8 26 8.22386 26 8.5C26 8.77614 25.7761 9 25.5 9H22.5C22.2239 9 22 8.77614 22 8.5ZM22 10.5C22 10.2239 22.2239 10 22.5 10H25.5C25.7761 10 26 10.2239 26 10.5C26 10.7761 25.7761 11 25.5 11H22.5C22.2239 11 22 10.7761 22 10.5ZM22.5 12C22.2239 12 22 12.2239 22 12.5C22 12.7761 22.2239 13 22.5 13H25.5C25.7761 13 26 12.7761 26 12.5C26 12.2239 25.7761 12 25.5 12H22.5ZM22 14.5C22 14.2239 22.2239 14 22.5 14H25.5C25.7761 14 26 14.2239 26 14.5C26 14.7761 25.7761 15 25.5 15H22.5C22.2239 15 22 14.7761 22 14.5ZM22.5 16C22.2239 16 22 16.2239 22 16.5C22 16.7761 22.2239 17 22.5 17H25.5C25.7761 17 26 16.7761 26 16.5C26 16.2239 25.7761 16 25.5 16H22.5ZM22 18.5C22 18.2239 22.2239 18 22.5 18H25.5C25.7761 18 26 18.2239 26 18.5C26 18.7761 25.7761 19 25.5 19H22.5C22.2239 19 22 18.7761 22 18.5ZM22.5 20C22.2239 20 22 20.2239 22 20.5C22 20.7761 22.2239 21 22.5 21H25.5C25.7761 21 26 20.7761 26 20.5C26 20.2239 25.7761 20 25.5 20H22.5ZM22 22.5C22 22.2239 22.2239 22 22.5 22H25.5C25.7761 22 26 22.2239 26 22.5C26 22.7761 25.7761 23 25.5 23H22.5C22.2239 23 22 22.7761 22 22.5ZM22.5 24C22.2239 24 22 24.2239 22 24.5C22 24.7761 22.2239 25 22.5 25H25.5C25.7761 25 26 24.7761 26 24.5C26 24.2239 25.7761 24 25.5 24H22.5ZM23 26C22.4477 26 22 26.4477 22 27V31C22 32.1046 22.8954 33 24 33C25.1046 33 26 32.1046 26 31V27C26 26.4477 25.5523 26 25 26H23Z" fill="url(#paint1_linear_48_1767)"/>
<defs>
<linearGradient id="paint0_linear_48_1767" x1="24" y1="6" x2="24" y2="42" gradientUnits="userSpaceOnUse">
<stop stop-color="#888D95"/>
<stop offset="1" stop-color="#6E747D"/>
</linearGradient>
<linearGradient id="paint1_linear_48_1767" x1="24" y1="6" x2="24" y2="42" gradientUnits="userSpaceOnUse">
<stop stop-color="#888D95"/>
<stop offset="1" stop-color="#6E747D"/>
</linearGradient>
</defs>
</svg>
