<svg width="48" height="48" viewBox="0 0 48 48" fill="none" xmlns="http://www.w3.org/2000/svg">
<path d="M32.165 28.7576V22.9855C32.0314 22.955 31.8959 22.9339 31.7593 22.9222C31.6153 22.9077 31.4705 22.9006 31.3257 22.901C30.8127 22.8959 30.3057 23.0118 29.8458 23.2393C29.3531 23.4742 28.9425 23.8518 28.6672 24.3231C28.392 24.7944 28.2648 25.3376 28.3023 25.8821C28.2921 26.343 28.3674 26.8018 28.5244 27.2352C28.6521 27.5846 28.8541 27.902 29.1165 28.1656C29.3675 28.4082 29.6714 28.5891 30.0043 28.6941C30.3559 28.808 30.7234 28.8651 31.093 28.8633C31.2906 28.8633 31.4739 28.8562 31.643 28.8421C31.8192 28.8301 31.994 28.8018 32.165 28.7576Z" fill="url(#paint0_linear_48_1641)"/>
<path fill-rule="evenodd" clip-rule="evenodd" d="M11 6H37C38.6569 6 40 7.34315 40 9V39C40 40.6569 38.6569 42 37 42H11C9.34315 42 8 40.6569 8 39V9C8 7.34315 9.34315 6 11 6ZM30.8185 31.3794C29.8453 31.3942 28.8811 31.1919 27.9959 30.7873C27.1712 30.4056 26.4818 29.7827 26.0188 29.0008C25.5102 28.088 25.2616 27.0532 25.3 26.009C25.292 25.0386 25.54 24.0833 26.0188 23.2393C26.5121 22.3796 27.2375 21.6762 28.112 21.2096C29.1353 20.6766 30.2781 20.4146 31.4314 20.4485C31.502 20.4485 31.5936 20.452 31.7063 20.4591C31.7416 20.4613 31.7894 20.4639 31.8431 20.4669C31.961 20.4733 32.1076 20.4812 32.2142 20.4907V16.7501C32.202 16.6613 32.2254 16.5713 32.2791 16.4995C32.3329 16.4278 32.4128 16.3802 32.5014 16.367H34.5478C34.649 16.3673 34.746 16.4077 34.8178 16.4793C34.8893 16.5509 34.9298 16.648 34.93 16.7492V28.7999C34.93 29.0397 34.9405 29.3005 34.9615 29.5822C34.9828 29.8643 35.0005 30.118 35.0145 30.3432C35.0173 30.3871 35.0065 30.4308 34.9838 30.4685C34.9613 30.5063 34.9278 30.5363 34.888 30.5547C34.2333 30.8407 33.5493 31.0534 32.848 31.1891C32.1785 31.3126 31.4993 31.3763 30.8185 31.3794ZM24.9646 17.4959L21.0321 23.8255L25.2397 30.6778C25.2665 30.7261 25.2741 30.7827 25.2609 30.8364C25.2464 30.8859 25.1973 30.9177 25.1128 30.9315H22.1105C22.0243 30.9403 21.9373 30.9252 21.859 30.8879C21.7807 30.8506 21.7142 30.7925 21.6666 30.7201C21.5152 30.4253 21.364 30.1432 21.2128 29.8612C21.082 29.6173 20.9513 29.3735 20.8206 29.1218C20.5388 28.5794 20.2393 28.0261 19.9222 27.462C19.6052 26.8986 19.2916 26.3277 18.9813 25.7496H18.9601C18.6781 26.3135 18.3856 26.8773 18.0829 27.441C17.7793 28.0049 17.4798 28.5651 17.1842 29.1218C16.977 29.5116 16.7664 29.8797 16.5523 30.254C16.4605 30.4146 16.368 30.5763 16.2749 30.7413C16.252 30.8001 16.211 30.8502 16.1579 30.8844C16.1048 30.9186 16.0422 30.9351 15.9791 30.9315H13.0824C13.0705 30.9328 13.0584 30.9315 13.0471 30.9278C13.0357 30.9241 13.0252 30.9181 13.0163 30.9102C13.0074 30.9022 13.0002 30.8925 12.9952 30.8816C12.9903 30.8707 12.9876 30.8589 12.9875 30.847C12.9793 30.7954 12.9905 30.7427 13.019 30.699L17.0997 24.037L13.1247 17.4747C13.0823 17.4186 13.0756 17.3727 13.1035 17.3373C13.1192 17.3193 13.1388 17.3051 13.1608 17.2959C13.1828 17.2867 13.2067 17.2828 13.2305 17.2844H16.2118C16.2768 17.2809 16.3418 17.2917 16.4021 17.3162C16.4525 17.3449 16.4958 17.3846 16.5288 17.4324C16.6933 17.7979 16.8696 18.0957 17.0577 18.4135C17.1598 18.586 17.2654 18.7644 17.3745 18.9626C17.6845 19.5266 17.9981 20.0834 18.3153 20.6329C18.6326 21.1826 18.9251 21.7394 19.1928 22.3033H19.214C19.4958 21.7254 19.7812 21.1616 20.07 20.6119C20.3591 20.0621 20.6551 19.5088 20.9582 18.9521C21.0972 18.6967 21.2339 18.4759 21.3685 18.2587C21.5272 18.0024 21.6829 17.7511 21.8357 17.4536C21.8517 17.4014 21.8808 17.3541 21.9202 17.3162C21.9724 17.2897 22.0311 17.2786 22.0893 17.2844H24.8591C24.8858 17.2778 24.914 17.2806 24.9389 17.2921C24.9638 17.3037 24.9841 17.3234 24.9964 17.348C25.0087 17.3726 25.0122 17.4006 25.0064 17.4275C25.0006 17.4544 24.9859 17.4785 24.9646 17.4959Z" fill="url(#paint1_linear_48_1641)"/>
<defs>
<linearGradient id="paint0_linear_48_1641" x1="24" y1="6" x2="24" y2="42" gradientUnits="userSpaceOnUse">
<stop stop-color="#ED73CC"/>
<stop offset="1" stop-color="#E248C2"/>
</linearGradient>
<linearGradient id="paint1_linear_48_1641" x1="24" y1="6" x2="24" y2="42" gradientUnits="userSpaceOnUse">
<stop stop-color="#ED73CC"/>
<stop offset="1" stop-color="#E248C2"/>
</linearGradient>
</defs>
</svg>
