<svg width="96" height="96" viewBox="0 0 96 96" fill="none" xmlns="http://www.w3.org/2000/svg">
<g id="folder">
<g id="icon" opacity="0.3" filter="url(#filter0_f_1701_838)">
<path fill-rule="evenodd" clip-rule="evenodd" d="M55.9321 19.2626C61.1247 13.3116 69.9607 11.664 77.0566 15.7631C81.9097 18.5665 84.8445 23.4173 85.3963 28.6042C85.5277 29.8396 86.6352 30.7345 87.87 30.603C89.1047 30.4715 89.9992 29.3634 89.8677 28.128C89.1703 21.5726 85.4554 15.4196 79.305 11.8667C70.0219 6.50422 58.3878 8.90626 51.9149 17.0589L51.6707 16.1468C51.3493 14.9467 50.1164 14.2345 48.917 14.5561C47.7176 14.8776 47.0058 16.1112 47.3272 17.3112L48.9731 23.4572C49.1274 24.0335 49.5042 24.5249 50.0207 24.8232C50.5371 25.1215 51.1508 25.2023 51.7268 25.0479L57.8694 23.4011C59.0688 23.0795 59.7806 21.846 59.4592 20.6459C59.1378 19.4459 57.905 18.7337 56.7056 19.0552L55.9321 19.2626ZM49.3813 30.147C48.1465 30.2785 47.2521 31.3866 47.3835 32.622C48.0809 39.1774 51.7958 45.3304 57.9462 48.8833C67.2289 54.2455 78.8623 51.844 85.3354 43.6923L85.5793 44.6033C85.9007 45.8033 87.1336 46.5155 88.333 46.1939C89.5324 45.8724 90.2442 44.6389 89.9228 43.4388L88.2769 37.2928C87.9555 36.0927 86.7227 35.3806 85.5232 35.7021L79.3806 37.3489C78.1812 37.6705 77.4694 38.904 77.7908 40.1041C78.1121 41.3042 79.345 42.0163 80.5444 41.6948L81.3195 41.487C76.1269 47.4383 67.2907 49.086 60.1946 44.9869C55.3416 42.1835 52.4068 37.3327 51.855 32.1458C51.7236 30.9104 50.616 30.0155 49.3813 30.147Z" fill="url(#paint0_linear_1701_838)"/>
</g>
<g id="icon_2" filter="url(#filter1_ii_1701_838)">
<path fill-rule="evenodd" clip-rule="evenodd" d="M55.9321 19.2626C61.1247 13.3116 69.9607 11.664 77.0566 15.7631C81.9097 18.5665 84.8445 23.4173 85.3963 28.6042C85.5277 29.8396 86.6352 30.7345 87.87 30.603C89.1047 30.4715 89.9992 29.3634 89.8677 28.128C89.1703 21.5726 85.4554 15.4196 79.305 11.8667C70.0219 6.50422 58.3878 8.90626 51.9149 17.0589L51.6707 16.1468C51.3493 14.9467 50.1164 14.2345 48.917 14.5561C47.7176 14.8776 47.0058 16.1112 47.3272 17.3112L48.9731 23.4572C49.1274 24.0335 49.5042 24.5249 50.0207 24.8232C50.5371 25.1215 51.1508 25.2023 51.7268 25.0479L57.8694 23.4011C59.0688 23.0795 59.7806 21.846 59.4592 20.6459C59.1378 19.4459 57.905 18.7337 56.7056 19.0552L55.9321 19.2626ZM49.3813 30.147C48.1465 30.2785 47.2521 31.3866 47.3835 32.622C48.0809 39.1774 51.7958 45.3304 57.9462 48.8833C67.2289 54.2455 78.8623 51.844 85.3354 43.6923L85.5793 44.6033C85.9007 45.8033 87.1336 46.5155 88.333 46.1939C89.5324 45.8724 90.2442 44.6389 89.9228 43.4388L88.2769 37.2928C87.9555 36.0927 86.7227 35.3806 85.5232 35.7021L79.3806 37.3489C78.1812 37.6705 77.4694 38.904 77.7908 40.1041C78.1121 41.3042 79.345 42.0163 80.5444 41.6948L81.3195 41.487C76.1269 47.4383 67.2907 49.086 60.1946 44.9869C55.3416 42.1835 52.4068 37.3327 51.855 32.1458C51.7236 30.9104 50.616 30.0155 49.3813 30.147Z" fill="url(#paint1_linear_1701_838)"/>
</g>
<g id="icon_3" filter="url(#filter2_bdii_1701_838)">
<path d="M6 31.5C6 26.5294 10.0294 22.5 15 22.5H33.5147C35.106 22.5 36.6321 23.1321 37.7574 24.2574L40.2426 26.7426C41.3679 27.8679 42.894 28.5 44.4853 28.5H63C67.9706 28.5 72 32.5294 72 37.5V73.5C72 78.4706 67.9706 82.5 63 82.5H15C10.0294 82.5 6 78.4706 6 73.5V31.5Z" fill="url(#paint2_linear_1701_838)" shape-rendering="crispEdges"/>
</g>
</g>
<defs>
<filter id="filter0_f_1701_838" x="41.25" y="3" width="54.75" height="54.75" filterUnits="userSpaceOnUse" color-interpolation-filters="sRGB">
<feFlood flood-opacity="0" result="BackgroundImageFix"/>
<feBlend mode="normal" in="SourceGraphic" in2="BackgroundImageFix" result="shape"/>
<feGaussianBlur stdDeviation="3" result="effect1_foregroundBlur_1701_838"/>
</filter>
<filter id="filter1_ii_1701_838" x="45.75" y="9" width="44.25" height="44.25" filterUnits="userSpaceOnUse" color-interpolation-filters="sRGB">
<feFlood flood-opacity="0" result="BackgroundImageFix"/>
<feBlend mode="normal" in="SourceGraphic" in2="BackgroundImageFix" result="shape"/>
<feColorMatrix in="SourceAlpha" type="matrix" values="0 0 0 0 0 0 0 0 0 0 0 0 0 0 0 0 0 0 127 0" result="hardAlpha"/>
<feOffset dx="-1.5" dy="1.5"/>
<feGaussianBlur stdDeviation="1.5"/>
<feComposite in2="hardAlpha" operator="arithmetic" k2="-1" k3="1"/>
<feColorMatrix type="matrix" values="0 0 0 0 1 0 0 0 0 1 0 0 0 0 1 0 0 0 0.3 0"/>
<feBlend mode="normal" in2="shape" result="effect1_innerShadow_1701_838"/>
<feColorMatrix in="SourceAlpha" type="matrix" values="0 0 0 0 0 0 0 0 0 0 0 0 0 0 0 0 0 0 127 0" result="hardAlpha"/>
<feOffset dx="-0.75" dy="0.75"/>
<feGaussianBlur stdDeviation="0.375"/>
<feComposite in2="hardAlpha" operator="arithmetic" k2="-1" k3="1"/>
<feColorMatrix type="matrix" values="0 0 0 0 1 0 0 0 0 1 0 0 0 0 1 0 0 0 0.25 0"/>
<feBlend mode="normal" in2="effect1_innerShadow_1701_838" result="effect2_innerShadow_1701_838"/>
</filter>
<filter id="filter2_bdii_1701_838" x="-0.75" y="15.75" width="79.5" height="73.5" filterUnits="userSpaceOnUse" color-interpolation-filters="sRGB">
<feFlood flood-opacity="0" result="BackgroundImageFix"/>
<feGaussianBlur in="BackgroundImageFix" stdDeviation="3.375"/>
<feComposite in2="SourceAlpha" operator="in" result="effect1_backgroundBlur_1701_838"/>
<feColorMatrix in="SourceAlpha" type="matrix" values="0 0 0 0 0 0 0 0 0 0 0 0 0 0 0 0 0 0 127 0" result="hardAlpha"/>
<feOffset dx="0.375" dy="-0.375"/>
<feGaussianBlur stdDeviation="0.375"/>
<feComposite in2="hardAlpha" operator="out"/>
<feColorMatrix type="matrix" values="0 0 0 0 0 0 0 0 0 0 0 0 0 0 0 0 0 0 0.05 0"/>
<feBlend mode="normal" in2="effect1_backgroundBlur_1701_838" result="effect2_dropShadow_1701_838"/>
<feBlend mode="normal" in="SourceGraphic" in2="effect2_dropShadow_1701_838" result="shape"/>
<feColorMatrix in="SourceAlpha" type="matrix" values="0 0 0 0 0 0 0 0 0 0 0 0 0 0 0 0 0 0 127 0" result="hardAlpha"/>
<feOffset dx="-1.5" dy="1.5"/>
<feGaussianBlur stdDeviation="1.5"/>
<feComposite in2="hardAlpha" operator="arithmetic" k2="-1" k3="1"/>
<feColorMatrix type="matrix" values="0 0 0 0 1 0 0 0 0 1 0 0 0 0 1 0 0 0 0.3 0"/>
<feBlend mode="normal" in2="shape" result="effect3_innerShadow_1701_838"/>
<feColorMatrix in="SourceAlpha" type="matrix" values="0 0 0 0 0 0 0 0 0 0 0 0 0 0 0 0 0 0 127 0" result="hardAlpha"/>
<feOffset dx="-0.75" dy="0.75"/>
<feGaussianBlur stdDeviation="0.375"/>
<feComposite in2="hardAlpha" operator="arithmetic" k2="-1" k3="1"/>
<feColorMatrix type="matrix" values="0 0 0 0 1 0 0 0 0 1 0 0 0 0 1 0 0 0 0.25 0"/>
<feBlend mode="normal" in2="effect3_innerShadow_1701_838" result="effect4_innerShadow_1701_838"/>
</filter>
<linearGradient id="paint0_linear_1701_838" x1="47.25" y1="9" x2="90" y2="51.75" gradientUnits="userSpaceOnUse">
<stop stop-color="#FB6361"/>
<stop offset="1" stop-color="#F23433"/>
</linearGradient>
<linearGradient id="paint1_linear_1701_838" x1="47.25" y1="9" x2="90" y2="51.75" gradientUnits="userSpaceOnUse">
<stop stop-color="#FB6361"/>
<stop offset="1" stop-color="#F23433"/>
</linearGradient>
<linearGradient id="paint2_linear_1701_838" x1="72" y1="22.5" x2="-4.6408" y2="61.6913" gradientUnits="userSpaceOnUse">
<stop stop-color="#E5E6E8" stop-opacity="0.3"/>
<stop offset="1" stop-color="#BDC0C4" stop-opacity="0.7"/>
</linearGradient>
</defs>
</svg>
