<svg width="48" height="48" viewBox="0 0 48 48" fill="none" xmlns="http://www.w3.org/2000/svg">
<path fill-rule="evenodd" clip-rule="evenodd" d="M8 8C6.89543 8 6 8.89543 6 10V37C6 38.6569 7.34315 40 9 40H39C40.6569 40 42 38.6569 42 37V14C42 12.3431 40.6569 11 39 11H27.6569C26.596 11 25.5786 10.5786 24.8284 9.82843L24.1716 9.17157C23.4214 8.42143 22.404 8 21.3431 8H8ZM17 31C17 31.5523 16.5523 32 16 32C15.4477 32 15 31.5523 15 31V21C15 20.4477 15.4477 20 16 20C16.5523 20 17 20.4477 17 21V31ZM27.8787 29.2929L30.1711 27H20C19.4477 27 19 26.5523 19 26C19 25.4477 19.4477 25 20 25H30.1711L27.8787 22.7071L27.7955 22.6129C27.4905 22.2206 27.5182 21.6534 27.8787 21.2929C28.2692 20.9024 28.9024 20.9024 29.2929 21.2929L33.2929 25.2929C33.6834 25.6834 33.6834 26.3166 33.2929 26.7071L29.2929 30.7071L29.1987 30.7903C28.8064 31.0953 28.2392 31.0676 27.8787 30.7071L27.7955 30.6129C27.4905 30.2206 27.5182 29.6534 27.8787 29.2929Z" fill="url(#paint0_linear_48_1358)"/>
<defs>
<linearGradient id="paint0_linear_48_1358" x1="24" y1="8" x2="24" y2="40" gradientUnits="userSpaceOnUse">
<stop stop-color="#FDC121"/>
<stop offset="1" stop-color="#F7A308"/>
</linearGradient>
</defs>
</svg>
