<svg width="48" height="48" viewBox="0 0 48 48" fill="none" xmlns="http://www.w3.org/2000/svg">
<path fill-rule="evenodd" clip-rule="evenodd" d="M8 8C6.89543 8 6 8.89543 6 10V37C6 38.6569 7.34315 40 9 40H39C40.6569 40 42 38.6569 42 37V14C42 12.3431 40.6569 11 39 11H27.6569C26.596 11 25.5786 10.5786 24.8284 9.82843L24.1716 9.17157C23.4214 8.42143 22.404 8 21.3431 8H8ZM15 31C15 31.5523 15.4477 32 16 32C16.5523 32 17 31.5523 17 31V21C17 20.4477 16.5523 20 16 20C15.4477 20 15 20.4477 15 21V31ZM24.1213 22.7071L21.829 25H32C32.5523 25 33 25.4477 33 26C33 26.5523 32.5523 27 32 27H21.829L24.1213 29.2929C24.4818 29.6534 24.5095 30.2206 24.2045 30.6129L24.1213 30.7071C23.7608 31.0676 23.1936 31.0953 22.8013 30.7903L22.7071 30.7071L18.7071 26.7071C18.3166 26.3166 18.3166 25.6834 18.7071 25.2929L22.7071 21.2929C23.0976 20.9024 23.7308 20.9024 24.1213 21.2929C24.4818 21.6534 24.5095 22.2206 24.2045 22.6129L24.1213 22.7071Z" fill="url(#paint0_linear_48_1394)"/>
<defs>
<linearGradient id="paint0_linear_48_1394" x1="24" y1="8" x2="24" y2="40" gradientUnits="userSpaceOnUse">
<stop stop-color="#FDC121"/>
<stop offset="1" stop-color="#F7A308"/>
</linearGradient>
</defs>
</svg>
