<svg width="24" height="24" viewBox="0 0 24 24" fill="none" xmlns="http://www.w3.org/2000/svg">
<path fill-rule="evenodd" clip-rule="evenodd" d="M5 4C3.89543 4 3 4.89543 3 6V18C3 19.1046 3.89543 20 5 20H19C20.1046 20 21 19.1046 21 18V8C21 6.89543 20.1046 6 19 6H13.4142C13.149 6 12.8946 5.89464 12.7071 5.70711L11.2929 4.29289C11.1054 4.10536 10.851 4 10.5858 4H5ZM9 10.5C9 10.2239 8.77614 10 8.5 10C8.22386 10 8 10.2239 8 10.5V15.5C8 15.7761 8.22386 16 8.5 16C8.77614 16 9 15.7761 9 15.5V10.5ZM14.3536 10.1464C14.1583 9.95118 13.8417 9.95119 13.6464 10.1464C13.4512 10.3417 13.4512 10.6583 13.6464 10.8536L15.2929 12.5H10.5C10.2239 12.5 10 12.7239 10 13C10 13.2761 10.2239 13.5 10.5 13.5H15.2929L13.6464 15.1464C13.4512 15.3417 13.4512 15.6583 13.6464 15.8536C13.8417 16.0488 14.1583 16.0488 14.3536 15.8536L16.8509 13.3562C16.9429 13.2655 17 13.1394 17 13C17 12.8837 16.9595 12.7716 16.8863 12.6825L14.3536 10.1464Z" fill="url(#paint0_linear_48_1375)"/>
<defs>
<linearGradient id="paint0_linear_48_1375" x1="12" y1="4" x2="12" y2="20" gradientUnits="userSpaceOnUse">
<stop stop-color="#FDC121"/>
<stop offset="1" stop-color="#F7A308"/>
</linearGradient>
</defs>
</svg>
