<svg width="24" height="24" viewBox="0 0 24 24" fill="none" xmlns="http://www.w3.org/2000/svg">
<path d="M9.72609 12.6152H11.5153C11.4942 12.5449 11.4475 12.4286 11.3989 12.3078C11.3501 12.1865 11.2995 12.0607 11.2713 11.9723C11.2443 11.8883 11.2126 11.8124 11.1799 11.7342C11.1441 11.6486 11.1072 11.5601 11.074 11.4551L10.8837 10.8526C10.8202 10.6517 10.7621 10.4579 10.7093 10.2711C10.6564 10.0845 10.6089 9.91356 10.5666 9.75843H10.556C10.4965 10.044 10.4224 10.3262 10.3339 10.6041C10.2351 10.9213 10.1347 11.2455 10.0327 11.5767C9.99087 11.7122 9.94845 11.8634 9.90618 12.0141C9.84509 12.2319 9.78431 12.4486 9.72609 12.6152Z" fill="url(#paint0_linear_48_1172)"/>
<path fill-rule="evenodd" clip-rule="evenodd" d="M6 2C4.34315 2 3 3.34315 3 5V19C3 20.6569 4.34315 22 6 22H18C19.6569 22 21 20.6569 21 19V5C21 3.34315 19.6569 2 18 2H6ZM15.3116 9.71289C15.2038 9.71721 15.0962 9.69873 14.996 9.65866C14.8958 9.61858 14.8052 9.55781 14.7301 9.48032C14.6552 9.39946 14.597 9.30459 14.5589 9.20118C14.5208 9.09777 14.5035 8.98783 14.508 8.87771C14.5042 8.76868 14.5234 8.66007 14.5644 8.55897C14.6054 8.45787 14.6673 8.36657 14.746 8.29101C14.8239 8.21622 14.9159 8.15763 15.0166 8.11862C15.1173 8.07962 15.2247 8.06097 15.3327 8.06374C15.4426 8.05771 15.5525 8.07482 15.6554 8.11396C15.7583 8.15311 15.8518 8.21343 15.9299 8.29101C16.0029 8.36972 16.0596 8.46207 16.0968 8.56274C16.134 8.66343 16.1509 8.77046 16.1467 8.87771C16.1511 8.98827 16.1333 9.09858 16.0942 9.20211C16.0551 9.30563 15.9956 9.40024 15.9193 9.48032C15.8396 9.55896 15.7444 9.62021 15.6398 9.66024C15.5352 9.70027 15.4235 9.71819 15.3116 9.71289ZM14.6271 15.3612V10.5279C14.6271 10.4644 14.6551 10.4327 14.7118 10.4327H15.913C15.9693 10.4327 15.9975 10.4645 15.9975 10.5279V15.3612C15.9975 15.4318 15.9693 15.4671 15.913 15.467H14.7223C14.6588 15.467 14.6271 15.4317 14.6271 15.3612ZM11.8011 13.7402H9.3591L8.86021 15.3712C8.85345 15.3994 8.83709 15.4243 8.81394 15.4416C8.79079 15.459 8.76231 15.4677 8.7334 15.4664H7.49651C7.42606 15.4664 7.40136 15.4276 7.42244 15.3501L9.5306 9.26157C9.55181 9.19816 9.57293 9.12592 9.59394 9.04485C9.62299 8.92652 9.63723 8.80506 9.63635 8.68323C9.63491 8.67318 9.63584 8.66295 9.63905 8.65331C9.64225 8.64368 9.64766 8.63493 9.65483 8.62776C9.662 8.62057 9.67075 8.61516 9.68038 8.61195C9.69 8.60873 9.70024 8.6078 9.71029 8.60922H11.3911C11.4403 8.60922 11.4687 8.62693 11.4756 8.6621L13.8817 15.3606C13.9028 15.4312 13.8816 15.4665 13.8182 15.4664H12.4439C12.4203 15.469 12.3966 15.4629 12.3771 15.4493C12.3576 15.4357 12.3438 15.4154 12.3382 15.3924L11.8011 13.7402Z" fill="url(#paint1_linear_48_1172)"/>
<defs>
<linearGradient id="paint0_linear_48_1172" x1="12" y1="2" x2="12" y2="22" gradientUnits="userSpaceOnUse">
<stop stop-color="#FD853A"/>
<stop offset="1" stop-color="#FB6514"/>
</linearGradient>
<linearGradient id="paint1_linear_48_1172" x1="12" y1="2" x2="12" y2="22" gradientUnits="userSpaceOnUse">
<stop stop-color="#FD853A"/>
<stop offset="1" stop-color="#FB6514"/>
</linearGradient>
</defs>
</svg>
