<svg width="24" height="24" viewBox="0 0 24 24" fill="none" xmlns="http://www.w3.org/2000/svg">
<path d="M14.3107 14.2971V11.411C14.2344 11.3959 14.1572 11.3853 14.0796 11.3794C14.0076 11.3721 13.9353 11.3686 13.8629 11.3688C13.6064 11.3662 13.3529 11.4242 13.1229 11.5379C12.8766 11.6553 12.6712 11.8441 12.5335 12.0798C12.3959 12.3154 12.3324 12.5871 12.3512 12.8593C12.346 13.0898 12.3837 13.3192 12.4622 13.5359C12.5261 13.7105 12.6271 13.8692 12.7581 14.0011C12.8837 14.1223 13.0357 14.2128 13.2022 14.2653C13.3781 14.3223 13.5619 14.3508 13.7467 14.3499C13.8452 14.3499 13.937 14.3465 14.0215 14.3393C14.1189 14.3333 14.2157 14.3191 14.3107 14.2971Z" fill="url(#paint0_linear_48_1042)"/>
<path fill-rule="evenodd" clip-rule="evenodd" d="M6 2C4.34315 2 3 3.34315 3 5V19C3 20.6569 4.34315 22 6 22H18C19.6569 22 21 20.6569 21 19V5C21 3.34315 19.6569 2 18 2H6ZM13.6091 15.608C13.1226 15.6153 12.6405 15.5142 12.1979 15.3119C11.7856 15.1211 11.4409 14.8096 11.2096 14.4186C10.9552 13.9623 10.8309 13.4449 10.8501 12.9228C10.8461 12.4376 10.9701 11.9599 11.2096 11.5379C11.4562 11.108 11.8189 10.7563 12.2562 10.5231C12.7678 10.2566 13.3392 10.1255 13.9158 10.1425C13.9509 10.1425 13.9967 10.1443 14.0532 10.1478C14.0712 10.149 14.0962 10.1503 14.1242 10.1518C14.1839 10.155 14.2579 10.1589 14.3107 10.1636V8.1623C14.3107 8.11311 14.3318 8.08835 14.3742 8.08835H15.5999C15.6085 8.08714 15.6173 8.08794 15.6256 8.0907C15.6338 8.09345 15.6413 8.09809 15.6474 8.10424C15.6536 8.11039 15.6582 8.11789 15.6609 8.12614C15.6637 8.13437 15.6645 8.14315 15.6633 8.15176V14.3182C15.6633 14.4381 15.6686 14.5685 15.6792 14.7094C15.6898 14.8504 15.6986 14.9773 15.7055 15.0899C15.7069 15.1119 15.7015 15.1337 15.6902 15.1526C15.6788 15.1715 15.6621 15.1865 15.6421 15.1956C15.3155 15.3386 14.974 15.445 14.6241 15.5128C14.2892 15.5746 13.9496 15.6064 13.6091 15.608ZM9.68366 8.73373V15.3587C9.68366 15.4293 9.65195 15.4646 9.58852 15.4645H8.37897C8.32233 15.4645 8.29443 15.4293 8.29443 15.3587V8.73373C8.29443 8.67737 8.32596 8.64912 8.38957 8.64912H9.59912C9.61061 8.64748 9.62232 8.64854 9.63332 8.65222C9.64433 8.65589 9.65433 8.66208 9.66253 8.67029C9.67073 8.6785 9.67692 8.6885 9.68058 8.69952C9.68425 8.71053 9.68531 8.72224 9.68366 8.73373Z" fill="url(#paint1_linear_48_1042)"/>
<defs>
<linearGradient id="paint0_linear_48_1042" x1="12" y1="2" x2="12" y2="22" gradientUnits="userSpaceOnUse">
<stop stop-color="#FD6F90"/>
<stop offset="1" stop-color="#F63D6B"/>
</linearGradient>
<linearGradient id="paint1_linear_48_1042" x1="12" y1="2" x2="12" y2="22" gradientUnits="userSpaceOnUse">
<stop stop-color="#FD6F90"/>
<stop offset="1" stop-color="#F63D6B"/>
</linearGradient>
</defs>
</svg>
