<svg width="48" height="48" viewBox="0 0 48 48" fill="none" xmlns="http://www.w3.org/2000/svg">
<path opacity="0.8" fill-rule="evenodd" clip-rule="evenodd" d="M11 6H37C38.6569 6 40 7.34315 40 9V39C40 40.6569 38.6569 42 37 42H11C9.34315 42 8 40.6569 8 39V9C8 7.34315 9.34315 6 11 6ZM16 15H15.9616C15.4327 15 14.9953 15.4118 14.9634 15.9397L14.5406 22.9397C14.5058 23.5147 14.9627 24 15.5387 24H32.4613C33.0373 24 33.4942 23.5147 33.4594 22.9397L33.0366 15.9397C33.0047 15.4118 32.5673 15 32.0384 15H17V14C17 13.4477 17.4477 13 18 13H20C20 13.5523 20.4477 14 21 14H23C23.5523 14 24 13.5523 24 13C24 12.4477 23.5523 12 23 12H18C16.8954 12 16 12.8954 16 14V15ZM14 25C14 25.5523 14.4477 26 15 26H33C33.5523 26 34 25.5523 34 25H14ZM22.9935 27H24.9967V34.0163C24.9967 34.5069 25.35 34.9149 25.8159 35H28.5C28.7761 35 29 35.2239 29 35.5C29 35.7761 28.7761 36 28.5 36H19.5C19.2239 36 19 35.7761 19 35.5C19 35.2239 19.2239 35 19.5 35H22.1743C22.6403 34.9149 22.9935 34.5069 22.9935 34.0163V27Z" fill="url(#paint0_linear_48_961)"/>
<defs>
<linearGradient id="paint0_linear_48_961" x1="24" y1="6" x2="24" y2="42" gradientUnits="userSpaceOnUse">
<stop stop-color="#69A3FB"/>
<stop offset="1" stop-color="#477EF7"/>
</linearGradient>
</defs>
</svg>
