<svg width="24" height="24" viewBox="0 0 24 24" fill="none" xmlns="http://www.w3.org/2000/svg">
<path d="M16.6027 15.6676C16.7617 15.6676 16.89 15.5392 16.89 15.3742V8.62586C16.89 8.46082 16.7617 8.33246 16.6027 8.33246H15.7531C15.6003 8.33246 15.4536 8.39358 15.3435 8.50361L12.1039 11.7861C12.0488 11.8411 11.951 11.8411 11.896 11.7861L8.65635 8.50361C8.54632 8.39358 8.39962 8.33246 8.24681 8.33246H7.39716C7.23823 8.33246 7.10986 8.46082 7.10986 8.62586V15.3742C7.10986 15.5392 7.23823 15.6676 7.39716 15.6676H8.6319C8.79083 15.6676 8.91919 15.5392 8.91919 15.3742V11.5416C8.91919 11.5049 8.96198 11.4927 8.98032 11.511L11.5904 14.1516C11.8166 14.3839 12.1833 14.3839 12.4095 14.1516L15.0196 11.511C15.0379 11.4927 15.0807 11.5049 15.0807 11.5416V15.3742C15.0807 15.5392 15.2091 15.6676 15.368 15.6676H16.6027Z" fill="#303233"/>
<path fill-rule="evenodd" clip-rule="evenodd" d="M12 1.25C6.06294 1.25 1.25 6.06294 1.25 12C1.25 17.9371 6.06294 22.75 12 22.75C17.9371 22.75 22.75 17.9371 22.75 12C22.75 6.06294 17.9371 1.25 12 1.25ZM2.75 12C2.75 6.89137 6.89137 2.75 12 2.75C17.1086 2.75 21.25 6.89137 21.25 12C21.25 17.1086 17.1086 21.25 12 21.25C6.89137 21.25 2.75 17.1086 2.75 12Z" fill="#303233"/>
</svg>
