<svg width="24" height="24" viewBox="0 0 24 24" fill="none" xmlns="http://www.w3.org/2000/svg">
<path fill-rule="evenodd" clip-rule="evenodd" d="M6 2C4.34315 2 3 3.34315 3 5V10.4061C2.68177 10.5185 2.37358 10.6547 2.07763 10.8128C2.06996 10.8165 2.06209 10.8213 2.05425 10.826L2.04499 10.8315C2.01838 10.8525 2 10.8859 2 10.9237C2 10.989 2.05116 11.0421 2.11521 11.0421C2.11867 11.0421 2.12202 11.0416 2.12527 11.0413C2.12831 11.0409 2.13129 11.0405 2.13414 11.0405C2.13688 11.0393 2.13962 11.0393 2.14195 11.0393C2.42268 10.986 2.70922 10.9506 3 10.9343V19C3 20.6569 4.34315 22 6 22H18C19.6569 22 21 20.6569 21 19V5C21 3.34315 19.6569 2 18 2H6ZM3 10.9343C3.33003 10.9159 3.66553 10.9221 4.00421 10.955C5.79254 11.1279 7.35059 11.69 8.44452 12.9565C8.5013 13.0164 8.55191 13.0135 8.60952 12.9534C9.98557 11.3259 12.0943 10.6834 14.3609 10.9016C14.4868 10.9139 14.6121 10.93 14.7356 10.9499C14.7514 10.9521 14.7703 10.9549 14.7899 10.9579C14.8237 10.963 14.8594 10.9684 14.884 10.9709C14.959 10.98 15 10.9187 15 10.8536C14.9999 10.8084 14.9807 10.7708 14.9377 10.7491C14.9104 10.7339 14.8824 10.7197 14.8547 10.7057C14.8388 10.6976 14.8229 10.6895 14.8073 10.6813C14.1066 10.3372 13.3351 10.1103 12.5153 10.0309C11.0674 9.89131 9.6826 10.2307 8.51324 10.9223C7.71281 10.4586 6.80473 10.1562 5.82861 10.0619C4.83977 9.96619 3.88136 10.0948 3 10.4061V10.9343ZM15.9665 6.49941C15.9517 6.48927 15.9367 6.4798 15.9217 6.47042L15.8962 6.45423C15.5189 6.22477 15.1035 6.07354 14.6621 6.02061C13.8825 5.92754 13.1368 6.15383 12.5071 6.61489C12.0761 6.30571 11.5872 6.10416 11.0616 6.04124C10.3369 5.95443 9.64251 6.14458 9.0418 6.54189C9.03767 6.54437 9.03342 6.54752 9.0292 6.55065L9.02422 6.5543C9.0099 6.56831 9 6.59062 9 6.61582C9 6.65932 9.02755 6.6947 9.06204 6.6947C9.06324 6.6947 9.06441 6.69459 9.06557 6.69444C9.06621 6.69436 9.06684 6.69426 9.06746 6.69417C9.0691 6.69392 9.07069 6.69368 9.07223 6.69368C9.0737 6.69284 9.07518 6.69284 9.07644 6.69284C9.39917 6.61704 9.73615 6.59547 10.0792 6.63664C11.0421 6.75193 11.8811 7.12664 12.4701 7.97101C12.5007 8.01096 12.528 8.009 12.559 7.96895C13.2999 6.88393 14.4354 6.45563 15.6559 6.60107C15.7236 6.60929 15.7911 6.62002 15.8576 6.63328C15.8662 6.63472 15.8764 6.63663 15.887 6.63861C15.9052 6.642 15.9243 6.64557 15.9375 6.64728C15.9779 6.65335 16 6.61246 16 6.56905C15.9999 6.5389 15.9896 6.51388 15.9665 6.49941Z" fill="url(#paint0_linear_48_884)"/>
<defs>
<linearGradient id="paint0_linear_48_884" x1="11.5" y1="2" x2="11.5" y2="22" gradientUnits="userSpaceOnUse">
<stop stop-color="#69A3FB"/>
<stop offset="1" stop-color="#477EF7"/>
</linearGradient>
</defs>
</svg>
