<svg width="48" height="48" viewBox="0 0 48 48" fill="none" xmlns="http://www.w3.org/2000/svg">
<path d="M18.0625 19.6235V24C18.2455 24.0142 18.4146 24.0213 18.5698 24.0212H19.2673C19.7791 24.0287 20.289 23.9575 20.779 23.8098C21.198 23.6854 21.5725 23.4432 21.8577 23.112C22.1528 22.725 22.2991 22.2448 22.2698 21.7589C22.281 21.35 22.1746 20.9464 21.9632 20.5961C21.741 20.2574 21.4199 19.9954 21.0436 19.8456C20.5521 19.6544 20.0271 19.5645 19.5 19.5812C19.1619 19.5812 18.8624 19.5847 18.6016 19.5918C18.3404 19.599 18.1607 19.6096 18.0625 19.6235Z" fill="url(#paint0_linear_48_549)"/>
<path fill-rule="evenodd" clip-rule="evenodd" d="M11 6H37C38.6569 6 40 7.34315 40 9V39C40 40.6569 38.6569 42 37 42H11C9.34315 42 8 40.6569 8 39V9C8 7.34315 9.34315 6 11 6ZM15.1445 30.7447V17.2344C15.1445 17.1359 15.187 17.0864 15.2715 17.0864C15.4967 17.0864 15.7644 17.0828 16.0748 17.0758C16.3848 17.0688 16.7196 17.0618 17.0793 17.0547C17.4386 17.0477 17.8192 17.0407 18.221 17.0335C18.6228 17.0265 19.0209 17.023 19.4155 17.0229C20.334 16.9993 21.2496 17.1353 22.1217 17.4247C22.783 17.6484 23.3862 18.0168 23.8873 18.503C24.312 18.9244 24.6402 19.4329 24.8493 19.9935C25.0469 20.5391 25.147 21.1152 25.1451 21.6955C25.185 22.685 24.9112 23.6618 24.3627 24.4863C23.8379 25.2222 23.1 25.7793 22.2486 26.0826C21.2997 26.4244 20.297 26.5927 19.2885 26.5795C18.9782 26.5795 18.7599 26.576 18.6334 26.5689C18.5064 26.562 18.3161 26.5584 18.0625 26.5583V30.7235C18.0662 30.7494 18.0638 30.7757 18.0555 30.8005C18.0473 30.8252 18.0334 30.8477 18.0149 30.8662C17.9965 30.8846 17.974 30.8986 17.9492 30.9068C17.9244 30.9151 17.8981 30.9175 17.8722 30.9138H15.2927C15.1939 30.9138 15.1445 30.8574 15.1445 30.7447ZM33.3755 23.1543C32.8849 22.9526 32.3743 22.8038 31.8522 22.7104C31.3702 22.5998 30.8774 22.543 30.3829 22.5412C30.1154 22.534 29.8482 22.566 29.5899 22.6363C29.4255 22.6729 29.2794 22.7666 29.1776 22.9007C29.1088 23.0079 29.0721 23.1327 29.0721 23.2601C29.0759 23.3837 29.1204 23.5026 29.1988 23.5984C29.3223 23.7429 29.4733 23.8614 29.643 23.9473C29.9444 24.1096 30.255 24.2543 30.5732 24.3806C31.2827 24.6182 31.9607 24.9413 32.5922 25.3427C33.0223 25.6142 33.3783 25.9884 33.6283 26.4315C33.8383 26.8511 33.9435 27.3154 33.9348 27.7846C33.9475 28.4042 33.7705 29.0129 33.4273 29.5289C33.0603 30.0529 32.5502 30.4602 31.958 30.7023C31.2026 31.0054 30.3929 31.1494 29.5793 31.1253C28.9796 31.1314 28.3808 31.0746 27.7928 30.9561C27.3025 30.8698 26.8235 30.728 26.3653 30.5332C26.3191 30.5093 26.2807 30.4728 26.2545 30.4279C26.2283 30.3829 26.2154 30.3314 26.2175 30.2794V27.9961C26.2149 27.9737 26.2185 27.9511 26.2279 27.9306C26.2372 27.9101 26.2519 27.8925 26.2705 27.8798C26.2886 27.8695 26.3094 27.8651 26.3302 27.867C26.3509 27.8689 26.3706 27.877 26.3865 27.8904C26.9223 28.1892 27.4996 28.4065 28.0994 28.5352C28.6044 28.6618 29.1224 28.7292 29.643 28.7361C30.0158 28.7593 30.3888 28.6941 30.7317 28.5458C30.8368 28.4977 30.9256 28.4202 30.9876 28.3226C31.0495 28.2251 31.0817 28.1117 31.0805 27.9961C31.0715 27.8897 31.0383 27.7867 30.9834 27.695C30.9284 27.6034 30.8532 27.5256 30.7635 27.4675C30.3635 27.2054 29.9295 26.9991 29.4736 26.8544C28.8098 26.6233 28.1803 26.3032 27.6025 25.903C27.1892 25.6157 26.8489 25.2355 26.6089 24.793C26.4007 24.3765 26.2955 23.9161 26.302 23.4504C26.3009 22.891 26.4546 22.3422 26.7462 21.8648C27.0786 21.3389 27.5559 20.9203 28.1207 20.6595C28.7763 20.301 29.5131 20.1172 30.2602 20.1255C30.8544 20.0945 31.45 20.1031 32.0431 20.1514C32.5256 20.2496 32.9943 20.406 33.439 20.6172C33.4678 20.6254 33.4943 20.6402 33.5163 20.6604C33.5383 20.6806 33.555 20.7057 33.5658 20.7336C33.58 20.7852 33.5873 20.8385 33.587 20.892V23.0275C33.5885 23.0523 33.5833 23.0771 33.5723 23.0994C33.561 23.1216 33.5443 23.1406 33.5235 23.1543C33.5015 23.1683 33.4758 23.1758 33.4495 23.1758C33.4233 23.1758 33.3975 23.1683 33.3755 23.1543Z" fill="url(#paint1_linear_48_549)"/>
<defs>
<linearGradient id="paint0_linear_48_549" x1="24" y1="6" x2="24" y2="42" gradientUnits="userSpaceOnUse">
<stop stop-color="#31D0FE"/>
<stop offset="1" stop-color="#05BAF1"/>
</linearGradient>
<linearGradient id="paint1_linear_48_549" x1="24" y1="6" x2="24" y2="42" gradientUnits="userSpaceOnUse">
<stop stop-color="#31D0FE"/>
<stop offset="1" stop-color="#05BAF1"/>
</linearGradient>
</defs>
</svg>
