<svg width="48" height="48" viewBox="0 0 48 48" fill="none" xmlns="http://www.w3.org/2000/svg">
<path fill-rule="evenodd" clip-rule="evenodd" d="M11 6H37C38.6569 6 40 7.34315 40 9V39C40 40.6569 38.6569 42 37 42H11C9.34315 42 8 40.6569 8 39V9C8 7.34315 9.34315 6 11 6ZM35 24C35 19.7676 32.6097 16.0935 29.1053 14.254L29.2008 14.4748C29.7157 15.7144 30 17.074 30 18.5C30 22.2359 28.049 25.516 25.1091 27.377C26.1623 27.7795 27.3054 28 28.5 28C30.963 28 33.207 27.0627 34.895 25.5259C34.9642 25.0272 35 24.5178 35 24ZM34.5647 27.0725C32.8518 28.2865 30.7592 29 28.5 29C25.5631 29 22.9079 27.7943 21.0012 25.8501C21.0004 25.9 21 25.9499 21 26C21 29.8711 23.3154 33.2014 26.6378 34.6817C30.4481 33.7439 33.4772 30.8207 34.5647 27.0725ZM25.012 34.9534C22.0053 33.1065 20 29.7874 20 26C20 24.609 20.2705 23.2812 20.7623 22.066C17.5028 23.2475 15.0738 26.1621 14.5885 29.6973C16.5169 32.8761 20.0104 35 24 35C24.3414 35 24.6792 34.9844 25.012 34.9534ZM25.3031 20.5799C23.587 18.114 20.732 16.5 17.5 16.5C16.9257 16.5 16.3633 16.551 15.8166 16.6493C14.0655 18.5974 13 21.1743 13 24C13 25.5134 13.3056 26.9555 13.8591 28.2674C15.0617 23.7934 19.1463 20.5 24 20.5C24.4412 20.5 24.8761 20.5272 25.3031 20.5799ZM27.6529 13.6211C26.5099 13.2188 25.2805 13 24 13C21.3421 13 18.9044 13.9427 17.0032 15.5115C17.1678 15.5039 17.3335 15.5 17.5 15.5C22.3869 15.5 26.494 18.8385 27.6644 23.3601C28.5126 21.9382 29 20.276 29 18.5C29 16.7161 28.5083 15.047 27.6529 13.6211Z" fill="url(#paint0_linear_48_464)"/>
<defs>
<linearGradient id="paint0_linear_48_464" x1="24" y1="6" x2="24" y2="42" gradientUnits="userSpaceOnUse">
<stop stop-color="#31D0FE"/>
<stop offset="1" stop-color="#05BAF1"/>
</linearGradient>
</defs>
</svg>
