<svg width="24" height="24" viewBox="0 0 24 24" fill="none" xmlns="http://www.w3.org/2000/svg">
<path d="M10.1738 3.95577C11.5331 3.64822 12.9481 3.69001 14.2868 4.07724C15.6255 4.46447 16.8444 5.18452 17.8296 6.1702C17.8351 6.17574 17.8407 6.1812 17.8464 6.18656L21.1329 9.25H17C16.5858 9.25 16.25 9.58579 16.25 10C16.25 10.4142 16.5858 10.75 17 10.75H23C23.4142 10.75 23.75 10.4142 23.75 10V4C23.75 3.58579 23.4142 3.25 23 3.25C22.5858 3.25 22.25 3.58579 22.25 4V8.24074L18.882 5.10132C17.7192 3.94078 16.2819 3.09283 14.7036 2.63631C13.1215 2.17867 11.4492 2.12928 9.84278 2.49275C8.23639 2.85621 6.74824 3.62069 5.51722 4.71484C4.28619 5.80899 3.3524 7.19715 2.80297 8.7498C2.66479 9.14029 2.86932 9.56886 3.25981 9.70704C3.65029 9.84522 4.07886 9.64068 4.21704 9.2502C4.68194 7.93642 5.47207 6.76182 6.51371 5.836C7.55535 4.91018 8.81456 4.26331 10.1738 3.95577Z" fill="#303233"/>
<path d="M1.75 15.759V20C1.75 20.4142 1.41421 20.75 1 20.75C0.585786 20.75 0.25 20.4142 0.25 20V14C0.25 13.5858 0.585786 13.25 1 13.25H7C7.41421 13.25 7.75 13.5858 7.75 14C7.75 14.4142 7.41421 14.75 7 14.75H2.86739L6.15358 17.8134C6.15929 17.8188 6.16492 17.8243 6.17046 17.8298C7.15564 18.8155 8.37448 19.5355 9.71322 19.9228C11.0519 20.31 12.467 20.3518 13.8262 20.0442C15.1855 19.7367 16.4447 19.0898 17.4863 18.164C18.5279 17.2382 19.3181 16.0636 19.783 14.7498C19.9212 14.3593 20.3497 14.1548 20.7402 14.293C21.1307 14.4311 21.3352 14.8597 21.1971 15.2502C20.6476 16.8028 19.7138 18.191 18.4828 19.2852C17.2518 20.3793 15.7636 21.1438 14.1572 21.5072C12.5508 21.8707 10.8786 21.8213 9.29642 21.3637C7.71813 20.9072 6.28085 20.0592 5.11803 18.8987L1.75 15.759Z" fill="#303233"/>
</svg>
