<svg width="24" height="24" viewBox="0 0 24 24" fill="none" xmlns="http://www.w3.org/2000/svg">
<path fill-rule="evenodd" clip-rule="evenodd" d="M21.75 5C21.75 4.25749 21.2979 3.66949 20.757 3.24321C20.2076 2.81026 19.4591 2.45317 18.6011 2.16717C16.8773 1.59254 14.5435 1.25 12 1.25C9.45654 1.25 7.12274 1.59254 5.39887 2.16717C4.54085 2.45317 3.79239 2.81026 3.24303 3.24321C2.70213 3.66949 2.25 4.25749 2.25 5V19C2.25 19.7408 2.6974 20.329 3.23733 20.7569C3.78475 21.1907 4.53097 21.548 5.3875 21.8339C7.10832 22.4084 9.44243 22.75 12 22.75C14.5576 22.75 16.8917 22.4084 18.6125 21.8339C19.469 21.548 20.2153 21.1907 20.7627 20.7569C21.3026 20.329 21.75 19.7408 21.75 19V5ZM4.17149 4.42132C3.80155 4.71287 3.75 4.91409 3.75 5C3.75 5.08591 3.80155 5.28713 4.17149 5.57868C4.53298 5.86356 5.10255 6.15292 5.87321 6.40981C7.4067 6.92097 9.5729 7.25 12 7.25C14.4271 7.25 16.5933 6.92097 18.1268 6.40981C18.8975 6.15292 19.467 5.86356 19.8285 5.57868C20.1985 5.28713 20.25 5.08591 20.25 5C20.25 4.91409 20.1985 4.71287 19.8285 4.42132C19.467 4.13644 18.8975 3.84708 18.1268 3.59019C16.5933 3.07903 14.4271 2.75 12 2.75C9.5729 2.75 7.4067 3.07903 5.87321 3.59019C5.10255 3.84708 4.53298 4.13644 4.17149 4.42132ZM20.25 7.10311C19.7794 7.38436 19.2186 7.627 18.6011 7.83283C16.8773 8.40746 14.5435 8.75 12 8.75C9.45654 8.75 7.12274 8.40746 5.39887 7.83283C4.78138 7.627 4.22063 7.38436 3.75 7.10311V12C3.75 12.0892 3.8026 12.291 4.16892 12.5812C4.52775 12.8656 5.09403 13.1545 5.8625 13.4111C7.39168 13.9216 9.55757 14.25 12 14.25C14.4424 14.25 16.6083 13.9216 18.1375 13.4111C18.906 13.1545 19.4722 12.8656 19.8311 12.5812C20.1974 12.291 20.25 12.0892 20.25 12V7.10311ZM20.25 14.1082C19.7823 14.3879 19.2257 14.6292 18.6125 14.8339C16.8917 15.4084 14.5576 15.75 12 15.75C9.44243 15.75 7.10832 15.4084 5.3875 14.8339C4.77431 14.6292 4.21765 14.3879 3.75 14.1082V19C3.75 19.0892 3.8026 19.291 4.16892 19.5812C4.52775 19.8656 5.09403 20.1545 5.8625 20.4111C7.39168 20.9216 9.55757 21.25 12 21.25C14.4424 21.25 16.6083 20.9216 18.1375 20.4111C18.906 20.1545 19.4722 19.8656 19.8311 19.5812C20.1974 19.291 20.25 19.0892 20.25 19V14.1082Z" fill="#303233"/>
</svg>
