<svg width="24" height="24" viewBox="0 0 24 24" fill="none" xmlns="http://www.w3.org/2000/svg">
<path fill-rule="evenodd" clip-rule="evenodd" d="M12.0025 22.75C17.9384 22.7487 22.75 17.9362 22.75 12C22.75 6.06294 17.9371 1.25 12 1.25C6.06294 1.25 1.25 6.06294 1.25 12C1.25 17.9362 6.0616 22.7487 11.9975 22.75H12.0025ZM10.296 2.90662C6.24091 3.66174 3.11597 7.06245 2.77997 11.25H7.28229C7.48347 8.23408 8.53193 5.34326 10.296 2.90662ZM13.704 2.90662C15.4681 5.34326 16.5165 8.23408 16.7177 11.25H21.22C20.884 7.06245 17.7591 3.66174 13.704 2.90662ZM15.214 11.25C14.9957 8.28426 13.8734 5.45652 12 3.14873C10.1266 5.45652 9.00431 8.28426 8.78597 11.25H15.214ZM8.78597 12.75H15.214C14.9957 15.7157 13.8734 18.5435 12 20.8513C10.1266 18.5435 9.00431 15.7157 8.78597 12.75ZM7.28229 12.75H2.77997C3.11597 16.9375 6.2409 20.3383 10.296 21.0934C8.53193 18.6567 7.48347 15.7659 7.28229 12.75ZM13.704 21.0934C15.4681 18.6567 16.5165 15.7659 16.7177 12.75H21.22C20.884 16.9375 17.7591 20.3383 13.704 21.0934Z" fill="#303233"/>
</svg>
