<svg width="24" height="24" viewBox="0 0 24 24" fill="none" xmlns="http://www.w3.org/2000/svg">
<path fill-rule="evenodd" clip-rule="evenodd" d="M7.22705 3.22703C8.49292 1.96116 10.2098 1.25 12 1.25C13.7902 1.25 15.5071 1.96116 16.773 3.22703C18.0389 4.4929 18.75 6.20979 18.75 8C18.75 10.9571 19.4939 12.9344 20.2871 14.2092L20.2961 14.2235C20.6558 14.8016 20.9365 15.2528 21.1248 15.5795C21.2191 15.7431 21.3012 15.8943 21.3605 16.0248C21.3901 16.09 21.4211 16.1653 21.4447 16.2446C21.4647 16.3119 21.4991 16.4441 21.4862 16.6019C21.4759 16.7273 21.4517 16.9183 21.3436 17.1129C21.2355 17.3075 21.0861 17.429 20.9851 17.5039C20.7861 17.6516 20.5511 17.6868 20.4593 17.7004C20.3254 17.7202 20.1688 17.7307 20.0028 17.7371C19.6724 17.75 19.2123 17.75 18.6304 17.75H5.36968C4.78771 17.75 4.32759 17.75 3.99728 17.7371C3.83126 17.7307 3.67466 17.7202 3.54074 17.7004C3.44898 17.6868 3.21397 17.6516 3.01497 17.5039C2.91392 17.429 2.76453 17.3075 2.65645 17.1129C2.54836 16.9183 2.5241 16.7273 2.51384 16.6019C2.50094 16.4441 2.5353 16.3119 2.55533 16.2446C2.57895 16.1653 2.60993 16.09 2.63953 16.0248C2.6988 15.8943 2.7809 15.7431 2.87521 15.5795C3.06351 15.2528 3.34417 14.8017 3.7038 14.2238L3.7129 14.2092C4.50613 12.9344 5.25002 10.9571 5.25002 8C5.25002 6.20979 5.96118 4.4929 7.22705 3.22703ZM12 2.75C10.6076 2.75 9.27228 3.30312 8.28771 4.28769C7.30314 5.27226 6.75002 6.60761 6.75002 8C6.75002 11.2233 5.93485 13.4775 4.98647 15.0016C4.64947 15.5432 4.39805 15.9475 4.22437 16.2434C4.50921 16.2499 4.88963 16.25 5.38888 16.25H18.6112C19.1104 16.25 19.4908 16.2499 19.7757 16.2434C19.602 15.9475 19.3506 15.5432 19.0136 15.0017C18.0652 13.4775 17.25 11.2233 17.25 8C17.25 6.60761 16.6969 5.27225 15.7123 4.28769C14.7278 3.30312 13.3924 2.75 12 2.75ZM8.79189 20.5037C9.06599 20.1931 9.53994 20.1636 9.8505 20.4377C10.4239 20.9438 11.1753 21.25 12 21.25C12.8248 21.25 13.5762 20.9438 14.1495 20.4377C14.4601 20.1636 14.9341 20.1931 15.2081 20.5037C15.4822 20.8143 15.4527 21.2882 15.1421 21.5623C14.3053 22.301 13.2042 22.75 12 22.75C10.7959 22.75 9.69479 22.301 8.8579 21.5623C8.54734 21.2882 8.51779 20.8143 8.79189 20.5037Z" fill="#303233"/>
</svg>
