<svg width="48" height="48" viewBox="0 0 48 48" fill="none" xmlns="http://www.w3.org/2000/svg">
<path fill-rule="evenodd" clip-rule="evenodd" d="M11 6H37C38.6569 6 40 7.34315 40 9V39C40 40.6569 38.6569 42 37 42H11C9.34315 42 8 40.6569 8 39V9C8 7.34315 9.34315 6 11 6ZM18 12H14V16H18V12ZM26 12H19V16H26V12ZM27 12H34V16H27V12ZM26 17H19V21H26V17ZM14 17H18V21H14V17ZM26 22H19V26H26V22ZM27 17H34V21H27V17ZM26 27H19V31H26V27ZM14 22H18V26H14V22ZM26 32H19V36H26V32ZM27 22H34V26H27V22ZM18 27H14V31H18V27ZM27 27H34V31H27V27ZM18 32H14V36H18V32ZM27 32H34V36H27V32Z" fill="url(#paint0_linear_48_402)"/>
<defs>
<linearGradient id="paint0_linear_48_402" x1="24" y1="6" x2="24" y2="42" gradientUnits="userSpaceOnUse">
<stop stop-color="#29DD74"/>
<stop offset="1" stop-color="#09BF5B"/>
</linearGradient>
</defs>
</svg>
