<svg width="16" height="16" viewBox="0 0 16 16" fill="none" xmlns="http://www.w3.org/2000/svg">
<g clip-path="url(#clip0_3829_5282)">
<path d="M11 0.25C11.4142 0.25 11.75 0.585786 11.75 1V2.25H13C13.4142 2.25 13.75 2.58579 13.75 3C13.75 3.41421 13.4142 3.75 13 3.75H11.75V5C11.75 5.41421 11.4142 5.75 11 5.75C10.5858 5.75 10.25 5.41421 10.25 5V3.75H9C8.58579 3.75 8.25 3.41421 8.25 3C8.25 2.58579 8.58579 2.25 9 2.25H10.25V1C10.25 0.585786 10.5858 0.25 11 0.25Z" fill="white"/>
<path fill-rule="evenodd" clip-rule="evenodd" d="M5.53406 4.18054C5.85841 3.27237 7.14276 3.27237 7.46711 4.18054L8.61262 7.38797L11.82 8.53347C12.7282 8.85782 12.7282 10.1422 11.82 10.4665L8.61262 11.612L7.46711 14.8195C7.14277 15.7276 5.85841 15.7276 5.53406 14.8195L4.38855 11.612L1.18113 10.4665C0.27296 10.1422 0.272954 8.85782 1.18113 8.53348L4.38855 7.38797L5.53406 4.18054ZM7.64819 7.73902L6.50059 4.52573L5.35298 7.73902C5.25081 8.02509 5.02568 8.25023 4.73961 8.35239L1.52632 9.5L4.73961 10.6476C5.02568 10.7498 5.25081 10.9749 5.35298 11.261L6.50059 14.4743L7.64819 11.261C7.75036 10.9749 7.97549 10.7498 8.26156 10.6476L11.4749 9.5L8.26156 8.35239C7.97549 8.25023 7.75036 8.02509 7.64819 7.73902Z" fill="white"/>
<path d="M14.75 5C14.75 4.58579 14.4142 4.25 14 4.25C13.5858 4.25 13.25 4.58579 13.25 5V5.25H13C12.5858 5.25 12.25 5.58579 12.25 6C12.25 6.41421 12.5858 6.75 13 6.75H13.25V7C13.25 7.41421 13.5858 7.75 14 7.75C14.4142 7.75 14.75 7.41421 14.75 7V6.75H15C15.4142 6.75 15.75 6.41421 15.75 6C15.75 5.58579 15.4142 5.25 15 5.25H14.75V5Z" fill="white"/>
</g>
<defs>
<clipPath id="clip0_3829_5282">
<rect width="16" height="16" fill="white"/>
</clipPath>
</defs>
</svg>
