<svg height="22" viewBox="0 0 22 22" width="22" xmlns="http://www.w3.org/2000/svg" xmlns:xlink="http://www.w3.org/1999/xlink"><linearGradient id="a" gradientUnits="userSpaceOnUse" x1="10" x2="10" y2="20"><stop offset="0" stop-color="#ff1a21"/><stop offset="1" stop-color="#d90007"/></linearGradient><g fill-rule="evenodd"><path d="m10 16.5a6.493 6.493 0 0 1 10-5.472c0-.009 0-.018 0-.028a10.064 10.064 0 1 0 -8.321 9.848 6.467 6.467 0 0 1 -1.679-4.348zm.419-3.3 2.666-2.7a.037.037 0 0 1 .063.027v.41a6.444 6.444 0 0 1 1.852-.756v-2.631a.3.3 0 0 0 -.3-.3h-.862a.589.589 0 0 0 -.419.176l-3.319 3.355a.146.146 0 0 1 -.209 0l-3.31-3.355a.589.589 0 0 0 -.419-.176h-.862a.3.3 0 0 0 -.3.3v6.9a.3.3 0 0 0 .3.3h1.256a.3.3 0 0 0 .3-.3v-3.922a.037.037 0 0 1 .059-.028l2.666 2.7a.587.587 0 0 0 .838 0z" fill="url(#a)"/><path d="m10.419 13.2 2.666-2.7a.037.037 0 0 1 .063.027v.41a6.444 6.444 0 0 1 1.852-.756v-2.631a.3.3 0 0 0 -.3-.3h-.862a.589.589 0 0 0 -.419.176l-3.319 3.355a.146.146 0 0 1 -.209 0l-3.31-3.355a.589.589 0 0 0 -.419-.176h-.862a.3.3 0 0 0 -.3.3v6.9a.3.3 0 0 0 .3.3h1.256a.3.3 0 0 0 .3-.3v-3.922a.037.037 0 0 1 .059-.028l2.666 2.7a.587.587 0 0 0 .838 0z" fill="#fff"/><path d="m16.5 18.833a2.3 2.3 0 0 1 -1.644-.689l1.061-1.061h-2.917v2.917l1.034-1.033a3.454 3.454 0 0 0 2.466 1.033 3.489 3.489 0 0 0 3.45-3h-1.173a2.331 2.331 0 0 1 -2.277 1.833zm2.466-4.8a3.446 3.446 0 0 0 -2.466-1.033 3.49 3.49 0 0 0 -3.45 3h1.173a2.332 2.332 0 0 1 2.277-1.833 2.3 2.3 0 0 1 1.643.689l-1.059 1.061h2.916v-2.917z" fill="#fff"/><path d="m16.5 11a5.5 5.5 0 1 0 5.5 5.5 5.5 5.5 0 0 0 -5.5-5.5zm0 9a3.454 3.454 0 0 1 -2.466-1.033l-1.034 1.033v-2.917h2.917l-1.061 1.061a2.3 2.3 0 0 0 1.644.689 2.331 2.331 0 0 0 2.277-1.833h1.173a3.489 3.489 0 0 1 -3.45 3zm3.5-4.083h-2.917l1.06-1.061a2.3 2.3 0 0 0 -1.643-.689 2.332 2.332 0 0 0 -2.277 1.833h-1.173a3.49 3.49 0 0 1 3.45-3 3.446 3.446 0 0 1 2.466 1.034l1.034-1.034z" opacity=".7"/></g></svg>