<svg xmlns="http://www.w3.org/2000/svg" xmlns:xlink="http://www.w3.org/1999/xlink" width="22" height="22" viewBox="0 0 22 22">
  <metadata><?xpacket begin="﻿" id="W5M0MpCehiHzreSzNTczkc9d"?>
<x:xmpmeta xmlns:x="adobe:ns:meta/" x:xmptk="Adobe XMP Core 5.6-c138 79.159824, 2016/09/14-01:09:01        ">
   <rdf:RDF xmlns:rdf="http://www.w3.org/1999/02/22-rdf-syntax-ns#">
      <rdf:Description rdf:about=""/>
   </rdf:RDF>
</x:xmpmeta><?xpacket end="w"?></metadata>
<defs>
     <linearGradient id="linear-gradient" x1="10" x2="10" y2="20" gradientUnits="userSpaceOnUse">
      <stop offset="0" stop-color="#DFDBD2"/>
      <stop offset="1" stop-color="#DFDBD2"/>
    </linearGradient>    
  </defs>
 
  <path id="O1" style="fill-rule: evenodd;" fill="url(#linear-gradient)" d="M10,16.5a6.493,6.493,0,0,1,10-5.472c0-.009,0-0.018,0-0.028a10.064,10.064,0,1,0-8.321,9.848A6.467,6.467,0,0,1,10,16.5Zm0.419-3.3,2.666-2.7a0.037,0.037,0,0,1,.063 .027v0.41A6.444,6.444,0,0,1,15,10.181V7.55a0.3,0.3,0,0,0-.3-0.3H13.838a0.589,0.589,0,0,0-.419 .176L10.1,10.781a0.146,0.146,0,0,1-.209,0L6.581,7.426A0.589,0.589,0,0,0,6.162,7.25H5.3a0.3,0.3,0,0,0-.3 .3v6.9a0.3,0.3,0,0,0,.3 .3H6.556a0.3,0.3,0,0,0,.3-0.3V10.528A0.037,0.037,0,0,1,6.915,10.5l2.666,2.7A0.587,0.587,0,0,0,10.419,13.2Z"/>
  <path id="M" style="opacity:0.0;fill-rule: evenodd;" d="M10.419,13.2l2.666-2.7a0.037,0.037,0,0,1,.063 .027v0.41A6.444,6.444,0,0,1,15,10.181V7.55a0.3,0.3,0,0,0-.3-0.3H13.838a0.589,0.589,0,0,0-.419 .176L10.1,10.781a0.146,0.146,0,0,1-.209,0L6.581,7.426A0.589,0.589,0,0,0,6.162,7.25H5.3a0.3,0.3,0,0,0-.3 .3v6.9a0.3,0.3,0,0,0,.3 .3H6.556a0.3,0.3,0,0,0,.3-0.3V10.528A0.037,0.037,0,0,1,6.915,10.5l2.666,2.7A0.587,0.587,0,0,0,10.419,13.2Z"/>
  <path id="O2" style="opacity:0.0;fill-rule:evenodd;" d="M16.5,18.833a2.3,2.3,0,0,1-1.644-.689l1.061-1.061H13V20l1.034-1.033A3.454,3.454,0,0,0,16.5,20a3.489,3.489,0,0,0,3.45-3H18.777A2.331,2.331,0,0,1,16.5,18.833Zm2.466-4.8A3.446,3.446,0,0,0,16.5,13a3.49,3.49,0,0,0-3.45,3h1.173A2.332,2.332,0,0,1,16.5,14.167a2.3,2.3,0,0,1,1.643 .689l-1.059,1.061H20V13Z"/>
  <path style="opacity:1;fill:#DFDBD2;fill-rule:evenodd;" d="M16.5,11A5.5,5.5,0,1,0,22,16.5,5.5,5.5,0,0,0,16.5,11Zm0,9a3.454,3.454,0,0,1-2.466-1.033L13,20V17.083h2.917l-1.061,1.061a2.3,2.3,0,0,0,1.644 .689A2.331,2.331,0,0,0,18.777,17H19.95A3.489,3.489,0,0,1,16.5,20ZM20,15.917H17.083l1.06-1.061a2.3,2.3,0,0,0-1.643-.689A2.332,2.332,0,0,0,14.223,16H13.05a3.49,3.49,0,0,1,3.45-3,3.446,3.446,0,0,1,2.466,1.034L20,13v2.917Z"/>
</svg>
