<svg width="48" height="48" viewBox="0 0 48 48" fill="none" xmlns="http://www.w3.org/2000/svg">
<path fill-rule="evenodd" clip-rule="evenodd" d="M11 6H37C38.6569 6 40 7.34315 40 9V39C40 40.6569 38.6569 42 37 42H11C9.34315 42 8 40.6569 8 39V9C8 7.34315 9.34315 6 11 6ZM16 12H17V14H35V15H17V18H35V19H17V22H35V23H17V26H35V27H17V30H35V31H17V34H35V35H17V37H16V35H13V34H16V31H13V30H16V27H13V26H16V23H13V22H16V19H13V18H16V15H13V14H16V12Z" fill="url(#paint0_linear_48_355)"/>
<defs>
<linearGradient id="paint0_linear_48_355" x1="24" y1="6" x2="24" y2="42" gradientUnits="userSpaceOnUse">
<stop stop-color="#888D95"/>
<stop offset="1" stop-color="#6E747D"/>
</linearGradient>
</defs>
</svg>
