<svg width="48" height="48" viewBox="0 0 48 48" fill="none" xmlns="http://www.w3.org/2000/svg">
<path fill-rule="evenodd" clip-rule="evenodd" d="M11 6H37C38.6569 6 40 7.34315 40 9V39C40 40.6569 38.6569 42 37 42H11C9.34315 42 8 40.6569 8 39V9C8 7.34315 9.34315 6 11 6ZM17.9954 17L13.7024 21.293C13.3124 21.684 13.3124 22.317 13.7024 22.707L13.7884 22.793C14.1794 23.184 14.8124 23.184 15.2024 22.793L16.9954 21V30C16.9954 30.552 17.4434 31 17.9954 31C18.5474 31 18.9954 30.552 18.9954 30V21L20.7884 22.793C21.1794 23.184 21.8124 23.184 22.2024 22.793L22.2884 22.707C22.6794 22.317 22.6794 21.684 22.2884 21.293L17.9954 17ZM29.9954 31L25.7024 26.707C25.3124 26.316 25.3124 25.683 25.7024 25.293L25.7884 25.207C26.1794 24.816 26.8124 24.816 27.2024 25.207L28.9954 27V18C28.9954 17.448 29.4434 17 29.9954 17C30.5474 17 30.9954 17.448 30.9954 18V27L32.7884 25.207C33.1794 24.816 33.8124 24.816 34.2024 25.207L34.2884 25.293C34.6794 25.683 34.6794 26.316 34.2884 26.707L29.9954 31Z" fill="url(#paint0_linear_48_322)"/>
<defs>
<linearGradient id="paint0_linear_48_322" x1="24" y1="6" x2="24" y2="42" gradientUnits="userSpaceOnUse">
<stop stop-color="#29DD74"/>
<stop offset="1" stop-color="#09BF5B"/>
</linearGradient>
</defs>
</svg>
