<?xml version="1.0" encoding="UTF-8"?>
<svg width="23px" height="22px" viewBox="0 0 23 22" version="1.1" xmlns="http://www.w3.org/2000/svg" xmlns:xlink="http://www.w3.org/1999/xlink">
    <!-- Generator: Sketch 63.1 (92452) - https://sketch.com -->
    <title>warning</title>
    <desc>Created with Sketch.</desc>
    <defs>
        <linearGradient x1="50.3171683%" y1="-4.32981455%" x2="50.3171683%" y2="95.0293379%" id="linearGradient-1">
            <stop stop-color="#FF1A21" offset="0%"></stop>
            <stop stop-color="#D90007" offset="100%"></stop>
        </linearGradient>
    </defs>
    <g id="warning" stroke="none" stroke-width="1" fill="none" fill-rule="evenodd">
        <path d="M11,16.5 C10.9972294,14.1243401 12.2920974,11.9368294 14.3761491,10.7964363 C16.4602008,9.65604319 19.0006729,9.74485575 21,11.028 C21,11.019 21,11.01 21,11 C21.0269189,6.76378293 18.3981619,2.9642541 14.4244676,1.49591708 C10.4507734,0.027580067 5.9830192,1.20484625 3.24889616,4.44071257 C0.514773115,7.6765789 0.0997322026,12.2781573 2.21071921,15.95103 C4.32170621,19.6239026 8.50670071,21.5816064 12.679,20.848 C11.5983487,19.6577407 10.9997725,18.1076456 11,16.5 L11,16.5 Z M11.419,13.2 L14.085,10.5 C14.0957046,10.4894225 14.1117491,10.4863823 14.1255813,10.4923103 C14.1394134,10.4982384 14.1482771,10.5119536 14.148,10.527 L14.148,10.937 C14.7222183,10.5901352 15.3470785,10.3350627 16,10.181 L16,7.55 C16,7.38431458 15.8656854,7.25 15.7,7.25 L14.838,7.25 C14.6804126,7.25025246 14.5294984,7.31364364 14.419,7.426 L11.1,10.781 C11.0725237,10.809161 11.0348445,10.8250404 10.9955,10.8250404 C10.9561555,10.8250404 10.9184763,10.809161 10.891,10.781 L7.581,7.426 C7.47050161,7.31364364 7.31958738,7.25025246 7.162,7.25 L6.3,7.25 C6.13431458,7.25 6,7.38431458 6,7.55 L6,14.45 C6,14.6156854 6.13431458,14.75 6.3,14.75 L7.556,14.75 C7.63556495,14.75 7.71187112,14.7183929 7.76813203,14.662132 C7.82439295,14.6058711 7.856,14.5295649 7.856,14.45 L7.856,10.528 C7.8566352,10.5143453 7.86474716,10.5021533 7.87709649,10.4962926 C7.88944581,10.4904319 7.90402035,10.4918575 7.915,10.5 L10.581,13.2 C10.6913874,13.3125071 10.8423827,13.3758942 11,13.3758942 C11.1576173,13.3758942 11.3086126,13.3125071 11.419,13.2 L11.419,13.2 Z" id="O1" fill="url(#linearGradient-1)"></path>
        <path d="M11.419,13.2 L14.085,10.5 C14.0957046,10.4894225 14.1117491,10.4863823 14.1255813,10.4923103 C14.1394134,10.4982384 14.1482771,10.5119536 14.148,10.527 L14.148,10.937 C14.7222183,10.5901352 15.3470785,10.3350627 16,10.181 L16,7.55 C16,7.38431458 15.8656854,7.25 15.7,7.25 L14.838,7.25 C14.6804126,7.25025246 14.5294984,7.31364364 14.419,7.426 L11.1,10.781 C11.0725237,10.809161 11.0348445,10.8250404 10.9955,10.8250404 C10.9561555,10.8250404 10.9184763,10.809161 10.891,10.781 L7.581,7.426 C7.47050161,7.31364364 7.31958738,7.25025246 7.162,7.25 L6.3,7.25 C6.13431458,7.25 6,7.38431458 6,7.55 L6,14.45 C6,14.6156854 6.13431458,14.75 6.3,14.75 L7.556,14.75 C7.63556495,14.75 7.71187112,14.7183929 7.76813203,14.662132 C7.82439295,14.6058711 7.856,14.5295649 7.856,14.45 L7.856,10.528 C7.8566352,10.5143453 7.86474716,10.5021533 7.87709649,10.4962926 C7.88944581,10.4904319 7.90402035,10.4918575 7.915,10.5 L10.581,13.2 C10.6913874,13.3125071 10.8423827,13.3758942 11,13.3758942 C11.1576173,13.3758942 11.3086126,13.3125071 11.419,13.2 L11.419,13.2 Z" id="M" fill="#FFFFFF"></path>
        <path d="M12,16.5 C12,19.5375661 14.4624339,22 17.5,22 C20.5375661,22 23,19.5375661 23,16.5 C23,13.4624339 20.5375661,11 17.5,11 C14.4624339,11 12,13.4624339 12,16.5 Z" id="O2" fill="#000000" fill-rule="nonzero" opacity="0.7"></path>
        <path d="M17.9914944,19.0007323 L18.0086501,19.9991406 L17.0258057,20.0165678 L17.0086501,19.0181595 L17.9914944,19.0007323 Z M18,13 L18,18 L17,18 L17,13 L18,13 Z" id="Combined-Shape" fill="#FFFFFF"></path>
    </g>
</svg>