<svg height="22" viewBox="0 0 22 22" width="22" xmlns="http://www.w3.org/2000/svg" xmlns:xlink="http://www.w3.org/1999/xlink"><linearGradient id="a" gradientUnits="userSpaceOnUse" x1="10" x2="10" y2="20"><stop offset="0" stop-color="#ff1a21"/><stop offset="1" stop-color="#d90007"/></linearGradient><circle cx="10" cy="11" fill="url(#a)" r="10"/><path d="m15 14.45a.3.3 0 0 1 -.3.3h-1.256a.3.3 0 0 1 -.3-.3v-3.922a.037.037 0 0 0 -.063-.027l-2.666 2.7a.587.587 0 0 1 -.838 0l-2.662-2.701a.037.037 0 0 0 -.063.027v3.923a.3.3 0 0 1 -.3.3h-1.252a.3.3 0 0 1 -.3-.3v-6.9a.3.3 0 0 1 .3-.3h.862a.589.589 0 0 1 .419.176l3.319 3.355a.147.147 0 0 0 .21 0l3.314-3.356a.589.589 0 0 1 .419-.176h.857a.3.3 0 0 1 .3.3v6.9z" fill="#fff" fill-rule="evenodd"/></svg>