<svg width="48" height="48" viewBox="0 0 48 48" fill="none" xmlns="http://www.w3.org/2000/svg">
<path d="M21.5 24C22.3284 24 23 23.3284 23 22.5C23 21.6716 22.3284 21 21.5 21C20.6716 21 20 21.6716 20 22.5C20 23.3284 20.6716 24 21.5 24Z" fill="url(#paint0_linear_48_201)"/>
<path fill-rule="evenodd" clip-rule="evenodd" d="M11 6H37C38.6569 6 40 7.34315 40 9V39C40 40.6569 38.6569 42 37 42H11C9.34315 42 8 40.6569 8 39V9C8 7.34315 9.34315 6 11 6ZM26.4646 18.2425C30.1331 15.8945 34.407 14.4093 38.9999 14.073L38.9999 15.0758C33.1887 15.5179 27.9115 17.8703 23.7948 21.5065C23.9268 21.811 24 22.147 24 22.5C24 23.8807 22.8807 25 21.5 25C21.1932 25 20.8994 24.9447 20.6278 24.8436C17.1046 29.2803 15 34.8944 15 41H14C14 35.6485 15.5569 30.6606 18.2425 26.4646L13.9661 30.741C13.9882 30.8236 14 30.9104 14 31C14 31.5523 13.5523 32 13 32C12.4477 32 12 31.5523 12 31C12 30.4477 12.4477 30 13 30C13.0896 30 13.1764 30.0118 13.259 30.0339L19.4142 23.8787C19.1524 23.4835 19 23.0095 19 22.5C19 21.1193 20.1193 20 21.5 20C22.0095 20 22.4835 20.1524 22.8787 20.4142L29.0339 14.259C29.0118 14.1764 29 14.0896 29 14C29 13.4477 29.4477 13 30 13C30.5523 13 31 13.4477 31 14C31 14.5523 30.5523 15 30 15C29.9104 15 29.8236 14.9882 29.741 14.9661L26.4646 18.2425Z" fill="url(#paint1_linear_48_201)"/>
<defs>
<linearGradient id="paint0_linear_48_201" x1="24" y1="6" x2="24" y2="42" gradientUnits="userSpaceOnUse">
<stop stop-color="#FDC121"/>
<stop offset="1" stop-color="#F7A308"/>
</linearGradient>
<linearGradient id="paint1_linear_48_201" x1="24" y1="6" x2="24" y2="42" gradientUnits="userSpaceOnUse">
<stop stop-color="#FDC121"/>
<stop offset="1" stop-color="#F7A308"/>
</linearGradient>
</defs>
</svg>
