<svg height="22" viewBox="0 0 22 22" width="22" xmlns="http://www.w3.org/2000/svg" xmlns:xlink="http://www.w3.org/1999/xlink"><linearGradient id="a" gradientUnits="userSpaceOnUse" x1="10" x2="10" y2="20"><stop offset="0" stop-color="#ff1a21"/><stop offset="1" stop-color="#d90007"/></linearGradient><g fill-rule="evenodd"><path d="m10 16.5a6.493 6.493 0 0 1 10-5.472c0-.009 0-.018 0-.028a10.064 10.064 0 1 0 -8.321 9.848 6.467 6.467 0 0 1 -1.679-4.348zm.419-3.3 2.666-2.7a.037.037 0 0 1 .063.027v.41a6.444 6.444 0 0 1 1.852-.756v-2.631a.3.3 0 0 0 -.3-.3h-.862a.589.589 0 0 0 -.419.176l-3.319 3.355a.146.146 0 0 1 -.209 0l-3.31-3.355a.589.589 0 0 0 -.419-.176h-.862a.3.3 0 0 0 -.3.3v6.9a.3.3 0 0 0 .3.3h1.256a.3.3 0 0 0 .3-.3v-3.922a.037.037 0 0 1 .059-.028l2.666 2.7a.587.587 0 0 0 .838 0z" fill="url(#a)"/><path d="m10.419 13.2 2.666-2.7a.037.037 0 0 1 .063.027v.41a6.444 6.444 0 0 1 1.852-.756v-2.631a.3.3 0 0 0 -.3-.3h-.862a.589.589 0 0 0 -.419.176l-3.319 3.355a.146.146 0 0 1 -.209 0l-3.31-3.355a.589.589 0 0 0 -.419-.176h-.862a.3.3 0 0 0 -.3.3v6.9a.3.3 0 0 0 .3.3h1.256a.3.3 0 0 0 .3-.3v-3.922a.037.037 0 0 1 .059-.028l2.666 2.7a.587.587 0 0 0 .838 0z" fill="#fff"/><path d="m11 16.5a5.5 5.5 0 1 0 5.5-5.5 5.5 5.5 0 0 0 -5.5 5.5z" opacity=".7"/><path d="m17.207 16.5 2.146-2.146a.5.5 0 0 0 -.707-.707l-2.146 2.146-2.146-2.146a.5.5 0 0 0 -.707.707l2.146 2.146-2.146 2.146a.5.5 0 1 0 .707.707l2.146-2.146 2.146 2.146a.5.5 0 0 0 .707-.707z" fill="#fff"/></g></svg>