<svg xmlns="http://www.w3.org/2000/svg" xmlns:xlink="http://www.w3.org/1999/xlink" width="22" height="22" viewBox="0 0 22 22">
  <metadata><?xpacket begin="﻿" id="W5M0MpCehiHzreSzNTczkc9d"?>
<x:xmpmeta xmlns:x="adobe:ns:meta/" x:xmptk="Adobe XMP Core 5.6-c138 79.159824, 2016/09/14-01:09:01        ">
   <rdf:RDF xmlns:rdf="http://www.w3.org/1999/02/22-rdf-syntax-ns#">
      <rdf:Description rdf:about=""/>
   </rdf:RDF>
</x:xmpmeta>
<?xpacket end="w"?></metadata>
  <path id="O1" style="fill-rule: evenodd;" fill="#777"  d="M10,16.5a6.493,6.493,0,0,1,10-5.472c0-.009,0-0.018,0-0.028a10.064,10.064,0,1,0-8.321,9.848A6.467,6.467,0,0,1,10,16.5Zm0.419-3.3,2.666-2.7a0.037,0.037,0,0,1,.063 .027v0.41A6.444,6.444,0,0,1,15,10.181V7.55a0.3,0.3,0,0,0-.3-0.3H13.838a0.589,0.589,0,0,0-.419 .176L10.1,10.781a0.146,0.146,0,0,1-.209,0L6.581,7.426A0.589,0.589,0,0,0,6.162,7.25H5.3a0.3,0.3,0,0,0-.3 .3v6.9a0.3,0.3,0,0,0,.3 .3H6.556a0.3,0.3,0,0,0,.3-0.3V10.528A0.037,0.037,0,0,1,6.915,10.5l2.666,2.7A0.587,0.587,0,0,0,10.419,13.2Z"/>
  <path id="M" style="opacity:0.0;fill-rule: evenodd;" d="M10.419,13.2l2.666-2.7a0.037,0.037,0,0,1,.063 .027v0.41A6.444,6.444,0,0,1,15,10.181V7.55a0.3,0.3,0,0,0-.3-0.3H13.838a0.589,0.589,0,0,0-.419 .176L10.1,10.781a0.146,0.146,0,0,1-.209,0L6.581,7.426A0.589,0.589,0,0,0,6.162,7.25H5.3a0.3,0.3,0,0,0-.3 .3v6.9a0.3,0.3,0,0,0,.3 .3H6.556a0.3,0.3,0,0,0,.3-0.3V10.528A0.037,0.037,0,0,1,6.915,10.5l2.666,2.7A0.587,0.587,0,0,0,10.419,13.2Z"/>
  <path id="O2" style="fill: #DFDBD2;fill-rule: evenodd;" d="M11,16.5A5.5,5.5,0,1,0,16.5,11,5.5,5.5,0,0,0,11,16.5Z M17.207,16.5l2.146-2.146a0.5,0.5,0,0,0-.707-0.707L16.5,15.793l-2.146-2.146a0.5,0.5,0,0,0-.707 .707L15.793,16.5l-2.146,2.146a0.5,0.5,0,1,0,.707 .707L16.5,17.207l2.146,2.146a0.5,0.5,0,0,0,.707-0.707Z"/>
</svg>

