<svg width="24" height="24" viewBox="0 0 24 24" fill="none" xmlns="http://www.w3.org/2000/svg">
<path fill-rule="evenodd" clip-rule="evenodd" d="M3 5C3 3.34315 4.34315 2 6 2H18C19.6569 2 21 3.34315 21 5V19C21 20.6569 19.6569 22 18 22H6C4.34315 22 3 20.6569 3 19V5ZM9.64652 8.64645C9.84178 8.45118 10.1584 8.45118 10.3536 8.64645C10.5272 8.82001 10.5465 9.08944 10.4115 9.2843L10.3536 9.35355L7.70708 12L10.3536 14.6464C10.5272 14.82 10.5465 15.0894 10.4115 15.2843L10.3536 15.3536C10.1801 15.5271 9.91064 15.5464 9.71577 15.4114L9.64652 15.3536L6.29297 12L9.64652 8.64645ZM13.4393 8.64645C13.6346 8.45118 13.9512 8.45118 14.1464 8.64645L17.5 12L14.1464 15.3536L14.0772 15.4114C13.8823 15.5464 13.6129 15.5271 13.4393 15.3536L13.3815 15.2843C13.2465 15.0894 13.2658 14.82 13.4393 14.6464L16.0859 12L13.4393 9.35355L13.3815 9.2843C13.2465 9.08944 13.2658 8.82001 13.4393 8.64645Z" fill="url(#paint0_linear_48_63)"/>
<defs>
<linearGradient id="paint0_linear_48_63" x1="12" y1="2" x2="12" y2="22" gradientUnits="userSpaceOnUse">
<stop stop-color="#FD853A"/>
<stop offset="1" stop-color="#FB6514"/>
</linearGradient>
</defs>
</svg>
