<svg width="24" height="24" viewBox="0 0 24 24" fill="none" xmlns="http://www.w3.org/2000/svg">
<path fill-rule="evenodd" clip-rule="evenodd" d="M6 2C4.34315 2 3 3.34315 3 5V19C3 20.6569 4.34315 22 6 22H18C19.6569 22 21 20.6569 21 19V5C21 3.34315 19.6569 2 18 2H6ZM6 11.5C5.72386 11.5 5.5 11.7239 5.5 12C5.5 12.2761 5.72386 12.5 6 12.5L6.50135 12.5C7.32916 12.5007 8 13.172 8 14V14.5C8 15.8807 9.11929 17 10.5 17V16C9.67157 16 9 15.3284 9 14.5V14C9 13.1822 8.60733 12.4561 8.00024 12C8.60733 11.5439 9 10.8178 9 10V9.5C9 8.67157 9.67157 8 10.5 8V7C9.11929 7 8 8.11929 8 9.5V10C8 10.828 7.32916 11.4993 6.50135 11.5L6 11.5ZM13.5 7C14.8807 7 16 8.11929 16 9.5V10C16 10.8284 16.6716 11.5 17.5 11.5H18C18.2589 11.5 18.4718 11.6967 18.4974 11.9489C18.4991 11.9657 18.5 11.9827 18.5 12C18.5 12.2761 18.2761 12.5 18 12.5H17.4986C16.6708 12.5007 16 13.172 16 14V14.5C16 15.8807 14.8807 17 13.5 17V16C14.3284 16 15 15.3284 15 14.5V14C15 13.1822 15.3927 12.4561 15.9998 12C15.3927 11.5439 15 10.8178 15 10V9.5C15 8.67157 14.3284 8 13.5 8V7Z" fill="url(#paint0_linear_48_97)"/>
<defs>
<linearGradient id="paint0_linear_48_97" x1="12" y1="2" x2="12" y2="22" gradientUnits="userSpaceOnUse">
<stop stop-color="#69A3FB"/>
<stop offset="1" stop-color="#477EF7"/>
</linearGradient>
</defs>
</svg>
