<svg width="24" height="24" viewBox="0 0 24 24" fill="none" xmlns="http://www.w3.org/2000/svg">
<path fill-rule="evenodd" clip-rule="evenodd" d="M6 2C4.34315 2 3 3.34315 3 5V19C3 20.6569 4.34315 22 6 22H18C19.6569 22 21 20.6569 21 19V5C21 3.34315 19.6569 2 18 2H6ZM15.4382 16L17.5 8H15.7265L14.6494 13.3389C14.5877 13.6402 14.5496 13.9377 14.5351 14.2315H14.5134C14.4771 13.8559 14.4354 13.5695 14.3882 13.3724L13.1098 8H11.2275L9.81306 13.3054C9.72239 13.6439 9.6698 13.9563 9.65529 14.2427H9.62265C9.60089 13.8596 9.56644 13.5546 9.51929 13.3278L8.42038 8H6.5L8.55094 16H10.5801L11.9075 10.8675C11.9692 10.6332 12.0163 10.3338 12.049 9.96932H12.0707C12.0852 10.3003 12.1269 10.5997 12.1958 10.8675L13.4906 16H15.4382Z" fill="url(#paint0_linear_48_39)"/>
<defs>
<linearGradient id="paint0_linear_48_39" x1="12" y1="2" x2="12" y2="22" gradientUnits="userSpaceOnUse">
<stop stop-color="#69A3FB"/>
<stop offset="1" stop-color="#477EF7"/>
</linearGradient>
</defs>
</svg>
