<svg width="48" height="48" viewBox="0 0 48 48" fill="none" xmlns="http://www.w3.org/2000/svg">
<path fill-rule="evenodd" clip-rule="evenodd" d="M11 6H37C38.6569 6 40 7.34315 40 9V39C40 40.6569 38.6569 42 37 42H11C9.34315 42 8 40.6569 8 39V9C8 7.34315 9.34315 6 11 6ZM29.1573 30L32.25 18H29.5898L27.974 26.0084C27.8816 26.4603 27.8244 26.9066 27.8027 27.3473H27.77C27.7156 26.7838 27.6531 26.3543 27.5823 26.0586L25.6647 18H22.8412L20.7196 25.9582C20.5836 26.4658 20.5047 26.9344 20.4829 27.364H20.434C20.4013 26.7894 20.3497 26.3319 20.2789 25.9916L18.6306 18H15.75L18.8264 30H21.8702L23.8613 22.3013C23.9538 21.9498 24.0245 21.5007 24.0734 20.954H24.1061C24.1278 21.4505 24.1904 21.8996 24.2938 22.3013L26.2359 30H29.1573Z" fill="url(#paint0_linear_48_29)"/>
<defs>
<linearGradient id="paint0_linear_48_29" x1="24" y1="6" x2="24" y2="42" gradientUnits="userSpaceOnUse">
<stop stop-color="#69A3FB"/>
<stop offset="1" stop-color="#477EF7"/>
</linearGradient>
</defs>
</svg>
