<svg width="16" height="16" viewBox="0 0 16 16" fill="none" xmlns="http://www.w3.org/2000/svg">
<path d="M8.5 4.5C8.5 4.22386 8.27614 4 8 4C7.72386 4 7.5 4.22386 7.5 4.5V8C7.5 8.18939 7.607 8.36252 7.77639 8.44721L9.77639 9.44721C10.0234 9.57071 10.3237 9.4706 10.4472 9.22361C10.5707 8.97662 10.4706 8.67628 10.2236 8.55279L8.5 7.69098V4.5Z" fill="#F3F4F4"/>
<path fill-rule="evenodd" clip-rule="evenodd" d="M8 1C4.13401 1 1 4.13401 1 8C1 11.866 4.13401 15 8 15C11.866 15 15 11.866 15 8C15 4.13401 11.866 1 8 1ZM2 8C2 4.68629 4.68629 2 8 2C11.3137 2 14 4.68629 14 8C14 11.3137 11.3137 14 8 14C4.68629 14 2 11.3137 2 8Z" fill="#F3F4F4"/>
</svg>
