<svg width="16" height="16" viewBox="0 0 16 16" fill="none" xmlns="http://www.w3.org/2000/svg">
<path fill-rule="evenodd" clip-rule="evenodd" d="M8.46303 1H3.53697C3.19412 0.999993 2.90686 0.999987 2.67197 1.01918C2.42666 1.03922 2.19477 1.08266 1.97502 1.19463C1.63901 1.36583 1.36583 1.63901 1.19463 1.97502C1.08266 2.19477 1.03922 2.42666 1.01918 2.67197C0.999987 2.90686 0.999993 3.1941 1 3.53696V8.46303C0.999993 8.80589 0.999987 9.09315 1.01918 9.32803C1.03922 9.57335 1.08266 9.80524 1.19463 10.025C1.36583 10.361 1.63901 10.6342 1.97502 10.8054C2.19477 10.9173 2.42666 10.9608 2.67197 10.9808C2.90686 11 3.1941 11 3.53696 11H5V12.463C4.99999 12.8059 4.99999 13.0931 5.01918 13.328C5.03922 13.5733 5.08266 13.8052 5.19463 14.025C5.36584 14.361 5.63902 14.6342 5.97502 14.8054C6.19477 14.9173 6.42666 14.9608 6.67197 14.9808C6.90687 15 7.19413 15 7.53701 15H12.463C12.8059 15 13.0931 15 13.328 14.9808C13.5733 14.9608 13.8052 14.9173 14.025 14.8054C14.361 14.6342 14.6342 14.361 14.8054 14.025C14.9173 13.8052 14.9608 13.5733 14.9808 13.328C15 13.0931 15 12.8059 15 12.463V7.53701C15 7.19413 15 6.90687 14.9808 6.67197C14.9608 6.42666 14.9173 6.19477 14.8054 5.97502C14.6342 5.63902 14.361 5.36584 14.025 5.19463C13.8052 5.08266 13.5733 5.03922 13.328 5.01918C13.0931 4.99999 12.8059 4.99999 12.463 5H11V3.53696C11 3.1941 11 2.90686 10.9808 2.67197C10.9608 2.42666 10.9173 2.19477 10.8054 1.97502C10.6342 1.63901 10.361 1.36583 10.025 1.19463C9.80524 1.08266 9.57335 1.03922 9.32803 1.01918C9.09314 0.999987 8.80589 0.999993 8.46303 1ZM10 5V3.55714C10 3.18886 9.99961 2.94272 9.98415 2.7534C9.96915 2.56993 9.94253 2.48429 9.91436 2.42901C9.83903 2.28117 9.71884 2.16097 9.57099 2.08564C9.51571 2.05747 9.43007 2.03085 9.2466 2.01586C9.05729 2.00039 8.81114 2 8.44286 2H3.55714C3.18886 2 2.94272 2.00039 2.7534 2.01586C2.56993 2.03085 2.48429 2.05747 2.42901 2.08564C2.28117 2.16097 2.16097 2.28117 2.08564 2.42901C2.05747 2.48429 2.03085 2.56993 2.01586 2.7534C2.00039 2.94272 2 3.18886 2 3.55714V8.44286C2 8.81114 2.00039 9.05729 2.01586 9.2466C2.03085 9.43007 2.05747 9.51571 2.08564 9.57099C2.16097 9.71884 2.28117 9.83903 2.42901 9.91436C2.48429 9.94253 2.56993 9.96915 2.7534 9.98415C2.94272 9.99961 3.18886 10 3.55714 10H5V7.53697C4.99999 7.19411 4.99999 6.90686 5.01918 6.67197C5.03922 6.42666 5.08266 6.19477 5.19463 5.97502C5.36583 5.63901 5.63901 5.36583 5.97502 5.19463C6.19477 5.08266 6.42666 5.03922 6.67197 5.01918C6.90686 4.99999 7.19411 4.99999 7.53697 5H10ZM6.42901 6.08564C6.48429 6.05747 6.56993 6.03085 6.75341 6.01586C6.94272 6.00039 7.18886 6 7.55714 6H12.4429C12.8111 6 13.0573 6.00039 13.2466 6.01586C13.4301 6.03085 13.5157 6.05747 13.571 6.08564C13.7188 6.16097 13.839 6.28117 13.9144 6.42901C13.9425 6.48429 13.9692 6.56993 13.9841 6.75341C13.9996 6.94272 14 7.18886 14 7.55714V12.4429C14 12.8111 13.9996 13.0573 13.9841 13.2466C13.9692 13.4301 13.9425 13.5157 13.9144 13.571C13.839 13.7188 13.7188 13.839 13.571 13.9144C13.5157 13.9425 13.4301 13.9692 13.2466 13.9841C13.0573 13.9996 12.8111 14 12.4429 14H7.55714C7.18886 14 6.94272 13.9996 6.75341 13.9841C6.56993 13.9692 6.48429 13.9425 6.42901 13.9144C6.28117 13.839 6.16097 13.7188 6.08564 13.571C6.05747 13.5157 6.03085 13.4301 6.01586 13.2466C6.00039 13.0573 6 12.8111 6 12.4429V7.55714C6 7.18886 6.00039 6.94272 6.01586 6.75341C6.03085 6.56993 6.05747 6.48429 6.08564 6.42901C6.16097 6.28117 6.28117 6.16097 6.42901 6.08564Z" fill="#F3F4F4"/>
</svg>
