<svg width="24" height="24" viewBox="0 0 24 24" fill="none" xmlns="http://www.w3.org/2000/svg">
<path d="M10.1738 3.95584C11.5331 3.64829 12.9481 3.69009 14.2868 4.07732C15.6255 4.46455 16.8444 5.18459 17.8296 6.17027C17.8351 6.17582 17.8407 6.18127 17.8464 6.18664L21.1329 9.25008H17C16.5858 9.25008 16.25 9.58586 16.25 10.0001C16.25 10.4143 16.5858 10.7501 17 10.7501H23C23.4142 10.7501 23.75 10.4143 23.75 10.0001V4.00008C23.75 3.58586 23.4142 3.25008 23 3.25008C22.5858 3.25008 22.25 3.58586 22.25 4.00008V8.24082L18.882 5.10139C17.7192 3.94085 16.2819 3.09291 14.7036 2.63638C13.1215 2.17875 11.4492 2.12936 9.84278 2.49282C8.23639 2.85629 6.74824 3.62076 5.51722 4.71492C4.28619 5.80906 3.3524 7.19723 2.80297 8.74988C2.66479 9.14036 2.86932 9.56893 3.25981 9.70711C3.65029 9.84529 4.07886 9.64076 4.21704 9.25027C4.68194 7.93649 5.47207 6.76189 6.51371 5.83607C7.55535 4.91025 8.81456 4.26339 10.1738 3.95584Z" fill="#04101E"/>
<path d="M1.75 15.7591V20.0001C1.75 20.4143 1.41421 20.7501 1 20.7501C0.585786 20.7501 0.25 20.4143 0.25 20.0001V14.0001C0.25 13.5859 0.585786 13.2501 1 13.2501H7C7.41421 13.2501 7.75 13.5859 7.75 14.0001C7.75 14.4143 7.41421 14.7501 7 14.7501H2.86739L6.15358 17.8135C6.15929 17.8189 6.16492 17.8243 6.17046 17.8299C7.15564 18.8156 8.37448 19.5356 9.71322 19.9228C11.0519 20.3101 12.467 20.3519 13.8262 20.0443C15.1855 19.7368 16.4447 19.0899 17.4863 18.1641C18.5279 17.2383 19.3181 16.0637 19.783 14.7499C19.9212 14.3594 20.3497 14.1549 20.7402 14.293C21.1307 14.4312 21.3352 14.8598 21.1971 15.2503C20.6476 16.8029 19.7138 18.1911 18.4828 19.2852C17.2518 20.3794 15.7636 21.1439 14.1572 21.5073C12.5508 21.8708 10.8786 21.8214 9.29642 21.3638C7.71813 20.9072 6.28085 20.0593 5.11803 18.8988L1.75 15.7591Z" fill="#04101E"/>
</svg>
