<?xml version="1.0" encoding="UTF-8" standalone="no"?>
<svg
   width="22"
   height="22"
   viewBox="0 0 22 22"
   fill="none"
   version="1.1"
   id="svg1"
   sodipodi:docname="file.svg"
   inkscape:version="1.4.1-rc (06eac75fbf, 2025-03-29)"
   xmlns:inkscape="http://www.inkscape.org/namespaces/inkscape"
   xmlns:sodipodi="http://sodipodi.sourceforge.net/DTD/sodipodi-0.dtd"
   xmlns="http://www.w3.org/2000/svg"
   xmlns:svg="http://www.w3.org/2000/svg">
  <defs
     id="defs1" />
  <sodipodi:namedview
     id="namedview1"
     pagecolor="#ffffff"
     bordercolor="#000000"
     borderopacity="0.25"
     inkscape:showpageshadow="2"
     inkscape:pageopacity="0.0"
     inkscape:pagecheckerboard="0"
     inkscape:deskcolor="#d1d1d1"
     showgrid="false"
     inkscape:zoom="25.34375"
     inkscape:cx="13.967941"
     inkscape:cy="10.475956"
     inkscape:window-width="1850"
     inkscape:window-height="1016"
     inkscape:window-x="1990"
     inkscape:window-y="27"
     inkscape:window-maximized="1"
     inkscape:current-layer="svg1" />
  <path
     fill-rule="evenodd"
     clip-rule="evenodd"
     d="m 5.99995,5 c -1.10457,0 -2.000008,0.89544 -2,2.00001 L 4.00001,15 c 0,1.1046 0.89543,2 2,2 h 10.00004 c 1.1045,0 2,-0.8954 2,-2 V 8 c 0,-1.10457 -0.8955,-2 -2,-2 H 12.20707 C 11.75436,6 11.32019,5.82014 11.0001,5.5 10.68001,5.17986 10.24584,5 9.79313,5 Z m 1.5e-4,2 c -0.55228,0 -1,0.44772 -1,1 v 7 c 0,0.5523 0.44772,1 1,1 h 10.00005 c 0.5522,0 1,-0.4477 1,-1 V 8 c 0,-0.55228 -0.4478,-1 -1,-1 z"
     fill="#303233"
     id="path1" />
</svg>
