<?xml version="1.0" encoding="UTF-8" standalone="no"?>
<svg
   width="22"
   height="22"
   viewBox="0 0 22 22"
   fill="none"
   version="1.1"
   id="svg2"
   sodipodi:docname="exit.svg"
   inkscape:version="1.4 (86a8ad7, 2024-10-11)"
   xmlns:inkscape="http://www.inkscape.org/namespaces/inkscape"
   xmlns:sodipodi="http://sodipodi.sourceforge.net/DTD/sodipodi-0.dtd"
   xmlns="http://www.w3.org/2000/svg"
   xmlns:svg="http://www.w3.org/2000/svg">
  <defs
     id="defs2" />
  <sodipodi:namedview
     id="namedview2"
     pagecolor="#ffffff"
     bordercolor="#000000"
     borderopacity="0.25"
     inkscape:showpageshadow="2"
     inkscape:pageopacity="0.0"
     inkscape:pagecheckerboard="0"
     inkscape:deskcolor="#d1d1d1"
     showgrid="true"
     inkscape:zoom="44.238368"
     inkscape:cx="15.371272"
     inkscape:cy="11.69799"
     inkscape:window-width="2400"
     inkscape:window-height="1261"
     inkscape:window-x="1911"
     inkscape:window-y="-9"
     inkscape:window-maximized="1"
     inkscape:current-layer="svg2">
    <inkscape:grid
       id="grid2"
       units="px"
       originx="0"
       originy="0"
       spacingx="1"
       spacingy="1"
       empcolor="#0099e5"
       empopacity="0.30196078"
       color="#0099e5"
       opacity="0.14901961"
       empspacing="5"
       enabled="true"
       visible="true" />
  </sodipodi:namedview>
  <path
     d="m 6.3333299,5.4999997 c -0.22101,0 -0.43297,0.0878 -0.58925,0.24408 -0.15628,0.15628 -0.24408,0.36824 -0.24408,0.58925 V 15.6667 c 0,0.221 0.0878,0.4329 0.24408,0.5892 0.15628,0.1563 0.36824,0.2441 0.58925,0.2441 H 9 c 0.2761399,0 0.5,0.2239 0.5,0.5 0,0.2761 -0.2238601,0.5 -0.5,0.5 H 6.3333299 c -0.48623,0 -0.95254,-0.1932 -1.29636,-0.537 -0.34382,-0.3438 -0.53697,-0.8101 -0.53697,-1.2963 V 6.3333297 c 0,-0.48623 0.19315,-0.95254 0.53697,-1.29636 0.34382,-0.34382 0.81013,-0.53697 1.29636,-0.53697 H 9 c 0.2761399,0 0.5,0.22386 0.5,0.5 0,0.2761399 -0.2238601,0.5 -0.5,0.5 z"
     fill="#303233"
     id="path1" />
  <path
     d="m 13.1465,7.1464397 c 0.1952,-0.1952601 0.5118,-0.19525 0.7071,9.9e-6 L 17.3459,10.63897 C 17.4409,10.72998 17.5,10.85809 17.5,11 c 0,0.14197 -0.0592,0.27012 -0.1542,0.36114 l -3.4922,3.49236 c -0.1953,0.1953 -0.5119,0.1953 -0.7071,10e-5 -0.19531,-0.1953 -0.19532,-0.5119 -10e-5,-0.7071 L 15.7928,11.5 H 9 C 8.72386,11.5 8.5,11.27614 8.5,11 8.5,10.72386 8.72386,10.5 9,10.5 h 6.7928 L 13.1464,7.8535497 c -0.19522,-0.19527 -0.19521,-0.51185 10e-5,-0.70711 z"
     fill="#303233"
     id="path2" />
</svg>
