<?xml version="1.0" encoding="UTF-8" standalone="no"?>
<svg
   width="22"
   height="22"
   viewBox="0 0 22 22"
   fill="none"
   version="1.1"
   id="svg2"
   sodipodi:docname="settings.svg"
   inkscape:version="1.4 (86a8ad7, 2024-10-11)"
   xmlns:inkscape="http://www.inkscape.org/namespaces/inkscape"
   xmlns:sodipodi="http://sodipodi.sourceforge.net/DTD/sodipodi-0.dtd"
   xmlns="http://www.w3.org/2000/svg"
   xmlns:svg="http://www.w3.org/2000/svg">
  <defs
     id="defs2" />
  <sodipodi:namedview
     id="namedview2"
     pagecolor="#ffffff"
     bordercolor="#000000"
     borderopacity="0.25"
     inkscape:showpageshadow="2"
     inkscape:pageopacity="0.0"
     inkscape:pagecheckerboard="0"
     inkscape:deskcolor="#d1d1d1"
     showgrid="true"
     inkscape:zoom="31.28125"
     inkscape:cx="11.060939"
     inkscape:cy="14.817183"
     inkscape:window-width="2400"
     inkscape:window-height="1261"
     inkscape:window-x="1911"
     inkscape:window-y="-9"
     inkscape:window-maximized="1"
     inkscape:current-layer="svg2">
    <inkscape:grid
       id="grid2"
       units="px"
       originx="0"
       originy="0"
       spacingx="1"
       spacingy="1"
       empcolor="#0099e5"
       empopacity="0.30196078"
       color="#0099e5"
       opacity="0.14901961"
       empspacing="5"
       enabled="true"
       visible="true" />
  </sodipodi:namedview>
  <path
     fill-rule="evenodd"
     clip-rule="evenodd"
     d="m 8.5607995,11.00017 c 0,1.353 1.097,2.45003 2.4500005,2.45003 1.354,0 2.45,-1.09703 2.45,-2.45003 0,-1.353 -1.096,-2.45 -2.45,-2.45 -1.3530005,0 -2.4500005,1.097 -2.4500005,2.45 z m 3.9000005,0 c 0,0.801 -0.649,1.44999 -1.45,1.44999 -0.8,0 -1.4500005,-0.64899 -1.4500005,-1.44999 0,-0.801 0.6500005,-1.45 1.4500005,-1.45 0.801,0 1.45,0.649 1.45,1.45 z"
     fill="#303233"
     id="path1" />
  <path
     fill-rule="evenodd"
     clip-rule="evenodd"
     d="m 8.4034995,15.498 c 0.197,0.114 0.353,0.288 0.445,0.496 l 0.38,0.855 c 0.152,0.342 0.401,0.633 0.715,0.838 l 10e-4,10e-4 C 10.2585,17.891 10.6255,18 11.0005,18 c 0.374,0 0.741,-0.109 1.055,-0.312 l 10e-4,-10e-4 c 0.315,-0.205 0.563,-0.496 0.715,-0.838 l 0.379,-0.854 c 0.093,-0.207 0.248,-0.38 0.444,-0.493 0.198,-0.114 0.426,-0.163 0.653,-0.139 l 0.929,0.099 c 0.373,0.039 0.75,-0.03 1.084,-0.201 0.334,-0.17 0.611,-0.432 0.799,-0.757 0.187,-0.325 0.277,-0.697 0.257,-1.071 -0.02,-0.375 -0.148,-0.737 -0.369,-1.039 l -0.549,-0.75499 c -0.134,-0.185 -0.205,-0.40801 -0.204,-0.63701 V 11 c 0,-0.228 0.072,-0.44999 0.206,-0.63499 l 0.551,-0.75602 c 0.22,-0.303 0.348,-0.66299 0.368,-1.03799 0.019,-0.374 -0.07,-0.746 -0.257,-1.071 -0.187,-0.324 -0.465,-0.587 -0.798,-0.758 l -0.002,-0.001 c -0.334,-0.17 -0.711,-0.24 -1.084,-0.199 l -0.927,0.099 c -0.227,0.023 -0.456,-0.026 -0.654,-0.139 -0.196,-0.115 -0.351,-0.288 -0.443,-0.495 L 13.1535,6.005 12.7705,5.15 C 12.6195,4.809 12.3715,4.518 12.0565,4.313 L 12.0555,4.312 C 11.7415,4.109 11.3745,4 11.0005,4 10.6255,4 10.2585,4.109 9.9444995,4.312 l -10e-4,10e-4 c -0.314,0.205 -0.563,0.496 -0.715,0.838 l -0.38,0.855 c -0.092,0.208 -0.247,0.381 -0.443,0.496 -0.198,0.113 -0.427,0.162 -0.654,0.139 l -0.931,-0.099 c -0.372,-0.041 -0.749,0.029 -1.083,0.199 l -0.001,0.001 c -0.334,0.171 -0.611,0.434 -0.798,0.758 -0.188,0.325 -0.277,0.697 -0.258,1.071 0.02,0.375 0.148,0.73499 0.369,1.03799 l 0.55,0.75602 c 0.134,0.185 0.206,0.40699 0.206,0.63499 0,0.228 -0.072,0.44999 -0.206,0.63499 l -0.55,0.75602 c -0.221,0.303 -0.349,0.66299 -0.369,1.03799 -0.019,0.374 0.07,0.746 0.258,1.071 0.187,0.324 0.464,0.587 0.798,0.758 l 0.001,0.001 c 0.334,0.169 0.71,0.238 1.083,0.199 l 0.928,-0.099 c 0.228,-0.023 0.457,0.026 0.655,0.139 z M 10.1425,16.443 9.7624995,15.588 c -0.178,-0.402 -0.48,-0.736 -0.86,-0.956 -0.38,-0.218 -0.82,-0.312 -1.256,-0.267 h -0.002 l -0.929,0.099 c -0.18,0.019 -0.362,-0.014 -0.524,-0.096 -0.162,-0.083 -0.297,-0.211 -0.387,-0.368 -0.091,-0.157 -0.135,-0.337 -0.125,-0.519 0.01,-0.181 0.071,-0.355 0.178,-0.502 l 0.551,-0.75599 c 0.258,-0.355 0.397,-0.78301 0.397,-1.22301 0,-0.44 -0.139,-0.86801 -0.397,-1.22301 l -0.551,-0.75599 c -0.107,-0.147 -0.168,-0.321 -0.178,-0.502 -0.01,-0.182 0.034,-0.362 0.125,-0.519 0.09,-0.157 0.225,-0.285 0.387,-0.368 0.161,-0.081 0.343,-0.115 0.522,-0.096 l 0.934,0.099 h 0.002 c 0.436,0.045 0.875,-0.048 1.255,-0.266 l 0.003,-0.002 c 0.379,-0.221 0.678,-0.556 0.855,-0.956 L 10.1425,5.557 c 0.074,-0.166 0.194,-0.306 0.346,-0.406 0.152,-0.098 0.33,-0.151 0.512,-0.151 0.181,0 0.359,0.053 0.511,0.151 0.152,0.1 0.272,0.24 0.346,0.406 l 0.383,0.856 c 0.177,0.398 0.476,0.733 0.855,0.954 l 0.003,0.002 c 0.38,0.218 0.819,0.311 1.255,0.266 h 0.002 l 0.931,-0.099 c 0.18,-0.019 0.361,0.015 0.522,0.096 0.162,0.083 0.297,0.211 0.388,0.368 0.09,0.157 0.134,0.337 0.124,0.519 -0.009,0.181 -0.071,0.355 -0.178,0.502 l -0.551,0.75599 c -0.258,0.355 -0.397,0.783 -0.397,1.222 -0.002,0.441 0.136,0.86902 0.394,1.22602 l 0.552,0.75898 c 0.106,0.14601 0.168,0.32001 0.177,0.50101 0.01,0.182 -0.034,0.362 -0.124,0.519 -0.091,0.157 -0.225,0.284 -0.387,0.366 l -10e-4,0.001 c -0.162,0.083 -0.344,0.116 -0.524,0.097 l -0.929,-0.099 c -0.437,-0.046 -0.878,0.047 -1.258,0.267 -0.379,0.219 -0.678,0.552 -0.857,0.951 l -0.38,0.856 c -0.074,0.166 -0.194,0.306 -0.346,0.406 -0.152,0.098 -0.33,0.151 -0.511,0.151 -0.182,0 -0.36,-0.053 -0.512,-0.151 -0.152,-0.1 -0.272,-0.24 -0.346,-0.406 z"
     fill="#303233"
     id="path2" />
</svg>
