<?xml version="1.0" encoding="UTF-8" standalone="no"?>
<svg
   width="22"
   height="22"
   viewBox="0 0 22 22"
   fill="none"
   version="1.1"
   id="svg5"
   sodipodi:docname="stream.svg"
   inkscape:version="1.4 (86a8ad7, 2024-10-11)"
   xmlns:inkscape="http://www.inkscape.org/namespaces/inkscape"
   xmlns:sodipodi="http://sodipodi.sourceforge.net/DTD/sodipodi-0.dtd"
   xmlns="http://www.w3.org/2000/svg"
   xmlns:svg="http://www.w3.org/2000/svg">
  <defs
     id="defs5" />
  <sodipodi:namedview
     id="namedview5"
     pagecolor="#ffffff"
     bordercolor="#000000"
     borderopacity="0.25"
     inkscape:showpageshadow="2"
     inkscape:pageopacity="0.0"
     inkscape:pagecheckerboard="0"
     inkscape:deskcolor="#d1d1d1"
     showgrid="true"
     inkscape:zoom="31.28125"
     inkscape:cx="14.28971"
     inkscape:cy="13.442557"
     inkscape:window-width="2400"
     inkscape:window-height="1261"
     inkscape:window-x="1911"
     inkscape:window-y="-9"
     inkscape:window-maximized="1"
     inkscape:current-layer="svg5">
    <inkscape:grid
       id="grid5"
       units="px"
       originx="0"
       originy="0"
       spacingx="1"
       spacingy="1"
       empcolor="#0099e5"
       empopacity="0.30196078"
       color="#0099e5"
       opacity="0.14901961"
       empspacing="5"
       enabled="true"
       visible="true" />
  </sodipodi:namedview>
  <path
     d="m 6.7573724,6.75733 c 0.19526,-0.19526 0.19526,-0.51185 0,-0.70711 -0.19526,-0.19526 -0.51185,-0.19526 -0.70711,0 -2.733667,2.73367 -2.733667,7.16583 0,9.89953 0.19526,0.1952 0.51185,0.1952 0.70711,0 0.19526,-0.1953 0.19526,-0.5119 0,-0.7071 -2.34315,-2.34319 -2.34315,-6.14218 0,-8.48532 z"
     fill="#303233"
     id="path1" />
  <path
     d="m 15.949713,6.05025 c -0.1952,-0.19526 -0.5118,-0.19526 -0.7071,0 -0.1952,0.19526 -0.1952,0.51185 0,0.70711 2.3432,2.34314 2.3432,6.14213 0,8.48529 -0.1952,0.1953 -0.1952,0.5118 0,0.7071 0.1953,0.1953 0.5119,0.1953 0.7071,0 2.7337,-2.7337 2.7337,-7.16583 0,-9.8995 z"
     fill="#303233"
     id="path2" />
  <path
     d="m 8.5958524,8.59578 c 0.19526,-0.19526 0.19526,-0.51184 0,-0.7071 -0.19527,-0.19527 -0.51185,-0.19527 -0.70711,0 -1.71831,1.7183 -1.71831,4.50423 0,6.22257 0.19526,0.1952 0.51184,0.1952 0.70711,0 0.19526,-0.1953 0.19526,-0.5119 0,-0.7071 -1.32779,-1.32782 -1.32779,-3.48058 0,-4.80837 z"
     fill="#303233"
     id="path3" />
  <path
     d="m 14.111313,7.8887 c -0.1953,-0.19526 -0.5119,-0.19526 -0.7071,0 -0.1953,0.19526 -0.1953,0.51184 0,0.70711 1.3277,1.32778 1.3277,3.48054 0,4.80834 -0.1953,0.1952 -0.1953,0.5118 0,0.7071 0.1952,0.1953 0.5118,0.1953 0.7071,0 1.7183,-1.71832 1.7183,-4.50424 0,-6.22255 z"
     fill="#303233"
     id="path4" />
  <path
     fill-rule="evenodd"
     clip-rule="evenodd"
     d="m 10.872563,9.58435 c -0.08786,-0.05651 -0.18024,-0.11593 -0.2616,-0.15828 -0.08185,-0.0426 -0.23039,-0.11156 -0.41438,-0.09842 -0.2169906,0.0155 -0.4165706,0.12446 -0.5469506,0.29861 -0.11055,0.14767 -0.13287,0.3099 -0.14129,0.40178 -0.00838,0.09135 -0.00835,0.20119 -0.00833,0.30565 v 1.56828 c -2e-5,0.10447 -5e-5,0.21431 0.00833,0.30565 0.00842,0.09189 0.03074,0.25412 0.14129,0.40178 0.13038,0.17415 0.32996,0.28311 0.5469506,0.29861 0.18399,0.01314 0.33253,-0.05581 0.41438,-0.09842 0.08136,-0.04234 0.17374,-0.10176 0.2616,-0.15827 l 1.22078,-0.78479 c 0.07553,-0.04852 0.15807,-0.10155 0.22382,-0.15283 0.06974,-0.05439 0.17982,-0.15033 0.24473,-0.30395 0.07886,-0.18663 0.07886,-0.39721 0,-0.58383 -0.06491,-0.15363 -0.17499,-0.24957 -0.24473,-0.30396 -0.06575,-0.05128 -0.14829,-0.1043 -0.22382,-0.15283 z m -0.37254,2.11765 v -1.16834 l 0.9087,0.58417 z"
     fill="#303233"
     id="path5" />
</svg>
