<?xml version="1.0" encoding="UTF-8" standalone="no"?>
<svg
   width="22"
   height="22"
   viewBox="0 0 22 22"
   fill="none"
   version="1.1"
   id="svg2"
   sodipodi:docname="upload.svg"
   inkscape:version="1.4 (86a8ad7, 2024-10-11)"
   xmlns:inkscape="http://www.inkscape.org/namespaces/inkscape"
   xmlns:sodipodi="http://sodipodi.sourceforge.net/DTD/sodipodi-0.dtd"
   xmlns="http://www.w3.org/2000/svg"
   xmlns:svg="http://www.w3.org/2000/svg">
  <defs
     id="defs2" />
  <sodipodi:namedview
     id="namedview2"
     pagecolor="#ffffff"
     bordercolor="#000000"
     borderopacity="0.25"
     inkscape:showpageshadow="2"
     inkscape:pageopacity="0.0"
     inkscape:pagecheckerboard="0"
     inkscape:deskcolor="#d1d1d1"
     showgrid="true"
     inkscape:zoom="31.28125"
     inkscape:cx="15.216783"
     inkscape:cy="14.881119"
     inkscape:window-width="2400"
     inkscape:window-height="1261"
     inkscape:window-x="1911"
     inkscape:window-y="-9"
     inkscape:window-maximized="1"
     inkscape:current-layer="svg2">
    <inkscape:grid
       id="grid2"
       units="px"
       originx="0"
       originy="0"
       spacingx="1"
       spacingy="1"
       empcolor="#0099e5"
       empopacity="0.30196078"
       color="#0099e5"
       opacity="0.14901961"
       empspacing="5"
       enabled="true"
       visible="true" />
  </sodipodi:namedview>
  <path
     d="m 11.5,9.70711 1.6464,1.64644 c 0.1953,0.19527 0.5119,0.19527 0.7072,0 0.1952,-0.19526 0.1952,-0.51184 0,-0.7071 l -2.50005,-2.5 c -0.19526,-0.19527 -0.51184,-0.19527 -0.7071,0 l -2.5,2.5 c -0.19527,0.19526 -0.19527,0.51184 0,0.7071 0.19526,0.19527 0.51184,0.19527 0.7071,0 L 10.5,9.70711 V 13.5 c 0,0.2761 0.22386,0.5 0.5,0.5 0.27614,0 0.5,-0.2239 0.5,-0.5 z"
     fill="#303233"
     id="path1" />
  <path
     fill-rule="evenodd"
     clip-rule="evenodd"
     d="m 4,11 c 0,-3.86599 3.13401,-7 7,-7 3.866,0 7,3.13401 7,7 0,3.866 -3.134,7 -7,7 -3.86599,0 -7,-3.134 -7,-7 z m 7,-6 c -3.31371,0 -6,2.68629 -6,6 0,3.3137 2.68629,6 6,6 3.3137,0 6,-2.6863 6,-6 0,-3.31371 -2.6863,-6 -6,-6 z"
     fill="#303233"
     id="path2" />
</svg>
