<svg width="18" height="18" viewBox="0 0 18 18" fill="none" xmlns="http://www.w3.org/2000/svg">
<g clip-path="url(#clip0_1430_1981)">
<path d="M9.00024 0.290283C13.808 0.290372 17.7102 4.19249 17.7102 9.00024C17.7101 13.8079 13.8079 17.7101 9.00024 17.7102C4.19249 17.7102 0.290372 13.808 0.290283 9.00024C0.290283 4.19244 4.19244 0.290283 9.00024 0.290283ZM4.90063 5.73364C4.75919 5.73374 4.64478 5.84845 4.64478 5.99536V12.0051C4.64478 12.152 4.75919 12.2667 4.90063 12.2668H6.00024C6.14177 12.2668 6.2561 12.1521 6.2561 12.0051V8.59204C6.2561 8.55938 6.29446 8.54837 6.31079 8.5647L8.63501 10.9163C8.83642 11.1231 9.16309 11.1231 9.3645 10.9163L11.6887 8.5647C11.7051 8.54837 11.7434 8.55938 11.7434 8.59204V12.0051C11.7434 12.1521 11.8578 12.2668 11.9993 12.2668H13.0989C13.2404 12.2668 13.3547 12.1521 13.3547 12.0051V5.99536C13.3547 5.84838 13.2404 5.73364 13.0989 5.73364H12.342C12.206 5.7337 12.0757 5.78903 11.9778 5.88696L9.09204 8.80981C9.04305 8.85853 8.95641 8.8586 8.90747 8.80981L6.02173 5.88696C5.92374 5.78898 5.79356 5.73364 5.65747 5.73364H4.90063Z" fill="white"/>
</g>
<defs>
<clipPath id="clip0_1430_1981">
<rect width="18" height="18" fill="white"/>
</clipPath>
</defs>
</svg>
