<svg width="18" height="18" viewBox="0 0 18 18" fill="none" xmlns="http://www.w3.org/2000/svg">
<g clip-path="url(#clip0_1430_1881)">
<path d="M9.00024 0.125244C13.899 0.125355 17.8752 4.10143 17.8752 9.00024C17.8751 13.899 13.899 17.8751 9.00024 17.8752C4.10143 17.8752 0.125355 13.899 0.125244 9.00024C0.125244 4.10136 4.10136 0.125244 9.00024 0.125244ZM4.82349 5.67212C4.67927 5.67212 4.56274 5.78896 4.56274 5.93872V12.0618C4.56274 12.2115 4.67927 12.3284 4.82349 12.3284H5.9436C6.08782 12.3284 6.20435 12.2115 6.20435 12.0618V8.58423C6.20435 8.55095 6.24337 8.54024 6.26001 8.55688L8.62817 10.9524C8.8334 11.1632 9.16611 11.1632 9.37134 10.9524L11.7395 8.55688C11.7561 8.54024 11.7952 8.55095 11.7952 8.58423V12.0618C11.7952 12.2114 11.9118 12.3282 12.0559 12.3284H13.177C13.321 12.3282 13.4377 12.2114 13.4377 12.0618V5.93872C13.4377 5.7891 13.321 5.67234 13.177 5.67212H12.4055C12.267 5.67214 12.1342 5.72774 12.0344 5.82739L9.09399 8.80591C9.04407 8.85582 8.95544 8.85583 8.90552 8.80591L5.96606 5.82739C5.86622 5.72755 5.73266 5.67212 5.59399 5.67212H4.82349Z" fill="white"/>
</g>
<defs>
<clipPath id="clip0_1430_1881">
<rect width="18" height="18" fill="white"/>
</clipPath>
</defs>
</svg>
