<svg width="18" height="18" viewBox="0 0 18 18" fill="none" xmlns="http://www.w3.org/2000/svg">
<g clip-path="url(#clip0_1430_1917)">
<path d="M9.00049 0.945312C13.4356 0.945471 17.0347 4.54532 17.0347 8.98047C17.0345 13.4155 13.4355 17.0145 9.00049 17.0146C4.56534 17.0146 0.96549 13.4156 0.965332 8.98047C0.965332 4.54522 4.56524 0.945312 9.00049 0.945312ZM5.21924 5.9668C5.08867 5.9668 4.98291 6.07242 4.98291 6.20801V11.752C4.98291 11.8875 5.08867 11.9932 5.21924 11.9932H6.23291C6.36348 11.9932 6.46924 11.8875 6.46924 11.752V8.60352C6.46924 8.57338 6.50495 8.56306 6.52002 8.57812L8.66357 10.748C8.84927 10.9387 9.15061 10.9385 9.33643 10.748L11.481 8.57812C11.496 8.56307 11.5317 8.57339 11.5317 8.60352V11.752C11.5317 11.8875 11.6366 11.993 11.7671 11.9932H12.7817C12.9123 11.9931 13.0181 11.8875 13.0181 11.752V6.20801C13.0181 6.07243 12.9123 5.96681 12.7817 5.9668H12.0835C11.9581 5.96685 11.8379 6.01721 11.7476 6.10742L9.08545 8.80469C9.04021 8.84953 8.95964 8.84973 8.91455 8.80469L6.25342 6.10742C6.16303 6.01705 6.04203 5.9668 5.9165 5.9668H5.21924Z" fill="white"/>
</g>
<defs>
<clipPath id="clip0_1430_1917">
<rect width="18" height="18" fill="white"/>
</clipPath>
</defs>
</svg>
