<svg width="18" height="18" viewBox="0 0 18 18" fill="none" xmlns="http://www.w3.org/2000/svg">
<g clip-path="url(#clip0_1430_1901)">
<path d="M8.99976 0.0202637C13.9565 0.0202637 17.98 4.04304 17.9802 8.99976C17.9802 13.9566 13.9566 17.9802 8.99976 17.9802C4.04304 17.98 0.0202637 13.9565 0.0202637 8.99976C0.0204479 4.04316 4.04316 0.0204479 8.99976 0.0202637ZM4.77417 5.63257C4.62832 5.63257 4.50964 5.75067 4.50952 5.9021V12.0984C4.50952 12.2499 4.62825 12.3679 4.77417 12.3679H5.90796C6.05366 12.3677 6.17163 12.2498 6.17163 12.0984V8.57983C6.17163 8.54616 6.21046 8.53468 6.22729 8.55151L8.62378 10.9763C8.83135 11.1893 9.1681 11.1892 9.37573 10.9763L11.7722 8.55151C11.7891 8.53468 11.8289 8.54616 11.8289 8.57983V12.0984C11.8289 12.2499 11.9466 12.3679 12.0925 12.3679H13.2263C13.3721 12.3678 13.49 12.2498 13.49 12.0984V5.9021C13.4899 5.75077 13.372 5.63271 13.2263 5.63257H12.446C12.3058 5.63257 12.1711 5.68891 12.0701 5.78979L9.09546 8.80347C9.04495 8.85398 8.95456 8.85398 8.90405 8.80347L5.93042 5.78979C5.8294 5.68877 5.69378 5.63257 5.55347 5.63257H4.77417Z" fill="white"/>
</g>
<defs>
<clipPath id="clip0_1430_1901">
<rect width="18" height="18" fill="white"/>
</clipPath>
</defs>
</svg>
