<svg width="18" height="18" viewBox="0 0 18 18" fill="none" xmlns="http://www.w3.org/2000/svg">
<g clip-path="url(#clip0_1430_1973)">
<path d="M9 0.365234C13.7664 0.365234 17.6347 4.2336 17.6348 9C17.6348 13.7664 13.7664 17.6348 9 17.6348C4.2336 17.6347 0.365234 13.7664 0.365234 9C0.365283 4.23363 4.23363 0.365283 9 0.365234ZM4.93652 5.76172C4.79621 5.76172 4.68262 5.87577 4.68262 6.02148V11.9795C4.68276 12.1251 4.7963 12.2383 4.93652 12.2383H6.02637C6.16655 12.2382 6.28013 12.125 6.28027 11.9795V8.5957C6.28027 8.56332 6.31779 8.55217 6.33398 8.56836L8.63867 10.8994C8.83835 11.1045 9.16165 11.1045 9.36133 10.8994L11.666 8.56836C11.6823 8.55231 11.7197 8.56339 11.7197 8.5957V11.9795C11.7199 12.1251 11.8334 12.2383 11.9736 12.2383H13.0635C13.2037 12.2383 13.3172 12.1251 13.3174 11.9795V6.02148C13.3174 5.87577 13.2038 5.76172 13.0635 5.76172H12.3135C12.1787 5.76173 12.0493 5.81607 11.9521 5.91309L9.0918 8.81152C9.04327 8.86002 8.95679 8.85995 8.9082 8.81152L6.04785 5.91309C5.95078 5.81605 5.82132 5.76179 5.68652 5.76172H4.93652Z" fill="white"/>
</g>
<defs>
<clipPath id="clip0_1430_1973">
<rect width="18" height="18" fill="white"/>
</clipPath>
</defs>
</svg>
