<svg width="18" height="18" viewBox="0 0 18 18" fill="none" xmlns="http://www.w3.org/2000/svg">
<g clip-path="url(#clip0_1430_1869)">
<path d="M9.00055 0.220215C13.8468 0.220473 17.7798 4.1542 17.7798 9.00049C17.7796 13.8466 13.8466 17.7795 9.00055 17.7798C4.15426 17.7798 0.220534 13.8467 0.220276 9.00049C0.220276 4.15404 4.1541 0.220215 9.00055 0.220215ZM4.86774 5.70752C4.72514 5.70761 4.60992 5.82309 4.60992 5.97119V12.0288C4.60992 12.1769 4.72514 12.2924 4.86774 12.2925H5.97614C6.11881 12.2925 6.23395 12.177 6.23395 12.0288V8.58838C6.23413 8.55564 6.27319 8.54461 6.28961 8.56104L8.63239 10.9321C8.8354 11.1403 9.16479 11.1404 9.36774 10.9321L11.7105 8.56104C11.7269 8.54461 11.765 8.55564 11.7652 8.58838V12.0288C11.7652 12.1768 11.8805 12.2922 12.023 12.2925H13.1314C13.2741 12.2925 13.3902 12.177 13.3902 12.0288V5.97119C13.3902 5.82303 13.2741 5.70752 13.1314 5.70752H12.3687C12.2317 5.70763 12.1002 5.76315 12.0015 5.86182L9.09332 8.80811C9.04397 8.85746 8.9562 8.8574 8.9068 8.80811L5.9986 5.86182C5.89982 5.76304 5.76762 5.70752 5.63043 5.70752H4.86774Z" fill="white"/>
</g>
<defs>
<clipPath id="clip0_1430_1869">
<rect width="18" height="18" fill="white"/>
</clipPath>
</defs>
</svg>
