<svg width="18" height="18" viewBox="0 0 18 18" fill="none" xmlns="http://www.w3.org/2000/svg">
<g clip-path="url(#clip0_1430_1801)">
<path d="M8.99951 0.935059C13.4512 0.935059 17.0647 4.54789 17.0649 8.99951C17.0649 13.4514 13.4514 17.0649 8.99951 17.0649C4.54789 17.0647 0.935059 13.4512 0.935059 8.99951C0.93532 4.54805 4.54805 0.93532 8.99951 0.935059ZM5.20459 5.97607C5.07353 5.97607 4.96729 6.08217 4.96729 6.21826V11.7827C4.96732 11.9188 5.07355 12.0249 5.20459 12.0249H6.22217C6.3532 12.0249 6.45944 11.9188 6.45947 11.7827V8.62256C6.45947 8.59232 6.49513 8.58205 6.51025 8.59717L8.6626 10.7749C8.84902 10.966 9.15099 10.966 9.3374 10.7749L11.4897 8.59717C11.5049 8.58205 11.5405 8.59232 11.5405 8.62256V11.7827C11.5406 11.9186 11.646 12.0246 11.7769 12.0249H12.7954C12.9264 12.0249 13.0327 11.9188 13.0327 11.7827V6.21826C13.0327 6.08217 12.9265 5.97607 12.7954 5.97607H12.0952C11.9693 5.97607 11.848 6.02612 11.7573 6.1167L9.08545 8.82373C9.0401 8.86901 8.95991 8.86899 8.91455 8.82373L6.24268 6.1167C6.15197 6.0261 6.0307 5.97607 5.90479 5.97607H5.20459Z" fill="white"/>
</g>
<defs>
<clipPath id="clip0_1430_1801">
<rect width="18" height="18" fill="white"/>
</clipPath>
</defs>
</svg>
