<svg width="18" height="18" viewBox="0 0 18 18" fill="none" xmlns="http://www.w3.org/2000/svg">
<g clip-path="url(#clip0_1430_1933)">
<path d="M9 0.790039C13.5319 0.790039 17.2099 4.4681 17.21 9C17.21 13.5319 13.5319 17.21 9 17.21C4.4681 17.2099 0.790039 13.5319 0.790039 9C0.79006 4.46811 4.46811 0.79006 9 0.790039ZM5.13574 5.9209C5.00252 5.92112 4.89453 6.02957 4.89453 6.16797V11.833C4.89476 11.9712 5.00266 12.0789 5.13574 12.0791H6.17285C6.30603 12.079 6.41383 11.9713 6.41406 11.833V8.61523C6.41409 8.58449 6.44944 8.5745 6.46484 8.58984L8.65625 10.8066C8.84606 11.0014 9.15395 11.0014 9.34375 10.8066L11.5352 8.58984C11.5506 8.57453 11.5859 8.58451 11.5859 8.61523V11.833C11.5862 11.9713 11.6939 12.079 11.8271 12.0791H12.8643C12.9973 12.0789 13.1043 11.9712 13.1045 11.833V6.16797C13.1045 6.02958 12.9975 5.92114 12.8643 5.9209H12.1504C12.0222 5.92095 11.899 5.97311 11.8066 6.06543L9.08691 8.82031C9.04075 8.86642 8.95926 8.86641 8.91309 8.82031L6.19336 6.06543C6.10105 5.97312 5.97781 5.92096 5.84961 5.9209H5.13574Z" fill="white"/>
</g>
<defs>
<clipPath id="clip0_1430_1933">
<rect width="18" height="18" fill="white"/>
</clipPath>
</defs>
</svg>
