<svg width="18" height="18" viewBox="0 0 18 18" fill="none" xmlns="http://www.w3.org/2000/svg">
<g clip-path="url(#clip0_1430_1861)">
<path d="M9.00027 0.290283C13.808 0.290372 17.7102 4.19249 17.7102 9.00024C17.7101 13.8079 13.808 17.7101 9.00027 17.7102C4.19252 17.7102 0.290402 13.808 0.290314 9.00024C0.290314 4.19244 4.19247 0.290283 9.00027 0.290283ZM4.90067 5.73364C4.75922 5.73374 4.64481 5.84845 4.64481 5.99536V12.0051C4.64481 12.152 4.75922 12.2667 4.90067 12.2668H6.00027C6.1418 12.2668 6.25613 12.1521 6.25613 12.0051V8.59204C6.25613 8.55938 6.29449 8.54837 6.31082 8.5647L8.63504 10.9163C8.83645 11.1231 9.16312 11.1231 9.36453 10.9163L11.6888 8.5647C11.7051 8.54837 11.7434 8.55938 11.7434 8.59204V12.0051C11.7434 12.1521 11.8578 12.2668 11.9993 12.2668H13.0989C13.2404 12.2668 13.3548 12.1521 13.3548 12.0051V5.99536C13.3548 5.84838 13.2404 5.73364 13.0989 5.73364H12.3421C12.2061 5.7337 12.0757 5.78903 11.9778 5.88696L9.09207 8.80981C9.04308 8.85853 8.95644 8.8586 8.9075 8.80981L6.02176 5.88696C5.92377 5.78898 5.79359 5.73364 5.6575 5.73364H4.90067Z" fill="white"/>
</g>
<defs>
<clipPath id="clip0_1430_1861">
<rect width="18" height="18" fill="white"/>
</clipPath>
</defs>
</svg>
