<svg width="18" height="18" viewBox="0 0 18 18" fill="none" xmlns="http://www.w3.org/2000/svg">
<g clip-path="url(#clip0_1430_1805)">
<path d="M9.00012 0.879883C13.4823 0.879946 17.1202 4.5178 17.1202 9C17.1202 13.4821 13.4823 17.1201 9.00012 17.1201C4.51792 17.1201 0.880068 13.4822 0.880005 9C0.880005 4.51776 4.51788 0.879883 9.00012 0.879883ZM5.17883 5.95508C5.04688 5.95508 4.93958 6.06219 4.93958 6.19922V11.8018C4.93968 11.9387 5.04695 12.0449 5.17883 12.0449H6.20325C6.33513 12.0449 6.4424 11.9387 6.4425 11.8018V8.61914C6.4428 8.58899 6.47812 8.5786 6.49329 8.59375L8.66028 10.7861C8.84805 10.979 9.15219 10.979 9.33997 10.7861L11.507 8.59375C11.5222 8.57884 11.5574 8.5891 11.5577 8.61914V11.8018C11.5578 11.9386 11.6643 12.0448 11.796 12.0449H12.8214C12.9533 12.0449 13.0596 11.9387 13.0597 11.8018V6.19922C13.0597 6.06219 12.9534 5.95508 12.8214 5.95508H12.1163C11.9895 5.95508 11.8669 6.00631 11.7755 6.09766L9.08606 8.82227C9.04038 8.86794 8.95888 8.86794 8.91321 8.82227L6.22375 6.09766C6.13241 6.00631 6.01078 5.95508 5.88391 5.95508H5.17883Z" fill="white"/>
</g>
<defs>
<clipPath id="clip0_1430_1805">
<rect width="18" height="18" fill="white"/>
</clipPath>
</defs>
</svg>
