<svg width="18" height="18" viewBox="0 0 18 18" fill="none" xmlns="http://www.w3.org/2000/svg">
<g clip-path="url(#clip0_1430_1985)">
<path d="M9.00024 0.250244C13.83 0.250355 17.7502 4.17042 17.7502 9.00024C17.7501 13.83 13.83 17.7501 9.00024 17.7502C4.17042 17.7502 0.250355 13.83 0.250244 9.00024C0.250244 4.17036 4.17036 0.250244 9.00024 0.250244ZM4.88208 5.71899C4.7399 5.71899 4.62524 5.83404 4.62524 5.98169V12.0188C4.62524 12.1665 4.7399 12.2815 4.88208 12.2815H5.98657C6.12876 12.2815 6.24341 12.1665 6.24341 12.0188V8.59009C6.24341 8.55735 6.28162 8.54651 6.2981 8.56274L8.63306 10.925C8.8354 11.1329 9.16412 11.1329 9.36646 10.925L11.7014 8.56274C11.7178 8.5464 11.7561 8.5573 11.7561 8.59009V12.0188C11.7561 12.1664 11.8708 12.2814 12.0129 12.2815H13.1174C13.2596 12.2815 13.3743 12.1665 13.3743 12.0188V5.98169C13.3743 5.83404 13.2596 5.71899 13.1174 5.71899H12.3577C12.221 5.71899 12.0899 5.77393 11.9915 5.87231L9.09302 8.80884C9.0438 8.85806 8.95571 8.85806 8.90649 8.80884L6.00806 5.87231C5.90964 5.77397 5.77849 5.71899 5.64185 5.71899H4.88208Z" fill="white"/>
</g>
<defs>
<clipPath id="clip0_1430_1985">
<rect width="18" height="18" fill="white"/>
</clipPath>
</defs>
</svg>
