<svg width="18" height="18" viewBox="0 0 18 18" fill="none" xmlns="http://www.w3.org/2000/svg">
<g clip-path="url(#clip0_1430_1897)">
<path d="M8.99976 0.0349121C13.9484 0.0349121 17.9654 4.05113 17.9656 8.99976C17.9656 13.9485 13.9485 17.9656 8.99976 17.9656C4.05113 17.9654 0.0349121 13.9484 0.0349121 8.99976C0.035086 4.05124 4.05124 0.035086 8.99976 0.0349121ZM4.78101 5.63843C4.63545 5.63843 4.51754 5.75589 4.51733 5.90698V12.0935C4.51741 12.2447 4.63537 12.3621 4.78101 12.3621H5.91284C6.05836 12.3619 6.17546 12.2446 6.17554 12.0935V8.57983C6.17576 8.54644 6.21542 8.53573 6.23218 8.55249L8.62476 10.9724C8.83208 11.1853 9.16841 11.1853 9.37573 10.9724L11.7683 8.55249C11.7851 8.53573 11.8237 8.54644 11.824 8.57983V12.0935C11.8241 12.2447 11.942 12.3621 12.0876 12.3621H13.2195C13.365 12.3619 13.4821 12.2446 13.4822 12.0935V5.90698C13.482 5.75599 13.3649 5.63858 13.2195 5.63843H12.4402C12.3002 5.63847 12.166 5.69483 12.0652 5.79565L9.09546 8.80444C9.04512 8.85479 8.95551 8.85462 8.90503 8.80444L5.9353 5.79565C5.83444 5.6948 5.69941 5.63843 5.55933 5.63843H4.78101Z" fill="white"/>
</g>
<defs>
<clipPath id="clip0_1430_1897">
<rect width="18" height="18" fill="white"/>
</clipPath>
</defs>
</svg>
