<svg fill="none" height="18" viewBox="0 0 18 18" width="18" xmlns="http://www.w3.org/2000/svg"><path d="m9 1c4.416 0 8 3.584 8 8s-3.584 8-8 8-8-3.584-8-8 3.584-8 8-8zm-3.76465 5c-.13 0-.23535.10523-.23535.24023v5.51957c0 .135.10535.2402.23535.2402h1.00977c.12994-.0001.23535-.1053.23535-.2402v-3.1348c0-.02996.03477-.04031.0498-.02539l2.13477 2.16019c.185.19.48492.19.66992 0l2.13474-2.16019c.0151-.01492.0498-.00457.0498.02539v3.1348c0 .1349.1054.2401.2354.2402h1.0097c.13 0 .2354-.1052.2354-.2402v-5.51957c0-.135-.1054-.24023-.2354-.24023h-.6943c-.1248 0-.245.04987-.3349.13965l-2.65044 2.68555c-.04498.04484-.12494.04484-.16992 0l-2.65039-2.68555c-.08996-.08978-.21013-.13965-.33496-.13965z" fill="#fff"/></svg>