<svg width="16" height="16" viewBox="0 0 16 16" fill="none" xmlns="http://www.w3.org/2000/svg">
<path fill-rule="evenodd" clip-rule="evenodd" d="M15 8C15 11.866 11.866 15 8 15C4.13401 15 1 11.866 1 8C1 4.13401 4.13401 1 8 1C11.866 1 15 4.13401 15 8ZM11.0204 6.35355C11.2156 6.15829 11.2156 5.84171 11.0204 5.64645C10.8251 5.45118 10.5085 5.45118 10.3133 5.64645L7.00016 8.95956L5.68705 7.64645C5.49179 7.45118 5.1752 7.45118 4.97994 7.64645C4.78468 7.84171 4.78468 8.15829 4.97994 8.35355L6.64661 10.0202C6.74038 10.114 6.86755 10.1667 7.00016 10.1667C7.13277 10.1667 7.25995 10.114 7.35372 10.0202L11.0204 6.35355Z" fill="#FAFAFB"/>
</svg>
