<?xml version="1.0" encoding="UTF-8"?>
<svg width="3300px" height="2200px" viewBox="0 0 3300 2200" version="1.1" xmlns="http://www.w3.org/2000/svg" xmlns:xlink="http://www.w3.org/1999/xlink">
    <title>network</title>
    <g id="Network" stroke="none" stroke-width="1" fill="none" fill-rule="evenodd">
        <g id="network">
            <g id="Notes">
                <rect id="artboard" fill="#FFFFFF" fill-rule="nonzero" x="0" y="0" width="3300" height="2200"></rect>
                <line x1="263" y1="292" x2="3036" y2="292" id="Path" stroke="#000000" stroke-width="0.5"></line>
                <text id="Weight/Scale-Variations" fill="#000000" fill-rule="nonzero" font-family="Helvetica-Bold, Helvetica" font-size="13" font-weight="bold">
                    <tspan x="263" y="322">Weight/Scale Variations</tspan>
                </text>
                <text id="Ultralight" fill="#000000" fill-rule="nonzero" font-family="Helvetica" font-size="13" font-weight="normal">
                    <tspan x="533.711" y="322">Ultralight</tspan>
                </text>
                <text id="Thin" fill="#000000" fill-rule="nonzero" font-family="Helvetica" font-size="13" font-weight="normal">
                    <tspan x="843.422" y="322">Thin</tspan>
                </text>
                <text id="Light" fill="#000000" fill-rule="nonzero" font-family="Helvetica" font-size="13" font-weight="normal">
                    <tspan x="1138.63" y="322">Light</tspan>
                </text>
                <text id="Regular" fill="#000000" fill-rule="nonzero" font-family="Helvetica" font-size="13" font-weight="normal">
                    <tspan x="1426.84" y="322">Regular</tspan>
                </text>
                <text id="Medium" fill="#000000" fill-rule="nonzero" font-family="Helvetica" font-size="13" font-weight="normal">
                    <tspan x="1723.06" y="322">Medium</tspan>
                </text>
                <text id="Semibold" fill="#000000" fill-rule="nonzero" font-family="Helvetica" font-size="13" font-weight="normal">
                    <tspan x="2015.77" y="322">Semibold</tspan>
                </text>
                <text id="Bold" fill="#000000" fill-rule="nonzero" font-family="Helvetica" font-size="13" font-weight="normal">
                    <tspan x="2326.48" y="322">Bold</tspan>
                </text>
                <text id="Heavy" fill="#000000" fill-rule="nonzero" font-family="Helvetica" font-size="13" font-weight="normal">
                    <tspan x="2618.19" y="322">Heavy</tspan>
                </text>
                <text id="Black" fill="#000000" fill-rule="nonzero" font-family="Helvetica" font-size="13" font-weight="normal">
                    <tspan x="2917.4" y="322">Black</tspan>
                </text>
                <line x1="263" y1="1903" x2="3036" y2="1903" id="Path" stroke="#000000" stroke-width="0.5"></line>
                <g id="Group" transform="translate(264.367190, 1918.068400)" fill="#000000" fill-rule="nonzero">
                    <path d="M7.88086,15.761678 C12.18751,15.761678 15.77151,12.18746 15.77151,7.88082 C15.77151,3.5742 12.17771,0 7.87109,0 C3.57422,0 -8.8817842e-16,3.5742 -8.8817842e-16,7.88082 C-8.8817842e-16,12.18746 3.58398,15.761678 7.88086,15.761678 Z M7.88086,14.277303 C4.33593,14.277303 1.5039,11.43551 1.5039,7.88082 C1.5039,4.3261 4.32617,1.4843 7.87109,1.4843 C11.42581,1.4843 14.26761,4.3261 14.2773352,7.88082 C14.28711,11.43551 11.43551,14.277303 7.88086,14.277303 Z M5.02929,8.61324 L7.13867,8.61324 L7.13867,10.73238 C7.13867,11.17183 7.43164,11.47457 7.86133,11.47457 C8.31054,11.47457 8.60351,11.17183 8.60351,10.73238 L8.60351,8.61324 L10.73241,8.61324 C11.17191,8.61324 11.47461,8.32027 11.47461,7.89058 C11.47461,7.45113 11.17191,7.1484 10.73241,7.1484 L8.60351,7.1484 L8.60351,5.03902 C8.60351,4.5898 8.31054,4.2871 7.86133,4.2871 C7.43164,4.2871 7.13867,4.5898 7.13867,5.03902 L7.13867,7.1484 L5.02929,7.1484 C4.58008,7.1484 4.27734,7.45113 4.27734,7.89058 C4.27734,8.32027 4.58008,8.61324 5.02929,8.61324 Z" id="Shape"></path>
                </g>
                <g id="Group" transform="translate(283.254050, 1915.988300)" fill="#000000" fill-rule="nonzero">
                    <path d="M9.96095,19.92186 C15.41015,19.92186 19.92185,15.40037 19.92185,9.96092 C19.92185,4.5117 15.40035,0 9.95115,0 C4.51172,0 8.8817842e-16,4.5117 8.8817842e-16,9.96092 C8.8817842e-16,15.40037 4.52148,19.92186 9.96095,19.92186 Z M9.96095,18.2617 C5.35156,18.2617 1.66992,14.57029 1.66992,9.96092 C1.66992,5.3515 5.34179,1.6601 9.95115,1.6601 C14.56055,1.6601 18.25195,5.3515 18.261769,9.96092 C18.27145,14.57029 14.57035,18.2617 9.96095,18.2617 Z M6.24023,10.78123 L9.13085,10.78123 L9.13085,13.69139 C9.13085,14.17967 9.46285,14.5117 9.94145,14.5117 C10.42965,14.5117 10.77145,14.17967 10.77145,13.69139 L10.77145,10.78123 L13.68165,10.78123 C14.16995,10.78123 14.50195,10.4492 14.50195,9.97068 C14.50195,9.4824 14.16995,9.14061 13.68165,9.14061 L10.77145,9.14061 L10.77145,6.25 C10.77145,5.7422 10.42965,5.4101 9.94145,5.4101 C9.46285,5.4101 9.13085,5.7519 9.13085,6.25 L9.13085,9.14061 L6.24023,9.14061 C5.73242,9.14061 5.40039,9.4824 5.40039,9.97068 C5.40039,10.4492 5.74218,10.78123 6.24023,10.78123 Z" id="Shape"></path>
                </g>
                <g id="Group" transform="translate(307.179860, 1913.224600)" fill="#000000" fill-rule="nonzero">
                    <path d="M12.71484,25.43946 C19.67774,25.43946 25.43944,19.6777438 25.43944,12.72462 C25.43944,5.7617 19.66794,0 12.70504,0 C5.75195,0 0,5.7617 0,12.72462 C0,19.6777438 5.76172,25.43946 12.71484,25.43946 Z M12.71484,23.62306 C6.67969,23.62306 1.82617,18.75978 1.82617,12.72462 C1.82617,6.6797 6.66992,1.8262 12.70504,1.8262 C18.75004,1.8262 23.60354,6.6797 23.6132548,12.72462 C23.62304,18.75978 18.75974,23.62306 12.71484,23.62306 Z M7.80274,13.63282 L11.80664,13.63282 L11.80664,17.64649 C11.80664,18.1836 12.17774,18.5547 12.69534,18.5547 C13.23244,18.5547 13.60354,18.1836 13.60354,17.64649 L13.60354,13.63282 L17.62694,13.63282 C18.15434,13.63282 18.53514,13.26173 18.53514,12.74415 C18.53514,12.20704 18.16404,11.82618 17.62694,11.82618 L13.60354,11.82618 L13.60354,7.8223 C13.60354,7.2656 13.23244,6.8945 12.69534,6.8945 C12.17774,6.8945 11.80664,7.2754 11.80664,7.8223 L11.80664,11.82618 L7.80274,11.82618 C7.24609,11.82618 6.875,12.20704 6.875,12.74415 C6.875,13.26173 7.25586,13.63282 7.80274,13.63282 Z" id="Shape"></path>
                </g>
                <text id="Design-Variations" fill="#000000" fill-rule="nonzero" font-family="Helvetica-Bold, Helvetica" font-size="13" font-weight="bold">
                    <tspan x="263" y="1953">Design Variations</tspan>
                </text>
                <text id="Symbols-are-supported-in-up-to-nine-weights-and-three-scales." fill="#000000" fill-rule="nonzero" font-family="Helvetica" font-size="13" font-weight="normal">
                    <tspan x="263" y="1971">Symbols are supported in up to nine weights and three scales.</tspan>
                </text>
                <text id="For-optimal-layout-with-text-and-other-symbols,-vertically-align" fill="#000000" fill-rule="nonzero" font-family="Helvetica" font-size="13" font-weight="normal">
                    <tspan x="263" y="1989">For optimal layout with text and other symbols, vertically align</tspan>
                </text>
                <text id="symbols-with-the-adjacent-text." fill="#000000" fill-rule="nonzero" font-family="Helvetica" font-size="13" font-weight="normal">
                    <tspan x="263" y="2007">symbols with the adjacent text.</tspan>
                </text>
                <line x1="776" y1="1919" x2="776" y2="1933" id="Path" stroke="#00AEEF" stroke-width="0.5"></line>
                <g id="Group" transform="translate(778.490230, 1918.712900)" fill="#000000" fill-rule="nonzero">
                    <path d="M0.82032,14.414053 C1.33789,14.414053 1.5918,14.2187406 1.77735,13.681631 L3.03711,10.2246 L8.79887,10.2246 L10.05857,13.681631 C10.24417,14.2187406 10.49807,14.414053 11.00587,14.414053 C11.52347,14.414053 11.85547,14.101553 11.85547,13.613272 C11.85547,13.447256 11.82617,13.300772 11.74807,13.08593 L7.16797,0.8984 C6.94336,0.293 6.54297,0 5.91797,0 C5.3125,0 4.90235,0.293 4.6875,0.8887 L0.10743,13.09569 C0.0293,13.310538 -4.4408921e-16,13.457022 -4.4408921e-16,13.623038 C-4.4408921e-16,14.111319 0.3125,14.414053 0.82032,14.414053 Z M3.51563,8.74999 L5.88868,2.1777 L5.9375,2.1777 L8.31057,8.74999 L3.51563,8.74999 Z" id="Shape"></path>
                </g>
                <line x1="792.836" y1="1919" x2="792.836" y2="1933" id="Path" stroke="#00AEEF" stroke-width="0.5"></line>
                <text id="Margins" fill="#000000" fill-rule="nonzero" font-family="Helvetica-Bold, Helvetica" font-size="13" font-weight="bold">
                    <tspan x="776" y="1953">Margins</tspan>
                </text>
                <text id="Leading-and-trailing-margins-on-the-left-and-right-side-of-each-symbol" fill="#000000" fill-rule="nonzero" font-family="Helvetica" font-size="13" font-weight="normal">
                    <tspan x="776" y="1971">Leading and trailing margins on the left and right side of each symbol</tspan>
                </text>
                <text id="can-be-adjusted-by-modifying-the-x-location-of-the-margin-guidelines." fill="#000000" fill-rule="nonzero" font-family="Helvetica" font-size="13" font-weight="normal">
                    <tspan x="776" y="1989">can be adjusted by modifying the x-location of the margin guidelines.</tspan>
                </text>
                <text id="Modifications-are-automatically-applied-proportionally-to-all" fill="#000000" fill-rule="nonzero" font-family="Helvetica" font-size="13" font-weight="normal">
                    <tspan x="776" y="2007">Modifications are automatically applied proportionally to all</tspan>
                </text>
                <text id="scales-and-weights." fill="#000000" fill-rule="nonzero" font-family="Helvetica" font-size="13" font-weight="normal">
                    <tspan x="776" y="2025">scales and weights.</tspan>
                </text>
                <g id="Group" transform="translate(1291.248126, 1914.517396)" fill="#000000" fill-rule="nonzero">
                    <path d="M0.593673634,20.347834 L2.29289363,22.056824 C3.15226363,22.925964 4.13859363,22.867374 5.06632363,21.841984 L15.2420736,10.631044 C15.5057736,10.718934 15.7791736,10.699404 16.0916736,10.640804 L17.1561736,10.445494 L17.8202736,11.119324 L17.7811736,11.675964 C17.7420736,12.174014 17.8690736,12.554874 18.3573736,13.033384 L19.1190736,13.775574 C19.5975736,14.254084 20.2127736,14.283384 20.6815736,13.814634 L23.5916736,10.894714 C24.0604736,10.425964 24.0409736,9.83026404 23.5623736,9.35174404 L22.7909736,8.59002404 C22.3123736,8.11150404 21.9413736,7.95530404 21.4627736,7.99430404 L20.8866736,8.04310404 L20.2420736,7.40840404 L20.4862736,6.28530404 C20.6131736,5.71890404 20.4569736,5.27950404 19.8709736,4.69350404 L17.6737736,2.50600404 C14.3338736,-0.814295964 9.90027363,-0.736195964 7.00968363,2.15450404 C6.58976363,2.56460404 6.56046363,3.14080404 6.79484363,3.53140404 C7.02921363,3.89280404 7.48820363,4.12710404 8.13277363,3.96110404 C9.59757363,3.61930404 11.1209736,3.56070404 12.5467736,4.49820404 L11.9608736,5.95330404 C11.7655736,6.43180404 11.7362736,6.83220404 11.8631736,7.19350404 L0.798753634,17.584166 C-0.187576366,18.5021352 -0.265706366,19.478698 0.593673634,20.347834 Z M8.50387363,2.52560404 C10.9354736,0.748204036 14.2264736,1.05100404 16.4530736,3.27750404 L18.8846736,5.68960404 C19.1190736,5.92400404 19.1580736,6.10960404 19.0897736,6.45140404 L18.7674736,7.93570404 L20.2713736,9.42010404 L21.2577736,9.36151404 C21.5116736,9.35174404 21.5897736,9.37127404 21.7850736,9.56658404 L22.3612736,10.142764 L19.9198736,12.584164 L19.3436736,12.007994 C19.1483736,11.812684 19.1190736,11.734554 19.1288736,11.470884 L19.1971736,10.494324 L17.7030736,9.00994404 L16.1795736,9.26385404 C15.8573736,9.33221404 15.7108736,9.30291404 15.4666736,9.06854404 L13.4647736,7.06660404 C13.2108736,6.83220404 13.1815736,6.66620404 13.3377736,6.29510404 L14.2166736,4.20530404 C12.6541736,2.75020404 10.6229736,2.12520404 8.59167363,2.72090404 C8.43547363,2.75990404 8.37687363,2.63300404 8.50387363,2.52560404 Z M3.02531363,20.787304 L1.85343363,19.625184 C1.38468363,19.166198 1.49210363,18.824401 1.89249363,18.4630728 L12.7030736,8.28730404 L14.1678736,9.77166404 L4.17765363,20.757994 C3.82609363,21.158384 3.49406363,21.256044 3.02531363,20.787304 Z" id="Shape"></path>
                </g>
                <text id="Exporting" fill="#000000" fill-rule="nonzero" font-family="Helvetica-Bold, Helvetica" font-size="13" font-weight="bold">
                    <tspan x="1289" y="1953">Exporting</tspan>
                </text>
                <text id="Symbols-should-be-outlined-when-exporting-to-ensure-the" fill="#000000" fill-rule="nonzero" font-family="Helvetica" font-size="13" font-weight="normal">
                    <tspan x="1289" y="1971">Symbols should be outlined when exporting to ensure the</tspan>
                </text>
                <text id="design-is-preserved-when-submitting-to-Xcode." fill="#000000" fill-rule="nonzero" font-family="Helvetica" font-size="13" font-weight="normal">
                    <tspan x="1289" y="1989">design is preserved when submitting to Xcode.</tspan>
                </text>
                <text id="template-version" fill="#000000" fill-rule="nonzero" font-family="Helvetica" font-size="13" font-weight="normal">
                    <tspan x="2952" y="1933">Template v.2.0</tspan>
                </text>
                <text id="Requires-Xcode-12-or-greater" fill="#000000" fill-rule="nonzero" font-family="Helvetica" font-size="13" font-weight="normal">
                    <tspan x="2865" y="1951">Requires Xcode 12 or greater</tspan>
                </text>
                <text id="Generated-from-person.crop.circle" fill="#000000" fill-rule="nonzero" font-family="Helvetica" font-size="13" font-weight="normal">
                    <tspan x="2838" y="1969">Generated from person.crop.circle</tspan>
                </text>
                <text id="Typeset-at-100-points" fill="#000000" fill-rule="nonzero" font-family="Helvetica" font-size="13" font-weight="normal">
                    <tspan x="2912" y="1987">Typeset at 100 points</tspan>
                </text>
                <text id="Small" fill="#000000" fill-rule="nonzero" font-family="Helvetica" font-size="13" font-weight="normal">
                    <tspan x="263" y="726">Small</tspan>
                </text>
                <text id="Medium" fill="#000000" fill-rule="nonzero" font-family="Helvetica" font-size="13" font-weight="normal">
                    <tspan x="263" y="1156">Medium</tspan>
                </text>
                <text id="Large" fill="#000000" fill-rule="nonzero" font-family="Helvetica" font-size="13" font-weight="normal">
                    <tspan x="263" y="1586">Large</tspan>
                </text>
            </g>
            <g id="Guides" transform="translate(263.000000, 625.041000)">
                <g id="H-reference" transform="translate(76.976562, 0.500000)" fill="#27AAE1" fill-rule="nonzero">
                    <path d="M-1.22124533e-15,70.459 L2.685548,70.459 L12.011738,45.9961 L44.775438,45.9961 L54.150438,70.459 L56.787138,70.459 L29.638638,0 L27.148438,0 L-1.22124533e-15,70.459 Z M28.369138,3.3203 L28.466838,3.3203 L43.896438,43.75 L12.890638,43.75 L28.369138,3.3203 Z" id="Shape"></path>
                </g>
                <line x1="0" y1="70.959" x2="2773" y2="70.959" id="Baseline-S" stroke="#27AAE1" stroke-width="0.5"></line>
                <line x1="0" y1="0.5" x2="2773" y2="0.5" id="Capline-S" stroke="#27AAE1" stroke-width="0.5"></line>
                <g id="H-reference" transform="translate(76.976562, 430.500000)" fill="#27AAE1" fill-rule="nonzero">
                    <path d="M-1.22124533e-15,70.459 L2.685548,70.459 L12.011738,45.9961 L44.775438,45.9961 L54.150438,70.459 L56.787138,70.459 L29.638638,0 L27.148438,0 L-1.22124533e-15,70.459 Z M28.369138,3.3203 L28.466838,3.3203 L43.896438,43.75 L12.890638,43.75 L28.369138,3.3203 Z" id="Shape"></path>
                </g>
                <line x1="0" y1="500.959" x2="2773" y2="500.959" id="Baseline-M" stroke="#27AAE1" stroke-width="0.5"></line>
                <line x1="0" y1="430.499" x2="2773" y2="430.499" id="Capline-M" stroke="#27AAE1" stroke-width="0.5"></line>
                <g id="H-reference" transform="translate(76.976562, 860.500000)" fill="#27AAE1" fill-rule="nonzero">
                    <path d="M-1.22124533e-15,70.459 L2.685548,70.459 L12.011738,45.9961 L44.775438,45.9961 L54.150438,70.459 L56.787138,70.459 L29.638638,0 L27.148438,0 L-1.22124533e-15,70.459 Z M28.369138,3.3203 L28.466838,3.3203 L43.896438,43.75 L12.890638,43.75 L28.369138,3.3203 Z" id="Shape"></path>
                </g>
                <line x1="0" y1="930.959" x2="2773" y2="930.959" id="Baseline-L" stroke="#27AAE1" stroke-width="0.5"></line>
                <line x1="0" y1="860.499" x2="2773" y2="860.499" id="Capline-L" stroke="#27AAE1" stroke-width="0.5"></line>
                <line x1="1128.3" y1="405.749" x2="1128.3" y2="525.079" id="left-margin" stroke="#00AEEF" stroke-width="0.5"></line>
                <line x1="1245.39" y1="405.749" x2="1245.39" y2="525.079" id="right-margin" stroke="#00AEEF" stroke-width="0.5"></line>
            </g>
            <g id="Symbols" transform="translate(1386.249300, 620.511700)" fill="#000000" fill-rule="nonzero">
                <g id="Semibold-L" transform="translate(592.000000, 835.209000)">
                    <path d="M65.015,0 C100.921793,0 130.03,29.108207 130.03,65.015 C130.03,100.921793 100.921793,130.03 65.015,130.03 C29.108207,130.03 0,100.921793 0,65.015 C0,29.108207 29.108207,0 65.015,0 Z M39.8056785,101.713968 L39.0348662,102.005279 C36.2120689,103.09063 33.5064443,104.34697 30.9364883,105.757546 C36.3228108,110.269518 42.6158399,113.730767 49.5025717,115.83043 C45.7788963,111.626093 42.5147418,106.884092 39.8056785,101.713968 Z M90.2241896,101.714193 L89.7935799,102.523758 C87.1718992,107.379496 84.0563749,111.845766 80.5277131,115.829757 C87.4141601,113.730767 93.7071892,110.269518 99.0928724,105.760328 C96.2907492,104.219163 93.3261738,102.864058 90.2241896,101.714193 Z M70.8897339,97.505415 L70.8892815,111.641499 C74.4349966,107.909358 77.5564812,103.597272 80.1474745,98.8225512 C77.1445603,98.1956567 74.0534472,97.7519825 70.8897339,97.505415 Z M59.1402661,97.505415 C56.0343556,97.7474776 52.9984168,98.1795102 50.048617,98.786868 L49.8825255,98.8225512 C52.4732861,103.596843 55.5944427,107.908584 59.1397632,111.640494 L59.1402661,97.505415 Z M23.5768349,98.2479445 L24.0790189,97.9355074 C27.6962186,95.7214744 31.5608956,93.7933045 35.6299529,92.1882137 C33.2383791,85.5388748 31.6990692,78.3784763 31.1672672,70.8901506 L12.2198463,70.889865 C13.3520751,81.18014 17.4237175,90.5854793 23.5768349,98.2479445 Z M117.810154,70.889865 L98.8627328,70.8901506 C98.3309308,78.3784763 96.7916209,85.5388748 94.4009556,92.1917705 C98.6586791,93.8702267 102.692615,95.9028051 106.453157,98.2462287 C112.606282,90.5854793 116.677925,81.18014 117.810154,70.889865 Z M59.140381,70.8892381 L41.7782721,70.8897339 C42.2762296,77.2790359 43.5781089,83.3722294 45.5564211,89.0285685 C49.9288161,87.9493022 54.4710726,87.2259175 59.1408516,86.8943389 L59.140381,70.8892381 Z M88.2517279,70.8897339 L70.888381,70.8892381 L70.8891484,86.8943389 C75.5589274,87.2259175 80.1011839,87.9493022 84.4723691,89.0266246 C86.4518911,83.3722294 87.7537704,77.2790359 88.2517279,70.8897339 Z M106.453165,31.7820555 L105.951273,32.0943138 C102.334283,34.3082421 98.4698449,36.2363373 94.4010458,37.8413923 C96.7918004,44.4917611 98.3310807,51.6523399 98.8628039,59.1408516 L117.810044,59.1391362 C116.677661,48.8492514 112.606083,39.4442728 106.453165,31.7820555 Z M23.5756919,31.7832735 L23.1331706,32.3421904 C17.2282953,39.9006476 13.3248956,49.0986245 12.2199562,59.1391362 L31.1671961,59.1408516 C31.6989193,51.6523399 33.2381996,44.4917611 35.6288746,37.838702 C31.3708799,36.1600182 27.3365924,34.127111 23.5756919,31.7832735 Z M45.5566285,41.0031284 L45.3179437,41.6951067 C43.4733375,47.1548727 42.2559372,53.011336 41.7782721,59.1402661 L59.140381,59.1402381 L59.1408516,43.1356611 C54.4707157,42.8040572 49.9281217,42.0805872 45.5566285,41.0031284 Z M84.4735789,41.0014315 L84.3058884,41.0442149 C79.9858898,42.0989928 75.4996725,42.8082899 70.8891484,43.1356611 L70.888381,59.1402381 L88.2517279,59.1402661 C87.7537704,52.7509641 86.4518911,46.6577706 84.4735789,41.0014315 Z M59.1395424,18.3897389 C55.7266858,21.9822542 52.7068952,26.1120841 50.1749358,30.6746091 L49.8831844,31.2088672 C52.8848701,31.8342615 55.9762613,32.2779947 59.1402661,32.524585 L59.1395424,18.3897389 Z M70.8895038,18.3887349 L70.8897339,32.524585 C74.0534472,32.2780175 77.1445603,31.8343433 80.145986,31.20904 C77.5560989,26.4322246 74.4348792,22.120561 70.8895038,18.3887349 Z M49.5021426,14.2005653 L49.0203999,14.3491054 C42.3220044,16.4616926 36.1968637,19.8659314 30.9371276,24.2696721 C33.7400574,25.811261 36.7052108,27.1665656 39.8078177,28.3165506 C42.5154607,23.1463966 45.7786541,18.4048453 49.5021426,14.2005653 Z M80.5284286,14.1998752 L80.7454302,14.4470655 C84.3787205,18.5898525 87.5679826,23.2467186 90.2237954,28.3150277 C93.3257295,27.1655053 96.2903,25.8106305 99.0934878,24.2721748 C93.70745,19.7606999 87.4147694,16.2995684 80.5284286,14.1998752 Z" id="Shape"></path>
                </g>
                <g id="Regular-L" transform="translate(0.000000, 836.428300)">
                    <path d="M63.6,0 C98.7253101,0 127.2,28.4746899 127.2,63.6 C127.2,98.7253101 98.7253101,127.2 63.6,127.2 C28.4746899,127.2 0,98.7253101 0,63.6 C0,28.4746899 28.4746899,0 63.6,0 Z M38.4394974,98.528584 L38.1853033,98.6277823 C34.2902486,100.163435 30.6232548,102.040346 27.2351014,104.211351 C34.0817582,110.348032 42.4883369,114.776528 51.7866977,116.83084 C46.4768408,111.671255 41.95019,105.481193 38.4394974,98.528584 Z M88.7603829,98.5281287 L88.3264293,99.3744278 C84.8799387,105.983375 80.507454,111.880649 75.4152401,116.829048 C84.7124154,114.775993 93.1179133,110.348024 99.9636988,104.214586 C96.5023859,101.992793 92.7498273,100.081833 88.7603829,98.5281287 Z M59.0562252,94.0281602 C55.2674755,94.2666836 51.5807313,94.8010564 48.0261289,95.6032879 L47.2457022,95.7865635 C50.4101295,101.695154 54.4163427,106.907962 59.0562051,111.200896 L59.0562252,94.0281602 Z M68.1437748,94.0281602 L68.1437949,111.200896 C72.7836573,106.907962 76.7898705,101.695154 79.9542978,95.7865635 C76.1599253,94.8810951 72.2106146,94.2841909 68.1437748,94.0281602 Z M20.9104983,97.5064131 L21.4612482,97.1365519 C25.589425,94.4051861 30.0779514,92.0659888 34.8543588,90.1818641 C32.3870345,83.3209734 30.8470022,75.9050746 30.4124787,68.1430554 L9.27225443,68.1422249 C10.1838309,79.1934215 14.3917322,89.309971 20.9104983,97.5064131 Z M117.927746,68.1422249 L96.7875213,68.1430554 C96.3529978,75.9050746 94.8129655,83.3209734 92.3466093,90.1846891 C97.3361242,92.1518623 102.011613,94.6161893 106.289556,97.5049017 C112.808268,89.309971 117.016169,79.1934215 117.927746,68.1422249 Z M59.0564286,68.1421429 L39.5138452,68.1433108 C39.9414423,74.9360436 41.3200114,81.4008974 43.4882435,87.3641989 C48.466198,86.0597439 53.6784783,85.2278549 59.0569446,84.9267644 L59.0564286,68.1421429 Z M68.1424286,68.1421429 L68.1430554,84.9267644 C73.5215217,85.2278549 78.733802,86.0597439 83.7113393,87.3628167 C85.8799886,81.4008974 87.2585577,74.9360436 87.6861548,68.1433108 L68.1424286,68.1421429 Z M106.288708,29.6925885 L105.738213,30.063007 C101.610326,32.7949438 97.1219159,35.1340636 92.3456412,37.0181359 C94.8130712,43.8793207 96.3531298,51.2955611 96.7875771,59.0579426 L117.927746,59.0577751 C117.016132,48.0061298 112.807926,37.8892075 106.288708,29.6925885 Z M20.9104445,29.6950983 L20.6159179,30.0673021 C14.2650337,38.1966672 10.1700253,48.1739453 9.27225443,59.0577751 L30.4124229,59.0579426 C30.8468702,51.2955611 32.3869288,43.8793207 34.8533907,37.0153109 C29.8638758,35.0481377 25.188387,32.5838107 20.9104445,29.6950983 Z M43.4876578,39.8369207 L43.4602123,39.9130449 C41.308072,45.8550723 39.9395244,52.2936148 39.5138115,59.0572247 L59.0564286,59.0571429 L59.0569446,42.2732356 C53.6781171,41.9721249 48.4654979,41.1401444 43.4876578,39.8369207 Z M83.7120891,39.836716 L83.5267063,39.8852744 C78.604958,41.1607348 73.4550588,41.9758658 68.1430554,42.2732356 L68.1424286,59.0571429 L87.6861885,59.0572247 C87.2586521,52.2646435 85.8801866,45.7999206 83.7120891,39.836716 Z M59.0562051,15.9991045 C54.5806599,20.1400075 50.694678,25.1367844 47.5850573,30.78832 L47.2455645,31.4157452 C51.0400747,32.3189049 54.9893854,32.9158091 59.0562252,33.1718398 L59.0562051,15.9991045 Z M68.1437949,15.9991045 L68.1437748,33.1718398 C72.2106146,32.9158091 76.1599253,32.3189049 79.9544355,31.4157452 C76.7902301,25.5053137 72.7838655,20.2922311 68.1437949,15.9991045 Z M51.7847375,10.3709821 L51.3414098,10.4695084 C42.220386,12.5654058 33.973117,16.9496071 27.2363012,22.9854137 C30.6982246,25.2075441 34.4508294,27.1184758 38.4403188,28.6721446 C41.9501125,21.7193688 46.4762981,15.5295432 51.7847375,10.3709821 Z M75.4153022,10.3696022 L75.5742261,10.5259059 C80.814156,15.6534991 85.2848008,21.7883673 88.7599955,28.6704117 C92.7498989,27.1171379 96.502824,25.2063427 99.9646315,22.9884097 C93.1187327,16.852408 84.7128685,12.4241069 75.4153022,10.3696022 Z" id="Shape"></path>
                </g>
                <g id="Semibold-M" transform="translate(608.790700, 420.209000)">
                    <path d="M49.805,0 C77.311542,0 99.61,22.298458 99.61,49.805 C99.61,77.311542 77.311542,99.61 49.805,99.61 C22.298458,99.61 0,77.311542 0,49.805 C0,22.298458 22.298458,0 49.805,0 Z M30.493764,77.9192788 L29.9028149,78.1415505 C27.7401626,78.9730791 25.6672907,79.9356236 23.6983726,81.0163456 C27.825234,84.4724421 32.6462701,87.1240549 37.9221483,88.7325168 C35.0691219,85.5115676 32.5688793,81.8793717 30.493764,77.9192788 Z M69.1167884,77.9186332 L68.78673,78.538734 C66.7786444,82.2580029 64.3923471,85.6789974 61.6896392,88.7306465 C66.9643401,87.1237193 71.7850271,84.4722235 75.9106594,81.0179791 C73.763739,79.8374314 71.4928871,78.7994321 69.1167884,77.9186332 Z M45.3048762,74.6943933 C42.9254976,74.8798228 40.5997243,75.2107896 38.3399427,75.6760741 L38.2128997,75.7037635 C40.1976567,79.361232 42.5887509,82.6643335 45.3047945,85.523217 L45.3048762,74.6943933 Z M54.3051238,74.6943933 L54.3052055,85.523217 C57.0212491,82.6643335 59.4123433,79.361232 61.3971003,75.7037635 C59.0969623,75.2231787 56.7288542,74.8832792 54.3051238,74.6943933 Z M18.060529,75.2624831 L18.6908094,74.8748995 C21.3909743,73.2412079 24.2688335,71.8146667 27.2941775,70.6212631 C25.4623036,65.5271413 24.2830873,60.0416221 23.8757521,54.3048766 L9.36100774,54.3049708 C10.2282436,62.1877354 13.3471456,69.3926344 18.060529,75.2624831 Z M90.2489923,54.3049708 L75.7342479,54.3048766 C75.3269393,60.0412472 74.1478505,65.5264244 72.3165956,70.6228518 C75.5781466,71.9089799 78.6683508,73.4663137 81.5491641,75.2617315 C86.2628544,69.3926344 89.3817564,62.1877354 90.2489923,54.3049708 Z M45.3046667,54.3046667 L32.0043933,54.3051238 C32.385842,59.1997651 33.3831609,63.8675653 34.8986815,68.2007 C38.2476467,67.3739957 41.7275328,66.8197774 45.3051234,66.5657521 L45.3046667,54.3046667 Z M54.3046667,54.3046667 L54.3048766,66.5657521 C57.8821653,66.819756 61.3617659,67.3739022 64.710318,68.1991817 C66.2268391,63.8675653 67.224158,59.1997651 67.6056067,54.3051238 L54.3046667,54.3046667 Z M81.549471,24.3475169 L80.9192519,24.7350686 C78.2190968,26.3687568 75.3412039,27.7953186 72.3158225,28.9887369 C74.1477777,34.0832372 75.3269268,39.5685758 75.7342479,45.3051234 L90.2488822,45.3040293 C89.3814926,37.4216553 86.2626551,30.2171174 81.549471,24.3475169 Z M18.0606325,24.3479846 L17.7212576,24.7758639 C13.1977537,30.566115 10.2075225,37.6123547 9.36111777,45.3040293 L23.8757521,45.3051234 C24.2830732,39.5685758 25.4622223,34.0832372 27.2935739,28.9866766 C24.0318691,27.7006773 20.9415419,26.1433982 18.0606325,24.3479846 Z M34.8988342,31.4106093 L34.7159915,31.9407028 C33.3028995,36.1232494 32.3702975,40.6096979 32.0043933,45.3048762 L45.3046667,45.3046667 L45.3051234,33.0442479 C41.7275328,32.7902226 38.2476467,32.2360043 34.8988342,31.4106093 Z M64.7113185,31.4093 L64.582862,31.4420845 C61.2734979,32.2501042 57.8368003,32.7934651 54.3048766,33.0442479 L54.3046667,45.3046667 L67.6056067,45.3048762 C67.224158,40.4102349 66.2268391,35.7424347 64.7113185,31.4093 Z M45.3047945,14.086783 C42.6900701,16.8390189 40.3765034,20.0029488 38.4367096,23.4984066 L38.2136439,23.9077671 C40.5130377,24.3868213 42.8811458,24.7267208 45.3048762,24.9156067 L45.3047945,14.086783 Z M54.3052055,14.086783 L54.3051238,24.9156067 C56.7288542,24.7267208 59.0969623,24.3868213 61.3963561,23.9077671 C59.4124883,20.2489683 57.0213314,16.9457532 54.3052055,14.086783 Z M37.9206479,10.8790934 L37.5522728,10.9921894 C32.4208683,12.610568 27.7286203,15.2184491 23.6993406,18.5920209 C25.8466714,19.7727805 28.1177498,20.8108525 30.4940921,21.6916931 C32.5687082,17.7315344 35.068466,14.0995759 37.9206479,10.8790934 Z M61.6878517,10.8774832 L62.0928506,11.3401797 C64.7778277,14.4447982 67.1398501,17.9190407 69.116236,21.6907212 C71.4927604,20.8100665 73.7640319,19.7720536 75.9116444,18.5933697 C71.784766,15.1375579 66.9637299,12.4859451 61.6878517,10.8774832 Z" id="Shape"></path>
                </g>
                <g id="Regular-M" transform="translate(13.790700, 420.428300)">
                    <path d="M49.805,0 C77.311542,0 99.61,22.298458 99.61,49.805 C99.61,77.311542 77.311542,99.61 49.805,99.61 C22.298458,99.61 0,77.311542 0,49.805 C0,22.298458 22.298458,0 49.805,0 Z M30.1021592,77.1580518 L29.9028149,77.2351682 C26.8527701,78.4376701 23.9813001,79.9073817 21.3281639,81.6073746 C26.6886101,86.4126906 33.2711198,89.8805138 40.5519197,91.4894698 C36.3953444,87.4486659 32.8510635,82.6018578 30.1021592,77.1580518 Z M69.5078817,77.157071 L69.1682046,77.8198644 C66.469204,82.9954337 63.0450263,87.6136687 59.057208,91.4888022 C66.3388802,89.8805138 72.9213899,86.4126906 78.2823619,81.6092478 C75.5707908,79.8703019 72.632093,78.3737954 69.5078817,77.157071 Z M53.3625215,73.6331718 L53.3631216,87.0812459 C56.9967655,83.7193186 60.1341559,79.6369718 62.6122785,75.0097145 C59.6405165,74.3011084 56.5475444,73.8336473 53.3625215,73.6331718 Z M46.2464792,73.6332347 C43.279625,73.8200312 40.3926464,74.2384901 37.6091407,74.8666942 L36.9977215,75.0097145 C39.4757491,79.6367945 42.612994,83.7190056 46.2464606,87.0808593 L46.2464792,73.6332347 Z M23.8159339,53.3626245 L7.26119284,53.3633833 C7.97528913,62.0170937 11.2704639,69.9389071 16.3751062,76.3572124 C19.726307,74.0923793 23.3872619,72.1624191 27.2941775,70.6212631 C25.362269,65.2487582 24.1562152,59.4412222 23.8159339,53.3626245 Z M75.7940661,53.3626245 C75.4538059,59.4408455 74.2478805,65.2480385 72.3165956,70.6228518 C76.2237926,72.1635855 79.8850864,74.0935175 83.2350747,76.3557107 C88.3398782,69.9380848 91.6347479,62.0166446 92.3488072,53.3633833 L75.7940661,53.3626245 Z M46.2466667,53.3616667 L30.9431718,53.3625215 C31.2780162,58.6823075 32.35768,63.7452961 34.0558137,68.4154535 C37.9531689,67.3932619 42.0351924,66.7417329 46.2473755,66.5059339 L46.2466667,53.3616667 Z M53.3616667,53.3616667 L53.3626245,66.5059339 C57.5747439,66.7417293 61.6567077,67.3932422 65.5548195,68.4137801 C67.25232,63.7452961 68.3319838,58.6823075 68.6668282,53.3625215 L53.3616667,53.3616667 Z M83.2356886,23.253787 L83.0886494,23.3532768 C79.7779111,25.573278 76.1663211,27.4698356 72.3158225,28.9887369 C74.2478099,34.3616218 75.4537959,40.1689767 75.7940661,46.2473755 L92.3488899,46.247619 C91.6350023,37.5939671 88.3400752,29.672163 83.2356886,23.253787 Z M16.3755855,23.254618 L16.1442734,23.5456287 C11.1709851,29.9116203 7.96421561,37.7246655 7.26111015,46.247619 L23.8159339,46.2473755 C24.1562041,40.1689767 25.3621901,34.3616218 27.2935739,28.9866766 C23.38655,27.4462348 19.7254279,25.5165618 16.3755855,23.254618 Z M34.0550037,31.1961736 L34.0335829,31.2558051 C32.3483623,35.9086741 31.2766875,40.9503097 30.9432347,46.2464792 L46.2466667,46.2466667 L46.2473755,33.1040661 C42.0351924,32.8682671 37.9531689,32.2167381 34.0550037,31.1961736 Z M65.554219,31.1946366 L65.4095535,31.234058 C61.5553353,32.2328703 57.5224519,32.871198 53.3626245,33.1040661 L53.3616667,46.2466667 L68.6667653,46.2464792 C68.3318508,40.9270927 67.2522276,35.8644765 65.554219,31.1946366 Z M46.2464606,12.5291407 C42.7418008,15.7718162 39.6988042,19.6846811 37.2637387,24.1102559 L36.9977568,24.6015611 C39.9691728,25.3088176 43.0618087,25.7762549 46.2464792,25.9767653 L46.2464606,12.5291407 Z M53.3631216,12.5287541 L53.3625215,25.9768282 C56.5475444,25.7763527 59.6405165,25.3088916 62.6122432,24.6015611 C60.1341559,19.9730282 56.9967655,15.8906814 53.3631216,12.5287541 Z M40.5530893,8.12091582 L40.2053289,8.19864573 C33.0622083,9.84004565 26.6034129,13.2736463 21.3276381,18.0007522 C24.039277,19.7397439 26.9780834,21.2362956 30.1024148,22.4530445 C32.8513366,17.0078794 36.3959419,12.1605607 40.5530893,8.12091582 Z M59.0580803,8.12053024 L59.5576273,8.61437706 C63.4993972,12.5534617 66.8698599,17.2278099 69.5078408,22.4519482 C72.6320753,21.2355916 75.5707895,19.7393113 78.281579,18.0025479 C72.9213899,13.1973094 66.3388802,9.7294862 59.0580803,8.12053024 Z" id="Shape"></path>
                </g>
                <g id="Semibold-S" transform="translate(616.790700, -0.000000)">
                    <path d="M40.235,0 C62.4561769,0 80.47,18.0138231 80.47,40.235 C80.47,62.4561769 62.4561769,80.47 40.235,80.47 C18.0138231,80.47 0,62.4561769 0,40.235 C0,18.0138231 18.0138231,0 40.235,0 Z M24.6344068,62.9471389 L24.1570075,63.1266998 C22.4102745,63.7983096 20.7360402,64.5757162 19.1457473,65.4485546 C22.479247,68.2415076 26.3739889,70.3835386 30.6361666,71.6828428 C28.3306907,69.0806871 26.3108224,66.146364 24.6344068,62.9471389 Z M55.8360491,62.9466193 L55.5694023,63.4475647 C53.9468685,66.4527351 52.018683,69.216855 49.8347995,71.6824778 C54.0964388,70.3834082 57.9915346,68.2410777 61.3249337,65.4500387 C59.5901396,64.4967448 57.7556074,63.6581831 55.8360491,62.9466193 Z M36.5993886,60.341926 C34.6772701,60.4917281 32.7984543,60.7590948 30.9729463,61.1349632 L30.8702452,61.1572041 C32.4737411,64.1121185 34.4055462,66.7807161 36.5998967,69.0903946 L36.5993886,60.341926 Z M43.8698599,60.3418675 L43.8701033,69.0903946 C46.0644538,66.7807161 47.9962589,64.1121185 49.5997548,61.1572041 C47.7414281,60.7690669 45.8281161,60.4944538 43.8698599,60.3418675 Z M14.5910932,60.801944 L14.9011317,60.6082068 C17.1395817,59.2381461 19.5312784,58.0448476 22.0494618,57.0514927 C20.5698182,52.9363217 19.617237,48.5052275 19.2881105,43.8712057 L7.56229504,43.8702966 C8.26294509,50.2388884 10.7828882,56.0597812 14.5910932,60.801944 Z M72.907705,43.8702966 L61.1818895,43.8712057 C60.852763,48.5052275 59.9001818,52.9363217 58.4207711,57.0533691 C61.0559096,58.0922316 63.5525595,59.3502873 65.8799984,60.8007482 C69.6871118,56.0597812 72.2070549,50.2388884 72.907705,43.8702966 Z M36.599381,43.8702381 L25.8548024,43.8708577 C26.1629903,47.8249619 26.9687011,51.5958112 28.1930346,55.0963011 C30.8986636,54.428079 33.7097679,53.9803861 36.5997958,53.7751822 L36.599381,43.8702381 Z M54.6151976,43.8708577 L43.869381,43.8702381 L43.8702042,53.7751822 C46.7605889,53.9804114 49.5720306,54.4281896 52.2775659,55.0950704 C53.5012989,51.5958112 54.3070097,47.8249619 54.6151976,43.8708577 Z M65.8789068,19.668056 L65.56849,19.8619903 C63.3299595,21.2320829 60.9384801,22.4252477 58.4205382,23.4185073 C59.9002039,27.5335881 60.8528822,31.9651944 61.1819585,36.5997663 L72.9075951,36.5987051 C72.2067916,30.2305033 69.6869129,24.409971 65.8789068,19.668056 Z M14.5905533,19.66942 L14.3161289,20.015197 C10.6618493,24.692809 8.24620074,30.3850523 7.56240489,36.5987051 L19.2880415,36.5997663 C19.6171178,31.9651944 20.5697961,27.5335881 22.0494182,23.4161039 C19.4144019,22.3775013 16.9178777,21.1196715 14.5905533,19.66942 Z M28.1934361,25.3751766 L28.0453351,25.8033164 C26.9037864,29.1821348 26.1503891,32.8064526 25.8547832,36.5993886 L36.599381,36.5992381 L36.5997958,26.6948178 C33.7097679,26.4896139 30.8986636,26.041921 28.1934361,25.3751766 Z M52.2772358,25.3744719 L52.1733049,25.4005074 C49.4998257,26.0532684 46.7234794,26.4922235 43.8702042,26.6948178 L43.869381,36.5992381 L54.6152168,36.5993886 C54.3070658,32.6454857 53.5014429,28.8748166 52.2772358,25.3744719 Z M36.599674,11.3798398 C34.4872984,13.6032765 32.6182247,16.1593197 31.0511196,18.9832023 L30.8706113,19.3138409 C32.7282154,19.7008665 34.6413335,19.9754712 36.5993886,20.128074 L36.599674,11.3798398 Z M43.870326,11.3798398 L43.8698599,20.1281325 C45.8281161,19.9755462 47.7414281,19.7009331 49.5992157,19.313877 C47.9960219,16.3575791 46.0644191,13.6892904 43.870326,11.3798398 Z M49.8338334,8.78715724 L49.9697924,8.94078099 C52.218528,11.5046247 54.1923842,14.3868436 55.8360473,17.5237277 C57.755495,16.8121043 59.5899263,15.9735271 61.3244929,15.0214373 C57.9915346,12.2289223 54.0964388,10.0865918 49.8338334,8.78715724 Z M30.6351286,8.78765849 L30.3366268,8.880047 C26.1910229,10.1875168 22.4002254,12.2944323 19.1450663,15.0199613 C20.8801495,15.9734151 22.7150252,16.8121066 24.6349545,17.5237527 C26.310766,14.3242796 28.330482,11.3897432 30.6351286,8.78765849 Z" id="Shape"></path>
                </g>
                <g id="Regular-S" transform="translate(23.790700, 0.830100)">
                    <path d="M39.43,0 C61.2065877,0 78.86,17.6534123 78.86,39.43 C78.86,61.2065877 61.2065877,78.86 39.43,78.86 C17.6534123,78.86 0,61.2065877 0,39.43 C0,17.6534123 17.6534123,0 39.43,0 Z M23.8316634,61.0853839 L23.6736872,61.1461235 C21.2590295,62.0981195 18.9857445,63.2616577 16.8853076,64.6075033 C21.1303234,68.4126407 26.3416142,71.1577959 32.1056777,72.4313481 C28.8143425,69.2328122 26.0081166,65.3954505 23.8316634,61.0853839 Z M55.0289824,61.0844724 L54.7596086,61.6090202 C52.6225214,65.7070716 49.9111475,69.3637552 46.7534311,72.4319353 C52.5182364,71.1580133 57.730251,68.4124287 61.9749768,64.6092045 C59.8293203,63.2327834 57.5026009,62.0478576 55.0289824,61.0844724 Z M36.6128212,58.2945139 C34.2639792,58.4423965 31.9783747,58.7736866 29.7746897,59.2710321 L29.2909991,59.3849363 C31.2528187,63.0479571 33.7364879,66.2796335 36.6129788,68.9410479 L36.6128212,58.2945139 Z M42.2471788,58.2945139 L42.247439,68.9406613 C45.1237526,66.2793205 47.6072763,63.0477797 49.5690009,59.3849363 C47.2162484,58.823223 44.7681359,58.4532328 42.2471788,58.2945139 Z M18.8547761,42.2464734 L5.74866192,42.2479242 C6.31416866,49.0990019 8.92311167,55.3706073 12.9645928,60.4518421 C15.6167555,58.6581631 18.5154647,57.1300272 21.6089463,55.9097857 C20.0788369,51.6558893 19.1241472,47.058463 18.8547761,42.2464734 Z M60.0052239,42.2464734 C59.7358528,47.058463 58.7811631,51.6558893 57.2522288,55.9110172 C60.3450388,57.1306748 63.2433024,58.6584028 65.8952138,60.4491376 C69.9372303,55.3697851 72.5458684,49.0985529 73.1113381,42.2479242 L60.0052239,42.2464734 Z M36.6130476,42.2459048 L24.4973418,42.2467149 C24.7624454,46.4580982 25.6171506,50.4661969 26.9614434,54.163331 C30.0470521,53.3544069 33.2787658,52.838596 36.6135266,52.6519189 L36.6130476,42.2459048 Z M42.2460476,42.2459048 L42.2465059,52.6519207 C45.5808947,52.8385792 48.8122592,53.354298 51.8981,54.1621211 C53.243004,50.4654719 54.0975785,46.4577174 54.3626582,42.2467149 L42.2460476,42.2459048 Z M65.8962019,18.409157 L65.555237,18.638804 C62.9956139,20.3316354 60.2125895,21.7820195 57.2510537,22.9502143 C58.7811597,27.2041011 59.7358485,31.8015163 60.0052221,36.6134941 L73.1114206,36.6130763 C72.5461224,29.7620577 69.9374271,23.4904622 65.8962019,18.409157 Z M12.9643144,18.4105438 L12.7812208,18.6407818 C8.84404483,23.6805116 6.30531842,29.8657891 5.74857935,36.6130763 L18.8547779,36.6134941 C19.1241515,31.8015163 20.0788403,27.2041011 21.6077712,22.9489828 C18.5147778,21.7292529 15.6163539,20.201416 12.9643144,18.4105438 Z M26.9608991,24.6976169 L26.9439649,24.7448327 C25.6097906,28.4284683 24.7613572,32.4198884 24.497371,36.6128212 L36.6130476,36.6129048 L36.6135266,26.2080811 C33.2787658,26.021404 30.0470521,25.5055931 26.9608991,24.6976169 Z M51.8988894,24.6975842 L51.7839313,24.7276159 C48.732588,25.5183648 45.5397971,26.0237214 42.2465059,26.2080793 L42.2460476,36.6129048 L54.362629,36.6128212 C54.0975137,32.4019549 53.2429411,28.3943289 51.8988894,24.6975842 Z M36.6129788,9.91895207 C33.8382862,12.4861797 31.4291036,15.5840206 29.5012392,19.0877902 L29.2905835,19.4767311 C31.6430595,20.0366724 34.0915077,20.4067447 36.6128212,20.5654861 L36.6129788,9.91895207 Z M42.247439,9.91933867 L42.2471788,20.5654861 C44.7684923,20.4067447 47.2169405,20.0366724 49.5694165,19.4767311 C47.6077294,15.8128098 45.124015,12.5809222 42.247439,9.91933867 Z M32.1057678,6.42884692 L31.8300596,6.49076601 C26.1750287,7.79022151 21.0617525,10.5084954 16.8850232,14.2507955 C19.0309204,15.6273505 21.357667,16.812269 23.8313132,17.7756427 C26.0081527,13.4645597 28.8145233,9.62696694 32.1057678,6.42884692 Z M46.7533222,6.42843098 L46.9779318,6.64822965 C50.1728918,9.80187172 52.90132,13.5624729 55.0282915,17.7745269 C57.50215,16.8115284 59.8290132,15.62685 61.975337,14.2517365 C57.730251,10.4475713 52.5182364,7.70198671 46.7533222,6.42843098 Z" id="Shape"></path>
                </g>
            </g>
        </g>
    </g>
</svg>