<svg width="24" height="24" viewBox="0 0 24 24" fill="none" xmlns="http://www.w3.org/2000/svg">
<path fill-rule="evenodd" clip-rule="evenodd" d="M11.25 4.75C7.93629 4.75 5.25 7.43629 5.25 10.75C5.25 10.8337 5.25171 10.9169 5.25509 10.9996C5.27102 11.3898 4.98497 11.7268 4.59745 11.7746C2.99278 11.9724 1.75 13.3416 1.75 15C1.75 16.7949 3.20507 18.25 5 18.25H17.5C20.1234 18.25 22.25 16.1234 22.25 13.5C22.25 10.8766 20.1234 8.75 17.5 8.75C17.4759 8.75 17.4518 8.75018 17.4277 8.75054C17.1278 8.755 16.854 8.58032 16.7317 8.30642C15.7952 6.20919 13.6922 4.75 11.25 4.75ZM3.75738 10.4144C3.93294 6.42798 7.22034 3.25 11.25 3.25C14.134 3.25 16.6364 4.87776 17.8911 7.26204C21.1607 7.46392 23.75 10.1796 23.75 13.5C23.75 16.9518 20.9518 19.75 17.5 19.75H5C2.37665 19.75 0.25 17.6234 0.25 15C0.25 12.8063 1.73647 10.9608 3.75738 10.4144Z" fill="#303233"/>
</svg>
