<svg width="24" height="24" viewBox="0 0 24 24" fill="none" xmlns="http://www.w3.org/2000/svg">
<path fill-rule="evenodd" clip-rule="evenodd" d="M11.25 5C8.07436 5 5.5 7.57436 5.5 10.75C5.5 10.8303 5.50164 10.9101 5.50488 10.9894C5.52612 11.5096 5.14472 11.9591 4.62803 12.0227C3.14711 12.2052 2 13.4694 2 15C2 16.6569 3.34315 18 5 18H17.5C19.9853 18 22 15.9853 22 13.5C22 11.0147 19.9853 9 17.5 9C17.4771 9 17.4543 9.00017 17.4314 9.00051C17.0315 9.00646 16.6665 8.77355 16.5034 8.40835C15.6057 6.3979 13.59 5 11.25 5ZM3.51759 10.2237C3.78819 6.18892 7.14669 3 11.25 3C14.1806 3 16.7293 4.62648 18.0462 7.02263C21.3805 7.30003 24 10.0941 24 13.5C24 17.0899 21.0898 20 17.5 20H5C2.23858 20 0 17.7614 0 15C0 12.7544 1.47969 10.8556 3.51759 10.2237Z" fill="#303233"/>
</svg>
