<svg width="24" height="24" viewBox="0 0 24 24" fill="none" xmlns="http://www.w3.org/2000/svg">
<path fill-rule="evenodd" clip-rule="evenodd" d="M5.31981 1.93C7.07541 1.3448 9.43715 1 12 1C14.5629 1 16.9246 1.3448 18.6802 1.93C19.5528 2.22085 20.331 2.58923 20.9117 3.04685C21.4811 3.49559 22 4.14805 22 5V19C22 19.8494 21.4868 20.502 20.9179 20.9528C20.3391 21.4115 19.5629 21.7802 18.6917 22.071C16.9389 22.6562 14.5768 23 12 23C9.42324 23 7.06109 22.6562 5.30833 22.071C4.43712 21.7802 3.66091 21.4115 3.08206 20.9528C2.51319 20.502 2 19.8494 2 19V5C2 4.14805 2.51889 3.49559 3.08829 3.04685C3.66896 2.58923 4.44724 2.22085 5.31981 1.93ZM4 4.99994C4 4.99994 3.99998 5.00521 4.00305 5.01529C4.00645 5.02644 4.01483 5.04845 4.03507 5.08143C4.07752 5.15057 4.16408 5.25453 4.32624 5.38232C4.65642 5.64253 5.19616 5.9206 5.95227 6.17264C7.45402 6.67322 9.59229 7 12 7C14.4077 7 16.546 6.67322 18.0477 6.17264C18.8038 5.9206 19.3436 5.64253 19.6738 5.38232C19.8359 5.25453 19.9225 5.15057 19.9649 5.08143C19.9852 5.04845 19.9935 5.02644 19.9969 5.01529C20 5.00521 20 5.00006 20 5.00006C20 5.00006 20 4.99479 19.9969 4.98471C19.9935 4.97356 19.9852 4.95155 19.9649 4.91857C19.9225 4.84943 19.8359 4.74547 19.6738 4.61768C19.3436 4.35747 18.8038 4.0794 18.0477 3.82736C16.546 3.32678 14.4077 3 12 3C9.59229 3 7.45402 3.32678 5.95227 3.82736C5.19616 4.0794 4.65642 4.35747 4.32624 4.61768C4.16408 4.74547 4.07752 4.84943 4.03507 4.91857C4.01483 4.95155 4.00645 4.97356 4.00305 4.98471C3.99998 4.99479 4 4.99994 4 4.99994ZM4 7.5266V12.0007C4.00012 12.0028 4.00068 12.0091 4.00337 12.018C4.00692 12.0298 4.01541 12.0521 4.03554 12.0851C4.07769 12.1543 4.16345 12.258 4.32416 12.3853C4.65156 12.6447 5.18785 12.9223 5.94163 13.174C7.43888 13.6738 9.57673 14 12 14C14.4232 14 16.5611 13.6738 18.0583 13.174C18.8121 12.9223 19.3484 12.6447 19.6758 12.3853C19.8365 12.258 19.9223 12.1543 19.9644 12.0851C19.9845 12.0521 19.993 12.0298 19.9966 12.018C19.9977 12.0143 19.9988 12.0105 20 12.0068V7.5266C19.5988 7.73177 19.1533 7.91229 18.6802 8.07C16.9246 8.6552 14.5629 9 12 9C9.43715 9 7.07541 8.6552 5.31981 8.07C4.84666 7.91229 4.40123 7.73177 4 7.5266ZM20 14.5318C19.6021 14.7354 19.1606 14.9145 18.6916 15.071C16.9389 15.6562 14.5767 16 12 16C9.4232 16 7.06106 15.6562 5.3083 15.071C4.83936 14.9145 4.39793 14.7354 4 14.5318V19C4 19 4.00008 19.007 4.0034 19.018C4.00695 19.0298 4.01544 19.0521 4.03558 19.0851C4.07772 19.1543 4.16348 19.258 4.32419 19.3853C4.65159 19.6447 5.18788 19.9223 5.94167 20.174C7.43891 20.6738 9.57676 21 12 21C14.4232 21 16.5611 20.6738 18.0583 20.174C18.8121 19.9223 19.3484 19.6447 19.6758 19.3853C19.8365 19.258 19.9223 19.1543 19.9644 19.0851C19.9846 19.0521 19.993 19.0298 19.9966 19.018C19.9999 19.007 20 19 20 19V14.5318Z" fill="#303233"/>
</svg>
