<svg width="24" height="24" viewBox="0 0 24 24" fill="none" xmlns="http://www.w3.org/2000/svg">
<path fill-rule="evenodd" clip-rule="evenodd" d="M12 1.25C11.8011 1.25 11.6103 1.32902 11.4697 1.46967C11.329 1.61032 11.25 1.80109 11.25 2V12C11.25 12.4142 11.5858 12.75 12 12.75H22C22.4142 12.75 22.75 12.4142 22.75 12C22.75 10.5883 22.4719 9.1904 21.9317 7.88615C21.3915 6.5819 20.5996 5.39683 19.6014 4.3986C18.6032 3.40037 17.4181 2.60853 16.1138 2.0683C14.8096 1.52806 13.4117 1.25 12 1.25ZM12.75 11.25V2.78045C13.7078 2.85837 14.6492 3.0852 15.5398 3.45411C16.6621 3.91897 17.6818 4.60032 18.5407 5.45926C19.3997 6.3182 20.081 7.33792 20.5459 8.46018C20.9148 9.35082 21.1416 10.2922 21.2195 11.25H12.75Z" fill="#303233"/>
<path d="M8.30037 3.5174C8.68001 3.35173 8.85347 2.90967 8.6878 2.53003C8.52213 2.15039 8.08007 1.97693 7.70043 2.1426C6.09103 2.84492 4.67817 3.93079 3.58538 5.30528C2.49259 6.67978 1.75314 8.30104 1.43168 10.0273C1.11021 11.7536 1.21652 13.5324 1.74132 15.2081C2.26611 16.8838 3.1934 18.4055 4.44213 19.64C5.69086 20.8746 7.22299 21.7844 8.90459 22.29C10.5862 22.7957 12.366 22.8816 14.0886 22.5405C15.8111 22.1993 17.4238 21.4414 18.7857 20.333C20.1476 19.2246 21.2173 17.7994 21.9012 16.1821C22.0625 15.8006 21.884 15.3605 21.5025 15.1992C21.121 15.0379 20.6809 15.2164 20.5196 15.5979C19.9312 16.9895 19.0107 18.2159 17.8389 19.1696C16.667 20.1234 15.2793 20.7755 13.7971 21.0691C12.315 21.3626 10.7835 21.2886 9.33651 20.8536C7.88955 20.4185 6.5712 19.6356 5.49672 18.5733C4.42223 17.511 3.62433 16.2017 3.17276 14.7598C2.72119 13.3179 2.62972 11.7874 2.90633 10.3019C3.18293 8.81652 3.81921 7.42148 4.75952 6.23878C5.69982 5.05607 6.91554 4.12172 8.30037 3.5174Z" fill="#303233"/>
</svg>
