<svg width="24" height="24" viewBox="0 0 24 24" fill="none" xmlns="http://www.w3.org/2000/svg">
<path fill-rule="evenodd" clip-rule="evenodd" d="M12 1C11.7348 1 11.4804 1.10536 11.2929 1.29289C11.1054 1.48043 11 1.73478 11 2V12C11 12.5523 11.4477 13 12 13H22C22.5523 13 23 12.5523 23 12C23 10.5555 22.7155 9.12506 22.1627 7.79048C21.6099 6.4559 20.7996 5.24327 19.7782 4.22183C18.7567 3.20038 17.5441 2.39013 16.2095 1.83733C14.8749 1.28452 13.4445 1 12 1ZM13 11V3.05573C13.8386 3.14949 14.6615 3.3609 15.4442 3.68508C16.5361 4.13738 17.5282 4.80031 18.364 5.63604C19.1997 6.47177 19.8626 7.46392 20.3149 8.55585C20.6391 9.33849 20.8505 10.1614 20.9443 11H13Z" fill="#303233"/>
<path d="M8.40036 3.74653C8.90655 3.52564 9.13783 2.93623 8.91694 2.43004C8.69604 1.92385 8.10663 1.69258 7.60044 1.91347C5.95361 2.63212 4.5079 3.74324 3.38969 5.1497C2.27149 6.55616 1.51484 8.21513 1.1859 9.98156C0.856961 11.748 0.965745 13.5681 1.50274 15.2828C2.03974 16.9975 2.9886 18.5545 4.26637 19.8178C5.54413 21.081 7.1119 22.0121 8.8326 22.5294C10.5533 23.0468 12.3746 23.1348 14.1371 22.7857C15.8997 22.4366 17.5499 21.6611 18.9435 20.5269C20.3371 19.3927 21.4316 17.9344 22.1314 16.2795C22.3465 15.7708 22.1085 15.1841 21.5999 14.969C21.0912 14.7539 20.5045 14.9919 20.2894 15.5005C19.7168 16.8546 18.8213 18.0477 17.6811 18.9757C16.5408 19.9037 15.1907 20.5382 13.7486 20.8238C12.3065 21.1095 10.8163 21.0375 9.40849 20.6141C8.00065 20.1908 6.71793 19.4291 5.67248 18.3955C4.62704 17.3619 3.8507 16.088 3.41133 14.6851C2.97197 13.2822 2.88297 11.793 3.1521 10.3477C3.42123 8.90243 4.04031 7.5451 4.9552 6.39436C5.8701 5.24362 7.05296 4.33452 8.40036 3.74653Z" fill="#303233"/>
</svg>
