<svg width="24" height="24" viewBox="0 0 24 24" fill="none" xmlns="http://www.w3.org/2000/svg">
<path d="M10.6054 2.10688C12.7524 1.80482 14.9393 2.20868 16.8367 3.2576C18.7342 4.30652 20.2393 5.94369 21.1254 7.92242C22.0115 9.90115 22.2305 12.1142 21.7494 14.2283C21.2683 16.3423 20.1132 18.2427 18.4582 19.6431C16.8031 21.0436 14.7377 21.8683 12.5733 21.9928C10.4088 22.1174 8.26244 21.5352 6.45764 20.3338C4.65284 19.1325 3.28735 17.3772 2.56691 15.3323C2.38339 14.8114 2.65689 14.2404 3.17779 14.0568C3.69869 13.8733 4.26974 14.1468 4.45326 14.6677C5.02961 16.3036 6.122 17.7079 7.56584 18.6689C9.00968 19.63 10.7268 20.0958 12.4583 19.9961C14.1899 19.8965 15.8422 19.2368 17.1663 18.1164C18.4903 16.996 19.4144 15.4757 19.7992 13.7845C20.1841 12.0933 20.0089 10.3228 19.3 8.7398C18.5912 7.15682 17.3871 5.84709 15.8691 5.00795C14.3512 4.16881 12.6016 3.84573 10.8841 4.08737C9.16655 4.32902 7.57407 5.12231 6.34659 6.34772C6.33945 6.35484 6.33221 6.36186 6.32486 6.36876L3.52465 9H7C7.55228 9 8 9.44772 8 10C8 10.5523 7.55228 11 7 11H1C0.447715 11 0 10.5523 0 10V4C0 3.44772 0.447715 3 1 3C1.55228 3 2 3.44772 2 4V7.68823L4.94457 4.92135C6.47743 3.39582 8.46365 2.40822 10.6054 2.10688Z" fill="#303233"/>
<path d="M13 7C13 6.44772 12.5523 6 12 6C11.4477 6 11 6.44772 11 7V12C11 12.3788 11.2142 12.7251 11.5529 12.8945L11.556 12.896L14.5528 14.3944C15.0468 14.6414 15.6474 14.4412 15.8944 13.9472C16.1414 13.4532 15.9412 12.8526 15.4472 12.6056L13 11.382V7Z" fill="#303233"/>
</svg>
