<svg width="24" height="24" viewBox="0 0 24 24" fill="none" xmlns="http://www.w3.org/2000/svg">
<path d="M10.6401 2.35438C12.7333 2.05987 14.8656 2.45363 16.7156 3.47633C18.5656 4.49903 20.0331 6.09527 20.897 8.02453C21.7609 9.95379 21.9745 12.1116 21.5054 14.1727C21.0364 16.2339 19.9101 18.0868 18.2965 19.4522C16.6828 20.8177 14.6691 21.6217 12.5587 21.7432C10.4483 21.8646 8.35564 21.297 6.59596 20.1257C4.83628 18.9544 3.50492 17.2429 2.8025 15.2492C2.66486 14.8585 2.86998 14.4302 3.26066 14.2926C3.65133 14.1549 4.07962 14.3601 4.21726 14.7507C4.81162 16.4377 5.93815 17.8859 7.42711 18.877C8.91607 19.8681 10.6868 20.3484 12.4725 20.2457C14.2582 20.1429 15.9621 19.4626 17.3275 18.3072C18.693 17.1518 19.6459 15.584 20.0428 13.8399C20.4397 12.0958 20.259 10.27 19.528 8.63757C18.797 7.00512 17.5552 5.65446 15.9899 4.7891C14.4245 3.92373 12.6203 3.59055 10.849 3.83975C9.07784 4.08895 7.4356 4.90703 6.16976 6.17073C6.16441 6.17607 6.15897 6.18134 6.15346 6.18651L2.8933 9.24994H7C7.41421 9.24994 7.75 9.58573 7.75 9.99994C7.75 10.4142 7.41421 10.7499 7 10.7499H1C0.784552 10.7499 0.590321 10.6591 0.453525 10.5136C0.32749 10.3794 0.25 10.1986 0.25 9.99994V3.99994C0.25 3.58573 0.585786 3.24994 1 3.24994C1.41421 3.24994 1.75 3.58573 1.75 3.99994V8.26594L5.11819 5.101C6.61307 3.61219 8.55064 2.64835 10.6401 2.35438Z" fill="#303233"/>
<path d="M12 6.24994C12.4142 6.24994 12.75 6.58573 12.75 6.99994V11.5364L15.3354 12.8291C15.7059 13.0144 15.8561 13.4649 15.6708 13.8353C15.4856 14.2058 15.0351 14.356 14.6646 14.1708L11.6646 12.6708C11.4105 12.5437 11.25 12.284 11.25 11.9999V6.99994C11.25 6.58573 11.5858 6.24994 12 6.24994Z" fill="#303233"/>
</svg>
