<svg width="16" height="16" viewBox="0 0 16 16" fill="none" xmlns="http://www.w3.org/2000/svg">
<g clip-path="url(#clip0_1831_4027)">
<path fill-rule="evenodd" clip-rule="evenodd" d="M12.5078 4.30627C13.2495 3.56459 14.452 3.56458 15.1937 4.30624C15.9354 5.04793 15.9354 6.25048 15.1937 6.99217L10.9962 11.1896C10.9914 11.1944 10.9864 11.1994 10.9813 11.2046C10.9267 11.2594 10.8515 11.3349 10.7633 11.3997C10.6869 11.4558 10.605 11.5039 10.5189 11.5435C10.4195 11.5891 10.317 11.6182 10.2425 11.6393C10.2355 11.6413 10.2287 11.6432 10.2222 11.6451L8.20604 12.2211C7.94415 12.2959 7.66227 12.2229 7.46967 12.0303C7.27707 11.8377 7.20403 11.5558 7.27886 11.2939L7.8549 9.27779C7.85676 9.27128 7.85868 9.26449 7.86068 9.25745C7.88178 9.18299 7.91083 9.0805 7.9565 8.98104C7.99603 8.89493 8.04421 8.81307 8.10028 8.73669C8.16505 8.64846 8.24053 8.57329 8.29537 8.51869C8.30055 8.51353 8.30555 8.50855 8.31034 8.50376L12.5078 4.30627ZM14.1331 5.36692C13.9772 5.21102 13.7244 5.21103 13.5685 5.36693L9.371 9.56442L9.32711 9.60845C9.32373 9.61188 9.32072 9.61494 9.31802 9.61769C9.31693 9.62138 9.31571 9.6255 9.31436 9.63012L9.29718 9.68987L9.09202 10.408L9.8101 10.2028L9.86985 10.1856C9.87447 10.1843 9.87859 10.183 9.88228 10.1819C9.88503 10.1793 9.8881 10.1762 9.89152 10.1729L9.93555 10.129L14.1331 5.93151C14.289 5.7756 14.289 5.52283 14.1331 5.36692Z" fill="#FAFAFB"/>
<path fill-rule="evenodd" clip-rule="evenodd" d="M4.58969 0.75H8.53031C9.05056 0.74999 9.48593 0.749981 9.84183 0.779059C10.2134 0.809415 10.5639 0.875164 10.8958 1.04428C11.4038 1.30314 11.8169 1.71619 12.0757 2.22423C12.2638 2.59329 12.117 3.04493 11.748 3.23297C11.3789 3.42102 10.9273 3.27428 10.7392 2.90521C10.6242 2.67942 10.4406 2.49584 10.2148 2.38079C10.1296 2.33737 9.99847 2.29685 9.71968 2.27408C9.43214 2.25058 9.05843 2.25 8.5 2.25H4.62C4.06157 2.25 3.68786 2.25058 3.40032 2.27408C3.12153 2.29685 2.99043 2.33737 2.90521 2.38079C2.67942 2.49584 2.49584 2.67942 2.38079 2.90521C2.33737 2.99043 2.29685 3.12153 2.27408 3.40032C2.25058 3.68786 2.25 4.06157 2.25 4.62V11.38C2.25 11.9384 2.25058 12.3121 2.27408 12.5997C2.29685 12.8785 2.33737 13.0096 2.38079 13.0948C2.49584 13.3206 2.67942 13.5042 2.90521 13.6192C2.99043 13.6626 3.12153 13.7031 3.40032 13.7259C3.68786 13.7494 4.06157 13.75 4.62 13.75H8.5C9.05843 13.75 9.43214 13.7494 9.71968 13.7259C9.99847 13.7031 10.1296 13.6626 10.2148 13.6192C10.4406 13.5042 10.6242 13.3206 10.7392 13.0948C10.9273 12.7257 11.3789 12.579 11.748 12.767C12.117 12.9551 12.2638 13.4067 12.0757 13.7758C11.8169 14.2838 11.4038 14.6969 10.8958 14.9557C10.5639 15.1248 10.2134 15.1906 9.84183 15.2209C9.48592 15.25 9.05055 15.25 8.53028 15.25H4.58972C4.06945 15.25 3.63408 15.25 3.27817 15.2209C2.90662 15.1906 2.55614 15.1248 2.22423 14.9557C1.71619 14.6969 1.30314 14.2838 1.04428 13.7758C0.875164 13.4439 0.809415 13.0934 0.779059 12.7218C0.749981 12.3659 0.74999 11.9306 0.75 11.4103V4.58969C0.74999 4.06944 0.749981 3.63407 0.779059 3.27817C0.809415 2.90662 0.875164 2.55614 1.04428 2.22423C1.30314 1.71619 1.71619 1.30314 2.22423 1.04428C2.55614 0.875164 2.90662 0.809415 3.27817 0.779059C3.63407 0.749981 4.06944 0.74999 4.58969 0.75ZM3.25 4.5C3.25 4.08579 3.58579 3.75 4 3.75H9C9.41422 3.75 9.75 4.08579 9.75 4.5C9.75 4.91421 9.41422 5.25 9 5.25H4C3.58579 5.25 3.25 4.91421 3.25 4.5ZM3.25 8C3.25 7.58579 3.58579 7.25 4 7.25H6C6.41421 7.25 6.75 7.58579 6.75 8C6.75 8.41421 6.41421 8.75 6 8.75H4C3.58579 8.75 3.25 8.41421 3.25 8ZM3.25 11.5C3.25 11.0858 3.58579 10.75 4 10.75H5.5C5.91421 10.75 6.25 11.0858 6.25 11.5C6.25 11.9142 5.91421 12.25 5.5 12.25H4C3.58579 12.25 3.25 11.9142 3.25 11.5Z" fill="#FAFAFB"/>
</g>
<defs>
<clipPath id="clip0_1831_4027">
<rect width="16" height="16" fill="white"/>
</clipPath>
</defs>
</svg>
