<svg width="16" height="16" viewBox="0 0 16 16" fill="none" xmlns="http://www.w3.org/2000/svg">
<g clip-path="url(#clip0_1831_1357)">
<path fill-rule="evenodd" clip-rule="evenodd" d="M0.75 8C0.75 3.99593 3.99594 0.75 8 0.75C12.0041 0.75 15.25 3.99594 15.25 8V10.8889C15.25 10.9184 15.2483 10.9475 15.245 10.9762C15.1267 13.6326 12.9356 15.75 10.25 15.75H7.625C7.00368 15.75 6.5 15.2463 6.5 14.625C6.5 14.0037 7.00368 13.5 7.625 13.5H8.375C8.86483 13.5 9.28155 13.8131 9.43599 14.25H10.25C11.2039 14.25 12.0687 13.8684 12.7 13.2495C11.3424 13.2229 10.25 12.114 10.25 10.75V9.25C10.25 7.86929 11.3693 6.75 12.75 6.75C13.0665 6.75 13.3693 6.80882 13.648 6.91613C13.1411 4.25868 10.8051 2.25 8 2.25C5.19488 2.25 2.85892 4.25867 2.352 6.91613C2.63071 6.80882 2.93348 6.75 3.25 6.75C4.63071 6.75 5.75 7.86929 5.75 9.25V10.75C5.75 12.1307 4.63071 13.25 3.25 13.25C1.9724 13.25 0.918638 12.2916 0.768371 11.0546C0.756346 11.0013 0.75 10.9458 0.75 10.8889V8ZM13.75 10.75V9.25C13.75 8.69772 13.3023 8.25 12.75 8.25C12.1977 8.25 11.75 8.69772 11.75 9.25V10.75C11.75 11.3023 12.1977 11.75 12.75 11.75C13.3023 11.75 13.75 11.3023 13.75 10.75ZM2.25 10.75C2.25 11.3023 2.69772 11.75 3.25 11.75C3.80228 11.75 4.25 11.3023 4.25 10.75V9.25C4.25 8.69772 3.80228 8.25 3.25 8.25C2.69772 8.25 2.25 8.69772 2.25 9.25V10.75Z" fill="#FAFAFB"/>
</g>
<defs>
<clipPath id="clip0_1831_1357">
<rect width="16" height="16" fill="white"/>
</clipPath>
</defs>
</svg>
