<svg width="16" height="16" viewBox="0 0 16 16" fill="none" xmlns="http://www.w3.org/2000/svg">
<path d="M11.025 2.53016C9.83907 1.87459 8.47224 1.62218 7.13042 1.81096C5.79795 1.99843 4.56182 2.61089 3.6056 3.55689L2.25 4.72534V2.5C2.25 2.08579 1.91421 1.75 1.5 1.75C1.08579 1.75 0.75 2.08579 0.75 2.5V6.5C0.75 6.91421 1.08579 7.25 1.5 7.25H5.5C5.91421 7.25 6.25 6.91421 6.25 6.5C6.25 6.08579 5.91421 5.75 5.5 5.75H3.35872L4.60505 4.67572C4.61891 4.66378 4.63232 4.65133 4.64527 4.63841C5.37408 3.91083 6.31962 3.43981 7.3394 3.29633C8.35919 3.15286 9.39798 3.34469 10.2993 3.84293C11.2005 4.34116 11.9155 5.11882 12.3364 6.05871C12.7573 6.99861 12.8613 8.04983 12.6328 9.05399C12.4043 10.0581 11.8556 10.9608 11.0694 11.6261C10.2833 12.2913 9.30224 12.683 8.27412 12.7421C7.24599 12.8013 6.22648 12.5248 5.3692 11.9541C4.51192 11.3835 3.86331 10.5497 3.5211 9.5784C3.38346 9.18773 2.95518 8.9826 2.5645 9.12025C2.17383 9.25789 1.9687 9.68617 2.10634 10.0768C2.55661 11.3549 3.41005 12.452 4.53805 13.2028C5.66604 13.9536 7.00751 14.3175 8.36031 14.2397C9.71311 14.1618 11.004 13.6464 12.0384 12.7711C13.0728 11.8958 13.7947 10.7081 14.0954 9.38682C14.396 8.06556 14.2592 6.68238 13.7054 5.44567C13.1516 4.20897 12.2109 3.18574 11.025 2.53016Z" fill="#FAFAFB"/>
</svg>
