<svg width="256" height="256" viewBox="0 0 256 256" fill="none" xmlns="http://www.w3.org/2000/svg">
<path d="M60.1177 60.0572C63.2419 56.9331 63.2419 51.8677 60.1177 48.7435C56.9935 45.6193 51.9282 45.6193 48.804 48.7435C5.06532 92.4823 5.06532 163.397 48.804 207.135C51.9282 210.26 56.9935 210.26 60.1177 207.135C63.2419 204.011 63.2419 198.946 60.1177 195.822C22.6274 158.331 22.6274 97.5476 60.1177 60.0572Z" fill="#303233"/>
<path d="M207.196 48.744C204.072 45.6198 199.006 45.6198 195.882 48.744C192.758 51.8682 192.758 56.9335 195.882 60.0577C233.373 97.5481 233.373 158.332 195.882 195.822C192.758 198.946 192.758 204.012 195.882 207.136C199.006 210.26 204.072 210.26 207.196 207.136C250.935 163.397 250.935 92.4827 207.196 48.744Z" fill="#303233"/>
<path d="M89.5334 89.4725C92.6576 86.3483 92.6576 81.283 89.5334 78.1588C86.4092 75.0346 81.3439 75.0346 78.2197 78.1588C50.7268 105.652 50.7268 150.227 78.2197 177.719C81.3439 180.844 86.4092 180.844 89.5334 177.719C92.6576 174.595 92.6576 169.53 89.5334 166.406C68.2889 145.161 68.2889 110.717 89.5334 89.4725Z" fill="#303233"/>
<path d="M177.78 78.1592C174.656 75.035 169.591 75.035 166.467 78.1592C163.342 81.2834 163.342 86.3487 166.467 89.4729C187.711 110.717 187.711 145.162 166.467 166.406C163.342 169.53 163.342 174.596 166.467 177.72C169.591 180.844 174.656 180.844 177.78 177.72C205.273 150.227 205.273 105.652 177.78 78.1592Z" fill="#303233"/>
<path fill-rule="evenodd" clip-rule="evenodd" d="M125.961 105.29C124.555 104.385 123.077 103.435 121.775 102.757C120.466 102.075 118.089 100.972 115.145 101.182C111.673 101.43 108.48 103.174 106.394 105.96C104.625 108.323 104.268 110.919 104.133 112.389C103.999 113.85 104 115.608 104 117.279V142.372C104 144.043 103.999 145.8 104.133 147.262C104.268 148.732 104.625 151.328 106.394 153.69C108.48 156.477 111.673 158.22 115.145 158.468C118.089 158.678 120.466 157.575 121.775 156.894C123.077 156.216 124.555 155.265 125.961 154.361L145.493 141.804C146.702 141.028 148.022 140.18 149.074 139.359C150.19 138.489 151.952 136.954 152.99 134.496C154.252 131.51 154.252 128.141 152.99 125.155C151.952 122.697 150.19 121.162 149.074 120.291C148.022 119.471 146.702 118.623 145.493 117.846L125.961 105.29ZM120 139.172V120.479L134.539 129.825L120 139.172Z" fill="#303233"/>
</svg>
