<svg width="256" height="256" viewBox="0 0 256 256" fill="none" xmlns="http://www.w3.org/2000/svg">
<path d="M128 120C132.418 120 136 123.582 136 128V168C136 172.418 132.418 176 128 176C123.582 176 120 172.418 120 168V128C120 123.582 123.582 120 128 120Z" fill="#303233"/>
<path d="M128 80C123.582 80 120 83.5817 120 88C120 92.4183 123.582 96 128 96H128.107C132.525 96 136.107 92.4183 136.107 88C136.107 83.5817 132.525 80 128.107 80H128Z" fill="#303233"/>
<path fill-rule="evenodd" clip-rule="evenodd" d="M16 128C16 66.1441 66.1441 16 128 16C189.856 16 240 66.1441 240 128C240 189.856 189.856 240 128 240C66.1441 240 16 189.856 16 128ZM128 32C74.9807 32 32 74.9807 32 128C32 181.019 74.9807 224 128 224C181.019 224 224 181.019 224 128C224 74.9807 181.019 32 128 32Z" fill="#303233"/>
</svg>
