<svg width="16" height="16" viewBox="0 0 16 16" fill="none" xmlns="http://www.w3.org/2000/svg">
<path fill-rule="evenodd" clip-rule="evenodd" d="M8.53033 3.21967C8.23743 2.92678 7.76256 2.92678 7.46967 3.21967C7.17678 3.51257 7.17678 3.98744 7.46967 4.28033L10.4394 7.25H3.75C3.33579 7.25 3 7.58579 3 8C3 8.41421 3.33579 8.75 3.75 8.75H10.4393L7.46967 11.7197C7.17678 12.0126 7.17678 12.4874 7.46967 12.7803C7.76257 13.0732 8.23744 13.0732 8.53033 12.7803L12.777 8.53364C12.9147 8.39767 13 8.2088 13 8C13 7.99999 13 7.99999 13 7.99998C13 7.82095 12.936 7.64853 12.8207 7.5133" fill="#FFFFFF"/>
</svg>
