<svg width="16" height="16" viewBox="0 0 16 16" fill="none" xmlns="http://www.w3.org/2000/svg">
<path fill-rule="evenodd" clip-rule="evenodd" d="M3.97731 5.775C3.97731 3.83157 5.56129 2.25 7.52277 2.25C8.96744 2.25 10.2099 3.10874 10.7626 4.34074C10.8852 4.61396 11.1586 4.78807 11.458 4.78364C11.472 4.78344 11.486 4.78333 11.5 4.78333C13.0222 4.78333 14.25 6.01046 14.25 7.51667C14.25 8.99847 13.0087 10.2306 11.4905 10.2498C11.0763 10.255 10.7448 10.595 10.7501 11.0092C10.7553 11.4234 11.0953 11.7549 11.5095 11.7497C13.8154 11.7205 15.75 9.85228 15.75 7.51667C15.75 5.31568 14.0656 3.51183 11.9166 3.30343C11.0503 1.77892 9.40696 0.75 7.52277 0.75C4.88165 0.75 2.70958 2.77296 2.49476 5.35398C1.19139 5.79071 0.25 7.01702 0.25 8.46667C0.25 10.2834 1.72907 11.75 3.54568 11.75L4.50022 11.7497C4.91444 11.7496 5.25012 11.4137 5.25 10.9995C5.24988 10.5853 4.91399 10.2496 4.49978 10.2497L3.54523 10.25C2.55036 10.2499 1.75 9.4481 1.75 8.46667C1.75 7.55986 2.43349 6.8059 3.32224 6.6969C3.71001 6.64935 3.99633 6.31208 3.98032 5.92173C3.97832 5.87311 3.97731 5.82419 3.97731 5.775ZM7.46967 6.21967C7.54158 6.14776 7.62445 6.09351 7.71291 6.05691C7.98476 5.94443 8.30934 5.99868 8.53033 6.21967L10.5303 8.21967C10.8232 8.51256 10.8232 8.98744 10.5303 9.28033C10.2374 9.57322 9.76256 9.57322 9.46967 9.28033L8.75 8.56066V13.25C8.75 13.6642 8.41421 14 8 14C7.58579 14 7.25 13.6642 7.25 13.25V8.56066L6.53033 9.28033C6.23744 9.57322 5.76256 9.57322 5.46967 9.28033C5.17678 8.98744 5.17678 8.51256 5.46967 8.21967L7.46967 6.21967Z" fill="#FFFFFF"/>
</svg>
