<svg width="64" height="64" viewBox="0 0 64 64" fill="none" xmlns="http://www.w3.org/2000/svg">
<path fill-rule="evenodd" clip-rule="evenodd" d="M32 47.0038C37.3558 44.1421 41 38.4966 41 32C41 25.5034 37.3558 19.8579 32 16.9962C26.6442 19.8579 23 25.5034 23 32C23 38.4966 26.6442 44.1421 32 47.0038Z" fill="#FFFFFF" fill-opacity="0.25"/>
<path d="M40 32C40 40.8366 32.8366 48 24 48C15.1634 48 8 40.8366 8 32C8 23.1634 15.1634 16 24 16C32.8366 16 40 23.1634 40 32Z" stroke="#FFFFFF" stroke-width="2"/>
<path d="M56 32C56 40.8366 48.8366 48 40 48C31.1634 48 24 40.8366 24 32C24 23.1634 31.1634 16 40 16C48.8366 16 56 23.1634 56 32Z" stroke="#FFFFFF" stroke-width="2"/>
</svg>
