<svg width="22" height="22" viewBox="0 0 22 22" fill="none" xmlns="http://www.w3.org/2000/svg">
<path fill-rule="evenodd" clip-rule="evenodd" d="M11 2C6.02944 2 2 6.02944 2 11C2 15.9706 6.02944 20 11 20C15.9706 20 20 15.9706 20 11C20 6.02944 15.9706 2 11 2ZM0 11C0 4.92487 4.92487 0 11 0C17.0751 0 22 4.92487 22 11C22 17.0751 17.0751 22 11 22C4.92487 22 0 17.0751 0 11ZM11.2582 7.02432C10.7927 6.94447 10.314 7.03195 9.90675 7.27127C9.49955 7.51058 9.19019 7.88629 9.03345 8.33184C8.85018 8.85283 8.27926 9.12661 7.75827 8.94333C7.23728 8.76006 6.96351 8.18915 7.14678 7.66816C7.46025 6.77705 8.07898 6.02563 8.89339 5.547C9.70779 5.06837 10.6653 4.89341 11.5963 5.05311C12.5274 5.2128 13.3719 5.69686 13.9802 6.41953C14.5884 7.14205 14.9214 8.05648 14.9201 9.00091C14.9197 10.5313 13.7851 11.5419 12.9748 12.082C12.5392 12.3725 12.1107 12.586 11.795 12.7263C11.6358 12.7971 11.5016 12.8508 11.405 12.8876C11.3566 12.906 11.3174 12.9203 11.2888 12.9305L11.2541 12.9427L11.243 12.9464L11.2391 12.9478L11.2376 12.9483C11.2376 12.9483 11.2363 12.9487 10.9201 12L11.2363 12.9487C10.7124 13.1233 10.1461 12.8402 9.97143 12.3162C9.7969 11.7926 10.0796 11.2267 10.6028 11.0517L10.6188 11.0461C10.6342 11.0406 10.6594 11.0314 10.693 11.0186C10.7605 10.9929 10.8607 10.9529 10.9827 10.8987C11.2296 10.789 11.551 10.6275 11.8654 10.4179C12.555 9.95822 12.9201 9.46913 12.9201 9L12.9201 8.99851C12.9208 8.52619 12.7543 8.06886 12.4502 7.70753C12.146 7.34619 11.7238 7.10417 11.2582 7.02432ZM11 15C10.4477 15 10 15.4477 10 16C10 16.5523 10.4477 17 11 17H11.01C11.5623 17 12.01 16.5523 12.01 16C12.01 15.4477 11.5623 15 11.01 15H11Z" fill="#04101E"/>
</svg>
