<?xml version="1.0" encoding="UTF-8"?>
<svg width="3300px" height="2200px" viewBox="0 0 3300 2200" version="1.1" xmlns="http://www.w3.org/2000/svg" xmlns:xlink="http://www.w3.org/1999/xlink">
    <title>syncs</title>
    <g id="Syncs" stroke="none" stroke-width="1" fill="none" fill-rule="evenodd">
        <g id="syncs">
            <g id="Notes">
                <rect id="artboard" fill="#FFFFFF" fill-rule="nonzero" x="0" y="0" width="3300" height="2200"></rect>
                <line x1="263" y1="292" x2="3036" y2="292" id="Path" stroke="#000000" stroke-width="0.5"></line>
                <text id="Weight/Scale-Variations" fill="#000000" fill-rule="nonzero" font-family="Helvetica-Bold, Helvetica" font-size="13" font-weight="bold">
                    <tspan x="263" y="322">Weight/Scale Variations</tspan>
                </text>
                <text id="Ultralight" fill="#000000" fill-rule="nonzero" font-family="Helvetica" font-size="13" font-weight="normal">
                    <tspan x="533.711" y="322">Ultralight</tspan>
                </text>
                <text id="Thin" fill="#000000" fill-rule="nonzero" font-family="Helvetica" font-size="13" font-weight="normal">
                    <tspan x="843.422" y="322">Thin</tspan>
                </text>
                <text id="Light" fill="#000000" fill-rule="nonzero" font-family="Helvetica" font-size="13" font-weight="normal">
                    <tspan x="1138.63" y="322">Light</tspan>
                </text>
                <text id="Regular" fill="#000000" fill-rule="nonzero" font-family="Helvetica" font-size="13" font-weight="normal">
                    <tspan x="1426.84" y="322">Regular</tspan>
                </text>
                <text id="Medium" fill="#000000" fill-rule="nonzero" font-family="Helvetica" font-size="13" font-weight="normal">
                    <tspan x="1723.06" y="322">Medium</tspan>
                </text>
                <text id="Semibold" fill="#000000" fill-rule="nonzero" font-family="Helvetica" font-size="13" font-weight="normal">
                    <tspan x="2015.77" y="322">Semibold</tspan>
                </text>
                <text id="Bold" fill="#000000" fill-rule="nonzero" font-family="Helvetica" font-size="13" font-weight="normal">
                    <tspan x="2326.48" y="322">Bold</tspan>
                </text>
                <text id="Heavy" fill="#000000" fill-rule="nonzero" font-family="Helvetica" font-size="13" font-weight="normal">
                    <tspan x="2618.19" y="322">Heavy</tspan>
                </text>
                <text id="Black" fill="#000000" fill-rule="nonzero" font-family="Helvetica" font-size="13" font-weight="normal">
                    <tspan x="2917.4" y="322">Black</tspan>
                </text>
                <line x1="263" y1="1903" x2="3036" y2="1903" id="Path" stroke="#000000" stroke-width="0.5"></line>
                <g id="Group" transform="translate(264.367190, 1918.068400)" fill="#000000" fill-rule="nonzero">
                    <path d="M7.88086,15.761678 C12.18751,15.761678 15.77151,12.18746 15.77151,7.88082 C15.77151,3.5742 12.17771,0 7.87109,0 C3.57422,0 -8.8817842e-16,3.5742 -8.8817842e-16,7.88082 C-8.8817842e-16,12.18746 3.58398,15.761678 7.88086,15.761678 Z M7.88086,14.277303 C4.33593,14.277303 1.5039,11.43551 1.5039,7.88082 C1.5039,4.3261 4.32617,1.4843 7.87109,1.4843 C11.42581,1.4843 14.26761,4.3261 14.2773352,7.88082 C14.28711,11.43551 11.43551,14.277303 7.88086,14.277303 Z M5.02929,8.61324 L7.13867,8.61324 L7.13867,10.73238 C7.13867,11.17183 7.43164,11.47457 7.86133,11.47457 C8.31054,11.47457 8.60351,11.17183 8.60351,10.73238 L8.60351,8.61324 L10.73241,8.61324 C11.17191,8.61324 11.47461,8.32027 11.47461,7.89058 C11.47461,7.45113 11.17191,7.1484 10.73241,7.1484 L8.60351,7.1484 L8.60351,5.03902 C8.60351,4.5898 8.31054,4.2871 7.86133,4.2871 C7.43164,4.2871 7.13867,4.5898 7.13867,5.03902 L7.13867,7.1484 L5.02929,7.1484 C4.58008,7.1484 4.27734,7.45113 4.27734,7.89058 C4.27734,8.32027 4.58008,8.61324 5.02929,8.61324 Z" id="Shape"></path>
                </g>
                <g id="Group" transform="translate(283.254050, 1915.988300)" fill="#000000" fill-rule="nonzero">
                    <path d="M9.96095,19.92186 C15.41015,19.92186 19.92185,15.40037 19.92185,9.96092 C19.92185,4.5117 15.40035,0 9.95115,0 C4.51172,0 8.8817842e-16,4.5117 8.8817842e-16,9.96092 C8.8817842e-16,15.40037 4.52148,19.92186 9.96095,19.92186 Z M9.96095,18.2617 C5.35156,18.2617 1.66992,14.57029 1.66992,9.96092 C1.66992,5.3515 5.34179,1.6601 9.95115,1.6601 C14.56055,1.6601 18.25195,5.3515 18.261769,9.96092 C18.27145,14.57029 14.57035,18.2617 9.96095,18.2617 Z M6.24023,10.78123 L9.13085,10.78123 L9.13085,13.69139 C9.13085,14.17967 9.46285,14.5117 9.94145,14.5117 C10.42965,14.5117 10.77145,14.17967 10.77145,13.69139 L10.77145,10.78123 L13.68165,10.78123 C14.16995,10.78123 14.50195,10.4492 14.50195,9.97068 C14.50195,9.4824 14.16995,9.14061 13.68165,9.14061 L10.77145,9.14061 L10.77145,6.25 C10.77145,5.7422 10.42965,5.4101 9.94145,5.4101 C9.46285,5.4101 9.13085,5.7519 9.13085,6.25 L9.13085,9.14061 L6.24023,9.14061 C5.73242,9.14061 5.40039,9.4824 5.40039,9.97068 C5.40039,10.4492 5.74218,10.78123 6.24023,10.78123 Z" id="Shape"></path>
                </g>
                <g id="Group" transform="translate(307.179860, 1913.224600)" fill="#000000" fill-rule="nonzero">
                    <path d="M12.71484,25.43946 C19.67774,25.43946 25.43944,19.6777438 25.43944,12.72462 C25.43944,5.7617 19.66794,0 12.70504,0 C5.75195,0 0,5.7617 0,12.72462 C0,19.6777438 5.76172,25.43946 12.71484,25.43946 Z M12.71484,23.62306 C6.67969,23.62306 1.82617,18.75978 1.82617,12.72462 C1.82617,6.6797 6.66992,1.8262 12.70504,1.8262 C18.75004,1.8262 23.60354,6.6797 23.6132548,12.72462 C23.62304,18.75978 18.75974,23.62306 12.71484,23.62306 Z M7.80274,13.63282 L11.80664,13.63282 L11.80664,17.64649 C11.80664,18.1836 12.17774,18.5547 12.69534,18.5547 C13.23244,18.5547 13.60354,18.1836 13.60354,17.64649 L13.60354,13.63282 L17.62694,13.63282 C18.15434,13.63282 18.53514,13.26173 18.53514,12.74415 C18.53514,12.20704 18.16404,11.82618 17.62694,11.82618 L13.60354,11.82618 L13.60354,7.8223 C13.60354,7.2656 13.23244,6.8945 12.69534,6.8945 C12.17774,6.8945 11.80664,7.2754 11.80664,7.8223 L11.80664,11.82618 L7.80274,11.82618 C7.24609,11.82618 6.875,12.20704 6.875,12.74415 C6.875,13.26173 7.25586,13.63282 7.80274,13.63282 Z" id="Shape"></path>
                </g>
                <text id="Design-Variations" fill="#000000" fill-rule="nonzero" font-family="Helvetica-Bold, Helvetica" font-size="13" font-weight="bold">
                    <tspan x="263" y="1953">Design Variations</tspan>
                </text>
                <text id="Symbols-are-supported-in-up-to-nine-weights-and-three-scales." fill="#000000" fill-rule="nonzero" font-family="Helvetica" font-size="13" font-weight="normal">
                    <tspan x="263" y="1971">Symbols are supported in up to nine weights and three scales.</tspan>
                </text>
                <text id="For-optimal-layout-with-text-and-other-symbols,-vertically-align" fill="#000000" fill-rule="nonzero" font-family="Helvetica" font-size="13" font-weight="normal">
                    <tspan x="263" y="1989">For optimal layout with text and other symbols, vertically align</tspan>
                </text>
                <text id="symbols-with-the-adjacent-text." fill="#000000" fill-rule="nonzero" font-family="Helvetica" font-size="13" font-weight="normal">
                    <tspan x="263" y="2007">symbols with the adjacent text.</tspan>
                </text>
                <line x1="776" y1="1919" x2="776" y2="1933" id="Path" stroke="#00AEEF" stroke-width="0.5"></line>
                <g id="Group" transform="translate(778.490230, 1918.712900)" fill="#000000" fill-rule="nonzero">
                    <path d="M0.82032,14.414053 C1.33789,14.414053 1.5918,14.2187406 1.77735,13.681631 L3.03711,10.2246 L8.79887,10.2246 L10.05857,13.681631 C10.24417,14.2187406 10.49807,14.414053 11.00587,14.414053 C11.52347,14.414053 11.85547,14.101553 11.85547,13.613272 C11.85547,13.447256 11.82617,13.300772 11.74807,13.08593 L7.16797,0.8984 C6.94336,0.293 6.54297,0 5.91797,0 C5.3125,0 4.90235,0.293 4.6875,0.8887 L0.10743,13.09569 C0.0293,13.310538 -4.4408921e-16,13.457022 -4.4408921e-16,13.623038 C-4.4408921e-16,14.111319 0.3125,14.414053 0.82032,14.414053 Z M3.51563,8.74999 L5.88868,2.1777 L5.9375,2.1777 L8.31057,8.74999 L3.51563,8.74999 Z" id="Shape"></path>
                </g>
                <line x1="792.836" y1="1919" x2="792.836" y2="1933" id="Path" stroke="#00AEEF" stroke-width="0.5"></line>
                <text id="Margins" fill="#000000" fill-rule="nonzero" font-family="Helvetica-Bold, Helvetica" font-size="13" font-weight="bold">
                    <tspan x="776" y="1953">Margins</tspan>
                </text>
                <text id="Leading-and-trailing-margins-on-the-left-and-right-side-of-each-symbol" fill="#000000" fill-rule="nonzero" font-family="Helvetica" font-size="13" font-weight="normal">
                    <tspan x="776" y="1971">Leading and trailing margins on the left and right side of each symbol</tspan>
                </text>
                <text id="can-be-adjusted-by-modifying-the-x-location-of-the-margin-guidelines." fill="#000000" fill-rule="nonzero" font-family="Helvetica" font-size="13" font-weight="normal">
                    <tspan x="776" y="1989">can be adjusted by modifying the x-location of the margin guidelines.</tspan>
                </text>
                <text id="Modifications-are-automatically-applied-proportionally-to-all" fill="#000000" fill-rule="nonzero" font-family="Helvetica" font-size="13" font-weight="normal">
                    <tspan x="776" y="2007">Modifications are automatically applied proportionally to all</tspan>
                </text>
                <text id="scales-and-weights." fill="#000000" fill-rule="nonzero" font-family="Helvetica" font-size="13" font-weight="normal">
                    <tspan x="776" y="2025">scales and weights.</tspan>
                </text>
                <g id="Group" transform="translate(1291.248126, 1914.517396)" fill="#000000" fill-rule="nonzero">
                    <path d="M0.593673634,20.347834 L2.29289363,22.056824 C3.15226363,22.925964 4.13859363,22.867374 5.06632363,21.841984 L15.2420736,10.631044 C15.5057736,10.718934 15.7791736,10.699404 16.0916736,10.640804 L17.1561736,10.445494 L17.8202736,11.119324 L17.7811736,11.675964 C17.7420736,12.174014 17.8690736,12.554874 18.3573736,13.033384 L19.1190736,13.775574 C19.5975736,14.254084 20.2127736,14.283384 20.6815736,13.814634 L23.5916736,10.894714 C24.0604736,10.425964 24.0409736,9.83026404 23.5623736,9.35174404 L22.7909736,8.59002404 C22.3123736,8.11150404 21.9413736,7.95530404 21.4627736,7.99430404 L20.8866736,8.04310404 L20.2420736,7.40840404 L20.4862736,6.28530404 C20.6131736,5.71890404 20.4569736,5.27950404 19.8709736,4.69350404 L17.6737736,2.50600404 C14.3338736,-0.814295964 9.90027363,-0.736195964 7.00968363,2.15450404 C6.58976363,2.56460404 6.56046363,3.14080404 6.79484363,3.53140404 C7.02921363,3.89280404 7.48820363,4.12710404 8.13277363,3.96110404 C9.59757363,3.61930404 11.1209736,3.56070404 12.5467736,4.49820404 L11.9608736,5.95330404 C11.7655736,6.43180404 11.7362736,6.83220404 11.8631736,7.19350404 L0.798753634,17.584166 C-0.187576366,18.5021352 -0.265706366,19.478698 0.593673634,20.347834 Z M8.50387363,2.52560404 C10.9354736,0.748204036 14.2264736,1.05100404 16.4530736,3.27750404 L18.8846736,5.68960404 C19.1190736,5.92400404 19.1580736,6.10960404 19.0897736,6.45140404 L18.7674736,7.93570404 L20.2713736,9.42010404 L21.2577736,9.36151404 C21.5116736,9.35174404 21.5897736,9.37127404 21.7850736,9.56658404 L22.3612736,10.142764 L19.9198736,12.584164 L19.3436736,12.007994 C19.1483736,11.812684 19.1190736,11.734554 19.1288736,11.470884 L19.1971736,10.494324 L17.7030736,9.00994404 L16.1795736,9.26385404 C15.8573736,9.33221404 15.7108736,9.30291404 15.4666736,9.06854404 L13.4647736,7.06660404 C13.2108736,6.83220404 13.1815736,6.66620404 13.3377736,6.29510404 L14.2166736,4.20530404 C12.6541736,2.75020404 10.6229736,2.12520404 8.59167363,2.72090404 C8.43547363,2.75990404 8.37687363,2.63300404 8.50387363,2.52560404 Z M3.02531363,20.787304 L1.85343363,19.625184 C1.38468363,19.166198 1.49210363,18.824401 1.89249363,18.4630728 L12.7030736,8.28730404 L14.1678736,9.77166404 L4.17765363,20.757994 C3.82609363,21.158384 3.49406363,21.256044 3.02531363,20.787304 Z" id="Shape"></path>
                </g>
                <text id="Exporting" fill="#000000" fill-rule="nonzero" font-family="Helvetica-Bold, Helvetica" font-size="13" font-weight="bold">
                    <tspan x="1289" y="1953">Exporting</tspan>
                </text>
                <text id="Symbols-should-be-outlined-when-exporting-to-ensure-the" fill="#000000" fill-rule="nonzero" font-family="Helvetica" font-size="13" font-weight="normal">
                    <tspan x="1289" y="1971">Symbols should be outlined when exporting to ensure the</tspan>
                </text>
                <text id="design-is-preserved-when-submitting-to-Xcode." fill="#000000" fill-rule="nonzero" font-family="Helvetica" font-size="13" font-weight="normal">
                    <tspan x="1289" y="1989">design is preserved when submitting to Xcode.</tspan>
                </text>
                <text id="template-version" fill="#000000" fill-rule="nonzero" font-family="Helvetica" font-size="13" font-weight="normal">
                    <tspan x="2952" y="1933">Template v.2.0</tspan>
                </text>
                <text id="Requires-Xcode-12-or-greater" fill="#000000" fill-rule="nonzero" font-family="Helvetica" font-size="13" font-weight="normal">
                    <tspan x="2865" y="1951">Requires Xcode 12 or greater</tspan>
                </text>
                <text id="Generated-from-person.crop.circle" fill="#000000" fill-rule="nonzero" font-family="Helvetica" font-size="13" font-weight="normal">
                    <tspan x="2838" y="1969">Generated from person.crop.circle</tspan>
                </text>
                <text id="Typeset-at-100-points" fill="#000000" fill-rule="nonzero" font-family="Helvetica" font-size="13" font-weight="normal">
                    <tspan x="2912" y="1987">Typeset at 100 points</tspan>
                </text>
                <text id="Small" fill="#000000" fill-rule="nonzero" font-family="Helvetica" font-size="13" font-weight="normal">
                    <tspan x="263" y="726">Small</tspan>
                </text>
                <text id="Medium" fill="#000000" fill-rule="nonzero" font-family="Helvetica" font-size="13" font-weight="normal">
                    <tspan x="263" y="1156">Medium</tspan>
                </text>
                <text id="Large" fill="#000000" fill-rule="nonzero" font-family="Helvetica" font-size="13" font-weight="normal">
                    <tspan x="263" y="1586">Large</tspan>
                </text>
            </g>
            <g id="Guides" transform="translate(263.000000, 625.041000)">
                <g id="H-reference" transform="translate(76.976562, 0.500000)" fill="#27AAE1" fill-rule="nonzero">
                    <path d="M-1.22124533e-15,70.459 L2.685548,70.459 L12.011738,45.9961 L44.775438,45.9961 L54.150438,70.459 L56.787138,70.459 L29.638638,0 L27.148438,0 L-1.22124533e-15,70.459 Z M28.369138,3.3203 L28.466838,3.3203 L43.896438,43.75 L12.890638,43.75 L28.369138,3.3203 Z" id="Shape"></path>
                </g>
                <line x1="0" y1="70.959" x2="2773" y2="70.959" id="Baseline-S" stroke="#27AAE1" stroke-width="0.5"></line>
                <line x1="0" y1="0.5" x2="2773" y2="0.5" id="Capline-S" stroke="#27AAE1" stroke-width="0.5"></line>
                <g id="H-reference" transform="translate(76.976562, 430.500000)" fill="#27AAE1" fill-rule="nonzero">
                    <path d="M-1.22124533e-15,70.459 L2.685548,70.459 L12.011738,45.9961 L44.775438,45.9961 L54.150438,70.459 L56.787138,70.459 L29.638638,0 L27.148438,0 L-1.22124533e-15,70.459 Z M28.369138,3.3203 L28.466838,3.3203 L43.896438,43.75 L12.890638,43.75 L28.369138,3.3203 Z" id="Shape"></path>
                </g>
                <line x1="0" y1="500.959" x2="2773" y2="500.959" id="Baseline-M" stroke="#27AAE1" stroke-width="0.5"></line>
                <line x1="0" y1="430.499" x2="2773" y2="430.499" id="Capline-M" stroke="#27AAE1" stroke-width="0.5"></line>
                <g id="H-reference" transform="translate(76.976562, 860.500000)" fill="#27AAE1" fill-rule="nonzero">
                    <path d="M-1.22124533e-15,70.459 L2.685548,70.459 L12.011738,45.9961 L44.775438,45.9961 L54.150438,70.459 L56.787138,70.459 L29.638638,0 L27.148438,0 L-1.22124533e-15,70.459 Z M28.369138,3.3203 L28.466838,3.3203 L43.896438,43.75 L12.890638,43.75 L28.369138,3.3203 Z" id="Shape"></path>
                </g>
                <line x1="0" y1="930.959" x2="2773" y2="930.959" id="Baseline-L" stroke="#27AAE1" stroke-width="0.5"></line>
                <line x1="0" y1="860.499" x2="2773" y2="860.499" id="Capline-L" stroke="#27AAE1" stroke-width="0.5"></line>
                <line x1="1128.3" y1="405.749" x2="1128.3" y2="525.079" id="left-margin" stroke="#00AEEF" stroke-width="0.5"></line>
                <line x1="1245.39" y1="405.749" x2="1245.39" y2="525.079" id="right-margin" stroke="#00AEEF" stroke-width="0.5"></line>
            </g>
            <g id="Symbols" transform="translate(1386.249300, 620.511700)" fill="#000000">
                <g id="Semibold-L" transform="translate(592.000000, 835.208300)" fill-rule="nonzero">
                    <path d="M123.957437,68.4275365 L124.231163,68.4635008 L124.065645,69.5368075 L124.236831,68.4643866 C127.424383,68.9698742 129.627548,71.8904391 129.267846,75.0605768 L129.230701,75.3328635 C124.165093,107.018972 97.0814592,130.030238 64.8626781,130.030238 C44.8656107,130.030238 26.1063311,120.864194 13.8144916,105.427596 L13.4259032,104.933574 L11.9059132,112.708447 C11.3739653,115.449433 9.02968701,117.43294 6.29183472,117.558056 L6.01679012,117.564332 C5.61780045,117.564332 5.22992311,117.526235 4.86959245,117.449833 C1.69909924,116.833142 -0.39864746,113.846741 0.0637868258,110.68933 L0.109728574,110.418327 L4.59214546,87.4840167 C5.2020261,84.3189373 8.21317992,82.2142738 11.3670563,82.6934819 L11.6376854,82.7409202 L34.6440869,87.2114303 C37.8907825,87.8358902 40.015386,90.9891467 39.3881178,94.244422 C38.7674825,97.4067526 35.7765419,99.4987073 32.6143837,99.0296444 L32.3429736,98.9831324 L22.5312053,97.0718731 L22.6121285,97.1798072 C32.4787779,110.061144 47.7816974,117.830073 64.1966101,118.034954 L64.8626781,118.03911 C91.1551805,118.03911 113.227215,99.2878096 117.355475,73.4468409 C117.847855,70.3586691 120.602306,68.2100473 123.677084,68.4034624 L123.957437,68.4275365 Z M64.8626781,0 C84.9867058,0 103.86472,9.30888686 116.151702,24.9442493 L116.518667,25.4157193 L118.122284,17.3140069 C118.754502,14.1614456 121.75401,12.0834128 124.920952,12.5520188 L125.192763,12.5984561 L125.000894,13.5849426 L125.19955,12.5997907 C128.354324,13.229044 130.436109,16.2279971 129.96309,19.3811835 L129.916254,19.6517827 L125.36654,42.5937444 C125.041974,44.1428352 124.126033,45.5099964 122.804219,46.4003345 C121.812557,47.0558264 120.655567,47.4037715 119.472027,47.4037715 C119.168986,47.4037715 118.876108,47.3827647 118.588802,47.3394323 L118.303183,47.2886092 L95.320067,42.7535562 C92.0647956,42.1065684 89.9437782,38.9497286 90.5928916,35.7129693 C91.2129329,32.5536654 94.2292244,30.4640164 97.3798121,30.9454552 L97.6501386,30.9930529 L107.093545,32.8543918 L107.031209,32.7728396 C97.1594483,19.9440779 81.889365,12.2083767 65.5266206,12.004372 L64.8626781,12.0002337 C38.6335238,12.0002337 16.5691926,30.6889411 12.3777446,56.4546031 C11.8952929,59.3644189 9.37019013,61.4905187 6.44592228,61.4905187 C6.15375159,61.4905187 5.85979954,61.4641079 5.48420247,61.410359 C2.20826149,60.8793099 -0.017981449,57.8059563 0.504403876,54.5296411 C5.65487875,22.9298904 32.7158432,0 64.8626781,0 Z" id="Shape" transform="translate(65.015000, 65.015119) rotate(-360.000000) translate(-65.015000, -65.015119) "></path>
                </g>
                <g id="Regular-L" transform="translate(0.000000, 836.428300)">
                    <path d="M122.491789,68.2973143 C119.895358,67.8975429 117.490244,69.642 117.080281,72.2132571 C112.86222,98.6163429 90.3051591,117.778114 63.4480447,117.778114 C45.1272656,117.778114 28.2914626,108.574286 18.3157027,93.7282286 L31.2431943,96.2449714 C33.8122941,96.7446857 36.2811808,95.0729143 36.7822463,92.5198286 C37.2742016,89.9667429 35.6070198,87.4863429 33.0561406,86.9957143 L10.0982274,82.5346286 C7.53823786,82.0258286 5.05113059,83.7066857 4.55917531,86.2597714 L0.0860263508,109.146686 C-0.405928932,111.699771 1.26125286,114.171086 3.83035267,114.6708 C4.13099201,114.7344 4.43163135,114.761657 4.73227069,114.761657 C6.94606946,114.761657 8.92300088,113.198914 9.36029446,110.945657 L11.4283287,100.369886 C23.2352555,116.969486 42.5217246,127.2 63.4480447,127.2 C94.969624,127.2 121.462327,104.694686 126.418321,73.6942286 C126.828284,71.1229714 125.069999,68.7061714 122.491789,68.2973143 M123.402817,12.5473714 C120.824607,12.0476571 118.34661,13.7103429 117.836434,16.2543429 L115.677297,27.1662857 C103.888591,10.3758857 84.4927985,0 63.4480447,0 C31.9902375,0 5.52486531,22.4326286 0.486878803,53.3422286 C0.0769160678,55.9134857 1.82609041,58.3302857 4.4043005,58.7482286 C4.65938842,58.7845714 4.91447635,58.8118286 5.16045399,58.8118286 C7.43802474,58.8118286 9.44228701,57.1582286 9.82491889,54.8504571 C14.1067519,28.5291429 36.6547024,9.43097143 63.4480447,9.43097143 C81.7141622,9.43097143 98.5135241,18.5984571 108.498394,33.3809143 L95.9170934,30.9005143 C93.3662142,30.3917143 90.8699966,32.0544 90.368931,34.6074857 C89.8587552,37.1514857 91.525937,39.6318857 94.0859265,40.1406857 L117.016509,44.6653714 C117.326258,44.7289714 117.626898,44.7562286 117.936647,44.7562286 C118.865896,44.7562286 119.776925,44.4836571 120.560409,43.9657714 C121.598981,43.2661714 122.318694,42.1849714 122.573782,40.9674857 L127.110702,18.0896571 C127.611768,15.5365714 125.953696,13.0561714 123.402817,12.5473714" id="Shape" transform="translate(63.600000, 63.600000) rotate(-360.000000) translate(-63.600000, -63.600000) "></path>
                </g>
                <g id="Semibold-M" transform="translate(605.570817, 419.208300)" fill-rule="nonzero">
                    <path d="M97.2839601,53.7031247 L97.498785,53.7313502 L97.3688831,54.5737 L97.5032332,53.7320454 C100.004879,54.1287609 101.733962,56.4208712 101.451661,58.9088505 L101.422509,59.122546 C97.4469316,83.990357 76.1912234,102.05 50.9053617,102.05 C35.2113142,102.05 20.4887042,94.8563286 10.8418541,82.7414173 L10.5368831,82.3537 L9.34396842,88.4555564 C8.92648649,90.6067294 7.08665594,92.1634204 4.93794169,92.2616136 L4.72208189,92.2665393 C4.40894783,92.2665393 4.10453492,92.2366401 3.82174114,92.1766784 C1.33348273,91.6926886 -0.312865483,89.3489089 0.0500610141,86.8709177 L0.0861168995,86.65823 L3.6039959,68.658983 C4.08264086,66.1749735 6.44584693,64.5231968 8.92106411,64.8992877 L9.13345856,64.9365181 L27.189284,68.4450525 C29.7373473,68.9351394 31.4047732,71.4098702 30.9124822,73.9646671 C30.4253968,76.4465193 28.0780544,78.0883219 25.5963375,77.7201931 L25.3833301,77.6836896 L17.6828831,76.1837 L17.7463931,76.2684086 C25.4899117,86.3779061 37.49991,92.4750973 50.3826199,92.6358918 L50.9053617,92.6391536 C71.5401764,92.6391536 88.8626946,77.9228057 92.1026245,57.6423625 C92.4890529,55.2187113 94.6507947,53.5324355 97.0639336,53.684231 L97.2839601,53.7031247 Z M50.9053617,0 C66.6990499,0 81.5148449,7.30577685 91.1578827,19.5766822 L91.4458831,19.9467 L92.7044301,13.5883347 C93.2006053,11.1141497 95.5546715,9.48327324 98.040143,9.85104343 L98.2534649,9.88748819 L98.1028831,10.6617 L98.2587915,9.88853559 C100.734714,10.3823846 102.368535,12.7360153 101.997301,15.210691 L101.960544,15.423062 L98.3898482,33.4283139 C98.1351233,34.6440674 97.4162769,35.7170394 96.378894,36.4157923 C95.6006203,36.9302338 94.6925948,37.2033071 93.763732,37.2033071 C93.5258999,37.2033071 93.296044,37.1868206 93.0705612,37.1528126 L92.8464027,37.1129257 L74.808852,33.553737 C72.2540582,33.0459697 70.5894468,30.5684267 71.0988823,28.0281615 C71.5855015,25.5486847 73.9527397,23.9086917 76.4253759,24.2865333 L76.6375329,24.3238888 L84.0488831,25.7847 L83.9999609,25.7206965 C76.2524306,15.6524603 64.2682027,9.58134707 51.4264354,9.42124062 L50.9053617,9.41799286 C30.3202637,9.41799286 13.0037915,24.0852166 9.71426995,44.3065577 C9.33563343,46.5902319 7.35388874,48.2588321 5.05887229,48.2588321 C4.82957164,48.2588321 4.59887294,48.2381045 4.3040978,48.1959214 C1.73308215,47.7791448 -0.014112155,45.3671233 0.395864964,42.795814 C4.43804752,17.9957781 25.6759646,0 50.9053617,0 Z" id="Shape" transform="translate(51.024907, 51.025000) rotate(-360.000000) translate(-51.024907, -51.025000) "></path>
                </g>
                <g id="Regular-M" transform="translate(13.790700, 420.428300)">
                    <path d="M95.9230118,53.483455 C93.8897535,53.170395 92.0063142,54.536475 91.6852734,56.55002 C88.3821204,77.22621 70.7177429,92.231745 49.6860042,92.231745 C35.3390481,92.231745 22.1549732,85.02425 14.3429807,73.39834 L24.4664668,75.369195 C26.4783224,75.76052 28.4117014,74.45136 28.8040846,72.452045 C29.1893335,70.45273 27.8837677,68.510335 25.8861805,68.126125 L7.90789646,64.63266 C5.9031751,64.23422 3.95552766,65.550495 3.57027872,67.54981 L0.0673670189,85.472495 C-0.317881925,87.47181 0.987683942,89.40709 2.99953954,89.798415 C3.23496945,89.84822 3.47039936,89.869565 3.70582927,89.869565 C5.43944952,89.869565 6.98757954,88.645785 7.33002304,86.881265 L8.94949546,78.599405 C18.1954701,91.59851 33.2986556,99.61 49.6860042,99.61 C74.3704736,99.61 95.1168427,81.986145 98.9978691,57.709765 C99.3189099,55.69622 97.9420016,53.80363 95.9230118,53.483455 M96.6364357,9.825815 C94.6174459,9.43449 92.6769327,10.736535 92.2774153,12.728735 L90.5866005,21.27385 C81.3548943,8.12533 66.1660979,0 49.6860042,0 C25.0514745,0 4.32650813,17.566935 0.381273566,41.772165 C0.0602327792,43.78571 1.4300068,45.6783 3.44899664,46.00559 C3.64875535,46.03405 3.84851407,46.055395 4.04113854,46.055395 C5.82469847,46.055395 7.3942312,44.760465 7.69386927,42.953255 C11.0469619,22.3411 28.7042052,7.38537 49.6860042,7.38537 C63.9901548,7.38537 77.1456929,14.564405 84.9648196,26.14051 L75.1124345,24.198115 C73.1148474,23.799675 71.1600657,25.10172 70.7676826,27.101035 C70.3681651,29.093235 71.673731,31.03563 73.6784524,31.43407 L91.6353337,34.97734 C91.8778979,35.027145 92.1133278,35.04849 92.3558919,35.04849 C93.0835844,35.04849 93.7970083,34.83504 94.410553,34.429485 C95.2238563,33.88163 95.7874612,33.034945 95.9872199,32.081535 L99.5400713,14.165965 C99.9324545,12.16665 98.6340229,10.224255 96.6364357,9.825815" id="Shape" transform="translate(49.805000, 49.805000) rotate(-360.000000) translate(-49.805000, -49.805000) "></path>
                </g>
                <g id="Semibold-S" transform="translate(616.570817, 0.000000)" fill-rule="nonzero">
                    <path d="M76.711951,42.3468727 L76.8813483,42.3691295 L76.7789159,43.0333531 L76.8848559,42.3696777 C78.8574951,42.6825023 80.2209398,44.4899149 79.9983353,46.4517774 L79.9753479,46.620284 C76.84046,66.2294601 60.0795587,80.4701473 40.1407345,80.4701473 C27.7654056,80.4701473 16.1560906,74.797675 8.54919739,65.2446256 L8.30871668,64.9388963 L7.36805993,69.7504327 C7.0388602,71.446711 5.5880867,72.6742187 3.89374713,72.7516476 L3.72353381,72.7555317 C3.47661618,72.7555317 3.2365755,72.7319551 3.01358229,72.6846731 C1.05149977,72.3030295 -0.246705845,70.4548737 0.0394749356,68.5008873 L0.0679063164,68.3331753 L2.84188222,54.1401125 C3.21931124,52.1813803 5.08278542,50.8788942 7.03458445,51.1754556 L7.20206522,51.2048131 L21.4397422,53.9714204 C23.4489831,54.3578719 24.7638092,56.3092873 24.3756198,58.3238379 C23.9915352,60.2808689 22.1405701,61.5754901 20.1836458,61.2852071 L20.0156816,61.2564228 L13.9435983,60.0736263 L13.9936782,60.1404221 C20.0997251,68.1121297 29.5700469,72.9199873 39.7285336,73.0467797 L40.1407345,73.0493517 C56.4120386,73.0493517 70.071476,61.4449746 72.6262789,45.4531053 C72.9309918,43.541968 74.635604,42.212278 76.5384521,42.3319743 L76.711951,42.3468727 Z M40.1407345,0 C52.5946337,0 64.2774285,5.76087153 71.8813156,15.4369279 L72.1084144,15.7287005 L73.1008246,10.7148976 C73.4920768,8.76391239 75.3483439,7.47790685 77.3082288,7.76790707 L77.476441,7.79664509 L77.3577017,8.40713934 L77.4806411,7.797471 C79.432996,8.18688895 80.7213237,10.0428126 80.4285923,11.9941847 L80.3996077,12.1616469 L77.5839842,26.3594448 C77.3831242,27.3181108 76.8162876,28.1641884 75.9982734,28.7151805 C75.3845762,29.1208364 74.668565,29.3361647 73.9361228,29.3361647 C73.7485835,29.3361647 73.5673337,29.3231644 73.3895323,29.2963479 L73.2127751,29.2648956 L58.9895085,26.4583455 C56.9749604,26.0579525 55.6623536,24.1043195 56.0640621,22.1012277 C56.447779,20.1460698 58.3144327,18.8528755 60.2641966,19.1508173 L60.4314901,19.1802735 L66.2756101,20.3321765 L66.2370331,20.2817073 C60.1278229,12.3425359 50.6778221,7.55524165 40.5516201,7.42899187 L40.1407345,7.42643089 C23.9086338,7.42643089 10.2539639,18.9920718 7.66005619,34.9373369 C7.36148748,36.7380973 5.79880951,38.0538494 3.98910533,38.0538494 C3.8082934,38.0538494 3.62637906,38.0375049 3.39393811,38.004242 C1.36659849,37.6755985 -0.011127949,35.7736315 0.312153964,33.7460603 C3.49956235,14.1903274 20.2464347,0 40.1407345,0 Z" id="Shape" transform="translate(40.235000, 40.235074) rotate(-360.000000) translate(-40.235000, -40.235074) "></path>
                </g>
                <g id="Regular-S" transform="translate(23.790700, 0.830100)">
                    <path d="M75.9410572,42.3421871 C74.3313518,42.0943414 72.8402564,43.17585 72.5860924,44.7699486 C69.9710272,61.1390314 55.9863588,73.0187271 39.3357925,73.0187271 C27.9774856,73.0187271 17.5398171,67.3126429 11.3551597,58.1085543 L19.369798,59.6688557 C20.962559,59.9786629 22.4931912,58.9422171 22.8038361,57.3593843 C23.1088329,55.7765514 22.0752326,54.2387814 20.4937677,53.9346071 L6.26058342,51.1688743 C4.67347042,50.8534343 3.13154213,51.8955129 2.82654532,53.4783457 L0.0533336323,67.6675129 C-0.251663173,69.2503457 0.781937111,70.7824829 2.3746982,71.09229 C2.56108514,71.13172 2.74747208,71.1486186 2.93385901,71.1486186 C4.30634464,71.1486186 5.53197995,70.1797671 5.80308822,68.7828186 L7.08520442,62.2261729 C14.4051277,72.5174029 26.3621321,78.86 39.3357925,78.86 C58.8781804,78.86 75.3028232,64.9074129 78.3753836,45.6881043 C78.6295476,44.0940057 77.5394664,42.5956657 75.9410572,42.3421871 M76.5058661,7.77897571 C74.9074569,7.46916857 73.3711767,8.49998143 73.0548837,10.0771814 L71.7162866,16.8422429 C64.4076595,6.43272286 52.3828781,0 39.3357925,0 C19.8329413,0 3.42524276,13.9075243 0.301849548,33.0705043 C0.0476855433,34.6646029 1.13211863,36.1629429 2.73052781,36.4220543 C2.8886743,36.4445857 3.04682079,36.4614843 3.1993192,36.4614843 C4.61134144,36.4614843 5.85392102,35.4363043 6.09114076,34.0055586 C8.74574258,17.6871714 22.7247628,5.84690571 39.3357925,5.84690571 C50.6602109,5.84690571 61.075287,11.5304586 67.2655925,20.6951171 L59.4655816,19.1573471 C57.8841167,18.8419071 56.3365403,19.87272 56.0258955,21.4555529 C55.7096025,23.0327529 56.7432028,24.5705229 58.3303158,24.8859629 L72.5465557,27.6911257 C72.7385908,27.7305557 72.9249777,27.7474543 73.1170127,27.7474543 C73.6931178,27.7474543 74.2579267,27.5784686 74.7436623,27.2573957 C75.3875445,26.8236657 75.8337435,26.1533557 75.99189,25.3985529 L78.8046383,11.2150186 C79.1152832,9.63218571 78.087331,8.09441571 76.5058661,7.77897571" id="Shape" transform="translate(39.430000, 39.430000) rotate(-360.000000) translate(-39.430000, -39.430000) "></path>
                </g>
            </g>
        </g>
    </g>
</svg>