<svg width="48" height="48" viewBox="0 0 48 48" fill="none" xmlns="http://www.w3.org/2000/svg">
<path fill-rule="evenodd" clip-rule="evenodd" d="M12 6H36C38.2091 6 40 7.79086 40 10V38C40 40.2091 38.2091 42 36 42H12C9.79086 42 8 40.2091 8 38V10C8 7.79086 9.79086 6 12 6ZM24.5 7H23.5V12.3L14.4167 17.75L24 23.5L33.5833 17.75L24.5 12.3V7ZM34 29.5L39 32.5V33.5L33.5833 30.25L24.5 35.7V24.2L34 18.5V29.5ZM14.4167 30.25L9 33.5V32.5L14 29.5V18.5L23.5 24.2V35.7L14.4167 30.25Z" fill="url(#paint0_linear_48_2016)"/>
<defs>
<linearGradient id="paint0_linear_48_2016" x1="24" y1="6" x2="24" y2="42" gradientUnits="userSpaceOnUse">
<stop stop-color="#69A3FB"/>
<stop offset="1" stop-color="#477EF7"/>
</linearGradient>
</defs>
</svg>
