<svg width="24" height="24" viewBox="0 0 24 24" fill="none" xmlns="http://www.w3.org/2000/svg">
<path d="M16.0825 14.3788V11.4928C16.0157 11.4775 15.9479 11.4669 15.8797 11.4611C15.8076 11.4538 15.7353 11.4503 15.6629 11.4505C15.4064 11.448 15.1528 11.5059 14.9229 11.6196C14.6766 11.7371 14.4713 11.9259 14.3336 12.1616C14.196 12.3972 14.1324 12.6688 14.1511 12.9411C14.146 13.1715 14.1837 13.4009 14.2622 13.6176C14.3261 13.7923 14.4271 13.951 14.5582 14.0828C14.6837 14.2041 14.8357 14.2945 15.0022 14.347C15.178 14.404 15.3617 14.4326 15.5465 14.4317C15.6453 14.4317 15.7369 14.4281 15.8215 14.4211C15.9096 14.415 15.997 14.4009 16.0825 14.3788Z" fill="url(#paint0_linear_48_1655)"/>
<path fill-rule="evenodd" clip-rule="evenodd" d="M6 2.00001C4.34315 2.00001 3 3.34315 3 5.00001V19C3 20.6569 4.34315 22 6 22H18C19.6569 22 21 20.6569 21 19V5.00001C21 3.34315 19.6569 2.00001 18 2.00001H6ZM15.4092 15.6897C14.9227 15.6971 14.4405 15.596 13.998 15.3937C13.5856 15.2028 13.2409 14.8913 13.0094 14.5004C12.7551 14.044 12.6308 13.5266 12.65 13.0045C12.646 12.5193 12.77 12.0417 13.0094 11.6197C13.2561 11.1898 13.6188 10.8381 14.056 10.6048C14.5677 10.3383 15.1391 10.2073 15.7157 10.2242C15.751 10.2242 15.7968 10.226 15.8531 10.2295C15.8708 10.2307 15.8947 10.232 15.9215 10.2334C15.9805 10.2366 16.0538 10.2406 16.1071 10.2454V8.37506C16.101 8.33065 16.1127 8.28563 16.1396 8.24977C16.1664 8.21392 16.2064 8.19011 16.2507 8.18351H17.2739C17.3245 8.18366 17.373 8.20383 17.4089 8.23965C17.4446 8.27546 17.4649 8.32398 17.465 8.37462V14.3999C17.465 14.5198 17.4703 14.6502 17.4808 14.7911C17.4914 14.9322 17.5003 15.059 17.5073 15.1716C17.5086 15.1936 17.5033 15.2154 17.4919 15.2343C17.4806 15.2531 17.4639 15.2682 17.444 15.2774C17.1166 15.4203 16.7746 15.5267 16.424 15.5945C16.0893 15.6563 15.7496 15.6882 15.4092 15.6897ZM12.4823 8.74795L10.5161 11.9127L12.6199 15.3389C12.6333 15.363 12.6371 15.3914 12.6305 15.4182C12.6232 15.443 12.5987 15.4589 12.5564 15.4658H11.0553C11.0121 15.4701 10.9686 15.4626 10.9295 15.4439C10.8904 15.4253 10.8571 15.3963 10.8333 15.36C10.7576 15.2127 10.682 15.0716 10.6064 14.9306C10.541 14.8087 10.4757 14.6867 10.4103 14.5609C10.2694 14.2897 10.1197 14.0131 9.9611 13.731C9.80262 13.4493 9.64581 13.1639 9.49067 12.8748H9.48007C9.33903 13.1567 9.19282 13.4386 9.04146 13.7205C8.88967 14.0024 8.73988 14.2826 8.5921 14.5609C8.48851 14.7558 8.38322 14.9399 8.27617 15.127C8.23025 15.2073 8.184 15.2881 8.13743 15.3706C8.12598 15.4001 8.10551 15.4251 8.07895 15.4422C8.05238 15.4593 8.0211 15.4675 7.98956 15.4658H6.54118C6.53523 15.4664 6.52922 15.4657 6.52353 15.4639C6.51785 15.4621 6.51261 15.4591 6.50815 15.4551C6.50368 15.4511 6.5001 15.4462 6.49762 15.4408C6.49515 15.4354 6.49382 15.4295 6.49375 15.4235C6.48963 15.3977 6.49525 15.3713 6.50952 15.3495L8.54983 12.0185L6.56237 8.73735C6.54117 8.7093 6.53782 8.68635 6.55177 8.66864C6.55958 8.65963 6.56938 8.65254 6.5804 8.64795C6.59142 8.64337 6.60335 8.6414 6.61525 8.6422H8.1059C8.1384 8.64043 8.17088 8.64587 8.20105 8.6581C8.22626 8.67245 8.24791 8.69232 8.26438 8.71622C8.34667 8.89896 8.43481 9.04787 8.52885 9.20674C8.5799 9.29298 8.6327 9.38218 8.68723 9.4813C8.84223 9.76332 8.99905 10.0417 9.15766 10.3165C9.31628 10.5913 9.46253 10.8697 9.59642 11.1516H9.60702C9.74792 10.8627 9.8906 10.5808 10.035 10.3059C10.1796 10.031 10.3276 9.7544 10.4791 9.47607C10.5486 9.34837 10.617 9.23798 10.6842 9.12935C10.7636 9.00123 10.8414 8.87554 10.9178 8.7268C10.9259 8.70069 10.9404 8.67704 10.9601 8.6581C10.9862 8.64483 11.0155 8.6393 11.0447 8.64219H12.4296C12.4429 8.63892 12.457 8.64029 12.4695 8.64607C12.4819 8.65184 12.4921 8.66169 12.4982 8.67399C12.5043 8.68629 12.5061 8.70032 12.5032 8.71375C12.5003 8.72719 12.4929 8.73925 12.4823 8.74795Z" fill="url(#paint1_linear_48_1655)"/>
<defs>
<linearGradient id="paint0_linear_48_1655" x1="12" y1="2.00001" x2="12" y2="22" gradientUnits="userSpaceOnUse">
<stop stop-color="#ED73CC"/>
<stop offset="1" stop-color="#E248C2"/>
</linearGradient>
<linearGradient id="paint1_linear_48_1655" x1="12" y1="2.00001" x2="12" y2="22" gradientUnits="userSpaceOnUse">
<stop stop-color="#ED73CC"/>
<stop offset="1" stop-color="#E248C2"/>
</linearGradient>
</defs>
</svg>
