<svg width="24" height="24" viewBox="0 0 24 24" fill="none" xmlns="http://www.w3.org/2000/svg">
<path fill-rule="evenodd" clip-rule="evenodd" d="M6 2C4.34315 2 3 3.34315 3 5V19C3 20.6569 4.34315 22 6 22H18C19.6569 22 21 20.6569 21 19V5C21 3.34315 19.6569 2 18 2H6ZM17 13.5V13H7V13.5C7 13.7681 7.22818 14 7.50965 14H11.496L11.4967 16.0174C11.4967 16.5228 11.1151 16.9407 10.6224 17.0007L9.491 17C9.22788 17 9 17.2239 9 17.5C9 17.7681 9.21983 18 9.491 18H14.509C14.7721 18 15 17.7761 15 17.5L14.9921 17.4123C14.9505 17.1833 14.75 17 14.509 17L13.3691 17.0008C12.8865 16.9408 12.4984 16.5234 12.4984 16.0174L12.498 14H16.4904C16.7723 14 17 13.7761 17 13.5ZM12 6.5C12 6.22386 11.7761 6 11.5 6H9L8.88338 6.00673C8.38604 6.06449 8 6.48716 8 7L8.00017 8.0003C7.72195 8.00947 7.49475 8.22542 7.47674 8.49048L7.27158 11.5095C7.25287 11.7849 7.46149 12 7.73687 12H16.2631C16.5449 12 16.7468 11.7804 16.7284 11.5095L16.5233 8.49048C16.5045 8.21506 16.2623 8 15.9814 8H8.5V7L8.50806 6.91012C8.55039 6.67688 8.75454 6.5 9 6.5H10C10 6.77614 10.2239 7 10.5 7H11.5C11.7761 7 12 6.77614 12 6.5Z" fill="url(#paint0_linear_48_979)"/>
<defs>
<linearGradient id="paint0_linear_48_979" x1="12" y1="2" x2="12" y2="22" gradientUnits="userSpaceOnUse">
<stop stop-color="#69A3FB"/>
<stop offset="1" stop-color="#477EF7"/>
</linearGradient>
</defs>
</svg>
