<svg width="24" height="24" viewBox="0 0 24 24" fill="none" xmlns="http://www.w3.org/2000/svg">
<path fill-rule="evenodd" clip-rule="evenodd" d="M6 2C4.34315 2 3 3.34315 3 5V19C3 20.6569 4.34315 22 6 22H18C19.6569 22 21 20.6569 21 19V5C21 3.34315 19.6569 2 18 2H6ZM8 12C8 10.8954 8.89543 10 10 10H10.5C10.7761 10 11 9.77614 11 9.5C11 9.22386 10.7761 9 10.5 9H10C8.34315 9 7 10.3431 7 12C7 13.6569 8.34315 15 10 15H10.5C10.7761 15 11 14.7761 11 14.5C11 14.2239 10.7761 14 10.5 14H10C8.89543 14 8 13.1046 8 12ZM10 11.5C9.72386 11.5 9.5 11.7239 9.5 12C9.5 12.2761 9.72386 12.5 10 12.5H14C14.2761 12.5 14.5 12.2761 14.5 12C14.5 11.7239 14.2761 11.5 14 11.5H10ZM13 9.5C13 9.22386 13.2239 9 13.5 9H14C15.6569 9 17 10.3431 17 12C17 13.6569 15.6569 15 14 15H13.5C13.2239 15 13 14.7761 13 14.5C13 14.2239 13.2239 14 13.5 14H14C15.1046 14 16 13.1046 16 12C16 10.8954 15.1046 10 14 10H13.5C13.2239 10 13 9.77614 13 9.5Z" fill="url(#paint0_linear_48_274)"/>
<defs>
<linearGradient id="paint0_linear_48_274" x1="12" y1="2" x2="12" y2="22" gradientUnits="userSpaceOnUse">
<stop stop-color="#69A3FB"/>
<stop offset="1" stop-color="#477EF7"/>
</linearGradient>
</defs>
</svg>
