<svg width="24" height="24" viewBox="0 0 24 24" fill="none" xmlns="http://www.w3.org/2000/svg">
<path d="M9.14413 9.75267V11.9527C9.18698 11.9527 9.27268 11.967 9.35838 11.9812C9.4441 11.9955 9.52985 12.0098 9.57271 12.0098H9.91557C10.1727 12.0098 10.4298 11.9812 10.6584 11.8955C10.8584 11.8384 11.0584 11.7241 11.2013 11.5527C11.3441 11.3527 11.4298 11.1241 11.4013 10.867C11.4013 10.667 11.3441 10.467 11.2584 10.2955C11.1441 10.1241 10.9727 9.98124 10.8013 9.9241C10.5441 9.83839 10.287 9.78124 10.0298 9.78124H9.57271C9.46274 9.80324 9.28508 9.77444 9.19605 9.76002C9.16943 9.7557 9.15071 9.75267 9.14413 9.75267Z" fill="url(#paint0_linear_48_504)"/>
<path fill-rule="evenodd" clip-rule="evenodd" d="M6 2C4.34315 2 3 3.34315 3 5V19C3 20.6569 4.34315 22 6 22H18C19.6569 22 21 20.6569 21 19V5C21 3.34315 19.6569 2 18 2H6ZM7.77271 15.3241V8.58124C7.77271 8.52411 7.80128 8.49553 7.82984 8.49553H9.31557C9.41557 8.49553 9.52985 8.50981 9.64414 8.5241C9.75842 8.53838 9.87271 8.55267 9.97271 8.55267C10.4298 8.55267 10.887 8.60982 11.3156 8.75267C11.6584 8.86696 11.9441 9.03838 12.2013 9.29553C12.4013 9.49553 12.5727 9.75267 12.687 10.0384C12.7727 10.3241 12.8298 10.6098 12.8298 10.8955C12.8584 11.3812 12.7156 11.867 12.4298 12.2955C12.1727 12.667 11.8013 12.9527 11.3727 13.0955C10.887 13.267 10.4013 13.3527 9.88699 13.3527H9.57271C9.55057 13.3527 9.49843 13.3441 9.43455 13.3336C9.33351 13.317 9.20307 13.2955 9.11557 13.2955V15.3812C9.11557 15.4384 9.08699 15.467 9.02984 15.467H7.82984C7.82219 15.4516 7.81453 15.4384 7.80742 15.4261C7.78801 15.3924 7.77271 15.3659 7.77271 15.3241ZM13.7442 10.2098H14.887C14.9442 10.2098 15.0013 10.267 15.0299 10.3241C15.0375 10.3394 15.0452 10.3527 15.0523 10.365C15.0717 10.3986 15.087 10.4251 15.087 10.467C15.1156 10.5241 15.1156 10.6098 15.1156 10.667V10.8955C15.3156 10.667 15.5442 10.467 15.8299 10.3241C16.1156 10.1527 16.4299 10.067 16.7441 10.0955C16.8013 10.0955 16.8299 10.1241 16.8299 10.1527V11.467C16.8299 11.5241 16.8013 11.5527 16.7156 11.5527C16.487 11.5241 16.287 11.5527 16.087 11.6098C15.887 11.6384 15.7156 11.6955 15.5442 11.7812C15.4013 11.8384 15.2299 11.9241 15.1156 12.0384V15.3812C15.1156 15.4384 15.087 15.467 15.0299 15.467H13.8299C13.7727 15.467 13.7442 15.4384 13.7156 15.3812V11.2384C13.7156 11.0669 13.7156 10.8955 13.687 10.7241C13.687 10.6527 13.6799 10.5813 13.6727 10.5098C13.6656 10.4384 13.6584 10.367 13.6584 10.2955C13.6584 10.2834 13.6584 10.2764 13.6606 10.2702C13.6636 10.2618 13.6706 10.2548 13.687 10.2384C13.687 10.2098 13.7156 10.2098 13.7442 10.2098Z" fill="url(#paint1_linear_48_504)"/>
<defs>
<linearGradient id="paint0_linear_48_504" x1="12" y1="2" x2="12" y2="22" gradientUnits="userSpaceOnUse">
<stop stop-color="#69A3FB"/>
<stop offset="1" stop-color="#477EF7"/>
</linearGradient>
<linearGradient id="paint1_linear_48_504" x1="12" y1="2" x2="12" y2="22" gradientUnits="userSpaceOnUse">
<stop stop-color="#69A3FB"/>
<stop offset="1" stop-color="#477EF7"/>
</linearGradient>
</defs>
</svg>
