<svg width="24" height="24" viewBox="0 0 24 24" fill="none" xmlns="http://www.w3.org/2000/svg">
<path fill-rule="evenodd" clip-rule="evenodd" d="M6 2C4.34315 2 3 3.34315 3 5V19C3 20.6569 4.34315 22 6 22H18C19.6569 22 21 20.6569 21 19V5C21 3.34315 19.6569 2 18 2H6ZM17.5 12C17.5 9.88379 16.3048 8.04673 14.5527 7.12699L14.6004 7.2374C14.8579 7.85721 15 8.53701 15 9.25C15 11.1179 14.0245 12.758 12.5546 13.6885C13.0811 13.8898 13.6527 14 14.25 14C15.4815 14 16.6035 13.5314 17.4475 12.7629C17.4821 12.5136 17.5 12.2589 17.5 12ZM17.2823 13.5362C16.4259 14.1432 15.3796 14.5 14.25 14.5C12.7816 14.5 11.4539 13.8971 10.5006 12.925C10.5002 12.95 10.5 12.975 10.5 13C10.5 14.9355 11.6577 16.6007 13.3189 17.3408C15.224 16.872 16.7386 15.4103 17.2823 13.5362ZM12.506 17.4767C11.0026 16.5532 10 14.8937 10 13C10 12.3045 10.1352 11.6406 10.3811 11.033C8.75138 11.6238 7.53689 13.081 7.29426 14.8487C8.25847 16.4381 10.0052 17.5 12 17.5C12.1707 17.5 12.3396 17.4922 12.506 17.4767ZM12.6515 10.2899C11.7935 9.05698 10.366 8.25 8.75 8.25C8.46284 8.25 8.18163 8.27548 7.90828 8.32463C7.03273 9.29872 6.5 10.5871 6.5 12C6.5 12.7567 6.65282 13.4777 6.92956 14.1337C7.53087 11.8967 9.57313 10.25 12 10.25C12.2206 10.25 12.438 10.2636 12.6515 10.2899ZM13.8264 6.81053C13.255 6.6094 12.6403 6.5 12 6.5C10.6711 6.5 9.45221 6.97132 8.5016 7.75577C8.58392 7.75194 8.66673 7.75 8.75 7.75C11.1934 7.75 13.247 9.41923 13.8322 11.6801C14.2563 10.9691 14.5 10.138 14.5 9.25C14.5 8.35805 14.2542 7.52352 13.8264 6.81053Z" fill="url(#paint0_linear_48_475)"/>
<defs>
<linearGradient id="paint0_linear_48_475" x1="12" y1="2" x2="12" y2="22" gradientUnits="userSpaceOnUse">
<stop stop-color="#31D0FE"/>
<stop offset="1" stop-color="#05BAF1"/>
</linearGradient>
</defs>
</svg>
