<svg width="48" height="48" viewBox="0 0 48 48" fill="none" xmlns="http://www.w3.org/2000/svg">
<path fill-rule="evenodd" clip-rule="evenodd" d="M8 9C8 7.34315 9.34315 6 11 6H27.5147C29.106 6 30.6321 6.63214 31.7574 7.75736L38.2426 14.2426C39.3679 15.3679 40 16.894 40 18.4853V39C40 40.6569 38.6569 42 37 42H11C9.34315 42 8 40.6569 8 39V9ZM30 8.70711C30 8.26165 30.5386 8.03857 30.8536 8.35355L37.6464 15.1464C37.9614 15.4614 37.7383 16 37.2929 16H31C30.4477 16 30 15.5523 30 15V8.70711ZM19.3683 23.9475C19.8883 24.1295 20.4603 23.8555 20.6443 23.3355C20.9183 22.5575 21.4583 21.8995 22.1703 21.4815C22.8823 21.0635 23.7203 20.9095 24.5323 21.0495C25.3463 21.1895 26.0863 21.6135 26.6163 22.2435C27.1483 22.8755 27.4403 23.6755 27.4383 24.5015C27.4383 25.3915 26.8563 26.0775 26.2163 26.6115C25.0643 27.5715 23.6263 28.0515 23.6263 28.0515C23.1023 28.2255 22.8183 28.7915 22.9943 29.3155C23.1683 29.8395 23.7343 30.1235 24.2583 29.9475C24.2583 29.9475 26.0563 29.3475 27.4963 28.1495C28.5823 27.2435 29.4383 26.0115 29.4383 24.5035C29.4403 23.2055 28.9823 21.9495 28.1463 20.9555C27.3103 19.9635 26.1503 19.2975 24.8723 19.0795C23.5923 18.8595 22.2763 19.0995 21.1563 19.7575C20.0383 20.4155 19.1883 21.4475 18.7563 22.6715C18.5743 23.1935 18.8483 23.7635 19.3683 23.9475ZM24.0001 33C23.4478 33 23.0001 33.4477 23.0001 34C23.0001 34.5523 23.4478 35 24.0001 35H24.0201C24.5723 35 25.0201 34.5523 25.0201 34C25.0201 33.4477 24.5723 33 24.0201 33H24.0001Z" fill="url(#paint0_linear_1058_164)"/>
<defs>
<linearGradient id="paint0_linear_1058_164" x1="24" y1="6" x2="24" y2="42" gradientUnits="userSpaceOnUse">
<stop stop-color="#FDC121"/>
<stop offset="1" stop-color="#F7A308"/>
</linearGradient>
</defs>
</svg>
