<svg width="3300" height="2200" viewBox="0 0 3300 2200" fill="none" xmlns="http://www.w3.org/2000/svg">
<g id="Backup-disabled">
<g id="Notes">
<path id="artboard" d="M3300 0H0V2200H3300V0Z" fill="white"/>
<path id="Path" d="M263 292H3036" stroke="black" stroke-width="0.5"/>
<text id="Weight/Scale-Variations" fill="black" xml:space="preserve" style="white-space: pre" font-family="Helvetica" font-size="13" letter-spacing="0em"><tspan x="263" y="320.985">Weight/Scale Variations</tspan></text>
<text id="Ultralight" fill="black" xml:space="preserve" style="white-space: pre" font-family="Helvetica" font-size="13" letter-spacing="0em"><tspan x="533.711" y="320.985">Ultralight</tspan></text>
<text id="Thin" fill="black" xml:space="preserve" style="white-space: pre" font-family="Helvetica" font-size="13" letter-spacing="0em"><tspan x="843.422" y="320.985">Thin</tspan></text>
<text id="Light" fill="black" xml:space="preserve" style="white-space: pre" font-family="Helvetica" font-size="13" letter-spacing="0em"><tspan x="1138.63" y="320.985">Light</tspan></text>
<text id="Regular" fill="black" xml:space="preserve" style="white-space: pre" font-family="Helvetica" font-size="13" letter-spacing="0em"><tspan x="1426.84" y="320.985">Regular</tspan></text>
<text id="Medium" fill="black" xml:space="preserve" style="white-space: pre" font-family="Helvetica" font-size="13" letter-spacing="0em"><tspan x="1723.06" y="320.985">Medium</tspan></text>
<text id="Semibold" fill="black" xml:space="preserve" style="white-space: pre" font-family="Helvetica" font-size="13" letter-spacing="0em"><tspan x="2015.77" y="320.985">Semibold</tspan></text>
<text id="Bold" fill="black" xml:space="preserve" style="white-space: pre" font-family="Helvetica" font-size="13" letter-spacing="0em"><tspan x="2326.48" y="320.985">Bold</tspan></text>
<text id="Heavy" fill="black" xml:space="preserve" style="white-space: pre" font-family="Helvetica" font-size="13" letter-spacing="0em"><tspan x="2618.19" y="320.985">Heavy</tspan></text>
<text id="Black" fill="black" xml:space="preserve" style="white-space: pre" font-family="Helvetica" font-size="13" letter-spacing="0em"><tspan x="2917.4" y="320.985">Black</tspan></text>
<path id="Path_2" d="M263 1903H3036" stroke="black" stroke-width="0.5"/>
<g id="Group">
<path id="Shape" d="M272.248 1933.83C276.555 1933.83 280.139 1930.26 280.139 1925.95C280.139 1921.64 276.545 1918.07 272.238 1918.07C267.941 1918.07 264.367 1921.64 264.367 1925.95C264.367 1930.26 267.951 1933.83 272.248 1933.83ZM272.248 1932.35C268.703 1932.35 265.871 1929.5 265.871 1925.95C265.871 1922.39 268.693 1919.55 272.238 1919.55C275.793 1919.55 278.635 1922.39 278.645 1925.95C278.654 1929.5 275.803 1932.35 272.248 1932.35ZM269.396 1926.68H271.506V1928.8C271.506 1929.24 271.799 1929.54 272.229 1929.54C272.678 1929.54 272.971 1929.24 272.971 1928.8V1926.68H275.1C275.539 1926.68 275.842 1926.39 275.842 1925.96C275.842 1925.52 275.539 1925.22 275.1 1925.22H272.971V1923.11C272.971 1922.66 272.678 1922.36 272.229 1922.36C271.799 1922.36 271.506 1922.66 271.506 1923.11V1925.22H269.396C268.947 1925.22 268.645 1925.52 268.645 1925.96C268.645 1926.39 268.947 1926.68 269.396 1926.68Z" fill="black"/>
</g>
<g id="Group_2">
<path id="Shape_2" d="M293.215 1935.91C298.664 1935.91 303.176 1931.39 303.176 1925.95C303.176 1920.5 298.654 1915.99 293.205 1915.99C287.766 1915.99 283.254 1920.5 283.254 1925.95C283.254 1931.39 287.776 1935.91 293.215 1935.91ZM293.215 1934.25C288.606 1934.25 284.924 1930.56 284.924 1925.95C284.924 1921.34 288.596 1917.65 293.205 1917.65C297.815 1917.65 301.506 1921.34 301.516 1925.95C301.526 1930.56 297.824 1934.25 293.215 1934.25ZM289.494 1926.77H292.385V1929.68C292.385 1930.17 292.717 1930.5 293.196 1930.5C293.684 1930.5 294.026 1930.17 294.026 1929.68V1926.77H296.936C297.424 1926.77 297.756 1926.44 297.756 1925.96C297.756 1925.47 297.424 1925.13 296.936 1925.13H294.026V1922.24C294.026 1921.73 293.684 1921.4 293.196 1921.4C292.717 1921.4 292.385 1921.74 292.385 1922.24V1925.13H289.494C288.986 1925.13 288.654 1925.47 288.654 1925.96C288.654 1926.44 288.996 1926.77 289.494 1926.77Z" fill="black"/>
</g>
<g id="Group_3">
<path id="Shape_3" d="M319.895 1938.66C326.858 1938.66 332.619 1932.9 332.619 1925.95C332.619 1918.99 326.848 1913.22 319.885 1913.22C312.932 1913.22 307.18 1918.99 307.18 1925.95C307.18 1932.9 312.942 1938.66 319.895 1938.66ZM319.895 1936.85C313.86 1936.85 309.006 1931.98 309.006 1925.95C309.006 1919.9 313.85 1915.05 319.885 1915.05C325.93 1915.05 330.783 1919.9 330.793 1925.95C330.803 1931.98 325.94 1936.85 319.895 1936.85ZM314.983 1926.86H318.987V1930.87C318.987 1931.41 319.358 1931.78 319.875 1931.78C320.412 1931.78 320.783 1931.41 320.783 1930.87V1926.86H324.807C325.334 1926.86 325.715 1926.49 325.715 1925.97C325.715 1925.43 325.344 1925.05 324.807 1925.05H320.783V1921.05C320.783 1920.49 320.412 1920.12 319.875 1920.12C319.358 1920.12 318.987 1920.5 318.987 1921.05V1925.05H314.983C314.426 1925.05 314.055 1925.43 314.055 1925.97C314.055 1926.49 314.436 1926.86 314.983 1926.86Z" fill="black"/>
</g>
<text id="Design-Variations" fill="black" xml:space="preserve" style="white-space: pre" font-family="Helvetica" font-size="13" letter-spacing="0em"><tspan x="263" y="1951.98">Design Variations</tspan></text>
<text id="Symbols-are-supported-in-up-to-nine-weights-and-three-scales." fill="black" xml:space="preserve" style="white-space: pre" font-family="Helvetica" font-size="13" letter-spacing="0em"><tspan x="263" y="1969.98">Symbols are supported in up to nine weights and three scales.</tspan></text>
<text id="For-optimal-layout-with-text-and-other-symbols,-vertically-align" fill="black" xml:space="preserve" style="white-space: pre" font-family="Helvetica" font-size="13" letter-spacing="0em"><tspan x="263" y="1987.98">For optimal layout with text and other symbols, vertically align</tspan></text>
<text id="symbols-with-the-adjacent-text." fill="black" xml:space="preserve" style="white-space: pre" font-family="Helvetica" font-size="13" letter-spacing="0em"><tspan x="263" y="2005.98">symbols with the adjacent text.</tspan></text>
<path id="Path_3" d="M776 1919V1933" stroke="#00AEEF" stroke-width="0.5"/>
<g id="Group_4">
<path id="Shape_4" d="M779.311 1933.13C779.828 1933.13 780.082 1932.93 780.268 1932.39L781.527 1928.94H787.289L788.549 1932.39C788.734 1932.93 788.988 1933.13 789.496 1933.13C790.014 1933.13 790.346 1932.81 790.346 1932.33C790.346 1932.16 790.316 1932.01 790.238 1931.8L785.658 1919.61C785.434 1919.01 785.033 1918.71 784.408 1918.71C783.803 1918.71 783.393 1919.01 783.178 1919.6L778.598 1931.81C778.52 1932.02 778.49 1932.17 778.49 1932.34C778.49 1932.82 778.803 1933.13 779.311 1933.13ZM782.006 1927.46L784.379 1920.89H784.428L786.801 1927.46H782.006Z" fill="black"/>
</g>
<path id="Path_4" d="M792.836 1919V1933" stroke="#00AEEF" stroke-width="0.5"/>
<text id="Margins" fill="black" xml:space="preserve" style="white-space: pre" font-family="Helvetica" font-size="13" letter-spacing="0em"><tspan x="776" y="1951.98">Margins</tspan></text>
<text id="Leading-and-trailing-margins-on-the-left-and-right-side-of-each-symbol" fill="black" xml:space="preserve" style="white-space: pre" font-family="Helvetica" font-size="13" letter-spacing="0em"><tspan x="776" y="1969.98">Leading and trailing margins on the left and right side of each symbol</tspan></text>
<text id="can-be-adjusted-by-modifying-the-x-location-of-the-margin-guidelines." fill="black" xml:space="preserve" style="white-space: pre" font-family="Helvetica" font-size="13" letter-spacing="0em"><tspan x="776" y="1987.98">can be adjusted by modifying the x-location of the margin guidelines.</tspan></text>
<text id="Modifications-are-automatically-applied-proportionally-to-all" fill="black" xml:space="preserve" style="white-space: pre" font-family="Helvetica" font-size="13" letter-spacing="0em"><tspan x="776" y="2005.98">Modifications are automatically applied proportionally to all</tspan></text>
<text id="scales-and-weights." fill="black" xml:space="preserve" style="white-space: pre" font-family="Helvetica" font-size="13" letter-spacing="0em"><tspan x="776" y="2023.98">scales and weights.</tspan></text>
<g id="Group_5">
<path id="Shape_5" d="M1291.84 1934.87L1293.54 1936.57C1294.4 1937.44 1295.39 1937.38 1296.31 1936.36L1306.49 1925.15C1306.75 1925.24 1307.03 1925.22 1307.34 1925.16L1308.4 1924.96L1309.07 1925.64L1309.03 1926.19C1308.99 1926.69 1309.12 1927.07 1309.61 1927.55L1310.37 1928.29C1310.85 1928.77 1311.46 1928.8 1311.93 1928.33L1314.84 1925.41C1315.31 1924.94 1315.29 1924.35 1314.81 1923.87L1314.04 1923.11C1313.56 1922.63 1313.19 1922.47 1312.71 1922.51L1312.13 1922.56L1311.49 1921.93L1311.73 1920.8C1311.86 1920.24 1311.71 1919.8 1311.12 1919.21L1308.92 1917.02C1305.58 1913.7 1301.15 1913.78 1298.26 1916.67C1297.84 1917.08 1297.81 1917.66 1298.04 1918.05C1298.28 1918.41 1298.74 1918.64 1299.38 1918.48C1300.85 1918.14 1302.37 1918.08 1303.79 1919.02L1303.21 1920.47C1303.01 1920.95 1302.98 1921.35 1303.11 1921.71L1292.05 1932.1C1291.06 1933.02 1290.98 1934 1291.84 1934.87ZM1299.75 1917.04C1302.18 1915.27 1305.47 1915.57 1307.7 1917.79L1310.13 1920.21C1310.37 1920.44 1310.41 1920.63 1310.34 1920.97L1310.02 1922.45L1311.52 1923.94L1312.51 1923.88C1312.76 1923.87 1312.84 1923.89 1313.03 1924.08L1313.61 1924.66L1311.17 1927.1L1310.59 1926.53C1310.4 1926.33 1310.37 1926.25 1310.38 1925.99L1310.45 1925.01L1308.95 1923.53L1307.43 1923.78C1307.11 1923.85 1306.96 1923.82 1306.71 1923.59L1304.71 1921.58C1304.46 1921.35 1304.43 1921.18 1304.59 1920.81L1305.46 1918.72C1303.9 1917.27 1301.87 1916.64 1299.84 1917.24C1299.68 1917.28 1299.63 1917.15 1299.75 1917.04ZM1294.27 1935.3L1293.1 1934.14C1292.63 1933.68 1292.74 1933.34 1293.14 1932.98L1303.95 1922.8L1305.42 1924.29L1295.43 1935.28C1295.07 1935.68 1294.74 1935.77 1294.27 1935.3Z" fill="black"/>
</g>
<text id="Exporting" fill="black" xml:space="preserve" style="white-space: pre" font-family="Helvetica" font-size="13" letter-spacing="0em"><tspan x="1289" y="1951.98">Exporting</tspan></text>
<text id="Symbols-should-be-outlined-when-exporting-to-ensure-the" fill="black" xml:space="preserve" style="white-space: pre" font-family="Helvetica" font-size="13" letter-spacing="0em"><tspan x="1289" y="1969.98">Symbols should be outlined when exporting to ensure the</tspan></text>
<text id="design-is-preserved-when-submitting-to-Xcode." fill="black" xml:space="preserve" style="white-space: pre" font-family="Helvetica" font-size="13" letter-spacing="0em"><tspan x="1289" y="1987.98">design is preserved when submitting to Xcode.</tspan></text>
<text id="template-version" fill="black" xml:space="preserve" style="white-space: pre" font-family="Helvetica" font-size="13" letter-spacing="0em"><tspan x="2952" y="1931.98">Template v.2.0</tspan></text>
<text id="Requires-Xcode-12-or-greater" fill="black" xml:space="preserve" style="white-space: pre" font-family="Helvetica" font-size="13" letter-spacing="0em"><tspan x="2865" y="1949.98">Requires Xcode 12 or greater</tspan></text>
<text id="Generated-from-person.crop.circle" fill="black" xml:space="preserve" style="white-space: pre" font-family="Helvetica" font-size="13" letter-spacing="0em"><tspan x="2838" y="1967.98">Generated from person.crop.circle</tspan></text>
<text id="Typeset-at-100-points" fill="black" xml:space="preserve" style="white-space: pre" font-family="Helvetica" font-size="13" letter-spacing="0em"><tspan x="2912" y="1985.98">Typeset at 100 points</tspan></text>
<text id="Small" fill="black" xml:space="preserve" style="white-space: pre" font-family="Helvetica" font-size="13" letter-spacing="0em"><tspan x="263" y="724.985">Small</tspan></text>
<text id="Medium_2" fill="black" xml:space="preserve" style="white-space: pre" font-family="Helvetica" font-size="13" letter-spacing="0em"><tspan x="263" y="1154.98">Medium</tspan></text>
<text id="Large" fill="black" xml:space="preserve" style="white-space: pre" font-family="Helvetica" font-size="13" letter-spacing="0em"><tspan x="263" y="1584.98">Large</tspan></text>
</g>
<g id="Guides">
<g id="H-reference">
<path id="Shape_6" d="M340.977 696H343.662L352.988 671.537H385.752L395.127 696H397.764L370.615 625.541H368.125L340.977 696ZM369.346 628.861H369.443L384.873 669.291H353.867L369.346 628.861Z" fill="#27AAE1"/>
</g>
<path id="Baseline-S" d="M264 696H3037" stroke="#27AAE1" stroke-width="0.5"/>
<path id="Capline-S" d="M264 625.541H3037" stroke="#27AAE1" stroke-width="0.5"/>
<g id="H-reference_2">
<path id="Shape_7" d="M340.977 1126H343.662L352.988 1101.54H385.752L395.127 1126H397.764L370.615 1055.54H368.125L340.977 1126ZM369.346 1058.86H369.443L384.873 1099.29H353.867L369.346 1058.86Z" fill="#27AAE1"/>
</g>
<path id="Baseline-M" d="M264 1126H3037" stroke="#27AAE1" stroke-width="0.5"/>
<path id="Capline-M" d="M264 1055.54H3037" stroke="#27AAE1" stroke-width="0.5"/>
<g id="H-reference_3">
<path id="Shape_8" d="M340.977 1556H343.662L352.988 1531.54H385.752L395.127 1556H397.764L370.615 1485.54H368.125L340.977 1556ZM369.346 1488.86H369.443L384.873 1529.29H353.867L369.346 1488.86Z" fill="#27AAE1"/>
</g>
<path id="Baseline-L" d="M264 1556H3037" stroke="#27AAE1" stroke-width="0.5"/>
<path id="Capline-L" d="M264 1485.54H3037" stroke="#27AAE1" stroke-width="0.5"/>
<path id="left-margin" d="M1392.3 1030.79V1150.12" stroke="#00AEEF" stroke-width="0.5"/>
<path id="right-margin" d="M1509.39 1030.79V1150.12" stroke="#00AEEF" stroke-width="0.5"/>
</g>
<g id="Symbols">
<g id="Semibold-L">
<path id="Shape_9" d="M2049.05 1462.96C2054.08 1462.96 2058.88 1463.96 2063.26 1465.78C2061.79 1469.35 2060.98 1473.26 2060.98 1477.36V1477.4C2057.42 1475.51 2053.36 1474.44 2049.05 1474.44C2041.22 1474.44 2034.22 1477.96 2029.53 1483.54C2026.54 1487.1 2021.7 1488.5 2017.27 1487.1C2016.62 1486.89 2015.91 1486.77 2015.15 1486.77C2011.28 1486.77 2008.14 1489.91 2008.14 1493.78C2008.14 1493.95 2008.15 1494.11 2008.16 1494.27C2008.53 1499.69 2005.04 1504.63 1999.81 1506.1C1990.38 1508.75 1983.49 1517.43 1983.49 1527.68C1983.49 1540.06 1993.52 1550.1 2005.9 1550.1H2037.14V1526.53L2030.88 1532.72C2028.6 1534.99 2024.91 1534.97 2022.64 1532.68C2020.38 1530.39 2020.4 1526.71 2022.69 1524.44L2042.97 1504.36L2063.25 1524.44C2065.54 1526.71 2065.56 1530.39 2063.3 1532.68C2061.03 1534.97 2057.34 1534.99 2055.06 1532.72L2048.8 1526.53V1550.1H2080.17C2092.55 1550.1 2102.58 1540.06 2102.58 1527.68C2102.58 1519.09 2097.74 1511.62 2090.64 1507.85C2090.92 1507.86 2091.21 1507.87 2091.49 1507.87C2096.37 1507.87 2100.98 1506.72 2105.08 1504.68C2110.66 1510.73 2114.07 1518.81 2114.07 1527.68C2114.07 1546.31 2099.05 1561.43 2080.46 1561.58H2048.8V1586.04C2048.8 1589.26 2046.19 1591.86 2042.97 1591.86C2039.75 1591.86 2037.14 1589.26 2037.14 1586.04V1561.58H2005.9C1987.18 1561.58 1972 1546.41 1972 1527.68C1972 1512.15 1982.45 1499.05 1996.7 1495.04C1996.67 1494.63 1996.66 1494.2 1996.66 1493.78C1996.66 1483.57 2004.94 1475.29 2015.15 1475.29C2017.1 1475.29 2018.98 1475.59 2020.74 1476.15C2027.52 1468.08 2037.69 1462.96 2049.05 1462.96ZM2091.49 1456C2103.29 1456 2112.85 1465.56 2112.85 1477.36C2112.85 1489.15 2103.29 1498.71 2091.49 1498.71C2079.7 1498.71 2070.14 1489.15 2070.14 1477.36C2070.14 1465.56 2079.7 1456 2091.49 1456ZM2094.54 1486.51H2088.44V1492.61H2094.54V1486.51ZM2094.54 1462.1H2088.44V1480.41H2094.54V1462.1Z" fill="black"/>
</g>
<g id="Regular-L">
<path id="Shape_10" d="M1455.67 1463.05C1458.93 1463.05 1462.09 1463.48 1465.1 1464.29C1463.71 1466.96 1462.72 1469.86 1462.18 1472.92C1460.09 1472.41 1457.91 1472.13 1455.67 1472.13C1447.3 1472.13 1439.82 1475.89 1434.81 1481.85C1432.45 1484.66 1428.62 1485.77 1425.12 1484.66C1424.27 1484.39 1423.35 1484.24 1422.37 1484.24C1417.36 1484.24 1413.29 1488.31 1413.29 1493.32C1413.29 1493.53 1413.3 1493.74 1413.32 1493.95C1413.61 1498.24 1410.85 1502.14 1406.72 1503.3C1396.53 1506.17 1389.08 1515.53 1389.08 1526.62C1389.08 1539.99 1399.92 1550.83 1413.29 1550.83H1444.99V1523.59L1436.71 1531.73C1434.91 1533.5 1431.98 1533.5 1430.18 1531.73L1429.78 1531.34C1427.98 1529.57 1427.98 1526.69 1429.78 1524.92L1449.61 1505.43L1469.45 1524.92C1471.25 1526.69 1471.25 1529.57 1469.45 1531.34L1469.05 1531.73C1467.25 1533.5 1464.32 1533.5 1462.52 1531.73L1454.23 1523.59V1550.83H1486.23C1499.6 1550.83 1510.44 1539.99 1510.44 1526.62C1510.44 1518.67 1506.6 1511.6 1500.68 1507.19C1503.89 1506.23 1506.88 1504.75 1509.54 1502.85C1515.7 1508.89 1519.52 1517.31 1519.52 1526.62C1519.52 1544.91 1504.77 1559.75 1486.51 1559.91H1454.23V1585.64C1454.23 1588.14 1452.16 1590.18 1449.61 1590.18C1447.06 1590.18 1444.99 1588.14 1444.99 1585.64V1559.91H1413.29C1394.91 1559.91 1380 1545 1380 1526.62C1380 1511.36 1390.26 1498.5 1404.26 1494.56C1404.23 1494.15 1404.21 1493.74 1404.21 1493.32C1404.21 1483.29 1412.35 1475.16 1422.37 1475.16C1424.29 1475.16 1426.13 1475.46 1427.86 1476C1434.53 1468.09 1444.51 1463.05 1455.67 1463.05ZM1491.99 1457C1503.69 1457 1513.18 1466.49 1513.18 1478.19C1513.18 1489.89 1503.69 1499.37 1491.99 1499.37C1480.29 1499.37 1470.8 1489.89 1470.8 1478.19C1470.8 1466.49 1480.29 1457 1491.99 1457ZM1495.02 1487.27H1488.96V1493.32H1495.02V1487.27ZM1495.02 1463.05H1488.96V1481.21H1495.02V1463.05Z" fill="black"/>
</g>
<g id="Semibold-M">
<path id="Shape_11" d="M2080.82 1040C2090.06 1040 2097.55 1047.49 2097.55 1056.73C2097.55 1065.98 2090.06 1073.47 2080.82 1073.47C2071.58 1073.47 2064.09 1065.98 2064.09 1056.73C2064.09 1047.49 2071.58 1040 2080.82 1040ZM2083.21 1063.9H2078.43V1068.69H2083.21V1063.9ZM2083.21 1044.78H2078.43V1059.12H2083.21V1044.78ZM2098.51 1096.17C2098.51 1089.21 2095.84 1082.88 2091.46 1078.14C2088.26 1079.74 2084.64 1080.64 2080.82 1080.64C2080.6 1080.64 2080.37 1080.64 2080.15 1080.63C2085.72 1083.58 2089.51 1089.43 2089.51 1096.17C2089.51 1105.87 2081.65 1113.73 2071.94 1113.73C2071.89 1113.73 2071.84 1113.73 2071.79 1113.73H2071.73H2071.67H2071.64H2071.58H2047.36V1095.26L2052.27 1100.12C2054.06 1101.89 2056.95 1101.87 2058.73 1100.08C2060.5 1098.29 2060.49 1095.4 2058.69 1093.63L2042.8 1077.89L2026.91 1093.63C2025.11 1095.4 2025.1 1098.29 2026.87 1100.08C2028.65 1101.87 2031.54 1101.89 2033.33 1100.12L2038.23 1095.26V1113.73H2013.76C2004.05 1113.73 1996.19 1105.87 1996.19 1096.17C1996.19 1088.13 2001.59 1081.33 2008.98 1079.25C2013.08 1078.1 2015.81 1074.23 2015.52 1069.98C2015.51 1069.86 2015.51 1069.73 2015.51 1069.6C2015.51 1066.57 2017.97 1064.11 2021 1064.11C2021.59 1064.11 2022.15 1064.2 2022.66 1064.36C2026.13 1065.46 2029.92 1064.36 2032.27 1061.58C2035.95 1057.2 2041.43 1054.45 2047.57 1054.45C2050.94 1054.45 2054.12 1055.29 2056.91 1056.77V1056.73C2056.91 1053.52 2057.55 1050.46 2058.69 1047.66C2055.27 1046.24 2051.51 1045.45 2047.57 1045.45C2038.66 1045.45 2030.7 1049.47 2025.38 1055.78C2024 1055.35 2022.53 1055.11 2021 1055.11C2013 1055.11 2006.51 1061.6 2006.51 1069.6C2006.51 1069.93 2006.52 1070.26 2006.54 1070.59C1995.38 1073.73 1987.19 1083.99 1987.19 1096.17C1987.19 1110.84 1999.08 1122.73 2013.76 1122.73H2038.23V1141.89C2038.23 1144.41 2040.28 1146.46 2042.8 1146.46C2045.32 1146.46 2047.36 1144.41 2047.36 1141.89V1122.73H2071.72C2071.77 1122.73 2071.82 1122.73 2071.87 1122.73C2071.89 1122.73 2071.92 1122.73 2071.94 1122.73C2072.02 1122.73 2072.1 1122.73 2072.18 1122.73C2086.74 1122.61 2098.51 1110.76 2098.51 1096.17Z" fill="black"/>
</g>
<g id="Regular-M">
<path id="Shape_12" d="M1454.29 1045.74C1456.84 1045.74 1459.32 1046.08 1461.68 1046.71C1460.59 1048.8 1459.81 1051.08 1459.39 1053.47C1457.76 1053.07 1456.05 1052.86 1454.29 1052.86C1447.73 1052.86 1441.87 1055.8 1437.95 1060.47C1436.1 1062.67 1433.1 1063.54 1430.36 1062.67C1429.69 1062.46 1428.96 1062.34 1428.2 1062.34C1424.27 1062.34 1421.09 1065.53 1421.09 1069.46C1421.09 1069.63 1421.09 1069.79 1421.1 1069.95C1421.33 1073.31 1419.17 1076.37 1415.93 1077.28C1407.95 1079.53 1402.11 1086.86 1402.11 1095.55C1402.11 1106.03 1410.61 1114.52 1421.09 1114.52H1445.93V1093.18L1439.43 1099.55C1438.02 1100.94 1435.73 1100.94 1434.32 1099.55L1434 1099.25C1432.59 1097.86 1432.59 1095.61 1434 1094.22L1449.55 1078.95L1465.09 1094.22C1466.5 1095.61 1466.5 1097.86 1465.09 1099.25L1464.78 1099.55C1463.36 1100.94 1461.07 1100.94 1459.66 1099.55L1453.17 1093.18V1114.52H1478.23C1488.71 1114.52 1497.21 1106.03 1497.21 1095.55C1497.21 1089.32 1494.2 1083.78 1489.56 1080.32C1492.08 1079.57 1494.41 1078.41 1496.5 1076.93C1501.33 1081.66 1504.32 1088.25 1504.32 1095.55C1504.32 1109.88 1492.76 1121.51 1478.46 1121.63H1453.17V1141.79C1453.17 1143.76 1451.54 1145.35 1449.55 1145.35C1447.55 1145.35 1445.93 1143.76 1445.93 1141.79V1121.63H1421.09C1406.68 1121.63 1395 1109.95 1395 1095.55C1395 1083.59 1403.04 1073.52 1414.01 1070.43C1413.98 1070.11 1413.97 1069.79 1413.97 1069.46C1413.97 1061.6 1420.34 1055.23 1428.2 1055.23C1429.7 1055.23 1431.15 1055.46 1432.5 1055.89C1437.72 1049.69 1445.55 1045.74 1454.29 1045.74ZM1482.75 1041C1491.92 1041 1499.35 1048.43 1499.35 1057.6C1499.35 1066.77 1491.92 1074.2 1482.75 1074.2C1473.58 1074.2 1466.15 1066.77 1466.15 1057.6C1466.15 1048.43 1473.58 1041 1482.75 1041ZM1485.12 1064.72H1480.38V1069.46H1485.12V1064.72ZM1485.12 1045.74H1480.38V1059.97H1485.12V1045.74Z" fill="black"/>
</g>
<g id="Semibold-S">
<path id="Shape_13" d="M2072.98 621C2080.27 621 2086.18 626.908 2086.18 634.195C2086.18 641.482 2080.27 647.39 2072.98 647.39C2065.69 647.39 2059.79 641.482 2059.79 634.195C2059.79 626.908 2065.69 621 2072.98 621ZM2074.86 639.85H2071.09V643.62H2074.86V639.85ZM2074.86 624.77H2071.09V636.08H2074.86V624.77ZM2046.61 625.345C2049.76 625.345 2052.76 625.983 2055.5 627.138C2054.61 629.318 2054.13 631.7 2054.13 634.195C2054.13 634.287 2054.13 634.378 2054.13 634.469C2051.9 633.243 2049.33 632.545 2046.61 632.545C2041.8 632.545 2037.51 634.703 2034.62 638.129C2032.75 640.357 2029.72 641.237 2026.94 640.358C2026.55 640.233 2026.12 640.162 2025.66 640.162C2023.33 640.162 2021.43 642.054 2021.43 644.388C2021.43 644.489 2021.44 644.588 2021.44 644.684C2021.67 648.083 2019.49 651.177 2016.21 652.1C2010.43 653.727 2006.2 659.047 2006.2 665.336C2006.2 672.928 2012.35 679.083 2019.95 679.083H2039.4V664.575L2035.53 668.403C2034.12 669.802 2031.84 669.791 2030.44 668.378C2029.04 666.965 2029.05 664.685 2030.47 663.287L2043 650.879L2055.53 663.287C2056.95 664.685 2056.96 666.965 2055.56 668.378C2054.16 669.791 2051.88 669.802 2050.47 668.403L2046.6 664.575V679.083H2065.55C2065.6 679.082 2065.66 679.082 2065.71 679.083H2065.77H2065.83C2073.42 679.083 2079.58 672.928 2079.58 665.336C2079.58 659.943 2076.47 655.268 2071.95 653.017C2072.29 653.036 2072.63 653.045 2072.98 653.045C2075.94 653.045 2078.75 652.362 2081.24 651.144C2084.68 654.876 2086.78 659.86 2086.78 665.336C2086.78 676.844 2077.5 686.185 2066.01 686.282L2065.95 686.283C2065.91 686.283 2065.87 686.283 2065.83 686.283C2065.77 686.283 2065.71 686.283 2065.65 686.282V686.283H2058.45H2046.6V701.345C2046.6 703.333 2044.99 704.945 2043 704.945C2041.01 704.945 2039.4 703.333 2039.4 701.345V686.283H2019.95C2008.38 686.283 1999 676.905 1999 665.336C1999 655.738 2005.46 647.647 2014.26 645.169C2014.24 644.911 2014.23 644.651 2014.23 644.388C2014.23 638.078 2019.35 632.962 2025.66 632.962C2026.86 632.962 2028.02 633.148 2029.11 633.494C2033.31 628.511 2039.59 625.345 2046.61 625.345Z" fill="black"/>
</g>
<g id="Regular-S">
<path id="Shape_14" d="M1452.91 623.753C1454.94 623.753 1456.89 624.019 1458.76 624.519C1457.9 626.173 1457.28 627.972 1456.95 629.868C1455.66 629.551 1454.3 629.383 1452.91 629.383C1447.73 629.383 1443.09 631.714 1439.98 635.407C1438.52 637.149 1436.15 637.837 1433.98 637.15C1433.44 636.982 1432.87 636.889 1432.27 636.889C1429.16 636.889 1426.64 639.409 1426.64 642.519C1426.64 642.651 1426.65 642.781 1426.66 642.909C1426.83 645.566 1425.13 647.986 1422.56 648.707C1416.25 650.484 1411.63 656.29 1411.63 663.161C1411.63 671.452 1418.35 678.173 1426.64 678.173H1446.3V661.284L1441.16 666.331C1440.04 667.432 1438.23 667.432 1437.11 666.331L1436.86 666.089C1435.75 664.991 1435.75 663.209 1436.86 662.109L1449.16 650.025L1461.46 662.109C1462.58 663.209 1462.58 664.991 1461.46 666.089L1461.21 666.331C1460.09 667.432 1458.28 667.432 1457.16 666.331L1452.02 661.284V678.173H1471.59C1471.63 678.172 1471.68 678.172 1471.73 678.172L1471.86 678.173C1480.15 678.173 1486.87 671.452 1486.87 663.161C1486.87 658.232 1484.49 653.854 1480.82 651.116C1482.81 650.52 1484.66 649.604 1486.31 648.426C1490.13 652.172 1492.5 657.39 1492.5 663.161C1492.5 674.501 1483.35 683.706 1472.04 683.802L1471.86 683.803L1471.68 683.802V683.803H1452.02V699.753C1452.02 701.307 1450.74 702.568 1449.16 702.568C1447.58 702.568 1446.3 701.307 1446.3 699.753V683.803H1426.64C1415.24 683.803 1406 674.561 1406 663.161C1406 653.703 1412.36 645.73 1421.04 643.288C1421.02 643.034 1421.01 642.777 1421.01 642.519C1421.01 636.3 1426.05 631.259 1432.27 631.259C1433.46 631.259 1434.6 631.443 1435.67 631.783C1439.81 626.873 1446 623.753 1452.91 623.753ZM1475.43 620C1482.69 620 1488.57 625.881 1488.57 633.136C1488.57 640.391 1482.69 646.272 1475.43 646.272C1468.18 646.272 1462.3 640.391 1462.3 633.136C1462.3 625.881 1468.18 620 1475.43 620ZM1477.31 638.765H1473.56V642.519H1477.31V638.765ZM1477.31 623.753H1473.56V635.012H1477.31V623.753Z" fill="black"/>
</g>
</g>
</g>
</svg>
