<?xml version="1.0" encoding="UTF-8" standalone="no"?>
<svg
   width="22"
   height="22"
   viewBox="0 0 22 22"
   fill="none"
   version="1.1"
   id="svg3"
   sodipodi:docname="status.svg"
   inkscape:version="1.4 (86a8ad7, 2024-10-11)"
   xmlns:inkscape="http://www.inkscape.org/namespaces/inkscape"
   xmlns:sodipodi="http://sodipodi.sourceforge.net/DTD/sodipodi-0.dtd"
   xmlns="http://www.w3.org/2000/svg"
   xmlns:svg="http://www.w3.org/2000/svg">
  <defs
     id="defs3" />
  <sodipodi:namedview
     id="namedview3"
     pagecolor="#ffffff"
     bordercolor="#000000"
     borderopacity="0.25"
     inkscape:showpageshadow="2"
     inkscape:pageopacity="0.0"
     inkscape:pagecheckerboard="0"
     inkscape:deskcolor="#d1d1d1"
     showgrid="true"
     inkscape:zoom="44.238368"
     inkscape:cx="14.693128"
     inkscape:cy="11.426733"
     inkscape:window-width="2400"
     inkscape:window-height="1261"
     inkscape:window-x="1911"
     inkscape:window-y="-9"
     inkscape:window-maximized="1"
     inkscape:current-layer="svg3">
    <inkscape:grid
       id="grid3"
       units="px"
       originx="0"
       originy="0"
       spacingx="1"
       spacingy="1"
       empcolor="#0099e5"
       empopacity="0.30196078"
       color="#0099e5"
       opacity="0.14901961"
       empspacing="5"
       enabled="true"
       visible="true" />
  </sodipodi:namedview>
  <path
     d="m 11,10.5 c 0.27614,0 0.5,0.22386 0.5,0.5 v 2.5 c 0,0.2761 -0.22386,0.5 -0.5,0.5 -0.27614,0 -0.5,-0.2239 -0.5,-0.5 V 11 c 0,-0.27614 0.22386,-0.5 0.5,-0.5 z"
     fill="#303233"
     id="path1" />
  <path
     d="m 11,7.9999999 c -0.27614,0 -0.5,0.22386 -0.5,0.5 0,0.27614 0.22386,0.5 0.5,0.5 h 0.0067 c 0.27614,0 0.5,-0.22386 0.5,-0.5 0,-0.27614 -0.22386,-0.5 -0.5,-0.5 z"
     fill="#303233"
     id="path2" />
  <path
     fill-rule="evenodd"
     clip-rule="evenodd"
     d="m 4.0000003,11 c 0,-3.8659901 3.13401,-7.0000001 6.9999997,-7.0000001 3.866,0 7,3.13401 7,7.0000001 0,3.866 -3.134,7 -7,7 C 7.1340103,18 4.0000002,14.866 4.0000003,11 Z M 11,4.9999999 c -3.3137097,0 -5.9999998,2.68629 -5.9999998,6.0000001 0,3.3137 2.6862901,6 5.9999998,6 3.3137,0 6,-2.6863 6,-6 0,-3.3137101 -2.6863,-6.0000001 -6,-6.0000001 z"
     fill="#303233"
     id="path3" />
</svg>
